<?xml version="1.0" encoding="UTF-8" standalone="no"?>
<!DOCTYPE svg PUBLIC "-//W3C//DTD SVG 1.1//EN"
 "http://www.w3.org/Graphics/SVG/1.1/DTD/svg11.dtd">
<!-- Generated by graphviz version 12.1.2 (20240928.0832)
 -->
<!-- Title: ERD Pages: 1 -->
<svg width="757pt" height="1458pt"
 viewBox="0.00 0.00 757.00 1458.00" xmlns="http://www.w3.org/2000/svg" xmlns:xlink="http://www.w3.org/1999/xlink">
<g id="graph0" class="graph" transform="scale(1 1) rotate(0) translate(4 1454)">
<title>ERD</title>
<polygon fill="white" stroke="none" points="-4,4 -4,-1454 753,-1454 753,4 -4,4"/>
<g id="clust1" class="cluster">
<title>cluster_SYSTEM</title>
<polygon fill="lightyellow" stroke="black" points="621.75,-8 621.75,-77 691.75,-77 691.75,-8 621.75,-8"/>
<text text-anchor="middle" x="656.75" y="-59.7" font-family="Times,serif" font-size="14.00">SYSTEM</text>
</g>
<g id="clust2" class="cluster">
<title>cluster_PUBLIC</title>
<polygon fill="lightyellow" stroke="black" points="8,-85 8,-1442 741,-1442 741,-85 8,-85"/>
<text text-anchor="middle" x="374.5" y="-1424.7" font-family="Times,serif" font-size="14.00">PUBLIC</text>
</g>
<!-- SYSTEM.USR -->
<g id="node1" class="node">
<title>SYSTEM.USR</title>
<polygon fill="#eee9bf" stroke="none" points="637.75,-15.75 637.75,-44.25 676.75,-44.25 676.75,-15.75 637.75,-15.75"/>
<polygon fill="#eedd82" stroke="none" points="637.75,-15.75 637.75,-44.25 676.75,-44.25 676.75,-15.75 637.75,-15.75"/>
<polygon fill="none" stroke="black" points="637.75,-15.75 637.75,-44.25 676.75,-44.25 676.75,-15.75 637.75,-15.75"/>
<text text-anchor="start" x="643.75" y="-25.95" font-family="Times,serif" font-weight="bold" font-size="14.00">USR</text>
</g>
<!-- PUBLIC.取引先グループマスタ -->
<g id="node2" class="node">
<title>PUBLIC.取引先グループマスタ</title>
<polygon fill="#eee9bf" stroke="none" points="581.5,-93.5 581.5,-120.5 733,-120.5 733,-93.5 581.5,-93.5"/>
<polygon fill="#eedd82" stroke="none" points="581.5,-93.5 581.5,-120.5 733,-120.5 733,-93.5 581.5,-93.5"/>
<polygon fill="none" stroke="black" points="581.5,-93.5 581.5,-120.5 733,-120.5 733,-93.5 581.5,-93.5"/>
<text text-anchor="start" x="587.5" y="-102.2" font-family="Times,serif" font-weight="bold" font-size="14.00">取引先グループマスタ</text>
</g>
<!-- PUBLIC.与信残高データ -->
<g id="node3" class="node">
<title>PUBLIC.与信残高データ</title>
<polygon fill="#eee9bf" stroke="none" points="601.38,-138.5 601.38,-165.5 713.12,-165.5 713.12,-138.5 601.38,-138.5"/>
<polygon fill="#eedd82" stroke="none" points="601.38,-138.5 601.38,-165.5 713.12,-165.5 713.12,-138.5 601.38,-138.5"/>
<polygon fill="none" stroke="black" points="601.38,-138.5 601.38,-165.5 713.12,-165.5 713.12,-138.5 601.38,-138.5"/>
<text text-anchor="start" x="607.38" y="-147.2" font-family="Times,serif" font-weight="bold" font-size="14.00">与信残高データ</text>
</g>
<!-- PUBLIC.取引先マスタ -->
<g id="node4" class="node">
<title>PUBLIC.取引先マスタ</title>
<polygon fill="#eee9bf" stroke="none" points="232,-494 232,-542 329.5,-542 329.5,-494 232,-494"/>
<polygon fill="#eedd82" stroke="none" points="232,-515 232,-542 329.5,-542 329.5,-515 232,-515"/>
<polygon fill="none" stroke="black" points="232,-515 232,-542 329.5,-542 329.5,-515 232,-515"/>
<text text-anchor="start" x="238" y="-523.7" font-family="Times,serif" font-weight="bold" font-size="14.00">取引先マスタ</text>
<polygon fill="none" stroke="black" points="232,-494 232,-515 329.5,-515 329.5,-494 232,-494"/>
<text text-anchor="start" x="235" y="-498.7" font-family="Times,serif" font-size="14.00">取引先コード</text>
</g>
<!-- PUBLIC.仕入先マスタ -->
<g id="node5" class="node">
<title>PUBLIC.仕入先マスタ</title>
<polygon fill="#eee9bf" stroke="none" points="419.5,-263 419.5,-311 517,-311 517,-263 419.5,-263"/>
<polygon fill="#eedd82" stroke="none" points="419.5,-284 419.5,-311 517,-311 517,-284 419.5,-284"/>
<polygon fill="none" stroke="black" points="419.5,-284 419.5,-311 517,-311 517,-284 419.5,-284"/>
<text text-anchor="start" x="425.5" y="-292.7" font-family="Times,serif" font-weight="bold" font-size="14.00">仕入先マスタ</text>
<polygon fill="none" stroke="black" points="419.5,-263 419.5,-284 517,-284 517,-263 419.5,-263"/>
<text text-anchor="start" x="422.5" y="-267.7" font-family="Times,serif" font-size="14.00">仕入先コード</text>
</g>
<!-- PUBLIC.仕入先マスタ&#45;&gt;PUBLIC.取引先マスタ -->
<g id="edge14" class="edge">
<title>PUBLIC.仕入先マスタ:r20&#45;&gt;PUBLIC.取引先マスタ:r18</title>
<path fill="none" stroke="black" stroke-dasharray="5,2" d="M418.5,-273.5C312.61,-273.5 431.16,-488.11 341.49,-503.62"/>
<polygon fill="black" stroke="black" points="331.71,-504.4 341.32,-499.12 335.48,-504.1 341.68,-503.6 341.68,-503.6 341.68,-503.6 335.48,-504.1 342.04,-508.09 331.71,-504.4"/>
</g>
<!-- PUBLIC.商品マスタ -->
<g id="node6" class="node">
<title>PUBLIC.商品マスタ</title>
<polygon fill="#eee9bf" stroke="none" points="426.62,-329 426.62,-377 509.88,-377 509.88,-329 426.62,-329"/>
<polygon fill="#eedd82" stroke="none" points="426.62,-350 426.62,-377 509.88,-377 509.88,-350 426.62,-350"/>
<polygon fill="none" stroke="black" points="426.62,-350 426.62,-377 509.88,-377 509.88,-350 426.62,-350"/>
<text text-anchor="start" x="432.62" y="-358.7" font-family="Times,serif" font-weight="bold" font-size="14.00">商品マスタ</text>
<polygon fill="none" stroke="black" points="426.62,-329 426.62,-350 509.88,-350 509.88,-329 426.62,-329"/>
<text text-anchor="start" x="429.62" y="-333.7" font-family="Times,serif" font-size="14.00">商品コード</text>
</g>
<!-- PUBLIC.部品表 -->
<g id="node7" class="node">
<title>PUBLIC.部品表</title>
<polygon fill="#eee9bf" stroke="none" points="618.62,-407 618.62,-455 695.88,-455 695.88,-407 618.62,-407"/>
<polygon fill="#eedd82" stroke="none" points="618.62,-428 618.62,-455 695.88,-455 695.88,-428 618.62,-428"/>
<polygon fill="none" stroke="black" points="618.62,-428 618.62,-455 695.88,-455 695.88,-428 618.62,-428"/>
<text text-anchor="start" x="635.88" y="-436.7" font-family="Times,serif" font-weight="bold" font-size="14.00">部品表</text>
<polygon fill="none" stroke="black" points="618.62,-407 618.62,-428 695.88,-428 695.88,-407 618.62,-407"/>
<text text-anchor="start" x="621.62" y="-411.7" font-family="Times,serif" font-size="14.00">商品コード</text>
</g>
<!-- PUBLIC.部品表&#45;&gt;PUBLIC.商品マスタ -->
<g id="edge7" class="edge">
<title>PUBLIC.部品表:r12&#45;&gt;PUBLIC.商品マスタ:r11</title>
<path fill="none" stroke="black" stroke-dasharray="5,2" d="M617.62,-417.5C562.88,-417.5 568.49,-349.8 522,-340.54"/>
<polygon fill="black" stroke="black" points="512.09,-339.61 522.46,-336.07 515.85,-339.97 522.04,-340.55 522.04,-340.55 522.04,-340.55 515.85,-339.97 521.62,-345.03 512.09,-339.61"/>
</g>
<!-- PUBLIC.顧客別販売単価 -->
<g id="node8" class="node">
<title>PUBLIC.顧客別販売単価</title>
<polygon fill="#eee9bf" stroke="none" points="601.38,-250 601.38,-298 713.12,-298 713.12,-250 601.38,-250"/>
<polygon fill="#eedd82" stroke="none" points="601.38,-271 601.38,-298 713.12,-298 713.12,-271 601.38,-271"/>
<polygon fill="none" stroke="black" points="601.38,-271 601.38,-298 713.12,-298 713.12,-271 601.38,-271"/>
<text text-anchor="start" x="607.38" y="-279.7" font-family="Times,serif" font-weight="bold" font-size="14.00">顧客別販売単価</text>
<polygon fill="none" stroke="black" points="601.38,-250 601.38,-271 713.12,-271 713.12,-250 601.38,-250"/>
<text text-anchor="start" x="604.38" y="-254.7" font-family="Times,serif" font-size="14.00">商品コード</text>
</g>
<!-- PUBLIC.顧客別販売単価&#45;&gt;PUBLIC.商品マスタ -->
<g id="edge6" class="edge">
<title>PUBLIC.顧客別販売単価:r10&#45;&gt;PUBLIC.商品マスタ:r11</title>
<path fill="none" stroke="black" stroke-dasharray="5,2" d="M600.38,-260.5C564.4,-260.5 573.71,-297.68 545.5,-320 535.11,-328.22 530.76,-335.08 521.79,-337.99"/>
<polygon fill="black" stroke="black" points="512.08,-339.33 521.37,-333.51 515.83,-338.82 521.99,-337.97 521.99,-337.97 521.99,-337.97 515.83,-338.82 522.6,-342.42 512.08,-339.33"/>
</g>
<!-- PUBLIC.取引先分類マスタ -->
<g id="node9" class="node">
<title>PUBLIC.取引先分類マスタ</title>
<polygon fill="#eee9bf" stroke="none" points="206.5,-813.5 206.5,-882.5 355,-882.5 355,-813.5 206.5,-813.5"/>
<polygon fill="#eedd82" stroke="none" points="206.5,-855.5 206.5,-882.5 355,-882.5 355,-855.5 206.5,-855.5"/>
<polygon fill="none" stroke="black" points="206.5,-855.5 206.5,-882.5 355,-882.5 355,-855.5 206.5,-855.5"/>
<text text-anchor="start" x="223.75" y="-864.2" font-family="Times,serif" font-weight="bold" font-size="14.00">取引先分類マスタ</text>
<polygon fill="none" stroke="black" points="206.5,-834.5 206.5,-855.5 355,-855.5 355,-834.5 206.5,-834.5"/>
<text text-anchor="start" x="209.5" y="-839.2" font-family="Times,serif" font-size="14.00">取引先分類種別コード</text>
<polygon fill="none" stroke="black" points="206.5,-813.5 206.5,-834.5 355,-834.5 355,-813.5 206.5,-813.5"/>
<text text-anchor="start" x="209.5" y="-818.2" font-family="Times,serif" font-size="14.00">取引先分類コード</text>
</g>
<!-- PUBLIC.取引先分類種別マスタ -->
<g id="node17" class="node">
<title>PUBLIC.取引先分類種別マスタ</title>
<polygon fill="#eee9bf" stroke="none" points="16,-834 16,-882 170.5,-882 170.5,-834 16,-834"/>
<polygon fill="#eedd82" stroke="none" points="16,-855 16,-882 170.5,-882 170.5,-855 16,-855"/>
<polygon fill="none" stroke="black" points="16,-855 16,-882 170.5,-882 170.5,-855 16,-855"/>
<text text-anchor="start" x="22" y="-863.7" font-family="Times,serif" font-weight="bold" font-size="14.00">取引先分類種別マスタ</text>
<polygon fill="none" stroke="black" points="16,-834 16,-855 170.5,-855 170.5,-834 16,-834"/>
<text text-anchor="start" x="19" y="-838.7" font-family="Times,serif" font-size="14.00">取引先分類種別コード</text>
</g>
<!-- PUBLIC.取引先分類マスタ&#45;&gt;PUBLIC.取引先分類種別マスタ -->
<g id="edge19" class="edge">
<title>PUBLIC.取引先分類マスタ:r5&#45;&gt;PUBLIC.取引先分類種別マスタ:r29</title>
<path fill="none" stroke="black" stroke-dasharray="5,2" d="M206.5,-845C195,-845 189.7,-844.74 181.69,-844.6"/>
<polygon fill="black" stroke="black" points="171.72,-844.51 181.76,-840.1 175.5,-844.54 181.72,-844.6 181.72,-844.6 181.72,-844.6 175.5,-844.54 181.68,-849.1 171.72,-844.51"/>
</g>
<!-- PUBLIC.取引先分類所属マスタ -->
<g id="node10" class="node">
<title>PUBLIC.取引先分類所属マスタ</title>
<polygon fill="#eee9bf" stroke="none" points="391,-793 391,-883 545.5,-883 545.5,-793 391,-793"/>
<polygon fill="#eedd82" stroke="none" points="391,-856 391,-883 545.5,-883 545.5,-856 391,-856"/>
<polygon fill="none" stroke="black" points="391,-856 391,-883 545.5,-883 545.5,-856 391,-856"/>
<text text-anchor="start" x="397" y="-864.7" font-family="Times,serif" font-weight="bold" font-size="14.00">取引先分類所属マスタ</text>
<polygon fill="none" stroke="black" points="391,-835 391,-856 545.5,-856 545.5,-835 391,-835"/>
<text text-anchor="start" x="394" y="-839.7" font-family="Times,serif" font-size="14.00">取引先分類種別コード</text>
<polygon fill="none" stroke="black" points="391,-814 391,-835 545.5,-835 545.5,-814 391,-814"/>
<text text-anchor="start" x="394" y="-818.7" font-family="Times,serif" font-size="14.00">取引先分類コード</text>
<polygon fill="none" stroke="black" points="391,-793 391,-814 545.5,-814 545.5,-793 391,-793"/>
<text text-anchor="start" x="394" y="-797.7" font-family="Times,serif" font-size="14.00">取引先コード</text>
</g>
<!-- PUBLIC.取引先分類所属マスタ&#45;&gt;PUBLIC.取引先マスタ -->
<g id="edge13" class="edge">
<title>PUBLIC.取引先分類所属マスタ:r19&#45;&gt;PUBLIC.取引先マスタ:r18</title>
<path fill="none" stroke="black" stroke-dasharray="5,2" d="M391,-803.5C259.39,-803.5 454.04,-521.76 341.54,-505.25"/>
<polygon fill="black" stroke="black" points="331.72,-504.58 342,-500.78 335.49,-504.84 341.69,-505.27 341.69,-505.27 341.69,-505.27 335.49,-504.84 341.39,-509.75 331.72,-504.58"/>
</g>
<!-- PUBLIC.取引先分類所属マスタ&#45;&gt;PUBLIC.取引先分類マスタ -->
<g id="edge3" class="edge">
<title>PUBLIC.取引先分類所属マスタ:r4&#45;&gt;PUBLIC.取引先分類マスタ:r5</title>
<path fill="none" stroke="black" stroke-dasharray="5,2" d="M391,-845.5C379.5,-845.5 374.2,-845.24 366.19,-845.1"/>
<polygon fill="black" stroke="black" points="356.22,-845.01 366.26,-840.6 360,-845.04 366.22,-845.1 366.22,-845.1 366.22,-845.1 360,-845.04 366.18,-849.6 356.22,-845.01"/>
</g>
<!-- PUBLIC.取引先分類所属マスタ&#45;&gt;PUBLIC.取引先分類マスタ -->
<g id="edge4" class="edge">
<title>PUBLIC.取引先分類所属マスタ:r6&#45;&gt;PUBLIC.取引先分類マスタ:r7</title>
<path fill="none" stroke="black" stroke-dasharray="5,2" d="M391,-824.5C379.5,-824.5 374.2,-824.24 366.19,-824.1"/>
<polygon fill="black" stroke="black" points="356.22,-824.01 366.26,-819.6 360,-824.04 366.22,-824.1 366.22,-824.1 366.22,-824.1 360,-824.04 366.18,-828.6 356.22,-824.01"/>
</g>
<!-- PUBLIC.支払データ -->
<g id="node11" class="node">
<title>PUBLIC.支払データ</title>
<polygon fill="#eee9bf" stroke="none" points="615.62,-316.5 615.62,-343.5 698.88,-343.5 698.88,-316.5 615.62,-316.5"/>
<polygon fill="#eedd82" stroke="none" points="615.62,-316.5 615.62,-343.5 698.88,-343.5 698.88,-316.5 615.62,-316.5"/>
<polygon fill="none" stroke="black" points="615.62,-316.5 615.62,-343.5 698.88,-343.5 698.88,-316.5 615.62,-316.5"/>
<text text-anchor="start" x="621.62" y="-325.2" font-family="Times,serif" font-weight="bold" font-size="14.00">支払データ</text>
</g>
<!-- PUBLIC.自動採番マスタ -->
<g id="node12" class="node">
<title>PUBLIC.自動採番マスタ</title>
<polygon fill="#eee9bf" stroke="none" points="601.38,-361.5 601.38,-388.5 713.12,-388.5 713.12,-361.5 601.38,-361.5"/>
<polygon fill="#eedd82" stroke="none" points="601.38,-361.5 601.38,-388.5 713.12,-388.5 713.12,-361.5 601.38,-361.5"/>
<polygon fill="none" stroke="black" points="601.38,-361.5 601.38,-388.5 713.12,-388.5 713.12,-361.5 601.38,-361.5"/>
<text text-anchor="start" x="607.38" y="-370.2" font-family="Times,serif" font-weight="bold" font-size="14.00">自動採番マスタ</text>
</g>
<!-- PUBLIC.受注データ -->
<g id="node13" class="node">
<title>PUBLIC.受注データ</title>
<polygon fill="#eee9bf" stroke="none" points="426.62,-1179 426.62,-1227 509.88,-1227 509.88,-1179 426.62,-1179"/>
<polygon fill="#eedd82" stroke="none" points="426.62,-1200 426.62,-1227 509.88,-1227 509.88,-1200 426.62,-1200"/>
<polygon fill="none" stroke="black" points="426.62,-1200 426.62,-1227 509.88,-1227 509.88,-1200 426.62,-1200"/>
<text text-anchor="start" x="432.62" y="-1208.7" font-family="Times,serif" font-weight="bold" font-size="14.00">受注データ</text>
<polygon fill="none" stroke="black" points="426.62,-1179 426.62,-1200 509.88,-1200 509.88,-1179 426.62,-1179"/>
<text text-anchor="start" x="429.62" y="-1183.7" font-family="Times,serif" font-size="14.00">受注番号</text>
</g>
<!-- PUBLIC.発注データ明細 -->
<g id="node14" class="node">
<title>PUBLIC.発注データ明細</title>
<polygon fill="#eee9bf" stroke="none" points="601.38,-561 601.38,-609 713.12,-609 713.12,-561 601.38,-561"/>
<polygon fill="#eedd82" stroke="none" points="601.38,-582 601.38,-609 713.12,-609 713.12,-582 601.38,-582"/>
<polygon fill="none" stroke="black" points="601.38,-582 601.38,-609 713.12,-609 713.12,-582 601.38,-582"/>
<text text-anchor="start" x="607.38" y="-590.7" font-family="Times,serif" font-weight="bold" font-size="14.00">発注データ明細</text>
<polygon fill="none" stroke="black" points="601.38,-561 601.38,-582 713.12,-582 713.12,-561 601.38,-561"/>
<text text-anchor="start" x="604.38" y="-565.7" font-family="Times,serif" font-size="14.00">発注番号</text>
</g>
<!-- PUBLIC.発注データ -->
<g id="node20" class="node">
<title>PUBLIC.発注データ</title>
<polygon fill="#eee9bf" stroke="none" points="426.62,-561 426.62,-609 509.88,-609 509.88,-561 426.62,-561"/>
<polygon fill="#eedd82" stroke="none" points="426.62,-582 426.62,-609 509.88,-609 509.88,-582 426.62,-582"/>
<polygon fill="none" stroke="black" points="426.62,-582 426.62,-609 509.88,-609 509.88,-582 426.62,-582"/>
<text text-anchor="start" x="432.62" y="-590.7" font-family="Times,serif" font-weight="bold" font-size="14.00">発注データ</text>
<polygon fill="none" stroke="black" points="426.62,-561 426.62,-582 509.88,-582 509.88,-561 426.62,-561"/>
<text text-anchor="start" x="429.62" y="-565.7" font-family="Times,serif" font-size="14.00">発注番号</text>
</g>
<!-- PUBLIC.発注データ明細&#45;&gt;PUBLIC.発注データ -->
<g id="edge23" class="edge">
<title>PUBLIC.発注データ明細:r35&#45;&gt;PUBLIC.発注データ:r36</title>
<path fill="none" stroke="black" stroke-dasharray="5,2" d="M600.38,-571.5C564.48,-571.5 552.88,-571.5 521.73,-571.5"/>
<polygon fill="black" stroke="black" points="512.09,-571.5 522.09,-567 515.88,-571.5 522.09,-571.5 522.09,-571.5 522.09,-571.5 515.88,-571.5 522.09,-576 512.09,-571.5"/>
</g>
<!-- PUBLIC.顧客マスタ -->
<g id="node15" class="node">
<title>PUBLIC.顧客マスタ</title>
<polygon fill="#eee9bf" stroke="none" points="426.62,-473.5 426.62,-542.5 509.88,-542.5 509.88,-473.5 426.62,-473.5"/>
<polygon fill="#eedd82" stroke="none" points="426.62,-515.5 426.62,-542.5 509.88,-542.5 509.88,-515.5 426.62,-515.5"/>
<polygon fill="none" stroke="black" points="426.62,-515.5 426.62,-542.5 509.88,-542.5 509.88,-515.5 426.62,-515.5"/>
<text text-anchor="start" x="432.62" y="-524.2" font-family="Times,serif" font-weight="bold" font-size="14.00">顧客マスタ</text>
<polygon fill="none" stroke="black" points="426.62,-494.5 426.62,-515.5 509.88,-515.5 509.88,-494.5 426.62,-494.5"/>
<text text-anchor="start" x="429.62" y="-499.2" font-family="Times,serif" font-size="14.00">顧客コード</text>
<polygon fill="none" stroke="black" points="426.62,-473.5 426.62,-494.5 509.88,-494.5 509.88,-473.5 426.62,-473.5"/>
<text text-anchor="start" x="429.62" y="-478.2" font-family="Times,serif" font-size="14.00">顧客枝番</text>
</g>
<!-- PUBLIC.顧客マスタ&#45;&gt;PUBLIC.取引先マスタ -->
<g id="edge12" class="edge">
<title>PUBLIC.顧客マスタ:r1&#45;&gt;PUBLIC.取引先マスタ:r18</title>
<path fill="none" stroke="black" stroke-dasharray="5,2" d="M425.62,-505C387.31,-505 375.04,-504.59 341.61,-504.51"/>
<polygon fill="black" stroke="black" points="331.72,-504.5 341.72,-500.01 335.5,-504.51 341.72,-504.51 341.72,-504.51 341.72,-504.51 335.5,-504.51 341.71,-509.01 331.72,-504.5"/>
</g>
<!-- PUBLIC.倉庫部門マスタ -->
<g id="node16" class="node">
<title>PUBLIC.倉庫部門マスタ</title>
<polygon fill="#eee9bf" stroke="none" points="601.38,-627 601.38,-717 713.12,-717 713.12,-627 601.38,-627"/>
<polygon fill="#eedd82" stroke="none" points="601.38,-690 601.38,-717 713.12,-717 713.12,-690 601.38,-690"/>
<polygon fill="none" stroke="black" points="601.38,-690 601.38,-717 713.12,-717 713.12,-690 601.38,-690"/>
<text text-anchor="start" x="607.38" y="-698.7" font-family="Times,serif" font-weight="bold" font-size="14.00">倉庫部門マスタ</text>
<polygon fill="none" stroke="black" points="601.38,-669 601.38,-690 713.12,-690 713.12,-669 601.38,-669"/>
<text text-anchor="start" x="604.38" y="-673.7" font-family="Times,serif" font-size="14.00">倉庫コード</text>
<polygon fill="none" stroke="black" points="601.38,-648 601.38,-669 713.12,-669 713.12,-648 601.38,-648"/>
<text text-anchor="start" x="604.38" y="-652.7" font-family="Times,serif" font-size="14.00">部門コード</text>
<polygon fill="none" stroke="black" points="601.38,-627 601.38,-648 713.12,-648 713.12,-627 601.38,-627"/>
<text text-anchor="start" x="604.38" y="-631.7" font-family="Times,serif" font-size="14.00">開始日</text>
</g>
<!-- PUBLIC.部門マスタ -->
<g id="node25" class="node">
<title>PUBLIC.部門マスタ</title>
<polygon fill="#eee9bf" stroke="none" points="426.62,-627.5 426.62,-696.5 509.88,-696.5 509.88,-627.5 426.62,-627.5"/>
<polygon fill="#eedd82" stroke="none" points="426.62,-669.5 426.62,-696.5 509.88,-696.5 509.88,-669.5 426.62,-669.5"/>
<polygon fill="none" stroke="black" points="426.62,-669.5 426.62,-696.5 509.88,-696.5 509.88,-669.5 426.62,-669.5"/>
<text text-anchor="start" x="432.62" y="-678.2" font-family="Times,serif" font-weight="bold" font-size="14.00">部門マスタ</text>
<polygon fill="none" stroke="black" points="426.62,-648.5 426.62,-669.5 509.88,-669.5 509.88,-648.5 426.62,-648.5"/>
<text text-anchor="start" x="429.62" y="-653.2" font-family="Times,serif" font-size="14.00">部門コード</text>
<polygon fill="none" stroke="black" points="426.62,-627.5 426.62,-648.5 509.88,-648.5 509.88,-627.5 426.62,-627.5"/>
<text text-anchor="start" x="429.62" y="-632.2" font-family="Times,serif" font-size="14.00">開始日</text>
</g>
<!-- PUBLIC.倉庫部門マスタ&#45;&gt;PUBLIC.部門マスタ -->
<g id="edge16" class="edge">
<title>PUBLIC.倉庫部門マスタ:r23&#45;&gt;PUBLIC.部門マスタ:r24</title>
<path fill="none" stroke="black" stroke-dasharray="5,2" d="M600.38,-658.5C564.48,-658.5 552.88,-658.91 521.73,-658.99"/>
<polygon fill="black" stroke="black" points="512.09,-659 522.09,-654.49 515.87,-658.99 522.09,-658.99 522.09,-658.99 522.09,-658.99 515.87,-658.99 522.1,-663.49 512.09,-659"/>
</g>
<!-- PUBLIC.倉庫部門マスタ&#45;&gt;PUBLIC.部門マスタ -->
<g id="edge17" class="edge">
<title>PUBLIC.倉庫部門マスタ:r25&#45;&gt;PUBLIC.部門マスタ:r26</title>
<path fill="none" stroke="black" stroke-dasharray="5,2" d="M600.38,-637.5C564.48,-637.5 552.88,-637.91 521.73,-637.99"/>
<polygon fill="black" stroke="black" points="512.09,-638 522.09,-633.49 515.87,-637.99 522.09,-637.99 522.09,-637.99 522.09,-637.99 515.87,-637.99 522.1,-642.49 512.09,-638"/>
</g>
<!-- PUBLIC.倉庫マスタ -->
<g id="node29" class="node">
<title>PUBLIC.倉庫マスタ</title>
<polygon fill="#eee9bf" stroke="none" points="426.62,-727 426.62,-775 509.88,-775 509.88,-727 426.62,-727"/>
<polygon fill="#eedd82" stroke="none" points="426.62,-748 426.62,-775 509.88,-775 509.88,-748 426.62,-748"/>
<polygon fill="none" stroke="black" points="426.62,-748 426.62,-775 509.88,-775 509.88,-748 426.62,-748"/>
<text text-anchor="start" x="432.62" y="-756.7" font-family="Times,serif" font-weight="bold" font-size="14.00">倉庫マスタ</text>
<polygon fill="none" stroke="black" points="426.62,-727 426.62,-748 509.88,-748 509.88,-727 426.62,-727"/>
<text text-anchor="start" x="429.62" y="-731.7" font-family="Times,serif" font-size="14.00">倉庫コード</text>
</g>
<!-- PUBLIC.倉庫部門マスタ&#45;&gt;PUBLIC.倉庫マスタ -->
<g id="edge9" class="edge">
<title>PUBLIC.倉庫部門マスタ:r14&#45;&gt;PUBLIC.倉庫マスタ:r15</title>
<path fill="none" stroke="black" stroke-dasharray="5,2" d="M600.38,-679.5C557.05,-679.5 557.75,-727.96 521.99,-736.29"/>
<polygon fill="black" stroke="black" points="512.09,-737.37 521.54,-731.81 515.85,-736.96 522.03,-736.28 522.03,-736.28 522.03,-736.28 515.85,-736.96 522.51,-740.76 512.09,-737.37"/>
</g>
<!-- PUBLIC.在庫データ -->
<g id="node18" class="node">
<title>PUBLIC.在庫データ</title>
<polygon fill="#eee9bf" stroke="none" points="615.62,-893 615.62,-941 698.88,-941 698.88,-893 615.62,-893"/>
<polygon fill="#eedd82" stroke="none" points="615.62,-914 615.62,-941 698.88,-941 698.88,-914 615.62,-914"/>
<polygon fill="none" stroke="black" points="615.62,-914 615.62,-941 698.88,-941 698.88,-914 615.62,-914"/>
<text text-anchor="start" x="621.62" y="-922.7" font-family="Times,serif" font-weight="bold" font-size="14.00">在庫データ</text>
<polygon fill="none" stroke="black" points="615.62,-893 615.62,-914 698.88,-914 698.88,-893 615.62,-893"/>
<text text-anchor="start" x="618.62" y="-897.7" font-family="Times,serif" font-size="14.00">倉庫コード</text>
</g>
<!-- PUBLIC.在庫データ&#45;&gt;PUBLIC.倉庫マスタ -->
<g id="edge11" class="edge">
<title>PUBLIC.在庫データ:r17&#45;&gt;PUBLIC.倉庫マスタ:r15</title>
<path fill="none" stroke="black" stroke-dasharray="5,2" d="M614.62,-903.5C531.53,-903.5 591.88,-752.08 521.68,-738.47"/>
<polygon fill="black" stroke="black" points="512.09,-737.61 522.45,-734.03 515.85,-737.95 522.05,-738.51 522.05,-738.51 522.05,-738.51 515.85,-737.95 521.64,-742.99 512.09,-737.61"/>
</g>
<!-- PUBLIC.出荷先マスタ -->
<g id="node19" class="node">
<title>PUBLIC.出荷先マスタ</title>
<polygon fill="#eee9bf" stroke="none" points="608.5,-473.5 608.5,-542.5 706,-542.5 706,-473.5 608.5,-473.5"/>
<polygon fill="#eedd82" stroke="none" points="608.5,-515.5 608.5,-542.5 706,-542.5 706,-515.5 608.5,-515.5"/>
<polygon fill="none" stroke="black" points="608.5,-515.5 608.5,-542.5 706,-542.5 706,-515.5 608.5,-515.5"/>
<text text-anchor="start" x="614.5" y="-524.2" font-family="Times,serif" font-weight="bold" font-size="14.00">出荷先マスタ</text>
<polygon fill="none" stroke="black" points="608.5,-494.5 608.5,-515.5 706,-515.5 706,-494.5 608.5,-494.5"/>
<text text-anchor="start" x="611.5" y="-499.2" font-family="Times,serif" font-size="14.00">顧客コード</text>
<polygon fill="none" stroke="black" points="608.5,-473.5 608.5,-494.5 706,-494.5 706,-473.5 608.5,-473.5"/>
<text text-anchor="start" x="611.5" y="-478.2" font-family="Times,serif" font-size="14.00">顧客枝番</text>
</g>
<!-- PUBLIC.出荷先マスタ&#45;&gt;PUBLIC.顧客マスタ -->
<g id="edge1" class="edge">
<title>PUBLIC.出荷先マスタ:r0&#45;&gt;PUBLIC.顧客マスタ:r1</title>
<path fill="none" stroke="black" stroke-dasharray="5,2" d="M607.5,-505C568.41,-505 556.01,-505 521.72,-505"/>
<polygon fill="black" stroke="black" points="512.09,-505 522.09,-500.5 515.88,-505 522.09,-505 522.09,-505 522.09,-505 515.88,-505 522.09,-509.5 512.09,-505"/>
</g>
<!-- PUBLIC.出荷先マスタ&#45;&gt;PUBLIC.顧客マスタ -->
<g id="edge2" class="edge">
<title>PUBLIC.出荷先マスタ:r2&#45;&gt;PUBLIC.顧客マスタ:r3</title>
<path fill="none" stroke="black" stroke-dasharray="5,2" d="M607.5,-484C568.41,-484 556.01,-484 521.72,-484"/>
<polygon fill="black" stroke="black" points="512.09,-484 522.09,-479.5 515.88,-484 522.09,-484 522.09,-484 522.09,-484 515.88,-484 522.09,-488.5 512.09,-484"/>
</g>
<!-- PUBLIC.請求データ -->
<g id="node21" class="node">
<title>PUBLIC.請求データ</title>
<polygon fill="#eee9bf" stroke="none" points="426.62,-1002 426.62,-1050 509.88,-1050 509.88,-1002 426.62,-1002"/>
<polygon fill="#eedd82" stroke="none" points="426.62,-1023 426.62,-1050 509.88,-1050 509.88,-1023 426.62,-1023"/>
<polygon fill="none" stroke="black" points="426.62,-1023 426.62,-1050 509.88,-1050 509.88,-1023 426.62,-1023"/>
<text text-anchor="start" x="432.62" y="-1031.7" font-family="Times,serif" font-weight="bold" font-size="14.00">請求データ</text>
<polygon fill="none" stroke="black" points="426.62,-1002 426.62,-1023 509.88,-1023 509.88,-1002 426.62,-1002"/>
<text text-anchor="start" x="429.62" y="-1006.7" font-family="Times,serif" font-size="14.00">請求番号</text>
</g>
<!-- PUBLIC.入金口座マスタ -->
<g id="node22" class="node">
<title>PUBLIC.入金口座マスタ</title>
<polygon fill="#eee9bf" stroke="none" points="601.38,-735.5 601.38,-762.5 713.12,-762.5 713.12,-735.5 601.38,-735.5"/>
<polygon fill="#eedd82" stroke="none" points="601.38,-735.5 601.38,-762.5 713.12,-762.5 713.12,-735.5 601.38,-735.5"/>
<polygon fill="none" stroke="black" points="601.38,-735.5 601.38,-762.5 713.12,-762.5 713.12,-735.5 601.38,-735.5"/>
<text text-anchor="start" x="607.38" y="-744.2" font-family="Times,serif" font-weight="bold" font-size="14.00">入金口座マスタ</text>
</g>
<!-- PUBLIC.仕入データ明細 -->
<g id="node23" class="node">
<title>PUBLIC.仕入データ明細</title>
<polygon fill="#eee9bf" stroke="none" points="601.38,-959 601.38,-1007 713.12,-1007 713.12,-959 601.38,-959"/>
<polygon fill="#eedd82" stroke="none" points="601.38,-980 601.38,-1007 713.12,-1007 713.12,-980 601.38,-980"/>
<polygon fill="none" stroke="black" points="601.38,-980 601.38,-1007 713.12,-1007 713.12,-980 601.38,-980"/>
<text text-anchor="start" x="607.38" y="-988.7" font-family="Times,serif" font-weight="bold" font-size="14.00">仕入データ明細</text>
<polygon fill="none" stroke="black" points="601.38,-959 601.38,-980 713.12,-980 713.12,-959 601.38,-959"/>
<text text-anchor="start" x="604.38" y="-963.7" font-family="Times,serif" font-size="14.00">仕入番号</text>
</g>
<!-- PUBLIC.仕入データ -->
<g id="node37" class="node">
<title>PUBLIC.仕入データ</title>
<polygon fill="#eee9bf" stroke="none" points="426.62,-936 426.62,-984 509.88,-984 509.88,-936 426.62,-936"/>
<polygon fill="#eedd82" stroke="none" points="426.62,-957 426.62,-984 509.88,-984 509.88,-957 426.62,-957"/>
<polygon fill="none" stroke="black" points="426.62,-957 426.62,-984 509.88,-984 509.88,-957 426.62,-957"/>
<text text-anchor="start" x="432.62" y="-965.7" font-family="Times,serif" font-weight="bold" font-size="14.00">仕入データ</text>
<polygon fill="none" stroke="black" points="426.62,-936 426.62,-957 509.88,-957 509.88,-936 426.62,-936"/>
<text text-anchor="start" x="429.62" y="-940.7" font-family="Times,serif" font-size="14.00">仕入番号</text>
</g>
<!-- PUBLIC.仕入データ明細&#45;&gt;PUBLIC.仕入データ -->
<g id="edge18" class="edge">
<title>PUBLIC.仕入データ明細:r27&#45;&gt;PUBLIC.仕入データ:r28</title>
<path fill="none" stroke="black" stroke-dasharray="5,2" d="M600.38,-969.5C563.32,-969.5 553.7,-950.77 522.01,-947.12"/>
<polygon fill="black" stroke="black" points="512.09,-946.57 522.32,-942.63 515.87,-946.78 522.08,-947.12 522.08,-947.12 522.08,-947.12 515.87,-946.78 521.83,-951.61 512.09,-946.57"/>
</g>
<!-- PUBLIC.社員マスタ -->
<g id="node24" class="node">
<title>PUBLIC.社員マスタ</title>
<polygon fill="#eee9bf" stroke="none" points="615.62,-847.5 615.62,-874.5 698.88,-874.5 698.88,-847.5 615.62,-847.5"/>
<polygon fill="#eedd82" stroke="none" points="615.62,-847.5 615.62,-874.5 698.88,-874.5 698.88,-847.5 615.62,-847.5"/>
<polygon fill="none" stroke="black" points="615.62,-847.5 615.62,-874.5 698.88,-874.5 698.88,-847.5 615.62,-847.5"/>
<text text-anchor="start" x="621.62" y="-856.2" font-family="Times,serif" font-weight="bold" font-size="14.00">社員マスタ</text>
</g>
<!-- PUBLIC.請求データ明細 -->
<g id="node26" class="node">
<title>PUBLIC.請求データ明細</title>
<polygon fill="#eee9bf" stroke="none" points="601.38,-1025 601.38,-1115 713.12,-1115 713.12,-1025 601.38,-1025"/>
<polygon fill="#eedd82" stroke="none" points="601.38,-1088 601.38,-1115 713.12,-1115 713.12,-1088 601.38,-1088"/>
<polygon fill="none" stroke="black" points="601.38,-1088 601.38,-1115 713.12,-1115 713.12,-1088 601.38,-1088"/>
<text text-anchor="start" x="607.38" y="-1096.7" font-family="Times,serif" font-weight="bold" font-size="14.00">請求データ明細</text>
<polygon fill="none" stroke="black" points="601.38,-1067 601.38,-1088 713.12,-1088 713.12,-1067 601.38,-1067"/>
<text text-anchor="start" x="604.38" y="-1071.7" font-family="Times,serif" font-size="14.00">売上番号</text>
<polygon fill="none" stroke="black" points="601.38,-1046 601.38,-1067 713.12,-1067 713.12,-1046 601.38,-1046"/>
<text text-anchor="start" x="604.38" y="-1050.7" font-family="Times,serif" font-size="14.00">売上行番号</text>
<polygon fill="none" stroke="black" points="601.38,-1025 601.38,-1046 713.12,-1046 713.12,-1025 601.38,-1025"/>
<text text-anchor="start" x="604.38" y="-1029.7" font-family="Times,serif" font-size="14.00">請求番号</text>
</g>
<!-- PUBLIC.請求データ明細&#45;&gt;PUBLIC.請求データ -->
<g id="edge22" class="edge">
<title>PUBLIC.請求データ明細:r33&#45;&gt;PUBLIC.請求データ:r34</title>
<path fill="none" stroke="black" stroke-dasharray="5,2" d="M600.38,-1035.5C563.32,-1035.5 553.7,-1016.77 522.01,-1013.12"/>
<polygon fill="black" stroke="black" points="512.09,-1012.57 522.32,-1008.63 515.87,-1012.78 522.08,-1013.12 522.08,-1013.12 522.08,-1013.12 515.87,-1012.78 521.83,-1017.61 512.09,-1012.57"/>
</g>
<!-- PUBLIC.売上データ明細 -->
<g id="node30" class="node">
<title>PUBLIC.売上データ明細</title>
<polygon fill="#eee9bf" stroke="none" points="412.38,-1068.5 412.38,-1137.5 524.12,-1137.5 524.12,-1068.5 412.38,-1068.5"/>
<polygon fill="#eedd82" stroke="none" points="412.38,-1110.5 412.38,-1137.5 524.12,-1137.5 524.12,-1110.5 412.38,-1110.5"/>
<polygon fill="none" stroke="black" points="412.38,-1110.5 412.38,-1137.5 524.12,-1137.5 524.12,-1110.5 412.38,-1110.5"/>
<text text-anchor="start" x="418.38" y="-1119.2" font-family="Times,serif" font-weight="bold" font-size="14.00">売上データ明細</text>
<polygon fill="none" stroke="black" points="412.38,-1089.5 412.38,-1110.5 524.12,-1110.5 524.12,-1089.5 412.38,-1089.5"/>
<text text-anchor="start" x="415.38" y="-1094.2" font-family="Times,serif" font-size="14.00">売上番号</text>
<polygon fill="none" stroke="black" points="412.38,-1068.5 412.38,-1089.5 524.12,-1089.5 524.12,-1068.5 412.38,-1068.5"/>
<text text-anchor="start" x="415.38" y="-1073.2" font-family="Times,serif" font-size="14.00">売上行番号</text>
</g>
<!-- PUBLIC.請求データ明細&#45;&gt;PUBLIC.売上データ明細 -->
<g id="edge20" class="edge">
<title>PUBLIC.請求データ明細:r30&#45;&gt;PUBLIC.売上データ明細:r21</title>
<path fill="none" stroke="black" stroke-dasharray="5,2" d="M600.38,-1077.5C569.56,-1077.5 561.71,-1095.04 536.28,-1099.15"/>
<polygon fill="black" stroke="black" points="526.34,-1099.91 535.97,-1094.66 530.11,-1099.62 536.31,-1099.14 536.31,-1099.14 536.31,-1099.14 530.11,-1099.62 536.65,-1103.63 526.34,-1099.91"/>
</g>
<!-- PUBLIC.請求データ明細&#45;&gt;PUBLIC.売上データ明細 -->
<g id="edge21" class="edge">
<title>PUBLIC.請求データ明細:r31&#45;&gt;PUBLIC.売上データ明細:r32</title>
<path fill="none" stroke="black" stroke-dasharray="5,2" d="M600.38,-1056.5C569.56,-1056.5 561.71,-1074.04 536.28,-1078.15"/>
<polygon fill="black" stroke="black" points="526.34,-1078.91 535.97,-1073.66 530.11,-1078.62 536.31,-1078.14 536.31,-1078.14 536.31,-1078.14 530.11,-1078.62 536.65,-1082.63 526.34,-1078.91"/>
</g>
<!-- PUBLIC.棚番マスタ -->
<g id="node27" class="node">
<title>PUBLIC.棚番マスタ</title>
<polygon fill="#eee9bf" stroke="none" points="615.62,-781 615.62,-829 698.88,-829 698.88,-781 615.62,-781"/>
<polygon fill="#eedd82" stroke="none" points="615.62,-802 615.62,-829 698.88,-829 698.88,-802 615.62,-802"/>
<polygon fill="none" stroke="black" points="615.62,-802 615.62,-829 698.88,-829 698.88,-802 615.62,-802"/>
<text text-anchor="start" x="621.62" y="-810.7" font-family="Times,serif" font-weight="bold" font-size="14.00">棚番マスタ</text>
<polygon fill="none" stroke="black" points="615.62,-781 615.62,-802 698.88,-802 698.88,-781 615.62,-781"/>
<text text-anchor="start" x="618.62" y="-785.7" font-family="Times,serif" font-size="14.00">倉庫コード</text>
</g>
<!-- PUBLIC.棚番マスタ&#45;&gt;PUBLIC.倉庫マスタ -->
<g id="edge10" class="edge">
<title>PUBLIC.棚番マスタ:r16&#45;&gt;PUBLIC.倉庫マスタ:r15</title>
<path fill="none" stroke="black" stroke-dasharray="5,2" d="M614.62,-791.5C566.6,-791.5 563.13,-745.41 521.89,-738.39"/>
<polygon fill="black" stroke="black" points="512.09,-737.6 522.42,-733.92 515.86,-737.9 522.06,-738.41 522.06,-738.41 522.06,-738.41 515.86,-737.9 521.69,-742.89 512.09,-737.6"/>
</g>
<!-- PUBLIC.代替商品 -->
<g id="node28" class="node">
<title>PUBLIC.代替商品</title>
<polygon fill="#eee9bf" stroke="none" points="618.62,-184 618.62,-232 695.88,-232 695.88,-184 618.62,-184"/>
<polygon fill="#eedd82" stroke="none" points="618.62,-205 618.62,-232 695.88,-232 695.88,-205 618.62,-205"/>
<polygon fill="none" stroke="black" points="618.62,-205 618.62,-232 695.88,-232 695.88,-205 618.62,-205"/>
<text text-anchor="start" x="628.75" y="-213.7" font-family="Times,serif" font-weight="bold" font-size="14.00">代替商品</text>
<polygon fill="none" stroke="black" points="618.62,-184 618.62,-205 695.88,-205 695.88,-184 618.62,-184"/>
<text text-anchor="start" x="621.62" y="-188.7" font-family="Times,serif" font-size="14.00">商品コード</text>
</g>
<!-- PUBLIC.代替商品&#45;&gt;PUBLIC.商品マスタ -->
<g id="edge8" class="edge">
<title>PUBLIC.代替商品:r13&#45;&gt;PUBLIC.商品マスタ:r11</title>
<path fill="none" stroke="black" stroke-dasharray="5,2" d="M617.62,-194.5C541.51,-194.5 586.01,-325.69 521.67,-338.5"/>
<polygon fill="black" stroke="black" points="512.09,-339.39 521.63,-333.98 515.85,-339.04 522.05,-338.46 522.05,-338.46 522.05,-338.46 515.85,-339.04 522.46,-342.94 512.09,-339.39"/>
</g>
<!-- PUBLIC.売上データ -->
<g id="node33" class="node">
<title>PUBLIC.売上データ</title>
<polygon fill="#eee9bf" stroke="none" points="239.12,-1089 239.12,-1137 322.38,-1137 322.38,-1089 239.12,-1089"/>
<polygon fill="#eedd82" stroke="none" points="239.12,-1110 239.12,-1137 322.38,-1137 322.38,-1110 239.12,-1110"/>
<polygon fill="none" stroke="black" points="239.12,-1110 239.12,-1137 322.38,-1137 322.38,-1110 239.12,-1110"/>
<text text-anchor="start" x="245.12" y="-1118.7" font-family="Times,serif" font-weight="bold" font-size="14.00">売上データ</text>
<polygon fill="none" stroke="black" points="239.12,-1089 239.12,-1110 322.38,-1110 322.38,-1089 239.12,-1089"/>
<text text-anchor="start" x="242.12" y="-1093.7" font-family="Times,serif" font-size="14.00">売上番号</text>
</g>
<!-- PUBLIC.売上データ明細&#45;&gt;PUBLIC.売上データ -->
<g id="edge15" class="edge">
<title>PUBLIC.売上データ明細:r21&#45;&gt;PUBLIC.売上データ:r22</title>
<path fill="none" stroke="black" stroke-dasharray="5,2" d="M411.38,-1100C376.24,-1100 364.78,-1099.6 334.45,-1099.51"/>
<polygon fill="black" stroke="black" points="324.59,-1099.5 334.6,-1095.01 328.37,-1099.51 334.59,-1099.51 334.59,-1099.51 334.59,-1099.51 328.37,-1099.51 334.59,-1104.01 324.59,-1099.5"/>
</g>
<!-- PUBLIC.地域マスタ -->
<g id="node31" class="node">
<title>PUBLIC.地域マスタ</title>
<polygon fill="#eee9bf" stroke="none" points="615.62,-1133.5 615.62,-1160.5 698.88,-1160.5 698.88,-1133.5 615.62,-1133.5"/>
<polygon fill="#eedd82" stroke="none" points="615.62,-1133.5 615.62,-1160.5 698.88,-1160.5 698.88,-1133.5 615.62,-1133.5"/>
<polygon fill="none" stroke="black" points="615.62,-1133.5 615.62,-1160.5 698.88,-1160.5 698.88,-1133.5 615.62,-1133.5"/>
<text text-anchor="start" x="621.62" y="-1142.2" font-family="Times,serif" font-weight="bold" font-size="14.00">地域マスタ</text>
</g>
<!-- PUBLIC.受注データ明細 -->
<g id="node32" class="node">
<title>PUBLIC.受注データ明細</title>
<polygon fill="#eee9bf" stroke="none" points="601.38,-1179 601.38,-1227 713.12,-1227 713.12,-1179 601.38,-1179"/>
<polygon fill="#eedd82" stroke="none" points="601.38,-1200 601.38,-1227 713.12,-1227 713.12,-1200 601.38,-1200"/>
<polygon fill="none" stroke="black" points="601.38,-1200 601.38,-1227 713.12,-1227 713.12,-1200 601.38,-1200"/>
<text text-anchor="start" x="607.38" y="-1208.7" font-family="Times,serif" font-weight="bold" font-size="14.00">受注データ明細</text>
<polygon fill="none" stroke="black" points="601.38,-1179 601.38,-1200 713.12,-1200 713.12,-1179 601.38,-1179"/>
<text text-anchor="start" x="604.38" y="-1183.7" font-family="Times,serif" font-size="14.00">受注番号</text>
</g>
<!-- PUBLIC.受注データ明細&#45;&gt;PUBLIC.受注データ -->
<g id="edge5" class="edge">
<title>PUBLIC.受注データ明細:r8&#45;&gt;PUBLIC.受注データ:r9</title>
<path fill="none" stroke="black" stroke-dasharray="5,2" d="M600.38,-1189.5C564.48,-1189.5 552.88,-1189.5 521.73,-1189.5"/>
<polygon fill="black" stroke="black" points="512.09,-1189.5 522.09,-1185 515.88,-1189.5 522.09,-1189.5 522.09,-1189.5 522.09,-1189.5 515.88,-1189.5 522.09,-1194 512.09,-1189.5"/>
</g>
<!-- PUBLIC.個人客マスタ -->
<g id="node34" class="node">
<title>PUBLIC.個人客マスタ</title>
<polygon fill="#eee9bf" stroke="none" points="608.5,-1245.5 608.5,-1272.5 706,-1272.5 706,-1245.5 608.5,-1245.5"/>
<polygon fill="#eedd82" stroke="none" points="608.5,-1245.5 608.5,-1272.5 706,-1272.5 706,-1245.5 608.5,-1245.5"/>
<polygon fill="none" stroke="black" points="608.5,-1245.5 608.5,-1272.5 706,-1272.5 706,-1245.5 608.5,-1245.5"/>
<text text-anchor="start" x="614.5" y="-1254.2" font-family="Times,serif" font-weight="bold" font-size="14.00">個人客マスタ</text>
</g>
<!-- PUBLIC.flyway_schema_history -->
<g id="node35" class="node">
<title>PUBLIC.flyway_schema_history</title>
<polygon fill="#eee9bf" stroke="none" points="583.38,-1290.75 583.38,-1319.25 731.12,-1319.25 731.12,-1290.75 583.38,-1290.75"/>
<polygon fill="#eedd82" stroke="none" points="583.38,-1290.75 583.38,-1319.25 731.12,-1319.25 731.12,-1290.75 583.38,-1290.75"/>
<polygon fill="none" stroke="black" points="583.38,-1290.75 583.38,-1319.25 731.12,-1319.25 731.12,-1290.75 583.38,-1290.75"/>
<text text-anchor="start" x="589.38" y="-1300.95" font-family="Times,serif" font-weight="bold" font-size="14.00">flyway_schema_history</text>
</g>
<!-- PUBLIC.商品分類マスタ -->
<g id="node36" class="node">
<title>PUBLIC.商品分類マスタ</title>
<polygon fill="#eee9bf" stroke="none" points="601.38,-1337.5 601.38,-1364.5 713.12,-1364.5 713.12,-1337.5 601.38,-1337.5"/>
<polygon fill="#eedd82" stroke="none" points="601.38,-1337.5 601.38,-1364.5 713.12,-1364.5 713.12,-1337.5 601.38,-1337.5"/>
<polygon fill="none" stroke="black" points="601.38,-1337.5 601.38,-1364.5 713.12,-1364.5 713.12,-1337.5 601.38,-1337.5"/>
<text text-anchor="start" x="607.38" y="-1346.2" font-family="Times,serif" font-weight="bold" font-size="14.00">商品分類マスタ</text>
</g>
<!-- PUBLIC.入金データ -->
<g id="node38" class="node">
<title>PUBLIC.入金データ</title>
<polygon fill="#eee9bf" stroke="none" points="615.62,-1382.5 615.62,-1409.5 698.88,-1409.5 698.88,-1382.5 615.62,-1382.5"/>
<polygon fill="#eedd82" stroke="none" points="615.62,-1382.5 615.62,-1409.5 698.88,-1409.5 698.88,-1382.5 615.62,-1382.5"/>
<polygon fill="none" stroke="black" points="615.62,-1382.5 615.62,-1409.5 698.88,-1409.5 698.88,-1382.5 615.62,-1382.5"/>
<text text-anchor="start" x="621.62" y="-1391.2" font-family="Times,serif" font-weight="bold" font-size="14.00">入金データ</text>
</g>
</g>
</svg>
