<?xml version="1.0" encoding="UTF-8" standalone="no"?>
<!DOCTYPE svg PUBLIC "-//W3C//DTD SVG 1.1//EN"
 "http://www.w3.org/Graphics/SVG/1.1/DTD/svg11.dtd">
<!-- Generated by graphviz version 12.2.0 (20241103.1931)
 -->
<!-- Title: アーキテクチャ図 Pages: 1 -->
<svg width="1602pt" height="354pt"
 viewBox="0.00 0.00 1602.25 354.25" xmlns="http://www.w3.org/2000/svg" xmlns:xlink="http://www.w3.org/1999/xlink">
<g id="graph0" class="graph" transform="scale(1 1) rotate(0) translate(4 350.25)">
<title>アーキテクチャ図</title>
<polygon fill="white" stroke="none" points="-4,4 -4,-350.25 1598.25,-350.25 1598.25,4 -4,4"/>
<text text-anchor="middle" x="797.12" y="-4.95" font-family="Times New Roman,serif" font-size="14.00">アーキテクチャ図</text>
<g id="clust1" class="cluster">
<title>clusterArchitecture</title>
<polygon fill="lightyellow" stroke="#eedd82" points="389.62,-86.25 389.62,-282.25 880.62,-282.25 880.62,-86.25 389.62,-86.25"/>
</g>
<!-- com.example.sms.domain -->
<g id="node1" class="node">
<title>com.example.sms.domain</title>
<polygon fill="#eedd82" stroke="black" points="864.25,-130.25 747,-130.25 747,-126.25 743,-126.25 743,-122.25 747,-122.25 747,-102.25 743,-102.25 743,-98.25 747,-98.25 747,-94.25 864.25,-94.25 864.25,-130.25"/>
<polyline fill="none" stroke="black" points="747,-126.25 751,-126.25 751,-122.25 747,-122.25"/>
<polyline fill="none" stroke="black" points="747,-102.25 751,-102.25 751,-98.25 747,-98.25"/>
<text text-anchor="middle" x="805.62" y="-101.88" font-family="Times New Roman,serif" font-size="20.00">ドメイン層</text>
</g>
<!-- org.springframework -->
<g id="node5" class="node">
<title>org.springframework</title>
<polygon fill="lightgrey" stroke="black" points="1230.38,-58.25 1098.88,-58.25 1098.88,-54.25 1094.88,-54.25 1094.88,-50.25 1098.88,-50.25 1098.88,-30.25 1094.88,-30.25 1094.88,-26.25 1098.88,-26.25 1098.88,-22.25 1230.38,-22.25 1230.38,-58.25"/>
<polyline fill="none" stroke="black" points="1098.88,-54.25 1102.88,-54.25 1102.88,-50.25 1098.88,-50.25"/>
<polyline fill="none" stroke="black" points="1098.88,-30.25 1102.88,-30.25 1102.88,-26.25 1098.88,-26.25"/>
<text text-anchor="middle" x="1164.62" y="-35.2" font-family="Times New Roman,serif" font-size="14.00">org.springframework</text>
</g>
<!-- com.example.sms.domain&#45;&gt;org.springframework -->
<g id="edge28" class="edge">
<title>com.example.sms.domain&#45;&gt;org.springframework</title>
<path fill="none" stroke="black" d="M864.55,-112.25C873.33,-112.25 879.5,-112.25 879.5,-112.25 879.5,-112.25 879.5,-34.25 879.5,-34.25 879.5,-34.25 1086.98,-34.25 1086.98,-34.25"/>
<polygon fill="black" stroke="black" points="1086.98,-37.75 1096.98,-34.25 1086.98,-30.75 1086.98,-37.75"/>
</g>
<!-- lombok -->
<g id="node10" class="node">
<title>lombok</title>
<polygon fill="lightgrey" stroke="black" points="726.62,-58.25 668.62,-58.25 668.62,-54.25 664.62,-54.25 664.62,-50.25 668.62,-50.25 668.62,-30.25 664.62,-30.25 664.62,-26.25 668.62,-26.25 668.62,-22.25 726.62,-22.25 726.62,-58.25"/>
<polyline fill="none" stroke="black" points="668.62,-54.25 672.62,-54.25 672.62,-50.25 668.62,-50.25"/>
<polyline fill="none" stroke="black" points="668.62,-30.25 672.62,-30.25 672.62,-26.25 668.62,-26.25"/>
<text text-anchor="middle" x="697.62" y="-35.2" font-family="Times New Roman,serif" font-size="14.00">lombok</text>
</g>
<!-- com.example.sms.domain&#45;&gt;lombok -->
<g id="edge34" class="edge">
<title>com.example.sms.domain&#45;&gt;lombok</title>
<path fill="none" stroke="black" d="M746.7,-100.25C733.19,-100.25 722.72,-100.25 722.72,-100.25 722.72,-100.25 722.72,-70.09 722.72,-70.09"/>
<polygon fill="black" stroke="black" points="726.22,-70.09 722.72,-60.09 719.22,-70.09 726.22,-70.09"/>
</g>
<!-- jakarta.validation -->
<g id="node12" class="node">
<title>jakarta.validation</title>
<polygon fill="lightgrey" stroke="black" points="874.88,-58.25 764.38,-58.25 764.38,-54.25 760.38,-54.25 760.38,-50.25 764.38,-50.25 764.38,-30.25 760.38,-30.25 760.38,-26.25 764.38,-26.25 764.38,-22.25 874.88,-22.25 874.88,-58.25"/>
<polyline fill="none" stroke="black" points="764.38,-54.25 768.38,-54.25 768.38,-50.25 764.38,-50.25"/>
<polyline fill="none" stroke="black" points="764.38,-30.25 768.38,-30.25 768.38,-26.25 764.38,-26.25"/>
<text text-anchor="middle" x="819.62" y="-35.2" font-family="Times New Roman,serif" font-size="14.00">jakarta.validation</text>
</g>
<!-- com.example.sms.domain&#45;&gt;jakarta.validation -->
<g id="edge17" class="edge">
<title>com.example.sms.domain&#45;&gt;jakarta.validation</title>
<path fill="none" stroke="black" d="M814.31,-94.08C814.31,-94.08 814.31,-70.18 814.31,-70.18"/>
<polygon fill="black" stroke="black" points="817.81,-70.18 814.31,-60.18 810.81,-70.18 817.81,-70.18"/>
</g>
<!-- com.example.sms.infrastructure -->
<g id="node2" class="node">
<title>com.example.sms.infrastructure</title>
<polygon fill="#eedd82" stroke="black" points="636,-274.25 397.25,-274.25 397.25,-270.25 393.25,-270.25 393.25,-266.25 397.25,-266.25 397.25,-246.25 393.25,-246.25 393.25,-242.25 397.25,-242.25 397.25,-238.25 636,-238.25 636,-274.25"/>
<polyline fill="none" stroke="black" points="397.25,-270.25 401.25,-270.25 401.25,-266.25 397.25,-266.25"/>
<polyline fill="none" stroke="black" points="397.25,-246.25 401.25,-246.25 401.25,-242.25 397.25,-242.25"/>
<text text-anchor="middle" x="516.62" y="-245.88" font-family="Times New Roman,serif" font-size="20.00">インフラストラクチャ層</text>
</g>
<!-- com.example.sms.infrastructure&#45;&gt;com.example.sms.domain -->
<g id="edge27" class="edge">
<title>com.example.sms.infrastructure&#45;&gt;com.example.sms.domain</title>
<path fill="none" stroke="black" d="M503.36,-237.9C503.36,-201.63 503.36,-124.25 503.36,-124.25 503.36,-124.25 735.11,-124.25 735.11,-124.25"/>
<polygon fill="black" stroke="black" points="735.11,-127.75 745.11,-124.25 735.11,-120.75 735.11,-127.75"/>
</g>
<!-- com.example.sms.service -->
<g id="node4" class="node">
<title>com.example.sms.service</title>
<polygon fill="#eedd82" stroke="black" points="828.25,-202.25 711,-202.25 711,-198.25 707,-198.25 707,-194.25 711,-194.25 711,-174.25 707,-174.25 707,-170.25 711,-170.25 711,-166.25 828.25,-166.25 828.25,-202.25"/>
<polyline fill="none" stroke="black" points="711,-198.25 715,-198.25 715,-194.25 711,-194.25"/>
<polyline fill="none" stroke="black" points="711,-174.25 715,-174.25 715,-170.25 711,-170.25"/>
<text text-anchor="middle" x="769.62" y="-173.88" font-family="Times New Roman,serif" font-size="20.00">サービス層</text>
</g>
<!-- com.example.sms.infrastructure&#45;&gt;com.example.sms.service -->
<g id="edge18" class="edge">
<title>com.example.sms.infrastructure&#45;&gt;com.example.sms.service</title>
<path fill="none" stroke="black" d="M609.47,-238.08C609.47,-216.75 609.47,-184.25 609.47,-184.25 609.47,-184.25 699.39,-184.25 699.39,-184.25"/>
<polygon fill="black" stroke="black" points="699.39,-187.75 709.39,-184.25 699.39,-180.75 699.39,-187.75"/>
</g>
<!-- com.example.sms.infrastructure&#45;&gt;org.springframework -->
<g id="edge1" class="edge">
<title>com.example.sms.infrastructure&#45;&gt;org.springframework</title>
<path fill="none" stroke="black" d="M476.83,-238C476.83,-192.24 476.83,-76.25 476.83,-76.25 476.83,-76.25 1117.56,-76.25 1117.56,-76.25 1117.56,-76.25 1117.56,-70.19 1117.56,-70.19"/>
<polygon fill="black" stroke="black" points="1121.06,-70.19 1117.56,-60.19 1114.06,-70.19 1121.06,-70.19"/>
</g>
<!-- org.apache -->
<g id="node6" class="node">
<title>org.apache</title>
<polygon fill="lightgrey" stroke="black" points="1179.25,-202.25 1104,-202.25 1104,-198.25 1100,-198.25 1100,-194.25 1104,-194.25 1104,-174.25 1100,-174.25 1100,-170.25 1104,-170.25 1104,-166.25 1179.25,-166.25 1179.25,-202.25"/>
<polyline fill="none" stroke="black" points="1104,-198.25 1108,-198.25 1108,-194.25 1104,-194.25"/>
<polyline fill="none" stroke="black" points="1104,-174.25 1108,-174.25 1108,-170.25 1104,-170.25"/>
<text text-anchor="middle" x="1141.62" y="-179.2" font-family="Times New Roman,serif" font-size="14.00">org.apache</text>
</g>
<!-- com.example.sms.infrastructure&#45;&gt;org.apache -->
<g id="edge2" class="edge">
<title>com.example.sms.infrastructure&#45;&gt;org.apache</title>
<path fill="none" stroke="black" d="M556.42,-237.83C556.42,-228.97 556.42,-220.25 556.42,-220.25 556.42,-220.25 1141.62,-220.25 1141.62,-220.25 1141.62,-220.25 1141.62,-214.19 1141.62,-214.19"/>
<polygon fill="black" stroke="black" points="1145.13,-214.19 1141.63,-204.19 1138.13,-214.19 1145.13,-214.19"/>
</g>
<!-- com.github -->
<g id="node7" class="node">
<title>com.github</title>
<polygon fill="lightgrey" stroke="black" points="1270.75,-130.25 1192.5,-130.25 1192.5,-126.25 1188.5,-126.25 1188.5,-122.25 1192.5,-122.25 1192.5,-102.25 1188.5,-102.25 1188.5,-98.25 1192.5,-98.25 1192.5,-94.25 1270.75,-94.25 1270.75,-130.25"/>
<polyline fill="none" stroke="black" points="1192.5,-126.25 1196.5,-126.25 1196.5,-122.25 1192.5,-122.25"/>
<polyline fill="none" stroke="black" points="1192.5,-102.25 1196.5,-102.25 1196.5,-98.25 1192.5,-98.25"/>
<text text-anchor="middle" x="1231.62" y="-107.2" font-family="Times New Roman,serif" font-size="14.00">com.github</text>
</g>
<!-- com.example.sms.infrastructure&#45;&gt;com.github -->
<g id="edge14" class="edge">
<title>com.example.sms.infrastructure&#45;&gt;com.github</title>
<path fill="none" stroke="black" d="M529.89,-237.93C529.89,-205.71 529.89,-142.25 529.89,-142.25 529.89,-142.25 1212.06,-142.25 1212.06,-142.25 1212.06,-142.25 1212.06,-141.1 1212.06,-141.1"/>
<polygon fill="black" stroke="black" points="1215.56,-142.25 1212.06,-132.25 1208.56,-142.25 1215.56,-142.25"/>
</g>
<!-- com.opencsv -->
<g id="node8" class="node">
<title>com.opencsv</title>
<polygon fill="lightgrey" stroke="black" points="249.62,-202.25 161.62,-202.25 161.62,-198.25 157.62,-198.25 157.62,-194.25 161.62,-194.25 161.62,-174.25 157.62,-174.25 157.62,-170.25 161.62,-170.25 161.62,-166.25 249.62,-166.25 249.62,-202.25"/>
<polyline fill="none" stroke="black" points="161.62,-198.25 165.62,-198.25 165.62,-194.25 161.62,-194.25"/>
<polyline fill="none" stroke="black" points="161.62,-174.25 165.62,-174.25 165.62,-170.25 161.62,-170.25"/>
<text text-anchor="middle" x="205.62" y="-179.2" font-family="Times New Roman,serif" font-size="14.00">com.opencsv</text>
</g>
<!-- com.example.sms.infrastructure&#45;&gt;com.opencsv -->
<g id="edge4" class="edge">
<title>com.example.sms.infrastructure&#45;&gt;com.opencsv</title>
<path fill="none" stroke="black" d="M396.83,-256.25C309.22,-256.25 205.62,-256.25 205.62,-256.25 205.62,-256.25 205.62,-213.93 205.62,-213.93"/>
<polygon fill="black" stroke="black" points="209.13,-213.93 205.63,-203.93 202.13,-213.93 209.13,-213.93"/>
</g>
<!-- com.example.sms.infrastructure&#45;&gt;lombok -->
<g id="edge23" class="edge">
<title>com.example.sms.infrastructure&#45;&gt;lombok</title>
<path fill="none" stroke="black" d="M450.31,-237.83C450.31,-185.6 450.31,-40.25 450.31,-40.25 450.31,-40.25 656.77,-40.25 656.77,-40.25"/>
<polygon fill="black" stroke="black" points="656.77,-43.75 666.77,-40.25 656.77,-36.75 656.77,-43.75"/>
</g>
<!-- io.swagger -->
<g id="node11" class="node">
<title>io.swagger</title>
<polygon fill="lightgrey" stroke="black" points="381.25,-202.25 306,-202.25 306,-198.25 302,-198.25 302,-194.25 306,-194.25 306,-174.25 302,-174.25 302,-170.25 306,-170.25 306,-166.25 381.25,-166.25 381.25,-202.25"/>
<polyline fill="none" stroke="black" points="306,-198.25 310,-198.25 310,-194.25 306,-194.25"/>
<polyline fill="none" stroke="black" points="306,-174.25 310,-174.25 310,-170.25 306,-170.25"/>
<text text-anchor="middle" x="343.62" y="-179.2" font-family="Times New Roman,serif" font-size="14.00">io.swagger</text>
</g>
<!-- com.example.sms.infrastructure&#45;&gt;io.swagger -->
<g id="edge8" class="edge">
<title>com.example.sms.infrastructure&#45;&gt;io.swagger</title>
<path fill="none" stroke="black" d="M396.94,-247.25C367.2,-247.25 343.62,-247.25 343.62,-247.25 343.62,-247.25 343.62,-213.99 343.62,-213.99"/>
<polygon fill="black" stroke="black" points="347.13,-213.99 343.63,-203.99 340.13,-213.99 347.13,-213.99"/>
</g>
<!-- org.slf4j -->
<g id="node14" class="node">
<title>org.slf4j</title>
<polygon fill="lightgrey" stroke="black" points="381.5,-130.25 319.75,-130.25 319.75,-126.25 315.75,-126.25 315.75,-122.25 319.75,-122.25 319.75,-102.25 315.75,-102.25 315.75,-98.25 319.75,-98.25 319.75,-94.25 381.5,-94.25 381.5,-130.25"/>
<polyline fill="none" stroke="black" points="319.75,-126.25 323.75,-126.25 323.75,-122.25 319.75,-122.25"/>
<polyline fill="none" stroke="black" points="319.75,-102.25 323.75,-102.25 323.75,-98.25 319.75,-98.25"/>
<text text-anchor="middle" x="350.62" y="-107.2" font-family="Times New Roman,serif" font-size="14.00">org.slf4j</text>
</g>
<!-- com.example.sms.infrastructure&#45;&gt;org.slf4j -->
<g id="edge12" class="edge">
<title>com.example.sms.infrastructure&#45;&gt;org.slf4j</title>
<path fill="none" stroke="black" d="M423.78,-237.92C423.78,-200.39 423.78,-118.25 423.78,-118.25 423.78,-118.25 393.16,-118.25 393.16,-118.25"/>
<polygon fill="black" stroke="black" points="393.16,-114.75 383.16,-118.25 393.16,-121.75 393.16,-114.75"/>
</g>
<!-- io.jsonwebtoken -->
<g id="node17" class="node">
<title>io.jsonwebtoken</title>
<polygon fill="lightgrey" stroke="black" points="105.25,-202.25 0,-202.25 0,-198.25 -4,-198.25 -4,-194.25 0,-194.25 0,-174.25 -4,-174.25 -4,-170.25 0,-170.25 0,-166.25 105.25,-166.25 105.25,-202.25"/>
<polyline fill="none" stroke="black" points="0,-198.25 4,-198.25 4,-194.25 0,-194.25"/>
<polyline fill="none" stroke="black" points="0,-174.25 4,-174.25 4,-170.25 0,-170.25"/>
<text text-anchor="middle" x="52.62" y="-179.2" font-family="Times New Roman,serif" font-size="14.00">io.jsonwebtoken</text>
</g>
<!-- com.example.sms.infrastructure&#45;&gt;io.jsonwebtoken -->
<g id="edge26" class="edge">
<title>com.example.sms.infrastructure&#45;&gt;io.jsonwebtoken</title>
<path fill="none" stroke="black" d="M396.83,-265.25C259.35,-265.25 52.62,-265.25 52.62,-265.25 52.62,-265.25 52.62,-214.14 52.62,-214.14"/>
<polygon fill="black" stroke="black" points="56.13,-214.14 52.63,-204.14 49.13,-214.14 56.13,-214.14"/>
</g>
<!-- com.example.sms.presentation -->
<g id="node3" class="node">
<title>com.example.sms.presentation</title>
<polygon fill="#eedd82" stroke="black" points="872.88,-274.25 654.38,-274.25 654.38,-270.25 650.38,-270.25 650.38,-266.25 654.38,-266.25 654.38,-246.25 650.38,-246.25 650.38,-242.25 654.38,-242.25 654.38,-238.25 872.88,-238.25 872.88,-274.25"/>
<polyline fill="none" stroke="black" points="654.38,-270.25 658.38,-270.25 658.38,-266.25 654.38,-266.25"/>
<polyline fill="none" stroke="black" points="654.38,-246.25 658.38,-246.25 658.38,-242.25 654.38,-242.25"/>
<text text-anchor="middle" x="763.62" y="-245.88" font-family="Times New Roman,serif" font-size="20.00">プレゼンテーション層</text>
</g>
<!-- com.example.sms.presentation&#45;&gt;com.example.sms.domain -->
<g id="edge19" class="edge">
<title>com.example.sms.presentation&#45;&gt;com.example.sms.domain</title>
<path fill="none" stroke="black" d="M846.25,-238.01C846.25,-238.01 846.25,-141.85 846.25,-141.85"/>
<polygon fill="black" stroke="black" points="849.75,-141.85 846.25,-131.85 842.75,-141.85 849.75,-141.85"/>
</g>
<!-- com.example.sms.presentation&#45;&gt;com.example.sms.service -->
<g id="edge29" class="edge">
<title>com.example.sms.presentation&#45;&gt;com.example.sms.service</title>
<path fill="none" stroke="black" d="M769.62,-238.08C769.62,-238.08 769.62,-214.18 769.62,-214.18"/>
<polygon fill="black" stroke="black" points="773.13,-214.18 769.63,-204.18 766.13,-214.18 773.13,-214.18"/>
</g>
<!-- com.example.sms.presentation&#45;&gt;org.springframework -->
<g id="edge30" class="edge">
<title>com.example.sms.presentation&#45;&gt;org.springframework</title>
<path fill="none" stroke="black" d="M873.16,-250.25C997.62,-250.25 1183.67,-250.25 1183.67,-250.25 1183.67,-250.25 1183.67,-70.03 1183.67,-70.03"/>
<polygon fill="black" stroke="black" points="1187.17,-70.03 1183.67,-60.03 1180.17,-70.03 1187.17,-70.03"/>
</g>
<!-- com.example.sms.presentation&#45;&gt;com.github -->
<g id="edge7" class="edge">
<title>com.example.sms.presentation&#45;&gt;com.github</title>
<path fill="none" stroke="black" d="M873.35,-256.25C1017.12,-256.25 1251.19,-256.25 1251.19,-256.25 1251.19,-256.25 1251.19,-142 1251.19,-142"/>
<polygon fill="black" stroke="black" points="1254.69,-142 1251.19,-132 1247.69,-142 1254.69,-142"/>
</g>
<!-- com.example.sms.presentation&#45;&gt;lombok -->
<g id="edge32" class="edge">
<title>com.example.sms.presentation&#45;&gt;lombok</title>
<path fill="none" stroke="black" d="M689.81,-237.83C689.81,-237.83 689.81,-70.13 689.81,-70.13"/>
<polygon fill="black" stroke="black" points="693.31,-70.13 689.81,-60.13 686.31,-70.13 693.31,-70.13"/>
</g>
<!-- com.example.sms.presentation&#45;&gt;io.swagger -->
<g id="edge25" class="edge">
<title>com.example.sms.presentation&#45;&gt;io.swagger</title>
<path fill="none" stroke="black" d="M659.12,-238.03C659.12,-219.42 659.12,-193.25 659.12,-193.25 659.12,-193.25 393.2,-193.25 393.2,-193.25"/>
<polygon fill="black" stroke="black" points="393.2,-189.75 383.2,-193.25 393.2,-196.75 393.2,-189.75"/>
</g>
<!-- com.example.sms.presentation&#45;&gt;jakarta.validation -->
<g id="edge9" class="edge">
<title>com.example.sms.presentation&#45;&gt;jakarta.validation</title>
<path fill="none" stroke="black" d="M868.56,-237.83C868.56,-237.83 868.56,-70.13 868.56,-70.13"/>
<polygon fill="black" stroke="black" points="872.06,-70.13 868.56,-60.13 865.06,-70.13 872.06,-70.13"/>
</g>
<!-- com.example.sms.presentation&#45;&gt;org.slf4j -->
<g id="edge15" class="edge">
<title>com.example.sms.presentation&#45;&gt;org.slf4j</title>
<path fill="none" stroke="black" d="M663.88,-238.01C663.88,-199.26 663.88,-112.25 663.88,-112.25 663.88,-112.25 393.32,-112.25 393.32,-112.25"/>
<polygon fill="black" stroke="black" points="393.32,-108.75 383.32,-112.25 393.32,-115.75 393.32,-108.75"/>
</g>
<!-- jakarta.servlet -->
<g id="node16" class="node">
<title>jakarta.servlet</title>
<polygon fill="lightgrey" stroke="black" points="1456.88,-202.25 1364.38,-202.25 1364.38,-198.25 1360.38,-198.25 1360.38,-194.25 1364.38,-194.25 1364.38,-174.25 1360.38,-174.25 1360.38,-170.25 1364.38,-170.25 1364.38,-166.25 1456.88,-166.25 1456.88,-202.25"/>
<polyline fill="none" stroke="black" points="1364.38,-198.25 1368.38,-198.25 1368.38,-194.25 1364.38,-194.25"/>
<polyline fill="none" stroke="black" points="1364.38,-174.25 1368.38,-174.25 1368.38,-170.25 1364.38,-170.25"/>
<text text-anchor="middle" x="1410.62" y="-179.2" font-family="Times New Roman,serif" font-size="14.00">jakarta.servlet</text>
</g>
<!-- com.example.sms.presentation&#45;&gt;jakarta.servlet -->
<g id="edge24" class="edge">
<title>com.example.sms.presentation&#45;&gt;jakarta.servlet</title>
<path fill="none" stroke="black" d="M873.16,-262.25C1053.31,-262.25 1392.44,-262.25 1392.44,-262.25 1392.44,-262.25 1392.44,-214.25 1392.44,-214.25"/>
<polygon fill="black" stroke="black" points="1395.94,-214.25 1392.44,-204.25 1388.94,-214.25 1395.94,-214.25"/>
</g>
<!-- com.example.sms.service&#45;&gt;com.example.sms.domain -->
<g id="edge21" class="edge">
<title>com.example.sms.service&#45;&gt;com.example.sms.domain</title>
<path fill="none" stroke="black" d="M774.08,-166.08C774.08,-166.08 774.08,-142.18 774.08,-142.18"/>
<polygon fill="black" stroke="black" points="777.58,-142.18 774.08,-132.18 770.58,-142.18 777.58,-142.18"/>
</g>
<!-- com.example.sms.service&#45;&gt;com.example.sms.infrastructure -->
<g id="edge11" class="edge">
<title>com.example.sms.service&#45;&gt;com.example.sms.infrastructure</title>
<path fill="none" stroke="black" d="M710.56,-175.25C655.87,-175.25 582.94,-175.25 582.94,-175.25 582.94,-175.25 582.94,-226.36 582.94,-226.36"/>
<polygon fill="black" stroke="black" points="579.44,-226.36 582.94,-236.36 586.44,-226.36 579.44,-226.36"/>
</g>
<!-- com.example.sms.service&#45;&gt;org.springframework -->
<g id="edge16" class="edge">
<title>com.example.sms.service&#45;&gt;org.springframework</title>
<path fill="none" stroke="black" d="M828.55,-175.25C856.61,-175.25 884.12,-175.25 884.12,-175.25 884.12,-175.25 884.12,-46.25 884.12,-46.25 884.12,-46.25 1086.99,-46.25 1086.99,-46.25"/>
<polygon fill="black" stroke="black" points="1086.99,-49.75 1096.99,-46.25 1086.99,-42.75 1086.99,-49.75"/>
</g>
<!-- com.example.sms.service&#45;&gt;com.github -->
<g id="edge3" class="edge">
<title>com.example.sms.service&#45;&gt;com.github</title>
<path fill="none" stroke="black" d="M801.17,-165.76C801.17,-159.59 801.17,-154.25 801.17,-154.25 801.17,-154.25 1231.62,-154.25 1231.62,-154.25 1231.62,-154.25 1231.62,-141.82 1231.62,-141.82"/>
<polygon fill="black" stroke="black" points="1235.13,-141.82 1231.63,-131.82 1228.13,-141.82 1235.13,-141.82"/>
</g>
<!-- jakarta.transaction -->
<g id="node9" class="node">
<title>jakarta.transaction</title>
<polygon fill="lightgrey" stroke="black" points="1004.5,-130.25 888.75,-130.25 888.75,-126.25 884.75,-126.25 884.75,-122.25 888.75,-122.25 888.75,-102.25 884.75,-102.25 884.75,-98.25 888.75,-98.25 888.75,-94.25 1004.5,-94.25 1004.5,-130.25"/>
<polyline fill="none" stroke="black" points="888.75,-126.25 892.75,-126.25 892.75,-122.25 888.75,-122.25"/>
<polyline fill="none" stroke="black" points="888.75,-102.25 892.75,-102.25 892.75,-98.25 888.75,-98.25"/>
<text text-anchor="middle" x="946.62" y="-107.2" font-family="Times New Roman,serif" font-size="14.00">jakarta.transaction</text>
</g>
<!-- com.example.sms.service&#45;&gt;jakarta.transaction -->
<g id="edge5" class="edge">
<title>com.example.sms.service&#45;&gt;jakarta.transaction</title>
<path fill="none" stroke="black" d="M828.56,-184.25C880.05,-184.25 946.62,-184.25 946.62,-184.25 946.62,-184.25 946.62,-141.93 946.62,-141.93"/>
<polygon fill="black" stroke="black" points="950.13,-141.93 946.63,-131.93 943.13,-141.93 950.13,-141.93"/>
</g>
<!-- com.example.sms.service&#45;&gt;lombok -->
<g id="edge6" class="edge">
<title>com.example.sms.service&#45;&gt;lombok</title>
<path fill="none" stroke="black" d="M718.81,-166.01C718.81,-166.01 718.81,-69.85 718.81,-69.85"/>
<polygon fill="black" stroke="black" points="722.31,-69.85 718.81,-59.85 715.31,-69.85 722.31,-69.85"/>
</g>
<!-- com.example.sms.service&#45;&gt;org.slf4j -->
<g id="edge22" class="edge">
<title>com.example.sms.service&#45;&gt;org.slf4j</title>
<path fill="none" stroke="black" d="M714.91,-165.77C714.91,-142.7 714.91,-106.25 714.91,-106.25 714.91,-106.25 393.51,-106.25 393.51,-106.25"/>
<polygon fill="black" stroke="black" points="393.51,-102.75 383.51,-106.25 393.51,-109.75 393.51,-102.75"/>
</g>
<!-- org.aspectj -->
<g id="node18" class="node">
<title>org.aspectj</title>
<polygon fill="lightgrey" stroke="black" points="1136.25,-130.25 1061,-130.25 1061,-126.25 1057,-126.25 1057,-122.25 1061,-122.25 1061,-102.25 1057,-102.25 1057,-98.25 1061,-98.25 1061,-94.25 1136.25,-94.25 1136.25,-130.25"/>
<polyline fill="none" stroke="black" points="1061,-126.25 1065,-126.25 1065,-122.25 1061,-122.25"/>
<polyline fill="none" stroke="black" points="1061,-102.25 1065,-102.25 1065,-98.25 1061,-98.25"/>
<text text-anchor="middle" x="1098.62" y="-107.2" font-family="Times New Roman,serif" font-size="14.00">org.aspectj</text>
</g>
<!-- com.example.sms.service&#45;&gt;org.aspectj -->
<g id="edge33" class="edge">
<title>com.example.sms.service&#45;&gt;org.aspectj</title>
<path fill="none" stroke="black" d="M828.47,-193.25C919.11,-193.25 1082.5,-193.25 1082.5,-193.25 1082.5,-193.25 1082.5,-142.14 1082.5,-142.14"/>
<polygon fill="black" stroke="black" points="1086,-142.14 1082.5,-132.14 1079,-142.14 1086,-142.14"/>
</g>
<!-- com.example -->
<g id="node13" class="node">
<title>com.example</title>
<polygon fill="lightgrey" stroke="black" points="1510.75,-346.25 1420.5,-346.25 1420.5,-342.25 1416.5,-342.25 1416.5,-338.25 1420.5,-338.25 1420.5,-318.25 1416.5,-318.25 1416.5,-314.25 1420.5,-314.25 1420.5,-310.25 1510.75,-310.25 1510.75,-346.25"/>
<polyline fill="none" stroke="black" points="1420.5,-342.25 1424.5,-342.25 1424.5,-338.25 1420.5,-338.25"/>
<polyline fill="none" stroke="black" points="1420.5,-318.25 1424.5,-318.25 1424.5,-314.25 1420.5,-314.25"/>
<text text-anchor="middle" x="1465.62" y="-323.2" font-family="Times New Roman,serif" font-size="14.00">com.example</text>
</g>
<!-- com.example&#45;&gt;com.example.sms.presentation -->
<g id="edge10" class="edge">
<title>com.example&#45;&gt;com.example.sms.presentation</title>
<path fill="none" stroke="black" d="M1432.62,-309.92C1432.62,-292.28 1432.62,-268.25 1432.62,-268.25 1432.62,-268.25 884.86,-268.25 884.86,-268.25"/>
<polygon fill="black" stroke="black" points="884.86,-264.75 874.86,-268.25 884.86,-271.75 884.86,-264.75"/>
</g>
<!-- com.example&#45;&gt;org.springframework -->
<g id="edge31" class="edge">
<title>com.example&#45;&gt;org.springframework</title>
<path fill="none" stroke="black" d="M1420.11,-328.25C1341.37,-328.25 1188.08,-328.25 1188.08,-328.25 1188.08,-328.25 1188.08,-70.22 1188.08,-70.22"/>
<polygon fill="black" stroke="black" points="1191.58,-70.22 1188.08,-60.22 1184.58,-70.22 1191.58,-70.22"/>
</g>
<!-- org.mybatis -->
<g id="node15" class="node">
<title>org.mybatis</title>
<polygon fill="lightgrey" stroke="black" points="1594.25,-274.25 1513,-274.25 1513,-270.25 1509,-270.25 1509,-266.25 1513,-266.25 1513,-246.25 1509,-246.25 1509,-242.25 1513,-242.25 1513,-238.25 1594.25,-238.25 1594.25,-274.25"/>
<polyline fill="none" stroke="black" points="1513,-270.25 1517,-270.25 1517,-266.25 1513,-266.25"/>
<polyline fill="none" stroke="black" points="1513,-246.25 1517,-246.25 1517,-242.25 1513,-242.25"/>
<text text-anchor="middle" x="1553.62" y="-251.2" font-family="Times New Roman,serif" font-size="14.00">org.mybatis</text>
</g>
<!-- com.example&#45;&gt;org.mybatis -->
<g id="edge13" class="edge">
<title>com.example&#45;&gt;org.mybatis</title>
<path fill="none" stroke="black" d="M1483.81,-310.02C1483.81,-285.32 1483.81,-244.25 1483.81,-244.25 1483.81,-244.25 1501.1,-244.25 1501.1,-244.25"/>
<polygon fill="black" stroke="black" points="1501.1,-247.75 1511.1,-244.25 1501.1,-240.75 1501.1,-247.75"/>
</g>
<!-- com.example&#45;&gt;jakarta.servlet -->
<g id="edge20" class="edge">
<title>com.example&#45;&gt;jakarta.servlet</title>
<path fill="none" stroke="black" d="M1444.75,-310.01C1444.75,-310.01 1444.75,-213.85 1444.75,-213.85"/>
<polygon fill="black" stroke="black" points="1448.25,-213.85 1444.75,-203.85 1441.25,-213.85 1448.25,-213.85"/>
</g>
</g>
</svg>
