<?xml version="1.0" encoding="UTF-8" standalone="no"?>
<!DOCTYPE svg PUBLIC "-//W3C//DTD SVG 1.1//EN"
 "http://www.w3.org/Graphics/SVG/1.1/DTD/svg11.dtd">
<!-- Generated by graphviz version 12.2.0 (20241103.1931)
 -->
<!-- Title: 区分図 Pages: 1 -->
<svg width="2261pt" height="2102pt"
 viewBox="0.00 0.00 2261.20 2101.75" xmlns="http://www.w3.org/2000/svg" xmlns:xlink="http://www.w3.org/1999/xlink">
<g id="graph0" class="graph" transform="scale(1 1) rotate(0) translate(4 2075.5)">
<title>区分図</title>
<polygon fill="white" stroke="none" points="-4,26.25 -4,-2075.5 2257.2,-2075.5 2257.2,26.25 -4,26.25"/>
<text text-anchor="middle" x="1126.6" y="17.3" font-family="Times New Roman,serif" font-size="14.00">区分図</text>
<g id="clust1" class="cluster">
<title>cluster_com.example.sms.domain.type</title>
<polygon fill="none" stroke="lightgray" points="1935.33,-1806 1935.33,-2071.5 2253.2,-2071.5 2253.2,-1806 1935.33,-1806"/>
<text text-anchor="middle" x="2094.27" y="-2054.2" font-family="Times New Roman,serif" font-size="14.00">type</text>
</g>
<g id="clust2" class="cluster">
<title>cluster_com.example.sms.domain.type.quantity</title>
<polygon fill="none" stroke="lightgray" points="1943.33,-1814 1943.33,-2039 2084.83,-2039 2084.83,-1814 1943.33,-1814"/>
<text text-anchor="middle" x="2014.08" y="-2021.7" font-family="Times New Roman,serif" font-size="14.00">quantity</text>
</g>
<g id="clust3" class="cluster">
<title>cluster_com.example.sms.domain.type.money</title>
<polygon fill="none" stroke="lightgray" points="2122.95,-1814.12 2122.95,-1964.88 2245.2,-1964.88 2245.2,-1814.12 2122.95,-1814.12"/>
<text text-anchor="middle" x="2184.08" y="-1947.58" font-family="Times New Roman,serif" font-size="14.00">money</text>
</g>
<g id="clust4" class="cluster">
<title>cluster_com.example.sms.domain.model</title>
<polygon fill="none" stroke="lightgray" points="0,0 0,-1511.5 1798.53,-1511.5 1798.53,0 0,0"/>
<text text-anchor="middle" x="899.27" y="-1494.2" font-family="Times New Roman,serif" font-size="14.00">model</text>
</g>
<g id="clust5" class="cluster">
<title>cluster_com.example.sms.domain.model.system</title>
<polygon fill="none" stroke="lightgray" points="8,-8 8,-717.38 845.81,-717.38 845.81,-8 8,-8"/>
<text text-anchor="middle" x="426.91" y="-700.08" font-family="Times New Roman,serif" font-size="14.00">system</text>
</g>
<g id="clust6" class="cluster">
<title>cluster_com.example.sms.domain.model.system.user</title>
<polygon fill="none" stroke="lightgray" points="483.56,-520.62 483.56,-648.87 578.06,-648.87 578.06,-520.62 483.56,-520.62"/>
<text text-anchor="middle" x="530.81" y="-631.57" font-family="Times New Roman,serif" font-size="14.00">user</text>
</g>
<g id="clust7" class="cluster">
<title>cluster_com.example.sms.domain.model.system.download</title>
<polygon fill="none" stroke="lightgray" points="663.81,-520.62 663.81,-684.87 837.81,-684.87 837.81,-520.62 663.81,-520.62"/>
<text text-anchor="middle" x="750.81" y="-667.57" font-family="Times New Roman,serif" font-size="14.00">download</text>
</g>
<g id="clust8" class="cluster">
<title>cluster_com.example.sms.domain.model.system.audit</title>
<polygon fill="none" stroke="lightgray" points="16,-16 16,-443.5 695.62,-443.5 695.62,-16 16,-16"/>
<text text-anchor="middle" x="355.81" y="-426.2" font-family="Times New Roman,serif" font-size="14.00">audit</text>
</g>
<g id="clust9" class="cluster">
<title>cluster_com.example.sms.domain.model.master</title>
<polygon fill="none" stroke="lightgray" points="931.28,-848.37 931.28,-1479 1790.53,-1479 1790.53,-848.37 931.28,-848.37"/>
<text text-anchor="middle" x="1360.91" y="-1461.7" font-family="Times New Roman,serif" font-size="14.00">master</text>
</g>
<g id="clust10" class="cluster">
<title>cluster_com.example.sms.domain.model.master.department</title>
<polygon fill="none" stroke="lightgray" points="1498.41,-856.37 1498.41,-1104.62 1782.53,-1104.62 1782.53,-856.37 1498.41,-856.37"/>
<text text-anchor="middle" x="1640.47" y="-1087.32" font-family="Times New Roman,serif" font-size="14.00">department</text>
</g>
<g id="clust11" class="cluster">
<title>cluster_com.example.sms.domain.model.master.product</title>
<polygon fill="none" stroke="lightgray" points="939.28,-942.5 939.28,-1446.5 1401.66,-1446.5 1401.66,-942.5 939.28,-942.5"/>
<text text-anchor="middle" x="1170.47" y="-1429.2" font-family="Times New Roman,serif" font-size="14.00">product</text>
</g>
<!-- com.example.sms.domain.type.quantity.UnitType -->
<g id="node1" class="node">
<title>com.example.sms.domain.type.quantity.UnitType</title>
<g id="a_node1"><a xlink:href="./enum.html#com.example.sms.domain.type.quantity.UnitType" xlink:title="&lt;TABLE&gt;">
<polygon fill="lemonchiffon" stroke="black" points="2076.83,-2006.5 1951.33,-2006.5 1951.33,-1822 2076.83,-1822 2076.83,-2006.5"/>
<text text-anchor="start" x="1979.58" y="-1987.2" font-family="Times New Roman,serif" font-size="14.00">単位区分</text>
<text text-anchor="start" x="1988.58" y="-1970.7" font-family="Times New Roman,serif" font-size="14.00">UnitType</text>
<polygon fill="none" stroke="black" points="1959.33,-1947.5 1959.33,-1967.75 2068.83,-1967.75 2068.83,-1947.5 1959.33,-1947.5"/>
<text text-anchor="start" x="2005.45" y="-1951.45" font-family="Times New Roman,serif" font-size="14.00">個</text>
<polygon fill="none" stroke="black" points="1959.33,-1927.25 1959.33,-1947.5 2068.83,-1947.5 2068.83,-1927.25 1959.33,-1927.25"/>
<text text-anchor="start" x="1988.2" y="-1931.2" font-family="Times New Roman,serif" font-size="14.00">グラム</text>
<polygon fill="none" stroke="black" points="1959.33,-1907 1959.33,-1927.25 2068.83,-1927.25 2068.83,-1907 1959.33,-1907"/>
<text text-anchor="start" x="1962.33" y="-1910.95" font-family="Times New Roman,serif" font-size="14.00">ミリリットル</text>
<polygon fill="none" stroke="black" points="1959.33,-1886.75 1959.33,-1907 2068.83,-1907 2068.83,-1886.75 1959.33,-1886.75"/>
<text text-anchor="start" x="1988.2" y="-1890.7" font-family="Times New Roman,serif" font-size="14.00">パック</text>
<polygon fill="none" stroke="black" points="1959.33,-1866.5 1959.33,-1886.75 2068.83,-1886.75 2068.83,-1866.5 1959.33,-1866.5"/>
<text text-anchor="start" x="2005.45" y="-1870.45" font-family="Times New Roman,serif" font-size="14.00">本</text>
<polygon fill="none" stroke="black" points="1959.33,-1846.25 1959.33,-1866.5 2068.83,-1866.5 2068.83,-1846.25 1959.33,-1846.25"/>
<text text-anchor="start" x="1988.2" y="-1850.2" font-family="Times New Roman,serif" font-size="14.00">セット</text>
<polygon fill="none" stroke="black" points="1959.33,-1826 1959.33,-1846.25 2068.83,-1846.25 2068.83,-1826 1959.33,-1826"/>
<text text-anchor="start" x="1988.2" y="-1829.95" font-family="Times New Roman,serif" font-size="14.00">その他</text>
</a>
</g>
</g>
<!-- com.example.sms.domain.type.money.CurrencyType -->
<g id="node2" class="node">
<title>com.example.sms.domain.type.money.CurrencyType</title>
<g id="a_node2"><a xlink:href="./enum.html#com.example.sms.domain.type.money.CurrencyType" xlink:title="&lt;TABLE&gt;">
<polygon fill="lemonchiffon" stroke="black" points="2237.2,-1932.38 2130.95,-1932.38 2130.95,-1822.12 2237.2,-1822.12 2237.2,-1932.38"/>
<text text-anchor="start" x="2140.95" y="-1913.08" font-family="Times New Roman,serif" font-size="14.00">通貨タイプ</text>
<text text-anchor="start" x="2145.45" y="-1896.58" font-family="Times New Roman,serif" font-size="14.00">CurrencyType</text>
<polygon fill="none" stroke="black" points="2138.95,-1871.12 2138.95,-1893.62 2229.2,-1893.62 2229.2,-1871.12 2138.95,-1871.12"/>
<text text-anchor="start" x="2172.83" y="-1877.33" font-family="Times New Roman,serif" font-size="14.00">JPY</text>
<polygon fill="none" stroke="black" points="2138.95,-1848.62 2138.95,-1871.12 2229.2,-1871.12 2229.2,-1848.62 2138.95,-1848.62"/>
<text text-anchor="start" x="2170.58" y="-1854.83" font-family="Times New Roman,serif" font-size="14.00">USD</text>
<polygon fill="none" stroke="black" points="2138.95,-1826.12 2138.95,-1848.62 2229.2,-1848.62 2229.2,-1826.12 2138.95,-1826.12"/>
<text text-anchor="start" x="2170.95" y="-1832.33" font-family="Times New Roman,serif" font-size="14.00">CHF</text>
</a>
</g>
</g>
<!-- com.example.sms.domain.model.system.user.RoleName -->
<g id="node3" class="node">
<title>com.example.sms.domain.model.system.user.RoleName</title>
<g id="a_node3"><a xlink:href="./enum.html#com.example.sms.domain.model.system.user.RoleName" xlink:title="&lt;TABLE&gt;">
<polygon fill="lemonchiffon" stroke="black" points="570.06,-616.37 491.56,-616.37 491.56,-528.62 570.06,-528.62 570.06,-616.37"/>
<text text-anchor="start" x="513.56" y="-597.07" font-family="Times New Roman,serif" font-size="14.00">役割</text>
<text text-anchor="start" x="501.56" y="-580.57" font-family="Times New Roman,serif" font-size="14.00">RoleName</text>
<polygon fill="none" stroke="black" points="499.56,-555.12 499.56,-577.62 562.06,-577.62 562.06,-555.12 499.56,-555.12"/>
<text text-anchor="start" x="507.56" y="-561.32" font-family="Times New Roman,serif" font-size="14.00">ADMIN</text>
<polygon fill="none" stroke="black" points="499.56,-532.62 499.56,-555.12 562.06,-555.12 562.06,-532.62 499.56,-532.62"/>
<text text-anchor="start" x="513.56" y="-538.82" font-family="Times New Roman,serif" font-size="14.00">USER</text>
</a>
</g>
</g>
<!-- com.example.sms.domain.model.system.download.DownloadTarget -->
<g id="node4" class="node">
<title>com.example.sms.domain.model.system.download.DownloadTarget</title>
<g id="a_node4"><a xlink:href="./enum.html#com.example.sms.domain.model.system.download.DownloadTarget" xlink:title="&lt;TABLE&gt;">
<polygon fill="#eedd82" stroke="black" points="829.81,-652.37 671.81,-652.37 671.81,-528.62 829.81,-528.62 829.81,-652.37"/>
<text text-anchor="start" x="681.81" y="-633.07" font-family="Times New Roman,serif" font-size="14.00">ダウンロード対象</text>
<text text-anchor="start" x="705.44" y="-616.57" font-family="Times New Roman,serif" font-size="14.00">DownloadTarget</text>
<polygon fill="none" stroke="black" points="679.81,-593.37 679.81,-613.62 821.81,-613.62 821.81,-593.37 679.81,-593.37"/>
<text text-anchor="start" x="733.56" y="-597.32" font-family="Times New Roman,serif" font-size="14.00">部門</text>
<polygon fill="none" stroke="black" points="679.81,-573.12 679.81,-593.37 821.81,-593.37 821.81,-573.12 679.81,-573.12"/>
<text text-anchor="start" x="733.56" y="-577.07" font-family="Times New Roman,serif" font-size="14.00">社員</text>
<polygon fill="none" stroke="black" points="679.81,-552.87 679.81,-573.12 821.81,-573.12 821.81,-552.87 679.81,-552.87"/>
<text text-anchor="start" x="716.31" y="-556.82" font-family="Times New Roman,serif" font-size="14.00">商品分類</text>
<polygon fill="none" stroke="black" points="679.81,-532.62 679.81,-552.87 821.81,-552.87 821.81,-532.62 679.81,-532.62"/>
<text text-anchor="start" x="733.56" y="-536.57" font-family="Times New Roman,serif" font-size="14.00">商品</text>
</a>
</g>
</g>
<!-- com.example.sms.domain.model.system.audit.ApplicationExecutionProcessType -->
<g id="node5" class="node">
<title>com.example.sms.domain.model.system.audit.ApplicationExecutionProcessType</title>
<g id="a_node5"><a xlink:href="./enum.html#com.example.sms.domain.model.system.audit.ApplicationExecutionProcessType" xlink:title="&lt;TABLE&gt;">
<polygon fill="#eedd82" stroke="black" points="320,-411 24,-411 24,-24 320,-24 320,-411"/>
<text text-anchor="start" x="34" y="-391.7" font-family="Times New Roman,serif" font-size="14.00">アプリケーション実行プロセス区分</text>
<text text-anchor="start" x="78.63" y="-375.2" font-family="Times New Roman,serif" font-size="14.00">ApplicationExecutionProcessType</text>
<polygon fill="none" stroke="black" points="32,-352 32,-372.25 312,-372.25 312,-352 32,-352"/>
<text text-anchor="start" x="120.25" y="-355.95" font-family="Times New Roman,serif" font-size="14.00">ユーザー登録</text>
<polygon fill="none" stroke="black" points="32,-331.75 32,-352 312,-352 312,-331.75 32,-331.75"/>
<text text-anchor="start" x="120.25" y="-335.7" font-family="Times New Roman,serif" font-size="14.00">ユーザー更新</text>
<polygon fill="none" stroke="black" points="32,-311.5 32,-331.75 312,-331.75 312,-311.5 32,-311.5"/>
<text text-anchor="start" x="120.25" y="-315.45" font-family="Times New Roman,serif" font-size="14.00">ユーザー削除</text>
<polygon fill="none" stroke="black" points="32,-291.25 32,-311.5 312,-311.5 312,-291.25 32,-291.25"/>
<text text-anchor="start" x="137.5" y="-295.2" font-family="Times New Roman,serif" font-size="14.00">部門登録</text>
<polygon fill="none" stroke="black" points="32,-271 32,-291.25 312,-291.25 312,-271 32,-271"/>
<text text-anchor="start" x="137.5" y="-274.95" font-family="Times New Roman,serif" font-size="14.00">部門更新</text>
<polygon fill="none" stroke="black" points="32,-250.75 32,-271 312,-271 312,-250.75 32,-250.75"/>
<text text-anchor="start" x="137.5" y="-254.7" font-family="Times New Roman,serif" font-size="14.00">部門削除</text>
<polygon fill="none" stroke="black" points="32,-230.5 32,-250.75 312,-250.75 312,-230.5 32,-230.5"/>
<text text-anchor="start" x="137.5" y="-234.45" font-family="Times New Roman,serif" font-size="14.00">社員登録</text>
<polygon fill="none" stroke="black" points="32,-210.25 32,-230.5 312,-230.5 312,-210.25 32,-210.25"/>
<text text-anchor="start" x="137.5" y="-214.2" font-family="Times New Roman,serif" font-size="14.00">社員更新</text>
<polygon fill="none" stroke="black" points="32,-190 32,-210.25 312,-210.25 312,-190 32,-190"/>
<text text-anchor="start" x="137.5" y="-193.95" font-family="Times New Roman,serif" font-size="14.00">社員削除</text>
<polygon fill="none" stroke="black" points="32,-169.75 32,-190 312,-190 312,-169.75 32,-169.75"/>
<text text-anchor="start" x="120.25" y="-173.7" font-family="Times New Roman,serif" font-size="14.00">商品分類登録</text>
<polygon fill="none" stroke="black" points="32,-149.5 32,-169.75 312,-169.75 312,-149.5 32,-149.5"/>
<text text-anchor="start" x="120.25" y="-153.45" font-family="Times New Roman,serif" font-size="14.00">商品分類更新</text>
<polygon fill="none" stroke="black" points="32,-129.25 32,-149.5 312,-149.5 312,-129.25 32,-129.25"/>
<text text-anchor="start" x="120.25" y="-133.2" font-family="Times New Roman,serif" font-size="14.00">商品分類削除</text>
<polygon fill="none" stroke="black" points="32,-109 32,-129.25 312,-129.25 312,-109 32,-109"/>
<text text-anchor="start" x="137.5" y="-112.95" font-family="Times New Roman,serif" font-size="14.00">商品登録</text>
<polygon fill="none" stroke="black" points="32,-88.75 32,-109 312,-109 312,-88.75 32,-88.75"/>
<text text-anchor="start" x="137.5" y="-92.7" font-family="Times New Roman,serif" font-size="14.00">商品更新</text>
<polygon fill="none" stroke="black" points="32,-68.5 32,-88.75 312,-88.75 312,-68.5 32,-68.5"/>
<text text-anchor="start" x="137.5" y="-72.45" font-family="Times New Roman,serif" font-size="14.00">商品削除</text>
<polygon fill="none" stroke="black" points="32,-48.25 32,-68.5 312,-68.5 312,-48.25 32,-48.25"/>
<text text-anchor="start" x="94.38" y="-52.2" font-family="Times New Roman,serif" font-size="14.00">データダウンロード</text>
<polygon fill="none" stroke="black" points="32,-28 32,-48.25 312,-48.25 312,-28 32,-28"/>
<text text-anchor="start" x="146.13" y="-31.95" font-family="Times New Roman,serif" font-size="14.00">その他</text>
</a>
</g>
</g>
<!-- com.example.sms.domain.model.system.audit.ApplicationExecutionHistoryType -->
<g id="node6" class="node">
<title>com.example.sms.domain.model.system.audit.ApplicationExecutionHistoryType</title>
<g id="a_node6"><a xlink:href="./enum.html#com.example.sms.domain.model.system.audit.ApplicationExecutionHistoryType" xlink:title="&lt;TABLE&gt;">
<polygon fill="#eedd82" stroke="black" points="636.75,-296.12 375.25,-296.12 375.25,-212.87 636.75,-212.87 636.75,-296.12"/>
<text text-anchor="start" x="385.25" y="-276.82" font-family="Times New Roman,serif" font-size="14.00">アプリケーション実行履歴区分</text>
<text text-anchor="start" x="413" y="-260.32" font-family="Times New Roman,serif" font-size="14.00">ApplicationExecutionHistoryType</text>
<polygon fill="none" stroke="black" points="383.25,-237.12 383.25,-257.37 628.75,-257.37 628.75,-237.12 383.25,-237.12"/>
<text text-anchor="start" x="488.75" y="-241.07" font-family="Times New Roman,serif" font-size="14.00">同期</text>
<polygon fill="none" stroke="black" points="383.25,-216.87 383.25,-237.12 628.75,-237.12 628.75,-216.87 383.25,-216.87"/>
<text text-anchor="start" x="480.13" y="-220.82" font-family="Times New Roman,serif" font-size="14.00">非同期</text>
</a>
</g>
</g>
<!-- com.example.sms.domain.model.system.audit.ApplicationExecutionProcessFlag -->
<g id="node7" class="node">
<title>com.example.sms.domain.model.system.audit.ApplicationExecutionProcessFlag</title>
<g id="a_node7"><a xlink:href="./enum.html#com.example.sms.domain.model.system.audit.ApplicationExecutionProcessFlag" xlink:title="&lt;TABLE&gt;">
<polygon fill="#eedd82" stroke="black" points="687.63,-148.37 374.38,-148.37 374.38,-24.62 687.63,-24.62 687.63,-148.37"/>
<text text-anchor="start" x="384.38" y="-129.07" font-family="Times New Roman,serif" font-size="14.00">アプリケーション実行プロセスフラグ</text>
<text text-anchor="start" x="439.13" y="-112.57" font-family="Times New Roman,serif" font-size="14.00">ApplicationExecutionProcessFlag</text>
<polygon fill="none" stroke="black" points="382.38,-89.37 382.38,-109.62 679.63,-109.62 679.63,-89.37 382.38,-89.37"/>
<text text-anchor="start" x="505.13" y="-93.32" font-family="Times New Roman,serif" font-size="14.00">未実行</text>
<polygon fill="none" stroke="black" points="382.38,-69.12 382.38,-89.37 679.63,-89.37 679.63,-69.12 382.38,-69.12"/>
<text text-anchor="start" x="505.13" y="-73.07" font-family="Times New Roman,serif" font-size="14.00">実行中</text>
<polygon fill="none" stroke="black" points="382.38,-48.87 382.38,-69.12 679.63,-69.12 679.63,-48.87 382.38,-48.87"/>
<text text-anchor="start" x="505.13" y="-52.82" font-family="Times New Roman,serif" font-size="14.00">実行済</text>
<polygon fill="none" stroke="black" points="382.38,-28.62 382.38,-48.87 679.63,-48.87 679.63,-28.62 382.38,-28.62"/>
<text text-anchor="start" x="505.13" y="-32.57" font-family="Times New Roman,serif" font-size="14.00">エラー</text>
</a>
</g>
</g>
<!-- com.example.sms.domain.model.master.department.SlitYnType -->
<g id="node8" class="node">
<title>com.example.sms.domain.model.master.department.SlitYnType</title>
<g id="a_node8"><a xlink:href="./enum.html#com.example.sms.domain.model.master.department.SlitYnType" xlink:title="&lt;TABLE&gt;">
<polygon fill="#eedd82" stroke="black" points="1774.53,-1072.12 1651.03,-1072.12 1651.03,-984.37 1774.53,-984.37 1774.53,-1072.12"/>
<text text-anchor="start" x="1661.03" y="-1052.82" font-family="Times New Roman,serif" font-size="14.00">伝票入力可否</text>
<text text-anchor="start" x="1681.66" y="-1036.32" font-family="Times New Roman,serif" font-size="14.00">SlitYnType</text>
<polygon fill="none" stroke="black" points="1659.03,-1010.87 1659.03,-1033.37 1766.53,-1033.37 1766.53,-1010.87 1659.03,-1010.87"/>
<text text-anchor="start" x="1681.28" y="-1017.07" font-family="Times New Roman,serif" font-size="14.00">NOT_SLIT</text>
<polygon fill="none" stroke="black" points="1659.03,-988.37 1659.03,-1010.87 1766.53,-1010.87 1766.53,-988.37 1659.03,-988.37"/>
<text text-anchor="start" x="1698.53" y="-994.57" font-family="Times New Roman,serif" font-size="14.00">SLIT</text>
</a>
</g>
</g>
<!-- com.example.sms.domain.model.master.department.DepartmentLowerType -->
<g id="node9" class="node">
<title>com.example.sms.domain.model.master.department.DepartmentLowerType</title>
<g id="a_node9"><a xlink:href="./enum.html#com.example.sms.domain.model.master.department.DepartmentLowerType" xlink:title="&lt;TABLE&gt;">
<polygon fill="#eedd82" stroke="black" points="1653.16,-952.12 1506.41,-952.12 1506.41,-864.37 1653.16,-864.37 1653.16,-952.12"/>
<text text-anchor="start" x="1536.66" y="-932.82" font-family="Times New Roman,serif" font-size="14.00">最下層区分</text>
<text text-anchor="start" x="1516.41" y="-916.32" font-family="Times New Roman,serif" font-size="14.00">DepartmentLowerType</text>
<polygon fill="none" stroke="black" points="1514.41,-890.87 1514.41,-913.37 1645.16,-913.37 1645.16,-890.87 1514.41,-890.87"/>
<text text-anchor="start" x="1538.16" y="-897.07" font-family="Times New Roman,serif" font-size="14.00">NOT_LOWER</text>
<polygon fill="none" stroke="black" points="1514.41,-868.37 1514.41,-890.87 1645.16,-890.87 1645.16,-868.37 1514.41,-868.37"/>
<text text-anchor="start" x="1555.41" y="-874.57" font-family="Times New Roman,serif" font-size="14.00">LOWER</text>
</a>
</g>
</g>
<!-- com.example.sms.domain.model.master.product.MiscellaneousType -->
<g id="node10" class="node">
<title>com.example.sms.domain.model.master.product.MiscellaneousType</title>
<g id="a_node10"><a xlink:href="./enum.html#com.example.sms.domain.model.master.product.MiscellaneousType" xlink:title="&lt;TABLE&gt;">
<polygon fill="#eedd82" stroke="black" points="1205.66,-1057.87 1079.91,-1057.87 1079.91,-974.62 1205.66,-974.62 1205.66,-1057.87"/>
<text text-anchor="start" x="1116.91" y="-1038.57" font-family="Times New Roman,serif" font-size="14.00">雑区分</text>
<text text-anchor="start" x="1089.91" y="-1022.07" font-family="Times New Roman,serif" font-size="14.00">MiscellaneousType</text>
<polygon fill="none" stroke="black" points="1087.91,-998.87 1087.91,-1019.12 1197.66,-1019.12 1197.66,-998.87 1087.91,-998.87"/>
<text text-anchor="start" x="1116.91" y="-1002.82" font-family="Times New Roman,serif" font-size="14.00">適用外</text>
<polygon fill="none" stroke="black" points="1087.91,-978.62 1087.91,-998.87 1197.66,-998.87 1197.66,-978.62 1087.91,-978.62"/>
<text text-anchor="start" x="1125.53" y="-982.57" font-family="Times New Roman,serif" font-size="14.00">適用</text>
</a>
</g>
</g>
<!-- com.example.sms.domain.model.master.product.ItemType -->
<g id="node11" class="node">
<title>com.example.sms.domain.model.master.product.ItemType</title>
<g id="a_node11"><a xlink:href="./enum.html#com.example.sms.domain.model.master.product.ItemType" xlink:title="&lt;TABLE&gt;">
<polygon fill="lemonchiffon" stroke="black" points="1036.28,-1414 947.28,-1414 947.28,-1310.5 1036.28,-1310.5 1036.28,-1414"/>
<text text-anchor="start" x="957.28" y="-1394.7" font-family="Times New Roman,serif" font-size="14.00">品目区分</text>
<text text-anchor="start" x="965.53" y="-1378.2" font-family="Times New Roman,serif" font-size="14.00">ItemType</text>
<polygon fill="none" stroke="black" points="955.28,-1355 955.28,-1375.25 1028.28,-1375.25 1028.28,-1355 955.28,-1355"/>
<text text-anchor="start" x="974.53" y="-1358.95" font-family="Times New Roman,serif" font-size="14.00">食肉</text>
<polygon fill="none" stroke="black" points="955.28,-1334.75 955.28,-1355 1028.28,-1355 1028.28,-1334.75 955.28,-1334.75"/>
<text text-anchor="start" x="965.91" y="-1338.7" font-family="Times New Roman,serif" font-size="14.00">水産物</text>
<polygon fill="none" stroke="black" points="955.28,-1314.5 955.28,-1334.75 1028.28,-1334.75 1028.28,-1314.5 955.28,-1314.5"/>
<text text-anchor="start" x="965.91" y="-1318.45" font-family="Times New Roman,serif" font-size="14.00">その他</text>
</a>
</g>
</g>
<!-- com.example.sms.domain.model.master.product.ProductType -->
<g id="node12" class="node">
<title>com.example.sms.domain.model.master.product.ProductType</title>
<g id="a_node12"><a xlink:href="./enum.html#com.example.sms.domain.model.master.product.ProductType" xlink:title="&lt;TABLE&gt;">
<polygon fill="#eedd82" stroke="black" points="1156.28,-1335.25 1067.28,-1335.25 1067.28,-1191.25 1156.28,-1191.25 1156.28,-1335.25"/>
<text text-anchor="start" x="1077.28" y="-1315.95" font-family="Times New Roman,serif" font-size="14.00">商品区分</text>
<text text-anchor="start" x="1077.28" y="-1299.45" font-family="Times New Roman,serif" font-size="14.00">ProductType</text>
<polygon fill="none" stroke="black" points="1075.28,-1276.25 1075.28,-1296.5 1148.28,-1296.5 1148.28,-1276.25 1075.28,-1276.25"/>
<text text-anchor="start" x="1094.53" y="-1280.2" font-family="Times New Roman,serif" font-size="14.00">商品</text>
<polygon fill="none" stroke="black" points="1075.28,-1256 1075.28,-1276.25 1148.28,-1276.25 1148.28,-1256 1075.28,-1256"/>
<text text-anchor="start" x="1094.53" y="-1259.95" font-family="Times New Roman,serif" font-size="14.00">製品</text>
<polygon fill="none" stroke="black" points="1075.28,-1235.75 1075.28,-1256 1148.28,-1256 1148.28,-1235.75 1075.28,-1235.75"/>
<text text-anchor="start" x="1094.53" y="-1239.7" font-family="Times New Roman,serif" font-size="14.00">部品</text>
<polygon fill="none" stroke="black" points="1075.28,-1215.5 1075.28,-1235.75 1148.28,-1235.75 1148.28,-1215.5 1075.28,-1215.5"/>
<text text-anchor="start" x="1094.53" y="-1219.45" font-family="Times New Roman,serif" font-size="14.00">包材</text>
<polygon fill="none" stroke="black" points="1075.28,-1195.25 1075.28,-1215.5 1148.28,-1215.5 1148.28,-1195.25 1075.28,-1195.25"/>
<text text-anchor="start" x="1085.91" y="-1199.2" font-family="Times New Roman,serif" font-size="14.00">その他</text>
</a>
</g>
</g>
<!-- com.example.sms.domain.model.master.product.BusinessType -->
<g id="node13" class="node">
<title>com.example.sms.domain.model.master.product.BusinessType</title>
<g id="a_node13"><a xlink:href="./enum.html#com.example.sms.domain.model.master.product.BusinessType" xlink:title="&lt;TABLE&gt;">
<polygon fill="lemonchiffon" stroke="black" points="1055.91,-1054 947.66,-1054 947.66,-950.5 1055.91,-950.5 1055.91,-1054"/>
<text text-anchor="start" x="967.28" y="-1034.7" font-family="Times New Roman,serif" font-size="14.00">事業区分</text>
<text text-anchor="start" x="964.28" y="-1018.2" font-family="Times New Roman,serif" font-size="14.00">BusinessType</text>
<polygon fill="none" stroke="black" points="955.66,-995 955.66,-1015.25 1047.91,-1015.25 1047.91,-995 955.66,-995"/>
<text text-anchor="start" x="958.66" y="-998.95" font-family="Times New Roman,serif" font-size="14.00">生鮮食料品</text>
<polygon fill="none" stroke="black" points="955.66,-974.75 955.66,-995 1047.91,-995 1047.91,-974.75 955.66,-974.75"/>
<text text-anchor="start" x="984.53" y="-978.7" font-family="Times New Roman,serif" font-size="14.00">缶詰</text>
<polygon fill="none" stroke="black" points="955.66,-954.5 955.66,-974.75 1047.91,-974.75 1047.91,-954.5 955.66,-954.5"/>
<text text-anchor="start" x="975.91" y="-958.45" font-family="Times New Roman,serif" font-size="14.00">その他</text>
</a>
</g>
</g>
<!-- com.example.sms.domain.model.master.product.StockAllocationType -->
<g id="node14" class="node">
<title>com.example.sms.domain.model.master.product.StockAllocationType</title>
<g id="a_node14"><a xlink:href="./enum.html#com.example.sms.domain.model.master.product.StockAllocationType" xlink:title="&lt;TABLE&gt;">
<polygon fill="#eedd82" stroke="black" points="1382.16,-1093.87 1247.41,-1093.87 1247.41,-1010.62 1382.16,-1010.62 1382.16,-1093.87"/>
<text text-anchor="start" x="1263.03" y="-1074.57" font-family="Times New Roman,serif" font-size="14.00">在庫引当区分</text>
<text text-anchor="start" x="1257.41" y="-1058.07" font-family="Times New Roman,serif" font-size="14.00">StockAllocationType</text>
<polygon fill="none" stroke="black" points="1255.41,-1034.87 1255.41,-1055.12 1374.16,-1055.12 1374.16,-1034.87 1255.41,-1034.87"/>
<text text-anchor="start" x="1288.91" y="-1038.82" font-family="Times New Roman,serif" font-size="14.00">未引当</text>
<polygon fill="none" stroke="black" points="1255.41,-1014.62 1255.41,-1034.87 1374.16,-1034.87 1374.16,-1014.62 1255.41,-1014.62"/>
<text text-anchor="start" x="1288.91" y="-1018.57" font-family="Times New Roman,serif" font-size="14.00">引当済</text>
</a>
</g>
</g>
<!-- com.example.sms.domain.model.master.product.LiveStockType -->
<g id="node15" class="node">
<title>com.example.sms.domain.model.master.product.LiveStockType</title>
<g id="a_node15"><a xlink:href="./enum.html#com.example.sms.domain.model.master.product.LiveStockType" xlink:title="&lt;TABLE&gt;">
<polygon fill="lemonchiffon" stroke="black" points="1290.03,-1335.25 1187.53,-1335.25 1187.53,-1191.25 1290.03,-1191.25 1290.03,-1335.25"/>
<text text-anchor="start" x="1204.28" y="-1315.95" font-family="Times New Roman,serif" font-size="14.00">畜産区分</text>
<text text-anchor="start" x="1197.53" y="-1299.45" font-family="Times New Roman,serif" font-size="14.00">LiveStockType</text>
<polygon fill="none" stroke="black" points="1195.53,-1276.25 1195.53,-1296.5 1282.03,-1296.5 1282.03,-1276.25 1195.53,-1276.25"/>
<text text-anchor="start" x="1221.53" y="-1280.2" font-family="Times New Roman,serif" font-size="14.00">牛肉</text>
<polygon fill="none" stroke="black" points="1195.53,-1256 1195.53,-1276.25 1282.03,-1276.25 1282.03,-1256 1195.53,-1256"/>
<text text-anchor="start" x="1221.53" y="-1259.95" font-family="Times New Roman,serif" font-size="14.00">豚肉</text>
<polygon fill="none" stroke="black" points="1195.53,-1235.75 1195.53,-1256 1282.03,-1256 1282.03,-1235.75 1195.53,-1235.75"/>
<text text-anchor="start" x="1212.91" y="-1239.7" font-family="Times New Roman,serif" font-size="14.00">まぐろ</text>
<polygon fill="none" stroke="black" points="1195.53,-1215.5 1195.53,-1235.75 1282.03,-1235.75 1282.03,-1215.5 1195.53,-1215.5"/>
<text text-anchor="start" x="1221.53" y="-1219.45" font-family="Times New Roman,serif" font-size="14.00">えび</text>
<polygon fill="none" stroke="black" points="1195.53,-1195.25 1195.53,-1215.5 1282.03,-1215.5 1282.03,-1195.25 1195.53,-1195.25"/>
<text text-anchor="start" x="1212.91" y="-1199.2" font-family="Times New Roman,serif" font-size="14.00">その他</text>
</a>
</g>
</g>
<!-- com.example.sms.domain.model.master.product.TaxType -->
<g id="node16" class="node">
<title>com.example.sms.domain.model.master.product.TaxType</title>
<g id="a_node16"><a xlink:href="./enum.html#com.example.sms.domain.model.master.product.TaxType" xlink:title="&lt;TABLE&gt;">
<polygon fill="#eedd82" stroke="black" points="1393.66,-1243.12 1319.91,-1243.12 1319.91,-1119.37 1393.66,-1119.37 1393.66,-1243.12"/>
<text text-anchor="start" x="1330.91" y="-1223.82" font-family="Times New Roman,serif" font-size="14.00">税区分</text>
<text text-anchor="start" x="1333.16" y="-1207.32" font-family="Times New Roman,serif" font-size="14.00">TaxType</text>
<polygon fill="none" stroke="black" points="1327.91,-1184.12 1327.91,-1204.37 1385.66,-1204.37 1385.66,-1184.12 1327.91,-1184.12"/>
<text text-anchor="start" x="1339.53" y="-1188.07" font-family="Times New Roman,serif" font-size="14.00">外税</text>
<polygon fill="none" stroke="black" points="1327.91,-1163.87 1327.91,-1184.12 1385.66,-1184.12 1385.66,-1163.87 1327.91,-1163.87"/>
<text text-anchor="start" x="1339.53" y="-1167.82" font-family="Times New Roman,serif" font-size="14.00">内税</text>
<polygon fill="none" stroke="black" points="1327.91,-1143.62 1327.91,-1163.87 1385.66,-1163.87 1385.66,-1143.62 1327.91,-1143.62"/>
<text text-anchor="start" x="1330.91" y="-1147.57" font-family="Times New Roman,serif" font-size="14.00">非課税</text>
<polygon fill="none" stroke="black" points="1327.91,-1123.37 1327.91,-1143.62 1385.66,-1143.62 1385.66,-1123.37 1327.91,-1123.37"/>
<text text-anchor="start" x="1330.91" y="-1127.32" font-family="Times New Roman,serif" font-size="14.00">その他</text>
</a>
</g>
</g>
<!-- com.example.sms.domain.model.master.product.StockManagementTargetType -->
<g id="node17" class="node">
<title>com.example.sms.domain.model.master.product.StockManagementTargetType</title>
<g id="a_node17"><a xlink:href="./enum.html#com.example.sms.domain.model.master.product.StockManagementTargetType" xlink:title="&lt;TABLE&gt;">
<polygon fill="#eedd82" stroke="black" points="1215.91,-1165.87 1031.66,-1165.87 1031.66,-1082.62 1215.91,-1082.62 1215.91,-1165.87"/>
<text text-anchor="start" x="1054.78" y="-1146.57" font-family="Times New Roman,serif" font-size="14.00">在庫管理対象区分</text>
<text text-anchor="start" x="1041.66" y="-1130.07" font-family="Times New Roman,serif" font-size="14.00">StockManagementTargetType</text>
<polygon fill="none" stroke="black" points="1039.66,-1106.87 1039.66,-1127.12 1207.91,-1127.12 1207.91,-1106.87 1039.66,-1106.87"/>
<text text-anchor="start" x="1097.91" y="-1110.82" font-family="Times New Roman,serif" font-size="14.00">対象外</text>
<polygon fill="none" stroke="black" points="1039.66,-1086.62 1039.66,-1106.87 1207.91,-1106.87 1207.91,-1086.62 1039.66,-1086.62"/>
<text text-anchor="start" x="1106.53" y="-1090.57" font-family="Times New Roman,serif" font-size="14.00">対象</text>
</a>
</g>
</g>
</g>
</svg>
