<?xml version="1.0" encoding="UTF-8" standalone="no"?>
<!DOCTYPE svg PUBLIC "-//W3C//DTD SVG 1.1//EN"
 "http://www.w3.org/Graphics/SVG/1.1/DTD/svg11.dtd">
<!-- Generated by graphviz version 12.2.0 (20241103.1931)
 -->
<!-- Title: 区分図 Pages: 1 -->
<svg width="1204pt" height="1211pt"
 viewBox="0.00 0.00 1204.44 1210.56" xmlns="http://www.w3.org/2000/svg" xmlns:xlink="http://www.w3.org/1999/xlink">
<g id="graph0" class="graph" transform="scale(1 1) rotate(0) translate(4 1184.31)">
<title>区分図</title>
<polygon fill="white" stroke="none" points="-4,26.25 -4,-1184.31 1200.44,-1184.31 1200.44,26.25 -4,26.25"/>
<text text-anchor="middle" x="598.22" y="17.3" font-family="Times New Roman,serif" font-size="14.00">区分図</text>
<g id="clust1" class="cluster">
<title>cluster_com.example.sms.domain.type.user</title>
<polygon fill="none" stroke="lightgray" points="209.88,-0.25 209.88,-128.5 304.38,-128.5 304.38,-0.25 209.88,-0.25"/>
<text text-anchor="middle" x="257.12" y="-111.2" font-family="Times New Roman,serif" font-size="14.00">user</text>
</g>
<g id="clust2" class="cluster">
<title>cluster_com.example.sms.domain.type.audit</title>
<polygon fill="none" stroke="lightgray" points="70.31,-209.62 70.31,-637.12 749.94,-637.12 749.94,-209.62 70.31,-209.62"/>
<text text-anchor="middle" x="410.12" y="-619.82" font-family="Times New Roman,serif" font-size="14.00">audit</text>
</g>
<g id="clust3" class="cluster">
<title>cluster_com.example.sms.domain.type.download</title>
<polygon fill="none" stroke="lightgray" points="840.12,-0.25 840.12,-164.5 1014.12,-164.5 1014.12,-0.25 840.12,-0.25"/>
<text text-anchor="middle" x="927.12" y="-147.2" font-family="Times New Roman,serif" font-size="14.00">download</text>
</g>
<g id="clust4" class="cluster">
<title>cluster_com.example.sms.domain.type.quantity</title>
<polygon fill="none" stroke="lightgray" points="140.38,-699.88 140.38,-924.88 281.88,-924.88 281.88,-699.88 140.38,-699.88"/>
<text text-anchor="middle" x="211.12" y="-907.58" font-family="Times New Roman,serif" font-size="14.00">quantity</text>
</g>
<g id="clust5" class="cluster">
<title>cluster_com.example.sms.domain.type.product</title>
<polygon fill="none" stroke="lightgray" points="699.81,-700.44 699.81,-1180.31 1196.44,-1180.31 1196.44,-700.44 699.81,-700.44"/>
<text text-anchor="middle" x="948.12" y="-1163.01" font-family="Times New Roman,serif" font-size="14.00">product</text>
</g>
<g id="clust6" class="cluster">
<title>cluster_com.example.sms.domain.type.money</title>
<polygon fill="none" stroke="lightgray" points="0,0 0,-150.75 122.25,-150.75 122.25,0 0,0"/>
<text text-anchor="middle" x="61.13" y="-133.45" font-family="Times New Roman,serif" font-size="14.00">money</text>
</g>
<g id="clust7" class="cluster">
<title>cluster_com.example.sms.domain.type.department</title>
<polygon fill="none" stroke="lightgray" points="350.06,-700.25 350.06,-948.5 634.19,-948.5 634.19,-700.25 350.06,-700.25"/>
<text text-anchor="middle" x="492.12" y="-931.2" font-family="Times New Roman,serif" font-size="14.00">department</text>
</g>
<!-- com.example.sms.domain.type.user.RoleName -->
<g id="node1" class="node">
<title>com.example.sms.domain.type.user.RoleName</title>
<g id="a_node1"><a xlink:href="./enum.html#com.example.sms.domain.type.user.RoleName" xlink:title="&lt;TABLE&gt;">
<polygon fill="lemonchiffon" stroke="black" points="296.38,-96 217.88,-96 217.88,-8.25 296.38,-8.25 296.38,-96"/>
<text text-anchor="start" x="239.88" y="-76.7" font-family="Times New Roman,serif" font-size="14.00">役割</text>
<text text-anchor="start" x="227.88" y="-60.2" font-family="Times New Roman,serif" font-size="14.00">RoleName</text>
<polygon fill="none" stroke="black" points="225.88,-34.75 225.88,-57.25 288.38,-57.25 288.38,-34.75 225.88,-34.75"/>
<text text-anchor="start" x="233.88" y="-40.95" font-family="Times New Roman,serif" font-size="14.00">ADMIN</text>
<polygon fill="none" stroke="black" points="225.88,-12.25 225.88,-34.75 288.38,-34.75 288.38,-12.25 225.88,-12.25"/>
<text text-anchor="start" x="239.88" y="-18.45" font-family="Times New Roman,serif" font-size="14.00">USER</text>
</a>
</g>
</g>
<!-- com.example.sms.domain.type.audit.ApplicationExecutionProcessFlag -->
<g id="node2" class="node">
<title>com.example.sms.domain.type.audit.ApplicationExecutionProcessFlag</title>
<g id="a_node2"><a xlink:href="./enum.html#com.example.sms.domain.type.audit.ApplicationExecutionProcessFlag" xlink:title="&lt;TABLE&gt;">
<polygon fill="#eedd82" stroke="black" points="741.94,-342 428.69,-342 428.69,-218.25 741.94,-218.25 741.94,-342"/>
<text text-anchor="start" x="438.69" y="-322.7" font-family="Times New Roman,serif" font-size="14.00">アプリケーション実行プロセスフラグ</text>
<text text-anchor="start" x="493.44" y="-306.2" font-family="Times New Roman,serif" font-size="14.00">ApplicationExecutionProcessFlag</text>
<polygon fill="none" stroke="black" points="436.69,-283 436.69,-303.25 733.94,-303.25 733.94,-283 436.69,-283"/>
<text text-anchor="start" x="559.44" y="-286.95" font-family="Times New Roman,serif" font-size="14.00">未実行</text>
<polygon fill="none" stroke="black" points="436.69,-262.75 436.69,-283 733.94,-283 733.94,-262.75 436.69,-262.75"/>
<text text-anchor="start" x="559.44" y="-266.7" font-family="Times New Roman,serif" font-size="14.00">実行中</text>
<polygon fill="none" stroke="black" points="436.69,-242.5 436.69,-262.75 733.94,-262.75 733.94,-242.5 436.69,-242.5"/>
<text text-anchor="start" x="559.44" y="-246.45" font-family="Times New Roman,serif" font-size="14.00">実行済</text>
<polygon fill="none" stroke="black" points="436.69,-222.25 436.69,-242.5 733.94,-242.5 733.94,-222.25 436.69,-222.25"/>
<text text-anchor="start" x="559.44" y="-226.2" font-family="Times New Roman,serif" font-size="14.00">エラー</text>
</a>
</g>
</g>
<!-- com.example.sms.domain.type.audit.ApplicationExecutionHistoryType -->
<g id="node3" class="node">
<title>com.example.sms.domain.type.audit.ApplicationExecutionHistoryType</title>
<g id="a_node3"><a xlink:href="./enum.html#com.example.sms.domain.type.audit.ApplicationExecutionHistoryType" xlink:title="&lt;TABLE&gt;">
<polygon fill="#eedd82" stroke="black" points="691.06,-489.75 429.56,-489.75 429.56,-406.5 691.06,-406.5 691.06,-489.75"/>
<text text-anchor="start" x="439.56" y="-470.45" font-family="Times New Roman,serif" font-size="14.00">アプリケーション実行履歴区分</text>
<text text-anchor="start" x="467.31" y="-453.95" font-family="Times New Roman,serif" font-size="14.00">ApplicationExecutionHistoryType</text>
<polygon fill="none" stroke="black" points="437.56,-430.75 437.56,-451 683.06,-451 683.06,-430.75 437.56,-430.75"/>
<text text-anchor="start" x="543.06" y="-434.7" font-family="Times New Roman,serif" font-size="14.00">同期</text>
<polygon fill="none" stroke="black" points="437.56,-410.5 437.56,-430.75 683.06,-430.75 683.06,-410.5 437.56,-410.5"/>
<text text-anchor="start" x="534.44" y="-414.45" font-family="Times New Roman,serif" font-size="14.00">非同期</text>
</a>
</g>
</g>
<!-- com.example.sms.domain.type.audit.ApplicationExecutionProcessType -->
<g id="node4" class="node">
<title>com.example.sms.domain.type.audit.ApplicationExecutionProcessType</title>
<g id="a_node4"><a xlink:href="./enum.html#com.example.sms.domain.type.audit.ApplicationExecutionProcessType" xlink:title="&lt;TABLE&gt;">
<polygon fill="#eedd82" stroke="black" points="374.31,-604.62 78.31,-604.62 78.31,-217.62 374.31,-217.62 374.31,-604.62"/>
<text text-anchor="start" x="88.31" y="-585.33" font-family="Times New Roman,serif" font-size="14.00">アプリケーション実行プロセス区分</text>
<text text-anchor="start" x="132.94" y="-568.83" font-family="Times New Roman,serif" font-size="14.00">ApplicationExecutionProcessType</text>
<polygon fill="none" stroke="black" points="86.31,-545.62 86.31,-565.88 366.31,-565.88 366.31,-545.62 86.31,-545.62"/>
<text text-anchor="start" x="174.56" y="-549.58" font-family="Times New Roman,serif" font-size="14.00">ユーザー登録</text>
<polygon fill="none" stroke="black" points="86.31,-525.38 86.31,-545.62 366.31,-545.62 366.31,-525.38 86.31,-525.38"/>
<text text-anchor="start" x="174.56" y="-529.33" font-family="Times New Roman,serif" font-size="14.00">ユーザー更新</text>
<polygon fill="none" stroke="black" points="86.31,-505.12 86.31,-525.38 366.31,-525.38 366.31,-505.12 86.31,-505.12"/>
<text text-anchor="start" x="174.56" y="-509.07" font-family="Times New Roman,serif" font-size="14.00">ユーザー削除</text>
<polygon fill="none" stroke="black" points="86.31,-484.88 86.31,-505.12 366.31,-505.12 366.31,-484.88 86.31,-484.88"/>
<text text-anchor="start" x="191.81" y="-488.82" font-family="Times New Roman,serif" font-size="14.00">部門登録</text>
<polygon fill="none" stroke="black" points="86.31,-464.62 86.31,-484.88 366.31,-484.88 366.31,-464.62 86.31,-464.62"/>
<text text-anchor="start" x="191.81" y="-468.57" font-family="Times New Roman,serif" font-size="14.00">部門更新</text>
<polygon fill="none" stroke="black" points="86.31,-444.38 86.31,-464.62 366.31,-464.62 366.31,-444.38 86.31,-444.38"/>
<text text-anchor="start" x="191.81" y="-448.32" font-family="Times New Roman,serif" font-size="14.00">部門削除</text>
<polygon fill="none" stroke="black" points="86.31,-424.12 86.31,-444.38 366.31,-444.38 366.31,-424.12 86.31,-424.12"/>
<text text-anchor="start" x="191.81" y="-428.07" font-family="Times New Roman,serif" font-size="14.00">社員登録</text>
<polygon fill="none" stroke="black" points="86.31,-403.88 86.31,-424.12 366.31,-424.12 366.31,-403.88 86.31,-403.88"/>
<text text-anchor="start" x="191.81" y="-407.82" font-family="Times New Roman,serif" font-size="14.00">社員更新</text>
<polygon fill="none" stroke="black" points="86.31,-383.62 86.31,-403.88 366.31,-403.88 366.31,-383.62 86.31,-383.62"/>
<text text-anchor="start" x="191.81" y="-387.57" font-family="Times New Roman,serif" font-size="14.00">社員削除</text>
<polygon fill="none" stroke="black" points="86.31,-363.38 86.31,-383.62 366.31,-383.62 366.31,-363.38 86.31,-363.38"/>
<text text-anchor="start" x="174.56" y="-367.32" font-family="Times New Roman,serif" font-size="14.00">商品分類登録</text>
<polygon fill="none" stroke="black" points="86.31,-343.12 86.31,-363.38 366.31,-363.38 366.31,-343.12 86.31,-343.12"/>
<text text-anchor="start" x="174.56" y="-347.07" font-family="Times New Roman,serif" font-size="14.00">商品分類更新</text>
<polygon fill="none" stroke="black" points="86.31,-322.88 86.31,-343.12 366.31,-343.12 366.31,-322.88 86.31,-322.88"/>
<text text-anchor="start" x="174.56" y="-326.82" font-family="Times New Roman,serif" font-size="14.00">商品分類削除</text>
<polygon fill="none" stroke="black" points="86.31,-302.62 86.31,-322.88 366.31,-322.88 366.31,-302.62 86.31,-302.62"/>
<text text-anchor="start" x="191.81" y="-306.57" font-family="Times New Roman,serif" font-size="14.00">商品登録</text>
<polygon fill="none" stroke="black" points="86.31,-282.38 86.31,-302.62 366.31,-302.62 366.31,-282.38 86.31,-282.38"/>
<text text-anchor="start" x="191.81" y="-286.32" font-family="Times New Roman,serif" font-size="14.00">商品更新</text>
<polygon fill="none" stroke="black" points="86.31,-262.12 86.31,-282.38 366.31,-282.38 366.31,-262.12 86.31,-262.12"/>
<text text-anchor="start" x="191.81" y="-266.07" font-family="Times New Roman,serif" font-size="14.00">商品削除</text>
<polygon fill="none" stroke="black" points="86.31,-241.88 86.31,-262.12 366.31,-262.12 366.31,-241.88 86.31,-241.88"/>
<text text-anchor="start" x="148.69" y="-245.82" font-family="Times New Roman,serif" font-size="14.00">データダウンロード</text>
<polygon fill="none" stroke="black" points="86.31,-221.62 86.31,-241.88 366.31,-241.88 366.31,-221.62 86.31,-221.62"/>
<text text-anchor="start" x="200.44" y="-225.57" font-family="Times New Roman,serif" font-size="14.00">その他</text>
</a>
</g>
</g>
<!-- com.example.sms.domain.type.download.DownloadTarget -->
<g id="node5" class="node">
<title>com.example.sms.domain.type.download.DownloadTarget</title>
<g id="a_node5"><a xlink:href="./enum.html#com.example.sms.domain.type.download.DownloadTarget" xlink:title="&lt;TABLE&gt;">
<polygon fill="#eedd82" stroke="black" points="1006.12,-132 848.12,-132 848.12,-8.25 1006.12,-8.25 1006.12,-132"/>
<text text-anchor="start" x="858.12" y="-112.7" font-family="Times New Roman,serif" font-size="14.00">ダウンロード対象</text>
<text text-anchor="start" x="881.75" y="-96.2" font-family="Times New Roman,serif" font-size="14.00">DownloadTarget</text>
<polygon fill="none" stroke="black" points="856.12,-73 856.12,-93.25 998.12,-93.25 998.12,-73 856.12,-73"/>
<text text-anchor="start" x="909.88" y="-76.95" font-family="Times New Roman,serif" font-size="14.00">部門</text>
<polygon fill="none" stroke="black" points="856.12,-52.75 856.12,-73 998.12,-73 998.12,-52.75 856.12,-52.75"/>
<text text-anchor="start" x="909.88" y="-56.7" font-family="Times New Roman,serif" font-size="14.00">社員</text>
<polygon fill="none" stroke="black" points="856.12,-32.5 856.12,-52.75 998.12,-52.75 998.12,-32.5 856.12,-32.5"/>
<text text-anchor="start" x="892.62" y="-36.45" font-family="Times New Roman,serif" font-size="14.00">商品分類</text>
<polygon fill="none" stroke="black" points="856.12,-12.25 856.12,-32.5 998.12,-32.5 998.12,-12.25 856.12,-12.25"/>
<text text-anchor="start" x="909.88" y="-16.2" font-family="Times New Roman,serif" font-size="14.00">商品</text>
</a>
</g>
</g>
<!-- com.example.sms.domain.type.quantity.UnitType -->
<g id="node6" class="node">
<title>com.example.sms.domain.type.quantity.UnitType</title>
<g id="a_node6"><a xlink:href="./enum.html#com.example.sms.domain.type.quantity.UnitType" xlink:title="&lt;TABLE&gt;">
<polygon fill="lemonchiffon" stroke="black" points="273.88,-892.38 148.38,-892.38 148.38,-707.88 273.88,-707.88 273.88,-892.38"/>
<text text-anchor="start" x="176.63" y="-873.08" font-family="Times New Roman,serif" font-size="14.00">単位区分</text>
<text text-anchor="start" x="185.63" y="-856.58" font-family="Times New Roman,serif" font-size="14.00">UnitType</text>
<polygon fill="none" stroke="black" points="156.38,-833.38 156.38,-853.62 265.88,-853.62 265.88,-833.38 156.38,-833.38"/>
<text text-anchor="start" x="202.5" y="-837.33" font-family="Times New Roman,serif" font-size="14.00">個</text>
<polygon fill="none" stroke="black" points="156.38,-813.12 156.38,-833.38 265.88,-833.38 265.88,-813.12 156.38,-813.12"/>
<text text-anchor="start" x="185.25" y="-817.08" font-family="Times New Roman,serif" font-size="14.00">グラム</text>
<polygon fill="none" stroke="black" points="156.38,-792.88 156.38,-813.12 265.88,-813.12 265.88,-792.88 156.38,-792.88"/>
<text text-anchor="start" x="159.38" y="-796.83" font-family="Times New Roman,serif" font-size="14.00">ミリリットル</text>
<polygon fill="none" stroke="black" points="156.38,-772.62 156.38,-792.88 265.88,-792.88 265.88,-772.62 156.38,-772.62"/>
<text text-anchor="start" x="185.25" y="-776.58" font-family="Times New Roman,serif" font-size="14.00">パック</text>
<polygon fill="none" stroke="black" points="156.38,-752.38 156.38,-772.62 265.88,-772.62 265.88,-752.38 156.38,-752.38"/>
<text text-anchor="start" x="202.5" y="-756.33" font-family="Times New Roman,serif" font-size="14.00">本</text>
<polygon fill="none" stroke="black" points="156.38,-732.12 156.38,-752.38 265.88,-752.38 265.88,-732.12 156.38,-732.12"/>
<text text-anchor="start" x="185.25" y="-736.08" font-family="Times New Roman,serif" font-size="14.00">セット</text>
<polygon fill="none" stroke="black" points="156.38,-711.88 156.38,-732.12 265.88,-732.12 265.88,-711.88 156.38,-711.88"/>
<text text-anchor="start" x="185.25" y="-715.83" font-family="Times New Roman,serif" font-size="14.00">その他</text>
</a>
</g>
</g>
<!-- com.example.sms.domain.type.product.LiveStockType -->
<g id="node7" class="node">
<title>com.example.sms.domain.type.product.LiveStockType</title>
<g id="a_node7"><a xlink:href="./enum.html#com.example.sms.domain.type.product.LiveStockType" xlink:title="&lt;TABLE&gt;">
<polygon fill="lemonchiffon" stroke="black" points="1050.56,-1069.06 948.06,-1069.06 948.06,-925.06 1050.56,-925.06 1050.56,-1069.06"/>
<text text-anchor="start" x="964.81" y="-1049.76" font-family="Times New Roman,serif" font-size="14.00">畜産区分</text>
<text text-anchor="start" x="958.06" y="-1033.26" font-family="Times New Roman,serif" font-size="14.00">LiveStockType</text>
<polygon fill="none" stroke="black" points="956.06,-1010.06 956.06,-1030.31 1042.56,-1030.31 1042.56,-1010.06 956.06,-1010.06"/>
<text text-anchor="start" x="982.06" y="-1014.01" font-family="Times New Roman,serif" font-size="14.00">牛肉</text>
<polygon fill="none" stroke="black" points="956.06,-989.81 956.06,-1010.06 1042.56,-1010.06 1042.56,-989.81 956.06,-989.81"/>
<text text-anchor="start" x="982.06" y="-993.76" font-family="Times New Roman,serif" font-size="14.00">豚肉</text>
<polygon fill="none" stroke="black" points="956.06,-969.56 956.06,-989.81 1042.56,-989.81 1042.56,-969.56 956.06,-969.56"/>
<text text-anchor="start" x="973.44" y="-973.51" font-family="Times New Roman,serif" font-size="14.00">まぐろ</text>
<polygon fill="none" stroke="black" points="956.06,-949.31 956.06,-969.56 1042.56,-969.56 1042.56,-949.31 956.06,-949.31"/>
<text text-anchor="start" x="982.06" y="-953.26" font-family="Times New Roman,serif" font-size="14.00">えび</text>
<polygon fill="none" stroke="black" points="956.06,-929.06 956.06,-949.31 1042.56,-949.31 1042.56,-929.06 956.06,-929.06"/>
<text text-anchor="start" x="973.44" y="-933.01" font-family="Times New Roman,serif" font-size="14.00">その他</text>
</a>
</g>
</g>
<!-- com.example.sms.domain.type.product.BusinessType -->
<g id="node8" class="node">
<title>com.example.sms.domain.type.product.BusinessType</title>
<g id="a_node8"><a xlink:href="./enum.html#com.example.sms.domain.type.product.BusinessType" xlink:title="&lt;TABLE&gt;">
<polygon fill="lemonchiffon" stroke="black" points="1188.44,-955.81 1080.19,-955.81 1080.19,-852.31 1188.44,-852.31 1188.44,-955.81"/>
<text text-anchor="start" x="1099.81" y="-936.51" font-family="Times New Roman,serif" font-size="14.00">事業区分</text>
<text text-anchor="start" x="1096.81" y="-920.01" font-family="Times New Roman,serif" font-size="14.00">BusinessType</text>
<polygon fill="none" stroke="black" points="1088.19,-896.81 1088.19,-917.06 1180.44,-917.06 1180.44,-896.81 1088.19,-896.81"/>
<text text-anchor="start" x="1091.19" y="-900.76" font-family="Times New Roman,serif" font-size="14.00">生鮮食料品</text>
<polygon fill="none" stroke="black" points="1088.19,-876.56 1088.19,-896.81 1180.44,-896.81 1180.44,-876.56 1088.19,-876.56"/>
<text text-anchor="start" x="1117.06" y="-880.51" font-family="Times New Roman,serif" font-size="14.00">缶詰</text>
<polygon fill="none" stroke="black" points="1088.19,-856.31 1088.19,-876.56 1180.44,-876.56 1180.44,-856.31 1088.19,-856.31"/>
<text text-anchor="start" x="1108.44" y="-860.26" font-family="Times New Roman,serif" font-size="14.00">その他</text>
</a>
</g>
</g>
<!-- com.example.sms.domain.type.product.ItemType -->
<g id="node9" class="node">
<title>com.example.sms.domain.type.product.ItemType</title>
<g id="a_node9"><a xlink:href="./enum.html#com.example.sms.domain.type.product.ItemType" xlink:title="&lt;TABLE&gt;">
<polygon fill="lemonchiffon" stroke="black" points="796.81,-1147.81 707.81,-1147.81 707.81,-1044.31 796.81,-1044.31 796.81,-1147.81"/>
<text text-anchor="start" x="717.81" y="-1128.51" font-family="Times New Roman,serif" font-size="14.00">品目区分</text>
<text text-anchor="start" x="726.06" y="-1112.01" font-family="Times New Roman,serif" font-size="14.00">ItemType</text>
<polygon fill="none" stroke="black" points="715.81,-1088.81 715.81,-1109.06 788.81,-1109.06 788.81,-1088.81 715.81,-1088.81"/>
<text text-anchor="start" x="735.06" y="-1092.76" font-family="Times New Roman,serif" font-size="14.00">食肉</text>
<polygon fill="none" stroke="black" points="715.81,-1068.56 715.81,-1088.81 788.81,-1088.81 788.81,-1068.56 715.81,-1068.56"/>
<text text-anchor="start" x="726.44" y="-1072.51" font-family="Times New Roman,serif" font-size="14.00">水産物</text>
<polygon fill="none" stroke="black" points="715.81,-1048.31 715.81,-1068.56 788.81,-1068.56 788.81,-1048.31 715.81,-1048.31"/>
<text text-anchor="start" x="726.44" y="-1052.26" font-family="Times New Roman,serif" font-size="14.00">その他</text>
</a>
</g>
</g>
<!-- com.example.sms.domain.type.product.ProductType -->
<g id="node10" class="node">
<title>com.example.sms.domain.type.product.ProductType</title>
<g id="a_node10"><a xlink:href="./enum.html#com.example.sms.domain.type.product.ProductType" xlink:title="&lt;TABLE&gt;">
<polygon fill="#eedd82" stroke="black" points="916.81,-1069.06 827.81,-1069.06 827.81,-925.06 916.81,-925.06 916.81,-1069.06"/>
<text text-anchor="start" x="837.81" y="-1049.76" font-family="Times New Roman,serif" font-size="14.00">商品区分</text>
<text text-anchor="start" x="837.81" y="-1033.26" font-family="Times New Roman,serif" font-size="14.00">ProductType</text>
<polygon fill="none" stroke="black" points="835.81,-1010.06 835.81,-1030.31 908.81,-1030.31 908.81,-1010.06 835.81,-1010.06"/>
<text text-anchor="start" x="855.06" y="-1014.01" font-family="Times New Roman,serif" font-size="14.00">商品</text>
<polygon fill="none" stroke="black" points="835.81,-989.81 835.81,-1010.06 908.81,-1010.06 908.81,-989.81 835.81,-989.81"/>
<text text-anchor="start" x="855.06" y="-993.76" font-family="Times New Roman,serif" font-size="14.00">製品</text>
<polygon fill="none" stroke="black" points="835.81,-969.56 835.81,-989.81 908.81,-989.81 908.81,-969.56 835.81,-969.56"/>
<text text-anchor="start" x="855.06" y="-973.51" font-family="Times New Roman,serif" font-size="14.00">部品</text>
<polygon fill="none" stroke="black" points="835.81,-949.31 835.81,-969.56 908.81,-969.56 908.81,-949.31 835.81,-949.31"/>
<text text-anchor="start" x="855.06" y="-953.26" font-family="Times New Roman,serif" font-size="14.00">包材</text>
<polygon fill="none" stroke="black" points="835.81,-929.06 835.81,-949.31 908.81,-949.31 908.81,-929.06 835.81,-929.06"/>
<text text-anchor="start" x="846.44" y="-933.01" font-family="Times New Roman,serif" font-size="14.00">その他</text>
</a>
</g>
</g>
<!-- com.example.sms.domain.type.product.MiscellaneousType -->
<g id="node11" class="node">
<title>com.example.sms.domain.type.product.MiscellaneousType</title>
<g id="a_node11"><a xlink:href="./enum.html#com.example.sms.domain.type.product.MiscellaneousType" xlink:title="&lt;TABLE&gt;">
<polygon fill="#eedd82" stroke="black" points="1134.19,-827.69 1008.44,-827.69 1008.44,-744.44 1134.19,-744.44 1134.19,-827.69"/>
<text text-anchor="start" x="1045.44" y="-808.39" font-family="Times New Roman,serif" font-size="14.00">雑区分</text>
<text text-anchor="start" x="1018.44" y="-791.89" font-family="Times New Roman,serif" font-size="14.00">MiscellaneousType</text>
<polygon fill="none" stroke="black" points="1016.44,-768.69 1016.44,-788.94 1126.19,-788.94 1126.19,-768.69 1016.44,-768.69"/>
<text text-anchor="start" x="1045.44" y="-772.64" font-family="Times New Roman,serif" font-size="14.00">適用外</text>
<polygon fill="none" stroke="black" points="1016.44,-748.44 1016.44,-768.69 1126.19,-768.69 1126.19,-748.44 1016.44,-748.44"/>
<text text-anchor="start" x="1054.06" y="-752.39" font-family="Times New Roman,serif" font-size="14.00">適用</text>
</a>
</g>
</g>
<!-- com.example.sms.domain.type.product.TaxType -->
<g id="node12" class="node">
<title>com.example.sms.domain.type.product.TaxType</title>
<g id="a_node12"><a xlink:href="./enum.html#com.example.sms.domain.type.product.TaxType" xlink:title="&lt;TABLE&gt;">
<polygon fill="#eedd82" stroke="black" points="1154.19,-1108.94 1080.44,-1108.94 1080.44,-985.19 1154.19,-985.19 1154.19,-1108.94"/>
<text text-anchor="start" x="1091.44" y="-1089.64" font-family="Times New Roman,serif" font-size="14.00">税区分</text>
<text text-anchor="start" x="1093.69" y="-1073.14" font-family="Times New Roman,serif" font-size="14.00">TaxType</text>
<polygon fill="none" stroke="black" points="1088.44,-1049.94 1088.44,-1070.19 1146.19,-1070.19 1146.19,-1049.94 1088.44,-1049.94"/>
<text text-anchor="start" x="1100.06" y="-1053.89" font-family="Times New Roman,serif" font-size="14.00">外税</text>
<polygon fill="none" stroke="black" points="1088.44,-1029.69 1088.44,-1049.94 1146.19,-1049.94 1146.19,-1029.69 1088.44,-1029.69"/>
<text text-anchor="start" x="1100.06" y="-1033.64" font-family="Times New Roman,serif" font-size="14.00">内税</text>
<polygon fill="none" stroke="black" points="1088.44,-1009.44 1088.44,-1029.69 1146.19,-1029.69 1146.19,-1009.44 1088.44,-1009.44"/>
<text text-anchor="start" x="1091.44" y="-1013.39" font-family="Times New Roman,serif" font-size="14.00">非課税</text>
<polygon fill="none" stroke="black" points="1088.44,-989.19 1088.44,-1009.44 1146.19,-1009.44 1146.19,-989.19 1088.44,-989.19"/>
<text text-anchor="start" x="1091.44" y="-993.14" font-family="Times New Roman,serif" font-size="14.00">その他</text>
</a>
</g>
</g>
<!-- com.example.sms.domain.type.product.StockAllocationType -->
<g id="node13" class="node">
<title>com.example.sms.domain.type.product.StockAllocationType</title>
<g id="a_node13"><a xlink:href="./enum.html#com.example.sms.domain.type.product.StockAllocationType" xlink:title="&lt;TABLE&gt;">
<polygon fill="#eedd82" stroke="black" points="866.69,-791.69 731.94,-791.69 731.94,-708.44 866.69,-708.44 866.69,-791.69"/>
<text text-anchor="start" x="747.56" y="-772.39" font-family="Times New Roman,serif" font-size="14.00">在庫引当区分</text>
<text text-anchor="start" x="741.94" y="-755.89" font-family="Times New Roman,serif" font-size="14.00">StockAllocationType</text>
<polygon fill="none" stroke="black" points="739.94,-732.69 739.94,-752.94 858.69,-752.94 858.69,-732.69 739.94,-732.69"/>
<text text-anchor="start" x="773.44" y="-736.64" font-family="Times New Roman,serif" font-size="14.00">未引当</text>
<polygon fill="none" stroke="black" points="739.94,-712.44 739.94,-732.69 858.69,-732.69 858.69,-712.44 739.94,-712.44"/>
<text text-anchor="start" x="773.44" y="-716.39" font-family="Times New Roman,serif" font-size="14.00">引当済</text>
</a>
</g>
</g>
<!-- com.example.sms.domain.type.product.StockManagementTargetType -->
<g id="node14" class="node">
<title>com.example.sms.domain.type.product.StockManagementTargetType</title>
<g id="a_node14"><a xlink:href="./enum.html#com.example.sms.domain.type.product.StockManagementTargetType" xlink:title="&lt;TABLE&gt;">
<polygon fill="#eedd82" stroke="black" points="976.44,-899.69 792.19,-899.69 792.19,-816.44 976.44,-816.44 976.44,-899.69"/>
<text text-anchor="start" x="815.31" y="-880.39" font-family="Times New Roman,serif" font-size="14.00">在庫管理対象区分</text>
<text text-anchor="start" x="802.19" y="-863.89" font-family="Times New Roman,serif" font-size="14.00">StockManagementTargetType</text>
<polygon fill="none" stroke="black" points="800.19,-840.69 800.19,-860.94 968.44,-860.94 968.44,-840.69 800.19,-840.69"/>
<text text-anchor="start" x="858.44" y="-844.64" font-family="Times New Roman,serif" font-size="14.00">対象外</text>
<polygon fill="none" stroke="black" points="800.19,-820.44 800.19,-840.69 968.44,-840.69 968.44,-820.44 800.19,-820.44"/>
<text text-anchor="start" x="867.06" y="-824.39" font-family="Times New Roman,serif" font-size="14.00">対象</text>
</a>
</g>
</g>
<!-- com.example.sms.domain.type.money.CurrencyType -->
<g id="node15" class="node">
<title>com.example.sms.domain.type.money.CurrencyType</title>
<g id="a_node15"><a xlink:href="./enum.html#com.example.sms.domain.type.money.CurrencyType" xlink:title="&lt;TABLE&gt;">
<polygon fill="lemonchiffon" stroke="black" points="114.25,-118.25 8,-118.25 8,-8 114.25,-8 114.25,-118.25"/>
<text text-anchor="start" x="18" y="-98.95" font-family="Times New Roman,serif" font-size="14.00">通貨タイプ</text>
<text text-anchor="start" x="22.5" y="-82.45" font-family="Times New Roman,serif" font-size="14.00">CurrencyType</text>
<polygon fill="none" stroke="black" points="16,-57 16,-79.5 106.25,-79.5 106.25,-57 16,-57"/>
<text text-anchor="start" x="49.88" y="-63.2" font-family="Times New Roman,serif" font-size="14.00">JPY</text>
<polygon fill="none" stroke="black" points="16,-34.5 16,-57 106.25,-57 106.25,-34.5 16,-34.5"/>
<text text-anchor="start" x="47.63" y="-40.7" font-family="Times New Roman,serif" font-size="14.00">USD</text>
<polygon fill="none" stroke="black" points="16,-12 16,-34.5 106.25,-34.5 106.25,-12 16,-12"/>
<text text-anchor="start" x="48" y="-18.2" font-family="Times New Roman,serif" font-size="14.00">CHF</text>
</a>
</g>
</g>
<!-- com.example.sms.domain.type.department.DepartmentLowerType -->
<g id="node16" class="node">
<title>com.example.sms.domain.type.department.DepartmentLowerType</title>
<g id="a_node16"><a xlink:href="./enum.html#com.example.sms.domain.type.department.DepartmentLowerType" xlink:title="&lt;TABLE&gt;">
<polygon fill="#eedd82" stroke="black" points="504.81,-796 358.06,-796 358.06,-708.25 504.81,-708.25 504.81,-796"/>
<text text-anchor="start" x="388.31" y="-776.7" font-family="Times New Roman,serif" font-size="14.00">最下層区分</text>
<text text-anchor="start" x="368.06" y="-760.2" font-family="Times New Roman,serif" font-size="14.00">DepartmentLowerType</text>
<polygon fill="none" stroke="black" points="366.06,-734.75 366.06,-757.25 496.81,-757.25 496.81,-734.75 366.06,-734.75"/>
<text text-anchor="start" x="389.81" y="-740.95" font-family="Times New Roman,serif" font-size="14.00">NOT_LOWER</text>
<polygon fill="none" stroke="black" points="366.06,-712.25 366.06,-734.75 496.81,-734.75 496.81,-712.25 366.06,-712.25"/>
<text text-anchor="start" x="407.06" y="-718.45" font-family="Times New Roman,serif" font-size="14.00">LOWER</text>
</a>
</g>
</g>
<!-- com.example.sms.domain.type.department.SlitYnType -->
<g id="node17" class="node">
<title>com.example.sms.domain.type.department.SlitYnType</title>
<g id="a_node17"><a xlink:href="./enum.html#com.example.sms.domain.type.department.SlitYnType" xlink:title="&lt;TABLE&gt;">
<polygon fill="#eedd82" stroke="black" points="626.19,-916 502.69,-916 502.69,-828.25 626.19,-828.25 626.19,-916"/>
<text text-anchor="start" x="512.69" y="-896.7" font-family="Times New Roman,serif" font-size="14.00">伝票入力可否</text>
<text text-anchor="start" x="533.31" y="-880.2" font-family="Times New Roman,serif" font-size="14.00">SlitYnType</text>
<polygon fill="none" stroke="black" points="510.69,-854.75 510.69,-877.25 618.19,-877.25 618.19,-854.75 510.69,-854.75"/>
<text text-anchor="start" x="532.94" y="-860.95" font-family="Times New Roman,serif" font-size="14.00">NOT_SLIT</text>
<polygon fill="none" stroke="black" points="510.69,-832.25 510.69,-854.75 618.19,-854.75 618.19,-832.25 510.69,-832.25"/>
<text text-anchor="start" x="550.19" y="-838.45" font-family="Times New Roman,serif" font-size="14.00">SLIT</text>
</a>
</g>
</g>
</g>
</svg>
