<?xml version="1.0" encoding="UTF-8" standalone="no"?>
<!DOCTYPE svg PUBLIC "-//W3C//DTD SVG 1.1//EN"
 "http://www.w3.org/Graphics/SVG/1.1/DTD/svg11.dtd">
<!-- Generated by graphviz version 12.2.0 (20241103.1931)
 -->
<!-- Title: パッケージ関連図 Pages: 1 -->
<svg width="616pt" height="247pt"
 viewBox="0.00 0.00 616.00 247.12" xmlns="http://www.w3.org/2000/svg" xmlns:xlink="http://www.w3.org/1999/xlink">
<g id="graph0" class="graph" transform="scale(1 1) rotate(0) translate(4 243.12)">
<title>パッケージ関連図</title>
<polygon fill="white" stroke="none" points="-4,4 -4,-243.12 612,-243.12 612,4 -4,4"/>
<text text-anchor="middle" x="304" y="-4.95" font-family="Times New Roman,serif" font-size="14.00">パッケージ関連図</text>
<g id="clust1" class="cluster">
<title>cluster_com.example.sms.domain.type</title>
<polygon fill="lemonchiffon" stroke="#eedd82" stroke-width="2" points="403,-30.25 403,-126 600,-126 600,-30.25 403,-30.25"/>
<text text-anchor="middle" x="501.5" y="-108.7" font-family="Times New Roman,serif" font-size="14.00">ドメインモデル(基本型)</text>
<text text-anchor="middle" x="501.5" y="-92.2" font-family="Times New Roman,serif" font-size="14.00">type</text>
</g>
<g id="clust2" class="cluster">
<title>cluster_com.example.sms.domain.model</title>
<polygon fill="lemonchiffon" stroke="#eedd82" stroke-width="2" points="198,-30.25 198,-231.12 395,-231.12 395,-30.25 198,-30.25"/>
<text text-anchor="middle" x="296.5" y="-213.82" font-family="Times New Roman,serif" font-size="14.00">ドメインモデル(複合型)</text>
<text text-anchor="middle" x="296.5" y="-197.32" font-family="Times New Roman,serif" font-size="14.00">model</text>
</g>
<!-- summary -->
<g id="node1" class="node">
<title>summary</title>
<polygon fill="none" stroke="black" points="184,-191.5 0,-191.5 0,-134 190,-134 190,-185.5 184,-191.5"/>
<polyline fill="none" stroke="black" points="184,-191.5 184,-185.5"/>
<polyline fill="none" stroke="black" points="190,-185.5 184,-185.5"/>
<text text-anchor="start" x="8" y="-174.2" font-family="Times New Roman,serif" font-size="14.00">root: com.example.sms.domain</text>
<text text-anchor="start" x="8" y="-157.7" font-family="Times New Roman,serif" font-size="14.00">パッケージ数: 4</text>
<text text-anchor="start" x="8" y="-141.2" font-family="Times New Roman,serif" font-size="14.00">関連数: 3</text>
</g>
<!-- com.example.sms.domain.model.master -->
<g id="node2" class="node">
<title>com.example.sms.domain.model.master</title>
<g id="a_node2"><a xlink:href="./domain.html#com.example.sms.domain.model.master" xlink:title="マスタ\nmaster">
<polygon fill="#eedd82" stroke="black" points="386.88,-182.12 319.12,-182.12 319.12,-143.38 386.88,-143.38 386.88,-182.12"/>
<text text-anchor="middle" x="353" y="-164.82" font-family="Times New Roman,serif" font-size="14.00">マスタ</text>
<text text-anchor="middle" x="353" y="-150.57" font-family="Times New Roman,serif" font-size="14.00">master</text>
</a>
</g>
</g>
<!-- com.example.sms.domain.type.quantity -->
<g id="node3" class="node">
<title>com.example.sms.domain.type.quantity</title>
<g id="a_node3"><a xlink:href="./domain.html#com.example.sms.domain.type.quantity" xlink:title="数量\nquantity">
<polygon fill="#eedd82" stroke="black" points="471.12,-77 410.88,-77 410.88,-38.25 471.12,-38.25 471.12,-77"/>
<text text-anchor="middle" x="441" y="-59.7" font-family="Times New Roman,serif" font-size="14.00">数量</text>
<text text-anchor="middle" x="441" y="-45.45" font-family="Times New Roman,serif" font-size="14.00">quantity</text>
</a>
</g>
</g>
<!-- com.example.sms.domain.model.master&#45;&gt;com.example.sms.domain.type.quantity -->
<g id="edge1" class="edge">
<title>com.example.sms.domain.model.master&#45;&gt;com.example.sms.domain.type.quantity</title>
<path fill="none" stroke="black" d="M380.17,-143.19C386.73,-138.04 393.45,-132.16 399,-126 409.46,-114.4 418.88,-99.88 426.14,-87.29"/>
<polygon fill="black" stroke="black" points="429.18,-89.03 430.97,-78.59 423.06,-85.63 429.18,-89.03"/>
</g>
<!-- com.example.sms.domain.model.system -->
<g id="node4" class="node">
<title>com.example.sms.domain.model.system</title>
<g id="a_node4"><a xlink:href="./domain.html#com.example.sms.domain.model.system" xlink:title="システム\nsystem">
<polygon fill="#eedd82" stroke="black" points="386.5,-77 301.5,-77 301.5,-38.25 386.5,-38.25 386.5,-77"/>
<text text-anchor="middle" x="344" y="-59.7" font-family="Times New Roman,serif" font-size="14.00">システム</text>
<text text-anchor="middle" x="344" y="-45.45" font-family="Times New Roman,serif" font-size="14.00">system</text>
</a>
</g>
</g>
<!-- com.example.sms.domain.model.master&#45;&gt;com.example.sms.domain.model.system -->
<g id="edge2" class="edge">
<title>com.example.sms.domain.model.master&#45;&gt;com.example.sms.domain.model.system</title>
<path fill="none" stroke="black" d="M351.39,-143.31C350.07,-128.16 348.17,-106.38 346.62,-88.7"/>
<polygon fill="black" stroke="black" points="350.11,-88.42 345.76,-78.76 343.14,-89.02 350.11,-88.42"/>
</g>
<!-- com.example.sms.domain.type.money -->
<g id="node5" class="node">
<title>com.example.sms.domain.type.money</title>
<g id="a_node5"><a xlink:href="./domain.html#com.example.sms.domain.type.money" xlink:title="通貨\nmoney">
<polygon fill="#eedd82" stroke="black" points="543,-77 489,-77 489,-38.25 543,-38.25 543,-77"/>
<text text-anchor="middle" x="516" y="-59.7" font-family="Times New Roman,serif" font-size="14.00">通貨</text>
<text text-anchor="middle" x="516" y="-45.45" font-family="Times New Roman,serif" font-size="14.00">money</text>
</a>
</g>
</g>
<!-- com.example.sms.domain.model.master&#45;&gt;com.example.sms.domain.type.money -->
<g id="edge3" class="edge">
<title>com.example.sms.domain.model.master&#45;&gt;com.example.sms.domain.type.money</title>
<path fill="none" stroke="black" d="M387.35,-159.41C415,-155.93 453.49,-147.31 480,-126 492.11,-116.26 500.68,-101.32 506.41,-87.98"/>
<polygon fill="black" stroke="black" points="509.65,-89.3 510.02,-78.71 503.13,-86.76 509.65,-89.3"/>
</g>
</g>
</svg>
