<?xml version="1.0" encoding="UTF-8" standalone="no"?>
<!DOCTYPE svg PUBLIC "-//W3C//DTD SVG 1.1//EN"
 "http://www.w3.org/Graphics/SVG/1.1/DTD/svg11.dtd">
<!-- Generated by graphviz version 12.2.0 (20241103.1931)
 -->
<!-- Title: パッケージ関連図 Pages: 1 -->
<svg width="975pt" height="301pt"
 viewBox="0.00 0.00 974.88 301.38" xmlns="http://www.w3.org/2000/svg" xmlns:xlink="http://www.w3.org/1999/xlink">
<g id="graph0" class="graph" transform="scale(1 1) rotate(0) translate(4 297.38)">
<title>パッケージ関連図</title>
<polygon fill="white" stroke="none" points="-4,4 -4,-297.38 970.88,-297.38 970.88,4 -4,4"/>
<text text-anchor="middle" x="483.44" y="-4.95" font-family="Times New Roman,serif" font-size="14.00">パッケージ関連図</text>
<g id="clust1" class="cluster">
<title>cluster_com.example.sms.domain.model.common</title>
<polygon fill="lemonchiffon" stroke="#eedd82" stroke-width="2" points="724.75,-89 724.75,-182.5 872.75,-182.5 872.75,-89 724.75,-89"/>
<text text-anchor="middle" x="798.75" y="-165.2" font-family="Times New Roman,serif" font-size="14.00">共通</text>
<text text-anchor="middle" x="798.75" y="-150.95" font-family="Times New Roman,serif" font-size="14.00">model.common</text>
</g>
<g id="clust2" class="cluster">
<title>cluster_com.example.sms.domain.model.system</title>
<polygon fill="lemonchiffon" stroke="#eedd82" stroke-width="2" points="215.75,-89 215.75,-285.38 547.75,-285.38 547.75,-89 215.75,-89"/>
<text text-anchor="middle" x="381.75" y="-268.07" font-family="Times New Roman,serif" font-size="14.00">システム</text>
<text text-anchor="middle" x="381.75" y="-253.82" font-family="Times New Roman,serif" font-size="14.00">model.system</text>
</g>
<g id="clust3" class="cluster">
<title>cluster_com.example.sms.domain.model.master</title>
<polygon fill="lemonchiffon" stroke="#eedd82" stroke-width="2" points="555.75,-89 555.75,-285.38 716.75,-285.38 716.75,-89 555.75,-89"/>
<text text-anchor="middle" x="636.25" y="-268.07" font-family="Times New Roman,serif" font-size="14.00">マスタ</text>
<text text-anchor="middle" x="636.25" y="-253.82" font-family="Times New Roman,serif" font-size="14.00">model.master</text>
</g>
<!-- summary -->
<g id="node1" class="node">
<title>summary</title>
<polygon fill="none" stroke="black" points="199.75,-248 15.75,-248 15.75,-190.5 205.75,-190.5 205.75,-242 199.75,-248"/>
<polyline fill="none" stroke="black" points="199.75,-248 199.75,-242"/>
<polyline fill="none" stroke="black" points="205.75,-242 199.75,-242"/>
<text text-anchor="start" x="23.75" y="-230.7" font-family="Times New Roman,serif" font-size="14.00">root: com.example.sms.domain</text>
<text text-anchor="start" x="23.75" y="-214.2" font-family="Times New Roman,serif" font-size="14.00">パッケージ数: 16</text>
<text text-anchor="start" x="23.75" y="-197.7" font-family="Times New Roman,serif" font-size="14.00">関連数: 15</text>
</g>
<!-- com.example.sms.domain.model.system.user -->
<g id="node2" class="node">
<title>com.example.sms.domain.model.system.user</title>
<g id="a_node2"><a xlink:href="./domain.html#com.example.sms.domain.model.system.user" xlink:title="ユーザー\nuser">
<polygon fill="#eedd82" stroke="black" points="539.25,-135.75 454.25,-135.75 454.25,-97 539.25,-97 539.25,-135.75"/>
<text text-anchor="middle" x="496.75" y="-118.45" font-family="Times New Roman,serif" font-size="14.00">ユーザー</text>
<text text-anchor="middle" x="496.75" y="-104.2" font-family="Times New Roman,serif" font-size="14.00">user</text>
</a>
</g>
</g>
<!-- com.example.sms.domain.type.user -->
<g id="node3" class="node">
<title>com.example.sms.domain.type.user</title>
<g id="a_node3"><a xlink:href="./domain.html#com.example.sms.domain.type.user" xlink:title="ユーザー\ntype.user">
<polygon fill="#eedd82" stroke="black" points="500.25,-61 415.25,-61 415.25,-22.25 500.25,-22.25 500.25,-61"/>
<text text-anchor="middle" x="457.75" y="-43.7" font-family="Times New Roman,serif" font-size="14.00">ユーザー</text>
<text text-anchor="middle" x="457.75" y="-29.45" font-family="Times New Roman,serif" font-size="14.00">type.user</text>
</a>
</g>
</g>
<!-- com.example.sms.domain.model.system.user&#45;&gt;com.example.sms.domain.type.user -->
<g id="edge1" class="edge">
<title>com.example.sms.domain.model.system.user&#45;&gt;com.example.sms.domain.type.user</title>
<path fill="none" stroke="black" d="M486.71,-96.64C482.57,-88.92 477.68,-79.8 473.11,-71.27"/>
<polygon fill="black" stroke="black" points="476.28,-69.79 468.47,-62.63 470.11,-73.1 476.28,-69.79"/>
</g>
<!-- com.example.sms.domain.model.master.product -->
<g id="node4" class="node">
<title>com.example.sms.domain.model.master.product</title>
<g id="a_node4"><a xlink:href="./domain.html#com.example.sms.domain.model.master.product" xlink:title="商品\nproduct">
<polygon fill="#eedd82" stroke="black" points="708.38,-238.62 651.12,-238.62 651.12,-199.88 708.38,-199.88 708.38,-238.62"/>
<text text-anchor="middle" x="679.75" y="-221.32" font-family="Times New Roman,serif" font-size="14.00">商品</text>
<text text-anchor="middle" x="679.75" y="-207.07" font-family="Times New Roman,serif" font-size="14.00">product</text>
</a>
</g>
</g>
<!-- com.example.sms.domain.model.common.money -->
<g id="node5" class="node">
<title>com.example.sms.domain.model.common.money</title>
<g id="a_node5"><a xlink:href="./domain.html#com.example.sms.domain.model.common.money" xlink:title="通貨\nmoney">
<polygon fill="#eedd82" stroke="black" points="786.75,-135.75 732.75,-135.75 732.75,-97 786.75,-97 786.75,-135.75"/>
<text text-anchor="middle" x="759.75" y="-118.45" font-family="Times New Roman,serif" font-size="14.00">通貨</text>
<text text-anchor="middle" x="759.75" y="-104.2" font-family="Times New Roman,serif" font-size="14.00">money</text>
</a>
</g>
</g>
<!-- com.example.sms.domain.model.master.product&#45;&gt;com.example.sms.domain.model.common.money -->
<g id="edge2" class="edge">
<title>com.example.sms.domain.model.master.product&#45;&gt;com.example.sms.domain.model.common.money</title>
<path fill="none" stroke="black" d="M703.94,-199.39C709.79,-194.24 715.78,-188.44 720.75,-182.5 730.04,-171.4 738.53,-157.84 745.21,-145.97"/>
<polygon fill="black" stroke="black" points="748.16,-147.87 749.86,-137.41 742.01,-144.52 748.16,-147.87"/>
</g>
<!-- com.example.sms.domain.type.product -->
<g id="node7" class="node">
<title>com.example.sms.domain.type.product</title>
<g id="a_node7"><a xlink:href="./domain.html#com.example.sms.domain.type.product" xlink:title="商品\ntype.product">
<polygon fill="#eedd82" stroke="black" points="966.88,-135.75 882.62,-135.75 882.62,-97 966.88,-97 966.88,-135.75"/>
<text text-anchor="middle" x="924.75" y="-118.45" font-family="Times New Roman,serif" font-size="14.00">商品</text>
<text text-anchor="middle" x="924.75" y="-104.2" font-family="Times New Roman,serif" font-size="14.00">type.product</text>
</a>
</g>
</g>
<!-- com.example.sms.domain.model.master.product&#45;&gt;com.example.sms.domain.type.product -->
<g id="edge4" class="edge">
<title>com.example.sms.domain.model.master.product&#45;&gt;com.example.sms.domain.type.product</title>
<path fill="none" stroke="black" d="M708.58,-215.64C756.27,-210.91 849.1,-199.74 876.75,-182.5 890.9,-173.68 902.25,-159.03 910.35,-145.86"/>
<polygon fill="black" stroke="black" points="913.21,-147.92 915.16,-137.5 907.14,-144.43 913.21,-147.92"/>
</g>
<!-- com.example.sms.domain.model.common.quantity -->
<g id="node10" class="node">
<title>com.example.sms.domain.model.common.quantity</title>
<g id="a_node10"><a xlink:href="./domain.html#com.example.sms.domain.model.common.quantity" xlink:title="数量\nquantity">
<polygon fill="#eedd82" stroke="black" points="864.88,-135.75 804.62,-135.75 804.62,-97 864.88,-97 864.88,-135.75"/>
<text text-anchor="middle" x="834.75" y="-118.45" font-family="Times New Roman,serif" font-size="14.00">数量</text>
<text text-anchor="middle" x="834.75" y="-104.2" font-family="Times New Roman,serif" font-size="14.00">quantity</text>
</a>
</g>
</g>
<!-- com.example.sms.domain.model.master.product&#45;&gt;com.example.sms.domain.model.common.quantity -->
<g id="edge6" class="edge">
<title>com.example.sms.domain.model.master.product&#45;&gt;com.example.sms.domain.model.common.quantity</title>
<path fill="none" stroke="black" d="M708.65,-215.21C733.9,-211.28 770.38,-202.4 795.75,-182.5 807.66,-173.16 816.73,-159.09 823.12,-146.42"/>
<polygon fill="black" stroke="black" points="826.17,-148.15 827.21,-137.61 819.82,-145.2 826.17,-148.15"/>
</g>
<!-- com.example.sms.domain.type.money -->
<g id="node11" class="node">
<title>com.example.sms.domain.type.money</title>
<g id="a_node11"><a xlink:href="./domain.html#com.example.sms.domain.type.money" xlink:title="数量\ntype.money">
<polygon fill="#eedd82" stroke="black" points="786,-61 705.5,-61 705.5,-22.25 786,-22.25 786,-61"/>
<text text-anchor="middle" x="745.75" y="-43.7" font-family="Times New Roman,serif" font-size="14.00">数量</text>
<text text-anchor="middle" x="745.75" y="-29.45" font-family="Times New Roman,serif" font-size="14.00">type.money</text>
</a>
</g>
</g>
<!-- com.example.sms.domain.model.common.money&#45;&gt;com.example.sms.domain.type.money -->
<g id="edge7" class="edge">
<title>com.example.sms.domain.model.common.money&#45;&gt;com.example.sms.domain.type.money</title>
<path fill="none" stroke="black" d="M756.14,-96.64C754.72,-89.26 753.06,-80.6 751.48,-72.4"/>
<polygon fill="black" stroke="black" points="754.96,-71.94 749.63,-62.78 748.08,-73.26 754.96,-71.94"/>
</g>
<!-- com.example.sms.domain.model.master.employee -->
<g id="node6" class="node">
<title>com.example.sms.domain.model.master.employee</title>
<g id="a_node6"><a xlink:href="./domain.html#com.example.sms.domain.model.master.employee" xlink:title="社員\nemployee">
<polygon fill="#eedd82" stroke="black" points="633.38,-238.62 564.12,-238.62 564.12,-199.88 633.38,-199.88 633.38,-238.62"/>
<text text-anchor="middle" x="598.75" y="-221.32" font-family="Times New Roman,serif" font-size="14.00">社員</text>
<text text-anchor="middle" x="598.75" y="-207.07" font-family="Times New Roman,serif" font-size="14.00">employee</text>
</a>
</g>
</g>
<!-- com.example.sms.domain.model.master.employee&#45;&gt;com.example.sms.domain.model.system.user -->
<g id="edge3" class="edge">
<title>com.example.sms.domain.model.master.employee&#45;&gt;com.example.sms.domain.model.system.user</title>
<path fill="none" stroke="black" d="M572.06,-199.55C565.2,-194.32 557.99,-188.43 551.75,-182.5 539.61,-170.96 527.46,-156.9 517.67,-144.8"/>
<polygon fill="black" stroke="black" points="520.59,-142.85 511.63,-137.19 515.11,-147.2 520.59,-142.85"/>
</g>
<!-- com.example.sms.domain.model.master.department -->
<g id="node13" class="node">
<title>com.example.sms.domain.model.master.department</title>
<g id="a_node13"><a xlink:href="./domain.html#com.example.sms.domain.model.master.department" xlink:title="部門\ndepartment">
<polygon fill="#eedd82" stroke="black" points="641.5,-135.75 564,-135.75 564,-97 641.5,-97 641.5,-135.75"/>
<text text-anchor="middle" x="602.75" y="-118.45" font-family="Times New Roman,serif" font-size="14.00">部門</text>
<text text-anchor="middle" x="602.75" y="-104.2" font-family="Times New Roman,serif" font-size="14.00">department</text>
</a>
</g>
</g>
<!-- com.example.sms.domain.model.master.employee&#45;&gt;com.example.sms.domain.model.master.department -->
<g id="edge14" class="edge">
<title>com.example.sms.domain.model.master.employee&#45;&gt;com.example.sms.domain.model.master.department</title>
<path fill="none" stroke="red" stroke-width="2" d="M599.92,-188.71C600.44,-175.7 601.04,-160.42 601.56,-147.35"/>
<polygon fill="red" stroke="red" stroke-width="2" points="596.5,-186.59 599.6,-196.72 603.5,-186.87 596.5,-186.59"/>
<polygon fill="red" stroke="red" stroke-width="2" points="604.99,-149.26 601.89,-139.13 597.99,-148.98 604.99,-149.26"/>
</g>
<!-- com.example.sms.domain.model.system.audit -->
<g id="node8" class="node">
<title>com.example.sms.domain.model.system.audit</title>
<g id="a_node8"><a xlink:href="./domain.html#com.example.sms.domain.model.system.audit" xlink:title="監査\naudit">
<polygon fill="#eedd82" stroke="black" points="467.75,-238.62 413.75,-238.62 413.75,-199.88 467.75,-199.88 467.75,-238.62"/>
<text text-anchor="middle" x="440.75" y="-221.32" font-family="Times New Roman,serif" font-size="14.00">監査</text>
<text text-anchor="middle" x="440.75" y="-207.07" font-family="Times New Roman,serif" font-size="14.00">audit</text>
</a>
</g>
</g>
<!-- com.example.sms.domain.model.system.audit&#45;&gt;com.example.sms.domain.model.system.user -->
<g id="edge13" class="edge">
<title>com.example.sms.domain.model.system.audit&#45;&gt;com.example.sms.domain.model.system.user</title>
<path fill="none" stroke="black" d="M451.02,-199.75C459.41,-184.63 471.42,-163 481.02,-145.7"/>
<polygon fill="black" stroke="black" points="483.83,-147.87 485.62,-137.42 477.71,-144.47 483.83,-147.87"/>
</g>
<!-- com.example.sms.domain.type.audit -->
<g id="node9" class="node">
<title>com.example.sms.domain.type.audit</title>
<g id="a_node9"><a xlink:href="./domain.html#com.example.sms.domain.type.audit" xlink:title="監査\ntype.audit">
<polygon fill="#eedd82" stroke="black" points="207.75,-135.75 137.75,-135.75 137.75,-97 207.75,-97 207.75,-135.75"/>
<text text-anchor="middle" x="172.75" y="-118.45" font-family="Times New Roman,serif" font-size="14.00">監査</text>
<text text-anchor="middle" x="172.75" y="-104.2" font-family="Times New Roman,serif" font-size="14.00">type.audit</text>
</a>
</g>
</g>
<!-- com.example.sms.domain.model.system.audit&#45;&gt;com.example.sms.domain.type.audit -->
<g id="edge5" class="edge">
<title>com.example.sms.domain.model.system.audit&#45;&gt;com.example.sms.domain.type.audit</title>
<path fill="none" stroke="black" d="M420.74,-199.43C415.85,-195.83 410.39,-192.55 404.75,-190.5 384.58,-183.16 230.2,-193.47 211.75,-182.5 198.25,-174.48 188.87,-159.81 182.7,-146.43"/>
<polygon fill="black" stroke="black" points="186.07,-145.41 179,-137.52 179.6,-148.1 186.07,-145.41"/>
</g>
<!-- com.example.sms.domain.type.quantity -->
<g id="node12" class="node">
<title>com.example.sms.domain.type.quantity</title>
<g id="a_node12"><a xlink:href="./domain.html#com.example.sms.domain.type.quantity" xlink:title="数量\ntype.quantity">
<polygon fill="#eedd82" stroke="black" points="891.38,-61 804.12,-61 804.12,-22.25 891.38,-22.25 891.38,-61"/>
<text text-anchor="middle" x="847.75" y="-43.7" font-family="Times New Roman,serif" font-size="14.00">数量</text>
<text text-anchor="middle" x="847.75" y="-29.45" font-family="Times New Roman,serif" font-size="14.00">type.quantity</text>
</a>
</g>
</g>
<!-- com.example.sms.domain.model.common.quantity&#45;&gt;com.example.sms.domain.type.quantity -->
<g id="edge8" class="edge">
<title>com.example.sms.domain.model.common.quantity&#45;&gt;com.example.sms.domain.type.quantity</title>
<path fill="none" stroke="black" d="M838.1,-96.64C839.42,-89.26 840.96,-80.6 842.43,-72.4"/>
<polygon fill="black" stroke="black" points="845.83,-73.25 844.15,-62.79 838.94,-72.01 845.83,-73.25"/>
</g>
<!-- com.example.sms.domain.type.department -->
<g id="node14" class="node">
<title>com.example.sms.domain.type.department</title>
<g id="a_node14"><a xlink:href="./domain.html#com.example.sms.domain.type.department" xlink:title="部門\ntype.department">
<polygon fill="#eedd82" stroke="black" points="655,-61 550.5,-61 550.5,-22.25 655,-22.25 655,-61"/>
<text text-anchor="middle" x="602.75" y="-43.7" font-family="Times New Roman,serif" font-size="14.00">部門</text>
<text text-anchor="middle" x="602.75" y="-29.45" font-family="Times New Roman,serif" font-size="14.00">type.department</text>
</a>
</g>
</g>
<!-- com.example.sms.domain.model.master.department&#45;&gt;com.example.sms.domain.type.department -->
<g id="edge9" class="edge">
<title>com.example.sms.domain.model.master.department&#45;&gt;com.example.sms.domain.type.department</title>
<path fill="none" stroke="black" d="M602.75,-96.64C602.75,-89.34 602.75,-80.79 602.75,-72.68"/>
<polygon fill="black" stroke="black" points="606.25,-72.81 602.75,-62.81 599.25,-72.81 606.25,-72.81"/>
</g>
<!-- com.example.sms.domain.model.system.download -->
<g id="node15" class="node">
<title>com.example.sms.domain.model.system.download</title>
<g id="a_node15"><a xlink:href="./domain.html#com.example.sms.domain.model.system.download" xlink:title="データダウンロード\ndownload">
<polygon fill="#eedd82" stroke="black" points="395.38,-238.62 224.12,-238.62 224.12,-199.88 395.38,-199.88 395.38,-238.62"/>
<text text-anchor="middle" x="309.75" y="-221.32" font-family="Times New Roman,serif" font-size="14.00">データダウンロード</text>
<text text-anchor="middle" x="309.75" y="-207.07" font-family="Times New Roman,serif" font-size="14.00">download</text>
</a>
</g>
</g>
<!-- com.example.sms.domain.type.download -->
<g id="node16" class="node">
<title>com.example.sms.domain.type.download</title>
<g id="a_node16"><a xlink:href="./domain.html#com.example.sms.domain.type.download" xlink:title="ダウンロード\ntype.download">
<polygon fill="#eedd82" stroke="black" points="119.5,-135.75 0,-135.75 0,-97 119.5,-97 119.5,-135.75"/>
<text text-anchor="middle" x="59.75" y="-118.45" font-family="Times New Roman,serif" font-size="14.00">ダウンロード</text>
<text text-anchor="middle" x="59.75" y="-104.2" font-family="Times New Roman,serif" font-size="14.00">type.download</text>
</a>
</g>
</g>
<!-- com.example.sms.domain.model.system.download&#45;&gt;com.example.sms.domain.type.download -->
<g id="edge10" class="edge">
<title>com.example.sms.domain.model.system.download&#45;&gt;com.example.sms.domain.type.download</title>
<path fill="none" stroke="black" d="M251.9,-199.44C239.73,-196.03 226.9,-192.82 214.75,-190.5 177.04,-183.31 163.73,-198.32 128.75,-182.5 110.16,-174.09 93.4,-158.58 81.06,-144.8"/>
<polygon fill="black" stroke="black" points="83.76,-142.56 74.6,-137.23 78.43,-147.11 83.76,-142.56"/>
</g>
<!-- com.example.sms.domain.model.system.auth -->
<g id="node17" class="node">
<title>com.example.sms.domain.model.system.auth</title>
<g id="a_node17"><a xlink:href="./domain.html#com.example.sms.domain.model.system.auth" xlink:title="認証\nauth">
<polygon fill="#eedd82" stroke="black" points="539.75,-238.62 485.75,-238.62 485.75,-199.88 539.75,-199.88 539.75,-238.62"/>
<text text-anchor="middle" x="512.75" y="-221.32" font-family="Times New Roman,serif" font-size="14.00">認証</text>
<text text-anchor="middle" x="512.75" y="-207.07" font-family="Times New Roman,serif" font-size="14.00">auth</text>
</a>
</g>
</g>
<!-- com.example.sms.domain.model.system.auth&#45;&gt;com.example.sms.domain.model.system.user -->
<g id="edge12" class="edge">
<title>com.example.sms.domain.model.system.auth&#45;&gt;com.example.sms.domain.model.system.user</title>
<path fill="none" stroke="black" d="M509.82,-199.75C507.48,-185.05 504.18,-164.21 501.48,-147.17"/>
<polygon fill="black" stroke="black" points="504.98,-146.92 499.96,-137.6 498.07,-148.02 504.98,-146.92"/>
</g>
<!-- com.example.sms.domain.model.system.auth&#45;&gt;com.example.sms.domain.type.user -->
<g id="edge11" class="edge">
<title>com.example.sms.domain.model.system.auth&#45;&gt;com.example.sms.domain.type.user</title>
<path fill="none" stroke="black" d="M491.21,-199.43C486.65,-196.1 481.71,-192.93 476.75,-190.5 463.97,-184.25 454.46,-193.75 445.75,-182.5 421.29,-150.93 433.06,-102.46 444.7,-71.66"/>
<polygon fill="black" stroke="black" points="447.87,-73.17 448.35,-62.59 441.38,-70.56 447.87,-73.17"/>
</g>
</g>
</svg>
