<?xml version="1.0" encoding="UTF-8" standalone="no"?>
<!DOCTYPE svg PUBLIC "-//W3C//DTD SVG 1.1//EN"
 "http://www.w3.org/Graphics/SVG/1.1/DTD/svg11.dtd">
<!-- Generated by graphviz version 12.2.0 (20241103.1931)
 -->
<!-- Title: パッケージ関連図 Pages: 1 -->
<svg width="352pt" height="163pt"
 viewBox="0.00 0.00 352.38 162.50" xmlns="http://www.w3.org/2000/svg" xmlns:xlink="http://www.w3.org/1999/xlink">
<g id="graph0" class="graph" transform="scale(1 1) rotate(0) translate(4 158.5)">
<title>パッケージ関連図</title>
<polygon fill="white" stroke="none" points="-4,4 -4,-158.5 348.38,-158.5 348.38,4 -4,4"/>
<text text-anchor="middle" x="172.19" y="-4.95" font-family="Times New Roman,serif" font-size="14.00">パッケージ関連図</text>
<!-- summary -->
<g id="node1" class="node">
<title>summary</title>
<polygon fill="none" stroke="black" points="184,-154.5 0,-154.5 0,-97 190,-97 190,-148.5 184,-154.5"/>
<polyline fill="none" stroke="black" points="184,-154.5 184,-148.5"/>
<polyline fill="none" stroke="black" points="190,-148.5 184,-148.5"/>
<text text-anchor="start" x="8" y="-137.2" font-family="Times New Roman,serif" font-size="14.00">root: com.example.sms.domain</text>
<text text-anchor="start" x="8" y="-120.7" font-family="Times New Roman,serif" font-size="14.00">パッケージ数: 2</text>
<text text-anchor="start" x="8" y="-104.2" font-family="Times New Roman,serif" font-size="14.00">関連数: 1</text>
</g>
<!-- com.example.sms.domain.model -->
<g id="node2" class="node">
<title>com.example.sms.domain.model</title>
<g id="a_node2"><a xlink:href="./domain.html#com.example.sms.domain.model" xlink:title="ドメインモデル\nmodel">
<polygon fill="#eedd82" stroke="black" points="344.38,-145.12 207.62,-145.12 207.62,-106.38 344.38,-106.38 344.38,-145.12"/>
<text text-anchor="middle" x="276" y="-127.83" font-family="Times New Roman,serif" font-size="14.00">ドメインモデル</text>
<text text-anchor="middle" x="276" y="-113.58" font-family="Times New Roman,serif" font-size="14.00">model</text>
</a>
</g>
</g>
<!-- com.example.sms.domain.type -->
<g id="node3" class="node">
<title>com.example.sms.domain.type</title>
<g id="a_node3"><a xlink:href="./domain.html#com.example.sms.domain.type" xlink:title="区分\ntype">
<polygon fill="#eedd82" stroke="black" points="303,-61 249,-61 249,-22.25 303,-22.25 303,-61"/>
<text text-anchor="middle" x="276" y="-43.7" font-family="Times New Roman,serif" font-size="14.00">区分</text>
<text text-anchor="middle" x="276" y="-29.45" font-family="Times New Roman,serif" font-size="14.00">type</text>
</a>
</g>
</g>
<!-- com.example.sms.domain.model&#45;&gt;com.example.sms.domain.type -->
<g id="edge1" class="edge">
<title>com.example.sms.domain.model&#45;&gt;com.example.sms.domain.type</title>
<path fill="none" stroke="black" d="M276,-106.11C276,-96.31 276,-84.05 276,-72.93"/>
<polygon fill="black" stroke="black" points="279.5,-72.98 276,-62.98 272.5,-72.98 279.5,-72.98"/>
</g>
</g>
</svg>
