<?xml version="1.0" encoding="UTF-8" standalone="no"?>
<!DOCTYPE svg PUBLIC "-//W3C//DTD SVG 1.1//EN"
 "http://www.w3.org/Graphics/SVG/1.1/DTD/svg11.dtd">
<!-- Generated by graphviz version 12.2.0 (20241103.1931)
 -->
<!-- Title: パッケージ関連図 Pages: 1 -->
<svg width="719pt" height="317pt"
 viewBox="0.00 0.00 718.62 317.38" xmlns="http://www.w3.org/2000/svg" xmlns:xlink="http://www.w3.org/1999/xlink">
<g id="graph0" class="graph" transform="scale(1 1) rotate(0) translate(4 313.38)">
<title>パッケージ関連図</title>
<polygon fill="white" stroke="none" points="-4,4 -4,-313.38 714.62,-313.38 714.62,4 -4,4"/>
<text text-anchor="middle" x="355.31" y="-4.95" font-family="Times New Roman,serif" font-size="14.00">パッケージ関連図</text>
<g id="clust1" class="cluster">
<title>cluster_com.example.sms.domain.model.system</title>
<polygon fill="lemonchiffon" stroke="#eedd82" stroke-width="2" points="8,-30.25 8,-198.5 340,-198.5 340,-30.25 8,-30.25"/>
<text text-anchor="middle" x="174" y="-181.2" font-family="Times New Roman,serif" font-size="14.00">システム</text>
<text text-anchor="middle" x="174" y="-166.95" font-family="Times New Roman,serif" font-size="14.00">model.system</text>
</g>
<g id="clust2" class="cluster">
<title>cluster_com.example.sms.domain.model.master</title>
<polygon fill="lemonchiffon" stroke="#eedd82" stroke-width="2" points="348,-105 348,-301.38 517,-301.38 517,-105 348,-105"/>
<text text-anchor="middle" x="432.5" y="-284.07" font-family="Times New Roman,serif" font-size="14.00">マスタ</text>
<text text-anchor="middle" x="432.5" y="-269.82" font-family="Times New Roman,serif" font-size="14.00">model.master</text>
</g>
<!-- summary -->
<g id="node1" class="node">
<title>summary</title>
<polygon fill="none" stroke="black" points="332,-264 148,-264 148,-206.5 338,-206.5 338,-258 332,-264"/>
<polyline fill="none" stroke="black" points="332,-264 332,-258"/>
<polyline fill="none" stroke="black" points="338,-258 332,-258"/>
<text text-anchor="start" x="156" y="-246.7" font-family="Times New Roman,serif" font-size="14.00">root: com.example.sms.domain</text>
<text text-anchor="start" x="156" y="-230.2" font-family="Times New Roman,serif" font-size="14.00">パッケージ数: 9</text>
<text text-anchor="start" x="156" y="-213.7" font-family="Times New Roman,serif" font-size="14.00">関連数: 7</text>
</g>
<!-- com.example.sms.domain.model.master.employee -->
<g id="node2" class="node">
<title>com.example.sms.domain.model.master.employee</title>
<g id="a_node2"><a xlink:href="./domain.html#com.example.sms.domain.model.master.employee" xlink:title="社員\nemployee">
<polygon fill="#eedd82" stroke="black" points="427.62,-151.75 358.38,-151.75 358.38,-113 427.62,-113 427.62,-151.75"/>
<text text-anchor="middle" x="393" y="-134.45" font-family="Times New Roman,serif" font-size="14.00">社員</text>
<text text-anchor="middle" x="393" y="-120.2" font-family="Times New Roman,serif" font-size="14.00">employee</text>
</a>
</g>
</g>
<!-- com.example.sms.domain.model.system.user -->
<g id="node3" class="node">
<title>com.example.sms.domain.model.system.user</title>
<g id="a_node3"><a xlink:href="./domain.html#com.example.sms.domain.model.system.user" xlink:title="ユーザー\nuser">
<polygon fill="#eedd82" stroke="black" points="157.5,-77 72.5,-77 72.5,-38.25 157.5,-38.25 157.5,-77"/>
<text text-anchor="middle" x="115" y="-59.7" font-family="Times New Roman,serif" font-size="14.00">ユーザー</text>
<text text-anchor="middle" x="115" y="-45.45" font-family="Times New Roman,serif" font-size="14.00">user</text>
</a>
</g>
</g>
<!-- com.example.sms.domain.model.master.employee&#45;&gt;com.example.sms.domain.model.system.user -->
<g id="edge1" class="edge">
<title>com.example.sms.domain.model.master.employee&#45;&gt;com.example.sms.domain.model.system.user</title>
<path fill="none" stroke="black" d="M361.2,-112.53C355.6,-109.72 349.72,-107.07 344,-105 286.03,-84.05 216.18,-71.63 168.99,-65"/>
<polygon fill="black" stroke="black" points="169.68,-61.56 159.3,-63.68 168.74,-68.49 169.68,-61.56"/>
</g>
<!-- com.example.sms.domain.model.master.product -->
<g id="node4" class="node">
<title>com.example.sms.domain.model.master.product</title>
<g id="a_node4"><a xlink:href="./domain.html#com.example.sms.domain.model.master.product" xlink:title="商品\nproduct">
<polygon fill="#eedd82" stroke="black" points="508.62,-254.62 451.38,-254.62 451.38,-215.88 508.62,-215.88 508.62,-254.62"/>
<text text-anchor="middle" x="480" y="-237.32" font-family="Times New Roman,serif" font-size="14.00">商品</text>
<text text-anchor="middle" x="480" y="-223.07" font-family="Times New Roman,serif" font-size="14.00">product</text>
</a>
</g>
</g>
<!-- com.example.sms.domain.type.money -->
<g id="node5" class="node">
<title>com.example.sms.domain.type.money</title>
<g id="a_node5"><a xlink:href="./domain.html#com.example.sms.domain.type.money" xlink:title="通貨\ntype.money">
<polygon fill="#eedd82" stroke="black" points="605.25,-151.75 524.75,-151.75 524.75,-113 605.25,-113 605.25,-151.75"/>
<text text-anchor="middle" x="565" y="-134.45" font-family="Times New Roman,serif" font-size="14.00">通貨</text>
<text text-anchor="middle" x="565" y="-120.2" font-family="Times New Roman,serif" font-size="14.00">type.money</text>
</a>
</g>
</g>
<!-- com.example.sms.domain.model.master.product&#45;&gt;com.example.sms.domain.type.money -->
<g id="edge2" class="edge">
<title>com.example.sms.domain.model.master.product&#45;&gt;com.example.sms.domain.type.money</title>
<path fill="none" stroke="black" d="M503.54,-215.57C509.53,-210.34 515.75,-204.44 521,-198.5 531.03,-187.16 540.63,-173.42 548.29,-161.49"/>
<polygon fill="black" stroke="black" points="551.09,-163.6 553.43,-153.26 545.16,-159.89 551.09,-163.6"/>
</g>
<!-- com.example.sms.domain.type.quantity -->
<g id="node6" class="node">
<title>com.example.sms.domain.type.quantity</title>
<g id="a_node6"><a xlink:href="./domain.html#com.example.sms.domain.type.quantity" xlink:title="数量\ntype.quantity">
<polygon fill="#eedd82" stroke="black" points="710.62,-151.75 623.38,-151.75 623.38,-113 710.62,-113 710.62,-151.75"/>
<text text-anchor="middle" x="667" y="-134.45" font-family="Times New Roman,serif" font-size="14.00">数量</text>
<text text-anchor="middle" x="667" y="-120.2" font-family="Times New Roman,serif" font-size="14.00">type.quantity</text>
</a>
</g>
</g>
<!-- com.example.sms.domain.model.master.product&#45;&gt;com.example.sms.domain.type.quantity -->
<g id="edge3" class="edge">
<title>com.example.sms.domain.model.master.product&#45;&gt;com.example.sms.domain.type.quantity</title>
<path fill="none" stroke="black" d="M509.02,-231.73C537.67,-228.1 581.76,-219.36 614,-198.5 628.44,-189.16 640.82,-174.61 649.98,-161.62"/>
<polygon fill="black" stroke="black" points="652.85,-163.63 655.49,-153.37 647.03,-159.74 652.85,-163.63"/>
</g>
<!-- com.example.sms.domain.model.system.auth -->
<g id="node7" class="node">
<title>com.example.sms.domain.model.system.auth</title>
<g id="a_node7"><a xlink:href="./domain.html#com.example.sms.domain.model.system.auth" xlink:title="認証\nauth">
<polygon fill="#eedd82" stroke="black" points="70,-151.75 16,-151.75 16,-113 70,-113 70,-151.75"/>
<text text-anchor="middle" x="43" y="-134.45" font-family="Times New Roman,serif" font-size="14.00">認証</text>
<text text-anchor="middle" x="43" y="-120.2" font-family="Times New Roman,serif" font-size="14.00">auth</text>
</a>
</g>
</g>
<!-- com.example.sms.domain.model.system.auth&#45;&gt;com.example.sms.domain.model.system.user -->
<g id="edge4" class="edge">
<title>com.example.sms.domain.model.system.auth&#45;&gt;com.example.sms.domain.model.system.user</title>
<path fill="none" stroke="black" d="M61.54,-112.64C69.77,-104.32 79.61,-94.38 88.59,-85.31"/>
<polygon fill="black" stroke="black" points="90.91,-87.94 95.46,-78.37 85.93,-83.02 90.91,-87.94"/>
</g>
<!-- com.example.sms.domain.model.system.audit -->
<g id="node8" class="node">
<title>com.example.sms.domain.model.system.audit</title>
<g id="a_node8"><a xlink:href="./domain.html#com.example.sms.domain.model.system.audit" xlink:title="監査\naudit">
<polygon fill="#eedd82" stroke="black" points="142,-151.75 88,-151.75 88,-113 142,-113 142,-151.75"/>
<text text-anchor="middle" x="115" y="-134.45" font-family="Times New Roman,serif" font-size="14.00">監査</text>
<text text-anchor="middle" x="115" y="-120.2" font-family="Times New Roman,serif" font-size="14.00">audit</text>
</a>
</g>
</g>
<!-- com.example.sms.domain.model.system.audit&#45;&gt;com.example.sms.domain.model.system.user -->
<g id="edge5" class="edge">
<title>com.example.sms.domain.model.system.audit&#45;&gt;com.example.sms.domain.model.system.user</title>
<path fill="none" stroke="black" d="M115,-112.64C115,-105.34 115,-96.79 115,-88.68"/>
<polygon fill="black" stroke="black" points="118.5,-88.81 115,-78.81 111.5,-88.81 118.5,-88.81"/>
</g>
<!-- com.example.sms.domain.model.master.department -->
<g id="node9" class="node">
<title>com.example.sms.domain.model.master.department</title>
<g id="a_node9"><a xlink:href="./domain.html#com.example.sms.domain.model.master.department" xlink:title="部門\ndepartment">
<polygon fill="#eedd82" stroke="black" points="433.75,-254.62 356.25,-254.62 356.25,-215.88 433.75,-215.88 433.75,-254.62"/>
<text text-anchor="middle" x="395" y="-237.32" font-family="Times New Roman,serif" font-size="14.00">部門</text>
<text text-anchor="middle" x="395" y="-223.07" font-family="Times New Roman,serif" font-size="14.00">department</text>
</a>
</g>
</g>
<!-- com.example.sms.domain.model.master.department&#45;&gt;com.example.sms.domain.model.master.employee -->
<g id="edge6" class="edge">
<title>com.example.sms.domain.model.master.department&#45;&gt;com.example.sms.domain.model.master.employee</title>
<path fill="none" stroke="red" stroke-width="2" d="M394.41,-204.71C394.16,-191.7 393.85,-176.42 393.59,-163.35"/>
<polygon fill="red" stroke="red" stroke-width="2" points="390.88,-202.79 394.57,-212.72 397.87,-202.65 390.88,-202.79"/>
<polygon fill="red" stroke="red" stroke-width="2" points="397.13,-165.06 393.43,-155.13 390.13,-165.2 397.13,-165.06"/>
</g>
<!-- com.example.sms.domain.model.system.download -->
<g id="node10" class="node">
<title>com.example.sms.domain.model.system.download</title>
<g id="a_node10"><a xlink:href="./domain.html#com.example.sms.domain.model.system.download" xlink:title="データダウンロード\ndownload">
<polygon fill="#eedd82" stroke="black" points="331.62,-151.75 160.38,-151.75 160.38,-113 331.62,-113 331.62,-151.75"/>
<text text-anchor="middle" x="246" y="-134.45" font-family="Times New Roman,serif" font-size="14.00">データダウンロード</text>
<text text-anchor="middle" x="246" y="-120.2" font-family="Times New Roman,serif" font-size="14.00">download</text>
</a>
</g>
</g>
</g>
</svg>
