<?xml version="1.0" encoding="UTF-8" standalone="no"?>
<!DOCTYPE svg PUBLIC "-//W3C//DTD SVG 1.1//EN"
 "http://www.w3.org/Graphics/SVG/1.1/DTD/svg11.dtd">
<!-- Generated by graphviz version 12.2.0 (20241103.1931)
 -->
<!-- Title: パッケージ関連図 Pages: 1 -->
<svg width="656pt" height="325pt"
 viewBox="0.00 0.00 656.00 325.38" xmlns="http://www.w3.org/2000/svg" xmlns:xlink="http://www.w3.org/1999/xlink">
<g id="graph0" class="graph" transform="scale(1 1) rotate(0) translate(4 321.38)">
<title>パッケージ関連図</title>
<polygon fill="white" stroke="none" points="-4,4 -4,-321.38 652,-321.38 652,4 -4,4"/>
<text text-anchor="middle" x="324" y="-4.95" font-family="Times New Roman,serif" font-size="14.00">パッケージ関連図</text>
<g id="clust1" class="cluster">
<title>cluster_com.example.sms.domain.type</title>
<polygon fill="lemonchiffon" stroke="#eedd82" stroke-width="2" points="8,-30.25 8,-123.75 640,-123.75 640,-30.25 8,-30.25"/>
<text text-anchor="middle" x="324" y="-106.45" font-family="Times New Roman,serif" font-size="14.00">区分</text>
<text text-anchor="middle" x="324" y="-92.2" font-family="Times New Roman,serif" font-size="14.00">type</text>
</g>
<g id="clust2" class="cluster">
<title>cluster_com.example.sms.domain.model</title>
<polygon fill="lemonchiffon" stroke="#eedd82" stroke-width="2" points="213,-131.75 213,-309.38 397,-309.38 397,-131.75 213,-131.75"/>
<text text-anchor="middle" x="305" y="-292.07" font-family="Times New Roman,serif" font-size="14.00">ドメインモデル</text>
<text text-anchor="middle" x="305" y="-277.82" font-family="Times New Roman,serif" font-size="14.00">model</text>
</g>
<!-- summary -->
<g id="node1" class="node">
<title>summary</title>
<polygon fill="none" stroke="black" points="199,-272 15,-272 15,-214.5 205,-214.5 205,-266 199,-272"/>
<polyline fill="none" stroke="black" points="199,-272 199,-266"/>
<polyline fill="none" stroke="black" points="205,-266 199,-266"/>
<text text-anchor="start" x="23" y="-254.7" font-family="Times New Roman,serif" font-size="14.00">root: com.example.sms.domain</text>
<text text-anchor="start" x="23" y="-238.2" font-family="Times New Roman,serif" font-size="14.00">パッケージ数: 10</text>
<text text-anchor="start" x="23" y="-221.7" font-family="Times New Roman,serif" font-size="14.00">関連数: 9</text>
</g>
<!-- com.example.sms.domain.model.master -->
<g id="node2" class="node">
<title>com.example.sms.domain.model.master</title>
<g id="a_node2"><a xlink:href="./domain.html#com.example.sms.domain.model.master" xlink:title="マスタ\nmaster">
<polygon fill="#eedd82" stroke="black" points="383.88,-262.62 316.12,-262.62 316.12,-223.88 383.88,-223.88 383.88,-262.62"/>
<text text-anchor="middle" x="350" y="-245.32" font-family="Times New Roman,serif" font-size="14.00">マスタ</text>
<text text-anchor="middle" x="350" y="-231.07" font-family="Times New Roman,serif" font-size="14.00">master</text>
</a>
</g>
</g>
<!-- com.example.sms.domain.model.common -->
<g id="node3" class="node">
<title>com.example.sms.domain.model.common</title>
<g id="a_node3"><a xlink:href="./domain.html#com.example.sms.domain.model.common" xlink:title="共通\ncommon">
<polygon fill="#eedd82" stroke="black" points="285.38,-178.5 220.62,-178.5 220.62,-139.75 285.38,-139.75 285.38,-178.5"/>
<text text-anchor="middle" x="253" y="-161.2" font-family="Times New Roman,serif" font-size="14.00">共通</text>
<text text-anchor="middle" x="253" y="-146.95" font-family="Times New Roman,serif" font-size="14.00">common</text>
</a>
</g>
</g>
<!-- com.example.sms.domain.model.master&#45;&gt;com.example.sms.domain.model.common -->
<g id="edge1" class="edge">
<title>com.example.sms.domain.model.master&#45;&gt;com.example.sms.domain.model.common</title>
<path fill="none" stroke="black" d="M327.99,-223.61C314.94,-212.56 298.19,-198.38 283.83,-186.23"/>
<polygon fill="black" stroke="black" points="286.31,-183.74 276.41,-179.95 281.79,-189.08 286.31,-183.74"/>
</g>
<!-- com.example.sms.domain.model.system -->
<g id="node5" class="node">
<title>com.example.sms.domain.model.system</title>
<g id="a_node5"><a xlink:href="./domain.html#com.example.sms.domain.model.system" xlink:title="システム\nsystem">
<polygon fill="#eedd82" stroke="black" points="388.5,-178.5 303.5,-178.5 303.5,-139.75 388.5,-139.75 388.5,-178.5"/>
<text text-anchor="middle" x="346" y="-161.2" font-family="Times New Roman,serif" font-size="14.00">システム</text>
<text text-anchor="middle" x="346" y="-146.95" font-family="Times New Roman,serif" font-size="14.00">system</text>
</a>
</g>
</g>
<!-- com.example.sms.domain.model.master&#45;&gt;com.example.sms.domain.model.system -->
<g id="edge5" class="edge">
<title>com.example.sms.domain.model.master&#45;&gt;com.example.sms.domain.model.system</title>
<path fill="none" stroke="black" d="M349.09,-223.61C348.61,-213.81 348.02,-201.55 347.48,-190.43"/>
<polygon fill="black" stroke="black" points="350.97,-190.3 346.99,-180.48 343.98,-190.64 350.97,-190.3"/>
</g>
<!-- com.example.sms.domain.type.department -->
<g id="node8" class="node">
<title>com.example.sms.domain.type.department</title>
<g id="a_node8"><a xlink:href="./domain.html#com.example.sms.domain.type.department" xlink:title="部門\ndepartment">
<polygon fill="#eedd82" stroke="black" points="556.75,-77 479.25,-77 479.25,-38.25 556.75,-38.25 556.75,-77"/>
<text text-anchor="middle" x="518" y="-59.7" font-family="Times New Roman,serif" font-size="14.00">部門</text>
<text text-anchor="middle" x="518" y="-45.45" font-family="Times New Roman,serif" font-size="14.00">department</text>
</a>
</g>
</g>
<!-- com.example.sms.domain.model.master&#45;&gt;com.example.sms.domain.type.department -->
<g id="edge6" class="edge">
<title>com.example.sms.domain.model.master&#45;&gt;com.example.sms.domain.type.department</title>
<path fill="none" stroke="black" d="M370.94,-223.46C395.69,-200.82 437.62,-161.16 470,-123.75 480.05,-112.13 490.28,-98.56 498.69,-86.81"/>
<polygon fill="black" stroke="black" points="501.51,-88.89 504.42,-78.7 495.79,-84.85 501.51,-88.89"/>
</g>
<!-- com.example.sms.domain.type.product -->
<g id="node9" class="node">
<title>com.example.sms.domain.type.product</title>
<g id="a_node9"><a xlink:href="./domain.html#com.example.sms.domain.type.product" xlink:title="商品\nproduct">
<polygon fill="#eedd82" stroke="black" points="631.62,-77 574.38,-77 574.38,-38.25 631.62,-38.25 631.62,-77"/>
<text text-anchor="middle" x="603" y="-59.7" font-family="Times New Roman,serif" font-size="14.00">商品</text>
<text text-anchor="middle" x="603" y="-45.45" font-family="Times New Roman,serif" font-size="14.00">product</text>
</a>
</g>
</g>
<!-- com.example.sms.domain.model.master&#45;&gt;com.example.sms.domain.type.product -->
<g id="edge7" class="edge">
<title>com.example.sms.domain.model.master&#45;&gt;com.example.sms.domain.type.product</title>
<path fill="none" stroke="black" d="M384,-230.39C429.92,-212.99 512.22,-176.73 566,-123.75 576.39,-113.51 584.78,-99.75 590.92,-87.51"/>
<polygon fill="black" stroke="black" points="594,-89.18 595.09,-78.64 587.67,-86.2 594,-89.18"/>
</g>
<!-- com.example.sms.domain.type.money -->
<g id="node4" class="node">
<title>com.example.sms.domain.type.money</title>
<g id="a_node4"><a xlink:href="./domain.html#com.example.sms.domain.type.money" xlink:title="数量\nmoney">
<polygon fill="#eedd82" stroke="black" points="148,-77 94,-77 94,-38.25 148,-38.25 148,-77"/>
<text text-anchor="middle" x="121" y="-59.7" font-family="Times New Roman,serif" font-size="14.00">数量</text>
<text text-anchor="middle" x="121" y="-45.45" font-family="Times New Roman,serif" font-size="14.00">money</text>
</a>
</g>
</g>
<!-- com.example.sms.domain.model.common&#45;&gt;com.example.sms.domain.type.money -->
<g id="edge2" class="edge">
<title>com.example.sms.domain.model.common&#45;&gt;com.example.sms.domain.type.money</title>
<path fill="none" stroke="black" d="M220.23,-152.51C200.15,-147.69 174.93,-139 157,-123.75 145.81,-114.23 137.46,-100.32 131.63,-87.8"/>
<polygon fill="black" stroke="black" points="134.89,-86.52 127.75,-78.69 128.45,-89.26 134.89,-86.52"/>
</g>
<!-- com.example.sms.domain.type.quantity -->
<g id="node10" class="node">
<title>com.example.sms.domain.type.quantity</title>
<g id="a_node10"><a xlink:href="./domain.html#com.example.sms.domain.type.quantity" xlink:title="数量\nquantity">
<polygon fill="#eedd82" stroke="black" points="76.12,-77 15.88,-77 15.88,-38.25 76.12,-38.25 76.12,-77"/>
<text text-anchor="middle" x="46" y="-59.7" font-family="Times New Roman,serif" font-size="14.00">数量</text>
<text text-anchor="middle" x="46" y="-45.45" font-family="Times New Roman,serif" font-size="14.00">quantity</text>
</a>
</g>
</g>
<!-- com.example.sms.domain.model.common&#45;&gt;com.example.sms.domain.type.quantity -->
<g id="edge8" class="edge">
<title>com.example.sms.domain.model.common&#45;&gt;com.example.sms.domain.type.quantity</title>
<path fill="none" stroke="black" d="M220.26,-158.96C183.99,-158.3 125.32,-152.32 85,-123.75 72.48,-114.88 63.29,-100.61 56.98,-87.69"/>
<polygon fill="black" stroke="black" points="60.23,-86.39 52.96,-78.68 53.84,-89.24 60.23,-86.39"/>
</g>
<!-- com.example.sms.domain.type.download -->
<g id="node6" class="node">
<title>com.example.sms.domain.type.download</title>
<g id="a_node6"><a xlink:href="./domain.html#com.example.sms.domain.type.download" xlink:title="ダウンロード\ndownload">
<polygon fill="#eedd82" stroke="black" points="285.75,-77 166.25,-77 166.25,-38.25 285.75,-38.25 285.75,-77"/>
<text text-anchor="middle" x="226" y="-59.7" font-family="Times New Roman,serif" font-size="14.00">ダウンロード</text>
<text text-anchor="middle" x="226" y="-45.45" font-family="Times New Roman,serif" font-size="14.00">download</text>
</a>
</g>
</g>
<!-- com.example.sms.domain.model.system&#45;&gt;com.example.sms.domain.type.download -->
<g id="edge3" class="edge">
<title>com.example.sms.domain.model.system&#45;&gt;com.example.sms.domain.type.download</title>
<path fill="none" stroke="black" d="M316.29,-139.29C309.15,-134.44 301.67,-129.09 295,-123.75 280.26,-111.96 264.9,-97.68 252.42,-85.5"/>
<polygon fill="black" stroke="black" points="254.93,-83.06 245.36,-78.52 250.01,-88.04 254.93,-83.06"/>
</g>
<!-- com.example.sms.domain.type.audit -->
<g id="node7" class="node">
<title>com.example.sms.domain.type.audit</title>
<g id="a_node7"><a xlink:href="./domain.html#com.example.sms.domain.type.audit" xlink:title="監査\naudit">
<polygon fill="#eedd82" stroke="black" points="461,-77 407,-77 407,-38.25 461,-38.25 461,-77"/>
<text text-anchor="middle" x="434" y="-59.7" font-family="Times New Roman,serif" font-size="14.00">監査</text>
<text text-anchor="middle" x="434" y="-45.45" font-family="Times New Roman,serif" font-size="14.00">audit</text>
</a>
</g>
</g>
<!-- com.example.sms.domain.model.system&#45;&gt;com.example.sms.domain.type.audit -->
<g id="edge4" class="edge">
<title>com.example.sms.domain.model.system&#45;&gt;com.example.sms.domain.type.audit</title>
<path fill="none" stroke="black" d="M379.51,-139.44C386.11,-134.84 392.64,-129.55 398,-123.75 407.76,-113.18 415.85,-99.48 421.86,-87.38"/>
<polygon fill="black" stroke="black" points="424.88,-89.18 425.96,-78.64 418.55,-86.2 424.88,-89.18"/>
</g>
<!-- com.example.sms.domain.type.user -->
<g id="node11" class="node">
<title>com.example.sms.domain.type.user</title>
<g id="a_node11"><a xlink:href="./domain.html#com.example.sms.domain.type.user" xlink:title="ユーザー\nuser">
<polygon fill="#eedd82" stroke="black" points="388.5,-77 303.5,-77 303.5,-38.25 388.5,-38.25 388.5,-77"/>
<text text-anchor="middle" x="346" y="-59.7" font-family="Times New Roman,serif" font-size="14.00">ユーザー</text>
<text text-anchor="middle" x="346" y="-45.45" font-family="Times New Roman,serif" font-size="14.00">user</text>
</a>
</g>
</g>
<!-- com.example.sms.domain.model.system&#45;&gt;com.example.sms.domain.type.user -->
<g id="edge9" class="edge">
<title>com.example.sms.domain.model.system&#45;&gt;com.example.sms.domain.type.user</title>
<path fill="none" stroke="black" d="M346,-139.41C346,-125.1 346,-105.07 346,-88.54"/>
<polygon fill="black" stroke="black" points="349.5,-88.77 346,-78.77 342.5,-88.77 349.5,-88.77"/>
</g>
</g>
</svg>
