<?xml version="1.0" encoding="UTF-8" standalone="no"?>
<!DOCTYPE svg PUBLIC "-//W3C//DTD SVG 1.1//EN"
 "http://www.w3.org/Graphics/SVG/1.1/DTD/svg11.dtd">
<!-- Generated by graphviz version 12.2.0 (20241103.1931)
 -->
<!-- Title: パッケージ関連図 Pages: 1 -->
<svg width="1565pt" height="560pt"
 viewBox="0.00 0.00 1565.38 560.38" xmlns="http://www.w3.org/2000/svg" xmlns:xlink="http://www.w3.org/1999/xlink">
<g id="graph0" class="graph" transform="scale(1 1) rotate(0) translate(4 556.38)">
<title>パッケージ関連図</title>
<polygon fill="white" stroke="none" points="-4,4 -4,-556.38 1561.38,-556.38 1561.38,4 -4,4"/>
<text text-anchor="middle" x="778.69" y="-4.95" font-family="Times New Roman,serif" font-size="14.00">パッケージ関連図</text>
<g id="clust1" class="cluster">
<title>cluster_com.example.sms.domain.model.sales.shipping</title>
<polygon fill="lemonchiffon" stroke="#eedd82" stroke-width="2" points="581.62,-450.88 581.62,-544.38 711.62,-544.38 711.62,-450.88 581.62,-450.88"/>
<text text-anchor="middle" x="646.62" y="-527.08" font-family="Times New Roman,serif" font-size="14.00">出荷</text>
<text text-anchor="middle" x="646.62" y="-512.83" font-family="Times New Roman,serif" font-size="14.00">model.sales.shipping</text>
</g>
<g id="clust2" class="cluster">
<title>cluster_com.example.sms.domain.model.sales.order</title>
<polygon fill="lemonchiffon" stroke="#eedd82" stroke-width="2" points="900.62,-348 900.62,-441.5 1018.62,-441.5 1018.62,-348 900.62,-348"/>
<text text-anchor="middle" x="959.62" y="-424.2" font-family="Times New Roman,serif" font-size="14.00">受注</text>
<text text-anchor="middle" x="959.62" y="-409.95" font-family="Times New Roman,serif" font-size="14.00">model.sales.order</text>
</g>
<g id="clust3" class="cluster">
<title>cluster_com.example.sms.domain.model.master.partner</title>
<polygon fill="lemonchiffon" stroke="#eedd82" stroke-width="2" points="1065.62,-30.25 1065.62,-198.5 1233.62,-198.5 1233.62,-30.25 1065.62,-30.25"/>
<text text-anchor="middle" x="1149.62" y="-181.2" font-family="Times New Roman,serif" font-size="14.00">取引先</text>
<text text-anchor="middle" x="1149.62" y="-166.95" font-family="Times New Roman,serif" font-size="14.00">model.master.partner</text>
</g>
<!-- summary -->
<g id="node1" class="node">
<title>summary</title>
<polygon fill="none" stroke="black" points="566.62,-507 382.62,-507 382.62,-449.5 572.62,-449.5 572.62,-501 566.62,-507"/>
<polyline fill="none" stroke="black" points="566.62,-507 566.62,-501"/>
<polyline fill="none" stroke="black" points="572.62,-501 566.62,-501"/>
<text text-anchor="start" x="390.62" y="-489.7" font-family="Times New Roman,serif" font-size="14.00">root: com.example.sms.domain</text>
<text text-anchor="start" x="390.62" y="-473.2" font-family="Times New Roman,serif" font-size="14.00">パッケージ数: 24</text>
<text text-anchor="start" x="390.62" y="-456.7" font-family="Times New Roman,serif" font-size="14.00">関連数: 59</text>
</g>
<!-- com.example.sms.domain.model.master.employee -->
<g id="node2" class="node">
<title>com.example.sms.domain.model.master.employee</title>
<g id="a_node2"><a xlink:href="./domain.html#com.example.sms.domain.model.master.employee" xlink:title="社員\nmodel.master.employee">
<polygon fill="#eedd82" stroke="black" points="565.25,-151.75 418,-151.75 418,-113 565.25,-113 565.25,-151.75"/>
<text text-anchor="middle" x="491.62" y="-134.45" font-family="Times New Roman,serif" font-size="14.00">社員</text>
<text text-anchor="middle" x="491.62" y="-120.2" font-family="Times New Roman,serif" font-size="14.00">model.master.employee</text>
</a>
</g>
</g>
<!-- com.example.sms.domain.model.system.user -->
<g id="node3" class="node">
<title>com.example.sms.domain.model.system.user</title>
<g id="a_node3"><a xlink:href="./domain.html#com.example.sms.domain.model.system.user" xlink:title="ユーザー\nmodel.system.user">
<polygon fill="#eedd82" stroke="black" points="260,-77 141.25,-77 141.25,-38.25 260,-38.25 260,-77"/>
<text text-anchor="middle" x="200.62" y="-59.7" font-family="Times New Roman,serif" font-size="14.00">ユーザー</text>
<text text-anchor="middle" x="200.62" y="-45.45" font-family="Times New Roman,serif" font-size="14.00">model.system.user</text>
</a>
</g>
</g>
<!-- com.example.sms.domain.model.master.employee&#45;&gt;com.example.sms.domain.model.system.user -->
<g id="edge1" class="edge">
<title>com.example.sms.domain.model.master.employee&#45;&gt;com.example.sms.domain.model.system.user</title>
<path fill="none" stroke="black" d="M417.82,-112.92C372.8,-101.67 315.58,-87.36 271.17,-76.26"/>
<polygon fill="black" stroke="black" points="272.19,-72.91 261.64,-73.88 270.49,-79.7 272.19,-72.91"/>
</g>
<!-- com.example.sms.domain.type.phone -->
<g id="node8" class="node">
<title>com.example.sms.domain.type.phone</title>
<g id="a_node8"><a xlink:href="./domain.html#com.example.sms.domain.type.phone" xlink:title="電話番号\ntype.phone">
<polygon fill="#eedd82" stroke="black" points="1057.12,-77 972.12,-77 972.12,-38.25 1057.12,-38.25 1057.12,-77"/>
<text text-anchor="middle" x="1014.62" y="-59.7" font-family="Times New Roman,serif" font-size="14.00">電話番号</text>
<text text-anchor="middle" x="1014.62" y="-45.45" font-family="Times New Roman,serif" font-size="14.00">type.phone</text>
</a>
</g>
</g>
<!-- com.example.sms.domain.model.master.employee&#45;&gt;com.example.sms.domain.type.phone -->
<g id="edge4" class="edge">
<title>com.example.sms.domain.model.master.employee&#45;&gt;com.example.sms.domain.type.phone</title>
<path fill="none" stroke="black" d="M565.73,-121.07C672.31,-106.24 866.39,-79.24 960.53,-66.15"/>
<polygon fill="black" stroke="black" points="960.85,-69.64 970.28,-64.79 959.89,-62.71 960.85,-69.64"/>
</g>
<!-- com.example.sms.domain.model.sales.order.rule -->
<g id="node4" class="node">
<title>com.example.sms.domain.model.sales.order.rule</title>
<g id="a_node4"><a xlink:href="./domain.html#com.example.sms.domain.model.sales.order.rule" xlink:title="受注ルール\nrule">
<polygon fill="#eedd82" stroke="black" points="1010.75,-394.75 908.5,-394.75 908.5,-356 1010.75,-356 1010.75,-394.75"/>
<text text-anchor="middle" x="959.62" y="-377.45" font-family="Times New Roman,serif" font-size="14.00">受注ルール</text>
<text text-anchor="middle" x="959.62" y="-363.2" font-family="Times New Roman,serif" font-size="14.00">rule</text>
</a>
</g>
</g>
<!-- com.example.sms.domain.type.money -->
<g id="node5" class="node">
<title>com.example.sms.domain.type.money</title>
<g id="a_node5"><a xlink:href="./domain.html#com.example.sms.domain.type.money" xlink:title="通貨\ntype.money">
<polygon fill="#eedd82" stroke="black" points="903.88,-151.75 823.38,-151.75 823.38,-113 903.88,-113 903.88,-151.75"/>
<text text-anchor="middle" x="863.62" y="-134.45" font-family="Times New Roman,serif" font-size="14.00">通貨</text>
<text text-anchor="middle" x="863.62" y="-120.2" font-family="Times New Roman,serif" font-size="14.00">type.money</text>
</a>
</g>
</g>
<!-- com.example.sms.domain.model.sales.order.rule&#45;&gt;com.example.sms.domain.type.money -->
<g id="edge2" class="edge">
<title>com.example.sms.domain.model.sales.order.rule&#45;&gt;com.example.sms.domain.type.money</title>
<path fill="none" stroke="black" d="M953.03,-355.59C941.96,-324.39 918.72,-260.02 896.62,-206.5 890.54,-191.77 883.31,-175.6 877.16,-162.22"/>
<polygon fill="black" stroke="black" points="880.52,-161.15 873.15,-153.54 874.17,-164.09 880.52,-161.15"/>
</g>
<!-- com.example.sms.domain.model.sales.order -->
<g id="node6" class="node">
<title>com.example.sms.domain.model.sales.order</title>
<g id="a_node6"><a xlink:href="./domain.html#com.example.sms.domain.model.sales.order" xlink:title="受注\nmodel.sales.order">
<polygon fill="#eedd82" stroke="black" points="808,-320 695.25,-320 695.25,-281.25 808,-281.25 808,-320"/>
<text text-anchor="middle" x="751.62" y="-302.7" font-family="Times New Roman,serif" font-size="14.00">受注</text>
<text text-anchor="middle" x="751.62" y="-288.45" font-family="Times New Roman,serif" font-size="14.00">model.sales.order</text>
</a>
</g>
</g>
<!-- com.example.sms.domain.model.sales.order.rule&#45;&gt;com.example.sms.domain.model.sales.order -->
<g id="edge22" class="edge">
<title>com.example.sms.domain.model.sales.order.rule&#45;&gt;com.example.sms.domain.model.sales.order</title>
<path fill="none" stroke="black" d="M908.21,-356.39C880.35,-346.65 845.66,-334.52 816.02,-324.15"/>
<polygon fill="black" stroke="black" points="817.37,-320.91 806.78,-320.92 815.06,-327.52 817.37,-320.91"/>
</g>
<!-- com.example.sms.domain.type.quantity -->
<g id="node10" class="node">
<title>com.example.sms.domain.type.quantity</title>
<g id="a_node10"><a xlink:href="./domain.html#com.example.sms.domain.type.quantity" xlink:title="数量\ntype.quantity">
<polygon fill="#eedd82" stroke="black" points="792.25,-77 705,-77 705,-38.25 792.25,-38.25 792.25,-77"/>
<text text-anchor="middle" x="748.62" y="-59.7" font-family="Times New Roman,serif" font-size="14.00">数量</text>
<text text-anchor="middle" x="748.62" y="-45.45" font-family="Times New Roman,serif" font-size="14.00">type.quantity</text>
</a>
</g>
</g>
<!-- com.example.sms.domain.type.money&#45;&gt;com.example.sms.domain.type.quantity -->
<g id="edge24" class="edge">
<title>com.example.sms.domain.type.money&#45;&gt;com.example.sms.domain.type.quantity</title>
<path fill="none" stroke="black" d="M834.01,-112.64C819.92,-103.73 802.89,-92.96 787.76,-83.38"/>
<polygon fill="black" stroke="black" points="789.74,-80.49 779.42,-78.11 786,-86.41 789.74,-80.49"/>
</g>
<!-- com.example.sms.domain.model.sales.order&#45;&gt;com.example.sms.domain.model.master.employee -->
<g id="edge34" class="edge">
<title>com.example.sms.domain.model.sales.order&#45;&gt;com.example.sms.domain.model.master.employee</title>
<path fill="none" stroke="black" d="M706.63,-280.86C685.39,-271.28 660.06,-258.8 638.62,-245.25 615.45,-230.6 612.32,-223.26 590.62,-206.5 569.65,-190.3 545.76,-172.63 526.7,-158.72"/>
<polygon fill="black" stroke="black" points="528.86,-155.96 518.72,-152.91 524.74,-161.62 528.86,-155.96"/>
</g>
<!-- com.example.sms.domain.model.sales.order&#45;&gt;com.example.sms.domain.type.money -->
<g id="edge17" class="edge">
<title>com.example.sms.domain.model.sales.order&#45;&gt;com.example.sms.domain.type.money</title>
<path fill="none" stroke="black" d="M785.89,-280.79C799.87,-271.64 815.17,-259.53 825.62,-245.25 843.57,-220.76 853.46,-187.2 858.62,-163.23"/>
<polygon fill="black" stroke="black" points="862.04,-163.98 860.55,-153.49 855.18,-162.62 862.04,-163.98"/>
</g>
<!-- com.example.sms.domain.model.master.partner -->
<g id="node7" class="node">
<title>com.example.sms.domain.model.master.partner</title>
<g id="a_node7"><a xlink:href="./domain.html#com.example.sms.domain.model.master.partner" xlink:title="取引先\nmodel.master.partner">
<polygon fill="#eedd82" stroke="black" points="1232.75,-245.25 1100.5,-245.25 1100.5,-206.5 1232.75,-206.5 1232.75,-245.25"/>
<text text-anchor="middle" x="1166.62" y="-227.95" font-family="Times New Roman,serif" font-size="14.00">取引先</text>
<text text-anchor="middle" x="1166.62" y="-213.7" font-family="Times New Roman,serif" font-size="14.00">model.master.partner</text>
</a>
</g>
</g>
<!-- com.example.sms.domain.model.sales.order&#45;&gt;com.example.sms.domain.model.master.partner -->
<g id="edge3" class="edge">
<title>com.example.sms.domain.model.sales.order&#45;&gt;com.example.sms.domain.model.master.partner</title>
<path fill="none" stroke="black" d="M808.46,-289.66C881.18,-276.91 1007.47,-254.78 1089.01,-240.48"/>
<polygon fill="black" stroke="black" points="1089.47,-243.95 1098.71,-238.78 1088.26,-237.06 1089.47,-243.95"/>
</g>
<!-- com.example.sms.domain.model.sales.order&#45;&gt;com.example.sms.domain.type.quantity -->
<g id="edge38" class="edge">
<title>com.example.sms.domain.model.sales.order&#45;&gt;com.example.sms.domain.type.quantity</title>
<path fill="none" stroke="black" d="M708.73,-280.95C694.25,-272.32 679.72,-260.54 671.62,-245.25 642.7,-190.62 690.17,-122.69 722.51,-85.71"/>
<polygon fill="black" stroke="black" points="724.85,-88.34 728.93,-78.56 719.65,-83.66 724.85,-88.34"/>
</g>
<!-- com.example.sms.domain.model.master.partner.customer -->
<g id="node11" class="node">
<title>com.example.sms.domain.model.master.partner.customer</title>
<g id="a_node11"><a xlink:href="./domain.html#com.example.sms.domain.model.master.partner.customer" xlink:title="顧客\ncustomer">
<polygon fill="#eedd82" stroke="black" points="1225.75,-151.75 1159.5,-151.75 1159.5,-113 1225.75,-113 1225.75,-151.75"/>
<text text-anchor="middle" x="1192.62" y="-134.45" font-family="Times New Roman,serif" font-size="14.00">顧客</text>
<text text-anchor="middle" x="1192.62" y="-120.2" font-family="Times New Roman,serif" font-size="14.00">customer</text>
</a>
</g>
</g>
<!-- com.example.sms.domain.model.sales.order&#45;&gt;com.example.sms.domain.model.master.partner.customer -->
<g id="edge16" class="edge">
<title>com.example.sms.domain.model.sales.order&#45;&gt;com.example.sms.domain.model.master.partner.customer</title>
<path fill="none" stroke="black" d="M793.95,-280.93C846.11,-258.84 938,-223.02 1020.62,-206.5 1049.01,-200.82 1125.65,-213.13 1150.62,-198.5 1164.46,-190.4 1174.51,-175.73 1181.31,-162.37"/>
<polygon fill="black" stroke="black" points="1184.41,-163.99 1185.44,-153.45 1178.06,-161.05 1184.41,-163.99"/>
</g>
<!-- com.example.sms.domain.model.master.product -->
<g id="node12" class="node">
<title>com.example.sms.domain.model.master.product</title>
<g id="a_node12"><a xlink:href="./domain.html#com.example.sms.domain.model.master.product" xlink:title="商品\nmodel.master.product">
<polygon fill="#eedd82" stroke="black" points="816.25,-245.25 681,-245.25 681,-206.5 816.25,-206.5 816.25,-245.25"/>
<text text-anchor="middle" x="748.62" y="-227.95" font-family="Times New Roman,serif" font-size="14.00">商品</text>
<text text-anchor="middle" x="748.62" y="-213.7" font-family="Times New Roman,serif" font-size="14.00">model.master.product</text>
</a>
</g>
</g>
<!-- com.example.sms.domain.model.sales.order&#45;&gt;com.example.sms.domain.model.master.product -->
<g id="edge46" class="edge">
<title>com.example.sms.domain.model.sales.order&#45;&gt;com.example.sms.domain.model.master.product</title>
<path fill="none" stroke="black" d="M750.85,-280.89C750.55,-273.59 750.2,-265.04 749.86,-256.93"/>
<polygon fill="black" stroke="black" points="753.37,-256.91 749.46,-247.06 746.37,-257.19 753.37,-256.91"/>
</g>
<!-- com.example.sms.domain.model.master.department -->
<g id="node17" class="node">
<title>com.example.sms.domain.model.master.department</title>
<g id="a_node17"><a xlink:href="./domain.html#com.example.sms.domain.model.master.department" xlink:title="部門\nmodel.master.department">
<polygon fill="#eedd82" stroke="black" points="510.38,-245.25 354.88,-245.25 354.88,-206.5 510.38,-206.5 510.38,-245.25"/>
<text text-anchor="middle" x="432.62" y="-227.95" font-family="Times New Roman,serif" font-size="14.00">部門</text>
<text text-anchor="middle" x="432.62" y="-213.7" font-family="Times New Roman,serif" font-size="14.00">model.master.department</text>
</a>
</g>
</g>
<!-- com.example.sms.domain.model.sales.order&#45;&gt;com.example.sms.domain.model.master.department -->
<g id="edge13" class="edge">
<title>com.example.sms.domain.model.sales.order&#45;&gt;com.example.sms.domain.model.master.department</title>
<path fill="none" stroke="black" d="M694.96,-286.7C646.87,-275.74 577.04,-259.81 521.52,-247.15"/>
<polygon fill="black" stroke="black" points="522.62,-243.81 512.09,-245 521.06,-250.63 522.62,-243.81"/>
</g>
<!-- com.example.sms.domain.model.system.autonumber -->
<g id="node19" class="node">
<title>com.example.sms.domain.model.system.autonumber</title>
<g id="a_node19"><a xlink:href="./domain.html#com.example.sms.domain.model.system.autonumber" xlink:title="自動採番\nmodel.system.autonumber">
<polygon fill="#eedd82" stroke="black" points="1450.38,-245.25 1288.88,-245.25 1288.88,-206.5 1450.38,-206.5 1450.38,-245.25"/>
<text text-anchor="middle" x="1369.62" y="-227.95" font-family="Times New Roman,serif" font-size="14.00">自動採番</text>
<text text-anchor="middle" x="1369.62" y="-213.7" font-family="Times New Roman,serif" font-size="14.00">model.system.autonumber</text>
</a>
</g>
</g>
<!-- com.example.sms.domain.model.sales.order&#45;&gt;com.example.sms.domain.model.system.autonumber -->
<g id="edge18" class="edge">
<title>com.example.sms.domain.model.sales.order&#45;&gt;com.example.sms.domain.model.system.autonumber</title>
<path fill="none" stroke="black" d="M808.28,-293.93C899.61,-284.63 1084.97,-265.18 1241.62,-245.25 1253.1,-243.79 1265.14,-242.17 1277.06,-240.52"/>
<polygon fill="black" stroke="black" points="1277.51,-243.99 1286.92,-239.14 1276.54,-237.06 1277.51,-243.99"/>
</g>
<!-- com.example.sms.domain.model.master.partner&#45;&gt;com.example.sms.domain.type.money -->
<g id="edge21" class="edge">
<title>com.example.sms.domain.model.master.partner&#45;&gt;com.example.sms.domain.type.money</title>
<path fill="none" stroke="black" d="M1100.06,-208.92C1087.26,-205.64 1073.99,-202.08 1061.62,-198.5 1011.43,-183.96 954.85,-165.1 915.07,-151.42"/>
<polygon fill="black" stroke="black" points="916.34,-148.15 905.74,-148.2 914.06,-154.77 916.34,-148.15"/>
</g>
<!-- com.example.sms.domain.model.master.partner&#45;&gt;com.example.sms.domain.model.master.partner.customer -->
<g id="edge53" class="edge">
<title>com.example.sms.domain.model.master.partner&#45;&gt;com.example.sms.domain.model.master.partner.customer</title>
<path fill="none" stroke="red" stroke-width="2" d="M1174.94,-195.6C1177.88,-185.26 1181.19,-173.63 1184.14,-163.24"/>
<polygon fill="red" stroke="red" stroke-width="2" points="1172.08,-192.87 1172.71,-203.45 1178.81,-194.78 1172.08,-192.87"/>
<polygon fill="red" stroke="red" stroke-width="2" points="1187.09,-165.67 1186.45,-155.09 1180.35,-163.75 1187.09,-165.67"/>
</g>
<!-- com.example.sms.domain.type.address -->
<g id="node20" class="node">
<title>com.example.sms.domain.type.address</title>
<g id="a_node20"><a xlink:href="./domain.html#com.example.sms.domain.type.address" xlink:title="住所\ntype.address">
<polygon fill="#eedd82" stroke="black" points="1557.38,-77 1473.88,-77 1473.88,-38.25 1557.38,-38.25 1557.38,-77"/>
<text text-anchor="middle" x="1515.62" y="-59.7" font-family="Times New Roman,serif" font-size="14.00">住所</text>
<text text-anchor="middle" x="1515.62" y="-45.45" font-family="Times New Roman,serif" font-size="14.00">type.address</text>
</a>
</g>
</g>
<!-- com.example.sms.domain.model.master.partner&#45;&gt;com.example.sms.domain.type.address -->
<g id="edge20" class="edge">
<title>com.example.sms.domain.model.master.partner&#45;&gt;com.example.sms.domain.type.address</title>
<path fill="none" stroke="black" d="M1219.23,-206.08C1225.47,-203.63 1231.72,-201.07 1237.62,-198.5 1322.08,-161.7 1417.36,-111.87 1471.58,-82.69"/>
<polygon fill="black" stroke="black" points="1473.07,-85.87 1480.21,-78.04 1469.74,-79.71 1473.07,-85.87"/>
</g>
<!-- com.example.sms.domain.model.sales.shipping -->
<g id="node9" class="node">
<title>com.example.sms.domain.model.sales.shipping</title>
<g id="a_node9"><a xlink:href="./domain.html#com.example.sms.domain.model.sales.shipping" xlink:title="出荷\nmodel.sales.shipping">
<polygon fill="#eedd82" stroke="black" points="642,-394.75 511.25,-394.75 511.25,-356 642,-356 642,-394.75"/>
<text text-anchor="middle" x="576.62" y="-377.45" font-family="Times New Roman,serif" font-size="14.00">出荷</text>
<text text-anchor="middle" x="576.62" y="-363.2" font-family="Times New Roman,serif" font-size="14.00">model.sales.shipping</text>
</a>
</g>
</g>
<!-- com.example.sms.domain.model.sales.shipping&#45;&gt;com.example.sms.domain.model.master.employee -->
<g id="edge11" class="edge">
<title>com.example.sms.domain.model.sales.shipping&#45;&gt;com.example.sms.domain.model.master.employee</title>
<path fill="none" stroke="black" d="M510.93,-359.12C454.69,-342.04 377.86,-308.11 345.62,-245.25 337.77,-229.92 336.58,-221.15 345.62,-206.5 359.77,-183.6 383.5,-167.63 407.76,-156.6"/>
<polygon fill="black" stroke="black" points="408.95,-159.9 416.78,-152.76 406.2,-153.46 408.95,-159.9"/>
</g>
<!-- com.example.sms.domain.model.sales.shipping&#45;&gt;com.example.sms.domain.type.money -->
<g id="edge26" class="edge">
<title>com.example.sms.domain.model.sales.shipping&#45;&gt;com.example.sms.domain.type.money</title>
<path fill="none" stroke="black" d="M582.42,-355.73C593.96,-321.5 622.99,-248.3 671.62,-206.5 711.89,-171.9 770.25,-152.81 812.04,-142.9"/>
<polygon fill="black" stroke="black" points="812.63,-146.35 821.61,-140.73 811.09,-139.52 812.63,-146.35"/>
</g>
<!-- com.example.sms.domain.model.sales.shipping&#45;&gt;com.example.sms.domain.model.sales.order -->
<g id="edge12" class="edge">
<title>com.example.sms.domain.model.sales.shipping&#45;&gt;com.example.sms.domain.model.sales.order</title>
<path fill="none" stroke="black" d="M621.69,-355.64C644.36,-346.22 672.05,-334.71 696.03,-324.74"/>
<polygon fill="black" stroke="black" points="697.12,-328.07 705.01,-321 694.43,-321.61 697.12,-328.07"/>
</g>
<!-- com.example.sms.domain.model.sales.shipping&#45;&gt;com.example.sms.domain.type.quantity -->
<g id="edge5" class="edge">
<title>com.example.sms.domain.model.sales.shipping&#45;&gt;com.example.sms.domain.type.quantity</title>
<path fill="none" stroke="black" d="M510.8,-372.03C465.77,-367.19 407.27,-354.11 367.62,-320 327.89,-285.82 318.57,-256.06 335.62,-206.5 352.78,-156.65 363.22,-139.8 408.62,-113 455.82,-85.14 609.86,-69.29 693.46,-62.54"/>
<polygon fill="black" stroke="black" points="693.56,-66.05 703.26,-61.77 693.01,-59.07 693.56,-66.05"/>
</g>
<!-- com.example.sms.domain.model.sales.shipping&#45;&gt;com.example.sms.domain.model.master.partner.customer -->
<g id="edge14" class="edge">
<title>com.example.sms.domain.model.sales.shipping&#45;&gt;com.example.sms.domain.model.master.partner.customer</title>
<path fill="none" stroke="black" d="M642.36,-362.59C691.04,-353.12 758.7,-338.37 816.62,-320 942.66,-280.03 963.95,-240.89 1091.62,-206.5 1117.18,-199.62 1128.3,-212.7 1150.62,-198.5 1164.06,-189.96 1174.05,-175.39 1180.91,-162.2"/>
<polygon fill="black" stroke="black" points="1183.95,-163.95 1185.09,-153.42 1177.63,-160.94 1183.95,-163.95"/>
</g>
<!-- com.example.sms.domain.model.sales.shipping&#45;&gt;com.example.sms.domain.model.master.product -->
<g id="edge42" class="edge">
<title>com.example.sms.domain.model.sales.shipping&#45;&gt;com.example.sms.domain.model.master.product</title>
<path fill="none" stroke="black" d="M598.41,-355.69C628.7,-329.72 683.67,-282.57 718.06,-253.09"/>
<polygon fill="black" stroke="black" points="720.29,-255.79 725.6,-246.62 715.73,-250.47 720.29,-255.79"/>
</g>
<!-- com.example.sms.domain.model.sales.shipping&#45;&gt;com.example.sms.domain.model.master.department -->
<g id="edge19" class="edge">
<title>com.example.sms.domain.model.sales.shipping&#45;&gt;com.example.sms.domain.model.master.department</title>
<path fill="none" stroke="black" d="M530.81,-355.72C513.2,-346.87 493.91,-334.92 479.62,-320 462.27,-301.87 449.93,-276.08 442.27,-256.24"/>
<polygon fill="black" stroke="black" points="445.63,-255.24 438.91,-247.05 439.05,-257.64 445.63,-255.24"/>
</g>
<!-- com.example.sms.domain.model.master.partner.customer&#45;&gt;com.example.sms.domain.type.phone -->
<g id="edge6" class="edge">
<title>com.example.sms.domain.model.master.partner.customer&#45;&gt;com.example.sms.domain.type.phone</title>
<path fill="none" stroke="black" d="M1159.2,-116.63C1156.3,-115.39 1153.41,-114.17 1150.62,-113 1135.03,-106.47 1098.94,-92.06 1067.86,-79.71"/>
<polygon fill="black" stroke="black" points="1069.54,-76.61 1058.96,-76.17 1066.96,-83.11 1069.54,-76.61"/>
</g>
<!-- com.example.sms.domain.type.mail -->
<g id="node14" class="node">
<title>com.example.sms.domain.type.mail</title>
<g id="a_node14"><a xlink:href="./domain.html#com.example.sms.domain.type.mail" xlink:title="メール\ntype.mail">
<polygon fill="#eedd82" stroke="black" points="1309.5,-77 1241.75,-77 1241.75,-38.25 1309.5,-38.25 1309.5,-77"/>
<text text-anchor="middle" x="1275.62" y="-59.7" font-family="Times New Roman,serif" font-size="14.00">メール</text>
<text text-anchor="middle" x="1275.62" y="-45.45" font-family="Times New Roman,serif" font-size="14.00">type.mail</text>
</a>
</g>
</g>
<!-- com.example.sms.domain.model.master.partner.customer&#45;&gt;com.example.sms.domain.type.mail -->
<g id="edge31" class="edge">
<title>com.example.sms.domain.model.master.partner.customer&#45;&gt;com.example.sms.domain.type.mail</title>
<path fill="none" stroke="black" d="M1214,-112.64C1223.68,-104.15 1235.29,-93.98 1245.81,-84.76"/>
<polygon fill="black" stroke="black" points="1247.97,-87.52 1253.18,-78.29 1243.36,-82.25 1247.97,-87.52"/>
</g>
<!-- com.example.sms.domain.model.master.region -->
<g id="node16" class="node">
<title>com.example.sms.domain.model.master.region</title>
<g id="a_node16"><a xlink:href="./domain.html#com.example.sms.domain.model.master.region" xlink:title="地域\nmodel.master.region">
<polygon fill="#eedd82" stroke="black" points="1455.88,-77 1327.38,-77 1327.38,-38.25 1455.88,-38.25 1455.88,-77"/>
<text text-anchor="middle" x="1391.62" y="-59.7" font-family="Times New Roman,serif" font-size="14.00">地域</text>
<text text-anchor="middle" x="1391.62" y="-45.45" font-family="Times New Roman,serif" font-size="14.00">model.master.region</text>
</a>
</g>
</g>
<!-- com.example.sms.domain.model.master.partner.customer&#45;&gt;com.example.sms.domain.model.master.region -->
<g id="edge10" class="edge">
<title>com.example.sms.domain.model.master.partner.customer&#45;&gt;com.example.sms.domain.model.master.region</title>
<path fill="none" stroke="black" d="M1225.93,-119.2C1254.21,-108.86 1295.54,-93.75 1329.85,-81.21"/>
<polygon fill="black" stroke="black" points="1330.63,-84.65 1338.82,-77.93 1328.23,-78.07 1330.63,-84.65"/>
</g>
<!-- com.example.sms.domain.model.master.partner.customer&#45;&gt;com.example.sms.domain.type.address -->
<g id="edge41" class="edge">
<title>com.example.sms.domain.model.master.partner.customer&#45;&gt;com.example.sms.domain.type.address</title>
<path fill="none" stroke="black" d="M1226.08,-126.33C1275.76,-118.49 1372.05,-101.93 1462.48,-77.39"/>
<polygon fill="black" stroke="black" points="1463.31,-80.79 1472.02,-74.76 1461.45,-74.04 1463.31,-80.79"/>
</g>
<!-- com.example.sms.domain.model.master.partner.billing -->
<g id="node24" class="node">
<title>com.example.sms.domain.model.master.partner.billing</title>
<g id="a_node24"><a xlink:href="./domain.html#com.example.sms.domain.model.master.partner.billing" xlink:title="請求\nbilling">
<polygon fill="#eedd82" stroke="black" points="1219.62,-77 1165.62,-77 1165.62,-38.25 1219.62,-38.25 1219.62,-77"/>
<text text-anchor="middle" x="1192.62" y="-59.7" font-family="Times New Roman,serif" font-size="14.00">請求</text>
<text text-anchor="middle" x="1192.62" y="-45.45" font-family="Times New Roman,serif" font-size="14.00">billing</text>
</a>
</g>
</g>
<!-- com.example.sms.domain.model.master.partner.customer&#45;&gt;com.example.sms.domain.model.master.partner.billing -->
<g id="edge52" class="edge">
<title>com.example.sms.domain.model.master.partner.customer&#45;&gt;com.example.sms.domain.model.master.partner.billing</title>
<path fill="none" stroke="red" stroke-width="2" d="M1192.62,-101.25C1192.62,-97.06 1192.62,-92.76 1192.62,-88.58"/>
<polygon fill="red" stroke="red" stroke-width="2" points="1189.13,-99.61 1192.63,-109.61 1196.13,-99.61 1189.13,-99.61"/>
<polygon fill="red" stroke="red" stroke-width="2" points="1196.13,-90.32 1192.63,-80.32 1189.13,-90.32 1196.13,-90.32"/>
</g>
<!-- com.example.sms.domain.model.master.product&#45;&gt;com.example.sms.domain.type.money -->
<g id="edge23" class="edge">
<title>com.example.sms.domain.model.master.product&#45;&gt;com.example.sms.domain.type.money</title>
<path fill="none" stroke="black" d="M772.17,-206.14C789.23,-192.57 812.49,-174.06 831.29,-159.11"/>
<polygon fill="black" stroke="black" points="833.28,-161.99 838.92,-153.03 828.92,-156.52 833.28,-161.99"/>
</g>
<!-- com.example.sms.domain.model.master.product&#45;&gt;com.example.sms.domain.type.quantity -->
<g id="edge7" class="edge">
<title>com.example.sms.domain.model.master.product&#45;&gt;com.example.sms.domain.type.quantity</title>
<path fill="none" stroke="black" d="M748.62,-206.13C748.62,-177.49 748.62,-122.58 748.62,-88.44"/>
<polygon fill="black" stroke="black" points="752.13,-88.82 748.63,-78.82 745.13,-88.82 752.13,-88.82"/>
</g>
<!-- com.example.sms.domain.model.master.partner.vendor -->
<g id="node13" class="node">
<title>com.example.sms.domain.model.master.partner.vendor</title>
<g id="a_node13"><a xlink:href="./domain.html#com.example.sms.domain.model.master.partner.vendor" xlink:title="仕入先\nvendor">
<polygon fill="#eedd82" stroke="black" points="1141.5,-151.75 1073.75,-151.75 1073.75,-113 1141.5,-113 1141.5,-151.75"/>
<text text-anchor="middle" x="1107.62" y="-134.45" font-family="Times New Roman,serif" font-size="14.00">仕入先</text>
<text text-anchor="middle" x="1107.62" y="-120.2" font-family="Times New Roman,serif" font-size="14.00">vendor</text>
</a>
</g>
</g>
<!-- com.example.sms.domain.model.master.product&#45;&gt;com.example.sms.domain.model.master.partner.vendor -->
<g id="edge25" class="edge">
<title>com.example.sms.domain.model.master.product&#45;&gt;com.example.sms.domain.model.master.partner.vendor</title>
<path fill="none" stroke="black" d="M816.55,-216.48C846.26,-212.16 881.4,-206.17 912.62,-198.5 964.95,-185.65 1023.37,-165.31 1062.5,-150.78"/>
<polygon fill="black" stroke="black" points="1063.7,-154.07 1071.84,-147.28 1061.24,-147.51 1063.7,-154.07"/>
</g>
<!-- com.example.sms.domain.model.master.partner.vendor&#45;&gt;com.example.sms.domain.model.master.partner -->
<g id="edge54" class="edge">
<title>com.example.sms.domain.model.master.partner.vendor&#45;&gt;com.example.sms.domain.model.master.partner</title>
<path fill="none" stroke="red" stroke-width="2" d="M1125.78,-161.53C1133.02,-172.76 1141.33,-185.65 1148.56,-196.86"/>
<polygon fill="red" stroke="red" stroke-width="2" points="1129.75,-161.23 1121.39,-154.72 1123.87,-165.02 1129.75,-161.23"/>
<polygon fill="red" stroke="red" stroke-width="2" points="1144.68,-197.31 1153.05,-203.81 1150.57,-193.51 1144.68,-197.31"/>
</g>
<!-- com.example.sms.domain.model.master.partner.vendor&#45;&gt;com.example.sms.domain.type.phone -->
<g id="edge27" class="edge">
<title>com.example.sms.domain.model.master.partner.vendor&#45;&gt;com.example.sms.domain.type.phone</title>
<path fill="none" stroke="black" d="M1083.68,-112.64C1072.61,-103.98 1059.3,-93.57 1047.33,-84.21"/>
<polygon fill="black" stroke="black" points="1049.72,-81.63 1039.69,-78.23 1045.41,-87.15 1049.72,-81.63"/>
</g>
<!-- com.example.sms.domain.model.master.partner.vendor&#45;&gt;com.example.sms.domain.type.mail -->
<g id="edge8" class="edge">
<title>com.example.sms.domain.model.master.partner.vendor&#45;&gt;com.example.sms.domain.type.mail</title>
<path fill="none" stroke="black" d="M1141.88,-116.7C1144.83,-115.44 1147.78,-114.2 1150.62,-113 1185.88,-98.17 1197.47,-94.67 1231.16,-79.84"/>
<polygon fill="black" stroke="black" points="1232.18,-83.22 1239.9,-75.96 1229.34,-76.82 1232.18,-83.22"/>
</g>
<!-- com.example.sms.domain.model.master.partner.vendor&#45;&gt;com.example.sms.domain.type.address -->
<g id="edge33" class="edge">
<title>com.example.sms.domain.model.master.partner.vendor&#45;&gt;com.example.sms.domain.type.address</title>
<path fill="none" stroke="black" d="M1141.58,-115.81C1144.6,-114.75 1147.64,-113.79 1150.62,-113 1282.96,-77.94 1325.69,-107.44 1462.65,-77.13"/>
<polygon fill="black" stroke="black" points="1463.11,-80.61 1472.08,-74.97 1461.55,-73.79 1463.11,-80.61"/>
</g>
<!-- com.example.sms.domain.model.sales.sales -->
<g id="node15" class="node">
<title>com.example.sms.domain.model.sales.sales</title>
<g id="a_node15"><a xlink:href="./domain.html#com.example.sms.domain.model.sales.sales" xlink:title="売上\nmodel.sales.sales">
<polygon fill="#eedd82" stroke="black" points="1138.88,-394.75 1028.38,-394.75 1028.38,-356 1138.88,-356 1138.88,-394.75"/>
<text text-anchor="middle" x="1083.62" y="-377.45" font-family="Times New Roman,serif" font-size="14.00">売上</text>
<text text-anchor="middle" x="1083.62" y="-363.2" font-family="Times New Roman,serif" font-size="14.00">model.sales.sales</text>
</a>
</g>
</g>
<!-- com.example.sms.domain.model.sales.sales&#45;&gt;com.example.sms.domain.model.master.employee -->
<g id="edge28" class="edge">
<title>com.example.sms.domain.model.sales.sales&#45;&gt;com.example.sms.domain.model.master.employee</title>
<path fill="none" stroke="black" d="M1045.23,-355.55C1037.88,-352.58 1030.12,-349.88 1022.62,-348 877.27,-311.56 826.21,-374.52 686.62,-320 606.04,-288.53 540.27,-205.39 509.86,-161.47"/>
<polygon fill="black" stroke="black" points="512.77,-159.52 504.25,-153.22 506.97,-163.46 512.77,-159.52"/>
</g>
<!-- com.example.sms.domain.model.sales.sales&#45;&gt;com.example.sms.domain.type.money -->
<g id="edge36" class="edge">
<title>com.example.sms.domain.model.sales.sales&#45;&gt;com.example.sms.domain.type.money</title>
<path fill="none" stroke="black" d="M1066.73,-355.86C1028.1,-313.55 933.19,-209.58 888.13,-160.22"/>
<polygon fill="black" stroke="black" points="890.93,-158.09 881.6,-153.07 885.76,-162.81 890.93,-158.09"/>
</g>
<!-- com.example.sms.domain.model.sales.sales&#45;&gt;com.example.sms.domain.model.sales.order -->
<g id="edge9" class="edge">
<title>com.example.sms.domain.model.sales.sales&#45;&gt;com.example.sms.domain.model.sales.order</title>
<path fill="none" stroke="black" d="M1044.48,-355.63C1037.33,-352.73 1029.84,-350.03 1022.62,-348 936.64,-323.84 911.25,-337.29 823.62,-320 822.24,-319.73 820.84,-319.44 819.42,-319.15"/>
<polygon fill="black" stroke="black" points="820.48,-315.8 809.96,-317.07 818.98,-322.63 820.48,-315.8"/>
</g>
<!-- com.example.sms.domain.model.sales.sales&#45;&gt;com.example.sms.domain.model.master.partner -->
<g id="edge44" class="edge">
<title>com.example.sms.domain.model.sales.sales&#45;&gt;com.example.sms.domain.model.master.partner</title>
<path fill="none" stroke="black" d="M1094.14,-355.69C1108.42,-330.31 1134.08,-284.72 1150.72,-255.14"/>
<polygon fill="black" stroke="black" points="1153.6,-257.15 1155.46,-246.72 1147.5,-253.72 1153.6,-257.15"/>
</g>
<!-- com.example.sms.domain.model.sales.sales&#45;&gt;com.example.sms.domain.type.quantity -->
<g id="edge50" class="edge">
<title>com.example.sms.domain.model.sales.sales&#45;&gt;com.example.sms.domain.type.quantity</title>
<path fill="none" stroke="black" d="M1076.72,-355.64C1058.09,-307.67 1002.03,-179.52 912.62,-113 880.62,-89.19 837.62,-75.45 803.68,-67.73"/>
<polygon fill="black" stroke="black" points="804.54,-64.34 794.02,-65.66 803.07,-71.18 804.54,-64.34"/>
</g>
<!-- com.example.sms.domain.model.sales.sales&#45;&gt;com.example.sms.domain.model.master.partner.customer -->
<g id="edge35" class="edge">
<title>com.example.sms.domain.model.sales.sales&#45;&gt;com.example.sms.domain.model.master.partner.customer</title>
<path fill="none" stroke="black" d="M1122.65,-355.52C1160.99,-334.57 1217.19,-296.78 1241.62,-245.25 1255.12,-216.79 1236.46,-183.7 1218.41,-160.92"/>
<polygon fill="black" stroke="black" points="1221.14,-158.73 1212.05,-153.3 1215.77,-163.22 1221.14,-158.73"/>
</g>
<!-- com.example.sms.domain.model.sales.sales&#45;&gt;com.example.sms.domain.model.master.product -->
<g id="edge40" class="edge">
<title>com.example.sms.domain.model.sales.sales&#45;&gt;com.example.sms.domain.model.master.product</title>
<path fill="none" stroke="black" d="M1041.11,-355.58C1034.93,-352.97 1028.63,-350.37 1022.62,-348 988.37,-334.46 978.63,-334.14 944.62,-320 892.74,-298.42 834.77,-270.37 795.43,-250.72"/>
<polygon fill="black" stroke="black" points="797.2,-247.69 786.7,-246.34 794.07,-253.95 797.2,-247.69"/>
</g>
<!-- com.example.sms.domain.model.sales.sales&#45;&gt;com.example.sms.domain.model.master.department -->
<g id="edge32" class="edge">
<title>com.example.sms.domain.model.sales.sales&#45;&gt;com.example.sms.domain.model.master.department</title>
<path fill="none" stroke="black" d="M1045.6,-355.54C1038.14,-352.54 1030.26,-349.82 1022.62,-348 823.41,-300.42 755.64,-388.54 562.62,-320 522.78,-305.85 484.33,-275.58 459.72,-253.37"/>
<polygon fill="black" stroke="black" points="462.14,-250.84 452.42,-246.63 457.39,-255.98 462.14,-250.84"/>
</g>
<!-- com.example.sms.domain.model.sales.sales&#45;&gt;com.example.sms.domain.model.system.autonumber -->
<g id="edge29" class="edge">
<title>com.example.sms.domain.model.sales.sales&#45;&gt;com.example.sms.domain.model.system.autonumber</title>
<path fill="none" stroke="black" d="M1139.18,-366.1C1178.92,-358.44 1232.59,-344.42 1274.62,-320 1303.85,-303.02 1330.71,-275.02 1348.35,-254.15"/>
<polygon fill="black" stroke="black" points="1350.93,-256.52 1354.6,-246.58 1345.53,-252.07 1350.93,-256.52"/>
</g>
<!-- com.example.sms.domain.model.master.department&#45;&gt;com.example.sms.domain.model.master.employee -->
<g id="edge51" class="edge">
<title>com.example.sms.domain.model.master.department&#45;&gt;com.example.sms.domain.model.master.employee</title>
<path fill="none" stroke="red" stroke-width="2" d="M450.69,-196.86C457.92,-185.65 466.23,-172.76 473.47,-161.53"/>
<polygon fill="red" stroke="red" stroke-width="2" points="448.68,-193.51 446.2,-203.81 454.57,-197.31 448.68,-193.51"/>
<polygon fill="red" stroke="red" stroke-width="2" points="475.38,-165.02 477.86,-154.72 469.5,-161.23 475.38,-165.02"/>
</g>
<!-- com.example.sms.domain.model.sales.shipping.rule -->
<g id="node18" class="node">
<title>com.example.sms.domain.model.sales.shipping.rule</title>
<g id="a_node18"><a xlink:href="./domain.html#com.example.sms.domain.model.sales.shipping.rule" xlink:title="出荷ルール\nrule">
<polygon fill="#eedd82" stroke="black" points="692.75,-497.62 590.5,-497.62 590.5,-458.88 692.75,-458.88 692.75,-497.62"/>
<text text-anchor="middle" x="641.62" y="-480.32" font-family="Times New Roman,serif" font-size="14.00">出荷ルール</text>
<text text-anchor="middle" x="641.62" y="-466.07" font-family="Times New Roman,serif" font-size="14.00">rule</text>
</a>
</g>
</g>
<!-- com.example.sms.domain.model.sales.shipping.rule&#45;&gt;com.example.sms.domain.model.sales.order -->
<g id="edge47" class="edge">
<title>com.example.sms.domain.model.sales.shipping.rule&#45;&gt;com.example.sms.domain.model.sales.order</title>
<path fill="none" stroke="black" d="M653.4,-458.46C672.75,-427.56 711.39,-365.86 734.01,-329.75"/>
<polygon fill="black" stroke="black" points="736.79,-331.9 739.13,-321.57 730.86,-328.18 736.79,-331.9"/>
</g>
<!-- com.example.sms.domain.model.sales.shipping.rule&#45;&gt;com.example.sms.domain.model.sales.shipping -->
<g id="edge15" class="edge">
<title>com.example.sms.domain.model.sales.shipping.rule&#45;&gt;com.example.sms.domain.model.sales.shipping</title>
<path fill="none" stroke="black" d="M629.7,-458.75C619.96,-443.63 606.03,-422 594.88,-404.7"/>
<polygon fill="black" stroke="black" points="597.87,-402.88 589.51,-396.37 591.99,-406.68 597.87,-402.88"/>
</g>
<!-- com.example.sms.domain.model.sales.invoice -->
<g id="node21" class="node">
<title>com.example.sms.domain.model.sales.invoice</title>
<g id="a_node21"><a xlink:href="./domain.html#com.example.sms.domain.model.sales.invoice" xlink:title="請求\nmodel.sales.invoice">
<polygon fill="#eedd82" stroke="black" points="1228.62,-497.62 1104.62,-497.62 1104.62,-458.88 1228.62,-458.88 1228.62,-497.62"/>
<text text-anchor="middle" x="1166.62" y="-480.32" font-family="Times New Roman,serif" font-size="14.00">請求</text>
<text text-anchor="middle" x="1166.62" y="-466.07" font-family="Times New Roman,serif" font-size="14.00">model.sales.invoice</text>
</a>
</g>
</g>
<!-- com.example.sms.domain.model.sales.invoice&#45;&gt;com.example.sms.domain.type.money -->
<g id="edge45" class="edge">
<title>com.example.sms.domain.model.sales.invoice&#45;&gt;com.example.sms.domain.type.money</title>
<path fill="none" stroke="black" d="M1104.25,-477.58C1033.58,-476.54 924.56,-470.15 896.62,-441.5 858.71,-402.62 860.07,-233.45 862.34,-163.65"/>
<polygon fill="black" stroke="black" points="865.84,-163.84 862.7,-153.72 858.84,-163.59 865.84,-163.84"/>
</g>
<!-- com.example.sms.domain.model.sales.invoice&#45;&gt;com.example.sms.domain.model.master.partner -->
<g id="edge39" class="edge">
<title>com.example.sms.domain.model.sales.invoice&#45;&gt;com.example.sms.domain.model.master.partner</title>
<path fill="none" stroke="black" d="M1166.62,-458.43C1166.62,-415.37 1166.62,-309.36 1166.62,-257.05"/>
<polygon fill="black" stroke="black" points="1170.13,-257.08 1166.63,-247.08 1163.13,-257.08 1170.13,-257.08"/>
</g>
<!-- com.example.sms.domain.model.sales.invoice&#45;&gt;com.example.sms.domain.model.master.partner.customer -->
<g id="edge30" class="edge">
<title>com.example.sms.domain.model.sales.invoice&#45;&gt;com.example.sms.domain.model.master.partner.customer</title>
<path fill="none" stroke="black" d="M1213.86,-458.4C1221.77,-455.36 1229.91,-452.29 1237.62,-449.5 1248.2,-445.67 1252.05,-447.39 1261.62,-441.5 1367.17,-376.59 1411.96,-359.62 1459.62,-245.25 1497.3,-154.86 1322.97,-137.26 1237.52,-134"/>
<polygon fill="black" stroke="black" points="1237.7,-130.51 1227.59,-133.68 1237.48,-137.5 1237.7,-130.51"/>
</g>
<!-- com.example.sms.domain.model.sales.invoice&#45;&gt;com.example.sms.domain.model.sales.sales -->
<g id="edge48" class="edge">
<title>com.example.sms.domain.model.sales.invoice&#45;&gt;com.example.sms.domain.model.sales.sales</title>
<path fill="none" stroke="black" d="M1151.4,-458.75C1138.73,-443.35 1120.5,-421.19 1106.14,-403.74"/>
<polygon fill="black" stroke="black" points="1109.05,-401.77 1099.99,-396.27 1103.65,-406.22 1109.05,-401.77"/>
</g>
<!-- com.example.sms.domain.model.sales.invoice&#45;&gt;com.example.sms.domain.model.system.autonumber -->
<g id="edge43" class="edge">
<title>com.example.sms.domain.model.sales.invoice&#45;&gt;com.example.sms.domain.model.system.autonumber</title>
<path fill="none" stroke="black" d="M1186.39,-458.5C1215.77,-430.09 1271.88,-373.73 1312.62,-320 1328.28,-299.35 1343.47,-274.21 1354.22,-255.25"/>
<polygon fill="black" stroke="black" points="1357.15,-257.18 1358.98,-246.75 1351.04,-253.77 1357.15,-257.18"/>
</g>
<!-- com.example.sms.domain.model.system.audit -->
<g id="node22" class="node">
<title>com.example.sms.domain.model.system.audit</title>
<g id="a_node22"><a xlink:href="./domain.html#com.example.sms.domain.model.system.audit" xlink:title="監査\nmodel.system.audit">
<polygon fill="#eedd82" stroke="black" points="123.25,-151.75 0,-151.75 0,-113 123.25,-113 123.25,-151.75"/>
<text text-anchor="middle" x="61.62" y="-134.45" font-family="Times New Roman,serif" font-size="14.00">監査</text>
<text text-anchor="middle" x="61.62" y="-120.2" font-family="Times New Roman,serif" font-size="14.00">model.system.audit</text>
</a>
</g>
</g>
<!-- com.example.sms.domain.model.system.audit&#45;&gt;com.example.sms.domain.model.system.user -->
<g id="edge37" class="edge">
<title>com.example.sms.domain.model.system.audit&#45;&gt;com.example.sms.domain.model.system.user</title>
<path fill="none" stroke="black" d="M97.42,-112.64C114.93,-103.48 136.21,-92.34 154.88,-82.57"/>
<polygon fill="black" stroke="black" points="156.37,-85.74 163.61,-78 153.13,-79.53 156.37,-85.74"/>
</g>
<!-- com.example.sms.domain.model.system.auth -->
<g id="node23" class="node">
<title>com.example.sms.domain.model.system.auth</title>
<g id="a_node23"><a xlink:href="./domain.html#com.example.sms.domain.model.system.auth" xlink:title="認証\nmodel.system.auth">
<polygon fill="#eedd82" stroke="black" points="260.38,-151.75 140.88,-151.75 140.88,-113 260.38,-113 260.38,-151.75"/>
<text text-anchor="middle" x="200.62" y="-134.45" font-family="Times New Roman,serif" font-size="14.00">認証</text>
<text text-anchor="middle" x="200.62" y="-120.2" font-family="Times New Roman,serif" font-size="14.00">model.system.auth</text>
</a>
</g>
</g>
<!-- com.example.sms.domain.model.system.auth&#45;&gt;com.example.sms.domain.model.system.user -->
<g id="edge49" class="edge">
<title>com.example.sms.domain.model.system.auth&#45;&gt;com.example.sms.domain.model.system.user</title>
<path fill="none" stroke="black" d="M200.62,-112.64C200.62,-105.34 200.62,-96.79 200.62,-88.68"/>
<polygon fill="black" stroke="black" points="204.13,-88.81 200.63,-78.81 197.13,-88.81 204.13,-88.81"/>
</g>
<!-- com.example.sms.domain.model.system.download -->
<g id="node25" class="node">
<title>com.example.sms.domain.model.system.download</title>
<g id="a_node25"><a xlink:href="./domain.html#com.example.sms.domain.model.system.download" xlink:title="データダウンロード\nmodel.system.download">
<polygon fill="#eedd82" stroke="black" points="1418.25,-497.62 1247,-497.62 1247,-458.88 1418.25,-458.88 1418.25,-497.62"/>
<text text-anchor="middle" x="1332.62" y="-480.32" font-family="Times New Roman,serif" font-size="14.00">データダウンロード</text>
<text text-anchor="middle" x="1332.62" y="-466.07" font-family="Times New Roman,serif" font-size="14.00">model.system.download</text>
</a>
</g>
</g>
</g>
</svg>
