<?xml version="1.0" encoding="UTF-8" standalone="no"?>
<!DOCTYPE svg PUBLIC "-//W3C//DTD SVG 1.1//EN"
 "http://www.w3.org/Graphics/SVG/1.1/DTD/svg11.dtd">
<!-- Generated by graphviz version 12.2.0 (20241103.1931)
 -->
<!-- Title: パッケージ関連図 Pages: 1 -->
<svg width="1244pt" height="552pt"
 viewBox="0.00 0.00 1244.00 552.38" xmlns="http://www.w3.org/2000/svg" xmlns:xlink="http://www.w3.org/1999/xlink">
<g id="graph0" class="graph" transform="scale(1 1) rotate(0) translate(4 548.38)">
<title>パッケージ関連図</title>
<polygon fill="white" stroke="none" points="-4,4 -4,-548.38 1240,-548.38 1240,4 -4,4"/>
<text text-anchor="middle" x="618" y="-4.95" font-family="Times New Roman,serif" font-size="14.00">パッケージ関連図</text>
<g id="clust1" class="cluster">
<title>cluster_com.example.sms.domain.model.system</title>
<polygon fill="lemonchiffon" stroke="#eedd82" stroke-width="2" points="758.75,-89 758.75,-257.25 1194.75,-257.25 1194.75,-89 758.75,-89"/>
<text text-anchor="middle" x="976.75" y="-239.95" font-family="Times New Roman,serif" font-size="14.00">システム</text>
<text text-anchor="middle" x="976.75" y="-225.7" font-family="Times New Roman,serif" font-size="14.00">model.system</text>
</g>
<g id="clust2" class="cluster">
<title>cluster_com.example.sms.domain.model.master</title>
<polygon fill="lemonchiffon" stroke="#eedd82" stroke-width="2" points="280.75,-89 280.75,-358.75 452.75,-358.75 452.75,-89 280.75,-89"/>
<text text-anchor="middle" x="366.75" y="-341.45" font-family="Times New Roman,serif" font-size="14.00">マスタ</text>
<text text-anchor="middle" x="366.75" y="-327.2" font-family="Times New Roman,serif" font-size="14.00">model.master</text>
</g>
<g id="clust3" class="cluster">
<title>cluster_com.example.sms.domain.model.sales</title>
<polygon fill="lemonchiffon" stroke="#eedd82" stroke-width="2" points="460.75,-265.25 460.75,-536.38 610.75,-536.38 610.75,-265.25 460.75,-265.25"/>
<text text-anchor="middle" x="535.75" y="-519.08" font-family="Times New Roman,serif" font-size="14.00">販売</text>
<text text-anchor="middle" x="535.75" y="-504.82" font-family="Times New Roman,serif" font-size="14.00">model.sales</text>
</g>
<!-- summary -->
<g id="node1" class="node">
<title>summary</title>
<polygon fill="none" stroke="black" points="446.75,-499 262.75,-499 262.75,-441.5 452.75,-441.5 452.75,-493 446.75,-499"/>
<polyline fill="none" stroke="black" points="446.75,-499 446.75,-493"/>
<polyline fill="none" stroke="black" points="452.75,-493 446.75,-493"/>
<text text-anchor="start" x="270.75" y="-481.7" font-family="Times New Roman,serif" font-size="14.00">root: com.example.sms.domain</text>
<text text-anchor="start" x="270.75" y="-465.2" font-family="Times New Roman,serif" font-size="14.00">パッケージ数: 19</text>
<text text-anchor="start" x="270.75" y="-448.7" font-family="Times New Roman,serif" font-size="14.00">関連数: 41</text>
</g>
<!-- com.example.sms.domain.model.sales.sales -->
<g id="node2" class="node">
<title>com.example.sms.domain.model.sales.sales</title>
<g id="a_node2"><a xlink:href="./domain.html#com.example.sms.domain.model.sales.sales" xlink:title="売上\nsales">
<polygon fill="#eedd82" stroke="black" points="602.75,-405.5 548.75,-405.5 548.75,-366.75 602.75,-366.75 602.75,-405.5"/>
<text text-anchor="middle" x="575.75" y="-388.2" font-family="Times New Roman,serif" font-size="14.00">売上</text>
<text text-anchor="middle" x="575.75" y="-373.95" font-family="Times New Roman,serif" font-size="14.00">sales</text>
</a>
</g>
</g>
<!-- com.example.sms.domain.model.system.autonumber -->
<g id="node3" class="node">
<title>com.example.sms.domain.model.system.autonumber</title>
<g id="a_node3"><a xlink:href="./domain.html#com.example.sms.domain.model.system.autonumber" xlink:title="自動採番\nautonumber">
<polygon fill="#eedd82" stroke="black" points="852.25,-210.5 767.25,-210.5 767.25,-171.75 852.25,-171.75 852.25,-210.5"/>
<text text-anchor="middle" x="809.75" y="-193.2" font-family="Times New Roman,serif" font-size="14.00">自動採番</text>
<text text-anchor="middle" x="809.75" y="-178.95" font-family="Times New Roman,serif" font-size="14.00">autonumber</text>
</a>
</g>
</g>
<!-- com.example.sms.domain.model.sales.sales&#45;&gt;com.example.sms.domain.model.system.autonumber -->
<g id="edge1" class="edge">
<title>com.example.sms.domain.model.sales.sales&#45;&gt;com.example.sms.domain.model.system.autonumber</title>
<path fill="none" stroke="black" d="M603.14,-382.66C638.39,-379.02 697.21,-371.27 714.75,-358.75 762.03,-324.99 788.99,-259.87 801.36,-221.8"/>
<polygon fill="black" stroke="black" points="804.67,-222.95 804.29,-212.36 797.99,-220.88 804.67,-222.95"/>
</g>
<!-- com.example.sms.domain.model.master.employee -->
<g id="node4" class="node">
<title>com.example.sms.domain.model.master.employee</title>
<g id="a_node4"><a xlink:href="./domain.html#com.example.sms.domain.model.master.employee" xlink:title="社員\nemployee">
<polygon fill="#eedd82" stroke="black" points="444.38,-210.5 375.12,-210.5 375.12,-171.75 444.38,-171.75 444.38,-210.5"/>
<text text-anchor="middle" x="409.75" y="-193.2" font-family="Times New Roman,serif" font-size="14.00">社員</text>
<text text-anchor="middle" x="409.75" y="-178.95" font-family="Times New Roman,serif" font-size="14.00">employee</text>
</a>
</g>
</g>
<!-- com.example.sms.domain.model.sales.sales&#45;&gt;com.example.sms.domain.model.master.employee -->
<g id="edge36" class="edge">
<title>com.example.sms.domain.model.sales.sales&#45;&gt;com.example.sms.domain.model.master.employee</title>
<path fill="none" stroke="black" d="M548.32,-369.61C545.49,-368.47 542.6,-367.48 539.75,-366.75 525.91,-363.19 292.69,-369.01 282.75,-358.75 253.83,-328.91 254.81,-296.01 282.75,-265.25 295.21,-251.53 349.82,-266.72 365.75,-257.25 379.63,-249 390.08,-234.45 397.31,-221.2"/>
<polygon fill="black" stroke="black" points="400.39,-222.86 401.74,-212.35 394.13,-219.73 400.39,-222.86"/>
</g>
<!-- com.example.sms.domain.model.master.partner -->
<g id="node7" class="node">
<title>com.example.sms.domain.model.master.partner</title>
<g id="a_node7"><a xlink:href="./domain.html#com.example.sms.domain.model.master.partner" xlink:title="取引先\npartner">
<polygon fill="#eedd82" stroke="black" points="356.62,-210.5 288.88,-210.5 288.88,-171.75 356.62,-171.75 356.62,-210.5"/>
<text text-anchor="middle" x="322.75" y="-193.2" font-family="Times New Roman,serif" font-size="14.00">取引先</text>
<text text-anchor="middle" x="322.75" y="-178.95" font-family="Times New Roman,serif" font-size="14.00">partner</text>
</a>
</g>
</g>
<!-- com.example.sms.domain.model.sales.sales&#45;&gt;com.example.sms.domain.model.master.partner -->
<g id="edge29" class="edge">
<title>com.example.sms.domain.model.sales.sales&#45;&gt;com.example.sms.domain.model.master.partner</title>
<path fill="none" stroke="black" d="M548.33,-369.6C545.49,-368.46 542.61,-367.48 539.75,-366.75 524.56,-362.87 268.67,-369.99 257.75,-358.75 228.79,-328.95 242.98,-304.09 257.75,-265.25 264.53,-247.41 277.89,-231.14 290.74,-218.5"/>
<polygon fill="black" stroke="black" points="293.02,-221.16 297.93,-211.77 288.23,-216.05 293.02,-221.16"/>
</g>
<!-- com.example.sms.domain.model.master.department -->
<g id="node8" class="node">
<title>com.example.sms.domain.model.master.department</title>
<g id="a_node8"><a xlink:href="./domain.html#com.example.sms.domain.model.master.department" xlink:title="部門\ndepartment">
<polygon fill="#eedd82" stroke="black" points="369.5,-312 292,-312 292,-273.25 369.5,-273.25 369.5,-312"/>
<text text-anchor="middle" x="330.75" y="-294.7" font-family="Times New Roman,serif" font-size="14.00">部門</text>
<text text-anchor="middle" x="330.75" y="-280.45" font-family="Times New Roman,serif" font-size="14.00">department</text>
</a>
</g>
</g>
<!-- com.example.sms.domain.model.sales.sales&#45;&gt;com.example.sms.domain.model.master.department -->
<g id="edge4" class="edge">
<title>com.example.sms.domain.model.sales.sales&#45;&gt;com.example.sms.domain.model.master.department</title>
<path fill="none" stroke="black" d="M548.31,-369.66C545.48,-368.51 542.6,-367.51 539.75,-366.75 504.92,-357.46 409.42,-375.95 377.75,-358.75 363.01,-350.74 351.74,-335.88 343.94,-322.36"/>
<polygon fill="black" stroke="black" points="347.15,-320.95 339.36,-313.77 340.97,-324.24 347.15,-320.95"/>
</g>
<!-- com.example.sms.domain.model.sales.order -->
<g id="node9" class="node">
<title>com.example.sms.domain.model.sales.order</title>
<g id="a_node9"><a xlink:href="./domain.html#com.example.sms.domain.model.sales.order" xlink:title="受注\norder">
<polygon fill="#eedd82" stroke="black" points="526.75,-312 472.75,-312 472.75,-273.25 526.75,-273.25 526.75,-312"/>
<text text-anchor="middle" x="499.75" y="-294.7" font-family="Times New Roman,serif" font-size="14.00">受注</text>
<text text-anchor="middle" x="499.75" y="-280.45" font-family="Times New Roman,serif" font-size="14.00">order</text>
</a>
</g>
</g>
<!-- com.example.sms.domain.model.sales.sales&#45;&gt;com.example.sms.domain.model.sales.order -->
<g id="edge13" class="edge">
<title>com.example.sms.domain.model.sales.sales&#45;&gt;com.example.sms.domain.model.sales.order</title>
<path fill="none" stroke="black" d="M560.37,-366.61C549.52,-353.55 534.81,-335.83 522.59,-321.13"/>
<polygon fill="black" stroke="black" points="525.42,-319.05 516.33,-313.59 520.03,-323.52 525.42,-319.05"/>
</g>
<!-- com.example.sms.domain.type.quantity -->
<g id="node11" class="node">
<title>com.example.sms.domain.type.quantity</title>
<g id="a_node11"><a xlink:href="./domain.html#com.example.sms.domain.type.quantity" xlink:title="数量\ntype.quantity">
<polygon fill="#eedd82" stroke="black" points="649.38,-61 562.12,-61 562.12,-22.25 649.38,-22.25 649.38,-61"/>
<text text-anchor="middle" x="605.75" y="-43.7" font-family="Times New Roman,serif" font-size="14.00">数量</text>
<text text-anchor="middle" x="605.75" y="-29.45" font-family="Times New Roman,serif" font-size="14.00">type.quantity</text>
</a>
</g>
</g>
<!-- com.example.sms.domain.model.sales.sales&#45;&gt;com.example.sms.domain.type.quantity -->
<g id="edge39" class="edge">
<title>com.example.sms.domain.model.sales.sales&#45;&gt;com.example.sms.domain.type.quantity</title>
<path fill="none" stroke="black" d="M603,-385.27C623.86,-383.76 651.4,-377.91 665.75,-358.75 737.68,-262.71 708.73,-196.16 654.75,-89 651.09,-81.74 645.81,-75 640.06,-69.04"/>
<polygon fill="black" stroke="black" points="642.79,-66.81 633.13,-62.46 637.97,-71.89 642.79,-66.81"/>
</g>
<!-- com.example.sms.domain.model.master.product -->
<g id="node12" class="node">
<title>com.example.sms.domain.model.master.product</title>
<g id="a_node12"><a xlink:href="./domain.html#com.example.sms.domain.model.master.product" xlink:title="商品\nproduct">
<polygon fill="#eedd82" stroke="black" points="444.38,-312 387.12,-312 387.12,-273.25 444.38,-273.25 444.38,-312"/>
<text text-anchor="middle" x="415.75" y="-294.7" font-family="Times New Roman,serif" font-size="14.00">商品</text>
<text text-anchor="middle" x="415.75" y="-280.45" font-family="Times New Roman,serif" font-size="14.00">product</text>
</a>
</g>
</g>
<!-- com.example.sms.domain.model.sales.sales&#45;&gt;com.example.sms.domain.model.master.product -->
<g id="edge21" class="edge">
<title>com.example.sms.domain.model.sales.sales&#45;&gt;com.example.sms.domain.model.master.product</title>
<path fill="none" stroke="black" d="M548.27,-369.8C545.45,-368.63 542.58,-367.58 539.75,-366.75 521.96,-361.56 472.52,-368.47 456.75,-358.75 443.29,-350.45 433.51,-335.9 426.89,-322.66"/>
<polygon fill="black" stroke="black" points="430.2,-321.49 422.87,-313.84 423.83,-324.39 430.2,-321.49"/>
</g>
<!-- com.example.sms.domain.type.money -->
<g id="node13" class="node">
<title>com.example.sms.domain.type.money</title>
<g id="a_node13"><a xlink:href="./domain.html#com.example.sms.domain.type.money" xlink:title="通貨\ntype.money">
<polygon fill="#eedd82" stroke="black" points="646,-135.75 565.5,-135.75 565.5,-97 646,-97 646,-135.75"/>
<text text-anchor="middle" x="605.75" y="-118.45" font-family="Times New Roman,serif" font-size="14.00">通貨</text>
<text text-anchor="middle" x="605.75" y="-104.2" font-family="Times New Roman,serif" font-size="14.00">type.money</text>
</a>
</g>
</g>
<!-- com.example.sms.domain.model.sales.sales&#45;&gt;com.example.sms.domain.type.money -->
<g id="edge10" class="edge">
<title>com.example.sms.domain.model.sales.sales&#45;&gt;com.example.sms.domain.type.money</title>
<path fill="none" stroke="black" d="M603.2,-380.82C616.29,-377.24 630.8,-370.69 638.75,-358.75 684.79,-289.56 661.14,-251.79 638.75,-171.75 636.2,-162.63 631.65,-153.51 626.73,-145.43"/>
<polygon fill="black" stroke="black" points="629.67,-143.52 621.26,-137.07 623.81,-147.36 629.67,-143.52"/>
</g>
<!-- com.example.sms.domain.model.system.user -->
<g id="node5" class="node">
<title>com.example.sms.domain.model.system.user</title>
<g id="a_node5"><a xlink:href="./domain.html#com.example.sms.domain.model.system.user" xlink:title="ユーザー\nuser">
<polygon fill="#eedd82" stroke="black" points="940.25,-135.75 855.25,-135.75 855.25,-97 940.25,-97 940.25,-135.75"/>
<text text-anchor="middle" x="897.75" y="-118.45" font-family="Times New Roman,serif" font-size="14.00">ユーザー</text>
<text text-anchor="middle" x="897.75" y="-104.2" font-family="Times New Roman,serif" font-size="14.00">user</text>
</a>
</g>
</g>
<!-- com.example.sms.domain.model.master.employee&#45;&gt;com.example.sms.domain.model.system.user -->
<g id="edge2" class="edge">
<title>com.example.sms.domain.model.master.employee&#45;&gt;com.example.sms.domain.model.system.user</title>
<path fill="none" stroke="black" d="M444.85,-184.89C529.02,-172.34 742.85,-140.47 843.63,-125.44"/>
<polygon fill="black" stroke="black" points="843.89,-128.94 853.27,-124.01 842.86,-122.02 843.89,-128.94"/>
</g>
<!-- com.example.sms.domain.type.phone -->
<g id="node10" class="node">
<title>com.example.sms.domain.type.phone</title>
<g id="a_node10"><a xlink:href="./domain.html#com.example.sms.domain.type.phone" xlink:title="電話番号\ntype.phone">
<polygon fill="#eedd82" stroke="black" points="272.25,-135.75 187.25,-135.75 187.25,-97 272.25,-97 272.25,-135.75"/>
<text text-anchor="middle" x="229.75" y="-118.45" font-family="Times New Roman,serif" font-size="14.00">電話番号</text>
<text text-anchor="middle" x="229.75" y="-104.2" font-family="Times New Roman,serif" font-size="14.00">type.phone</text>
</a>
</g>
</g>
<!-- com.example.sms.domain.model.master.employee&#45;&gt;com.example.sms.domain.type.phone -->
<g id="edge7" class="edge">
<title>com.example.sms.domain.model.master.employee&#45;&gt;com.example.sms.domain.type.phone</title>
<path fill="none" stroke="black" d="M374.71,-175.43C371.68,-174.18 368.66,-172.94 365.75,-171.75 338.56,-160.64 308.22,-148.49 283.11,-138.49"/>
<polygon fill="black" stroke="black" points="284.69,-135.35 274.1,-134.91 282.1,-141.86 284.69,-135.35"/>
</g>
<!-- com.example.sms.domain.model.sales.shipping -->
<g id="node6" class="node">
<title>com.example.sms.domain.model.sales.shipping</title>
<g id="a_node6"><a xlink:href="./domain.html#com.example.sms.domain.model.sales.shipping" xlink:title="出荷\nshipping">
<polygon fill="#eedd82" stroke="black" points="531,-405.5 468.5,-405.5 468.5,-366.75 531,-366.75 531,-405.5"/>
<text text-anchor="middle" x="499.75" y="-388.2" font-family="Times New Roman,serif" font-size="14.00">出荷</text>
<text text-anchor="middle" x="499.75" y="-373.95" font-family="Times New Roman,serif" font-size="14.00">shipping</text>
</a>
</g>
</g>
<!-- com.example.sms.domain.model.sales.shipping&#45;&gt;com.example.sms.domain.model.master.employee -->
<g id="edge15" class="edge">
<title>com.example.sms.domain.model.sales.shipping&#45;&gt;com.example.sms.domain.model.master.employee</title>
<path fill="none" stroke="black" d="M468.33,-384.11C404.42,-381.73 264.13,-374.73 249.75,-358.75 221.95,-327.86 221.39,-295.63 249.75,-265.25 267.38,-246.36 343.36,-270.15 365.75,-257.25 379.84,-249.13 390.34,-234.46 397.55,-221.1"/>
<polygon fill="black" stroke="black" points="400.67,-222.69 401.96,-212.17 394.39,-219.59 400.67,-222.69"/>
</g>
<!-- com.example.sms.domain.model.sales.shipping&#45;&gt;com.example.sms.domain.model.master.partner -->
<g id="edge3" class="edge">
<title>com.example.sms.domain.model.sales.shipping&#45;&gt;com.example.sms.domain.model.master.partner</title>
<path fill="none" stroke="black" d="M468.09,-384.43C399.26,-382.6 240.86,-376.48 224.75,-358.75 196.8,-328 206.12,-302.4 224.75,-265.25 236.2,-242.42 258.53,-224.9 278.99,-212.74"/>
<polygon fill="black" stroke="black" points="280.51,-215.9 287.51,-207.94 277.08,-209.8 280.51,-215.9"/>
</g>
<!-- com.example.sms.domain.model.sales.shipping&#45;&gt;com.example.sms.domain.model.master.department -->
<g id="edge24" class="edge">
<title>com.example.sms.domain.model.sales.shipping&#45;&gt;com.example.sms.domain.model.master.department</title>
<path fill="none" stroke="black" d="M468.05,-384.44C441.91,-382.5 404.86,-376.48 377.75,-358.75 364.03,-349.78 353,-335.31 345.08,-322.29"/>
<polygon fill="black" stroke="black" points="348.13,-320.57 340.15,-313.6 342.04,-324.03 348.13,-320.57"/>
</g>
<!-- com.example.sms.domain.model.sales.shipping&#45;&gt;com.example.sms.domain.model.sales.order -->
<g id="edge17" class="edge">
<title>com.example.sms.domain.model.sales.shipping&#45;&gt;com.example.sms.domain.model.sales.order</title>
<path fill="none" stroke="black" d="M499.75,-366.61C499.75,-354.29 499.75,-337.82 499.75,-323.65"/>
<polygon fill="black" stroke="black" points="503.25,-323.94 499.75,-313.94 496.25,-323.94 503.25,-323.94"/>
</g>
<!-- com.example.sms.domain.model.sales.shipping&#45;&gt;com.example.sms.domain.type.quantity -->
<g id="edge8" class="edge">
<title>com.example.sms.domain.model.sales.shipping&#45;&gt;com.example.sms.domain.type.quantity</title>
<path fill="none" stroke="black" d="M531.33,-369.7C534.14,-368.61 536.97,-367.6 539.75,-366.75 610.71,-344.98 1150.76,-313.87 1198.75,-257.25 1247.1,-200.2 1249.52,-143.9 1198.75,-89 1162.65,-49.96 800.8,-43.72 660.73,-42.77"/>
<polygon fill="black" stroke="black" points="660.98,-39.28 650.96,-42.71 660.94,-46.27 660.98,-39.28"/>
</g>
<!-- com.example.sms.domain.model.sales.shipping&#45;&gt;com.example.sms.domain.model.master.product -->
<g id="edge26" class="edge">
<title>com.example.sms.domain.model.sales.shipping&#45;&gt;com.example.sms.domain.model.master.product</title>
<path fill="none" stroke="black" d="M468.41,-368.3C464.26,-365.4 460.24,-362.2 456.75,-358.75 446.06,-348.18 436.85,-334.33 429.88,-322.11"/>
<polygon fill="black" stroke="black" points="433.14,-320.79 425.29,-313.68 426.99,-324.13 433.14,-320.79"/>
</g>
<!-- com.example.sms.domain.model.sales.shipping&#45;&gt;com.example.sms.domain.type.money -->
<g id="edge35" class="edge">
<title>com.example.sms.domain.model.sales.shipping&#45;&gt;com.example.sms.domain.type.money</title>
<path fill="none" stroke="black" d="M527.87,-366.35C530.68,-363.95 533.37,-361.4 535.75,-358.75 570.64,-319.96 579.21,-307.06 594.75,-257.25 606.18,-220.63 607.71,-176.12 607.19,-147.3"/>
<polygon fill="black" stroke="black" points="610.7,-147.38 606.91,-137.49 603.7,-147.58 610.7,-147.38"/>
</g>
<!-- com.example.sms.domain.model.master.partner&#45;&gt;com.example.sms.domain.type.phone -->
<g id="edge28" class="edge">
<title>com.example.sms.domain.model.master.partner&#45;&gt;com.example.sms.domain.type.phone</title>
<path fill="none" stroke="black" d="M298.8,-171.39C287.74,-162.73 274.42,-152.32 262.45,-142.96"/>
<polygon fill="black" stroke="black" points="264.84,-140.38 254.81,-136.98 260.53,-145.9 264.84,-140.38"/>
</g>
<!-- com.example.sms.domain.model.master.partner&#45;&gt;com.example.sms.domain.type.money -->
<g id="edge27" class="edge">
<title>com.example.sms.domain.model.master.partner&#45;&gt;com.example.sms.domain.type.money</title>
<path fill="none" stroke="black" d="M356.8,-174.91C359.8,-173.77 362.82,-172.7 365.75,-171.75 429.34,-151.15 504.85,-135.42 553.95,-126.3"/>
<polygon fill="black" stroke="black" points="554.54,-129.75 563.74,-124.51 553.28,-122.87 554.54,-129.75"/>
</g>
<!-- com.example.sms.domain.model.master.region -->
<g id="node14" class="node">
<title>com.example.sms.domain.model.master.region</title>
<g id="a_node14"><a xlink:href="./domain.html#com.example.sms.domain.model.master.region" xlink:title="地域\nregion">
<polygon fill="#eedd82" stroke="black" points="349.75,-135.75 295.75,-135.75 295.75,-97 349.75,-97 349.75,-135.75"/>
<text text-anchor="middle" x="322.75" y="-118.45" font-family="Times New Roman,serif" font-size="14.00">地域</text>
<text text-anchor="middle" x="322.75" y="-104.2" font-family="Times New Roman,serif" font-size="14.00">region</text>
</a>
</g>
</g>
<!-- com.example.sms.domain.model.master.partner&#45;&gt;com.example.sms.domain.model.master.region -->
<g id="edge11" class="edge">
<title>com.example.sms.domain.model.master.partner&#45;&gt;com.example.sms.domain.model.master.region</title>
<path fill="none" stroke="black" d="M322.75,-171.39C322.75,-164.09 322.75,-155.54 322.75,-147.43"/>
<polygon fill="black" stroke="black" points="326.25,-147.56 322.75,-137.56 319.25,-147.56 326.25,-147.56"/>
</g>
<!-- com.example.sms.domain.type.mail -->
<g id="node16" class="node">
<title>com.example.sms.domain.type.mail</title>
<g id="a_node16"><a xlink:href="./domain.html#com.example.sms.domain.type.mail" xlink:title="メール\ntype.mail">
<polygon fill="#eedd82" stroke="black" points="169.62,-135.75 101.88,-135.75 101.88,-97 169.62,-97 169.62,-135.75"/>
<text text-anchor="middle" x="135.75" y="-118.45" font-family="Times New Roman,serif" font-size="14.00">メール</text>
<text text-anchor="middle" x="135.75" y="-104.2" font-family="Times New Roman,serif" font-size="14.00">type.mail</text>
</a>
</g>
</g>
<!-- com.example.sms.domain.model.master.partner&#45;&gt;com.example.sms.domain.type.mail -->
<g id="edge14" class="edge">
<title>com.example.sms.domain.model.master.partner&#45;&gt;com.example.sms.domain.type.mail</title>
<path fill="none" stroke="black" d="M288.55,-177.68C261.5,-167.73 222.56,-153.19 180.44,-136.36"/>
<polygon fill="black" stroke="black" points="181.95,-133.19 171.37,-132.72 179.34,-139.69 181.95,-133.19"/>
</g>
<!-- com.example.sms.domain.type.address -->
<g id="node18" class="node">
<title>com.example.sms.domain.type.address</title>
<g id="a_node18"><a xlink:href="./domain.html#com.example.sms.domain.type.address" xlink:title="住所\ntype.address">
<polygon fill="#eedd82" stroke="black" points="83.5,-135.75 0,-135.75 0,-97 83.5,-97 83.5,-135.75"/>
<text text-anchor="middle" x="41.75" y="-118.45" font-family="Times New Roman,serif" font-size="14.00">住所</text>
<text text-anchor="middle" x="41.75" y="-104.2" font-family="Times New Roman,serif" font-size="14.00">type.address</text>
</a>
</g>
</g>
<!-- com.example.sms.domain.model.master.partner&#45;&gt;com.example.sms.domain.type.address -->
<g id="edge25" class="edge">
<title>com.example.sms.domain.model.master.partner&#45;&gt;com.example.sms.domain.type.address</title>
<path fill="none" stroke="black" d="M288.53,-183.3C245.43,-174.44 168.98,-157.81 94.85,-136.21"/>
<polygon fill="black" stroke="black" points="95.96,-132.89 85.38,-133.42 93.98,-139.61 95.96,-132.89"/>
</g>
<!-- com.example.sms.domain.model.master.department&#45;&gt;com.example.sms.domain.model.master.employee -->
<g id="edge40" class="edge">
<title>com.example.sms.domain.model.master.department&#45;&gt;com.example.sms.domain.model.master.employee</title>
<path fill="none" stroke="red" stroke-width="2" d="M359.08,-264.79C361.4,-262.3 363.66,-259.77 365.75,-257.25 375.37,-245.7 384.85,-232.03 392.54,-220.21"/>
<polygon fill="red" stroke="red" stroke-width="2" points="357.66,-261.23 353.2,-270.84 362.68,-266.12 357.66,-261.23"/>
<polygon fill="red" stroke="red" stroke-width="2" points="394.49,-223.66 396.92,-213.35 388.59,-219.9 394.49,-223.66"/>
</g>
<!-- com.example.sms.domain.model.sales.order&#45;&gt;com.example.sms.domain.model.system.autonumber -->
<g id="edge23" class="edge">
<title>com.example.sms.domain.model.sales.order&#45;&gt;com.example.sms.domain.model.system.autonumber</title>
<path fill="none" stroke="black" d="M526.99,-282.88C578.14,-266.46 689.41,-230.75 756.11,-209.34"/>
<polygon fill="black" stroke="black" points="756.92,-212.76 765.37,-206.37 754.78,-206.09 756.92,-212.76"/>
</g>
<!-- com.example.sms.domain.model.sales.order&#45;&gt;com.example.sms.domain.model.master.employee -->
<g id="edge6" class="edge">
<title>com.example.sms.domain.model.sales.order&#45;&gt;com.example.sms.domain.model.master.employee</title>
<path fill="none" stroke="black" d="M482.82,-272.91C469.12,-257.76 449.64,-236.22 434.23,-219.19"/>
<polygon fill="black" stroke="black" points="436.92,-216.95 427.62,-211.88 431.73,-221.64 436.92,-216.95"/>
</g>
<!-- com.example.sms.domain.model.sales.order&#45;&gt;com.example.sms.domain.model.master.partner -->
<g id="edge5" class="edge">
<title>com.example.sms.domain.model.sales.order&#45;&gt;com.example.sms.domain.model.master.partner</title>
<path fill="none" stroke="black" d="M473.39,-272.87C468.09,-269.85 462.4,-267.12 456.75,-265.25 437.47,-258.88 383.19,-267.64 365.75,-257.25 351.88,-248.99 341.61,-234.31 334.59,-220.97"/>
<polygon fill="black" stroke="black" points="337.8,-219.57 330.3,-212.08 331.49,-222.61 337.8,-219.57"/>
</g>
<!-- com.example.sms.domain.model.sales.order&#45;&gt;com.example.sms.domain.model.master.department -->
<g id="edge18" class="edge">
<title>com.example.sms.domain.model.sales.order&#45;&gt;com.example.sms.domain.model.master.department</title>
<path fill="none" stroke="black" d="M490.72,-312.47C483.32,-326.9 471.65,-346.04 456.75,-358.75 444.9,-368.86 401.99,-365.98 386.75,-362.75 366.43,-358.44 352.09,-339.6 343,-322.53"/>
<polygon fill="black" stroke="black" points="346.2,-321.1 338.69,-313.64 339.91,-324.16 346.2,-321.1"/>
</g>
<!-- com.example.sms.domain.model.sales.order&#45;&gt;com.example.sms.domain.type.quantity -->
<g id="edge19" class="edge">
<title>com.example.sms.domain.model.sales.order&#45;&gt;com.example.sms.domain.type.quantity</title>
<path fill="none" stroke="black" d="M501.64,-272.98C506.11,-235.63 519.9,-149.99 556.75,-89 561.04,-81.9 566.71,-75.18 572.66,-69.17"/>
<polygon fill="black" stroke="black" points="574.87,-71.9 579.75,-62.49 570.07,-66.8 574.87,-71.9"/>
</g>
<!-- com.example.sms.domain.model.sales.order&#45;&gt;com.example.sms.domain.model.master.product -->
<g id="edge32" class="edge">
<title>com.example.sms.domain.model.sales.order&#45;&gt;com.example.sms.domain.model.master.product</title>
<path fill="none" stroke="black" d="M472.62,-292.62C467.08,-292.62 461.54,-292.62 456,-292.62"/>
<polygon fill="black" stroke="black" points="456.14,-289.13 446.14,-292.63 456.14,-296.13 456.14,-289.13"/>
</g>
<!-- com.example.sms.domain.model.sales.order&#45;&gt;com.example.sms.domain.type.money -->
<g id="edge22" class="edge">
<title>com.example.sms.domain.model.sales.order&#45;&gt;com.example.sms.domain.type.money</title>
<path fill="none" stroke="black" d="M527.15,-282.21C539.58,-276.69 553.53,-268.54 562.75,-257.25 588.71,-225.46 599.03,-178.09 603.11,-147.46"/>
<polygon fill="black" stroke="black" points="606.56,-148.07 604.25,-137.73 599.61,-147.25 606.56,-148.07"/>
</g>
<!-- com.example.sms.domain.model.master.product&#45;&gt;com.example.sms.domain.model.master.partner -->
<g id="edge16" class="edge">
<title>com.example.sms.domain.model.master.product&#45;&gt;com.example.sms.domain.model.master.partner</title>
<path fill="none" stroke="black" d="M390.03,-272.95C386.27,-270.33 382.43,-267.69 378.75,-265.25 373.1,-261.5 370.62,-261.97 365.75,-257.25 354.8,-246.65 345.17,-232.78 337.82,-220.58"/>
<polygon fill="black" stroke="black" points="340.97,-219.05 332.95,-212.13 334.91,-222.54 340.97,-219.05"/>
</g>
<!-- com.example.sms.domain.model.master.product&#45;&gt;com.example.sms.domain.type.quantity -->
<g id="edge9" class="edge">
<title>com.example.sms.domain.model.master.product&#45;&gt;com.example.sms.domain.type.quantity</title>
<path fill="none" stroke="black" d="M439.37,-273C444.52,-268.22 449.65,-262.85 453.75,-257.25 502.35,-190.91 476.33,-150.66 530.75,-89 537.97,-80.82 546.98,-73.6 556.22,-67.44"/>
<polygon fill="black" stroke="black" points="557.97,-70.48 564.59,-62.22 554.26,-64.55 557.97,-70.48"/>
</g>
<!-- com.example.sms.domain.model.master.product&#45;&gt;com.example.sms.domain.type.money -->
<g id="edge33" class="edge">
<title>com.example.sms.domain.model.master.product&#45;&gt;com.example.sms.domain.type.money</title>
<path fill="none" stroke="black" d="M442.43,-272.8C447.07,-270.01 451.95,-267.37 456.75,-265.25 469.37,-259.67 475.08,-264.62 486.75,-257.25 498.92,-249.57 553.1,-183.16 583.99,-144.68"/>
<polygon fill="black" stroke="black" points="586.47,-147.18 589.99,-137.18 581.01,-142.8 586.47,-147.18"/>
</g>
<!-- com.example.sms.domain.type.money&#45;&gt;com.example.sms.domain.type.quantity -->
<g id="edge34" class="edge">
<title>com.example.sms.domain.type.money&#45;&gt;com.example.sms.domain.type.quantity</title>
<path fill="none" stroke="black" d="M605.75,-96.64C605.75,-89.34 605.75,-80.79 605.75,-72.68"/>
<polygon fill="black" stroke="black" points="609.25,-72.81 605.75,-62.81 602.25,-72.81 609.25,-72.81"/>
</g>
<!-- com.example.sms.domain.model.system.audit -->
<g id="node15" class="node">
<title>com.example.sms.domain.model.system.audit</title>
<g id="a_node15"><a xlink:href="./domain.html#com.example.sms.domain.model.system.audit" xlink:title="監査\naudit">
<polygon fill="#eedd82" stroke="black" points="996.75,-210.5 942.75,-210.5 942.75,-171.75 996.75,-171.75 996.75,-210.5"/>
<text text-anchor="middle" x="969.75" y="-193.2" font-family="Times New Roman,serif" font-size="14.00">監査</text>
<text text-anchor="middle" x="969.75" y="-178.95" font-family="Times New Roman,serif" font-size="14.00">audit</text>
</a>
</g>
</g>
<!-- com.example.sms.domain.model.system.audit&#45;&gt;com.example.sms.domain.model.system.user -->
<g id="edge12" class="edge">
<title>com.example.sms.domain.model.system.audit&#45;&gt;com.example.sms.domain.model.system.user</title>
<path fill="none" stroke="black" d="M951.21,-171.39C942.98,-163.07 933.14,-153.13 924.16,-144.06"/>
<polygon fill="black" stroke="black" points="926.82,-141.77 917.29,-137.12 921.84,-146.69 926.82,-141.77"/>
</g>
<!-- com.example.sms.domain.model.sales.invoice -->
<g id="node17" class="node">
<title>com.example.sms.domain.model.sales.invoice</title>
<g id="a_node17"><a xlink:href="./domain.html#com.example.sms.domain.model.sales.invoice" xlink:title="請求\ninvoice">
<polygon fill="#eedd82" stroke="black" points="602.62,-489.62 546.88,-489.62 546.88,-450.88 602.62,-450.88 602.62,-489.62"/>
<text text-anchor="middle" x="574.75" y="-472.32" font-family="Times New Roman,serif" font-size="14.00">請求</text>
<text text-anchor="middle" x="574.75" y="-458.07" font-family="Times New Roman,serif" font-size="14.00">invoice</text>
</a>
</g>
</g>
<!-- com.example.sms.domain.model.sales.invoice&#45;&gt;com.example.sms.domain.model.sales.sales -->
<g id="edge37" class="edge">
<title>com.example.sms.domain.model.sales.invoice&#45;&gt;com.example.sms.domain.model.sales.sales</title>
<path fill="none" stroke="black" d="M574.98,-450.61C575.1,-440.81 575.25,-428.55 575.38,-417.43"/>
<polygon fill="black" stroke="black" points="578.88,-417.53 575.5,-407.48 571.88,-417.44 578.88,-417.53"/>
</g>
<!-- com.example.sms.domain.model.sales.invoice&#45;&gt;com.example.sms.domain.model.system.autonumber -->
<g id="edge30" class="edge">
<title>com.example.sms.domain.model.sales.invoice&#45;&gt;com.example.sms.domain.model.system.autonumber</title>
<path fill="none" stroke="black" d="M602.9,-467.11C642.19,-462.6 713.07,-448.61 752.75,-405.5 800.08,-354.07 808.91,-267.7 810.07,-222.22"/>
<polygon fill="black" stroke="black" points="813.57,-222.36 810.2,-212.31 806.57,-222.27 813.57,-222.36"/>
</g>
<!-- com.example.sms.domain.model.sales.invoice&#45;&gt;com.example.sms.domain.model.master.partner -->
<g id="edge20" class="edge">
<title>com.example.sms.domain.model.sales.invoice&#45;&gt;com.example.sms.domain.model.master.partner</title>
<path fill="none" stroke="black" d="M546.51,-461.85C461.53,-439.45 213.43,-373.06 202.75,-358.75 177.9,-325.44 182.4,-301.48 202.75,-265.25 218.78,-236.71 250.98,-218 277.99,-206.65"/>
<polygon fill="black" stroke="black" points="279,-210.01 287.01,-203.07 276.43,-203.5 279,-210.01"/>
</g>
<!-- com.example.sms.domain.model.sales.invoice&#45;&gt;com.example.sms.domain.type.money -->
<g id="edge31" class="edge">
<title>com.example.sms.domain.model.sales.invoice&#45;&gt;com.example.sms.domain.type.money</title>
<path fill="none" stroke="black" d="M597.46,-450.45C619.73,-430.41 652.24,-396.41 665.75,-358.75 693.82,-280.52 698.52,-247.69 664.75,-171.75 660,-161.06 652.01,-151.53 643.42,-143.55"/>
<polygon fill="black" stroke="black" points="645.75,-140.94 635.88,-137.09 641.2,-146.25 645.75,-140.94"/>
</g>
<!-- com.example.sms.domain.model.system.auth -->
<g id="node19" class="node">
<title>com.example.sms.domain.model.system.auth</title>
<g id="a_node19"><a xlink:href="./domain.html#com.example.sms.domain.model.system.auth" xlink:title="認証\nauth">
<polygon fill="#eedd82" stroke="black" points="924.75,-210.5 870.75,-210.5 870.75,-171.75 924.75,-171.75 924.75,-210.5"/>
<text text-anchor="middle" x="897.75" y="-193.2" font-family="Times New Roman,serif" font-size="14.00">認証</text>
<text text-anchor="middle" x="897.75" y="-178.95" font-family="Times New Roman,serif" font-size="14.00">auth</text>
</a>
</g>
</g>
<!-- com.example.sms.domain.model.system.auth&#45;&gt;com.example.sms.domain.model.system.user -->
<g id="edge38" class="edge">
<title>com.example.sms.domain.model.system.auth&#45;&gt;com.example.sms.domain.model.system.user</title>
<path fill="none" stroke="black" d="M897.75,-171.39C897.75,-164.09 897.75,-155.54 897.75,-147.43"/>
<polygon fill="black" stroke="black" points="901.25,-147.56 897.75,-137.56 894.25,-147.56 901.25,-147.56"/>
</g>
<!-- com.example.sms.domain.model.system.download -->
<g id="node20" class="node">
<title>com.example.sms.domain.model.system.download</title>
<g id="a_node20"><a xlink:href="./domain.html#com.example.sms.domain.model.system.download" xlink:title="データダウンロード\ndownload">
<polygon fill="#eedd82" stroke="black" points="1186.38,-210.5 1015.12,-210.5 1015.12,-171.75 1186.38,-171.75 1186.38,-210.5"/>
<text text-anchor="middle" x="1100.75" y="-193.2" font-family="Times New Roman,serif" font-size="14.00">データダウンロード</text>
<text text-anchor="middle" x="1100.75" y="-178.95" font-family="Times New Roman,serif" font-size="14.00">download</text>
</a>
</g>
</g>
</g>
</svg>
