<?xml version="1.0" encoding="UTF-8" standalone="no"?>
<!DOCTYPE svg PUBLIC "-//W3C//DTD SVG 1.1//EN"
 "http://www.w3.org/Graphics/SVG/1.1/DTD/svg11.dtd">
<!-- Generated by graphviz version 12.2.0 (20241103.1931)
 -->
<!-- Title: アーキテクチャ図 Pages: 1 -->
<svg width="1314pt" height="298pt"
 viewBox="0.00 0.00 1313.88 298.25" xmlns="http://www.w3.org/2000/svg" xmlns:xlink="http://www.w3.org/1999/xlink">
<g id="graph0" class="graph" transform="scale(1 1) rotate(0) translate(4 294.25)">
<title>アーキテクチャ図</title>
<polygon fill="white" stroke="none" points="-4,4 -4,-294.25 1309.88,-294.25 1309.88,4 -4,4"/>
<text text-anchor="middle" x="652.94" y="-4.95" font-family="Times New Roman,serif" font-size="14.00">アーキテクチャ図</text>
<g id="clust1" class="cluster">
<title>clusterArchitecture</title>
<polygon fill="lightyellow" stroke="#eedd82" points="83.62,-86.25 83.62,-282.25 574.62,-282.25 574.62,-86.25 83.62,-86.25"/>
</g>
<!-- com.example.sms.domain -->
<g id="node1" class="node">
<title>com.example.sms.domain</title>
<polygon fill="#eedd82" stroke="black" points="497.25,-130.25 380,-130.25 380,-126.25 376,-126.25 376,-122.25 380,-122.25 380,-102.25 376,-102.25 376,-98.25 380,-98.25 380,-94.25 497.25,-94.25 497.25,-130.25"/>
<polyline fill="none" stroke="black" points="380,-126.25 384,-126.25 384,-122.25 380,-122.25"/>
<polyline fill="none" stroke="black" points="380,-102.25 384,-102.25 384,-98.25 380,-98.25"/>
<text text-anchor="middle" x="438.62" y="-101.88" font-family="Times New Roman,serif" font-size="20.00">ドメイン層</text>
</g>
<!-- io.jsonwebtoken -->
<g id="node5" class="node">
<title>io.jsonwebtoken</title>
<polygon fill="lightgrey" stroke="black" points="640.25,-58.25 535,-58.25 535,-54.25 531,-54.25 531,-50.25 535,-50.25 535,-30.25 531,-30.25 531,-26.25 535,-26.25 535,-22.25 640.25,-22.25 640.25,-58.25"/>
<polyline fill="none" stroke="black" points="535,-54.25 539,-54.25 539,-50.25 535,-50.25"/>
<polyline fill="none" stroke="black" points="535,-30.25 539,-30.25 539,-26.25 535,-26.25"/>
<text text-anchor="middle" x="587.62" y="-35.2" font-family="Times New Roman,serif" font-size="14.00">io.jsonwebtoken</text>
</g>
<!-- com.example.sms.domain&#45;&gt;io.jsonwebtoken -->
<g id="edge1" class="edge">
<title>com.example.sms.domain&#45;&gt;io.jsonwebtoken</title>
<path fill="none" stroke="black" d="M494.46,-94.08C494.46,-72.75 494.46,-40.25 494.46,-40.25 494.46,-40.25 523,-40.25 523,-40.25"/>
<polygon fill="black" stroke="black" points="523,-43.75 533,-40.25 523,-36.75 523,-43.75"/>
</g>
<!-- org.springframework -->
<g id="node6" class="node">
<title>org.springframework</title>
<polygon fill="lightgrey" stroke="black" points="830.38,-58.25 698.88,-58.25 698.88,-54.25 694.88,-54.25 694.88,-50.25 698.88,-50.25 698.88,-30.25 694.88,-30.25 694.88,-26.25 698.88,-26.25 698.88,-22.25 830.38,-22.25 830.38,-58.25"/>
<polyline fill="none" stroke="black" points="698.88,-54.25 702.88,-54.25 702.88,-50.25 698.88,-50.25"/>
<polyline fill="none" stroke="black" points="698.88,-30.25 702.88,-30.25 702.88,-26.25 698.88,-26.25"/>
<text text-anchor="middle" x="764.62" y="-35.2" font-family="Times New Roman,serif" font-size="14.00">org.springframework</text>
</g>
<!-- com.example.sms.domain&#45;&gt;org.springframework -->
<g id="edge32" class="edge">
<title>com.example.sms.domain&#45;&gt;org.springframework</title>
<path fill="none" stroke="black" d="M491.67,-93.83C491.67,-84.97 491.67,-76.25 491.67,-76.25 491.67,-76.25 717.65,-76.25 717.65,-76.25 717.65,-76.25 717.65,-70.19 717.65,-70.19"/>
<polygon fill="black" stroke="black" points="721.15,-70.19 717.65,-60.19 714.15,-70.19 721.15,-70.19"/>
</g>
<!-- org.apache -->
<g id="node7" class="node">
<title>org.apache</title>
<polygon fill="lightgrey" stroke="black" points="378.25,-58.25 303,-58.25 303,-54.25 299,-54.25 299,-50.25 303,-50.25 303,-30.25 299,-30.25 299,-26.25 303,-26.25 303,-22.25 378.25,-22.25 378.25,-58.25"/>
<polyline fill="none" stroke="black" points="303,-54.25 307,-54.25 307,-50.25 303,-50.25"/>
<polyline fill="none" stroke="black" points="303,-30.25 307,-30.25 307,-26.25 303,-26.25"/>
<text text-anchor="middle" x="340.62" y="-35.2" font-family="Times New Roman,serif" font-size="14.00">org.apache</text>
</g>
<!-- com.example.sms.domain&#45;&gt;org.apache -->
<g id="edge28" class="edge">
<title>com.example.sms.domain&#45;&gt;org.apache</title>
<path fill="none" stroke="black" d="M379.57,-106.25C377.22,-106.25 375.83,-106.25 375.83,-106.25 375.83,-106.25 375.83,-70.15 375.83,-70.15"/>
<polygon fill="black" stroke="black" points="379.33,-70.15 375.83,-60.15 372.33,-70.15 379.33,-70.15"/>
</g>
<!-- org.thymeleaf -->
<g id="node10" class="node">
<title>org.thymeleaf</title>
<polygon fill="lightgrey" stroke="black" points="488.88,-58.25 396.38,-58.25 396.38,-54.25 392.38,-54.25 392.38,-50.25 396.38,-50.25 396.38,-30.25 392.38,-30.25 392.38,-26.25 396.38,-26.25 396.38,-22.25 488.88,-22.25 488.88,-58.25"/>
<polyline fill="none" stroke="black" points="396.38,-54.25 400.38,-54.25 400.38,-50.25 396.38,-50.25"/>
<polyline fill="none" stroke="black" points="396.38,-30.25 400.38,-30.25 400.38,-26.25 396.38,-26.25"/>
<text text-anchor="middle" x="442.62" y="-35.2" font-family="Times New Roman,serif" font-size="14.00">org.thymeleaf</text>
</g>
<!-- com.example.sms.domain&#45;&gt;org.thymeleaf -->
<g id="edge6" class="edge">
<title>com.example.sms.domain&#45;&gt;org.thymeleaf</title>
<path fill="none" stroke="black" d="M427.21,-94.08C427.21,-94.08 427.21,-70.18 427.21,-70.18"/>
<polygon fill="black" stroke="black" points="430.71,-70.18 427.21,-60.18 423.71,-70.18 430.71,-70.18"/>
</g>
<!-- lombok -->
<g id="node12" class="node">
<title>lombok</title>
<polygon fill="lightgrey" stroke="black" points="1045.62,-58.25 987.62,-58.25 987.62,-54.25 983.62,-54.25 983.62,-50.25 987.62,-50.25 987.62,-30.25 983.62,-30.25 983.62,-26.25 987.62,-26.25 987.62,-22.25 1045.62,-22.25 1045.62,-58.25"/>
<polyline fill="none" stroke="black" points="987.62,-54.25 991.62,-54.25 991.62,-50.25 987.62,-50.25"/>
<polyline fill="none" stroke="black" points="987.62,-30.25 991.62,-30.25 991.62,-26.25 987.62,-26.25"/>
<text text-anchor="middle" x="1016.62" y="-35.2" font-family="Times New Roman,serif" font-size="14.00">lombok</text>
</g>
<!-- com.example.sms.domain&#45;&gt;lombok -->
<g id="edge40" class="edge">
<title>com.example.sms.domain&#45;&gt;lombok</title>
<path fill="none" stroke="black" d="M458.04,-93.79C458.04,-89.05 458.04,-85.25 458.04,-85.25 458.04,-85.25 992.44,-85.25 992.44,-85.25 992.44,-85.25 992.44,-70.07 992.44,-70.07"/>
<polygon fill="black" stroke="black" points="995.94,-70.07 992.44,-60.07 988.94,-70.07 995.94,-70.07"/>
</g>
<!-- com.example.sms.infrastructure -->
<g id="node2" class="node">
<title>com.example.sms.infrastructure</title>
<polygon fill="#eedd82" stroke="black" points="330,-274.25 91.25,-274.25 91.25,-270.25 87.25,-270.25 87.25,-266.25 91.25,-266.25 91.25,-246.25 87.25,-246.25 87.25,-242.25 91.25,-242.25 91.25,-238.25 330,-238.25 330,-274.25"/>
<polyline fill="none" stroke="black" points="91.25,-270.25 95.25,-270.25 95.25,-266.25 91.25,-266.25"/>
<polyline fill="none" stroke="black" points="91.25,-246.25 95.25,-246.25 95.25,-242.25 91.25,-242.25"/>
<text text-anchor="middle" x="210.62" y="-245.88" font-family="Times New Roman,serif" font-size="20.00">インフラストラクチャ層</text>
</g>
<!-- com.example.sms.infrastructure&#45;&gt;com.example.sms.domain -->
<g id="edge31" class="edge">
<title>com.example.sms.infrastructure&#45;&gt;com.example.sms.domain</title>
<path fill="none" stroke="black" d="M307.5,-237.92C307.5,-200.39 307.5,-118.25 307.5,-118.25 307.5,-118.25 368.07,-118.25 368.07,-118.25"/>
<polygon fill="black" stroke="black" points="368.07,-121.75 378.07,-118.25 368.07,-114.75 368.07,-121.75"/>
</g>
<!-- com.example.sms.service -->
<g id="node4" class="node">
<title>com.example.sms.service</title>
<polygon fill="#eedd82" stroke="black" points="488.25,-202.25 371,-202.25 371,-198.25 367,-198.25 367,-194.25 371,-194.25 371,-174.25 367,-174.25 367,-170.25 371,-170.25 371,-166.25 488.25,-166.25 488.25,-202.25"/>
<polyline fill="none" stroke="black" points="371,-198.25 375,-198.25 375,-194.25 371,-194.25"/>
<polyline fill="none" stroke="black" points="371,-174.25 375,-174.25 375,-170.25 371,-170.25"/>
<text text-anchor="middle" x="429.62" y="-173.88" font-family="Times New Roman,serif" font-size="20.00">サービス層</text>
</g>
<!-- com.example.sms.infrastructure&#45;&gt;com.example.sms.service -->
<g id="edge20" class="edge">
<title>com.example.sms.infrastructure&#45;&gt;com.example.sms.service</title>
<path fill="none" stroke="black" d="M327.75,-238.03C327.75,-219.42 327.75,-193.25 327.75,-193.25 327.75,-193.25 359.15,-193.25 359.15,-193.25"/>
<polygon fill="black" stroke="black" points="359.15,-196.75 369.15,-193.25 359.15,-189.75 359.15,-196.75"/>
</g>
<!-- com.example.sms.infrastructure&#45;&gt;io.jsonwebtoken -->
<g id="edge30" class="edge">
<title>com.example.sms.infrastructure&#45;&gt;io.jsonwebtoken</title>
<path fill="none" stroke="black" d="M316.5,-237.78C316.5,-190.23 316.5,-67.25 316.5,-67.25 316.5,-67.25 550.94,-67.25 550.94,-67.25 550.94,-67.25 550.94,-66.4 550.94,-66.4"/>
<polygon fill="black" stroke="black" points="554.44,-70.22 550.94,-60.22 547.44,-70.22 554.44,-70.22"/>
</g>
<!-- com.example.sms.infrastructure&#45;&gt;org.springframework -->
<g id="edge2" class="edge">
<title>com.example.sms.infrastructure&#45;&gt;org.springframework</title>
<path fill="none" stroke="black" d="M309.75,-237.99C309.75,-203.95 309.75,-134.25 309.75,-134.25 309.75,-134.25 736.42,-134.25 736.42,-134.25 736.42,-134.25 736.42,-69.89 736.42,-69.89"/>
<polygon fill="black" stroke="black" points="739.93,-69.89 736.43,-59.89 732.93,-69.89 739.93,-69.89"/>
</g>
<!-- com.example.sms.infrastructure&#45;&gt;org.apache -->
<g id="edge3" class="edge">
<title>com.example.sms.infrastructure&#45;&gt;org.apache</title>
<path fill="none" stroke="black" d="M305.25,-237.83C305.25,-237.83 305.25,-70.13 305.25,-70.13"/>
<polygon fill="black" stroke="black" points="308.75,-70.13 305.25,-60.13 301.75,-70.13 308.75,-70.13"/>
</g>
<!-- com.github -->
<g id="node8" class="node">
<title>com.github</title>
<polygon fill="lightgrey" stroke="black" points="950.75,-130.25 872.5,-130.25 872.5,-126.25 868.5,-126.25 868.5,-122.25 872.5,-122.25 872.5,-102.25 868.5,-102.25 868.5,-98.25 872.5,-98.25 872.5,-94.25 950.75,-94.25 950.75,-130.25"/>
<polyline fill="none" stroke="black" points="872.5,-126.25 876.5,-126.25 876.5,-122.25 872.5,-122.25"/>
<polyline fill="none" stroke="black" points="872.5,-102.25 876.5,-102.25 876.5,-98.25 872.5,-98.25"/>
<text text-anchor="middle" x="911.62" y="-107.2" font-family="Times New Roman,serif" font-size="14.00">com.github</text>
</g>
<!-- com.example.sms.infrastructure&#45;&gt;com.github -->
<g id="edge17" class="edge">
<title>com.example.sms.infrastructure&#45;&gt;com.github</title>
<path fill="none" stroke="black" d="M318.75,-238.09C318.75,-206.84 318.75,-146.25 318.75,-146.25 318.75,-146.25 882.78,-146.25 882.78,-146.25 882.78,-146.25 882.78,-141.96 882.78,-141.96"/>
<polygon fill="black" stroke="black" points="886.28,-141.96 882.78,-131.96 879.28,-141.96 886.28,-141.96"/>
</g>
<!-- com.opencsv -->
<g id="node9" class="node">
<title>com.opencsv</title>
<polygon fill="lightgrey" stroke="black" points="670.62,-202.25 582.62,-202.25 582.62,-198.25 578.62,-198.25 578.62,-194.25 582.62,-194.25 582.62,-174.25 578.62,-174.25 578.62,-170.25 582.62,-170.25 582.62,-166.25 670.62,-166.25 670.62,-202.25"/>
<polyline fill="none" stroke="black" points="582.62,-198.25 586.62,-198.25 586.62,-194.25 582.62,-194.25"/>
<polyline fill="none" stroke="black" points="582.62,-174.25 586.62,-174.25 586.62,-170.25 582.62,-170.25"/>
<text text-anchor="middle" x="626.62" y="-179.2" font-family="Times New Roman,serif" font-size="14.00">com.opencsv</text>
</g>
<!-- com.example.sms.infrastructure&#45;&gt;com.opencsv -->
<g id="edge5" class="edge">
<title>com.example.sms.infrastructure&#45;&gt;com.opencsv</title>
<path fill="none" stroke="black" d="M312,-237.95C312,-225.49 312,-211.25 312,-211.25 312,-211.25 626.62,-211.25 626.62,-211.25 626.62,-211.25 626.62,-210.4 626.62,-210.4"/>
<polygon fill="black" stroke="black" points="630.13,-214.22 626.63,-204.22 623.13,-214.22 630.13,-214.22"/>
</g>
<!-- com.example.sms.infrastructure&#45;&gt;lombok -->
<g id="edge25" class="edge">
<title>com.example.sms.infrastructure&#45;&gt;lombok</title>
<path fill="none" stroke="black" d="M321,-238.01C321,-208.68 321,-154.25 321,-154.25 321,-154.25 997.25,-154.25 997.25,-154.25 997.25,-154.25 997.25,-70.08 997.25,-70.08"/>
<polygon fill="black" stroke="black" points="1000.75,-70.08 997.25,-60.08 993.75,-70.08 1000.75,-70.08"/>
</g>
<!-- io.swagger -->
<g id="node13" class="node">
<title>io.swagger</title>
<polygon fill="lightgrey" stroke="black" points="878.25,-202.25 803,-202.25 803,-198.25 799,-198.25 799,-194.25 803,-194.25 803,-174.25 799,-174.25 799,-170.25 803,-170.25 803,-166.25 878.25,-166.25 878.25,-202.25"/>
<polyline fill="none" stroke="black" points="803,-198.25 807,-198.25 807,-194.25 803,-194.25"/>
<polyline fill="none" stroke="black" points="803,-174.25 807,-174.25 807,-170.25 803,-170.25"/>
<text text-anchor="middle" x="840.62" y="-179.2" font-family="Times New Roman,serif" font-size="14.00">io.swagger</text>
</g>
<!-- com.example.sms.infrastructure&#45;&gt;io.swagger -->
<g id="edge10" class="edge">
<title>com.example.sms.infrastructure&#45;&gt;io.swagger</title>
<path fill="none" stroke="black" d="M323.25,-237.79C323.25,-233.05 323.25,-229.25 323.25,-229.25 323.25,-229.25 828.08,-229.25 828.08,-229.25 828.08,-229.25 828.08,-214.07 828.08,-214.07"/>
<polygon fill="black" stroke="black" points="831.58,-214.07 828.08,-204.07 824.58,-214.07 831.58,-214.07"/>
</g>
<!-- org.slf4j -->
<g id="node16" class="node">
<title>org.slf4j</title>
<polygon fill="lightgrey" stroke="black" points="854.5,-130.25 792.75,-130.25 792.75,-126.25 788.75,-126.25 788.75,-122.25 792.75,-122.25 792.75,-102.25 788.75,-102.25 788.75,-98.25 792.75,-98.25 792.75,-94.25 854.5,-94.25 854.5,-130.25"/>
<polyline fill="none" stroke="black" points="792.75,-126.25 796.75,-126.25 796.75,-122.25 792.75,-122.25"/>
<polyline fill="none" stroke="black" points="792.75,-102.25 796.75,-102.25 796.75,-98.25 792.75,-98.25"/>
<text text-anchor="middle" x="823.62" y="-107.2" font-family="Times New Roman,serif" font-size="14.00">org.slf4j</text>
</g>
<!-- com.example.sms.infrastructure&#45;&gt;org.slf4j -->
<g id="edge15" class="edge">
<title>com.example.sms.infrastructure&#45;&gt;org.slf4j</title>
<path fill="none" stroke="black" d="M314.25,-237.83C314.25,-228.97 314.25,-220.25 314.25,-220.25 314.25,-220.25 797.88,-220.25 797.88,-220.25 797.88,-220.25 797.88,-142.08 797.88,-142.08"/>
<polygon fill="black" stroke="black" points="801.38,-142.08 797.88,-132.08 794.38,-142.08 801.38,-142.08"/>
</g>
<!-- com.example.sms.presentation -->
<g id="node3" class="node">
<title>com.example.sms.presentation</title>
<polygon fill="#eedd82" stroke="black" points="566.88,-274.25 348.38,-274.25 348.38,-270.25 344.38,-270.25 344.38,-266.25 348.38,-266.25 348.38,-246.25 344.38,-246.25 344.38,-242.25 348.38,-242.25 348.38,-238.25 566.88,-238.25 566.88,-274.25"/>
<polyline fill="none" stroke="black" points="348.38,-270.25 352.38,-270.25 352.38,-266.25 348.38,-266.25"/>
<polyline fill="none" stroke="black" points="348.38,-246.25 352.38,-246.25 352.38,-242.25 348.38,-242.25"/>
<text text-anchor="middle" x="457.62" y="-245.88" font-family="Times New Roman,serif" font-size="20.00">プレゼンテーション層</text>
</g>
<!-- com.example.sms.presentation&#45;&gt;com.example.sms.domain -->
<g id="edge21" class="edge">
<title>com.example.sms.presentation&#45;&gt;com.example.sms.domain</title>
<path fill="none" stroke="black" d="M492.75,-238.01C492.75,-238.01 492.75,-141.85 492.75,-141.85"/>
<polygon fill="black" stroke="black" points="496.25,-141.85 492.75,-131.85 489.25,-141.85 496.25,-141.85"/>
</g>
<!-- com.example.sms.presentation&#45;&gt;com.example.sms.service -->
<g id="edge33" class="edge">
<title>com.example.sms.presentation&#45;&gt;com.example.sms.service</title>
<path fill="none" stroke="black" d="M429.62,-238.08C429.62,-238.08 429.62,-214.18 429.62,-214.18"/>
<polygon fill="black" stroke="black" points="433.13,-214.18 429.63,-204.18 426.13,-214.18 433.13,-214.18"/>
</g>
<!-- com.example.sms.presentation&#45;&gt;org.springframework -->
<g id="edge34" class="edge">
<title>com.example.sms.presentation&#45;&gt;org.springframework</title>
<path fill="none" stroke="black" d="M566.94,-241.85C658.38,-241.85 773.98,-241.85 773.98,-241.85 773.98,-241.85 773.98,-70.01 773.98,-70.01"/>
<polygon fill="black" stroke="black" points="777.48,-70.01 773.98,-60.01 770.48,-70.01 777.48,-70.01"/>
</g>
<!-- com.example.sms.presentation&#45;&gt;com.github -->
<g id="edge9" class="edge">
<title>com.example.sms.presentation&#45;&gt;com.github</title>
<path fill="none" stroke="black" d="M567.2,-252.65C695.83,-252.65 891.84,-252.65 891.84,-252.65 891.84,-252.65 891.84,-142.12 891.84,-142.12"/>
<polygon fill="black" stroke="black" points="895.34,-142.12 891.84,-132.12 888.34,-142.12 895.34,-142.12"/>
</g>
<!-- com.example.sms.presentation&#45;&gt;lombok -->
<g id="edge36" class="edge">
<title>com.example.sms.presentation&#45;&gt;lombok</title>
<path fill="none" stroke="black" d="M567.35,-259.85C730.95,-259.85 1019.79,-259.85 1019.79,-259.85 1019.79,-259.85 1019.79,-70.11 1019.79,-70.11"/>
<polygon fill="black" stroke="black" points="1023.29,-70.11 1019.79,-60.11 1016.29,-70.11 1023.29,-70.11"/>
</g>
<!-- com.example.sms.presentation&#45;&gt;io.swagger -->
<g id="edge27" class="edge">
<title>com.example.sms.presentation&#45;&gt;io.swagger</title>
<path fill="none" stroke="black" d="M567.28,-249.05C684.34,-249.05 853.17,-249.05 853.17,-249.05 853.17,-249.05 853.17,-214.16 853.17,-214.16"/>
<polygon fill="black" stroke="black" points="856.67,-214.16 853.17,-204.16 849.67,-214.16 856.67,-214.16"/>
</g>
<!-- jakarta.validation -->
<g id="node14" class="node">
<title>jakarta.validation</title>
<polygon fill="lightgrey" stroke="black" points="1006.88,-202.25 896.38,-202.25 896.38,-198.25 892.38,-198.25 892.38,-194.25 896.38,-194.25 896.38,-174.25 892.38,-174.25 892.38,-170.25 896.38,-170.25 896.38,-166.25 1006.88,-166.25 1006.88,-202.25"/>
<polyline fill="none" stroke="black" points="896.38,-198.25 900.38,-198.25 900.38,-194.25 896.38,-194.25"/>
<polyline fill="none" stroke="black" points="896.38,-174.25 900.38,-174.25 900.38,-170.25 896.38,-170.25"/>
<text text-anchor="middle" x="951.62" y="-179.2" font-family="Times New Roman,serif" font-size="14.00">jakarta.validation</text>
</g>
<!-- com.example.sms.presentation&#45;&gt;jakarta.validation -->
<g id="edge11" class="edge">
<title>com.example.sms.presentation&#45;&gt;jakarta.validation</title>
<path fill="none" stroke="black" d="M567.26,-256.25C712.8,-256.25 951.62,-256.25 951.62,-256.25 951.62,-256.25 951.62,-213.93 951.62,-213.93"/>
<polygon fill="black" stroke="black" points="955.13,-213.93 951.63,-203.93 948.13,-213.93 955.13,-213.93"/>
</g>
<!-- com.example -->
<g id="node15" class="node">
<title>com.example</title>
<polygon fill="lightgrey" stroke="black" points="1196.75,-130.25 1106.5,-130.25 1106.5,-126.25 1102.5,-126.25 1102.5,-122.25 1106.5,-122.25 1106.5,-102.25 1102.5,-102.25 1102.5,-98.25 1106.5,-98.25 1106.5,-94.25 1196.75,-94.25 1196.75,-130.25"/>
<polyline fill="none" stroke="black" points="1106.5,-126.25 1110.5,-126.25 1110.5,-122.25 1106.5,-122.25"/>
<polyline fill="none" stroke="black" points="1106.5,-102.25 1110.5,-102.25 1110.5,-98.25 1106.5,-98.25"/>
<text text-anchor="middle" x="1151.62" y="-107.2" font-family="Times New Roman,serif" font-size="14.00">com.example</text>
</g>
<!-- com.example.sms.presentation&#45;&gt;com.example -->
<g id="edge12" class="edge">
<title>com.example.sms.presentation&#45;&gt;com.example</title>
<path fill="none" stroke="black" d="M567.24,-267.05C767.97,-267.05 1174.19,-267.05 1174.19,-267.05 1174.19,-267.05 1174.19,-142.13 1174.19,-142.13"/>
<polygon fill="black" stroke="black" points="1177.69,-142.13 1174.19,-132.13 1170.69,-142.13 1177.69,-142.13"/>
</g>
<!-- com.example.sms.presentation&#45;&gt;org.slf4j -->
<g id="edge18" class="edge">
<title>com.example.sms.presentation&#45;&gt;org.slf4j</title>
<path fill="none" stroke="black" d="M567.04,-245.45C667.36,-245.45 800.44,-245.45 800.44,-245.45 800.44,-245.45 800.44,-142.01 800.44,-142.01"/>
<polygon fill="black" stroke="black" points="803.94,-142.01 800.44,-132.01 796.94,-142.01 803.94,-142.01"/>
</g>
<!-- jakarta.servlet -->
<g id="node18" class="node">
<title>jakarta.servlet</title>
<polygon fill="lightgrey" stroke="black" points="1305.88,-58.25 1213.38,-58.25 1213.38,-54.25 1209.38,-54.25 1209.38,-50.25 1213.38,-50.25 1213.38,-30.25 1209.38,-30.25 1209.38,-26.25 1213.38,-26.25 1213.38,-22.25 1305.88,-22.25 1305.88,-58.25"/>
<polyline fill="none" stroke="black" points="1213.38,-54.25 1217.38,-54.25 1217.38,-50.25 1213.38,-50.25"/>
<polyline fill="none" stroke="black" points="1213.38,-30.25 1217.38,-30.25 1217.38,-26.25 1213.38,-26.25"/>
<text text-anchor="middle" x="1259.62" y="-35.2" font-family="Times New Roman,serif" font-size="14.00">jakarta.servlet</text>
</g>
<!-- com.example.sms.presentation&#45;&gt;jakarta.servlet -->
<g id="edge26" class="edge">
<title>com.example.sms.presentation&#45;&gt;jakarta.servlet</title>
<path fill="none" stroke="black" d="M567.02,-270.65C789.76,-270.65 1275.04,-270.65 1275.04,-270.65 1275.04,-270.65 1275.04,-70.23 1275.04,-70.23"/>
<polygon fill="black" stroke="black" points="1278.54,-70.23 1275.04,-60.23 1271.54,-70.23 1278.54,-70.23"/>
</g>
<!-- com.example.sms.service&#45;&gt;com.example.sms.domain -->
<g id="edge23" class="edge">
<title>com.example.sms.service&#45;&gt;com.example.sms.domain</title>
<path fill="none" stroke="black" d="M395.46,-166.08C395.46,-166.08 395.46,-142.18 395.46,-142.18"/>
<polygon fill="black" stroke="black" points="398.96,-142.18 395.46,-132.18 391.96,-142.18 398.96,-142.18"/>
</g>
<!-- com.example.sms.service&#45;&gt;com.example.sms.infrastructure -->
<g id="edge14" class="edge">
<title>com.example.sms.service&#45;&gt;com.example.sms.infrastructure</title>
<path fill="none" stroke="black" d="M370.57,-184.25C347.06,-184.25 325.5,-184.25 325.5,-184.25 325.5,-184.25 325.5,-226.57 325.5,-226.57"/>
<polygon fill="black" stroke="black" points="322,-226.57 325.5,-236.57 329,-226.57 322,-226.57"/>
</g>
<!-- com.example.sms.service&#45;&gt;org.springframework -->
<g id="edge19" class="edge">
<title>com.example.sms.service&#45;&gt;org.springframework</title>
<path fill="none" stroke="black" d="M410.93,-165.81C410.93,-153.01 410.93,-138.25 410.93,-138.25 410.93,-138.25 755.2,-138.25 755.2,-138.25 755.2,-138.25 755.2,-70.2 755.2,-70.2"/>
<polygon fill="black" stroke="black" points="758.7,-70.2 755.2,-60.2 751.7,-70.2 758.7,-70.2"/>
</g>
<!-- com.example.sms.service&#45;&gt;org.apache -->
<g id="edge29" class="edge">
<title>com.example.sms.service&#45;&gt;org.apache</title>
<path fill="none" stroke="black" d="M373.42,-166.01C373.42,-166.01 373.42,-69.85 373.42,-69.85"/>
<polygon fill="black" stroke="black" points="376.92,-69.85 373.42,-59.85 369.92,-69.85 376.92,-69.85"/>
</g>
<!-- com.example.sms.service&#45;&gt;com.github -->
<g id="edge4" class="edge">
<title>com.example.sms.service&#45;&gt;com.github</title>
<path fill="none" stroke="black" d="M441.86,-166.06C441.86,-157.97 441.86,-150.25 441.86,-150.25 441.86,-150.25 887.31,-150.25 887.31,-150.25 887.31,-150.25 887.31,-141.87 887.31,-141.87"/>
<polygon fill="black" stroke="black" points="890.81,-141.87 887.31,-131.87 883.81,-141.87 890.81,-141.87"/>
</g>
<!-- jakarta.transaction -->
<g id="node11" class="node">
<title>jakarta.transaction</title>
<polygon fill="lightgrey" stroke="black" points="698.5,-130.25 582.75,-130.25 582.75,-126.25 578.75,-126.25 578.75,-122.25 582.75,-122.25 582.75,-102.25 578.75,-102.25 578.75,-98.25 582.75,-98.25 582.75,-94.25 698.5,-94.25 698.5,-130.25"/>
<polyline fill="none" stroke="black" points="582.75,-126.25 586.75,-126.25 586.75,-122.25 582.75,-122.25"/>
<polyline fill="none" stroke="black" points="582.75,-102.25 586.75,-102.25 586.75,-98.25 582.75,-98.25"/>
<text text-anchor="middle" x="640.62" y="-107.2" font-family="Times New Roman,serif" font-size="14.00">jakarta.transaction</text>
</g>
<!-- com.example.sms.service&#45;&gt;jakarta.transaction -->
<g id="edge7" class="edge">
<title>com.example.sms.service&#45;&gt;jakarta.transaction</title>
<path fill="none" stroke="black" d="M488.28,-184.25C503.71,-184.25 516.12,-184.25 516.12,-184.25 516.12,-184.25 516.12,-112.25 516.12,-112.25 516.12,-112.25 570.87,-112.25 570.87,-112.25"/>
<polygon fill="black" stroke="black" points="570.87,-115.75 580.87,-112.25 570.87,-108.75 570.87,-115.75"/>
</g>
<!-- com.example.sms.service&#45;&gt;lombok -->
<g id="edge8" class="edge">
<title>com.example.sms.service&#45;&gt;lombok</title>
<path fill="none" stroke="black" d="M457.32,-165.91C457.32,-161.61 457.32,-158.25 457.32,-158.25 457.32,-158.25 1002.06,-158.25 1002.06,-158.25 1002.06,-158.25 1002.06,-70.2 1002.06,-70.2"/>
<polygon fill="black" stroke="black" points="1005.56,-70.2 1002.06,-60.2 998.56,-70.2 1005.56,-70.2"/>
</g>
<!-- com.example.sms.service&#45;&gt;com.example -->
<g id="edge35" class="edge">
<title>com.example.sms.service&#45;&gt;com.example</title>
<path fill="none" stroke="black" d="M472.79,-166.08C472.79,-163.8 472.79,-162.25 472.79,-162.25 472.79,-162.25 1129.06,-162.25 1129.06,-162.25 1129.06,-162.25 1129.06,-142.1 1129.06,-142.1"/>
<polygon fill="black" stroke="black" points="1132.56,-142.1 1129.06,-132.1 1125.56,-142.1 1132.56,-142.1"/>
</g>
<!-- com.example.sms.service&#45;&gt;org.slf4j -->
<g id="edge24" class="edge">
<title>com.example.sms.service&#45;&gt;org.slf4j</title>
<path fill="none" stroke="black" d="M426.39,-166.19C426.39,-154.81 426.39,-142.25 426.39,-142.25 426.39,-142.25 795.31,-142.25 795.31,-142.25 795.31,-142.25 795.31,-141.1 795.31,-141.1"/>
<polygon fill="black" stroke="black" points="798.81,-142.25 795.31,-132.25 791.81,-142.25 798.81,-142.25"/>
</g>
<!-- org.aspectj -->
<g id="node19" class="node">
<title>org.aspectj</title>
<polygon fill="lightgrey" stroke="black" points="75.25,-130.25 0,-130.25 0,-126.25 -4,-126.25 -4,-122.25 0,-122.25 0,-102.25 -4,-102.25 -4,-98.25 0,-98.25 0,-94.25 75.25,-94.25 75.25,-130.25"/>
<polyline fill="none" stroke="black" points="0,-126.25 4,-126.25 4,-122.25 0,-122.25"/>
<polyline fill="none" stroke="black" points="0,-102.25 4,-102.25 4,-98.25 0,-98.25"/>
<text text-anchor="middle" x="37.62" y="-107.2" font-family="Times New Roman,serif" font-size="14.00">org.aspectj</text>
</g>
<!-- com.example.sms.service&#45;&gt;org.aspectj -->
<g id="edge38" class="edge">
<title>com.example.sms.service&#45;&gt;org.aspectj</title>
<path fill="none" stroke="black" d="M370.51,-175.25C261.01,-175.25 37.62,-175.25 37.62,-175.25 37.62,-175.25 37.62,-141.99 37.62,-141.99"/>
<polygon fill="black" stroke="black" points="41.13,-141.99 37.63,-131.99 34.13,-141.99 41.13,-141.99"/>
</g>
<!-- com.example&#45;&gt;com.example.sms.presentation -->
<g id="edge13" class="edge">
<title>com.example&#45;&gt;com.example.sms.presentation</title>
<path fill="none" stroke="black" d="M1151.62,-130.49C1151.62,-170.7 1151.62,-263.45 1151.62,-263.45 1151.62,-263.45 578.72,-263.45 578.72,-263.45"/>
<polygon fill="black" stroke="black" points="578.72,-259.95 568.72,-263.45 578.72,-266.95 578.72,-259.95"/>
</g>
<!-- com.example&#45;&gt;org.springframework -->
<g id="edge37" class="edge">
<title>com.example&#45;&gt;org.springframework</title>
<path fill="none" stroke="black" d="M1106.06,-118.25C1052.02,-118.25 969.19,-118.25 969.19,-118.25 969.19,-118.25 969.19,-40.25 969.19,-40.25 969.19,-40.25 842.27,-40.25 842.27,-40.25"/>
<polygon fill="black" stroke="black" points="842.27,-36.75 832.27,-40.25 842.27,-43.75 842.27,-36.75"/>
</g>
<!-- com.example&#45;&gt;lombok -->
<g id="edge39" class="edge">
<title>com.example&#45;&gt;lombok</title>
<path fill="none" stroke="black" d="M1106.33,-106.25C1072.72,-106.25 1032.71,-106.25 1032.71,-106.25 1032.71,-106.25 1032.71,-70.15 1032.71,-70.15"/>
<polygon fill="black" stroke="black" points="1036.21,-70.15 1032.71,-60.15 1029.21,-70.15 1036.21,-70.15"/>
</g>
<!-- org.mybatis -->
<g id="node17" class="node">
<title>org.mybatis</title>
<polygon fill="lightgrey" stroke="black" points="1192.25,-58.25 1111,-58.25 1111,-54.25 1107,-54.25 1107,-50.25 1111,-50.25 1111,-30.25 1107,-30.25 1107,-26.25 1111,-26.25 1111,-22.25 1192.25,-22.25 1192.25,-58.25"/>
<polyline fill="none" stroke="black" points="1111,-54.25 1115,-54.25 1115,-50.25 1111,-50.25"/>
<polyline fill="none" stroke="black" points="1111,-30.25 1115,-30.25 1115,-26.25 1111,-26.25"/>
<text text-anchor="middle" x="1151.62" y="-35.2" font-family="Times New Roman,serif" font-size="14.00">org.mybatis</text>
</g>
<!-- com.example&#45;&gt;org.mybatis -->
<g id="edge16" class="edge">
<title>com.example&#45;&gt;org.mybatis</title>
<path fill="none" stroke="black" d="M1151.62,-94.08C1151.62,-94.08 1151.62,-70.18 1151.62,-70.18"/>
<polygon fill="black" stroke="black" points="1155.13,-70.18 1151.63,-60.18 1148.13,-70.18 1155.13,-70.18"/>
</g>
<!-- com.example&#45;&gt;jakarta.servlet -->
<g id="edge22" class="edge">
<title>com.example&#45;&gt;jakarta.servlet</title>
<path fill="none" stroke="black" d="M1197.1,-112.25C1220.52,-112.25 1244.21,-112.25 1244.21,-112.25 1244.21,-112.25 1244.21,-69.93 1244.21,-69.93"/>
<polygon fill="black" stroke="black" points="1247.71,-69.93 1244.21,-59.93 1240.71,-69.93 1247.71,-69.93"/>
</g>
</g>
</svg>
