<?xml version="1.0" encoding="UTF-8" standalone="no"?>
<!DOCTYPE svg PUBLIC "-//W3C//DTD SVG 1.1//EN"
 "http://www.w3.org/Graphics/SVG/1.1/DTD/svg11.dtd">
<!-- Generated by graphviz version 12.2.0 (20241103.1931)
 -->
<!-- Title: パッケージ関連図 Pages: 1 -->
<svg width="1144pt" height="552pt"
 viewBox="0.00 0.00 1144.23 552.38" xmlns="http://www.w3.org/2000/svg" xmlns:xlink="http://www.w3.org/1999/xlink">
<g id="graph0" class="graph" transform="scale(1 1) rotate(0) translate(4 548.38)">
<title>パッケージ関連図</title>
<polygon fill="white" stroke="none" points="-4,4 -4,-548.38 1140.23,-548.38 1140.23,4 -4,4"/>
<text text-anchor="middle" x="568.12" y="-4.95" font-family="Times New Roman,serif" font-size="14.00">パッケージ関連図</text>
<g id="clust1" class="cluster">
<title>cluster_com.example.sms.domain.model.system</title>
<polygon fill="lemonchiffon" stroke="#eedd82" stroke-width="2" points="8,-89 8,-257.25 444,-257.25 444,-89 8,-89"/>
<text text-anchor="middle" x="226" y="-239.95" font-family="Times New Roman,serif" font-size="14.00">システム</text>
<text text-anchor="middle" x="226" y="-225.7" font-family="Times New Roman,serif" font-size="14.00">model.system</text>
</g>
<g id="clust2" class="cluster">
<title>cluster_com.example.sms.domain.model.master</title>
<polygon fill="lemonchiffon" stroke="#eedd82" stroke-width="2" points="630,-89 630,-350.75 802,-350.75 802,-89 630,-89"/>
<text text-anchor="middle" x="716" y="-333.45" font-family="Times New Roman,serif" font-size="14.00">マスタ</text>
<text text-anchor="middle" x="716" y="-319.2" font-family="Times New Roman,serif" font-size="14.00">model.master</text>
</g>
<g id="clust3" class="cluster">
<title>cluster_com.example.sms.domain.model.sales</title>
<polygon fill="lemonchiffon" stroke="#eedd82" stroke-width="2" points="637,-358.75 637,-536.38 787,-536.38 787,-358.75 637,-358.75"/>
<text text-anchor="middle" x="712" y="-519.08" font-family="Times New Roman,serif" font-size="14.00">販売</text>
<text text-anchor="middle" x="712" y="-504.82" font-family="Times New Roman,serif" font-size="14.00">model.sales</text>
</g>
<!-- summary -->
<g id="node1" class="node">
<title>summary</title>
<polygon fill="none" stroke="black" points="621,-499 437,-499 437,-441.5 627,-441.5 627,-493 621,-499"/>
<polyline fill="none" stroke="black" points="621,-499 621,-493"/>
<polyline fill="none" stroke="black" points="627,-493 621,-493"/>
<text text-anchor="start" x="445" y="-481.7" font-family="Times New Roman,serif" font-size="14.00">root: com.example.sms.domain</text>
<text text-anchor="start" x="445" y="-465.2" font-family="Times New Roman,serif" font-size="14.00">パッケージ数: 18</text>
<text text-anchor="start" x="445" y="-448.7" font-family="Times New Roman,serif" font-size="14.00">関連数: 37</text>
</g>
<!-- com.example.sms.domain.model.sales.sales -->
<g id="node2" class="node">
<title>com.example.sms.domain.model.sales.sales</title>
<g id="a_node2"><a xlink:href="./domain.html#com.example.sms.domain.model.sales.sales" xlink:title="売上\nsales">
<polygon fill="#eedd82" stroke="black" points="699,-489.62 645,-489.62 645,-450.88 699,-450.88 699,-489.62"/>
<text text-anchor="middle" x="672" y="-472.32" font-family="Times New Roman,serif" font-size="14.00">売上</text>
<text text-anchor="middle" x="672" y="-458.07" font-family="Times New Roman,serif" font-size="14.00">sales</text>
</a>
</g>
</g>
<!-- com.example.sms.domain.model.system.autonumber -->
<g id="node3" class="node">
<title>com.example.sms.domain.model.system.autonumber</title>
<g id="a_node3"><a xlink:href="./domain.html#com.example.sms.domain.model.system.autonumber" xlink:title="自動採番\nautonumber">
<polygon fill="#eedd82" stroke="black" points="101.5,-210.5 16.5,-210.5 16.5,-171.75 101.5,-171.75 101.5,-210.5"/>
<text text-anchor="middle" x="59" y="-193.2" font-family="Times New Roman,serif" font-size="14.00">自動採番</text>
<text text-anchor="middle" x="59" y="-178.95" font-family="Times New Roman,serif" font-size="14.00">autonumber</text>
</a>
</g>
</g>
<!-- com.example.sms.domain.model.sales.sales&#45;&gt;com.example.sms.domain.model.system.autonumber -->
<g id="edge1" class="edge">
<title>com.example.sms.domain.model.sales.sales&#45;&gt;com.example.sms.domain.model.system.autonumber</title>
<path fill="none" stroke="black" d="M651.43,-450.59C646.65,-447.08 641.37,-443.79 636,-441.5 537.19,-399.36 499.17,-438.66 397,-405.5 260.82,-361.3 221.64,-348.12 111,-257.25 98.08,-246.64 86.23,-232.34 77.12,-219.84"/>
<polygon fill="black" stroke="black" points="80.19,-218.13 71.58,-211.97 74.47,-222.16 80.19,-218.13"/>
</g>
<!-- com.example.sms.domain.model.master.employee -->
<g id="node4" class="node">
<title>com.example.sms.domain.model.master.employee</title>
<g id="a_node4"><a xlink:href="./domain.html#com.example.sms.domain.model.master.employee" xlink:title="社員\nemployee">
<polygon fill="#eedd82" stroke="black" points="707.62,-210.5 638.38,-210.5 638.38,-171.75 707.62,-171.75 707.62,-210.5"/>
<text text-anchor="middle" x="673" y="-193.2" font-family="Times New Roman,serif" font-size="14.00">社員</text>
<text text-anchor="middle" x="673" y="-178.95" font-family="Times New Roman,serif" font-size="14.00">employee</text>
</a>
</g>
</g>
<!-- com.example.sms.domain.model.sales.sales&#45;&gt;com.example.sms.domain.model.master.employee -->
<g id="edge33" class="edge">
<title>com.example.sms.domain.model.sales.sales&#45;&gt;com.example.sms.domain.model.master.employee</title>
<path fill="none" stroke="black" d="M650.97,-450.46C646.3,-447.04 641.18,-443.83 636,-441.5 558.01,-406.44 518.71,-452.09 447,-405.5 392.84,-370.32 368.18,-315.29 409,-265.25 420.18,-251.54 430.82,-261.49 448,-257.25 510.6,-241.8 581.97,-220.5 627.23,-206.53"/>
<polygon fill="black" stroke="black" points="628.2,-209.9 636.71,-203.59 626.12,-203.21 628.2,-209.9"/>
</g>
<!-- com.example.sms.domain.model.master.partner -->
<g id="node7" class="node">
<title>com.example.sms.domain.model.master.partner</title>
<g id="a_node7"><a xlink:href="./domain.html#com.example.sms.domain.model.master.partner" xlink:title="取引先\npartner">
<polygon fill="#eedd82" stroke="black" points="793.88,-210.5 726.12,-210.5 726.12,-171.75 793.88,-171.75 793.88,-210.5"/>
<text text-anchor="middle" x="760" y="-193.2" font-family="Times New Roman,serif" font-size="14.00">取引先</text>
<text text-anchor="middle" x="760" y="-178.95" font-family="Times New Roman,serif" font-size="14.00">partner</text>
</a>
</g>
</g>
<!-- com.example.sms.domain.model.sales.sales&#45;&gt;com.example.sms.domain.model.master.partner -->
<g id="edge28" class="edge">
<title>com.example.sms.domain.model.sales.sales&#45;&gt;com.example.sms.domain.model.master.partner</title>
<path fill="none" stroke="black" d="M648.58,-450.6C627.88,-433.92 600.45,-411.25 597,-405.5 564.78,-351.87 542.12,-310.81 585,-265.25 595.07,-254.55 704.28,-264.6 717,-257.25 730.98,-249.17 741.26,-234.51 748.26,-221.14"/>
<polygon fill="black" stroke="black" points="751.37,-222.74 752.52,-212.21 745.05,-219.72 751.37,-222.74"/>
</g>
<!-- com.example.sms.domain.model.master.department -->
<g id="node8" class="node">
<title>com.example.sms.domain.model.master.department</title>
<g id="a_node8"><a xlink:href="./domain.html#com.example.sms.domain.model.master.department" xlink:title="部門\ndepartment">
<polygon fill="#eedd82" stroke="black" points="718.75,-304 641.25,-304 641.25,-265.25 718.75,-265.25 718.75,-304"/>
<text text-anchor="middle" x="680" y="-286.7" font-family="Times New Roman,serif" font-size="14.00">部門</text>
<text text-anchor="middle" x="680" y="-272.45" font-family="Times New Roman,serif" font-size="14.00">department</text>
</a>
</g>
</g>
<!-- com.example.sms.domain.model.sales.sales&#45;&gt;com.example.sms.domain.model.master.department -->
<g id="edge4" class="edge">
<title>com.example.sms.domain.model.sales.sales&#45;&gt;com.example.sms.domain.model.master.department</title>
<path fill="none" stroke="black" d="M685.97,-450.56C694.15,-438.42 703.7,-421.85 708,-405.5 716.1,-374.67 705.26,-339.07 694.8,-314.73"/>
<polygon fill="black" stroke="black" points="698.04,-313.42 690.71,-305.77 691.67,-316.32 698.04,-313.42"/>
</g>
<!-- com.example.sms.domain.model.sales.order -->
<g id="node9" class="node">
<title>com.example.sms.domain.model.sales.order</title>
<g id="a_node9"><a xlink:href="./domain.html#com.example.sms.domain.model.sales.order" xlink:title="受注\norder">
<polygon fill="#eedd82" stroke="black" points="699,-405.5 645,-405.5 645,-366.75 699,-366.75 699,-405.5"/>
<text text-anchor="middle" x="672" y="-388.2" font-family="Times New Roman,serif" font-size="14.00">受注</text>
<text text-anchor="middle" x="672" y="-373.95" font-family="Times New Roman,serif" font-size="14.00">order</text>
</a>
</g>
</g>
<!-- com.example.sms.domain.model.sales.sales&#45;&gt;com.example.sms.domain.model.sales.order -->
<g id="edge13" class="edge">
<title>com.example.sms.domain.model.sales.sales&#45;&gt;com.example.sms.domain.model.sales.order</title>
<path fill="none" stroke="black" d="M672,-450.61C672,-440.81 672,-428.55 672,-417.43"/>
<polygon fill="black" stroke="black" points="675.5,-417.48 672,-407.48 668.5,-417.48 675.5,-417.48"/>
</g>
<!-- com.example.sms.domain.type.quantity -->
<g id="node11" class="node">
<title>com.example.sms.domain.type.quantity</title>
<g id="a_node11"><a xlink:href="./domain.html#com.example.sms.domain.type.quantity" xlink:title="数量\ntype.quantity">
<polygon fill="#eedd82" stroke="black" points="1073.62,-61 986.38,-61 986.38,-22.25 1073.62,-22.25 1073.62,-61"/>
<text text-anchor="middle" x="1030" y="-43.7" font-family="Times New Roman,serif" font-size="14.00">数量</text>
<text text-anchor="middle" x="1030" y="-29.45" font-family="Times New Roman,serif" font-size="14.00">type.quantity</text>
</a>
</g>
</g>
<!-- com.example.sms.domain.model.sales.sales&#45;&gt;com.example.sms.domain.type.quantity -->
<g id="edge35" class="edge">
<title>com.example.sms.domain.model.sales.sales&#45;&gt;com.example.sms.domain.type.quantity</title>
<path fill="none" stroke="black" d="M693.02,-450.44C697.69,-447.02 702.81,-443.81 708,-441.5 830.56,-386.82 908.28,-452.32 996,-350.75 1008.69,-336.05 1078,-141.35 1079,-135.75 1082.67,-115.3 1087.21,-108.08 1079,-89 1075.82,-81.6 1070.81,-74.84 1065.19,-68.89"/>
<polygon fill="black" stroke="black" points="1068,-66.73 1058.35,-62.36 1063.16,-71.8 1068,-66.73"/>
</g>
<!-- com.example.sms.domain.model.master.product -->
<g id="node12" class="node">
<title>com.example.sms.domain.model.master.product</title>
<g id="a_node12"><a xlink:href="./domain.html#com.example.sms.domain.model.master.product" xlink:title="商品\nproduct">
<polygon fill="#eedd82" stroke="black" points="793.62,-304 736.38,-304 736.38,-265.25 793.62,-265.25 793.62,-304"/>
<text text-anchor="middle" x="765" y="-286.7" font-family="Times New Roman,serif" font-size="14.00">商品</text>
<text text-anchor="middle" x="765" y="-272.45" font-family="Times New Roman,serif" font-size="14.00">product</text>
</a>
</g>
</g>
<!-- com.example.sms.domain.model.sales.sales&#45;&gt;com.example.sms.domain.model.master.product -->
<g id="edge20" class="edge">
<title>com.example.sms.domain.model.sales.sales&#45;&gt;com.example.sms.domain.model.master.product</title>
<path fill="none" stroke="black" d="M689.92,-450.39C700.66,-438.3 713.93,-421.87 723,-405.5 739.05,-376.52 750.73,-340.28 757.63,-315.27"/>
<polygon fill="black" stroke="black" points="760.97,-316.34 760.17,-305.77 754.21,-314.54 760.97,-316.34"/>
</g>
<!-- com.example.sms.domain.type.money -->
<g id="node13" class="node">
<title>com.example.sms.domain.type.money</title>
<g id="a_node13"><a xlink:href="./domain.html#com.example.sms.domain.type.money" xlink:title="通貨\ntype.money">
<polygon fill="#eedd82" stroke="black" points="1070.25,-135.75 989.75,-135.75 989.75,-97 1070.25,-97 1070.25,-135.75"/>
<text text-anchor="middle" x="1030" y="-118.45" font-family="Times New Roman,serif" font-size="14.00">通貨</text>
<text text-anchor="middle" x="1030" y="-104.2" font-family="Times New Roman,serif" font-size="14.00">type.money</text>
</a>
</g>
</g>
<!-- com.example.sms.domain.model.sales.sales&#45;&gt;com.example.sms.domain.type.money -->
<g id="edge10" class="edge">
<title>com.example.sms.domain.model.sales.sales&#45;&gt;com.example.sms.domain.type.money</title>
<path fill="none" stroke="black" d="M694.13,-450.52C698.56,-447.26 703.3,-444.09 708,-441.5 810.79,-384.84 869.05,-429.59 956,-350.75 1014.91,-297.34 1027.24,-197.36 1029.61,-147.4"/>
<polygon fill="black" stroke="black" points="1033.1,-147.75 1029.96,-137.63 1026.1,-147.5 1033.1,-147.75"/>
</g>
<!-- com.example.sms.domain.model.system.user -->
<g id="node5" class="node">
<title>com.example.sms.domain.model.system.user</title>
<g id="a_node5"><a xlink:href="./domain.html#com.example.sms.domain.model.system.user" xlink:title="ユーザー\nuser">
<polygon fill="#eedd82" stroke="black" points="261.5,-135.75 176.5,-135.75 176.5,-97 261.5,-97 261.5,-135.75"/>
<text text-anchor="middle" x="219" y="-118.45" font-family="Times New Roman,serif" font-size="14.00">ユーザー</text>
<text text-anchor="middle" x="219" y="-104.2" font-family="Times New Roman,serif" font-size="14.00">user</text>
</a>
</g>
</g>
<!-- com.example.sms.domain.model.master.employee&#45;&gt;com.example.sms.domain.model.system.user -->
<g id="edge2" class="edge">
<title>com.example.sms.domain.model.master.employee&#45;&gt;com.example.sms.domain.model.system.user</title>
<path fill="none" stroke="black" d="M638.13,-184.54C559.4,-171.92 367.4,-141.15 273.08,-126.04"/>
<polygon fill="black" stroke="black" points="273.73,-122.6 263.3,-124.47 272.62,-129.51 273.73,-122.6"/>
</g>
<!-- com.example.sms.domain.type.phone -->
<g id="node10" class="node">
<title>com.example.sms.domain.type.phone</title>
<g id="a_node10"><a xlink:href="./domain.html#com.example.sms.domain.type.phone" xlink:title="電話番号\ntype.phone">
<polygon fill="#eedd82" stroke="black" points="895.5,-135.75 810.5,-135.75 810.5,-97 895.5,-97 895.5,-135.75"/>
<text text-anchor="middle" x="853" y="-118.45" font-family="Times New Roman,serif" font-size="14.00">電話番号</text>
<text text-anchor="middle" x="853" y="-104.2" font-family="Times New Roman,serif" font-size="14.00">type.phone</text>
</a>
</g>
</g>
<!-- com.example.sms.domain.model.master.employee&#45;&gt;com.example.sms.domain.type.phone -->
<g id="edge7" class="edge">
<title>com.example.sms.domain.model.master.employee&#45;&gt;com.example.sms.domain.type.phone</title>
<path fill="none" stroke="black" d="M708.04,-175.43C711.07,-174.18 714.09,-172.94 717,-171.75 744.19,-160.64 774.53,-148.49 799.64,-138.49"/>
<polygon fill="black" stroke="black" points="800.65,-141.86 808.65,-134.91 798.06,-135.35 800.65,-141.86"/>
</g>
<!-- com.example.sms.domain.model.sales.shipping -->
<g id="node6" class="node">
<title>com.example.sms.domain.model.sales.shipping</title>
<g id="a_node6"><a xlink:href="./domain.html#com.example.sms.domain.model.sales.shipping" xlink:title="出荷\nshipping">
<polygon fill="#eedd82" stroke="black" points="779.25,-489.62 716.75,-489.62 716.75,-450.88 779.25,-450.88 779.25,-489.62"/>
<text text-anchor="middle" x="748" y="-472.32" font-family="Times New Roman,serif" font-size="14.00">出荷</text>
<text text-anchor="middle" x="748" y="-458.07" font-family="Times New Roman,serif" font-size="14.00">shipping</text>
</a>
</g>
</g>
<!-- com.example.sms.domain.model.sales.shipping&#45;&gt;com.example.sms.domain.model.master.employee -->
<g id="edge15" class="edge">
<title>com.example.sms.domain.model.sales.shipping&#45;&gt;com.example.sms.domain.model.master.employee</title>
<path fill="none" stroke="black" d="M723.3,-450.46C718.39,-447.21 713.15,-444.05 708,-441.5 661.53,-418.47 632.82,-443.01 597,-405.5 579.58,-387.25 585.36,-375.75 582,-350.75 576.93,-313.09 565.58,-299.52 582,-265.25 591.92,-244.55 610.88,-227.85 628.93,-215.67"/>
<polygon fill="black" stroke="black" points="630.42,-218.87 636.96,-210.53 626.65,-212.97 630.42,-218.87"/>
</g>
<!-- com.example.sms.domain.model.sales.shipping&#45;&gt;com.example.sms.domain.model.master.partner -->
<g id="edge3" class="edge">
<title>com.example.sms.domain.model.sales.shipping&#45;&gt;com.example.sms.domain.model.master.partner</title>
<path fill="none" stroke="black" d="M722.1,-450.49C717.48,-447.37 712.65,-444.26 708,-441.5 677.22,-423.26 660.65,-431.43 636,-405.5 592.43,-359.67 569.02,-311.63 612,-265.25 627.91,-248.09 696.83,-269.11 717,-257.25 730.91,-249.07 741.19,-234.39 748.2,-221.04"/>
<polygon fill="black" stroke="black" points="751.31,-222.67 752.48,-212.14 745,-219.64 751.31,-222.67"/>
</g>
<!-- com.example.sms.domain.model.sales.shipping&#45;&gt;com.example.sms.domain.model.master.department -->
<g id="edge23" class="edge">
<title>com.example.sms.domain.model.sales.shipping&#45;&gt;com.example.sms.domain.model.master.department</title>
<path fill="none" stroke="black" d="M745.6,-450.74C742.3,-428.37 735.31,-389.84 723,-358.75 716.82,-343.15 707.62,-326.94 699.32,-313.77"/>
<polygon fill="black" stroke="black" points="702.41,-312.1 694.03,-305.61 696.53,-315.91 702.41,-312.1"/>
</g>
<!-- com.example.sms.domain.model.sales.shipping&#45;&gt;com.example.sms.domain.model.sales.order -->
<g id="edge17" class="edge">
<title>com.example.sms.domain.model.sales.shipping&#45;&gt;com.example.sms.domain.model.sales.order</title>
<path fill="none" stroke="black" d="M730.75,-450.61C720.82,-439.88 708.15,-426.18 697.12,-414.27"/>
<polygon fill="black" stroke="black" points="699.83,-412.04 690.47,-407.08 694.69,-416.8 699.83,-412.04"/>
</g>
<!-- com.example.sms.domain.model.sales.shipping&#45;&gt;com.example.sms.domain.type.quantity -->
<g id="edge8" class="edge">
<title>com.example.sms.domain.model.sales.shipping&#45;&gt;com.example.sms.domain.type.quantity</title>
<path fill="none" stroke="black" d="M779.42,-468.81C871.79,-465.7 1136,-443.06 1136,-285.62 1136,-285.62 1136,-285.62 1136,-190.12 1136,-143.93 1139.75,-125.93 1112,-89 1104.55,-79.09 1094.33,-70.98 1083.62,-64.48"/>
<polygon fill="black" stroke="black" points="1085.48,-61.51 1075.04,-59.69 1082.07,-67.62 1085.48,-61.51"/>
</g>
<!-- com.example.sms.domain.model.sales.shipping&#45;&gt;com.example.sms.domain.model.master.product -->
<g id="edge25" class="edge">
<title>com.example.sms.domain.model.sales.shipping&#45;&gt;com.example.sms.domain.model.master.product</title>
<path fill="none" stroke="black" d="M779.6,-460.02C804.99,-450.74 838.98,-433.7 855,-405.5 865.27,-387.44 863.93,-377.51 855,-358.75 844.32,-336.3 823,-318.5 803.8,-306.08"/>
<polygon fill="black" stroke="black" points="805.66,-303.12 795.3,-300.87 802,-309.08 805.66,-303.12"/>
</g>
<!-- com.example.sms.domain.model.sales.shipping&#45;&gt;com.example.sms.domain.type.money -->
<g id="edge32" class="edge">
<title>com.example.sms.domain.model.sales.shipping&#45;&gt;com.example.sms.domain.type.money</title>
<path fill="none" stroke="black" d="M779.74,-467.15C841.63,-461.13 977.47,-438.12 1036,-350.75 1077.78,-288.38 1055.96,-194.09 1040.7,-146.72"/>
<polygon fill="black" stroke="black" points="1044.09,-145.8 1037.58,-137.44 1037.45,-148.03 1044.09,-145.8"/>
</g>
<!-- com.example.sms.domain.model.master.partner&#45;&gt;com.example.sms.domain.type.phone -->
<g id="edge27" class="edge">
<title>com.example.sms.domain.model.master.partner&#45;&gt;com.example.sms.domain.type.phone</title>
<path fill="none" stroke="black" d="M783.95,-171.39C795.01,-162.73 808.33,-152.32 820.3,-142.96"/>
<polygon fill="black" stroke="black" points="822.22,-145.9 827.94,-136.98 817.91,-140.38 822.22,-145.9"/>
</g>
<!-- com.example.sms.domain.model.master.partner&#45;&gt;com.example.sms.domain.type.money -->
<g id="edge26" class="edge">
<title>com.example.sms.domain.model.master.partner&#45;&gt;com.example.sms.domain.type.money</title>
<path fill="none" stroke="black" d="M794.2,-180.91C840.7,-168.38 924.27,-145.86 978.41,-131.28"/>
<polygon fill="black" stroke="black" points="979.28,-134.67 988.03,-128.68 977.46,-127.91 979.28,-134.67"/>
</g>
<!-- com.example.sms.domain.model.master.region -->
<g id="node14" class="node">
<title>com.example.sms.domain.model.master.region</title>
<g id="a_node14"><a xlink:href="./domain.html#com.example.sms.domain.model.master.region" xlink:title="地域\nregion">
<polygon fill="#eedd82" stroke="black" points="787,-135.75 733,-135.75 733,-97 787,-97 787,-135.75"/>
<text text-anchor="middle" x="760" y="-118.45" font-family="Times New Roman,serif" font-size="14.00">地域</text>
<text text-anchor="middle" x="760" y="-104.2" font-family="Times New Roman,serif" font-size="14.00">region</text>
</a>
</g>
</g>
<!-- com.example.sms.domain.model.master.partner&#45;&gt;com.example.sms.domain.model.master.region -->
<g id="edge11" class="edge">
<title>com.example.sms.domain.model.master.partner&#45;&gt;com.example.sms.domain.model.master.region</title>
<path fill="none" stroke="black" d="M760,-171.39C760,-164.09 760,-155.54 760,-147.43"/>
<polygon fill="black" stroke="black" points="763.5,-147.56 760,-137.56 756.5,-147.56 763.5,-147.56"/>
</g>
<!-- com.example.sms.domain.type.mail -->
<g id="node16" class="node">
<title>com.example.sms.domain.type.mail</title>
<g id="a_node16"><a xlink:href="./domain.html#com.example.sms.domain.type.mail" xlink:title="メール\ntype.mail">
<polygon fill="#eedd82" stroke="black" points="519.88,-135.75 452.12,-135.75 452.12,-97 519.88,-97 519.88,-135.75"/>
<text text-anchor="middle" x="486" y="-118.45" font-family="Times New Roman,serif" font-size="14.00">メール</text>
<text text-anchor="middle" x="486" y="-104.2" font-family="Times New Roman,serif" font-size="14.00">type.mail</text>
</a>
</g>
</g>
<!-- com.example.sms.domain.model.master.partner&#45;&gt;com.example.sms.domain.type.mail -->
<g id="edge14" class="edge">
<title>com.example.sms.domain.model.master.partner&#45;&gt;com.example.sms.domain.type.mail</title>
<path fill="none" stroke="black" d="M725.98,-174.81C722.97,-173.69 719.95,-172.65 717,-171.75 638.98,-147.91 612.53,-159.55 530.82,-135.92"/>
<polygon fill="black" stroke="black" points="532.05,-132.64 521.47,-133.13 530.05,-139.35 532.05,-132.64"/>
</g>
<!-- com.example.sms.domain.type.address -->
<g id="node17" class="node">
<title>com.example.sms.domain.type.address</title>
<g id="a_node17"><a xlink:href="./domain.html#com.example.sms.domain.type.address" xlink:title="住所\ntype.address">
<polygon fill="#eedd82" stroke="black" points="621.75,-135.75 538.25,-135.75 538.25,-97 621.75,-97 621.75,-135.75"/>
<text text-anchor="middle" x="580" y="-118.45" font-family="Times New Roman,serif" font-size="14.00">住所</text>
<text text-anchor="middle" x="580" y="-104.2" font-family="Times New Roman,serif" font-size="14.00">type.address</text>
</a>
</g>
</g>
<!-- com.example.sms.domain.model.master.partner&#45;&gt;com.example.sms.domain.type.address -->
<g id="edge24" class="edge">
<title>com.example.sms.domain.model.master.partner&#45;&gt;com.example.sms.domain.type.address</title>
<path fill="none" stroke="black" d="M725.77,-175.4C722.81,-174.15 719.85,-172.92 717,-171.75 680.08,-156.56 668.32,-152.46 632.37,-138.27"/>
<polygon fill="black" stroke="black" points="634.11,-135.19 623.52,-134.76 631.53,-141.7 634.11,-135.19"/>
</g>
<!-- com.example.sms.domain.model.master.department&#45;&gt;com.example.sms.domain.model.master.employee -->
<g id="edge36" class="edge">
<title>com.example.sms.domain.model.master.department&#45;&gt;com.example.sms.domain.model.master.employee</title>
<path fill="none" stroke="red" stroke-width="2" d="M677.73,-253.93C676.95,-243.77 676.08,-232.4 675.3,-222.21"/>
<polygon fill="red" stroke="red" stroke-width="2" points="674.1,-252.39 678.35,-262.09 681.08,-251.85 674.1,-252.39"/>
<polygon fill="red" stroke="red" stroke-width="2" points="678.92,-223.65 674.67,-213.95 671.94,-224.18 678.92,-223.65"/>
</g>
<!-- com.example.sms.domain.model.sales.order&#45;&gt;com.example.sms.domain.model.system.autonumber -->
<g id="edge22" class="edge">
<title>com.example.sms.domain.model.sales.order&#45;&gt;com.example.sms.domain.model.system.autonumber</title>
<path fill="none" stroke="black" d="M644.68,-376.05C574.57,-353.18 382.15,-293 217,-265.25 193.7,-261.34 131.89,-268.29 111,-257.25 95.46,-249.04 82.95,-233.95 74.11,-220.36"/>
<polygon fill="black" stroke="black" points="77.3,-218.87 69.11,-212.15 71.32,-222.51 77.3,-218.87"/>
</g>
<!-- com.example.sms.domain.model.sales.order&#45;&gt;com.example.sms.domain.model.master.employee -->
<g id="edge6" class="edge">
<title>com.example.sms.domain.model.sales.order&#45;&gt;com.example.sms.domain.model.master.employee</title>
<path fill="none" stroke="black" d="M644.55,-379.84C628.29,-375.15 608.98,-366.48 599,-350.75 578.64,-318.66 584.35,-300.31 599,-265.25 606.73,-246.76 621.66,-230.56 636.1,-218.13"/>
<polygon fill="black" stroke="black" points="638.25,-220.9 643.78,-211.86 633.82,-215.47 638.25,-220.9"/>
</g>
<!-- com.example.sms.domain.model.sales.order&#45;&gt;com.example.sms.domain.model.master.partner -->
<g id="edge5" class="edge">
<title>com.example.sms.domain.model.sales.order&#45;&gt;com.example.sms.domain.model.master.partner</title>
<path fill="none" stroke="black" d="M644.79,-367.42C639.61,-362.67 634.9,-357.07 632,-350.75 616.14,-316.22 606.42,-293.35 632,-265.25 644.77,-251.22 700.73,-267.01 717,-257.25 730.75,-249 740.98,-234.46 748,-221.2"/>
<polygon fill="black" stroke="black" points="751.08,-222.88 752.29,-212.36 744.78,-219.83 751.08,-222.88"/>
</g>
<!-- com.example.sms.domain.model.sales.order&#45;&gt;com.example.sms.domain.model.master.department -->
<g id="edge18" class="edge">
<title>com.example.sms.domain.model.sales.order&#45;&gt;com.example.sms.domain.model.master.department</title>
<path fill="none" stroke="black" d="M673.5,-366.41C674.66,-352.1 676.27,-332.07 677.59,-315.54"/>
<polygon fill="black" stroke="black" points="681.07,-316.01 678.38,-305.76 674.09,-315.45 681.07,-316.01"/>
</g>
<!-- com.example.sms.domain.model.sales.order&#45;&gt;com.example.sms.domain.type.quantity -->
<g id="edge19" class="edge">
<title>com.example.sms.domain.model.sales.order&#45;&gt;com.example.sms.domain.type.quantity</title>
<path fill="none" stroke="black" d="M699.29,-383.79C728.18,-381.17 773.96,-373.45 806,-350.75 920.19,-269.86 890.73,-195.93 981,-89 986.84,-82.08 993.63,-75.11 1000.25,-68.74"/>
<polygon fill="black" stroke="black" points="1002.45,-71.48 1007.37,-62.1 997.67,-66.37 1002.45,-71.48"/>
</g>
<!-- com.example.sms.domain.model.sales.order&#45;&gt;com.example.sms.domain.model.master.product -->
<g id="edge29" class="edge">
<title>com.example.sms.domain.model.sales.order&#45;&gt;com.example.sms.domain.model.master.product</title>
<path fill="none" stroke="black" d="M699.35,-372.02C709.17,-366.41 719.83,-359.2 728,-350.75 738.07,-340.34 746.38,-326.66 752.55,-314.53"/>
<polygon fill="black" stroke="black" points="755.6,-316.28 756.77,-305.75 749.29,-313.25 755.6,-316.28"/>
</g>
<!-- com.example.sms.domain.model.sales.order&#45;&gt;com.example.sms.domain.type.money -->
<g id="edge21" class="edge">
<title>com.example.sms.domain.model.sales.order&#45;&gt;com.example.sms.domain.type.money</title>
<path fill="none" stroke="black" d="M699.19,-377.68C722.76,-371.55 757.87,-363.17 789,-358.75 803.66,-356.67 909.77,-359.09 922,-350.75 931.14,-344.52 990.84,-208.09 1017.35,-146.77"/>
<polygon fill="black" stroke="black" points="1020.55,-148.2 1021.3,-137.63 1014.12,-145.43 1020.55,-148.2"/>
</g>
<!-- com.example.sms.domain.model.master.product&#45;&gt;com.example.sms.domain.model.master.partner -->
<g id="edge16" class="edge">
<title>com.example.sms.domain.model.master.product&#45;&gt;com.example.sms.domain.model.master.partner</title>
<path fill="none" stroke="black" d="M763.99,-265.11C763.31,-252.79 762.42,-236.32 761.64,-222.15"/>
<polygon fill="black" stroke="black" points="765.15,-222.23 761.11,-212.44 758.16,-222.62 765.15,-222.23"/>
</g>
<!-- com.example.sms.domain.model.master.product&#45;&gt;com.example.sms.domain.type.quantity -->
<g id="edge9" class="edge">
<title>com.example.sms.domain.model.master.product&#45;&gt;com.example.sms.domain.type.quantity</title>
<path fill="none" stroke="black" d="M793.82,-264.79C797.01,-262.37 800.14,-259.83 803,-257.25 821.34,-240.74 928.92,-104.65 948,-89 957.97,-80.82 969.59,-73.27 980.89,-66.75"/>
<polygon fill="black" stroke="black" points="982.33,-69.95 989.36,-62.03 978.92,-63.84 982.33,-69.95"/>
</g>
<!-- com.example.sms.domain.model.master.product&#45;&gt;com.example.sms.domain.type.money -->
<g id="edge30" class="edge">
<title>com.example.sms.domain.model.master.product&#45;&gt;com.example.sms.domain.type.money</title>
<path fill="none" stroke="black" d="M793.99,-281.74C819.12,-279.08 855.78,-272.68 884,-257.25 931.29,-231.4 930.91,-208.86 970,-171.75 979.86,-162.39 990.83,-152.35 1000.66,-143.47"/>
<polygon fill="black" stroke="black" points="1002.73,-146.31 1007.83,-137.03 998.05,-141.11 1002.73,-146.31"/>
</g>
<!-- com.example.sms.domain.type.money&#45;&gt;com.example.sms.domain.type.quantity -->
<g id="edge31" class="edge">
<title>com.example.sms.domain.type.money&#45;&gt;com.example.sms.domain.type.quantity</title>
<path fill="none" stroke="black" d="M1030,-96.64C1030,-89.34 1030,-80.79 1030,-72.68"/>
<polygon fill="black" stroke="black" points="1033.5,-72.81 1030,-62.81 1026.5,-72.81 1033.5,-72.81"/>
</g>
<!-- com.example.sms.domain.model.system.audit -->
<g id="node15" class="node">
<title>com.example.sms.domain.model.system.audit</title>
<g id="a_node15"><a xlink:href="./domain.html#com.example.sms.domain.model.system.audit" xlink:title="監査\naudit">
<polygon fill="#eedd82" stroke="black" points="174,-210.5 120,-210.5 120,-171.75 174,-171.75 174,-210.5"/>
<text text-anchor="middle" x="147" y="-193.2" font-family="Times New Roman,serif" font-size="14.00">監査</text>
<text text-anchor="middle" x="147" y="-178.95" font-family="Times New Roman,serif" font-size="14.00">audit</text>
</a>
</g>
</g>
<!-- com.example.sms.domain.model.system.audit&#45;&gt;com.example.sms.domain.model.system.user -->
<g id="edge12" class="edge">
<title>com.example.sms.domain.model.system.audit&#45;&gt;com.example.sms.domain.model.system.user</title>
<path fill="none" stroke="black" d="M165.54,-171.39C173.77,-163.07 183.61,-153.13 192.59,-144.06"/>
<polygon fill="black" stroke="black" points="194.91,-146.69 199.46,-137.12 189.93,-141.77 194.91,-146.69"/>
</g>
<!-- com.example.sms.domain.model.system.auth -->
<g id="node18" class="node">
<title>com.example.sms.domain.model.system.auth</title>
<g id="a_node18"><a xlink:href="./domain.html#com.example.sms.domain.model.system.auth" xlink:title="認証\nauth">
<polygon fill="#eedd82" stroke="black" points="246,-210.5 192,-210.5 192,-171.75 246,-171.75 246,-210.5"/>
<text text-anchor="middle" x="219" y="-193.2" font-family="Times New Roman,serif" font-size="14.00">認証</text>
<text text-anchor="middle" x="219" y="-178.95" font-family="Times New Roman,serif" font-size="14.00">auth</text>
</a>
</g>
</g>
<!-- com.example.sms.domain.model.system.auth&#45;&gt;com.example.sms.domain.model.system.user -->
<g id="edge34" class="edge">
<title>com.example.sms.domain.model.system.auth&#45;&gt;com.example.sms.domain.model.system.user</title>
<path fill="none" stroke="black" d="M219,-171.39C219,-164.09 219,-155.54 219,-147.43"/>
<polygon fill="black" stroke="black" points="222.5,-147.56 219,-137.56 215.5,-147.56 222.5,-147.56"/>
</g>
<!-- com.example.sms.domain.model.system.download -->
<g id="node19" class="node">
<title>com.example.sms.domain.model.system.download</title>
<g id="a_node19"><a xlink:href="./domain.html#com.example.sms.domain.model.system.download" xlink:title="データダウンロード\ndownload">
<polygon fill="#eedd82" stroke="black" points="435.62,-210.5 264.38,-210.5 264.38,-171.75 435.62,-171.75 435.62,-210.5"/>
<text text-anchor="middle" x="350" y="-193.2" font-family="Times New Roman,serif" font-size="14.00">データダウンロード</text>
<text text-anchor="middle" x="350" y="-178.95" font-family="Times New Roman,serif" font-size="14.00">download</text>
</a>
</g>
</g>
</g>
</svg>
