<?xml version="1.0" encoding="UTF-8" standalone="no"?>
<!DOCTYPE svg PUBLIC "-//W3C//DTD SVG 1.1//EN"
 "http://www.w3.org/Graphics/SVG/1.1/DTD/svg11.dtd">
<!-- Generated by graphviz version 12.2.0 (20241103.1931)
 -->
<!-- Title: パッケージ関連図 Pages: 1 -->
<svg width="1190pt" height="544pt"
 viewBox="0.00 0.00 1189.57 544.38" xmlns="http://www.w3.org/2000/svg" xmlns:xlink="http://www.w3.org/1999/xlink">
<g id="graph0" class="graph" transform="scale(1 1) rotate(0) translate(4 540.38)">
<title>パッケージ関連図</title>
<polygon fill="white" stroke="none" points="-4,4 -4,-540.38 1185.57,-540.38 1185.57,4 -4,4"/>
<text text-anchor="middle" x="590.78" y="-4.95" font-family="Times New Roman,serif" font-size="14.00">パッケージ関連図</text>
<g id="clust1" class="cluster">
<title>cluster_com.example.sms.domain.model.sales.shipping</title>
<polygon fill="lemonchiffon" stroke="#eedd82" stroke-width="2" points="369.62,-434.88 369.62,-528.38 499.62,-528.38 499.62,-434.88 369.62,-434.88"/>
<text text-anchor="middle" x="434.62" y="-511.07" font-family="Times New Roman,serif" font-size="14.00">出荷</text>
<text text-anchor="middle" x="434.62" y="-496.82" font-family="Times New Roman,serif" font-size="14.00">model.sales.shipping</text>
</g>
<g id="clust2" class="cluster">
<title>cluster_com.example.sms.domain.model.sales.order</title>
<polygon fill="lemonchiffon" stroke="#eedd82" stroke-width="2" points="1027.62,-332 1027.62,-425.5 1145.62,-425.5 1145.62,-332 1027.62,-332"/>
<text text-anchor="middle" x="1086.62" y="-408.2" font-family="Times New Roman,serif" font-size="14.00">受注</text>
<text text-anchor="middle" x="1086.62" y="-393.95" font-family="Times New Roman,serif" font-size="14.00">model.sales.order</text>
</g>
<g id="clust3" class="cluster">
<title>cluster_com.example.sms.domain.model.master.partner</title>
<polygon fill="lemonchiffon" stroke="#eedd82" stroke-width="2" points="435.62,-89 435.62,-182.5 677.62,-182.5 677.62,-89 435.62,-89"/>
<text text-anchor="middle" x="556.62" y="-165.2" font-family="Times New Roman,serif" font-size="14.00">取引先</text>
<text text-anchor="middle" x="556.62" y="-150.95" font-family="Times New Roman,serif" font-size="14.00">model.master.partner</text>
</g>
<!-- summary -->
<g id="node1" class="node">
<title>summary</title>
<polygon fill="none" stroke="black" points="354.62,-491 170.62,-491 170.62,-433.5 360.62,-433.5 360.62,-485 354.62,-491"/>
<polyline fill="none" stroke="black" points="354.62,-491 354.62,-485"/>
<polyline fill="none" stroke="black" points="360.62,-485 354.62,-485"/>
<text text-anchor="start" x="178.62" y="-473.7" font-family="Times New Roman,serif" font-size="14.00">root: com.example.sms.domain</text>
<text text-anchor="start" x="178.62" y="-457.2" font-family="Times New Roman,serif" font-size="14.00">パッケージ数: 23</text>
<text text-anchor="start" x="178.62" y="-440.7" font-family="Times New Roman,serif" font-size="14.00">関連数: 53</text>
</g>
<!-- com.example.sms.domain.model.master.employee -->
<g id="node2" class="node">
<title>com.example.sms.domain.model.master.employee</title>
<g id="a_node2"><a xlink:href="./domain.html#com.example.sms.domain.model.master.employee" xlink:title="社員\nmodel.master.employee">
<polygon fill="#eedd82" stroke="black" points="425.25,-135.75 278,-135.75 278,-97 425.25,-97 425.25,-135.75"/>
<text text-anchor="middle" x="351.62" y="-118.45" font-family="Times New Roman,serif" font-size="14.00">社員</text>
<text text-anchor="middle" x="351.62" y="-104.2" font-family="Times New Roman,serif" font-size="14.00">model.master.employee</text>
</a>
</g>
</g>
<!-- com.example.sms.domain.model.system.user -->
<g id="node3" class="node">
<title>com.example.sms.domain.model.system.user</title>
<g id="a_node3"><a xlink:href="./domain.html#com.example.sms.domain.model.system.user" xlink:title="ユーザー\nmodel.system.user">
<polygon fill="#eedd82" stroke="black" points="260,-61 141.25,-61 141.25,-22.25 260,-22.25 260,-61"/>
<text text-anchor="middle" x="200.62" y="-43.7" font-family="Times New Roman,serif" font-size="14.00">ユーザー</text>
<text text-anchor="middle" x="200.62" y="-29.45" font-family="Times New Roman,serif" font-size="14.00">model.system.user</text>
</a>
</g>
</g>
<!-- com.example.sms.domain.model.master.employee&#45;&gt;com.example.sms.domain.model.system.user -->
<g id="edge1" class="edge">
<title>com.example.sms.domain.model.master.employee&#45;&gt;com.example.sms.domain.model.system.user</title>
<path fill="none" stroke="black" d="M312.74,-96.64C293.61,-87.43 270.36,-76.22 249.99,-66.41"/>
<polygon fill="black" stroke="black" points="251.53,-63.27 241.01,-62.08 248.49,-69.57 251.53,-63.27"/>
</g>
<!-- com.example.sms.domain.type.phone -->
<g id="node8" class="node">
<title>com.example.sms.domain.type.phone</title>
<g id="a_node8"><a xlink:href="./domain.html#com.example.sms.domain.type.phone" xlink:title="電話番号\ntype.phone">
<polygon fill="#eedd82" stroke="black" points="394.12,-61 309.12,-61 309.12,-22.25 394.12,-22.25 394.12,-61"/>
<text text-anchor="middle" x="351.62" y="-43.7" font-family="Times New Roman,serif" font-size="14.00">電話番号</text>
<text text-anchor="middle" x="351.62" y="-29.45" font-family="Times New Roman,serif" font-size="14.00">type.phone</text>
</a>
</g>
</g>
<!-- com.example.sms.domain.model.master.employee&#45;&gt;com.example.sms.domain.type.phone -->
<g id="edge4" class="edge">
<title>com.example.sms.domain.model.master.employee&#45;&gt;com.example.sms.domain.type.phone</title>
<path fill="none" stroke="black" d="M351.62,-96.64C351.62,-89.34 351.62,-80.79 351.62,-72.68"/>
<polygon fill="black" stroke="black" points="355.13,-72.81 351.63,-62.81 348.13,-72.81 355.13,-72.81"/>
</g>
<!-- com.example.sms.domain.model.sales.order.rule -->
<g id="node4" class="node">
<title>com.example.sms.domain.model.sales.order.rule</title>
<g id="a_node4"><a xlink:href="./domain.html#com.example.sms.domain.model.sales.order.rule" xlink:title="受注ルール\nrule">
<polygon fill="#eedd82" stroke="black" points="1137.75,-378.75 1035.5,-378.75 1035.5,-340 1137.75,-340 1137.75,-378.75"/>
<text text-anchor="middle" x="1086.62" y="-361.45" font-family="Times New Roman,serif" font-size="14.00">受注ルール</text>
<text text-anchor="middle" x="1086.62" y="-347.2" font-family="Times New Roman,serif" font-size="14.00">rule</text>
</a>
</g>
</g>
<!-- com.example.sms.domain.type.money -->
<g id="node5" class="node">
<title>com.example.sms.domain.type.money</title>
<g id="a_node5"><a xlink:href="./domain.html#com.example.sms.domain.type.money" xlink:title="通貨\ntype.money">
<polygon fill="#eedd82" stroke="black" points="923.88,-135.75 843.38,-135.75 843.38,-97 923.88,-97 923.88,-135.75"/>
<text text-anchor="middle" x="883.62" y="-118.45" font-family="Times New Roman,serif" font-size="14.00">通貨</text>
<text text-anchor="middle" x="883.62" y="-104.2" font-family="Times New Roman,serif" font-size="14.00">type.money</text>
</a>
</g>
</g>
<!-- com.example.sms.domain.model.sales.order.rule&#45;&gt;com.example.sms.domain.type.money -->
<g id="edge2" class="edge">
<title>com.example.sms.domain.model.sales.order.rule&#45;&gt;com.example.sms.domain.type.money</title>
<path fill="none" stroke="black" d="M1108.73,-339.61C1144.45,-307.05 1207.21,-238.91 1169.62,-190.5 1141.15,-153.83 1009.7,-132.43 935.32,-123.06"/>
<polygon fill="black" stroke="black" points="936.19,-119.64 925.83,-121.9 935.33,-126.59 936.19,-119.64"/>
</g>
<!-- com.example.sms.domain.model.sales.order -->
<g id="node6" class="node">
<title>com.example.sms.domain.model.sales.order</title>
<g id="a_node6"><a xlink:href="./domain.html#com.example.sms.domain.model.sales.order" xlink:title="受注\nmodel.sales.order">
<polygon fill="#eedd82" stroke="black" points="692,-304 579.25,-304 579.25,-265.25 692,-265.25 692,-304"/>
<text text-anchor="middle" x="635.62" y="-286.7" font-family="Times New Roman,serif" font-size="14.00">受注</text>
<text text-anchor="middle" x="635.62" y="-272.45" font-family="Times New Roman,serif" font-size="14.00">model.sales.order</text>
</a>
</g>
</g>
<!-- com.example.sms.domain.model.sales.order.rule&#45;&gt;com.example.sms.domain.model.sales.order -->
<g id="edge22" class="edge">
<title>com.example.sms.domain.model.sales.order.rule&#45;&gt;com.example.sms.domain.model.sales.order</title>
<path fill="none" stroke="black" d="M1035.33,-350.1C953.74,-336.94 794.37,-311.23 703.45,-296.57"/>
<polygon fill="black" stroke="black" points="704.09,-293.12 693.66,-294.99 702.98,-300.04 704.09,-293.12"/>
</g>
<!-- com.example.sms.domain.type.quantity -->
<g id="node10" class="node">
<title>com.example.sms.domain.type.quantity</title>
<g id="a_node10"><a xlink:href="./domain.html#com.example.sms.domain.type.quantity" xlink:title="数量\ntype.quantity">
<polygon fill="#eedd82" stroke="black" points="927.25,-61 840,-61 840,-22.25 927.25,-22.25 927.25,-61"/>
<text text-anchor="middle" x="883.62" y="-43.7" font-family="Times New Roman,serif" font-size="14.00">数量</text>
<text text-anchor="middle" x="883.62" y="-29.45" font-family="Times New Roman,serif" font-size="14.00">type.quantity</text>
</a>
</g>
</g>
<!-- com.example.sms.domain.type.money&#45;&gt;com.example.sms.domain.type.quantity -->
<g id="edge24" class="edge">
<title>com.example.sms.domain.type.money&#45;&gt;com.example.sms.domain.type.quantity</title>
<path fill="none" stroke="black" d="M883.62,-96.64C883.62,-89.34 883.62,-80.79 883.62,-72.68"/>
<polygon fill="black" stroke="black" points="887.13,-72.81 883.63,-62.81 880.13,-72.81 887.13,-72.81"/>
</g>
<!-- com.example.sms.domain.model.sales.order&#45;&gt;com.example.sms.domain.model.master.employee -->
<g id="edge33" class="edge">
<title>com.example.sms.domain.model.sales.order&#45;&gt;com.example.sms.domain.model.master.employee</title>
<path fill="none" stroke="black" d="M587.31,-264.85C565.33,-255.44 539.43,-243.1 517.62,-229.25 495.06,-214.92 495.71,-202.1 471.62,-190.5 455.29,-182.63 448.03,-190.23 431.62,-182.5 411.45,-172.99 391.97,-157.32 377.28,-143.73"/>
<polygon fill="black" stroke="black" points="379.96,-141.45 370.31,-137.08 375.13,-146.52 379.96,-141.45"/>
</g>
<!-- com.example.sms.domain.model.sales.order&#45;&gt;com.example.sms.domain.type.money -->
<g id="edge17" class="edge">
<title>com.example.sms.domain.model.sales.order&#45;&gt;com.example.sms.domain.type.money</title>
<path fill="none" stroke="black" d="M692.34,-279.86C760.73,-274.01 869.65,-260.02 894.62,-229.25 913.29,-206.26 905.96,-171.21 896.9,-146.48"/>
<polygon fill="black" stroke="black" points="900.21,-145.33 893.26,-137.33 893.7,-147.92 900.21,-145.33"/>
</g>
<!-- com.example.sms.domain.model.master.partner -->
<g id="node7" class="node">
<title>com.example.sms.domain.model.master.partner</title>
<g id="a_node7"><a xlink:href="./domain.html#com.example.sms.domain.model.master.partner" xlink:title="取引先\nmodel.master.partner">
<polygon fill="#eedd82" stroke="black" points="693.75,-229.25 561.5,-229.25 561.5,-190.5 693.75,-190.5 693.75,-229.25"/>
<text text-anchor="middle" x="627.62" y="-211.95" font-family="Times New Roman,serif" font-size="14.00">取引先</text>
<text text-anchor="middle" x="627.62" y="-197.7" font-family="Times New Roman,serif" font-size="14.00">model.master.partner</text>
</a>
</g>
</g>
<!-- com.example.sms.domain.model.sales.order&#45;&gt;com.example.sms.domain.model.master.partner -->
<g id="edge3" class="edge">
<title>com.example.sms.domain.model.sales.order&#45;&gt;com.example.sms.domain.model.master.partner</title>
<path fill="none" stroke="black" d="M633.56,-264.89C632.76,-257.59 631.82,-249.04 630.93,-240.93"/>
<polygon fill="black" stroke="black" points="634.42,-240.61 629.84,-231.05 627.46,-241.37 634.42,-240.61"/>
</g>
<!-- com.example.sms.domain.model.sales.order&#45;&gt;com.example.sms.domain.type.quantity -->
<g id="edge36" class="edge">
<title>com.example.sms.domain.model.sales.order&#45;&gt;com.example.sms.domain.type.quantity</title>
<path fill="none" stroke="black" d="M692.42,-279.01C763.99,-272.13 881.63,-256.92 914.62,-229.25 962.78,-188.87 957.47,-146.72 932.62,-89 929.44,-81.6 924.43,-74.84 918.81,-68.89"/>
<polygon fill="black" stroke="black" points="921.62,-66.73 911.97,-62.36 916.79,-71.8 921.62,-66.73"/>
</g>
<!-- com.example.sms.domain.model.master.partner.customer -->
<g id="node11" class="node">
<title>com.example.sms.domain.model.master.partner.customer</title>
<g id="a_node11"><a xlink:href="./domain.html#com.example.sms.domain.model.master.partner.customer" xlink:title="顧客\ncustomer">
<polygon fill="#eedd82" stroke="black" points="509.75,-135.75 443.5,-135.75 443.5,-97 509.75,-97 509.75,-135.75"/>
<text text-anchor="middle" x="476.62" y="-118.45" font-family="Times New Roman,serif" font-size="14.00">顧客</text>
<text text-anchor="middle" x="476.62" y="-104.2" font-family="Times New Roman,serif" font-size="14.00">customer</text>
</a>
</g>
</g>
<!-- com.example.sms.domain.model.sales.order&#45;&gt;com.example.sms.domain.model.master.partner.customer -->
<g id="edge16" class="edge">
<title>com.example.sms.domain.model.sales.order&#45;&gt;com.example.sms.domain.model.master.partner.customer</title>
<path fill="none" stroke="black" d="M601.29,-264.99C585.49,-255.49 567.1,-243.03 552.62,-229.25 527,-204.85 505.21,-170.41 491.62,-146.2"/>
<polygon fill="black" stroke="black" points="494.74,-144.61 486.86,-137.52 488.6,-147.97 494.74,-144.61"/>
</g>
<!-- com.example.sms.domain.model.master.product -->
<g id="node12" class="node">
<title>com.example.sms.domain.model.master.product</title>
<g id="a_node12"><a xlink:href="./domain.html#com.example.sms.domain.model.master.product" xlink:title="商品\nmodel.master.product">
<polygon fill="#eedd82" stroke="black" points="885.25,-229.25 750,-229.25 750,-190.5 885.25,-190.5 885.25,-229.25"/>
<text text-anchor="middle" x="817.62" y="-211.95" font-family="Times New Roman,serif" font-size="14.00">商品</text>
<text text-anchor="middle" x="817.62" y="-197.7" font-family="Times New Roman,serif" font-size="14.00">model.master.product</text>
</a>
</g>
</g>
<!-- com.example.sms.domain.model.sales.order&#45;&gt;com.example.sms.domain.model.master.product -->
<g id="edge41" class="edge">
<title>com.example.sms.domain.model.sales.order&#45;&gt;com.example.sms.domain.model.master.product</title>
<path fill="none" stroke="black" d="M682.49,-264.89C706.18,-255.42 735.13,-243.85 760.14,-233.85"/>
<polygon fill="black" stroke="black" points="761.21,-237.2 769.19,-230.23 758.61,-230.7 761.21,-237.2"/>
</g>
<!-- com.example.sms.domain.model.master.department -->
<g id="node17" class="node">
<title>com.example.sms.domain.model.master.department</title>
<g id="a_node17"><a xlink:href="./domain.html#com.example.sms.domain.model.master.department" xlink:title="部門\nmodel.master.department">
<polygon fill="#eedd82" stroke="black" points="429.38,-229.25 273.88,-229.25 273.88,-190.5 429.38,-190.5 429.38,-229.25"/>
<text text-anchor="middle" x="351.62" y="-211.95" font-family="Times New Roman,serif" font-size="14.00">部門</text>
<text text-anchor="middle" x="351.62" y="-197.7" font-family="Times New Roman,serif" font-size="14.00">model.master.department</text>
</a>
</g>
</g>
<!-- com.example.sms.domain.model.sales.order&#45;&gt;com.example.sms.domain.model.master.department -->
<g id="edge13" class="edge">
<title>com.example.sms.domain.model.sales.order&#45;&gt;com.example.sms.domain.model.master.department</title>
<path fill="none" stroke="black" d="M578.84,-269.08C538,-258.62 482.24,-244.33 436.18,-232.54"/>
<polygon fill="black" stroke="black" points="437.33,-229.22 426.77,-230.13 435.59,-236 437.33,-229.22"/>
</g>
<!-- com.example.sms.domain.model.system.autonumber -->
<g id="node19" class="node">
<title>com.example.sms.domain.model.system.autonumber</title>
<g id="a_node19"><a xlink:href="./domain.html#com.example.sms.domain.model.system.autonumber" xlink:title="自動採番\nmodel.system.autonumber">
<polygon fill="#eedd82" stroke="black" points="1141.38,-229.25 979.88,-229.25 979.88,-190.5 1141.38,-190.5 1141.38,-229.25"/>
<text text-anchor="middle" x="1060.62" y="-211.95" font-family="Times New Roman,serif" font-size="14.00">自動採番</text>
<text text-anchor="middle" x="1060.62" y="-197.7" font-family="Times New Roman,serif" font-size="14.00">model.system.autonumber</text>
</a>
</g>
</g>
<!-- com.example.sms.domain.model.sales.order&#45;&gt;com.example.sms.domain.model.system.autonumber -->
<g id="edge18" class="edge">
<title>com.example.sms.domain.model.sales.order&#45;&gt;com.example.sms.domain.model.system.autonumber</title>
<path fill="none" stroke="black" d="M692.35,-274.77C758.16,-264.38 869.89,-246.39 965.62,-229.25 966.62,-229.07 967.62,-228.89 968.63,-228.71"/>
<polygon fill="black" stroke="black" points="968.85,-232.23 978.06,-226.99 967.59,-225.34 968.85,-232.23"/>
</g>
<!-- com.example.sms.domain.model.master.partner&#45;&gt;com.example.sms.domain.type.money -->
<g id="edge21" class="edge">
<title>com.example.sms.domain.model.master.partner&#45;&gt;com.example.sms.domain.type.money</title>
<path fill="none" stroke="black" d="M693.94,-193.44C698.57,-192.43 703.16,-191.44 707.62,-190.5 726.22,-186.59 731.59,-188.48 749.62,-182.5 781.48,-171.93 815.48,-155.34 841.25,-141.55"/>
<polygon fill="black" stroke="black" points="842.61,-144.8 849.73,-136.95 839.27,-138.65 842.61,-144.8"/>
</g>
<!-- com.example.sms.domain.model.master.partner&#45;&gt;com.example.sms.domain.model.master.partner.customer -->
<g id="edge46" class="edge">
<title>com.example.sms.domain.model.master.partner&#45;&gt;com.example.sms.domain.model.master.partner.customer</title>
<path fill="none" stroke="red" stroke-width="2" d="M550.13,-190.65C532.96,-186.51 519.51,-183.13 518.62,-182.5 505.82,-173.4 495.95,-159.05 489.02,-146.13"/>
<polygon fill="red" stroke="red" stroke-width="2" points="547.74,-193.68 558.28,-192.61 549.37,-186.87 547.74,-193.68"/>
<polygon fill="red" stroke="red" stroke-width="2" points="493.01,-146.31 485.43,-138.92 486.75,-149.43 493.01,-146.31"/>
</g>
<!-- com.example.sms.domain.type.address -->
<g id="node20" class="node">
<title>com.example.sms.domain.type.address</title>
<g id="a_node20"><a xlink:href="./domain.html#com.example.sms.domain.type.address" xlink:title="住所\ntype.address">
<polygon fill="#eedd82" stroke="black" points="728.38,-61 644.88,-61 644.88,-22.25 728.38,-22.25 728.38,-61"/>
<text text-anchor="middle" x="686.62" y="-43.7" font-family="Times New Roman,serif" font-size="14.00">住所</text>
<text text-anchor="middle" x="686.62" y="-29.45" font-family="Times New Roman,serif" font-size="14.00">type.address</text>
</a>
</g>
</g>
<!-- com.example.sms.domain.model.master.partner&#45;&gt;com.example.sms.domain.type.address -->
<g id="edge20" class="edge">
<title>com.example.sms.domain.model.master.partner&#45;&gt;com.example.sms.domain.type.address</title>
<path fill="none" stroke="black" d="M675.13,-190.06C677.6,-187.81 679.81,-185.3 681.62,-182.5 703.01,-149.58 699.4,-102.5 693.82,-72.25"/>
<polygon fill="black" stroke="black" points="697.29,-71.74 691.85,-62.65 690.43,-73.14 697.29,-71.74"/>
</g>
<!-- com.example.sms.domain.model.sales.shipping -->
<g id="node9" class="node">
<title>com.example.sms.domain.model.sales.shipping</title>
<g id="a_node9"><a xlink:href="./domain.html#com.example.sms.domain.model.sales.shipping" xlink:title="出荷\nmodel.sales.shipping">
<polygon fill="#eedd82" stroke="black" points="439,-378.75 308.25,-378.75 308.25,-340 439,-340 439,-378.75"/>
<text text-anchor="middle" x="373.62" y="-361.45" font-family="Times New Roman,serif" font-size="14.00">出荷</text>
<text text-anchor="middle" x="373.62" y="-347.2" font-family="Times New Roman,serif" font-size="14.00">model.sales.shipping</text>
</a>
</g>
</g>
<!-- com.example.sms.domain.model.sales.shipping&#45;&gt;com.example.sms.domain.model.master.employee -->
<g id="edge11" class="edge">
<title>com.example.sms.domain.model.sales.shipping&#45;&gt;com.example.sms.domain.model.master.employee</title>
<path fill="none" stroke="black" d="M308.16,-357.08C268.16,-352.47 219.8,-339.25 193.62,-304 163.55,-263.5 159.87,-227.99 193.62,-190.5 204.99,-177.88 253.91,-188.93 269.62,-182.5 290.87,-173.82 311.1,-157.86 326.15,-143.92"/>
<polygon fill="black" stroke="black" points="328.5,-146.51 333.29,-137.06 323.65,-141.46 328.5,-146.51"/>
</g>
<!-- com.example.sms.domain.model.sales.shipping&#45;&gt;com.example.sms.domain.type.money -->
<g id="edge26" class="edge">
<title>com.example.sms.domain.model.sales.shipping&#45;&gt;com.example.sms.domain.type.money</title>
<path fill="none" stroke="black" d="M388.87,-339.53C407.57,-317.82 441.41,-282.88 478.62,-265.25 569.75,-222.08 613.06,-275.57 702.62,-229.25 724.05,-218.17 721.19,-204.79 740.62,-190.5 769.14,-169.54 804.53,-151.39 832.96,-138.41"/>
<polygon fill="black" stroke="black" points="834.03,-141.77 841.72,-134.49 831.16,-135.39 834.03,-141.77"/>
</g>
<!-- com.example.sms.domain.model.sales.shipping&#45;&gt;com.example.sms.domain.model.sales.order -->
<g id="edge12" class="edge">
<title>com.example.sms.domain.model.sales.shipping&#45;&gt;com.example.sms.domain.model.sales.order</title>
<path fill="none" stroke="black" d="M439.4,-340.11C478.75,-329.18 528.64,-315.33 568.27,-304.33"/>
<polygon fill="black" stroke="black" points="569,-307.76 577.7,-301.71 567.13,-301.01 569,-307.76"/>
</g>
<!-- com.example.sms.domain.model.sales.shipping&#45;&gt;com.example.sms.domain.type.quantity -->
<g id="edge5" class="edge">
<title>com.example.sms.domain.model.sales.shipping&#45;&gt;com.example.sms.domain.type.quantity</title>
<path fill="none" stroke="black" d="M345.68,-339.53C299.96,-306.54 218.63,-237.38 264.62,-190.5 280.85,-173.96 659.63,-189.78 681.62,-182.5 749.54,-160.03 753.56,-129.34 812.62,-89 823.05,-81.88 834.46,-74.33 845.02,-67.43"/>
<polygon fill="black" stroke="black" points="846.68,-70.52 853.16,-62.13 842.87,-64.65 846.68,-70.52"/>
</g>
<!-- com.example.sms.domain.model.sales.shipping&#45;&gt;com.example.sms.domain.model.master.partner.customer -->
<g id="edge14" class="edge">
<title>com.example.sms.domain.model.sales.shipping&#45;&gt;com.example.sms.domain.model.master.partner.customer</title>
<path fill="none" stroke="black" d="M307.87,-349.92C279.5,-342.64 248.91,-329.12 231.62,-304 203.04,-262.44 196.66,-226.87 231.62,-190.5 247.27,-174.23 415.02,-193.69 434.62,-182.5 448.55,-174.55 458.61,-159.9 465.39,-146.5"/>
<polygon fill="black" stroke="black" points="468.5,-148.1 469.5,-137.55 462.14,-145.17 468.5,-148.1"/>
</g>
<!-- com.example.sms.domain.model.sales.shipping&#45;&gt;com.example.sms.domain.model.master.product -->
<g id="edge39" class="edge">
<title>com.example.sms.domain.model.sales.shipping&#45;&gt;com.example.sms.domain.model.master.product</title>
<path fill="none" stroke="black" d="M407.16,-339.63C445.6,-318.84 511,-285.55 570.62,-265.25 641.68,-241.06 662.34,-245.46 735.62,-229.25 736.62,-229.03 737.63,-228.81 738.64,-228.58"/>
<polygon fill="black" stroke="black" points="739.14,-232.06 748.14,-226.47 737.62,-225.22 739.14,-232.06"/>
</g>
<!-- com.example.sms.domain.model.sales.shipping&#45;&gt;com.example.sms.domain.model.master.department -->
<g id="edge19" class="edge">
<title>com.example.sms.domain.model.sales.shipping&#45;&gt;com.example.sms.domain.model.master.department</title>
<path fill="none" stroke="black" d="M370.84,-339.69C367.12,-314.76 360.49,-270.31 356.07,-240.7"/>
<polygon fill="black" stroke="black" points="359.55,-240.28 354.61,-230.9 352.63,-241.31 359.55,-240.28"/>
</g>
<!-- com.example.sms.domain.model.master.partner.customer&#45;&gt;com.example.sms.domain.type.phone -->
<g id="edge6" class="edge">
<title>com.example.sms.domain.model.master.partner.customer&#45;&gt;com.example.sms.domain.type.phone</title>
<path fill="none" stroke="black" d="M447.37,-96.74C443.12,-94.1 438.77,-91.46 434.62,-89 422.19,-81.63 408.55,-73.87 395.98,-66.86"/>
<polygon fill="black" stroke="black" points="397.94,-63.94 387.5,-62.15 394.54,-70.06 397.94,-63.94"/>
</g>
<!-- com.example.sms.domain.type.mail -->
<g id="node14" class="node">
<title>com.example.sms.domain.type.mail</title>
<g id="a_node14"><a xlink:href="./domain.html#com.example.sms.domain.type.mail" xlink:title="メール\ntype.mail">
<polygon fill="#eedd82" stroke="black" points="626.5,-61 558.75,-61 558.75,-22.25 626.5,-22.25 626.5,-61"/>
<text text-anchor="middle" x="592.62" y="-43.7" font-family="Times New Roman,serif" font-size="14.00">メール</text>
<text text-anchor="middle" x="592.62" y="-29.45" font-family="Times New Roman,serif" font-size="14.00">type.mail</text>
</a>
</g>
</g>
<!-- com.example.sms.domain.model.master.partner.customer&#45;&gt;com.example.sms.domain.type.mail -->
<g id="edge30" class="edge">
<title>com.example.sms.domain.model.master.partner.customer&#45;&gt;com.example.sms.domain.type.mail</title>
<path fill="none" stroke="black" d="M506.45,-96.64C510.54,-94.07 514.69,-91.47 518.62,-89 529.85,-81.96 542.04,-74.32 553.22,-67.31"/>
<polygon fill="black" stroke="black" points="554.84,-70.43 561.45,-62.15 551.12,-64.49 554.84,-70.43"/>
</g>
<!-- com.example.sms.domain.model.master.region -->
<g id="node16" class="node">
<title>com.example.sms.domain.model.master.region</title>
<g id="a_node16"><a xlink:href="./domain.html#com.example.sms.domain.model.master.region" xlink:title="地域\nmodel.master.region">
<polygon fill="#eedd82" stroke="black" points="540.88,-61 412.38,-61 412.38,-22.25 540.88,-22.25 540.88,-61"/>
<text text-anchor="middle" x="476.62" y="-43.7" font-family="Times New Roman,serif" font-size="14.00">地域</text>
<text text-anchor="middle" x="476.62" y="-29.45" font-family="Times New Roman,serif" font-size="14.00">model.master.region</text>
</a>
</g>
</g>
<!-- com.example.sms.domain.model.master.partner.customer&#45;&gt;com.example.sms.domain.model.master.region -->
<g id="edge10" class="edge">
<title>com.example.sms.domain.model.master.partner.customer&#45;&gt;com.example.sms.domain.model.master.region</title>
<path fill="none" stroke="black" d="M476.62,-96.64C476.62,-89.34 476.62,-80.79 476.62,-72.68"/>
<polygon fill="black" stroke="black" points="480.13,-72.81 476.63,-62.81 473.13,-72.81 480.13,-72.81"/>
</g>
<!-- com.example.sms.domain.model.master.partner.customer&#45;&gt;com.example.sms.domain.type.address -->
<g id="edge38" class="edge">
<title>com.example.sms.domain.model.master.partner.customer&#45;&gt;com.example.sms.domain.type.address</title>
<path fill="none" stroke="black" d="M503.49,-96.72C508.38,-93.85 513.54,-91.13 518.62,-89 564.84,-69.58 582.21,-75.42 633.68,-61.33"/>
<polygon fill="black" stroke="black" points="634.35,-64.78 642.99,-58.65 632.41,-58.05 634.35,-64.78"/>
</g>
<!-- com.example.sms.domain.model.master.product&#45;&gt;com.example.sms.domain.type.money -->
<g id="edge23" class="edge">
<title>com.example.sms.domain.model.master.product&#45;&gt;com.example.sms.domain.type.money</title>
<path fill="none" stroke="black" d="M830.98,-190.36C840.31,-177.42 852.94,-159.92 863.49,-145.29"/>
<polygon fill="black" stroke="black" points="866.17,-147.56 869.18,-137.41 860.49,-143.47 866.17,-147.56"/>
</g>
<!-- com.example.sms.domain.model.master.product&#45;&gt;com.example.sms.domain.type.quantity -->
<g id="edge7" class="edge">
<title>com.example.sms.domain.model.master.product&#45;&gt;com.example.sms.domain.type.quantity</title>
<path fill="none" stroke="black" d="M816.58,-190.28C816,-165.7 817.74,-121.68 834.62,-89 838.36,-81.77 843.67,-75.06 849.43,-69.1"/>
<polygon fill="black" stroke="black" points="851.52,-71.95 856.36,-62.52 846.7,-66.87 851.52,-71.95"/>
</g>
<!-- com.example.sms.domain.model.master.partner.vendor -->
<g id="node13" class="node">
<title>com.example.sms.domain.model.master.partner.vendor</title>
<g id="a_node13"><a xlink:href="./domain.html#com.example.sms.domain.model.master.partner.vendor" xlink:title="仕入先\nvendor">
<polygon fill="#eedd82" stroke="black" points="595.5,-135.75 527.75,-135.75 527.75,-97 595.5,-97 595.5,-135.75"/>
<text text-anchor="middle" x="561.62" y="-118.45" font-family="Times New Roman,serif" font-size="14.00">仕入先</text>
<text text-anchor="middle" x="561.62" y="-104.2" font-family="Times New Roman,serif" font-size="14.00">vendor</text>
</a>
</g>
</g>
<!-- com.example.sms.domain.model.master.product&#45;&gt;com.example.sms.domain.model.master.partner.vendor -->
<g id="edge25" class="edge">
<title>com.example.sms.domain.model.master.product&#45;&gt;com.example.sms.domain.model.master.partner.vendor</title>
<path fill="none" stroke="black" d="M749.64,-197.12C734.21,-194.71 717.88,-192.34 702.62,-190.5 680.93,-187.89 623.43,-193.63 604.62,-182.5 590.73,-174.28 580.46,-159.6 573.44,-146.26"/>
<polygon fill="black" stroke="black" points="576.65,-144.86 569.16,-137.36 570.34,-147.89 576.65,-144.86"/>
</g>
<!-- com.example.sms.domain.model.master.partner.vendor&#45;&gt;com.example.sms.domain.model.master.partner -->
<g id="edge47" class="edge">
<title>com.example.sms.domain.model.master.partner.vendor&#45;&gt;com.example.sms.domain.model.master.partner</title>
<path fill="none" stroke="red" stroke-width="2" d="M579.13,-145.64C585.53,-155.51 593.55,-167.33 603.84,-181.06"/>
<polygon fill="red" stroke="red" stroke-width="2" points="582.99,-145.18 574.66,-138.63 577.08,-148.94 582.99,-145.18"/>
<polygon fill="red" stroke="red" stroke-width="2" points="600.05,-181.87 608.9,-187.7 605.62,-177.63 600.05,-181.87"/>
</g>
<!-- com.example.sms.domain.model.master.partner.vendor&#45;&gt;com.example.sms.domain.type.phone -->
<g id="edge27" class="edge">
<title>com.example.sms.domain.model.master.partner.vendor&#45;&gt;com.example.sms.domain.type.phone</title>
<path fill="none" stroke="black" d="M534.08,-96.76C529.07,-93.88 523.8,-91.15 518.62,-89 473.19,-70.08 456.24,-75.19 405.38,-61.27"/>
<polygon fill="black" stroke="black" points="406.39,-57.92 395.82,-58.53 404.46,-64.65 406.39,-57.92"/>
</g>
<!-- com.example.sms.domain.model.master.partner.vendor&#45;&gt;com.example.sms.domain.type.mail -->
<g id="edge8" class="edge">
<title>com.example.sms.domain.model.master.partner.vendor&#45;&gt;com.example.sms.domain.type.mail</title>
<path fill="none" stroke="black" d="M569.61,-96.64C572.83,-89.09 576.62,-80.2 580.18,-71.83"/>
<polygon fill="black" stroke="black" points="583.38,-73.26 584.08,-62.69 576.94,-70.52 583.38,-73.26"/>
</g>
<!-- com.example.sms.domain.model.master.partner.vendor&#45;&gt;com.example.sms.domain.type.address -->
<g id="edge32" class="edge">
<title>com.example.sms.domain.model.master.partner.vendor&#45;&gt;com.example.sms.domain.type.address</title>
<path fill="none" stroke="black" d="M592.08,-96.51C596.28,-93.96 600.55,-91.4 604.62,-89 617.08,-81.66 630.71,-73.86 643.21,-66.8"/>
<polygon fill="black" stroke="black" points="644.64,-70.01 651.64,-62.05 641.21,-63.91 644.64,-70.01"/>
</g>
<!-- com.example.sms.domain.model.sales.sales -->
<g id="node15" class="node">
<title>com.example.sms.domain.model.sales.sales</title>
<g id="a_node15"><a xlink:href="./domain.html#com.example.sms.domain.model.sales.sales" xlink:title="売上\nmodel.sales.sales">
<polygon fill="#eedd82" stroke="black" points="831.88,-378.75 721.38,-378.75 721.38,-340 831.88,-340 831.88,-378.75"/>
<text text-anchor="middle" x="776.62" y="-361.45" font-family="Times New Roman,serif" font-size="14.00">売上</text>
<text text-anchor="middle" x="776.62" y="-347.2" font-family="Times New Roman,serif" font-size="14.00">model.sales.sales</text>
</a>
</g>
</g>
<!-- com.example.sms.domain.model.sales.sales&#45;&gt;com.example.sms.domain.model.master.employee -->
<g id="edge28" class="edge">
<title>com.example.sms.domain.model.sales.sales&#45;&gt;com.example.sms.domain.model.master.employee</title>
<path fill="none" stroke="black" d="M721.23,-349.79C678.54,-341.78 618.86,-327.44 570.62,-304 521.04,-279.9 511.74,-267.07 471.62,-229.25 455.17,-213.73 454.67,-206.44 438.62,-190.5 421.86,-173.84 401.73,-156.75 385.06,-143.29"/>
<polygon fill="black" stroke="black" points="387.37,-140.67 377.38,-137.16 383,-146.14 387.37,-140.67"/>
</g>
<!-- com.example.sms.domain.model.sales.sales&#45;&gt;com.example.sms.domain.type.money -->
<g id="edge34" class="edge">
<title>com.example.sms.domain.model.sales.sales&#45;&gt;com.example.sms.domain.type.money</title>
<path fill="none" stroke="black" d="M832.37,-357.85C917.47,-353.68 1077.57,-331.76 1150.62,-229.25 1206.71,-150.55 1027.93,-126.96 935.45,-120.09"/>
<polygon fill="black" stroke="black" points="935.81,-116.61 925.59,-119.4 935.32,-123.59 935.81,-116.61"/>
</g>
<!-- com.example.sms.domain.model.sales.sales&#45;&gt;com.example.sms.domain.model.sales.order -->
<g id="edge9" class="edge">
<title>com.example.sms.domain.model.sales.sales&#45;&gt;com.example.sms.domain.model.sales.order</title>
<path fill="none" stroke="black" d="M740.31,-339.64C722.55,-330.48 700.97,-319.34 682.02,-309.57"/>
<polygon fill="black" stroke="black" points="683.65,-306.47 673.16,-304.99 680.44,-312.69 683.65,-306.47"/>
</g>
<!-- com.example.sms.domain.model.sales.sales&#45;&gt;com.example.sms.domain.model.master.partner -->
<g id="edge40" class="edge">
<title>com.example.sms.domain.model.sales.sales&#45;&gt;com.example.sms.domain.model.master.partner</title>
<path fill="none" stroke="black" d="M763.55,-339.74C749.29,-320.09 725.2,-288.76 700.62,-265.25 689.81,-254.91 677.01,-244.78 665.17,-236.11"/>
<polygon fill="black" stroke="black" points="667.34,-233.36 657.17,-230.39 663.27,-239.06 667.34,-233.36"/>
</g>
<!-- com.example.sms.domain.model.sales.sales&#45;&gt;com.example.sms.domain.type.quantity -->
<g id="edge44" class="edge">
<title>com.example.sms.domain.model.sales.sales&#45;&gt;com.example.sms.domain.type.quantity</title>
<path fill="none" stroke="black" d="M832.17,-353.73C913.14,-346.21 1058.9,-329.56 1104.62,-304 1143.06,-282.52 1154.2,-270.49 1169.62,-229.25 1209.05,-123.83 1032.74,-72.14 938.97,-52.46"/>
<polygon fill="black" stroke="black" points="939.67,-49.03 929.17,-50.46 938.27,-55.89 939.67,-49.03"/>
</g>
<!-- com.example.sms.domain.model.sales.sales&#45;&gt;com.example.sms.domain.model.master.product -->
<g id="edge37" class="edge">
<title>com.example.sms.domain.model.sales.sales&#45;&gt;com.example.sms.domain.model.master.product</title>
<path fill="none" stroke="black" d="M781.82,-339.69C788.78,-314.65 801.22,-269.91 809.44,-240.31"/>
<polygon fill="black" stroke="black" points="812.76,-241.43 812.07,-230.86 806.02,-239.56 812.76,-241.43"/>
</g>
<!-- com.example.sms.domain.model.sales.sales&#45;&gt;com.example.sms.domain.model.master.department -->
<g id="edge31" class="edge">
<title>com.example.sms.domain.model.sales.sales&#45;&gt;com.example.sms.domain.model.master.department</title>
<path fill="none" stroke="black" d="M721.08,-355.06C660.81,-349.88 562.72,-336.79 484.62,-304 445.33,-287.5 406.07,-258.02 380.5,-236.63"/>
<polygon fill="black" stroke="black" points="383.08,-234.24 373.2,-230.42 378.55,-239.57 383.08,-234.24"/>
</g>
<!-- com.example.sms.domain.model.sales.sales&#45;&gt;com.example.sms.domain.model.system.autonumber -->
<g id="edge29" class="edge">
<title>com.example.sms.domain.model.sales.sales&#45;&gt;com.example.sms.domain.model.system.autonumber</title>
<path fill="none" stroke="black" d="M812.88,-339.54C864.27,-312.86 958.26,-264.04 1014.53,-234.81"/>
<polygon fill="black" stroke="black" points="1015.98,-238.01 1023.24,-230.29 1012.75,-231.79 1015.98,-238.01"/>
</g>
<!-- com.example.sms.domain.model.master.department&#45;&gt;com.example.sms.domain.model.master.employee -->
<g id="edge45" class="edge">
<title>com.example.sms.domain.model.master.department&#45;&gt;com.example.sms.domain.model.master.employee</title>
<path fill="none" stroke="red" stroke-width="2" d="M351.62,-179.18C351.62,-169.02 351.62,-157.65 351.62,-147.46"/>
<polygon fill="red" stroke="red" stroke-width="2" points="348.13,-177.33 351.63,-187.33 355.13,-177.33 348.13,-177.33"/>
<polygon fill="red" stroke="red" stroke-width="2" points="355.13,-149.2 351.63,-139.2 348.13,-149.21 355.13,-149.2"/>
</g>
<!-- com.example.sms.domain.model.sales.shipping.rule -->
<g id="node18" class="node">
<title>com.example.sms.domain.model.sales.shipping.rule</title>
<g id="a_node18"><a xlink:href="./domain.html#com.example.sms.domain.model.sales.shipping.rule" xlink:title="出荷ルール\nrule">
<polygon fill="#eedd82" stroke="black" points="484.75,-481.62 382.5,-481.62 382.5,-442.88 484.75,-442.88 484.75,-481.62"/>
<text text-anchor="middle" x="433.62" y="-464.32" font-family="Times New Roman,serif" font-size="14.00">出荷ルール</text>
<text text-anchor="middle" x="433.62" y="-450.07" font-family="Times New Roman,serif" font-size="14.00">rule</text>
</a>
</g>
</g>
<!-- com.example.sms.domain.model.sales.shipping.rule&#45;&gt;com.example.sms.domain.model.sales.order -->
<g id="edge42" class="edge">
<title>com.example.sms.domain.model.sales.shipping.rule&#45;&gt;com.example.sms.domain.model.sales.order</title>
<path fill="none" stroke="black" d="M455.24,-442.46C491.46,-410.96 564.48,-347.48 605.64,-311.69"/>
<polygon fill="black" stroke="black" points="607.77,-314.48 613.02,-305.28 603.18,-309.2 607.77,-314.48"/>
</g>
<!-- com.example.sms.domain.model.sales.shipping.rule&#45;&gt;com.example.sms.domain.model.sales.shipping -->
<g id="edge15" class="edge">
<title>com.example.sms.domain.model.sales.shipping.rule&#45;&gt;com.example.sms.domain.model.sales.shipping</title>
<path fill="none" stroke="black" d="M422.62,-442.75C413.63,-427.63 400.76,-406 390.48,-388.7"/>
<polygon fill="black" stroke="black" points="393.66,-387.21 385.54,-380.4 387.64,-390.79 393.66,-387.21"/>
</g>
<!-- com.example.sms.domain.model.system.audit -->
<g id="node21" class="node">
<title>com.example.sms.domain.model.system.audit</title>
<g id="a_node21"><a xlink:href="./domain.html#com.example.sms.domain.model.system.audit" xlink:title="監査\nmodel.system.audit">
<polygon fill="#eedd82" stroke="black" points="123.25,-135.75 0,-135.75 0,-97 123.25,-97 123.25,-135.75"/>
<text text-anchor="middle" x="61.62" y="-118.45" font-family="Times New Roman,serif" font-size="14.00">監査</text>
<text text-anchor="middle" x="61.62" y="-104.2" font-family="Times New Roman,serif" font-size="14.00">model.system.audit</text>
</a>
</g>
</g>
<!-- com.example.sms.domain.model.system.audit&#45;&gt;com.example.sms.domain.model.system.user -->
<g id="edge35" class="edge">
<title>com.example.sms.domain.model.system.audit&#45;&gt;com.example.sms.domain.model.system.user</title>
<path fill="none" stroke="black" d="M97.42,-96.64C114.93,-87.48 136.21,-76.34 154.88,-66.57"/>
<polygon fill="black" stroke="black" points="156.37,-69.74 163.61,-62 153.13,-63.53 156.37,-69.74"/>
</g>
<!-- com.example.sms.domain.model.system.auth -->
<g id="node22" class="node">
<title>com.example.sms.domain.model.system.auth</title>
<g id="a_node22"><a xlink:href="./domain.html#com.example.sms.domain.model.system.auth" xlink:title="認証\nmodel.system.auth">
<polygon fill="#eedd82" stroke="black" points="260.38,-135.75 140.88,-135.75 140.88,-97 260.38,-97 260.38,-135.75"/>
<text text-anchor="middle" x="200.62" y="-118.45" font-family="Times New Roman,serif" font-size="14.00">認証</text>
<text text-anchor="middle" x="200.62" y="-104.2" font-family="Times New Roman,serif" font-size="14.00">model.system.auth</text>
</a>
</g>
</g>
<!-- com.example.sms.domain.model.system.auth&#45;&gt;com.example.sms.domain.model.system.user -->
<g id="edge43" class="edge">
<title>com.example.sms.domain.model.system.auth&#45;&gt;com.example.sms.domain.model.system.user</title>
<path fill="none" stroke="black" d="M200.62,-96.64C200.62,-89.34 200.62,-80.79 200.62,-72.68"/>
<polygon fill="black" stroke="black" points="204.13,-72.81 200.63,-62.81 197.13,-72.81 204.13,-72.81"/>
</g>
<!-- com.example.sms.domain.model.master.partner.invoice -->
<g id="node23" class="node">
<title>com.example.sms.domain.model.master.partner.invoice</title>
<g id="a_node23"><a xlink:href="./domain.html#com.example.sms.domain.model.master.partner.invoice" xlink:title="請求\ninvoice">
<polygon fill="#eedd82" stroke="black" points="669.5,-135.75 613.75,-135.75 613.75,-97 669.5,-97 669.5,-135.75"/>
<text text-anchor="middle" x="641.62" y="-118.45" font-family="Times New Roman,serif" font-size="14.00">請求</text>
<text text-anchor="middle" x="641.62" y="-104.2" font-family="Times New Roman,serif" font-size="14.00">invoice</text>
</a>
</g>
</g>
<!-- com.example.sms.domain.model.system.download -->
<g id="node24" class="node">
<title>com.example.sms.domain.model.system.download</title>
<g id="a_node24"><a xlink:href="./domain.html#com.example.sms.domain.model.system.download" xlink:title="データダウンロード\nmodel.system.download">
<polygon fill="#eedd82" stroke="black" points="679.25,-481.62 508,-481.62 508,-442.88 679.25,-442.88 679.25,-481.62"/>
<text text-anchor="middle" x="593.62" y="-464.32" font-family="Times New Roman,serif" font-size="14.00">データダウンロード</text>
<text text-anchor="middle" x="593.62" y="-450.07" font-family="Times New Roman,serif" font-size="14.00">model.system.download</text>
</a>
</g>
</g>
</g>
</svg>
