<?xml version="1.0" encoding="UTF-8" standalone="no"?>
<!DOCTYPE svg PUBLIC "-//W3C//DTD SVG 1.1//EN"
 "http://www.w3.org/Graphics/SVG/1.1/DTD/svg11.dtd">
<!-- Generated by graphviz version 12.2.0 (20241103.1931)
 -->
<!-- Title: パッケージ関連図 Pages: 1 -->
<svg width="759pt" height="397pt"
 viewBox="0.00 0.00 759.49 396.62" xmlns="http://www.w3.org/2000/svg" xmlns:xlink="http://www.w3.org/1999/xlink">
<g id="graph0" class="graph" transform="scale(1 1) rotate(0) translate(4 392.62)">
<title>パッケージ関連図</title>
<polygon fill="white" stroke="none" points="-4,4 -4,-392.62 755.49,-392.62 755.49,4 -4,4"/>
<text text-anchor="middle" x="375.74" y="-4.95" font-family="Times New Roman,serif" font-size="14.00">パッケージ関連図</text>
<g id="clust1" class="cluster">
<title>cluster_com.example.sms.domain.type</title>
<polygon fill="lemonchiffon" stroke="#eedd82" stroke-width="2" points="403,-30.25 403,-200.75 736,-200.75 736,-30.25 403,-30.25"/>
<text text-anchor="middle" x="569.5" y="-183.45" font-family="Times New Roman,serif" font-size="14.00">ドメインモデル(基本型)</text>
<text text-anchor="middle" x="569.5" y="-166.95" font-family="Times New Roman,serif" font-size="14.00">type</text>
</g>
<g id="clust2" class="cluster">
<title>cluster_com.example.sms.domain.model</title>
<polygon fill="lemonchiffon" stroke="#eedd82" stroke-width="2" points="198,-105 198,-380.62 395,-380.62 395,-105 198,-105"/>
<text text-anchor="middle" x="296.5" y="-363.32" font-family="Times New Roman,serif" font-size="14.00">ドメインモデル(複合型)</text>
<text text-anchor="middle" x="296.5" y="-346.82" font-family="Times New Roman,serif" font-size="14.00">model</text>
</g>
<!-- summary -->
<g id="node1" class="node">
<title>summary</title>
<polygon fill="none" stroke="black" points="184,-341 0,-341 0,-283.5 190,-283.5 190,-335 184,-341"/>
<polyline fill="none" stroke="black" points="184,-341 184,-335"/>
<polyline fill="none" stroke="black" points="190,-335 184,-335"/>
<text text-anchor="start" x="8" y="-323.7" font-family="Times New Roman,serif" font-size="14.00">root: com.example.sms.domain</text>
<text text-anchor="start" x="8" y="-307.2" font-family="Times New Roman,serif" font-size="14.00">パッケージ数: 8</text>
<text text-anchor="start" x="8" y="-290.7" font-family="Times New Roman,serif" font-size="14.00">関連数: 11</text>
</g>
<!-- com.example.sms.domain.model.master -->
<g id="node2" class="node">
<title>com.example.sms.domain.model.master</title>
<g id="a_node2"><a xlink:href="./domain.html#com.example.sms.domain.model.master" xlink:title="マスタ\nmaster">
<polygon fill="#eedd82" stroke="black" points="386.88,-247.5 319.12,-247.5 319.12,-208.75 386.88,-208.75 386.88,-247.5"/>
<text text-anchor="middle" x="353" y="-230.2" font-family="Times New Roman,serif" font-size="14.00">マスタ</text>
<text text-anchor="middle" x="353" y="-215.95" font-family="Times New Roman,serif" font-size="14.00">master</text>
</a>
</g>
</g>
<!-- com.example.sms.domain.type.mail -->
<g id="node3" class="node">
<title>com.example.sms.domain.type.mail</title>
<g id="a_node3"><a xlink:href="./domain.html#com.example.sms.domain.type.mail" xlink:title="メール\nmail">
<polygon fill="#eedd82" stroke="black" points="478.88,-151.75 411.12,-151.75 411.12,-113 478.88,-113 478.88,-151.75"/>
<text text-anchor="middle" x="445" y="-134.45" font-family="Times New Roman,serif" font-size="14.00">メール</text>
<text text-anchor="middle" x="445" y="-120.2" font-family="Times New Roman,serif" font-size="14.00">mail</text>
</a>
</g>
</g>
<!-- com.example.sms.domain.model.master&#45;&gt;com.example.sms.domain.type.mail -->
<g id="edge1" class="edge">
<title>com.example.sms.domain.model.master&#45;&gt;com.example.sms.domain.type.mail</title>
<path fill="none" stroke="black" d="M386.91,-210.08C391.19,-207.25 395.35,-204.12 399,-200.75 410.98,-189.67 421.49,-174.92 429.43,-162.05"/>
<polygon fill="black" stroke="black" points="432.39,-163.92 434.46,-153.53 426.36,-160.36 432.39,-163.92"/>
</g>
<!-- com.example.sms.domain.type.phone -->
<g id="node4" class="node">
<title>com.example.sms.domain.type.phone</title>
<g id="a_node4"><a xlink:href="./domain.html#com.example.sms.domain.type.phone" xlink:title="電話番号\nphone">
<polygon fill="#eedd82" stroke="black" points="581.5,-151.75 496.5,-151.75 496.5,-113 581.5,-113 581.5,-151.75"/>
<text text-anchor="middle" x="539" y="-134.45" font-family="Times New Roman,serif" font-size="14.00">電話番号</text>
<text text-anchor="middle" x="539" y="-120.2" font-family="Times New Roman,serif" font-size="14.00">phone</text>
</a>
</g>
</g>
<!-- com.example.sms.domain.model.master&#45;&gt;com.example.sms.domain.type.phone -->
<g id="edge2" class="edge">
<title>com.example.sms.domain.model.master&#45;&gt;com.example.sms.domain.type.phone</title>
<path fill="none" stroke="black" d="M387.35,-227.07C416.21,-225.55 457.51,-219.78 488,-200.75 503.12,-191.31 515.38,-175.66 524.08,-161.81"/>
<polygon fill="black" stroke="black" points="526.94,-163.85 529.01,-153.46 520.91,-160.29 526.94,-163.85"/>
</g>
<!-- com.example.sms.domain.type.quantity -->
<g id="node6" class="node">
<title>com.example.sms.domain.type.quantity</title>
<g id="a_node6"><a xlink:href="./domain.html#com.example.sms.domain.type.quantity" xlink:title="数量\nquantity">
<polygon fill="#eedd82" stroke="black" points="728.12,-77 667.88,-77 667.88,-38.25 728.12,-38.25 728.12,-77"/>
<text text-anchor="middle" x="698" y="-59.7" font-family="Times New Roman,serif" font-size="14.00">数量</text>
<text text-anchor="middle" x="698" y="-45.45" font-family="Times New Roman,serif" font-size="14.00">quantity</text>
</a>
</g>
</g>
<!-- com.example.sms.domain.model.master&#45;&gt;com.example.sms.domain.type.quantity -->
<g id="edge5" class="edge">
<title>com.example.sms.domain.model.master&#45;&gt;com.example.sms.domain.type.quantity</title>
<path fill="none" stroke="black" d="M357.98,-208.68C366.65,-177.97 385.2,-118.37 402,-105 440.55,-74.31 584.15,-63.65 656.21,-60.18"/>
<polygon fill="black" stroke="black" points="656.2,-63.68 666.03,-59.73 655.89,-56.69 656.2,-63.68"/>
</g>
<!-- com.example.sms.domain.type.address -->
<g id="node7" class="node">
<title>com.example.sms.domain.type.address</title>
<g id="a_node7"><a xlink:href="./domain.html#com.example.sms.domain.type.address" xlink:title="住所\naddress">
<polygon fill="#eedd82" stroke="black" points="656.25,-151.75 599.75,-151.75 599.75,-113 656.25,-113 656.25,-151.75"/>
<text text-anchor="middle" x="628" y="-134.45" font-family="Times New Roman,serif" font-size="14.00">住所</text>
<text text-anchor="middle" x="628" y="-120.2" font-family="Times New Roman,serif" font-size="14.00">address</text>
</a>
</g>
</g>
<!-- com.example.sms.domain.model.master&#45;&gt;com.example.sms.domain.type.address -->
<g id="edge4" class="edge">
<title>com.example.sms.domain.model.master&#45;&gt;com.example.sms.domain.type.address</title>
<path fill="none" stroke="black" d="M387.14,-224.18C450.94,-218.55 582.64,-206.34 591,-200.75 604.3,-191.85 613.26,-176.5 619.03,-162.7"/>
<polygon fill="black" stroke="black" points="622.23,-164.13 622.46,-153.53 615.68,-161.67 622.23,-164.13"/>
</g>
<!-- com.example.sms.domain.model.system -->
<g id="node8" class="node">
<title>com.example.sms.domain.model.system</title>
<g id="a_node8"><a xlink:href="./domain.html#com.example.sms.domain.model.system" xlink:title="システム\nsystem">
<polygon fill="#eedd82" stroke="black" points="348.5,-151.75 263.5,-151.75 263.5,-113 348.5,-113 348.5,-151.75"/>
<text text-anchor="middle" x="306" y="-134.45" font-family="Times New Roman,serif" font-size="14.00">システム</text>
<text text-anchor="middle" x="306" y="-120.2" font-family="Times New Roman,serif" font-size="14.00">system</text>
</a>
</g>
</g>
<!-- com.example.sms.domain.model.master&#45;&gt;com.example.sms.domain.model.system -->
<g id="edge7" class="edge">
<title>com.example.sms.domain.model.master&#45;&gt;com.example.sms.domain.model.system</title>
<path fill="none" stroke="black" d="M343.71,-208.6C337.06,-195.34 327.98,-177.21 320.39,-162.08"/>
<polygon fill="black" stroke="black" points="323.72,-160.9 316.11,-153.53 317.46,-164.04 323.72,-160.9"/>
</g>
<!-- com.example.sms.domain.type.money -->
<g id="node9" class="node">
<title>com.example.sms.domain.type.money</title>
<g id="a_node9"><a xlink:href="./domain.html#com.example.sms.domain.type.money" xlink:title="通貨\nmoney">
<polygon fill="#eedd82" stroke="black" points="728,-151.75 674,-151.75 674,-113 728,-113 728,-151.75"/>
<text text-anchor="middle" x="701" y="-134.45" font-family="Times New Roman,serif" font-size="14.00">通貨</text>
<text text-anchor="middle" x="701" y="-120.2" font-family="Times New Roman,serif" font-size="14.00">money</text>
</a>
</g>
</g>
<!-- com.example.sms.domain.model.master&#45;&gt;com.example.sms.domain.type.money -->
<g id="edge9" class="edge">
<title>com.example.sms.domain.model.master&#45;&gt;com.example.sms.domain.type.money</title>
<path fill="none" stroke="black" d="M387.13,-223.53C425.32,-219.58 489.05,-213.21 544,-208.75 557.43,-207.66 653.68,-208.06 665,-200.75 678.45,-192.07 687.22,-176.59 692.74,-162.66"/>
<polygon fill="black" stroke="black" points="695.98,-164 695.99,-153.4 689.37,-161.68 695.98,-164"/>
</g>
<!-- com.example.sms.domain.model.sales -->
<g id="node5" class="node">
<title>com.example.sms.domain.model.sales</title>
<g id="a_node5"><a xlink:href="./domain.html#com.example.sms.domain.model.sales" xlink:title="販売\nsales">
<polygon fill="#eedd82" stroke="black" points="383,-331.62 329,-331.62 329,-292.88 383,-292.88 383,-331.62"/>
<text text-anchor="middle" x="356" y="-314.32" font-family="Times New Roman,serif" font-size="14.00">販売</text>
<text text-anchor="middle" x="356" y="-300.07" font-family="Times New Roman,serif" font-size="14.00">sales</text>
</a>
</g>
</g>
<!-- com.example.sms.domain.model.sales&#45;&gt;com.example.sms.domain.model.master -->
<g id="edge6" class="edge">
<title>com.example.sms.domain.model.sales&#45;&gt;com.example.sms.domain.model.master</title>
<path fill="none" stroke="black" d="M355.32,-292.61C354.96,-282.81 354.51,-270.55 354.11,-259.43"/>
<polygon fill="black" stroke="black" points="357.61,-259.35 353.74,-249.48 350.61,-259.6 357.61,-259.35"/>
</g>
<!-- com.example.sms.domain.model.sales&#45;&gt;com.example.sms.domain.type.quantity -->
<g id="edge3" class="edge">
<title>com.example.sms.domain.model.sales&#45;&gt;com.example.sms.domain.type.quantity</title>
<path fill="none" stroke="black" d="M383.3,-307.94C463.99,-297.5 698.18,-262.27 737,-200.75 759.71,-164.76 751.58,-144.98 737,-105 734.54,-98.25 730.62,-91.81 726.19,-85.98"/>
<polygon fill="black" stroke="black" points="729.05,-83.94 719.93,-78.54 723.69,-88.45 729.05,-83.94"/>
</g>
<!-- com.example.sms.domain.model.sales&#45;&gt;com.example.sms.domain.model.system -->
<g id="edge10" class="edge">
<title>com.example.sms.domain.model.sales&#45;&gt;com.example.sms.domain.model.system</title>
<path fill="none" stroke="black" d="M337.95,-292.59C327.7,-280.71 315.79,-264.41 310,-247.5 300.64,-220.19 300.64,-187.02 302.37,-163.5"/>
<polygon fill="black" stroke="black" points="305.85,-163.94 303.26,-153.67 298.87,-163.31 305.85,-163.94"/>
</g>
<!-- com.example.sms.domain.model.sales&#45;&gt;com.example.sms.domain.type.money -->
<g id="edge11" class="edge">
<title>com.example.sms.domain.model.sales&#45;&gt;com.example.sms.domain.type.money</title>
<path fill="none" stroke="black" d="M383.24,-308.15C441.45,-300.24 579.58,-274.43 665,-200.75 676.69,-190.67 685.19,-175.82 690.99,-162.63"/>
<polygon fill="black" stroke="black" points="694.18,-164.07 694.67,-153.49 687.69,-161.46 694.18,-164.07"/>
</g>
<!-- com.example.sms.domain.type.money&#45;&gt;com.example.sms.domain.type.quantity -->
<g id="edge8" class="edge">
<title>com.example.sms.domain.type.money&#45;&gt;com.example.sms.domain.type.quantity</title>
<path fill="none" stroke="black" d="M700.23,-112.64C699.93,-105.34 699.57,-96.79 699.24,-88.68"/>
<polygon fill="black" stroke="black" points="702.74,-88.66 698.83,-78.81 695.75,-88.94 702.74,-88.66"/>
</g>
</g>
</svg>
