<?xml version="1.0" encoding="UTF-8" standalone="no"?>
<!DOCTYPE svg PUBLIC "-//W3C//DTD SVG 1.1//EN"
 "http://www.w3.org/Graphics/SVG/1.1/DTD/svg11.dtd">
<!-- Generated by graphviz version 12.1.2 (20240928.0832)
 -->
<!-- Title: ERD Pages: 1 -->
<svg width="751pt" height="1320pt"
 viewBox="0.00 0.00 750.50 1320.00" xmlns="http://www.w3.org/2000/svg" xmlns:xlink="http://www.w3.org/1999/xlink">
<g id="graph0" class="graph" transform="scale(1 1) rotate(0) translate(4 1316)">
<title>ERD</title>
<polygon fill="white" stroke="none" points="-4,4 -4,-1316 746.5,-1316 746.5,4 -4,4"/>
<g id="clust1" class="cluster">
<title>cluster_SYSTEM</title>
<polygon fill="lightyellow" stroke="black" points="613.75,-8 613.75,-85 683.75,-85 683.75,-8 613.75,-8"/>
<text text-anchor="middle" x="648.75" y="-67.7" font-family="Times,serif" font-size="14.00">SYSTEM</text>
</g>
<g id="clust2" class="cluster">
<title>cluster_PUBLIC</title>
<polygon fill="lightyellow" stroke="black" points="8,-93 8,-1304 734.5,-1304 734.5,-93 8,-93"/>
<text text-anchor="middle" x="371.25" y="-1286.7" font-family="Times,serif" font-size="14.00">PUBLIC</text>
</g>
<!-- SYSTEM.USR -->
<g id="node1" class="node">
<title>SYSTEM.USR</title>
<polygon fill="#eedd82" stroke="black" points="675.75,-52 621.75,-52 621.75,-16 675.75,-16 675.75,-52"/>
<text text-anchor="middle" x="648.75" y="-28.95" font-family="Times,serif" font-size="14.00">USR</text>
</g>
<!-- PUBLIC.取引先グループマスタ -->
<g id="node2" class="node">
<title>PUBLIC.取引先グループマスタ</title>
<polygon fill="#eedd82" stroke="black" points="726.5,-137 571,-137 571,-101 726.5,-101 726.5,-137"/>
<text text-anchor="middle" x="648.75" y="-113.2" font-family="Times,serif" font-size="14.00">取引先グループマスタ</text>
</g>
<!-- PUBLIC.与信残高データ -->
<g id="node3" class="node">
<title>PUBLIC.与信残高データ</title>
<polygon fill="#eedd82" stroke="black" points="706.62,-191 590.88,-191 590.88,-155 706.62,-155 706.62,-191"/>
<text text-anchor="middle" x="648.75" y="-167.2" font-family="Times,serif" font-size="14.00">与信残高データ</text>
</g>
<!-- PUBLIC.取引先マスタ -->
<g id="node4" class="node">
<title>PUBLIC.取引先マスタ</title>
<polygon fill="#eedd82" stroke="black" points="326.25,-515 224.75,-515 224.75,-479 326.25,-479 326.25,-515"/>
<text text-anchor="middle" x="275.5" y="-491.2" font-family="Times,serif" font-size="14.00">取引先マスタ</text>
</g>
<!-- PUBLIC.仕入先マスタ -->
<g id="node5" class="node">
<title>PUBLIC.仕入先マスタ</title>
<polygon fill="#eedd82" stroke="black" points="506.5,-785 405,-785 405,-749 506.5,-749 506.5,-785"/>
<text text-anchor="middle" x="455.75" y="-761.2" font-family="Times,serif" font-size="14.00">仕入先マスタ</text>
</g>
<!-- PUBLIC.仕入先マスタ&#45;&gt;PUBLIC.取引先マスタ -->
<g id="edge2" class="edge">
<title>PUBLIC.仕入先マスタ&#45;&gt;PUBLIC.取引先マスタ</title>
<path fill="none" stroke="black" stroke-dasharray="5,2" d="M404.88,-756.84C394.57,-752.92 384.44,-747.5 376.5,-740 313.85,-680.89 289.22,-576.81 280.6,-526.23"/>
<polygon fill="black" stroke="black" points="279.07,-516.63 285.09,-525.79 279.66,-520.37 280.65,-526.51 280.65,-526.51 280.65,-526.51 279.66,-520.37 276.21,-527.22 279.07,-516.63"/>
</g>
<!-- PUBLIC.商品マスタ -->
<g id="node6" class="node">
<title>PUBLIC.商品マスタ</title>
<polygon fill="#eedd82" stroke="black" points="499.38,-380 412.12,-380 412.12,-344 499.38,-344 499.38,-380"/>
<text text-anchor="middle" x="455.75" y="-356.2" font-family="Times,serif" font-size="14.00">商品マスタ</text>
</g>
<!-- PUBLIC.部品表 -->
<g id="node7" class="node">
<title>PUBLIC.部品表</title>
<polygon fill="#eedd82" stroke="black" points="678.12,-245 619.38,-245 619.38,-209 678.12,-209 678.12,-245"/>
<text text-anchor="middle" x="648.75" y="-221.2" font-family="Times,serif" font-size="14.00">部品表</text>
</g>
<!-- PUBLIC.部品表&#45;&gt;PUBLIC.商品マスタ -->
<g id="edge17" class="edge">
<title>PUBLIC.部品表&#45;&gt;PUBLIC.商品マスタ</title>
<path fill="none" stroke="black" stroke-dasharray="5,2" d="M618.97,-231.39C603.17,-235.09 584.18,-241.83 571,-254 542.05,-280.72 564.03,-308.37 535,-335 527.84,-341.57 519.02,-346.55 509.89,-350.32"/>
<polygon fill="black" stroke="black" points="500.69,-353.67 508.55,-346.02 504.24,-352.38 510.09,-350.25 510.09,-350.25 510.09,-350.25 504.24,-352.38 511.63,-354.48 500.69,-353.67"/>
</g>
<!-- PUBLIC.顧客別販売単価 -->
<g id="node8" class="node">
<title>PUBLIC.顧客別販売単価</title>
<polygon fill="#eedd82" stroke="black" points="706.62,-299 590.88,-299 590.88,-263 706.62,-263 706.62,-299"/>
<text text-anchor="middle" x="648.75" y="-275.2" font-family="Times,serif" font-size="14.00">顧客別販売単価</text>
</g>
<!-- PUBLIC.顧客別販売単価&#45;&gt;PUBLIC.商品マスタ -->
<g id="edge19" class="edge">
<title>PUBLIC.顧客別販売単価&#45;&gt;PUBLIC.商品マスタ</title>
<path fill="none" stroke="black" stroke-dasharray="5,2" d="M590.74,-298.84C583.95,-301.61 577.23,-304.67 571,-308 553.36,-317.43 552.67,-325.62 535,-335 527.15,-339.17 518.52,-342.9 509.96,-346.16"/>
<polygon fill="black" stroke="black" points="500.74,-349.48 508.62,-341.86 504.29,-348.2 510.14,-346.09 510.14,-346.09 510.14,-346.09 504.29,-348.2 511.67,-350.32 500.74,-349.48"/>
</g>
<!-- PUBLIC.取引先分類マスタ -->
<g id="node9" class="node">
<title>PUBLIC.取引先分類マスタ</title>
<polygon fill="#eedd82" stroke="black" points="340.5,-326 210.5,-326 210.5,-290 340.5,-290 340.5,-326"/>
<text text-anchor="middle" x="275.5" y="-302.2" font-family="Times,serif" font-size="14.00">取引先分類マスタ</text>
</g>
<!-- PUBLIC.取引先分類種別マスタ -->
<g id="node17" class="node">
<title>PUBLIC.取引先分類種別マスタ</title>
<polygon fill="#eedd82" stroke="black" points="174.5,-326 16,-326 16,-290 174.5,-290 174.5,-326"/>
<text text-anchor="middle" x="95.25" y="-302.2" font-family="Times,serif" font-size="14.00">取引先分類種別マスタ</text>
</g>
<!-- PUBLIC.取引先分類マスタ&#45;&gt;PUBLIC.取引先分類種別マスタ -->
<g id="edge7" class="edge">
<title>PUBLIC.取引先分類マスタ&#45;&gt;PUBLIC.取引先分類種別マスタ</title>
<path fill="none" stroke="black" stroke-dasharray="5,2" d="M210.15,-308C202.26,-308 194.1,-308 185.93,-308"/>
<polygon fill="black" stroke="black" points="176.02,-308 186.02,-303.5 179.81,-308 186.02,-308 186.02,-308 186.02,-308 179.81,-308 186.02,-312.5 176.02,-308"/>
</g>
<!-- PUBLIC.取引先分類所属マスタ -->
<g id="node10" class="node">
<title>PUBLIC.取引先分類所属マスタ</title>
<polygon fill="#eedd82" stroke="black" points="535,-326 376.5,-326 376.5,-290 535,-290 535,-326"/>
<text text-anchor="middle" x="455.75" y="-302.2" font-family="Times,serif" font-size="14.00">取引先分類所属マスタ</text>
</g>
<!-- PUBLIC.取引先分類所属マスタ&#45;&gt;PUBLIC.取引先マスタ -->
<g id="edge8" class="edge">
<title>PUBLIC.取引先分類所属マスタ&#45;&gt;PUBLIC.取引先マスタ</title>
<path fill="none" stroke="black" stroke-dasharray="5,2" d="M389.66,-326.39C384.99,-328.91 380.54,-331.77 376.5,-335 331.84,-370.75 301.85,-432.22 287.12,-468.28"/>
<polygon fill="black" stroke="black" points="283.48,-477.47 282.98,-466.51 284.87,-473.95 287.16,-468.17 287.16,-468.17 287.16,-468.17 284.87,-473.95 291.35,-469.83 283.48,-477.47"/>
</g>
<!-- PUBLIC.取引先分類所属マスタ&#45;&gt;PUBLIC.取引先分類マスタ -->
<g id="edge9" class="edge">
<title>PUBLIC.取引先分類所属マスタ&#45;&gt;PUBLIC.取引先分類マスタ</title>
<path fill="none" stroke="black" stroke-dasharray="5,2" d="M376.05,-308C368.06,-308 359.96,-308 352.01,-308"/>
<polygon fill="black" stroke="black" points="342.11,-308 352.11,-303.5 345.89,-308 352.11,-308 352.11,-308 352.11,-308 345.89,-308 352.11,-312.5 342.11,-308"/>
</g>
<!-- PUBLIC.支払データ -->
<g id="node11" class="node">
<title>PUBLIC.支払データ</title>
<polygon fill="#eedd82" stroke="black" points="692.38,-353 605.12,-353 605.12,-317 692.38,-317 692.38,-353"/>
<text text-anchor="middle" x="648.75" y="-329.2" font-family="Times,serif" font-size="14.00">支払データ</text>
</g>
<!-- PUBLIC.自動採番マスタ -->
<g id="node12" class="node">
<title>PUBLIC.自動採番マスタ</title>
<polygon fill="#eedd82" stroke="black" points="706.62,-407 590.88,-407 590.88,-371 706.62,-371 706.62,-407"/>
<text text-anchor="middle" x="648.75" y="-383.2" font-family="Times,serif" font-size="14.00">自動採番マスタ</text>
</g>
<!-- PUBLIC.受注データ -->
<g id="node13" class="node">
<title>PUBLIC.受注データ</title>
<polygon fill="#eedd82" stroke="black" points="499.38,-1055 412.12,-1055 412.12,-1019 499.38,-1019 499.38,-1055"/>
<text text-anchor="middle" x="455.75" y="-1031.2" font-family="Times,serif" font-size="14.00">受注データ</text>
</g>
<!-- PUBLIC.発注データ明細 -->
<g id="node14" class="node">
<title>PUBLIC.発注データ明細</title>
<polygon fill="#eedd82" stroke="black" points="706.62,-569 590.88,-569 590.88,-533 706.62,-533 706.62,-569"/>
<text text-anchor="middle" x="648.75" y="-545.2" font-family="Times,serif" font-size="14.00">発注データ明細</text>
</g>
<!-- PUBLIC.発注データ -->
<g id="node20" class="node">
<title>PUBLIC.発注データ</title>
<polygon fill="#eedd82" stroke="black" points="499.38,-569 412.12,-569 412.12,-533 499.38,-533 499.38,-569"/>
<text text-anchor="middle" x="455.75" y="-545.2" font-family="Times,serif" font-size="14.00">発注データ</text>
</g>
<!-- PUBLIC.発注データ明細&#45;&gt;PUBLIC.発注データ -->
<g id="edge14" class="edge">
<title>PUBLIC.発注データ明細&#45;&gt;PUBLIC.発注データ</title>
<path fill="none" stroke="black" stroke-dasharray="5,2" d="M590.44,-551C565.19,-551 535.67,-551 510.81,-551"/>
<polygon fill="black" stroke="black" points="500.96,-551 510.96,-546.5 504.74,-551 510.96,-551 510.96,-551 510.96,-551 504.74,-551 510.96,-555.5 500.96,-551"/>
</g>
<!-- PUBLIC.顧客マスタ -->
<g id="node15" class="node">
<title>PUBLIC.顧客マスタ</title>
<polygon fill="#eedd82" stroke="black" points="499.38,-515 412.12,-515 412.12,-479 499.38,-479 499.38,-515"/>
<text text-anchor="middle" x="455.75" y="-491.2" font-family="Times,serif" font-size="14.00">顧客マスタ</text>
</g>
<!-- PUBLIC.顧客マスタ&#45;&gt;PUBLIC.取引先マスタ -->
<g id="edge18" class="edge">
<title>PUBLIC.顧客マスタ&#45;&gt;PUBLIC.取引先マスタ</title>
<path fill="none" stroke="black" stroke-dasharray="5,2" d="M412.05,-497C389.73,-497 362,-497 337.46,-497"/>
<polygon fill="black" stroke="black" points="327.65,-497 337.65,-492.5 331.43,-497 337.65,-497 337.65,-497 337.65,-497 331.43,-497 337.65,-501.5 327.65,-497"/>
</g>
<!-- PUBLIC.倉庫部門マスタ -->
<g id="node16" class="node">
<title>PUBLIC.倉庫部門マスタ</title>
<polygon fill="#eedd82" stroke="black" points="706.62,-623 590.88,-623 590.88,-587 706.62,-587 706.62,-623"/>
<text text-anchor="middle" x="648.75" y="-599.2" font-family="Times,serif" font-size="14.00">倉庫部門マスタ</text>
</g>
<!-- PUBLIC.部門マスタ -->
<g id="node25" class="node">
<title>PUBLIC.部門マスタ</title>
<polygon fill="#eedd82" stroke="black" points="499.38,-623 412.12,-623 412.12,-587 499.38,-587 499.38,-623"/>
<text text-anchor="middle" x="455.75" y="-599.2" font-family="Times,serif" font-size="14.00">部門マスタ</text>
</g>
<!-- PUBLIC.倉庫部門マスタ&#45;&gt;PUBLIC.部門マスタ -->
<g id="edge5" class="edge">
<title>PUBLIC.倉庫部門マスタ&#45;&gt;PUBLIC.部門マスタ</title>
<path fill="none" stroke="black" stroke-dasharray="5,2" d="M590.44,-605C565.19,-605 535.67,-605 510.81,-605"/>
<polygon fill="black" stroke="black" points="500.96,-605 510.96,-600.5 504.74,-605 510.96,-605 510.96,-605 510.96,-605 504.74,-605 510.96,-609.5 500.96,-605"/>
</g>
<!-- PUBLIC.倉庫マスタ -->
<g id="node29" class="node">
<title>PUBLIC.倉庫マスタ</title>
<polygon fill="#eedd82" stroke="black" points="499.38,-731 412.12,-731 412.12,-695 499.38,-695 499.38,-731"/>
<text text-anchor="middle" x="455.75" y="-707.2" font-family="Times,serif" font-size="14.00">倉庫マスタ</text>
</g>
<!-- PUBLIC.倉庫部門マスタ&#45;&gt;PUBLIC.倉庫マスタ -->
<g id="edge4" class="edge">
<title>PUBLIC.倉庫部門マスタ&#45;&gt;PUBLIC.倉庫マスタ</title>
<path fill="none" stroke="black" stroke-dasharray="5,2" d="M590.42,-623.17C583.75,-625.87 577.15,-628.82 571,-632 540.82,-647.61 509.55,-670.32 487.36,-687.72"/>
<polygon fill="black" stroke="black" points="479.69,-693.82 484.72,-684.07 482.65,-691.47 487.52,-687.6 487.52,-687.6 487.52,-687.6 482.65,-691.47 490.32,-691.12 479.69,-693.82"/>
</g>
<!-- PUBLIC.在庫データ -->
<g id="node18" class="node">
<title>PUBLIC.在庫データ</title>
<polygon fill="#eedd82" stroke="black" points="692.38,-785 605.12,-785 605.12,-749 692.38,-749 692.38,-785"/>
<text text-anchor="middle" x="648.75" y="-761.2" font-family="Times,serif" font-size="14.00">在庫データ</text>
</g>
<!-- PUBLIC.在庫データ&#45;&gt;PUBLIC.倉庫マスタ -->
<g id="edge11" class="edge">
<title>PUBLIC.在庫データ&#45;&gt;PUBLIC.倉庫マスタ</title>
<path fill="none" stroke="black" stroke-dasharray="5,2" d="M604.89,-754.88C576.97,-746.99 540.32,-736.63 510.47,-728.19"/>
<polygon fill="black" stroke="black" points="500.97,-725.5 511.82,-723.89 504.61,-726.53 510.6,-728.22 510.6,-728.22 510.6,-728.22 504.61,-726.53 509.37,-732.55 500.97,-725.5"/>
</g>
<!-- PUBLIC.出荷先マスタ -->
<g id="node19" class="node">
<title>PUBLIC.出荷先マスタ</title>
<polygon fill="#eedd82" stroke="black" points="699.5,-515 598,-515 598,-479 699.5,-479 699.5,-515"/>
<text text-anchor="middle" x="648.75" y="-491.2" font-family="Times,serif" font-size="14.00">出荷先マスタ</text>
</g>
<!-- PUBLIC.出荷先マスタ&#45;&gt;PUBLIC.顧客マスタ -->
<g id="edge6" class="edge">
<title>PUBLIC.出荷先マスタ&#45;&gt;PUBLIC.顧客マスタ</title>
<path fill="none" stroke="black" stroke-dasharray="5,2" d="M597.57,-497C570.85,-497 537.98,-497 510.72,-497"/>
<polygon fill="black" stroke="black" points="501.01,-497 511.01,-492.5 504.8,-497 511.01,-497 511.01,-497 511.01,-497 504.8,-497 511.01,-501.5 501.01,-497"/>
</g>
<!-- PUBLIC.請求データ -->
<g id="node21" class="node">
<title>PUBLIC.請求データ</title>
<polygon fill="#eedd82" stroke="black" points="499.38,-1001 412.12,-1001 412.12,-965 499.38,-965 499.38,-1001"/>
<text text-anchor="middle" x="455.75" y="-977.2" font-family="Times,serif" font-size="14.00">請求データ</text>
</g>
<!-- PUBLIC.社員マスタ -->
<g id="node22" class="node">
<title>PUBLIC.社員マスタ</title>
<polygon fill="#eedd82" stroke="black" points="692.38,-677 605.12,-677 605.12,-641 692.38,-641 692.38,-677"/>
<text text-anchor="middle" x="648.75" y="-653.2" font-family="Times,serif" font-size="14.00">社員マスタ</text>
</g>
<!-- PUBLIC.入金口座マスタ -->
<g id="node23" class="node">
<title>PUBLIC.入金口座マスタ</title>
<polygon fill="#eedd82" stroke="black" points="706.62,-731 590.88,-731 590.88,-695 706.62,-695 706.62,-731"/>
<text text-anchor="middle" x="648.75" y="-707.2" font-family="Times,serif" font-size="14.00">入金口座マスタ</text>
</g>
<!-- PUBLIC.仕入データ明細 -->
<g id="node24" class="node">
<title>PUBLIC.仕入データ明細</title>
<polygon fill="#eedd82" stroke="black" points="706.62,-893 590.88,-893 590.88,-857 706.62,-857 706.62,-893"/>
<text text-anchor="middle" x="648.75" y="-869.2" font-family="Times,serif" font-size="14.00">仕入データ明細</text>
</g>
<!-- PUBLIC.仕入データ -->
<g id="node37" class="node">
<title>PUBLIC.仕入データ</title>
<polygon fill="#eedd82" stroke="black" points="499.38,-893 412.12,-893 412.12,-857 499.38,-857 499.38,-893"/>
<text text-anchor="middle" x="455.75" y="-869.2" font-family="Times,serif" font-size="14.00">仕入データ</text>
</g>
<!-- PUBLIC.仕入データ明細&#45;&gt;PUBLIC.仕入データ -->
<g id="edge1" class="edge">
<title>PUBLIC.仕入データ明細&#45;&gt;PUBLIC.仕入データ</title>
<path fill="none" stroke="black" stroke-dasharray="5,2" d="M590.44,-875C565.19,-875 535.67,-875 510.81,-875"/>
<polygon fill="black" stroke="black" points="500.96,-875 510.96,-870.5 504.74,-875 510.96,-875 510.96,-875 510.96,-875 504.74,-875 510.96,-879.5 500.96,-875"/>
</g>
<!-- PUBLIC.請求データ明細 -->
<g id="node26" class="node">
<title>PUBLIC.請求データ明細</title>
<polygon fill="#eedd82" stroke="black" points="706.62,-947 590.88,-947 590.88,-911 706.62,-911 706.62,-947"/>
<text text-anchor="middle" x="648.75" y="-923.2" font-family="Times,serif" font-size="14.00">請求データ明細</text>
</g>
<!-- PUBLIC.請求データ明細&#45;&gt;PUBLIC.請求データ -->
<g id="edge16" class="edge">
<title>PUBLIC.請求データ明細&#45;&gt;PUBLIC.請求データ</title>
<path fill="none" stroke="black" stroke-dasharray="5,2" d="M590.44,-945.2C565.08,-952.37 535.41,-960.76 510.47,-967.81"/>
<polygon fill="black" stroke="black" points="500.91,-970.51 509.31,-963.46 504.55,-969.48 510.54,-967.79 510.54,-967.79 510.54,-967.79 504.55,-969.48 511.76,-972.12 500.91,-970.51"/>
</g>
<!-- PUBLIC.売上データ明細 -->
<g id="node30" class="node">
<title>PUBLIC.売上データ明細</title>
<polygon fill="#eedd82" stroke="black" points="513.62,-947 397.88,-947 397.88,-911 513.62,-911 513.62,-947"/>
<text text-anchor="middle" x="455.75" y="-923.2" font-family="Times,serif" font-size="14.00">売上データ明細</text>
</g>
<!-- PUBLIC.請求データ明細&#45;&gt;PUBLIC.売上データ明細 -->
<g id="edge15" class="edge">
<title>PUBLIC.請求データ明細&#45;&gt;PUBLIC.売上データ明細</title>
<path fill="none" stroke="black" stroke-dasharray="5,2" d="M590.44,-929C569.86,-929 546.44,-929 525.01,-929"/>
<polygon fill="black" stroke="black" points="515.23,-929 525.23,-924.5 519.02,-929 525.23,-929 525.23,-929 525.23,-929 519.02,-929 525.23,-933.5 515.23,-929"/>
</g>
<!-- PUBLIC.棚番マスタ -->
<g id="node27" class="node">
<title>PUBLIC.棚番マスタ</title>
<polygon fill="#eedd82" stroke="black" points="692.38,-839 605.12,-839 605.12,-803 692.38,-803 692.38,-839"/>
<text text-anchor="middle" x="648.75" y="-815.2" font-family="Times,serif" font-size="14.00">棚番マスタ</text>
</g>
<!-- PUBLIC.棚番マスタ&#45;&gt;PUBLIC.倉庫マスタ -->
<g id="edge13" class="edge">
<title>PUBLIC.棚番マスタ&#45;&gt;PUBLIC.倉庫マスタ</title>
<path fill="none" stroke="black" stroke-dasharray="5,2" d="M604.65,-811.23C592.95,-807.2 580.82,-801.63 571,-794 548.22,-776.3 557.83,-757.63 535,-740 527.64,-734.32 519.01,-729.78 510.21,-726.18"/>
<polygon fill="black" stroke="black" points="501.02,-722.79 511.96,-722.03 504.56,-724.1 510.4,-726.25 510.4,-726.25 510.4,-726.25 504.56,-724.1 508.84,-730.47 501.02,-722.79"/>
</g>
<!-- PUBLIC.代替商品 -->
<g id="node28" class="node">
<title>PUBLIC.代替商品</title>
<polygon fill="#eedd82" stroke="black" points="685.25,-461 612.25,-461 612.25,-425 685.25,-425 685.25,-461"/>
<text text-anchor="middle" x="648.75" y="-437.2" font-family="Times,serif" font-size="14.00">代替商品</text>
</g>
<!-- PUBLIC.代替商品&#45;&gt;PUBLIC.商品マスタ -->
<g id="edge3" class="edge">
<title>PUBLIC.代替商品&#45;&gt;PUBLIC.商品マスタ</title>
<path fill="none" stroke="black" stroke-dasharray="5,2" d="M611.93,-431.26C598.93,-426.77 584.2,-421.42 571,-416 548.43,-406.73 523.91,-395.32 503.39,-385.38"/>
<polygon fill="black" stroke="black" points="494.46,-381.02 505.42,-381.36 497.86,-382.68 503.45,-385.41 503.45,-385.41 503.45,-385.41 497.86,-382.68 501.47,-389.45 494.46,-381.02"/>
</g>
<!-- PUBLIC.売上データ -->
<g id="node33" class="node">
<title>PUBLIC.売上データ</title>
<polygon fill="#eedd82" stroke="black" points="319.12,-947 231.88,-947 231.88,-911 319.12,-911 319.12,-947"/>
<text text-anchor="middle" x="275.5" y="-923.2" font-family="Times,serif" font-size="14.00">売上データ</text>
</g>
<!-- PUBLIC.売上データ明細&#45;&gt;PUBLIC.売上データ -->
<g id="edge12" class="edge">
<title>PUBLIC.売上データ明細&#45;&gt;PUBLIC.売上データ</title>
<path fill="none" stroke="black" stroke-dasharray="5,2" d="M397.86,-929C376.36,-929 351.96,-929 330.7,-929"/>
<polygon fill="black" stroke="black" points="320.8,-929 330.8,-924.5 324.59,-929 330.8,-929 330.8,-929 330.8,-929 324.59,-929 330.8,-933.5 320.8,-929"/>
</g>
<!-- PUBLIC.地域マスタ -->
<g id="node31" class="node">
<title>PUBLIC.地域マスタ</title>
<polygon fill="#eedd82" stroke="black" points="692.38,-1001 605.12,-1001 605.12,-965 692.38,-965 692.38,-1001"/>
<text text-anchor="middle" x="648.75" y="-977.2" font-family="Times,serif" font-size="14.00">地域マスタ</text>
</g>
<!-- PUBLIC.受注データ明細 -->
<g id="node32" class="node">
<title>PUBLIC.受注データ明細</title>
<polygon fill="#eedd82" stroke="black" points="706.62,-1055 590.88,-1055 590.88,-1019 706.62,-1019 706.62,-1055"/>
<text text-anchor="middle" x="648.75" y="-1031.2" font-family="Times,serif" font-size="14.00">受注データ明細</text>
</g>
<!-- PUBLIC.受注データ明細&#45;&gt;PUBLIC.受注データ -->
<g id="edge10" class="edge">
<title>PUBLIC.受注データ明細&#45;&gt;PUBLIC.受注データ</title>
<path fill="none" stroke="black" stroke-dasharray="5,2" d="M590.44,-1037C565.19,-1037 535.67,-1037 510.81,-1037"/>
<polygon fill="black" stroke="black" points="500.96,-1037 510.96,-1032.5 504.74,-1037 510.96,-1037 510.96,-1037 510.96,-1037 504.74,-1037 510.96,-1041.5 500.96,-1037"/>
</g>
<!-- PUBLIC.個人客マスタ -->
<g id="node34" class="node">
<title>PUBLIC.個人客マスタ</title>
<polygon fill="#eedd82" stroke="black" points="699.5,-1109 598,-1109 598,-1073 699.5,-1073 699.5,-1109"/>
<text text-anchor="middle" x="648.75" y="-1085.2" font-family="Times,serif" font-size="14.00">個人客マスタ</text>
</g>
<!-- PUBLIC.flyway_schema_history -->
<g id="node35" class="node">
<title>PUBLIC.flyway_schema_history</title>
<polygon fill="#eedd82" stroke="black" points="721.62,-1163 575.88,-1163 575.88,-1127 721.62,-1127 721.62,-1163"/>
<text text-anchor="middle" x="648.75" y="-1139.95" font-family="Times,serif" font-size="14.00">flyway_schema_history</text>
</g>
<!-- PUBLIC.商品分類マスタ -->
<g id="node36" class="node">
<title>PUBLIC.商品分類マスタ</title>
<polygon fill="#eedd82" stroke="black" points="706.62,-1217 590.88,-1217 590.88,-1181 706.62,-1181 706.62,-1217"/>
<text text-anchor="middle" x="648.75" y="-1193.2" font-family="Times,serif" font-size="14.00">商品分類マスタ</text>
</g>
<!-- PUBLIC.入金データ -->
<g id="node38" class="node">
<title>PUBLIC.入金データ</title>
<polygon fill="#eedd82" stroke="black" points="692.38,-1271 605.12,-1271 605.12,-1235 692.38,-1235 692.38,-1271"/>
<text text-anchor="middle" x="648.75" y="-1247.2" font-family="Times,serif" font-size="14.00">入金データ</text>
</g>
</g>
</svg>
