<?xml version="1.0" encoding="UTF-8" standalone="no"?>
<!DOCTYPE svg PUBLIC "-//W3C//DTD SVG 1.1//EN"
 "http://www.w3.org/Graphics/SVG/1.1/DTD/svg11.dtd">
<!-- Generated by graphviz version 12.1.2 (20240928.0832)
 -->
<!-- Title: ERD Pages: 1 -->
<svg width="757pt" height="1457pt"
 viewBox="0.00 0.00 757.00 1457.00" xmlns="http://www.w3.org/2000/svg" xmlns:xlink="http://www.w3.org/1999/xlink">
<g id="graph0" class="graph" transform="scale(1 1) rotate(0) translate(4 1453)">
<title>ERD</title>
<polygon fill="white" stroke="none" points="-4,4 -4,-1453 753,-1453 753,4 -4,4"/>
<g id="clust1" class="cluster">
<title>cluster_SYSTEM</title>
<polygon fill="lightyellow" stroke="black" points="621.75,-8 621.75,-77 691.75,-77 691.75,-8 621.75,-8"/>
<text text-anchor="middle" x="656.75" y="-59.7" font-family="Times,serif" font-size="14.00">SYSTEM</text>
</g>
<g id="clust2" class="cluster">
<title>cluster_PUBLIC</title>
<polygon fill="lightyellow" stroke="black" points="8,-85 8,-1441 741,-1441 741,-85 8,-85"/>
<text text-anchor="middle" x="374.5" y="-1423.7" font-family="Times,serif" font-size="14.00">PUBLIC</text>
</g>
<!-- SYSTEM.USR -->
<g id="node1" class="node">
<title>SYSTEM.USR</title>
<polygon fill="#eee9bf" stroke="none" points="637.75,-15.75 637.75,-44.25 676.75,-44.25 676.75,-15.75 637.75,-15.75"/>
<polygon fill="#eedd82" stroke="none" points="637.75,-15.75 637.75,-44.25 676.75,-44.25 676.75,-15.75 637.75,-15.75"/>
<polygon fill="none" stroke="black" points="637.75,-15.75 637.75,-44.25 676.75,-44.25 676.75,-15.75 637.75,-15.75"/>
<text text-anchor="start" x="643.75" y="-25.95" font-family="Times,serif" font-weight="bold" font-size="14.00">USR</text>
</g>
<!-- PUBLIC.取引先グループマスタ -->
<g id="node2" class="node">
<title>PUBLIC.取引先グループマスタ</title>
<polygon fill="#eee9bf" stroke="none" points="581.5,-93.5 581.5,-120.5 733,-120.5 733,-93.5 581.5,-93.5"/>
<polygon fill="#eedd82" stroke="none" points="581.5,-93.5 581.5,-120.5 733,-120.5 733,-93.5 581.5,-93.5"/>
<polygon fill="none" stroke="black" points="581.5,-93.5 581.5,-120.5 733,-120.5 733,-93.5 581.5,-93.5"/>
<text text-anchor="start" x="587.5" y="-102.2" font-family="Times,serif" font-weight="bold" font-size="14.00">取引先グループマスタ</text>
</g>
<!-- PUBLIC.与信残高データ -->
<g id="node3" class="node">
<title>PUBLIC.与信残高データ</title>
<polygon fill="#eee9bf" stroke="none" points="601.38,-138.5 601.38,-165.5 713.12,-165.5 713.12,-138.5 601.38,-138.5"/>
<polygon fill="#eedd82" stroke="none" points="601.38,-138.5 601.38,-165.5 713.12,-165.5 713.12,-138.5 601.38,-138.5"/>
<polygon fill="none" stroke="black" points="601.38,-138.5 601.38,-165.5 713.12,-165.5 713.12,-138.5 601.38,-138.5"/>
<text text-anchor="start" x="607.38" y="-147.2" font-family="Times,serif" font-weight="bold" font-size="14.00">与信残高データ</text>
</g>
<!-- PUBLIC.取引先マスタ -->
<g id="node4" class="node">
<title>PUBLIC.取引先マスタ</title>
<polygon fill="#eee9bf" stroke="none" points="232,-494 232,-542 329.5,-542 329.5,-494 232,-494"/>
<polygon fill="#eedd82" stroke="none" points="232,-515 232,-542 329.5,-542 329.5,-515 232,-515"/>
<polygon fill="none" stroke="black" points="232,-515 232,-542 329.5,-542 329.5,-515 232,-515"/>
<text text-anchor="start" x="238" y="-523.7" font-family="Times,serif" font-weight="bold" font-size="14.00">取引先マスタ</text>
<polygon fill="none" stroke="black" points="232,-494 232,-515 329.5,-515 329.5,-494 232,-494"/>
<text text-anchor="start" x="235" y="-498.7" font-family="Times,serif" font-size="14.00">取引先コード</text>
</g>
<!-- PUBLIC.仕入先マスタ -->
<g id="node5" class="node">
<title>PUBLIC.仕入先マスタ</title>
<polygon fill="#eee9bf" stroke="none" points="419.5,-263 419.5,-311 517,-311 517,-263 419.5,-263"/>
<polygon fill="#eedd82" stroke="none" points="419.5,-284 419.5,-311 517,-311 517,-284 419.5,-284"/>
<polygon fill="none" stroke="black" points="419.5,-284 419.5,-311 517,-311 517,-284 419.5,-284"/>
<text text-anchor="start" x="425.5" y="-292.7" font-family="Times,serif" font-weight="bold" font-size="14.00">仕入先マスタ</text>
<polygon fill="none" stroke="black" points="419.5,-263 419.5,-284 517,-284 517,-263 419.5,-263"/>
<text text-anchor="start" x="422.5" y="-267.7" font-family="Times,serif" font-size="14.00">仕入先コード</text>
</g>
<!-- PUBLIC.仕入先マスタ&#45;&gt;PUBLIC.取引先マスタ -->
<g id="edge14" class="edge">
<title>PUBLIC.仕入先マスタ:r20&#45;&gt;PUBLIC.取引先マスタ:r18</title>
<path fill="none" stroke="black" stroke-dasharray="5,2" d="M418.5,-273.5C312.61,-273.5 431.16,-488.11 341.49,-503.62"/>
<polygon fill="black" stroke="black" points="331.71,-504.4 341.32,-499.12 335.48,-504.1 341.68,-503.6 341.68,-503.6 341.68,-503.6 335.48,-504.1 342.04,-508.09 331.71,-504.4"/>
</g>
<!-- PUBLIC.商品マスタ -->
<g id="node6" class="node">
<title>PUBLIC.商品マスタ</title>
<polygon fill="#eee9bf" stroke="none" points="426.62,-329 426.62,-377 509.88,-377 509.88,-329 426.62,-329"/>
<polygon fill="#eedd82" stroke="none" points="426.62,-350 426.62,-377 509.88,-377 509.88,-350 426.62,-350"/>
<polygon fill="none" stroke="black" points="426.62,-350 426.62,-377 509.88,-377 509.88,-350 426.62,-350"/>
<text text-anchor="start" x="432.62" y="-358.7" font-family="Times,serif" font-weight="bold" font-size="14.00">商品マスタ</text>
<polygon fill="none" stroke="black" points="426.62,-329 426.62,-350 509.88,-350 509.88,-329 426.62,-329"/>
<text text-anchor="start" x="429.62" y="-333.7" font-family="Times,serif" font-size="14.00">商品コード</text>
</g>
<!-- PUBLIC.部品表 -->
<g id="node7" class="node">
<title>PUBLIC.部品表</title>
<polygon fill="#eee9bf" stroke="none" points="618.62,-184 618.62,-232 695.88,-232 695.88,-184 618.62,-184"/>
<polygon fill="#eedd82" stroke="none" points="618.62,-205 618.62,-232 695.88,-232 695.88,-205 618.62,-205"/>
<polygon fill="none" stroke="black" points="618.62,-205 618.62,-232 695.88,-232 695.88,-205 618.62,-205"/>
<text text-anchor="start" x="635.88" y="-213.7" font-family="Times,serif" font-weight="bold" font-size="14.00">部品表</text>
<polygon fill="none" stroke="black" points="618.62,-184 618.62,-205 695.88,-205 695.88,-184 618.62,-184"/>
<text text-anchor="start" x="621.62" y="-188.7" font-family="Times,serif" font-size="14.00">商品コード</text>
</g>
<!-- PUBLIC.部品表&#45;&gt;PUBLIC.商品マスタ -->
<g id="edge7" class="edge">
<title>PUBLIC.部品表:r12&#45;&gt;PUBLIC.商品マスタ:r11</title>
<path fill="none" stroke="black" stroke-dasharray="5,2" d="M617.62,-194.5C541.51,-194.5 586.01,-325.69 521.67,-338.5"/>
<polygon fill="black" stroke="black" points="512.09,-339.39 521.63,-333.98 515.85,-339.04 522.05,-338.46 522.05,-338.46 522.05,-338.46 515.85,-339.04 522.46,-342.94 512.09,-339.39"/>
</g>
<!-- PUBLIC.顧客別販売単価 -->
<g id="node8" class="node">
<title>PUBLIC.顧客別販売単価</title>
<polygon fill="#eee9bf" stroke="none" points="601.38,-250 601.38,-298 713.12,-298 713.12,-250 601.38,-250"/>
<polygon fill="#eedd82" stroke="none" points="601.38,-271 601.38,-298 713.12,-298 713.12,-271 601.38,-271"/>
<polygon fill="none" stroke="black" points="601.38,-271 601.38,-298 713.12,-298 713.12,-271 601.38,-271"/>
<text text-anchor="start" x="607.38" y="-279.7" font-family="Times,serif" font-weight="bold" font-size="14.00">顧客別販売単価</text>
<polygon fill="none" stroke="black" points="601.38,-250 601.38,-271 713.12,-271 713.12,-250 601.38,-250"/>
<text text-anchor="start" x="604.38" y="-254.7" font-family="Times,serif" font-size="14.00">商品コード</text>
</g>
<!-- PUBLIC.顧客別販売単価&#45;&gt;PUBLIC.商品マスタ -->
<g id="edge6" class="edge">
<title>PUBLIC.顧客別販売単価:r10&#45;&gt;PUBLIC.商品マスタ:r11</title>
<path fill="none" stroke="black" stroke-dasharray="5,2" d="M600.38,-260.5C564.4,-260.5 573.71,-297.68 545.5,-320 535.11,-328.22 530.76,-335.08 521.79,-337.99"/>
<polygon fill="black" stroke="black" points="512.08,-339.33 521.37,-333.51 515.83,-338.82 521.99,-337.97 521.99,-337.97 521.99,-337.97 515.83,-338.82 522.6,-342.42 512.08,-339.33"/>
</g>
<!-- PUBLIC.取引先分類マスタ -->
<g id="node9" class="node">
<title>PUBLIC.取引先分類マスタ</title>
<polygon fill="#eee9bf" stroke="none" points="206.5,-812.5 206.5,-881.5 355,-881.5 355,-812.5 206.5,-812.5"/>
<polygon fill="#eedd82" stroke="none" points="206.5,-854.5 206.5,-881.5 355,-881.5 355,-854.5 206.5,-854.5"/>
<polygon fill="none" stroke="black" points="206.5,-854.5 206.5,-881.5 355,-881.5 355,-854.5 206.5,-854.5"/>
<text text-anchor="start" x="223.75" y="-863.2" font-family="Times,serif" font-weight="bold" font-size="14.00">取引先分類マスタ</text>
<polygon fill="none" stroke="black" points="206.5,-833.5 206.5,-854.5 355,-854.5 355,-833.5 206.5,-833.5"/>
<text text-anchor="start" x="209.5" y="-838.2" font-family="Times,serif" font-size="14.00">取引先分類種別コード</text>
<polygon fill="none" stroke="black" points="206.5,-812.5 206.5,-833.5 355,-833.5 355,-812.5 206.5,-812.5"/>
<text text-anchor="start" x="209.5" y="-817.2" font-family="Times,serif" font-size="14.00">取引先分類コード</text>
</g>
<!-- PUBLIC.取引先分類種別マスタ -->
<g id="node17" class="node">
<title>PUBLIC.取引先分類種別マスタ</title>
<polygon fill="#eee9bf" stroke="none" points="16,-833 16,-881 170.5,-881 170.5,-833 16,-833"/>
<polygon fill="#eedd82" stroke="none" points="16,-854 16,-881 170.5,-881 170.5,-854 16,-854"/>
<polygon fill="none" stroke="black" points="16,-854 16,-881 170.5,-881 170.5,-854 16,-854"/>
<text text-anchor="start" x="22" y="-862.7" font-family="Times,serif" font-weight="bold" font-size="14.00">取引先分類種別マスタ</text>
<polygon fill="none" stroke="black" points="16,-833 16,-854 170.5,-854 170.5,-833 16,-833"/>
<text text-anchor="start" x="19" y="-837.7" font-family="Times,serif" font-size="14.00">取引先分類種別コード</text>
</g>
<!-- PUBLIC.取引先分類マスタ&#45;&gt;PUBLIC.取引先分類種別マスタ -->
<g id="edge19" class="edge">
<title>PUBLIC.取引先分類マスタ:r5&#45;&gt;PUBLIC.取引先分類種別マスタ:r29</title>
<path fill="none" stroke="black" stroke-dasharray="5,2" d="M206.5,-844C195,-844 189.7,-843.74 181.69,-843.6"/>
<polygon fill="black" stroke="black" points="171.72,-843.51 181.76,-839.1 175.5,-843.54 181.72,-843.6 181.72,-843.6 181.72,-843.6 175.5,-843.54 181.68,-848.1 171.72,-843.51"/>
</g>
<!-- PUBLIC.取引先分類所属マスタ -->
<g id="node10" class="node">
<title>PUBLIC.取引先分類所属マスタ</title>
<polygon fill="#eee9bf" stroke="none" points="391,-792 391,-882 545.5,-882 545.5,-792 391,-792"/>
<polygon fill="#eedd82" stroke="none" points="391,-855 391,-882 545.5,-882 545.5,-855 391,-855"/>
<polygon fill="none" stroke="black" points="391,-855 391,-882 545.5,-882 545.5,-855 391,-855"/>
<text text-anchor="start" x="397" y="-863.7" font-family="Times,serif" font-weight="bold" font-size="14.00">取引先分類所属マスタ</text>
<polygon fill="none" stroke="black" points="391,-834 391,-855 545.5,-855 545.5,-834 391,-834"/>
<text text-anchor="start" x="394" y="-838.7" font-family="Times,serif" font-size="14.00">取引先分類種別コード</text>
<polygon fill="none" stroke="black" points="391,-813 391,-834 545.5,-834 545.5,-813 391,-813"/>
<text text-anchor="start" x="394" y="-817.7" font-family="Times,serif" font-size="14.00">取引先分類コード</text>
<polygon fill="none" stroke="black" points="391,-792 391,-813 545.5,-813 545.5,-792 391,-792"/>
<text text-anchor="start" x="394" y="-796.7" font-family="Times,serif" font-size="14.00">取引先コード</text>
</g>
<!-- PUBLIC.取引先分類所属マスタ&#45;&gt;PUBLIC.取引先マスタ -->
<g id="edge13" class="edge">
<title>PUBLIC.取引先分類所属マスタ:r19&#45;&gt;PUBLIC.取引先マスタ:r18</title>
<path fill="none" stroke="black" stroke-dasharray="5,2" d="M391,-802.5C259.81,-802.5 453.65,-521.71 341.51,-505.25"/>
<polygon fill="black" stroke="black" points="331.72,-504.58 342,-500.78 335.49,-504.84 341.69,-505.27 341.69,-505.27 341.69,-505.27 335.49,-504.84 341.39,-509.75 331.72,-504.58"/>
</g>
<!-- PUBLIC.取引先分類所属マスタ&#45;&gt;PUBLIC.取引先分類マスタ -->
<g id="edge3" class="edge">
<title>PUBLIC.取引先分類所属マスタ:r4&#45;&gt;PUBLIC.取引先分類マスタ:r5</title>
<path fill="none" stroke="black" stroke-dasharray="5,2" d="M391,-844.5C379.5,-844.5 374.2,-844.24 366.19,-844.1"/>
<polygon fill="black" stroke="black" points="356.22,-844.01 366.26,-839.6 360,-844.04 366.22,-844.1 366.22,-844.1 366.22,-844.1 360,-844.04 366.18,-848.6 356.22,-844.01"/>
</g>
<!-- PUBLIC.取引先分類所属マスタ&#45;&gt;PUBLIC.取引先分類マスタ -->
<g id="edge4" class="edge">
<title>PUBLIC.取引先分類所属マスタ:r6&#45;&gt;PUBLIC.取引先分類マスタ:r7</title>
<path fill="none" stroke="black" stroke-dasharray="5,2" d="M391,-823.5C379.5,-823.5 374.2,-823.24 366.19,-823.1"/>
<polygon fill="black" stroke="black" points="356.22,-823.01 366.26,-818.6 360,-823.04 366.22,-823.1 366.22,-823.1 366.22,-823.1 360,-823.04 366.18,-827.6 356.22,-823.01"/>
</g>
<!-- PUBLIC.支払データ -->
<g id="node11" class="node">
<title>PUBLIC.支払データ</title>
<polygon fill="#eee9bf" stroke="none" points="615.62,-316.5 615.62,-343.5 698.88,-343.5 698.88,-316.5 615.62,-316.5"/>
<polygon fill="#eedd82" stroke="none" points="615.62,-316.5 615.62,-343.5 698.88,-343.5 698.88,-316.5 615.62,-316.5"/>
<polygon fill="none" stroke="black" points="615.62,-316.5 615.62,-343.5 698.88,-343.5 698.88,-316.5 615.62,-316.5"/>
<text text-anchor="start" x="621.62" y="-325.2" font-family="Times,serif" font-weight="bold" font-size="14.00">支払データ</text>
</g>
<!-- PUBLIC.自動採番マスタ -->
<g id="node12" class="node">
<title>PUBLIC.自動採番マスタ</title>
<polygon fill="#eee9bf" stroke="none" points="601.38,-361.5 601.38,-388.5 713.12,-388.5 713.12,-361.5 601.38,-361.5"/>
<polygon fill="#eedd82" stroke="none" points="601.38,-361.5 601.38,-388.5 713.12,-388.5 713.12,-361.5 601.38,-361.5"/>
<polygon fill="none" stroke="black" points="601.38,-361.5 601.38,-388.5 713.12,-388.5 713.12,-361.5 601.38,-361.5"/>
<text text-anchor="start" x="607.38" y="-370.2" font-family="Times,serif" font-weight="bold" font-size="14.00">自動採番マスタ</text>
</g>
<!-- PUBLIC.受注データ -->
<g id="node13" class="node">
<title>PUBLIC.受注データ</title>
<polygon fill="#eee9bf" stroke="none" points="426.62,-1178 426.62,-1226 509.88,-1226 509.88,-1178 426.62,-1178"/>
<polygon fill="#eedd82" stroke="none" points="426.62,-1199 426.62,-1226 509.88,-1226 509.88,-1199 426.62,-1199"/>
<polygon fill="none" stroke="black" points="426.62,-1199 426.62,-1226 509.88,-1226 509.88,-1199 426.62,-1199"/>
<text text-anchor="start" x="432.62" y="-1207.7" font-family="Times,serif" font-weight="bold" font-size="14.00">受注データ</text>
<polygon fill="none" stroke="black" points="426.62,-1178 426.62,-1199 509.88,-1199 509.88,-1178 426.62,-1178"/>
<text text-anchor="start" x="429.62" y="-1182.7" font-family="Times,serif" font-size="14.00">受注番号</text>
</g>
<!-- PUBLIC.発注データ明細 -->
<g id="node14" class="node">
<title>PUBLIC.発注データ明細</title>
<polygon fill="#eee9bf" stroke="none" points="601.38,-561 601.38,-609 713.12,-609 713.12,-561 601.38,-561"/>
<polygon fill="#eedd82" stroke="none" points="601.38,-582 601.38,-609 713.12,-609 713.12,-582 601.38,-582"/>
<polygon fill="none" stroke="black" points="601.38,-582 601.38,-609 713.12,-609 713.12,-582 601.38,-582"/>
<text text-anchor="start" x="607.38" y="-590.7" font-family="Times,serif" font-weight="bold" font-size="14.00">発注データ明細</text>
<polygon fill="none" stroke="black" points="601.38,-561 601.38,-582 713.12,-582 713.12,-561 601.38,-561"/>
<text text-anchor="start" x="604.38" y="-565.7" font-family="Times,serif" font-size="14.00">発注番号</text>
</g>
<!-- PUBLIC.発注データ -->
<g id="node20" class="node">
<title>PUBLIC.発注データ</title>
<polygon fill="#eee9bf" stroke="none" points="426.62,-561 426.62,-609 509.88,-609 509.88,-561 426.62,-561"/>
<polygon fill="#eedd82" stroke="none" points="426.62,-582 426.62,-609 509.88,-609 509.88,-582 426.62,-582"/>
<polygon fill="none" stroke="black" points="426.62,-582 426.62,-609 509.88,-609 509.88,-582 426.62,-582"/>
<text text-anchor="start" x="432.62" y="-590.7" font-family="Times,serif" font-weight="bold" font-size="14.00">発注データ</text>
<polygon fill="none" stroke="black" points="426.62,-561 426.62,-582 509.88,-582 509.88,-561 426.62,-561"/>
<text text-anchor="start" x="429.62" y="-565.7" font-family="Times,serif" font-size="14.00">発注番号</text>
</g>
<!-- PUBLIC.発注データ明細&#45;&gt;PUBLIC.発注データ -->
<g id="edge23" class="edge">
<title>PUBLIC.発注データ明細:r35&#45;&gt;PUBLIC.発注データ:r36</title>
<path fill="none" stroke="black" stroke-dasharray="5,2" d="M600.38,-571.5C564.48,-571.5 552.88,-571.5 521.73,-571.5"/>
<polygon fill="black" stroke="black" points="512.09,-571.5 522.09,-567 515.88,-571.5 522.09,-571.5 522.09,-571.5 522.09,-571.5 515.88,-571.5 522.09,-576 512.09,-571.5"/>
</g>
<!-- PUBLIC.顧客マスタ -->
<g id="node15" class="node">
<title>PUBLIC.顧客マスタ</title>
<polygon fill="#eee9bf" stroke="none" points="426.62,-473.5 426.62,-542.5 509.88,-542.5 509.88,-473.5 426.62,-473.5"/>
<polygon fill="#eedd82" stroke="none" points="426.62,-515.5 426.62,-542.5 509.88,-542.5 509.88,-515.5 426.62,-515.5"/>
<polygon fill="none" stroke="black" points="426.62,-515.5 426.62,-542.5 509.88,-542.5 509.88,-515.5 426.62,-515.5"/>
<text text-anchor="start" x="432.62" y="-524.2" font-family="Times,serif" font-weight="bold" font-size="14.00">顧客マスタ</text>
<polygon fill="none" stroke="black" points="426.62,-494.5 426.62,-515.5 509.88,-515.5 509.88,-494.5 426.62,-494.5"/>
<text text-anchor="start" x="429.62" y="-499.2" font-family="Times,serif" font-size="14.00">顧客コード</text>
<polygon fill="none" stroke="black" points="426.62,-473.5 426.62,-494.5 509.88,-494.5 509.88,-473.5 426.62,-473.5"/>
<text text-anchor="start" x="429.62" y="-478.2" font-family="Times,serif" font-size="14.00">顧客枝番</text>
</g>
<!-- PUBLIC.顧客マスタ&#45;&gt;PUBLIC.取引先マスタ -->
<g id="edge12" class="edge">
<title>PUBLIC.顧客マスタ:r1&#45;&gt;PUBLIC.取引先マスタ:r18</title>
<path fill="none" stroke="black" stroke-dasharray="5,2" d="M425.62,-505C387.31,-505 375.04,-504.59 341.61,-504.51"/>
<polygon fill="black" stroke="black" points="331.72,-504.5 341.72,-500.01 335.5,-504.51 341.72,-504.51 341.72,-504.51 341.72,-504.51 335.5,-504.51 341.71,-509.01 331.72,-504.5"/>
</g>
<!-- PUBLIC.倉庫部門マスタ -->
<g id="node16" class="node">
<title>PUBLIC.倉庫部門マスタ</title>
<polygon fill="#eee9bf" stroke="none" points="601.38,-627 601.38,-717 713.12,-717 713.12,-627 601.38,-627"/>
<polygon fill="#eedd82" stroke="none" points="601.38,-690 601.38,-717 713.12,-717 713.12,-690 601.38,-690"/>
<polygon fill="none" stroke="black" points="601.38,-690 601.38,-717 713.12,-717 713.12,-690 601.38,-690"/>
<text text-anchor="start" x="607.38" y="-698.7" font-family="Times,serif" font-weight="bold" font-size="14.00">倉庫部門マスタ</text>
<polygon fill="none" stroke="black" points="601.38,-669 601.38,-690 713.12,-690 713.12,-669 601.38,-669"/>
<text text-anchor="start" x="604.38" y="-673.7" font-family="Times,serif" font-size="14.00">倉庫コード</text>
<polygon fill="none" stroke="black" points="601.38,-648 601.38,-669 713.12,-669 713.12,-648 601.38,-648"/>
<text text-anchor="start" x="604.38" y="-652.7" font-family="Times,serif" font-size="14.00">部門コード</text>
<polygon fill="none" stroke="black" points="601.38,-627 601.38,-648 713.12,-648 713.12,-627 601.38,-627"/>
<text text-anchor="start" x="604.38" y="-631.7" font-family="Times,serif" font-size="14.00">開始日</text>
</g>
<!-- PUBLIC.部門マスタ -->
<g id="node25" class="node">
<title>PUBLIC.部門マスタ</title>
<polygon fill="#eee9bf" stroke="none" points="426.62,-627.5 426.62,-696.5 509.88,-696.5 509.88,-627.5 426.62,-627.5"/>
<polygon fill="#eedd82" stroke="none" points="426.62,-669.5 426.62,-696.5 509.88,-696.5 509.88,-669.5 426.62,-669.5"/>
<polygon fill="none" stroke="black" points="426.62,-669.5 426.62,-696.5 509.88,-696.5 509.88,-669.5 426.62,-669.5"/>
<text text-anchor="start" x="432.62" y="-678.2" font-family="Times,serif" font-weight="bold" font-size="14.00">部門マスタ</text>
<polygon fill="none" stroke="black" points="426.62,-648.5 426.62,-669.5 509.88,-669.5 509.88,-648.5 426.62,-648.5"/>
<text text-anchor="start" x="429.62" y="-653.2" font-family="Times,serif" font-size="14.00">部門コード</text>
<polygon fill="none" stroke="black" points="426.62,-627.5 426.62,-648.5 509.88,-648.5 509.88,-627.5 426.62,-627.5"/>
<text text-anchor="start" x="429.62" y="-632.2" font-family="Times,serif" font-size="14.00">開始日</text>
</g>
<!-- PUBLIC.倉庫部門マスタ&#45;&gt;PUBLIC.部門マスタ -->
<g id="edge16" class="edge">
<title>PUBLIC.倉庫部門マスタ:r23&#45;&gt;PUBLIC.部門マスタ:r24</title>
<path fill="none" stroke="black" stroke-dasharray="5,2" d="M600.38,-658.5C564.48,-658.5 552.88,-658.91 521.73,-658.99"/>
<polygon fill="black" stroke="black" points="512.09,-659 522.09,-654.49 515.87,-658.99 522.09,-658.99 522.09,-658.99 522.09,-658.99 515.87,-658.99 522.1,-663.49 512.09,-659"/>
</g>
<!-- PUBLIC.倉庫部門マスタ&#45;&gt;PUBLIC.部門マスタ -->
<g id="edge17" class="edge">
<title>PUBLIC.倉庫部門マスタ:r25&#45;&gt;PUBLIC.部門マスタ:r26</title>
<path fill="none" stroke="black" stroke-dasharray="5,2" d="M600.38,-637.5C564.48,-637.5 552.88,-637.91 521.73,-637.99"/>
<polygon fill="black" stroke="black" points="512.09,-638 522.09,-633.49 515.87,-637.99 522.09,-637.99 522.09,-637.99 522.09,-637.99 515.87,-637.99 522.1,-642.49 512.09,-638"/>
</g>
<!-- PUBLIC.倉庫マスタ -->
<g id="node29" class="node">
<title>PUBLIC.倉庫マスタ</title>
<polygon fill="#eee9bf" stroke="none" points="426.62,-726 426.62,-774 509.88,-774 509.88,-726 426.62,-726"/>
<polygon fill="#eedd82" stroke="none" points="426.62,-747 426.62,-774 509.88,-774 509.88,-747 426.62,-747"/>
<polygon fill="none" stroke="black" points="426.62,-747 426.62,-774 509.88,-774 509.88,-747 426.62,-747"/>
<text text-anchor="start" x="432.62" y="-755.7" font-family="Times,serif" font-weight="bold" font-size="14.00">倉庫マスタ</text>
<polygon fill="none" stroke="black" points="426.62,-726 426.62,-747 509.88,-747 509.88,-726 426.62,-726"/>
<text text-anchor="start" x="429.62" y="-730.7" font-family="Times,serif" font-size="14.00">倉庫コード</text>
</g>
<!-- PUBLIC.倉庫部門マスタ&#45;&gt;PUBLIC.倉庫マスタ -->
<g id="edge9" class="edge">
<title>PUBLIC.倉庫部門マスタ:r14&#45;&gt;PUBLIC.倉庫マスタ:r15</title>
<path fill="none" stroke="black" stroke-dasharray="5,2" d="M600.38,-679.5C557.27,-679.5 557.59,-727.12 521.95,-735.31"/>
<polygon fill="black" stroke="black" points="512.09,-736.37 521.55,-730.83 515.85,-735.97 522.03,-735.3 522.03,-735.3 522.03,-735.3 515.85,-735.97 522.51,-739.77 512.09,-736.37"/>
</g>
<!-- PUBLIC.在庫データ -->
<g id="node18" class="node">
<title>PUBLIC.在庫データ</title>
<polygon fill="#eee9bf" stroke="none" points="615.62,-826 615.62,-874 698.88,-874 698.88,-826 615.62,-826"/>
<polygon fill="#eedd82" stroke="none" points="615.62,-847 615.62,-874 698.88,-874 698.88,-847 615.62,-847"/>
<polygon fill="none" stroke="black" points="615.62,-847 615.62,-874 698.88,-874 698.88,-847 615.62,-847"/>
<text text-anchor="start" x="621.62" y="-855.7" font-family="Times,serif" font-weight="bold" font-size="14.00">在庫データ</text>
<polygon fill="none" stroke="black" points="615.62,-826 615.62,-847 698.88,-847 698.88,-826 615.62,-826"/>
<text text-anchor="start" x="618.62" y="-830.7" font-family="Times,serif" font-size="14.00">倉庫コード</text>
</g>
<!-- PUBLIC.在庫データ&#45;&gt;PUBLIC.倉庫マスタ -->
<g id="edge11" class="edge">
<title>PUBLIC.在庫データ:r17&#45;&gt;PUBLIC.倉庫マスタ:r15</title>
<path fill="none" stroke="black" stroke-dasharray="5,2" d="M614.62,-836.5C554.58,-836.5 572.22,-748.61 521.89,-737.62"/>
<polygon fill="black" stroke="black" points="512.09,-736.62 522.49,-733.16 515.85,-737.01 522.04,-737.64 522.04,-737.64 522.04,-737.64 515.85,-737.01 521.58,-742.11 512.09,-736.62"/>
</g>
<!-- PUBLIC.出荷先マスタ -->
<g id="node19" class="node">
<title>PUBLIC.出荷先マスタ</title>
<polygon fill="#eee9bf" stroke="none" points="608.5,-473.5 608.5,-542.5 706,-542.5 706,-473.5 608.5,-473.5"/>
<polygon fill="#eedd82" stroke="none" points="608.5,-515.5 608.5,-542.5 706,-542.5 706,-515.5 608.5,-515.5"/>
<polygon fill="none" stroke="black" points="608.5,-515.5 608.5,-542.5 706,-542.5 706,-515.5 608.5,-515.5"/>
<text text-anchor="start" x="614.5" y="-524.2" font-family="Times,serif" font-weight="bold" font-size="14.00">出荷先マスタ</text>
<polygon fill="none" stroke="black" points="608.5,-494.5 608.5,-515.5 706,-515.5 706,-494.5 608.5,-494.5"/>
<text text-anchor="start" x="611.5" y="-499.2" font-family="Times,serif" font-size="14.00">顧客コード</text>
<polygon fill="none" stroke="black" points="608.5,-473.5 608.5,-494.5 706,-494.5 706,-473.5 608.5,-473.5"/>
<text text-anchor="start" x="611.5" y="-478.2" font-family="Times,serif" font-size="14.00">顧客枝番</text>
</g>
<!-- PUBLIC.出荷先マスタ&#45;&gt;PUBLIC.顧客マスタ -->
<g id="edge1" class="edge">
<title>PUBLIC.出荷先マスタ:r0&#45;&gt;PUBLIC.顧客マスタ:r1</title>
<path fill="none" stroke="black" stroke-dasharray="5,2" d="M607.5,-505C568.41,-505 556.01,-505 521.72,-505"/>
<polygon fill="black" stroke="black" points="512.09,-505 522.09,-500.5 515.88,-505 522.09,-505 522.09,-505 522.09,-505 515.88,-505 522.09,-509.5 512.09,-505"/>
</g>
<!-- PUBLIC.出荷先マスタ&#45;&gt;PUBLIC.顧客マスタ -->
<g id="edge2" class="edge">
<title>PUBLIC.出荷先マスタ:r2&#45;&gt;PUBLIC.顧客マスタ:r3</title>
<path fill="none" stroke="black" stroke-dasharray="5,2" d="M607.5,-484C568.41,-484 556.01,-484 521.72,-484"/>
<polygon fill="black" stroke="black" points="512.09,-484 522.09,-479.5 515.88,-484 522.09,-484 522.09,-484 522.09,-484 515.88,-484 522.09,-488.5 512.09,-484"/>
</g>
<!-- PUBLIC.請求データ -->
<g id="node21" class="node">
<title>PUBLIC.請求データ</title>
<polygon fill="#eee9bf" stroke="none" points="426.62,-1001 426.62,-1049 509.88,-1049 509.88,-1001 426.62,-1001"/>
<polygon fill="#eedd82" stroke="none" points="426.62,-1022 426.62,-1049 509.88,-1049 509.88,-1022 426.62,-1022"/>
<polygon fill="none" stroke="black" points="426.62,-1022 426.62,-1049 509.88,-1049 509.88,-1022 426.62,-1022"/>
<text text-anchor="start" x="432.62" y="-1030.7" font-family="Times,serif" font-weight="bold" font-size="14.00">請求データ</text>
<polygon fill="none" stroke="black" points="426.62,-1001 426.62,-1022 509.88,-1022 509.88,-1001 426.62,-1001"/>
<text text-anchor="start" x="429.62" y="-1005.7" font-family="Times,serif" font-size="14.00">請求番号</text>
</g>
<!-- PUBLIC.社員マスタ -->
<g id="node22" class="node">
<title>PUBLIC.社員マスタ</title>
<polygon fill="#eee9bf" stroke="none" points="615.62,-735.5 615.62,-762.5 698.88,-762.5 698.88,-735.5 615.62,-735.5"/>
<polygon fill="#eedd82" stroke="none" points="615.62,-735.5 615.62,-762.5 698.88,-762.5 698.88,-735.5 615.62,-735.5"/>
<polygon fill="none" stroke="black" points="615.62,-735.5 615.62,-762.5 698.88,-762.5 698.88,-735.5 615.62,-735.5"/>
<text text-anchor="start" x="621.62" y="-744.2" font-family="Times,serif" font-weight="bold" font-size="14.00">社員マスタ</text>
</g>
<!-- PUBLIC.入金口座マスタ -->
<g id="node23" class="node">
<title>PUBLIC.入金口座マスタ</title>
<polygon fill="#eee9bf" stroke="none" points="601.38,-780.5 601.38,-807.5 713.12,-807.5 713.12,-780.5 601.38,-780.5"/>
<polygon fill="#eedd82" stroke="none" points="601.38,-780.5 601.38,-807.5 713.12,-807.5 713.12,-780.5 601.38,-780.5"/>
<polygon fill="none" stroke="black" points="601.38,-780.5 601.38,-807.5 713.12,-807.5 713.12,-780.5 601.38,-780.5"/>
<text text-anchor="start" x="607.38" y="-789.2" font-family="Times,serif" font-weight="bold" font-size="14.00">入金口座マスタ</text>
</g>
<!-- PUBLIC.仕入データ明細 -->
<g id="node24" class="node">
<title>PUBLIC.仕入データ明細</title>
<polygon fill="#eee9bf" stroke="none" points="601.38,-958 601.38,-1006 713.12,-1006 713.12,-958 601.38,-958"/>
<polygon fill="#eedd82" stroke="none" points="601.38,-979 601.38,-1006 713.12,-1006 713.12,-979 601.38,-979"/>
<polygon fill="none" stroke="black" points="601.38,-979 601.38,-1006 713.12,-1006 713.12,-979 601.38,-979"/>
<text text-anchor="start" x="607.38" y="-987.7" font-family="Times,serif" font-weight="bold" font-size="14.00">仕入データ明細</text>
<polygon fill="none" stroke="black" points="601.38,-958 601.38,-979 713.12,-979 713.12,-958 601.38,-958"/>
<text text-anchor="start" x="604.38" y="-962.7" font-family="Times,serif" font-size="14.00">仕入番号</text>
</g>
<!-- PUBLIC.仕入データ -->
<g id="node37" class="node">
<title>PUBLIC.仕入データ</title>
<polygon fill="#eee9bf" stroke="none" points="426.62,-935 426.62,-983 509.88,-983 509.88,-935 426.62,-935"/>
<polygon fill="#eedd82" stroke="none" points="426.62,-956 426.62,-983 509.88,-983 509.88,-956 426.62,-956"/>
<polygon fill="none" stroke="black" points="426.62,-956 426.62,-983 509.88,-983 509.88,-956 426.62,-956"/>
<text text-anchor="start" x="432.62" y="-964.7" font-family="Times,serif" font-weight="bold" font-size="14.00">仕入データ</text>
<polygon fill="none" stroke="black" points="426.62,-935 426.62,-956 509.88,-956 509.88,-935 426.62,-935"/>
<text text-anchor="start" x="429.62" y="-939.7" font-family="Times,serif" font-size="14.00">仕入番号</text>
</g>
<!-- PUBLIC.仕入データ明細&#45;&gt;PUBLIC.仕入データ -->
<g id="edge18" class="edge">
<title>PUBLIC.仕入データ明細:r27&#45;&gt;PUBLIC.仕入データ:r28</title>
<path fill="none" stroke="black" stroke-dasharray="5,2" d="M600.38,-968.5C563.32,-968.5 553.7,-949.77 522.01,-946.12"/>
<polygon fill="black" stroke="black" points="512.09,-945.57 522.32,-941.63 515.87,-945.78 522.08,-946.12 522.08,-946.12 522.08,-946.12 515.87,-945.78 521.83,-950.61 512.09,-945.57"/>
</g>
<!-- PUBLIC.請求データ明細 -->
<g id="node26" class="node">
<title>PUBLIC.請求データ明細</title>
<polygon fill="#eee9bf" stroke="none" points="601.38,-1024 601.38,-1114 713.12,-1114 713.12,-1024 601.38,-1024"/>
<polygon fill="#eedd82" stroke="none" points="601.38,-1087 601.38,-1114 713.12,-1114 713.12,-1087 601.38,-1087"/>
<polygon fill="none" stroke="black" points="601.38,-1087 601.38,-1114 713.12,-1114 713.12,-1087 601.38,-1087"/>
<text text-anchor="start" x="607.38" y="-1095.7" font-family="Times,serif" font-weight="bold" font-size="14.00">請求データ明細</text>
<polygon fill="none" stroke="black" points="601.38,-1066 601.38,-1087 713.12,-1087 713.12,-1066 601.38,-1066"/>
<text text-anchor="start" x="604.38" y="-1070.7" font-family="Times,serif" font-size="14.00">売上番号</text>
<polygon fill="none" stroke="black" points="601.38,-1045 601.38,-1066 713.12,-1066 713.12,-1045 601.38,-1045"/>
<text text-anchor="start" x="604.38" y="-1049.7" font-family="Times,serif" font-size="14.00">売上行番号</text>
<polygon fill="none" stroke="black" points="601.38,-1024 601.38,-1045 713.12,-1045 713.12,-1024 601.38,-1024"/>
<text text-anchor="start" x="604.38" y="-1028.7" font-family="Times,serif" font-size="14.00">請求番号</text>
</g>
<!-- PUBLIC.請求データ明細&#45;&gt;PUBLIC.請求データ -->
<g id="edge22" class="edge">
<title>PUBLIC.請求データ明細:r33&#45;&gt;PUBLIC.請求データ:r34</title>
<path fill="none" stroke="black" stroke-dasharray="5,2" d="M600.38,-1034.5C563.32,-1034.5 553.7,-1015.77 522.01,-1012.12"/>
<polygon fill="black" stroke="black" points="512.09,-1011.57 522.32,-1007.63 515.87,-1011.78 522.08,-1012.12 522.08,-1012.12 522.08,-1012.12 515.87,-1011.78 521.83,-1016.61 512.09,-1011.57"/>
</g>
<!-- PUBLIC.売上データ明細 -->
<g id="node30" class="node">
<title>PUBLIC.売上データ明細</title>
<polygon fill="#eee9bf" stroke="none" points="412.38,-1067.5 412.38,-1136.5 524.12,-1136.5 524.12,-1067.5 412.38,-1067.5"/>
<polygon fill="#eedd82" stroke="none" points="412.38,-1109.5 412.38,-1136.5 524.12,-1136.5 524.12,-1109.5 412.38,-1109.5"/>
<polygon fill="none" stroke="black" points="412.38,-1109.5 412.38,-1136.5 524.12,-1136.5 524.12,-1109.5 412.38,-1109.5"/>
<text text-anchor="start" x="418.38" y="-1118.2" font-family="Times,serif" font-weight="bold" font-size="14.00">売上データ明細</text>
<polygon fill="none" stroke="black" points="412.38,-1088.5 412.38,-1109.5 524.12,-1109.5 524.12,-1088.5 412.38,-1088.5"/>
<text text-anchor="start" x="415.38" y="-1093.2" font-family="Times,serif" font-size="14.00">売上番号</text>
<polygon fill="none" stroke="black" points="412.38,-1067.5 412.38,-1088.5 524.12,-1088.5 524.12,-1067.5 412.38,-1067.5"/>
<text text-anchor="start" x="415.38" y="-1072.2" font-family="Times,serif" font-size="14.00">売上行番号</text>
</g>
<!-- PUBLIC.請求データ明細&#45;&gt;PUBLIC.売上データ明細 -->
<g id="edge20" class="edge">
<title>PUBLIC.請求データ明細:r30&#45;&gt;PUBLIC.売上データ明細:r21</title>
<path fill="none" stroke="black" stroke-dasharray="5,2" d="M600.38,-1076.5C569.56,-1076.5 561.71,-1094.04 536.28,-1098.15"/>
<polygon fill="black" stroke="black" points="526.34,-1098.91 535.97,-1093.66 530.11,-1098.62 536.31,-1098.14 536.31,-1098.14 536.31,-1098.14 530.11,-1098.62 536.65,-1102.63 526.34,-1098.91"/>
</g>
<!-- PUBLIC.請求データ明細&#45;&gt;PUBLIC.売上データ明細 -->
<g id="edge21" class="edge">
<title>PUBLIC.請求データ明細:r31&#45;&gt;PUBLIC.売上データ明細:r32</title>
<path fill="none" stroke="black" stroke-dasharray="5,2" d="M600.38,-1055.5C569.56,-1055.5 561.71,-1073.04 536.28,-1077.15"/>
<polygon fill="black" stroke="black" points="526.34,-1077.91 535.97,-1072.66 530.11,-1077.62 536.31,-1077.14 536.31,-1077.14 536.31,-1077.14 530.11,-1077.62 536.65,-1081.63 526.34,-1077.91"/>
</g>
<!-- PUBLIC.棚番マスタ -->
<g id="node27" class="node">
<title>PUBLIC.棚番マスタ</title>
<polygon fill="#eee9bf" stroke="none" points="615.62,-892 615.62,-940 698.88,-940 698.88,-892 615.62,-892"/>
<polygon fill="#eedd82" stroke="none" points="615.62,-913 615.62,-940 698.88,-940 698.88,-913 615.62,-913"/>
<polygon fill="none" stroke="black" points="615.62,-913 615.62,-940 698.88,-940 698.88,-913 615.62,-913"/>
<text text-anchor="start" x="621.62" y="-921.7" font-family="Times,serif" font-weight="bold" font-size="14.00">棚番マスタ</text>
<polygon fill="none" stroke="black" points="615.62,-892 615.62,-913 698.88,-913 698.88,-892 615.62,-892"/>
<text text-anchor="start" x="618.62" y="-896.7" font-family="Times,serif" font-size="14.00">倉庫コード</text>
</g>
<!-- PUBLIC.棚番マスタ&#45;&gt;PUBLIC.倉庫マスタ -->
<g id="edge10" class="edge">
<title>PUBLIC.棚番マスタ:r16&#45;&gt;PUBLIC.倉庫マスタ:r15</title>
<path fill="none" stroke="black" stroke-dasharray="5,2" d="M614.62,-902.5C531.53,-902.5 591.88,-751.08 521.68,-737.47"/>
<polygon fill="black" stroke="black" points="512.09,-736.61 522.45,-733.03 515.85,-736.95 522.05,-737.51 522.05,-737.51 522.05,-737.51 515.85,-736.95 521.64,-741.99 512.09,-736.61"/>
</g>
<!-- PUBLIC.代替商品 -->
<g id="node28" class="node">
<title>PUBLIC.代替商品</title>
<polygon fill="#eee9bf" stroke="none" points="618.62,-407 618.62,-455 695.88,-455 695.88,-407 618.62,-407"/>
<polygon fill="#eedd82" stroke="none" points="618.62,-428 618.62,-455 695.88,-455 695.88,-428 618.62,-428"/>
<polygon fill="none" stroke="black" points="618.62,-428 618.62,-455 695.88,-455 695.88,-428 618.62,-428"/>
<text text-anchor="start" x="628.75" y="-436.7" font-family="Times,serif" font-weight="bold" font-size="14.00">代替商品</text>
<polygon fill="none" stroke="black" points="618.62,-407 618.62,-428 695.88,-428 695.88,-407 618.62,-407"/>
<text text-anchor="start" x="621.62" y="-411.7" font-family="Times,serif" font-size="14.00">商品コード</text>
</g>
<!-- PUBLIC.代替商品&#45;&gt;PUBLIC.商品マスタ -->
<g id="edge8" class="edge">
<title>PUBLIC.代替商品:r13&#45;&gt;PUBLIC.商品マスタ:r11</title>
<path fill="none" stroke="black" stroke-dasharray="5,2" d="M617.62,-417.5C562.88,-417.5 568.49,-349.8 522,-340.54"/>
<polygon fill="black" stroke="black" points="512.09,-339.61 522.46,-336.07 515.85,-339.97 522.04,-340.55 522.04,-340.55 522.04,-340.55 515.85,-339.97 521.62,-345.03 512.09,-339.61"/>
</g>
<!-- PUBLIC.売上データ -->
<g id="node33" class="node">
<title>PUBLIC.売上データ</title>
<polygon fill="#eee9bf" stroke="none" points="239.12,-1088 239.12,-1136 322.38,-1136 322.38,-1088 239.12,-1088"/>
<polygon fill="#eedd82" stroke="none" points="239.12,-1109 239.12,-1136 322.38,-1136 322.38,-1109 239.12,-1109"/>
<polygon fill="none" stroke="black" points="239.12,-1109 239.12,-1136 322.38,-1136 322.38,-1109 239.12,-1109"/>
<text text-anchor="start" x="245.12" y="-1117.7" font-family="Times,serif" font-weight="bold" font-size="14.00">売上データ</text>
<polygon fill="none" stroke="black" points="239.12,-1088 239.12,-1109 322.38,-1109 322.38,-1088 239.12,-1088"/>
<text text-anchor="start" x="242.12" y="-1092.7" font-family="Times,serif" font-size="14.00">売上番号</text>
</g>
<!-- PUBLIC.売上データ明細&#45;&gt;PUBLIC.売上データ -->
<g id="edge15" class="edge">
<title>PUBLIC.売上データ明細:r21&#45;&gt;PUBLIC.売上データ:r22</title>
<path fill="none" stroke="black" stroke-dasharray="5,2" d="M411.38,-1099C376.24,-1099 364.78,-1098.6 334.45,-1098.51"/>
<polygon fill="black" stroke="black" points="324.59,-1098.5 334.6,-1094.01 328.37,-1098.51 334.59,-1098.51 334.59,-1098.51 334.59,-1098.51 328.37,-1098.51 334.59,-1103.01 324.59,-1098.5"/>
</g>
<!-- PUBLIC.地域マスタ -->
<g id="node31" class="node">
<title>PUBLIC.地域マスタ</title>
<polygon fill="#eee9bf" stroke="none" points="615.62,-1132.5 615.62,-1159.5 698.88,-1159.5 698.88,-1132.5 615.62,-1132.5"/>
<polygon fill="#eedd82" stroke="none" points="615.62,-1132.5 615.62,-1159.5 698.88,-1159.5 698.88,-1132.5 615.62,-1132.5"/>
<polygon fill="none" stroke="black" points="615.62,-1132.5 615.62,-1159.5 698.88,-1159.5 698.88,-1132.5 615.62,-1132.5"/>
<text text-anchor="start" x="621.62" y="-1141.2" font-family="Times,serif" font-weight="bold" font-size="14.00">地域マスタ</text>
</g>
<!-- PUBLIC.受注データ明細 -->
<g id="node32" class="node">
<title>PUBLIC.受注データ明細</title>
<polygon fill="#eee9bf" stroke="none" points="601.38,-1178 601.38,-1226 713.12,-1226 713.12,-1178 601.38,-1178"/>
<polygon fill="#eedd82" stroke="none" points="601.38,-1199 601.38,-1226 713.12,-1226 713.12,-1199 601.38,-1199"/>
<polygon fill="none" stroke="black" points="601.38,-1199 601.38,-1226 713.12,-1226 713.12,-1199 601.38,-1199"/>
<text text-anchor="start" x="607.38" y="-1207.7" font-family="Times,serif" font-weight="bold" font-size="14.00">受注データ明細</text>
<polygon fill="none" stroke="black" points="601.38,-1178 601.38,-1199 713.12,-1199 713.12,-1178 601.38,-1178"/>
<text text-anchor="start" x="604.38" y="-1182.7" font-family="Times,serif" font-size="14.00">受注番号</text>
</g>
<!-- PUBLIC.受注データ明細&#45;&gt;PUBLIC.受注データ -->
<g id="edge5" class="edge">
<title>PUBLIC.受注データ明細:r8&#45;&gt;PUBLIC.受注データ:r9</title>
<path fill="none" stroke="black" stroke-dasharray="5,2" d="M600.38,-1188.5C564.48,-1188.5 552.88,-1188.5 521.73,-1188.5"/>
<polygon fill="black" stroke="black" points="512.09,-1188.5 522.09,-1184 515.88,-1188.5 522.09,-1188.5 522.09,-1188.5 522.09,-1188.5 515.88,-1188.5 522.09,-1193 512.09,-1188.5"/>
</g>
<!-- PUBLIC.個人客マスタ -->
<g id="node34" class="node">
<title>PUBLIC.個人客マスタ</title>
<polygon fill="#eee9bf" stroke="none" points="608.5,-1244.5 608.5,-1271.5 706,-1271.5 706,-1244.5 608.5,-1244.5"/>
<polygon fill="#eedd82" stroke="none" points="608.5,-1244.5 608.5,-1271.5 706,-1271.5 706,-1244.5 608.5,-1244.5"/>
<polygon fill="none" stroke="black" points="608.5,-1244.5 608.5,-1271.5 706,-1271.5 706,-1244.5 608.5,-1244.5"/>
<text text-anchor="start" x="614.5" y="-1253.2" font-family="Times,serif" font-weight="bold" font-size="14.00">個人客マスタ</text>
</g>
<!-- PUBLIC.flyway_schema_history -->
<g id="node35" class="node">
<title>PUBLIC.flyway_schema_history</title>
<polygon fill="#eee9bf" stroke="none" points="583.38,-1289.75 583.38,-1318.25 731.12,-1318.25 731.12,-1289.75 583.38,-1289.75"/>
<polygon fill="#eedd82" stroke="none" points="583.38,-1289.75 583.38,-1318.25 731.12,-1318.25 731.12,-1289.75 583.38,-1289.75"/>
<polygon fill="none" stroke="black" points="583.38,-1289.75 583.38,-1318.25 731.12,-1318.25 731.12,-1289.75 583.38,-1289.75"/>
<text text-anchor="start" x="589.38" y="-1299.95" font-family="Times,serif" font-weight="bold" font-size="14.00">flyway_schema_history</text>
</g>
<!-- PUBLIC.商品分類マスタ -->
<g id="node36" class="node">
<title>PUBLIC.商品分類マスタ</title>
<polygon fill="#eee9bf" stroke="none" points="601.38,-1336.5 601.38,-1363.5 713.12,-1363.5 713.12,-1336.5 601.38,-1336.5"/>
<polygon fill="#eedd82" stroke="none" points="601.38,-1336.5 601.38,-1363.5 713.12,-1363.5 713.12,-1336.5 601.38,-1336.5"/>
<polygon fill="none" stroke="black" points="601.38,-1336.5 601.38,-1363.5 713.12,-1363.5 713.12,-1336.5 601.38,-1336.5"/>
<text text-anchor="start" x="607.38" y="-1345.2" font-family="Times,serif" font-weight="bold" font-size="14.00">商品分類マスタ</text>
</g>
<!-- PUBLIC.入金データ -->
<g id="node38" class="node">
<title>PUBLIC.入金データ</title>
<polygon fill="#eee9bf" stroke="none" points="615.62,-1381.5 615.62,-1408.5 698.88,-1408.5 698.88,-1381.5 615.62,-1381.5"/>
<polygon fill="#eedd82" stroke="none" points="615.62,-1381.5 615.62,-1408.5 698.88,-1408.5 698.88,-1381.5 615.62,-1381.5"/>
<polygon fill="none" stroke="black" points="615.62,-1381.5 615.62,-1408.5 698.88,-1408.5 698.88,-1381.5 615.62,-1381.5"/>
<text text-anchor="start" x="621.62" y="-1390.2" font-family="Times,serif" font-weight="bold" font-size="14.00">入金データ</text>
</g>
</g>
</svg>
