<?xml version="1.0" encoding="UTF-8" standalone="no"?>
<!DOCTYPE svg PUBLIC "-//W3C//DTD SVG 1.1//EN"
 "http://www.w3.org/Graphics/SVG/1.1/DTD/svg11.dtd">
<!-- Generated by graphviz version 12.2.0 (20241103.1931)
 -->
<!-- Title: パッケージ関連図 Pages: 1 -->
<svg width="601pt" height="471pt"
 viewBox="0.00 0.00 600.74 471.38" xmlns="http://www.w3.org/2000/svg" xmlns:xlink="http://www.w3.org/1999/xlink">
<g id="graph0" class="graph" transform="scale(1 1) rotate(0) translate(4 467.38)">
<title>パッケージ関連図</title>
<polygon fill="white" stroke="none" points="-4,4 -4,-467.38 596.74,-467.38 596.74,4 -4,4"/>
<text text-anchor="middle" x="296.37" y="-4.95" font-family="Times New Roman,serif" font-size="14.00">パッケージ関連図</text>
<g id="clust1" class="cluster">
<title>cluster_com.example.sms.domain.type</title>
<polygon fill="lemonchiffon" stroke="#eedd82" stroke-width="2" points="8,-30.25 8,-200.75 342,-200.75 342,-30.25 8,-30.25"/>
<text text-anchor="middle" x="175" y="-183.45" font-family="Times New Roman,serif" font-size="14.00">ドメインモデル(基本型)</text>
<text text-anchor="middle" x="175" y="-166.95" font-family="Times New Roman,serif" font-size="14.00">type</text>
</g>
<g id="clust2" class="cluster">
<title>cluster_com.example.sms.domain.model</title>
<polygon fill="lemonchiffon" stroke="#eedd82" stroke-width="2" points="350,-105 350,-455.38 547,-455.38 547,-105 350,-105"/>
<text text-anchor="middle" x="448.5" y="-438.07" font-family="Times New Roman,serif" font-size="14.00">ドメインモデル(複合型)</text>
<text text-anchor="middle" x="448.5" y="-421.57" font-family="Times New Roman,serif" font-size="14.00">model</text>
</g>
<!-- summary -->
<g id="node1" class="node">
<title>summary</title>
<polygon fill="none" stroke="black" points="336,-415.75 152,-415.75 152,-358.25 342,-358.25 342,-409.75 336,-415.75"/>
<polyline fill="none" stroke="black" points="336,-415.75 336,-409.75"/>
<polyline fill="none" stroke="black" points="342,-409.75 336,-409.75"/>
<text text-anchor="start" x="160" y="-398.45" font-family="Times New Roman,serif" font-size="14.00">root: com.example.sms.domain</text>
<text text-anchor="start" x="160" y="-381.95" font-family="Times New Roman,serif" font-size="14.00">パッケージ数: 10</text>
<text text-anchor="start" x="160" y="-365.45" font-family="Times New Roman,serif" font-size="14.00">関連数: 18</text>
</g>
<!-- com.example.sms.domain.model.procurement -->
<g id="node2" class="node">
<title>com.example.sms.domain.model.procurement</title>
<g id="a_node2"><a xlink:href="./domain.html#com.example.sms.domain.model.procurement" xlink:title="調達\nprocurement">
<polygon fill="#eedd82" stroke="black" points="448.5,-406.38 363.5,-406.38 363.5,-367.62 448.5,-367.62 448.5,-406.38"/>
<text text-anchor="middle" x="406" y="-389.07" font-family="Times New Roman,serif" font-size="14.00">調達</text>
<text text-anchor="middle" x="406" y="-374.82" font-family="Times New Roman,serif" font-size="14.00">procurement</text>
</a>
</g>
</g>
<!-- com.example.sms.domain.model.sales -->
<g id="node3" class="node">
<title>com.example.sms.domain.model.sales</title>
<g id="a_node3"><a xlink:href="./domain.html#com.example.sms.domain.model.sales" xlink:title="販売\nsales">
<polygon fill="#eedd82" stroke="black" points="433,-322.25 379,-322.25 379,-283.5 433,-283.5 433,-322.25"/>
<text text-anchor="middle" x="406" y="-304.95" font-family="Times New Roman,serif" font-size="14.00">販売</text>
<text text-anchor="middle" x="406" y="-290.7" font-family="Times New Roman,serif" font-size="14.00">sales</text>
</a>
</g>
</g>
<!-- com.example.sms.domain.model.procurement&#45;&gt;com.example.sms.domain.model.sales -->
<g id="edge1" class="edge">
<title>com.example.sms.domain.model.procurement&#45;&gt;com.example.sms.domain.model.sales</title>
<path fill="none" stroke="black" d="M406,-367.36C406,-357.56 406,-345.3 406,-334.18"/>
<polygon fill="black" stroke="black" points="409.5,-334.23 406,-324.23 402.5,-334.23 409.5,-334.23"/>
</g>
<!-- com.example.sms.domain.model.master -->
<g id="node4" class="node">
<title>com.example.sms.domain.model.master</title>
<g id="a_node4"><a xlink:href="./domain.html#com.example.sms.domain.model.master" xlink:title="マスタ\nmaster">
<polygon fill="#eedd82" stroke="black" points="425.88,-247.5 358.12,-247.5 358.12,-208.75 425.88,-208.75 425.88,-247.5"/>
<text text-anchor="middle" x="392" y="-230.2" font-family="Times New Roman,serif" font-size="14.00">マスタ</text>
<text text-anchor="middle" x="392" y="-215.95" font-family="Times New Roman,serif" font-size="14.00">master</text>
</a>
</g>
</g>
<!-- com.example.sms.domain.model.procurement&#45;&gt;com.example.sms.domain.model.master -->
<g id="edge15" class="edge">
<title>com.example.sms.domain.model.procurement&#45;&gt;com.example.sms.domain.model.master</title>
<path fill="none" stroke="black" d="M392.03,-367.31C383.85,-355.17 374.3,-338.6 370,-322.25 365.62,-305.59 366.71,-300.4 370,-283.5 371.66,-274.98 374.65,-266.1 377.91,-258.05"/>
<polygon fill="black" stroke="black" points="381.03,-259.65 381.81,-249.09 374.61,-256.86 381.03,-259.65"/>
</g>
<!-- com.example.sms.domain.type.quantity -->
<g id="node6" class="node">
<title>com.example.sms.domain.type.quantity</title>
<g id="a_node6"><a xlink:href="./domain.html#com.example.sms.domain.type.quantity" xlink:title="数量\nquantity">
<polygon fill="#eedd82" stroke="black" points="334.12,-77 273.88,-77 273.88,-38.25 334.12,-38.25 334.12,-77"/>
<text text-anchor="middle" x="304" y="-59.7" font-family="Times New Roman,serif" font-size="14.00">数量</text>
<text text-anchor="middle" x="304" y="-45.45" font-family="Times New Roman,serif" font-size="14.00">quantity</text>
</a>
</g>
</g>
<!-- com.example.sms.domain.model.procurement&#45;&gt;com.example.sms.domain.type.quantity -->
<g id="edge4" class="edge">
<title>com.example.sms.domain.model.procurement&#45;&gt;com.example.sms.domain.type.quantity</title>
<path fill="none" stroke="black" d="M448.89,-379.46C482.2,-371.89 526.27,-355.83 548,-322.25 580.33,-272.29 639.99,-229.92 524,-105 500.27,-79.44 402.48,-66.97 345.58,-61.77"/>
<polygon fill="black" stroke="black" points="346.22,-58.31 335.95,-60.92 345.61,-65.28 346.22,-58.31"/>
</g>
<!-- com.example.sms.domain.type.money -->
<g id="node7" class="node">
<title>com.example.sms.domain.type.money</title>
<g id="a_node7"><a xlink:href="./domain.html#com.example.sms.domain.type.money" xlink:title="通貨\nmoney">
<polygon fill="#eedd82" stroke="black" points="70,-151.75 16,-151.75 16,-113 70,-113 70,-151.75"/>
<text text-anchor="middle" x="43" y="-134.45" font-family="Times New Roman,serif" font-size="14.00">通貨</text>
<text text-anchor="middle" x="43" y="-120.2" font-family="Times New Roman,serif" font-size="14.00">money</text>
</a>
</g>
</g>
<!-- com.example.sms.domain.model.procurement&#45;&gt;com.example.sms.domain.type.money -->
<g id="edge5" class="edge">
<title>com.example.sms.domain.model.procurement&#45;&gt;com.example.sms.domain.type.money</title>
<path fill="none" stroke="black" d="M370.5,-367.25C290.84,-324.96 102.96,-224.05 80,-200.75 69.24,-189.83 60.69,-175.15 54.53,-162.28"/>
<polygon fill="black" stroke="black" points="57.83,-161.09 50.54,-153.4 51.44,-163.96 57.83,-161.09"/>
</g>
<!-- com.example.sms.domain.model.system -->
<g id="node8" class="node">
<title>com.example.sms.domain.model.system</title>
<g id="a_node8"><a xlink:href="./domain.html#com.example.sms.domain.model.system" xlink:title="システム\nsystem">
<polygon fill="#eedd82" stroke="black" points="443.5,-151.75 358.5,-151.75 358.5,-113 443.5,-113 443.5,-151.75"/>
<text text-anchor="middle" x="401" y="-134.45" font-family="Times New Roman,serif" font-size="14.00">システム</text>
<text text-anchor="middle" x="401" y="-120.2" font-family="Times New Roman,serif" font-size="14.00">system</text>
</a>
</g>
</g>
<!-- com.example.sms.domain.model.procurement&#45;&gt;com.example.sms.domain.model.system -->
<g id="edge6" class="edge">
<title>com.example.sms.domain.model.procurement&#45;&gt;com.example.sms.domain.model.system</title>
<path fill="none" stroke="black" d="M419.97,-367.31C428.15,-355.17 437.7,-338.6 442,-322.25 445.56,-308.7 446.31,-229.49 441,-208.75 436.78,-192.28 428.31,-175.43 420.24,-161.85"/>
<polygon fill="black" stroke="black" points="423.28,-160.1 415.03,-153.45 417.33,-163.79 423.28,-160.1"/>
</g>
<!-- com.example.sms.domain.model.sales&#45;&gt;com.example.sms.domain.model.master -->
<g id="edge11" class="edge">
<title>com.example.sms.domain.model.sales&#45;&gt;com.example.sms.domain.model.master</title>
<path fill="none" stroke="black" d="M402.39,-283.14C400.97,-275.76 399.31,-267.1 397.73,-258.9"/>
<polygon fill="black" stroke="black" points="401.21,-258.44 395.88,-249.28 394.33,-259.76 401.21,-258.44"/>
</g>
<!-- com.example.sms.domain.model.sales&#45;&gt;com.example.sms.domain.type.quantity -->
<g id="edge8" class="edge">
<title>com.example.sms.domain.model.sales&#45;&gt;com.example.sms.domain.type.quantity</title>
<path fill="none" stroke="black" d="M423.36,-283.23C455.89,-245.99 519.02,-161.15 476,-105 460.26,-84.45 391.54,-70.94 345.87,-64.06"/>
<polygon fill="black" stroke="black" points="346.41,-60.6 336.01,-62.63 345.41,-67.53 346.41,-60.6"/>
</g>
<!-- com.example.sms.domain.model.sales&#45;&gt;com.example.sms.domain.type.money -->
<g id="edge18" class="edge">
<title>com.example.sms.domain.model.sales&#45;&gt;com.example.sms.domain.type.money</title>
<path fill="none" stroke="black" d="M378.54,-287.18C337.07,-265.77 255.4,-226.62 181,-208.75 159.11,-203.49 98.91,-212.97 80,-200.75 66.56,-192.06 57.59,-176.73 51.85,-162.88"/>
<polygon fill="black" stroke="black" points="55.2,-161.83 48.45,-153.67 48.63,-164.26 55.2,-161.83"/>
</g>
<!-- com.example.sms.domain.model.sales&#45;&gt;com.example.sms.domain.model.system -->
<g id="edge17" class="edge">
<title>com.example.sms.domain.model.sales&#45;&gt;com.example.sms.domain.model.system</title>
<path fill="none" stroke="black" d="M418.92,-283.19C425.1,-273.11 431.83,-260.16 435,-247.5 439.18,-230.79 438.62,-225.59 435,-208.75 431.55,-192.69 424.39,-175.93 417.53,-162.3"/>
<polygon fill="black" stroke="black" points="420.63,-160.68 412.87,-153.46 414.43,-163.94 420.63,-160.68"/>
</g>
<!-- com.example.sms.domain.type.mail -->
<g id="node5" class="node">
<title>com.example.sms.domain.type.mail</title>
<g id="a_node5"><a xlink:href="./domain.html#com.example.sms.domain.type.mail" xlink:title="メール\nmail">
<polygon fill="#eedd82" stroke="black" points="333.88,-151.75 266.12,-151.75 266.12,-113 333.88,-113 333.88,-151.75"/>
<text text-anchor="middle" x="300" y="-134.45" font-family="Times New Roman,serif" font-size="14.00">メール</text>
<text text-anchor="middle" x="300" y="-120.2" font-family="Times New Roman,serif" font-size="14.00">mail</text>
</a>
</g>
</g>
<!-- com.example.sms.domain.model.master&#45;&gt;com.example.sms.domain.type.mail -->
<g id="edge2" class="edge">
<title>com.example.sms.domain.model.master&#45;&gt;com.example.sms.domain.type.mail</title>
<path fill="none" stroke="black" d="M358.09,-210.08C353.81,-207.25 349.65,-204.12 346,-200.75 334.02,-189.67 323.51,-174.92 315.57,-162.05"/>
<polygon fill="black" stroke="black" points="318.64,-160.36 310.54,-153.53 312.61,-163.92 318.64,-160.36"/>
</g>
<!-- com.example.sms.domain.model.master&#45;&gt;com.example.sms.domain.type.quantity -->
<g id="edge3" class="edge">
<title>com.example.sms.domain.model.master&#45;&gt;com.example.sms.domain.type.quantity</title>
<path fill="none" stroke="black" d="M426.25,-220.06C436.61,-216.16 446.85,-210.1 453,-200.75 476.37,-165.19 478.23,-139.27 453,-105 428.61,-71.87 380.74,-61.73 345.82,-58.96"/>
<polygon fill="black" stroke="black" points="346.23,-55.47 336.04,-58.37 345.81,-62.46 346.23,-55.47"/>
</g>
<!-- com.example.sms.domain.model.master&#45;&gt;com.example.sms.domain.type.money -->
<g id="edge16" class="edge">
<title>com.example.sms.domain.model.master&#45;&gt;com.example.sms.domain.type.money</title>
<path fill="none" stroke="black" d="M357.65,-220.31C335.79,-216.25 306.84,-211.39 281,-208.75 258.76,-206.48 99.01,-212.51 80,-200.75 66.3,-192.27 57.29,-176.81 51.6,-162.83"/>
<polygon fill="black" stroke="black" points="54.93,-161.74 48.23,-153.52 48.34,-164.12 54.93,-161.74"/>
</g>
<!-- com.example.sms.domain.model.master&#45;&gt;com.example.sms.domain.model.system -->
<g id="edge13" class="edge">
<title>com.example.sms.domain.model.master&#45;&gt;com.example.sms.domain.model.system</title>
<path fill="none" stroke="black" d="M393.78,-208.6C395.02,-195.72 396.69,-178.26 398.12,-163.4"/>
<polygon fill="black" stroke="black" points="401.58,-163.97 399.05,-153.69 394.61,-163.31 401.58,-163.97"/>
</g>
<!-- com.example.sms.domain.type.phone -->
<g id="node9" class="node">
<title>com.example.sms.domain.type.phone</title>
<g id="a_node9"><a xlink:href="./domain.html#com.example.sms.domain.type.phone" xlink:title="電話番号\nphone">
<polygon fill="#eedd82" stroke="black" points="173.5,-151.75 88.5,-151.75 88.5,-113 173.5,-113 173.5,-151.75"/>
<text text-anchor="middle" x="131" y="-134.45" font-family="Times New Roman,serif" font-size="14.00">電話番号</text>
<text text-anchor="middle" x="131" y="-120.2" font-family="Times New Roman,serif" font-size="14.00">phone</text>
</a>
</g>
</g>
<!-- com.example.sms.domain.model.master&#45;&gt;com.example.sms.domain.type.phone -->
<g id="edge7" class="edge">
<title>com.example.sms.domain.model.master&#45;&gt;com.example.sms.domain.type.phone</title>
<path fill="none" stroke="black" d="M358.1,-220.77C336.17,-216.84 306.98,-211.95 281,-208.75 259.31,-206.07 202.2,-211.18 183,-200.75 167.01,-192.07 154.38,-176.15 145.56,-161.97"/>
<polygon fill="black" stroke="black" points="148.63,-160.29 140.59,-153.39 142.58,-163.8 148.63,-160.29"/>
</g>
<!-- com.example.sms.domain.type.address -->
<g id="node11" class="node">
<title>com.example.sms.domain.type.address</title>
<g id="a_node11"><a xlink:href="./domain.html#com.example.sms.domain.type.address" xlink:title="住所\naddress">
<polygon fill="#eedd82" stroke="black" points="248.25,-151.75 191.75,-151.75 191.75,-113 248.25,-113 248.25,-151.75"/>
<text text-anchor="middle" x="220" y="-134.45" font-family="Times New Roman,serif" font-size="14.00">住所</text>
<text text-anchor="middle" x="220" y="-120.2" font-family="Times New Roman,serif" font-size="14.00">address</text>
</a>
</g>
</g>
<!-- com.example.sms.domain.model.master&#45;&gt;com.example.sms.domain.type.address -->
<g id="edge10" class="edge">
<title>com.example.sms.domain.model.master&#45;&gt;com.example.sms.domain.type.address</title>
<path fill="none" stroke="black" d="M357.65,-221.96C320.38,-216.12 265.08,-206.65 257,-200.75 244.16,-191.37 235.26,-176.13 229.41,-162.51"/>
<polygon fill="black" stroke="black" points="232.79,-161.55 225.9,-153.49 226.26,-164.08 232.79,-161.55"/>
</g>
<!-- com.example.sms.domain.type.money&#45;&gt;com.example.sms.domain.type.quantity -->
<g id="edge14" class="edge">
<title>com.example.sms.domain.type.money&#45;&gt;com.example.sms.domain.type.quantity</title>
<path fill="none" stroke="black" d="M66.41,-112.53C70.75,-109.68 75.37,-107.02 80,-105 140.1,-78.76 215.86,-67.07 262.08,-62.09"/>
<polygon fill="black" stroke="black" points="262.35,-65.58 271.94,-61.08 261.64,-58.61 262.35,-65.58"/>
</g>
<!-- com.example.sms.domain.model.inventory -->
<g id="node10" class="node">
<title>com.example.sms.domain.model.inventory</title>
<g id="a_node10"><a xlink:href="./domain.html#com.example.sms.domain.model.inventory" xlink:title="在庫\ninventory">
<polygon fill="#eedd82" stroke="black" points="538.88,-322.25 471.12,-322.25 471.12,-283.5 538.88,-283.5 538.88,-322.25"/>
<text text-anchor="middle" x="505" y="-304.95" font-family="Times New Roman,serif" font-size="14.00">在庫</text>
<text text-anchor="middle" x="505" y="-290.7" font-family="Times New Roman,serif" font-size="14.00">inventory</text>
</a>
</g>
</g>
<!-- com.example.sms.domain.model.inventory&#45;&gt;com.example.sms.domain.model.master -->
<g id="edge12" class="edge">
<title>com.example.sms.domain.model.inventory&#45;&gt;com.example.sms.domain.model.master</title>
<path fill="none" stroke="black" d="M475.9,-283.14C462.06,-274.23 445.33,-263.46 430.46,-253.88"/>
<polygon fill="black" stroke="black" points="432.58,-251.09 422.27,-248.62 428.79,-256.97 432.58,-251.09"/>
</g>
<!-- com.example.sms.domain.model.inventory&#45;&gt;com.example.sms.domain.type.quantity -->
<g id="edge9" class="edge">
<title>com.example.sms.domain.model.inventory&#45;&gt;com.example.sms.domain.type.quantity</title>
<path fill="none" stroke="black" d="M510.9,-283.04C521.64,-244.69 539.56,-156.8 497,-105 478.07,-81.97 396.57,-68.88 345.72,-62.82"/>
<polygon fill="black" stroke="black" points="346.28,-59.36 335.94,-61.71 345.48,-66.32 346.28,-59.36"/>
</g>
</g>
</svg>
