<?xml version="1.0" encoding="UTF-8" standalone="no"?>
<!DOCTYPE svg PUBLIC "-//W3C//DTD SVG 1.1//EN"
 "http://www.w3.org/Graphics/SVG/1.1/DTD/svg11.dtd">
<!-- Generated by graphviz version 12.1.2 (20240928.0832)
 -->
<!-- Title: アーキテクチャ図 Pages: 1 -->
<svg width="1132pt" height="355pt"
 viewBox="0.00 0.00 1131.88 355.00" xmlns="http://www.w3.org/2000/svg" xmlns:xlink="http://www.w3.org/1999/xlink">
<g id="graph0" class="graph" transform="scale(1 1) rotate(0) translate(4 351)">
<title>アーキテクチャ図</title>
<polygon fill="white" stroke="none" points="-4,4 -4,-351 1127.88,-351 1127.88,4 -4,4"/>
<text text-anchor="middle" x="561.94" y="-5.7" font-family="Times,serif" font-size="14.00">アーキテクチャ図</text>
<g id="clust1" class="cluster">
<title>clusterArchitecture</title>
<polygon fill="lightyellow" stroke="#eedd82" points="325.62,-87 325.62,-283 815.62,-283 815.62,-87 325.62,-87"/>
</g>
<!-- com.example.sms.domain -->
<g id="node1" class="node">
<title>com.example.sms.domain</title>
<polygon fill="#eedd82" stroke="black" points="757.88,-131 641.38,-131 641.38,-127 637.38,-127 637.38,-123 641.38,-123 641.38,-103 637.38,-103 637.38,-99 641.38,-99 641.38,-95 757.88,-95 757.88,-131"/>
<polyline fill="none" stroke="black" points="641.38,-127 645.38,-127 645.38,-123 641.38,-123"/>
<polyline fill="none" stroke="black" points="641.38,-103 645.38,-103 645.38,-99 641.38,-99"/>
<text text-anchor="middle" x="699.62" y="-104.5" font-family="Times,serif" font-size="20.00">ドメイン層</text>
</g>
<!-- org.springframework -->
<g id="node5" class="node">
<title>org.springframework</title>
<polygon fill="lightgrey" stroke="black" points="596.38,-59 464.88,-59 464.88,-55 460.88,-55 460.88,-51 464.88,-51 464.88,-31 460.88,-31 460.88,-27 464.88,-27 464.88,-23 596.38,-23 596.38,-59"/>
<polyline fill="none" stroke="black" points="464.88,-55 468.88,-55 468.88,-51 464.88,-51"/>
<polyline fill="none" stroke="black" points="464.88,-31 468.88,-31 468.88,-27 464.88,-27"/>
<text text-anchor="middle" x="530.62" y="-35.95" font-family="Times,serif" font-size="14.00">org.springframework</text>
</g>
<!-- com.example.sms.domain&#45;&gt;org.springframework -->
<g id="edge19" class="edge">
<title>com.example.sms.domain&#45;&gt;org.springframework</title>
<path fill="none" stroke="black" d="M640.95,-107C615.15,-107 590.58,-107 590.58,-107 590.58,-107 590.58,-70.9 590.58,-70.9"/>
<polygon fill="black" stroke="black" points="594.08,-70.9 590.58,-60.9 587.08,-70.9 594.08,-70.9"/>
</g>
<!-- jakarta.validation -->
<g id="node9" class="node">
<title>jakarta.validation</title>
<polygon fill="lightgrey" stroke="black" points="848.88,-59 738.38,-59 738.38,-55 734.38,-55 734.38,-51 738.38,-51 738.38,-31 734.38,-31 734.38,-27 738.38,-27 738.38,-23 848.88,-23 848.88,-59"/>
<polyline fill="none" stroke="black" points="738.38,-55 742.38,-55 742.38,-51 738.38,-51"/>
<polyline fill="none" stroke="black" points="738.38,-31 742.38,-31 742.38,-27 738.38,-27"/>
<text text-anchor="middle" x="793.62" y="-35.95" font-family="Times,serif" font-size="14.00">jakarta.validation</text>
</g>
<!-- com.example.sms.domain&#45;&gt;jakarta.validation -->
<g id="edge12" class="edge">
<title>com.example.sms.domain&#45;&gt;jakarta.validation</title>
<path fill="none" stroke="black" d="M744.88,-94.83C744.88,-94.83 744.88,-70.93 744.88,-70.93"/>
<polygon fill="black" stroke="black" points="748.38,-70.93 744.88,-60.93 741.38,-70.93 748.38,-70.93"/>
</g>
<!-- lombok -->
<g id="node14" class="node">
<title>lombok</title>
<polygon fill="lightgrey" stroke="black" points="986.62,-59 928.62,-59 928.62,-55 924.62,-55 924.62,-51 928.62,-51 928.62,-31 924.62,-31 924.62,-27 928.62,-27 928.62,-23 986.62,-23 986.62,-59"/>
<polyline fill="none" stroke="black" points="928.62,-55 932.62,-55 932.62,-51 928.62,-51"/>
<polyline fill="none" stroke="black" points="928.62,-31 932.62,-31 932.62,-27 928.62,-27"/>
<text text-anchor="middle" x="957.62" y="-35.95" font-family="Times,serif" font-size="14.00">lombok</text>
</g>
<!-- com.example.sms.domain&#45;&gt;lombok -->
<g id="edge26" class="edge">
<title>com.example.sms.domain&#45;&gt;lombok</title>
<path fill="none" stroke="black" d="M751.38,-94.58C751.38,-85.72 751.38,-77 751.38,-77 751.38,-77 947.96,-77 947.96,-77 947.96,-77 947.96,-70.94 947.96,-70.94"/>
<polygon fill="black" stroke="black" points="951.46,-70.94 947.96,-60.94 944.46,-70.94 951.46,-70.94"/>
</g>
<!-- com.example.sms.infrastructure -->
<g id="node2" class="node">
<title>com.example.sms.infrastructure</title>
<polygon fill="#eedd82" stroke="black" points="571.25,-275 334,-275 334,-271 330,-271 330,-267 334,-267 334,-247 330,-247 330,-243 334,-243 334,-239 571.25,-239 571.25,-275"/>
<polyline fill="none" stroke="black" points="334,-271 338,-271 338,-267 334,-267"/>
<polyline fill="none" stroke="black" points="334,-247 338,-247 338,-243 334,-243"/>
<text text-anchor="middle" x="452.62" y="-248.5" font-family="Times,serif" font-size="20.00">インフラストラクチャ層</text>
</g>
<!-- com.example.sms.infrastructure&#45;&gt;com.example.sms.domain -->
<g id="edge21" class="edge">
<title>com.example.sms.infrastructure&#45;&gt;com.example.sms.domain</title>
<path fill="none" stroke="black" d="M507.42,-238.67C507.42,-201.14 507.42,-119 507.42,-119 507.42,-119 629.4,-119 629.4,-119"/>
<polygon fill="black" stroke="black" points="629.4,-122.5 639.4,-119 629.4,-115.5 629.4,-122.5"/>
</g>
<!-- com.example.sms.service -->
<g id="node4" class="node">
<title>com.example.sms.service</title>
<polygon fill="#eedd82" stroke="black" points="696.25,-203 579,-203 579,-199 575,-199 575,-195 579,-195 579,-175 575,-175 575,-171 579,-171 579,-167 696.25,-167 696.25,-203"/>
<polyline fill="none" stroke="black" points="579,-199 583,-199 583,-195 579,-195"/>
<polyline fill="none" stroke="black" points="579,-175 583,-175 583,-171 579,-171"/>
<text text-anchor="middle" x="637.62" y="-176.5" font-family="Times,serif" font-size="20.00">サービス層</text>
</g>
<!-- com.example.sms.infrastructure&#45;&gt;com.example.sms.service -->
<g id="edge13" class="edge">
<title>com.example.sms.infrastructure&#45;&gt;com.example.sms.service</title>
<path fill="none" stroke="black" d="M571.57,-251C579.37,-251 584.19,-251 584.19,-251 584.19,-251 584.19,-214.9 584.19,-214.9"/>
<polygon fill="black" stroke="black" points="587.69,-214.9 584.19,-204.9 580.69,-214.9 587.69,-214.9"/>
</g>
<!-- com.example.sms.infrastructure&#45;&gt;org.springframework -->
<g id="edge1" class="edge">
<title>com.example.sms.infrastructure&#45;&gt;org.springframework</title>
<path fill="none" stroke="black" d="M486.15,-238.58C486.15,-238.58 486.15,-70.88 486.15,-70.88"/>
<polygon fill="black" stroke="black" points="489.65,-70.88 486.15,-60.88 482.65,-70.88 489.65,-70.88"/>
</g>
<!-- org.apache -->
<g id="node6" class="node">
<title>org.apache</title>
<polygon fill="lightgrey" stroke="black" points="899.25,-203 824,-203 824,-199 820,-199 820,-195 824,-195 824,-175 820,-175 820,-171 824,-171 824,-167 899.25,-167 899.25,-203"/>
<polyline fill="none" stroke="black" points="824,-199 828,-199 828,-195 824,-195"/>
<polyline fill="none" stroke="black" points="824,-175 828,-175 828,-171 824,-171"/>
<text text-anchor="middle" x="861.62" y="-179.95" font-family="Times,serif" font-size="14.00">org.apache</text>
</g>
<!-- com.example.sms.infrastructure&#45;&gt;org.apache -->
<g id="edge2" class="edge">
<title>com.example.sms.infrastructure&#45;&gt;org.apache</title>
<path fill="none" stroke="black" d="M549.98,-238.7C549.98,-226.24 549.98,-212 549.98,-212 549.98,-212 861.62,-212 861.62,-212 861.62,-212 861.62,-211.15 861.62,-211.15"/>
<polygon fill="black" stroke="black" points="865.13,-214.97 861.63,-204.97 858.13,-214.97 865.13,-214.97"/>
</g>
<!-- com.github -->
<g id="node7" class="node">
<title>com.github</title>
<polygon fill="lightgrey" stroke="black" points="901.75,-131 823.5,-131 823.5,-127 819.5,-127 819.5,-123 823.5,-123 823.5,-103 819.5,-103 819.5,-99 823.5,-99 823.5,-95 901.75,-95 901.75,-131"/>
<polyline fill="none" stroke="black" points="823.5,-127 827.5,-127 827.5,-123 823.5,-123"/>
<polyline fill="none" stroke="black" points="823.5,-103 827.5,-103 827.5,-99 823.5,-99"/>
<text text-anchor="middle" x="862.62" y="-107.95" font-family="Times,serif" font-size="14.00">com.github</text>
</g>
<!-- com.example.sms.infrastructure&#45;&gt;com.github -->
<g id="edge9" class="edge">
<title>com.example.sms.infrastructure&#45;&gt;com.github</title>
<path fill="none" stroke="black" d="M528.7,-238.68C528.7,-207.87 528.7,-149 528.7,-149 528.7,-149 861.62,-149 861.62,-149 861.62,-149 861.62,-142.94 861.62,-142.94"/>
<polygon fill="black" stroke="black" points="865.13,-142.94 861.63,-132.94 858.13,-142.94 865.13,-142.94"/>
</g>
<!-- io.swagger -->
<g id="node8" class="node">
<title>io.swagger</title>
<polygon fill="lightgrey" stroke="black" points="317.25,-203 242,-203 242,-199 238,-199 238,-195 242,-195 242,-175 238,-175 238,-171 242,-171 242,-167 317.25,-167 317.25,-203"/>
<polyline fill="none" stroke="black" points="242,-199 246,-199 246,-195 242,-195"/>
<polyline fill="none" stroke="black" points="242,-175 246,-175 246,-171 242,-171"/>
<text text-anchor="middle" x="279.62" y="-179.95" font-family="Times,serif" font-size="14.00">io.swagger</text>
</g>
<!-- com.example.sms.infrastructure&#45;&gt;io.swagger -->
<g id="edge5" class="edge">
<title>com.example.sms.infrastructure&#45;&gt;io.swagger</title>
<path fill="none" stroke="black" d="M333.54,-248C297.41,-248 267.08,-248 267.08,-248 267.08,-248 267.08,-214.74 267.08,-214.74"/>
<polygon fill="black" stroke="black" points="270.58,-214.74 267.08,-204.74 263.58,-214.74 270.58,-214.74"/>
</g>
<!-- org.slf4j -->
<g id="node11" class="node">
<title>org.slf4j</title>
<polygon fill="lightgrey" stroke="black" points="223.5,-203 161.75,-203 161.75,-199 157.75,-199 157.75,-195 161.75,-195 161.75,-175 157.75,-175 157.75,-171 161.75,-171 161.75,-167 223.5,-167 223.5,-203"/>
<polyline fill="none" stroke="black" points="161.75,-199 165.75,-199 165.75,-195 161.75,-195"/>
<polyline fill="none" stroke="black" points="161.75,-175 165.75,-175 165.75,-171 161.75,-171"/>
<text text-anchor="middle" x="192.62" y="-179.95" font-family="Times,serif" font-size="14.00">org.slf4j</text>
</g>
<!-- com.example.sms.infrastructure&#45;&gt;org.slf4j -->
<g id="edge8" class="edge">
<title>com.example.sms.infrastructure&#45;&gt;org.slf4j</title>
<path fill="none" stroke="black" d="M333.68,-257C261.16,-257 182.33,-257 182.33,-257 182.33,-257 182.33,-214.68 182.33,-214.68"/>
<polygon fill="black" stroke="black" points="185.83,-214.68 182.33,-204.68 178.83,-214.68 185.83,-214.68"/>
</g>
<!-- io.jsonwebtoken -->
<g id="node13" class="node">
<title>io.jsonwebtoken</title>
<polygon fill="lightgrey" stroke="black" points="105.25,-203 0,-203 0,-199 -4,-199 -4,-195 0,-195 0,-175 -4,-175 -4,-171 0,-171 0,-167 105.25,-167 105.25,-203"/>
<polyline fill="none" stroke="black" points="0,-199 4,-199 4,-195 0,-195"/>
<polyline fill="none" stroke="black" points="0,-175 4,-175 4,-171 0,-171"/>
<text text-anchor="middle" x="52.62" y="-179.95" font-family="Times,serif" font-size="14.00">io.jsonwebtoken</text>
</g>
<!-- com.example.sms.infrastructure&#45;&gt;io.jsonwebtoken -->
<g id="edge20" class="edge">
<title>com.example.sms.infrastructure&#45;&gt;io.jsonwebtoken</title>
<path fill="none" stroke="black" d="M333.69,-266C215.79,-266 52.62,-266 52.62,-266 52.62,-266 52.62,-214.89 52.62,-214.89"/>
<polygon fill="black" stroke="black" points="56.13,-214.89 52.63,-204.89 49.13,-214.89 56.13,-214.89"/>
</g>
<!-- com.example.sms.presentation -->
<g id="node3" class="node">
<title>com.example.sms.presentation</title>
<polygon fill="#eedd82" stroke="black" points="807.88,-275 589.38,-275 589.38,-271 585.38,-271 585.38,-267 589.38,-267 589.38,-247 585.38,-247 585.38,-243 589.38,-243 589.38,-239 807.88,-239 807.88,-275"/>
<polyline fill="none" stroke="black" points="589.38,-271 593.38,-271 593.38,-267 589.38,-267"/>
<polyline fill="none" stroke="black" points="589.38,-247 593.38,-247 593.38,-243 589.38,-243"/>
<text text-anchor="middle" x="698.62" y="-248.5" font-family="Times,serif" font-size="20.00">プレゼンテーション層</text>
</g>
<!-- com.example.sms.presentation&#45;&gt;com.example.sms.domain -->
<g id="edge14" class="edge">
<title>com.example.sms.presentation&#45;&gt;com.example.sms.domain</title>
<path fill="none" stroke="black" d="M727.06,-238.76C727.06,-238.76 727.06,-142.6 727.06,-142.6"/>
<polygon fill="black" stroke="black" points="730.56,-142.6 727.06,-132.6 723.56,-142.6 730.56,-142.6"/>
</g>
<!-- com.example.sms.presentation&#45;&gt;com.example.sms.service -->
<g id="edge22" class="edge">
<title>com.example.sms.presentation&#45;&gt;com.example.sms.service</title>
<path fill="none" stroke="black" d="M669.53,-238.83C669.53,-238.83 669.53,-214.93 669.53,-214.93"/>
<polygon fill="black" stroke="black" points="673.03,-214.93 669.53,-204.93 666.03,-214.93 673.03,-214.93"/>
</g>
<!-- com.example.sms.presentation&#45;&gt;org.springframework -->
<g id="edge23" class="edge">
<title>com.example.sms.presentation&#45;&gt;org.springframework</title>
<path fill="none" stroke="black" d="M589.03,-263C581.27,-263 576.42,-263 576.42,-263 576.42,-263 576.42,-70.68 576.42,-70.68"/>
<polygon fill="black" stroke="black" points="579.92,-70.68 576.42,-60.68 572.92,-70.68 579.92,-70.68"/>
</g>
<!-- com.example.sms.presentation&#45;&gt;com.github -->
<g id="edge4" class="edge">
<title>com.example.sms.presentation&#45;&gt;com.github</title>
<path fill="none" stroke="black" d="M791.21,-238.61C791.21,-198.55 791.21,-107 791.21,-107 791.21,-107 811.64,-107 811.64,-107"/>
<polygon fill="black" stroke="black" points="811.64,-110.5 821.64,-107 811.64,-103.5 811.64,-110.5"/>
</g>
<!-- com.example.sms.presentation&#45;&gt;io.swagger -->
<g id="edge18" class="edge">
<title>com.example.sms.presentation&#45;&gt;io.swagger</title>
<path fill="none" stroke="black" d="M642.81,-238.58C642.81,-229.72 642.81,-221 642.81,-221 642.81,-221 292.17,-221 292.17,-221 292.17,-221 292.17,-214.94 292.17,-214.94"/>
<polygon fill="black" stroke="black" points="295.67,-214.94 292.17,-204.94 288.67,-214.94 295.67,-214.94"/>
</g>
<!-- com.example.sms.presentation&#45;&gt;jakarta.validation -->
<g id="edge6" class="edge">
<title>com.example.sms.presentation&#45;&gt;jakarta.validation</title>
<path fill="none" stroke="black" d="M774.54,-238.58C774.54,-238.58 774.54,-70.88 774.54,-70.88"/>
<polygon fill="black" stroke="black" points="778.04,-70.88 774.54,-60.88 771.04,-70.88 778.04,-70.88"/>
</g>
<!-- com.example.sms.presentation&#45;&gt;org.slf4j -->
<g id="edge10" class="edge">
<title>com.example.sms.presentation&#45;&gt;org.slf4j</title>
<path fill="none" stroke="black" d="M616.09,-238.54C616.09,-233.8 616.09,-230 616.09,-230 616.09,-230 202.92,-230 202.92,-230 202.92,-230 202.92,-214.82 202.92,-214.82"/>
<polygon fill="black" stroke="black" points="206.42,-214.82 202.92,-204.82 199.42,-214.82 206.42,-214.82"/>
</g>
<!-- jakarta.servlet -->
<g id="node12" class="node">
<title>jakarta.servlet</title>
<polygon fill="lightgrey" stroke="black" points="1123.88,-203 1031.38,-203 1031.38,-199 1027.38,-199 1027.38,-195 1031.38,-195 1031.38,-175 1027.38,-175 1027.38,-171 1031.38,-171 1031.38,-167 1123.88,-167 1123.88,-203"/>
<polyline fill="none" stroke="black" points="1031.38,-199 1035.38,-199 1035.38,-195 1031.38,-195"/>
<polyline fill="none" stroke="black" points="1031.38,-175 1035.38,-175 1035.38,-171 1031.38,-171"/>
<text text-anchor="middle" x="1077.62" y="-179.95" font-family="Times,serif" font-size="14.00">jakarta.servlet</text>
</g>
<!-- com.example.sms.presentation&#45;&gt;jakarta.servlet -->
<g id="edge17" class="edge">
<title>com.example.sms.presentation&#45;&gt;jakarta.servlet</title>
<path fill="none" stroke="black" d="M808.21,-263C915.26,-263 1062.21,-263 1062.21,-263 1062.21,-263 1062.21,-215 1062.21,-215"/>
<polygon fill="black" stroke="black" points="1065.71,-215 1062.21,-205 1058.71,-215 1065.71,-215"/>
</g>
<!-- com.example.sms.presentation&#45;&gt;lombok -->
<g id="edge24" class="edge">
<title>com.example.sms.presentation&#45;&gt;lombok</title>
<path fill="none" stroke="black" d="M808.29,-251C882.58,-251 967.29,-251 967.29,-251 967.29,-251 967.29,-70.78 967.29,-70.78"/>
<polygon fill="black" stroke="black" points="970.79,-70.78 967.29,-60.78 963.79,-70.78 970.79,-70.78"/>
</g>
<!-- com.example.sms.service&#45;&gt;com.example.sms.domain -->
<g id="edge16" class="edge">
<title>com.example.sms.service&#45;&gt;com.example.sms.domain</title>
<path fill="none" stroke="black" d="M668.81,-166.83C668.81,-166.83 668.81,-142.93 668.81,-142.93"/>
<polygon fill="black" stroke="black" points="672.31,-142.93 668.81,-132.93 665.31,-142.93 672.31,-142.93"/>
</g>
<!-- com.example.sms.service&#45;&gt;org.springframework -->
<g id="edge11" class="edge">
<title>com.example.sms.service&#45;&gt;org.springframework</title>
<path fill="none" stroke="black" d="M584.79,-166.76C584.79,-166.76 584.79,-70.6 584.79,-70.6"/>
<polygon fill="black" stroke="black" points="588.29,-70.6 584.79,-60.6 581.29,-70.6 588.29,-70.6"/>
</g>
<!-- com.example.sms.service&#45;&gt;com.github -->
<g id="edge3" class="edge">
<title>com.example.sms.service&#45;&gt;com.github</title>
<path fill="none" stroke="black" d="M696.42,-185C748.29,-185 815.69,-185 815.69,-185 815.69,-185 815.69,-119 815.69,-119 815.69,-119 816.42,-119 816.42,-119"/>
<polygon fill="black" stroke="black" points="811.51,-122.5 821.51,-119 811.51,-115.5 811.51,-122.5"/>
</g>
<!-- com.example -->
<g id="node10" class="node">
<title>com.example</title>
<polygon fill="lightgrey" stroke="black" points="743.75,-347 653.5,-347 653.5,-343 649.5,-343 649.5,-339 653.5,-339 653.5,-319 649.5,-319 649.5,-315 653.5,-315 653.5,-311 743.75,-311 743.75,-347"/>
<polyline fill="none" stroke="black" points="653.5,-343 657.5,-343 657.5,-339 653.5,-339"/>
<polyline fill="none" stroke="black" points="653.5,-319 657.5,-319 657.5,-315 653.5,-315"/>
<text text-anchor="middle" x="698.62" y="-323.95" font-family="Times,serif" font-size="14.00">com.example</text>
</g>
<!-- com.example&#45;&gt;com.example.sms.presentation -->
<g id="edge7" class="edge">
<title>com.example&#45;&gt;com.example.sms.presentation</title>
<path fill="none" stroke="black" d="M698.62,-310.83C698.62,-310.83 698.62,-286.93 698.62,-286.93"/>
<polygon fill="black" stroke="black" points="702.13,-286.93 698.63,-276.93 695.13,-286.93 702.13,-286.93"/>
</g>
<!-- com.example&#45;&gt;org.springframework -->
<g id="edge25" class="edge">
<title>com.example&#45;&gt;org.springframework</title>
<path fill="none" stroke="black" d="M653.22,-329C617.54,-329 573.83,-329 573.83,-329 573.83,-329 573.83,-70.97 573.83,-70.97"/>
<polygon fill="black" stroke="black" points="577.33,-70.97 573.83,-60.97 570.33,-70.97 577.33,-70.97"/>
</g>
<!-- com.example&#45;&gt;jakarta.servlet -->
<g id="edge15" class="edge">
<title>com.example&#45;&gt;jakarta.servlet</title>
<path fill="none" stroke="black" d="M743.87,-329C847.47,-329 1093.04,-329 1093.04,-329 1093.04,-329 1093.04,-214.75 1093.04,-214.75"/>
<polygon fill="black" stroke="black" points="1096.54,-214.75 1093.04,-204.75 1089.54,-214.75 1096.54,-214.75"/>
</g>
</g>
</svg>
