<?xml version="1.0" encoding="UTF-8" standalone="no"?>
<!DOCTYPE svg PUBLIC "-//W3C//DTD SVG 1.1//EN"
 "http://www.w3.org/Graphics/SVG/1.1/DTD/svg11.dtd">
<!-- Generated by graphviz version 12.2.0 (20241103.1931)
 -->
<!-- Title: アーキテクチャ図 Pages: 1 -->
<svg width="1012pt" height="354pt"
 viewBox="0.00 0.00 1011.88 354.25" xmlns="http://www.w3.org/2000/svg" xmlns:xlink="http://www.w3.org/1999/xlink">
<g id="graph0" class="graph" transform="scale(1 1) rotate(0) translate(4 350.25)">
<title>アーキテクチャ図</title>
<polygon fill="white" stroke="none" points="-4,4 -4,-350.25 1007.88,-350.25 1007.88,4 -4,4"/>
<text text-anchor="middle" x="501.94" y="-4.95" font-family="Times New Roman,serif" font-size="14.00">アーキテクチャ図</text>
<g id="clust1" class="cluster">
<title>clusterArchitecture</title>
<polygon fill="lightyellow" stroke="#eedd82" points="379.62,-86.25 379.62,-282.25 870.62,-282.25 870.62,-86.25 379.62,-86.25"/>
</g>
<!-- com.example.sms.domain -->
<g id="node1" class="node">
<title>com.example.sms.domain</title>
<polygon fill="#eedd82" stroke="black" points="640.25,-130.25 523,-130.25 523,-126.25 519,-126.25 519,-122.25 523,-122.25 523,-102.25 519,-102.25 519,-98.25 523,-98.25 523,-94.25 640.25,-94.25 640.25,-130.25"/>
<polyline fill="none" stroke="black" points="523,-126.25 527,-126.25 527,-122.25 523,-122.25"/>
<polyline fill="none" stroke="black" points="523,-102.25 527,-102.25 527,-98.25 523,-98.25"/>
<text text-anchor="middle" x="581.62" y="-101.88" font-family="Times New Roman,serif" font-size="20.00">ドメイン層</text>
</g>
<!-- org.springframework -->
<g id="node5" class="node">
<title>org.springframework</title>
<polygon fill="lightgrey" stroke="black" points="503.38,-58.25 371.88,-58.25 371.88,-54.25 367.88,-54.25 367.88,-50.25 371.88,-50.25 371.88,-30.25 367.88,-30.25 367.88,-26.25 371.88,-26.25 371.88,-22.25 503.38,-22.25 503.38,-58.25"/>
<polyline fill="none" stroke="black" points="371.88,-54.25 375.88,-54.25 375.88,-50.25 371.88,-50.25"/>
<polyline fill="none" stroke="black" points="371.88,-30.25 375.88,-30.25 375.88,-26.25 371.88,-26.25"/>
<text text-anchor="middle" x="437.62" y="-35.2" font-family="Times New Roman,serif" font-size="14.00">org.springframework</text>
</g>
<!-- com.example.sms.domain&#45;&gt;org.springframework -->
<g id="edge23" class="edge">
<title>com.example.sms.domain&#45;&gt;org.springframework</title>
<path fill="none" stroke="black" d="M522.55,-103.25C507.71,-103.25 495.9,-103.25 495.9,-103.25 495.9,-103.25 495.9,-69.99 495.9,-69.99"/>
<polygon fill="black" stroke="black" points="499.4,-69.99 495.9,-59.99 492.4,-69.99 499.4,-69.99"/>
</g>
<!-- jakarta.validation -->
<g id="node9" class="node">
<title>jakarta.validation</title>
<polygon fill="lightgrey" stroke="black" points="808.88,-58.25 698.38,-58.25 698.38,-54.25 694.38,-54.25 694.38,-50.25 698.38,-50.25 698.38,-30.25 694.38,-30.25 694.38,-26.25 698.38,-26.25 698.38,-22.25 808.88,-22.25 808.88,-58.25"/>
<polyline fill="none" stroke="black" points="698.38,-54.25 702.38,-54.25 702.38,-50.25 698.38,-50.25"/>
<polyline fill="none" stroke="black" points="698.38,-30.25 702.38,-30.25 702.38,-26.25 698.38,-26.25"/>
<text text-anchor="middle" x="753.62" y="-35.2" font-family="Times New Roman,serif" font-size="14.00">jakarta.validation</text>
</g>
<!-- com.example.sms.domain&#45;&gt;jakarta.validation -->
<g id="edge13" class="edge">
<title>com.example.sms.domain&#45;&gt;jakarta.validation</title>
<path fill="none" stroke="black" d="M640.57,-112.25C683.88,-112.25 735.21,-112.25 735.21,-112.25 735.21,-112.25 735.21,-69.93 735.21,-69.93"/>
<polygon fill="black" stroke="black" points="738.71,-69.93 735.21,-59.93 731.71,-69.93 738.71,-69.93"/>
</g>
<!-- lombok -->
<g id="node14" class="node">
<title>lombok</title>
<polygon fill="lightgrey" stroke="black" points="680.62,-58.25 622.62,-58.25 622.62,-54.25 618.62,-54.25 618.62,-50.25 622.62,-50.25 622.62,-30.25 618.62,-30.25 618.62,-26.25 622.62,-26.25 622.62,-22.25 680.62,-22.25 680.62,-58.25"/>
<polyline fill="none" stroke="black" points="622.62,-54.25 626.62,-54.25 626.62,-50.25 622.62,-50.25"/>
<polyline fill="none" stroke="black" points="622.62,-30.25 626.62,-30.25 626.62,-26.25 622.62,-26.25"/>
<text text-anchor="middle" x="651.62" y="-35.2" font-family="Times New Roman,serif" font-size="14.00">lombok</text>
</g>
<!-- com.example.sms.domain&#45;&gt;lombok -->
<g id="edge28" class="edge">
<title>com.example.sms.domain&#45;&gt;lombok</title>
<path fill="none" stroke="black" d="M631.44,-94.08C631.44,-94.08 631.44,-70.18 631.44,-70.18"/>
<polygon fill="black" stroke="black" points="634.94,-70.18 631.44,-60.18 627.94,-70.18 634.94,-70.18"/>
</g>
<!-- com.example.sms.infrastructure -->
<g id="node2" class="node">
<title>com.example.sms.infrastructure</title>
<polygon fill="#eedd82" stroke="black" points="626,-274.25 387.25,-274.25 387.25,-270.25 383.25,-270.25 383.25,-266.25 387.25,-266.25 387.25,-246.25 383.25,-246.25 383.25,-242.25 387.25,-242.25 387.25,-238.25 626,-238.25 626,-274.25"/>
<polyline fill="none" stroke="black" points="387.25,-270.25 391.25,-270.25 391.25,-266.25 387.25,-266.25"/>
<polyline fill="none" stroke="black" points="387.25,-246.25 391.25,-246.25 391.25,-242.25 387.25,-242.25"/>
<text text-anchor="middle" x="506.62" y="-245.88" font-family="Times New Roman,serif" font-size="20.00">インフラストラクチャ層</text>
</g>
<!-- com.example.sms.infrastructure&#45;&gt;com.example.sms.domain -->
<g id="edge22" class="edge">
<title>com.example.sms.infrastructure&#45;&gt;com.example.sms.domain</title>
<path fill="none" stroke="black" d="M611.75,-238.01C611.75,-238.01 611.75,-141.85 611.75,-141.85"/>
<polygon fill="black" stroke="black" points="615.25,-141.85 611.75,-131.85 608.25,-141.85 615.25,-141.85"/>
</g>
<!-- com.example.sms.service -->
<g id="node4" class="node">
<title>com.example.sms.service</title>
<polygon fill="#eedd82" stroke="black" points="583.25,-202.25 466,-202.25 466,-198.25 462,-198.25 462,-194.25 466,-194.25 466,-174.25 462,-174.25 462,-170.25 466,-170.25 466,-166.25 583.25,-166.25 583.25,-202.25"/>
<polyline fill="none" stroke="black" points="466,-198.25 470,-198.25 470,-194.25 466,-194.25"/>
<polyline fill="none" stroke="black" points="466,-174.25 470,-174.25 470,-170.25 466,-170.25"/>
<text text-anchor="middle" x="524.62" y="-173.88" font-family="Times New Roman,serif" font-size="20.00">サービス層</text>
</g>
<!-- com.example.sms.infrastructure&#45;&gt;com.example.sms.service -->
<g id="edge14" class="edge">
<title>com.example.sms.infrastructure&#45;&gt;com.example.sms.service</title>
<path fill="none" stroke="black" d="M524.62,-238.08C524.62,-238.08 524.62,-214.18 524.62,-214.18"/>
<polygon fill="black" stroke="black" points="528.13,-214.18 524.63,-204.18 521.13,-214.18 528.13,-214.18"/>
</g>
<!-- com.example.sms.infrastructure&#45;&gt;org.springframework -->
<g id="edge1" class="edge">
<title>com.example.sms.infrastructure&#45;&gt;org.springframework</title>
<path fill="none" stroke="black" d="M439.75,-237.83C439.75,-237.83 439.75,-70.13 439.75,-70.13"/>
<polygon fill="black" stroke="black" points="443.25,-70.13 439.75,-60.13 436.25,-70.13 443.25,-70.13"/>
</g>
<!-- org.apache -->
<g id="node6" class="node">
<title>org.apache</title>
<polygon fill="lightgrey" stroke="black" points="198.25,-202.25 123,-202.25 123,-198.25 119,-198.25 119,-194.25 123,-194.25 123,-174.25 119,-174.25 119,-170.25 123,-170.25 123,-166.25 198.25,-166.25 198.25,-202.25"/>
<polyline fill="none" stroke="black" points="123,-198.25 127,-198.25 127,-194.25 123,-194.25"/>
<polyline fill="none" stroke="black" points="123,-174.25 127,-174.25 127,-170.25 123,-170.25"/>
<text text-anchor="middle" x="160.62" y="-179.2" font-family="Times New Roman,serif" font-size="14.00">org.apache</text>
</g>
<!-- com.example.sms.infrastructure&#45;&gt;org.apache -->
<g id="edge2" class="edge">
<title>com.example.sms.infrastructure&#45;&gt;org.apache</title>
<path fill="none" stroke="black" d="M387.07,-259.85C287.06,-259.85 160.62,-259.85 160.62,-259.85 160.62,-259.85 160.62,-214.06 160.62,-214.06"/>
<polygon fill="black" stroke="black" points="164.13,-214.06 160.63,-204.06 157.13,-214.06 164.13,-214.06"/>
</g>
<!-- com.github -->
<g id="node7" class="node">
<title>com.github</title>
<polygon fill="lightgrey" stroke="black" points="371.75,-130.25 293.5,-130.25 293.5,-126.25 289.5,-126.25 289.5,-122.25 293.5,-122.25 293.5,-102.25 289.5,-102.25 289.5,-98.25 293.5,-98.25 293.5,-94.25 371.75,-94.25 371.75,-130.25"/>
<polyline fill="none" stroke="black" points="293.5,-126.25 297.5,-126.25 297.5,-122.25 293.5,-122.25"/>
<polyline fill="none" stroke="black" points="293.5,-102.25 297.5,-102.25 297.5,-98.25 293.5,-98.25"/>
<text text-anchor="middle" x="332.62" y="-107.2" font-family="Times New Roman,serif" font-size="14.00">com.github</text>
</g>
<!-- com.example.sms.infrastructure&#45;&gt;com.github -->
<g id="edge10" class="edge">
<title>com.example.sms.infrastructure&#45;&gt;com.github</title>
<path fill="none" stroke="black" d="M413.5,-237.76C413.5,-200.79 413.5,-121.25 413.5,-121.25 413.5,-121.25 383.63,-121.25 383.63,-121.25"/>
<polygon fill="black" stroke="black" points="383.63,-117.75 373.63,-121.25 383.63,-124.75 383.63,-117.75"/>
</g>
<!-- io.swagger -->
<g id="node8" class="node">
<title>io.swagger</title>
<polygon fill="lightgrey" stroke="black" points="291.25,-202.25 216,-202.25 216,-198.25 212,-198.25 212,-194.25 216,-194.25 216,-174.25 212,-174.25 212,-170.25 216,-170.25 216,-166.25 291.25,-166.25 291.25,-202.25"/>
<polyline fill="none" stroke="black" points="216,-198.25 220,-198.25 220,-194.25 216,-194.25"/>
<polyline fill="none" stroke="black" points="216,-174.25 220,-174.25 220,-170.25 216,-170.25"/>
<text text-anchor="middle" x="253.62" y="-179.2" font-family="Times New Roman,serif" font-size="14.00">io.swagger</text>
</g>
<!-- com.example.sms.infrastructure&#45;&gt;io.swagger -->
<g id="edge5" class="edge">
<title>com.example.sms.infrastructure&#45;&gt;io.swagger</title>
<path fill="none" stroke="black" d="M387.06,-252.65C316.58,-252.65 241.08,-252.65 241.08,-252.65 241.08,-252.65 241.08,-214.09 241.08,-214.09"/>
<polygon fill="black" stroke="black" points="244.58,-214.09 241.08,-204.09 237.58,-214.09 244.58,-214.09"/>
</g>
<!-- org.slf4j -->
<g id="node11" class="node">
<title>org.slf4j</title>
<polygon fill="lightgrey" stroke="black" points="371.5,-202.25 309.75,-202.25 309.75,-198.25 305.75,-198.25 305.75,-194.25 309.75,-194.25 309.75,-174.25 305.75,-174.25 305.75,-170.25 309.75,-170.25 309.75,-166.25 371.5,-166.25 371.5,-202.25"/>
<polyline fill="none" stroke="black" points="309.75,-198.25 313.75,-198.25 313.75,-194.25 309.75,-194.25"/>
<polyline fill="none" stroke="black" points="309.75,-174.25 313.75,-174.25 313.75,-170.25 309.75,-170.25"/>
<text text-anchor="middle" x="340.62" y="-179.2" font-family="Times New Roman,serif" font-size="14.00">org.slf4j</text>
</g>
<!-- com.example.sms.infrastructure&#45;&gt;org.slf4j -->
<g id="edge8" class="edge">
<title>com.example.sms.infrastructure&#45;&gt;org.slf4j</title>
<path fill="none" stroke="black" d="M387.08,-245.45C355.64,-245.45 330.33,-245.45 330.33,-245.45 330.33,-245.45 330.33,-214.13 330.33,-214.13"/>
<polygon fill="black" stroke="black" points="333.83,-214.13 330.33,-204.13 326.83,-214.13 333.83,-214.13"/>
</g>
<!-- com.example.sms.infrastructure&#45;&gt;lombok -->
<g id="edge18" class="edge">
<title>com.example.sms.infrastructure&#45;&gt;lombok</title>
<path fill="none" stroke="black" d="M597.5,-237.95C597.5,-225.49 597.5,-211.25 597.5,-211.25 597.5,-211.25 657.97,-211.25 657.97,-211.25 657.97,-211.25 657.97,-70.06 657.97,-70.06"/>
<polygon fill="black" stroke="black" points="661.47,-70.06 657.97,-60.06 654.47,-70.06 661.47,-70.06"/>
</g>
<!-- io.jsonwebtoken -->
<g id="node15" class="node">
<title>io.jsonwebtoken</title>
<polygon fill="lightgrey" stroke="black" points="105.25,-202.25 0,-202.25 0,-198.25 -4,-198.25 -4,-194.25 0,-194.25 0,-174.25 -4,-174.25 -4,-170.25 0,-170.25 0,-166.25 105.25,-166.25 105.25,-202.25"/>
<polyline fill="none" stroke="black" points="0,-198.25 4,-198.25 4,-194.25 0,-194.25"/>
<polyline fill="none" stroke="black" points="0,-174.25 4,-174.25 4,-170.25 0,-170.25"/>
<text text-anchor="middle" x="52.62" y="-179.2" font-family="Times New Roman,serif" font-size="14.00">io.jsonwebtoken</text>
</g>
<!-- com.example.sms.infrastructure&#45;&gt;io.jsonwebtoken -->
<g id="edge21" class="edge">
<title>com.example.sms.infrastructure&#45;&gt;io.jsonwebtoken</title>
<path fill="none" stroke="black" d="M387.05,-267.05C252.54,-267.05 52.62,-267.05 52.62,-267.05 52.62,-267.05 52.62,-214.14 52.62,-214.14"/>
<polygon fill="black" stroke="black" points="56.13,-214.14 52.63,-204.14 49.13,-214.14 56.13,-214.14"/>
</g>
<!-- com.example.sms.presentation -->
<g id="node3" class="node">
<title>com.example.sms.presentation</title>
<polygon fill="#eedd82" stroke="black" points="862.88,-274.25 644.38,-274.25 644.38,-270.25 640.38,-270.25 640.38,-266.25 644.38,-266.25 644.38,-246.25 640.38,-246.25 640.38,-242.25 644.38,-242.25 644.38,-238.25 862.88,-238.25 862.88,-274.25"/>
<polyline fill="none" stroke="black" points="644.38,-270.25 648.38,-270.25 648.38,-266.25 644.38,-266.25"/>
<polyline fill="none" stroke="black" points="644.38,-246.25 648.38,-246.25 648.38,-242.25 644.38,-242.25"/>
<text text-anchor="middle" x="753.62" y="-245.88" font-family="Times New Roman,serif" font-size="20.00">プレゼンテーション層</text>
</g>
<!-- com.example.sms.presentation&#45;&gt;com.example.sms.domain -->
<g id="edge15" class="edge">
<title>com.example.sms.presentation&#45;&gt;com.example.sms.domain</title>
<path fill="none" stroke="black" d="M644.25,-256.25C637.36,-256.25 633.12,-256.25 633.12,-256.25 633.12,-256.25 633.12,-142 633.12,-142"/>
<polygon fill="black" stroke="black" points="636.63,-142 633.13,-132 629.63,-142 636.63,-142"/>
</g>
<!-- com.example.sms.presentation&#45;&gt;com.example.sms.service -->
<g id="edge24" class="edge">
<title>com.example.sms.presentation&#45;&gt;com.example.sms.service</title>
<path fill="none" stroke="black" d="M662.5,-238.03C662.5,-219.42 662.5,-193.25 662.5,-193.25 662.5,-193.25 595.01,-193.25 595.01,-193.25"/>
<polygon fill="black" stroke="black" points="595.01,-189.75 585.01,-193.25 595.01,-196.75 595.01,-189.75"/>
</g>
<!-- com.example.sms.presentation&#45;&gt;org.springframework -->
<g id="edge25" class="edge">
<title>com.example.sms.presentation&#45;&gt;org.springframework</title>
<path fill="none" stroke="black" d="M671.56,-237.93C671.56,-205.71 671.56,-142.25 671.56,-142.25 671.56,-142.25 488.42,-142.25 488.42,-142.25 488.42,-142.25 488.42,-70 488.42,-70"/>
<polygon fill="black" stroke="black" points="491.93,-70 488.43,-60 484.93,-70 491.93,-70"/>
</g>
<!-- com.example.sms.presentation&#45;&gt;com.github -->
<g id="edge4" class="edge">
<title>com.example.sms.presentation&#45;&gt;com.github</title>
<path fill="none" stroke="black" d="M667.03,-238.01C667.03,-208.68 667.03,-154.25 667.03,-154.25 667.03,-154.25 340.62,-154.25 340.62,-154.25 340.62,-154.25 340.62,-141.82 340.62,-141.82"/>
<polygon fill="black" stroke="black" points="344.13,-141.82 340.63,-131.82 337.13,-141.82 344.13,-141.82"/>
</g>
<!-- com.example.sms.presentation&#45;&gt;io.swagger -->
<g id="edge20" class="edge">
<title>com.example.sms.presentation&#45;&gt;io.swagger</title>
<path fill="none" stroke="black" d="M648.91,-237.79C648.91,-233.05 648.91,-229.25 648.91,-229.25 648.91,-229.25 266.17,-229.25 266.17,-229.25 266.17,-229.25 266.17,-214.07 266.17,-214.07"/>
<polygon fill="black" stroke="black" points="269.67,-214.07 266.17,-204.07 262.67,-214.07 269.67,-214.07"/>
</g>
<!-- com.example.sms.presentation&#45;&gt;jakarta.validation -->
<g id="edge6" class="edge">
<title>com.example.sms.presentation&#45;&gt;jakarta.validation</title>
<path fill="none" stroke="black" d="M772.04,-237.83C772.04,-237.83 772.04,-70.13 772.04,-70.13"/>
<polygon fill="black" stroke="black" points="775.54,-70.13 772.04,-60.13 768.54,-70.13 775.54,-70.13"/>
</g>
<!-- com.example.sms.presentation&#45;&gt;org.slf4j -->
<g id="edge11" class="edge">
<title>com.example.sms.presentation&#45;&gt;org.slf4j</title>
<path fill="none" stroke="black" d="M653.44,-237.83C653.44,-228.97 653.44,-220.25 653.44,-220.25 653.44,-220.25 350.92,-220.25 350.92,-220.25 350.92,-220.25 350.92,-214.19 350.92,-214.19"/>
<polygon fill="black" stroke="black" points="354.42,-214.19 350.92,-204.19 347.42,-214.19 354.42,-214.19"/>
</g>
<!-- jakarta.servlet -->
<g id="node13" class="node">
<title>jakarta.servlet</title>
<polygon fill="lightgrey" stroke="black" points="1003.88,-202.25 911.38,-202.25 911.38,-198.25 907.38,-198.25 907.38,-194.25 911.38,-194.25 911.38,-174.25 907.38,-174.25 907.38,-170.25 911.38,-170.25 911.38,-166.25 1003.88,-166.25 1003.88,-202.25"/>
<polyline fill="none" stroke="black" points="911.38,-198.25 915.38,-198.25 915.38,-194.25 911.38,-194.25"/>
<polyline fill="none" stroke="black" points="911.38,-174.25 915.38,-174.25 915.38,-170.25 911.38,-170.25"/>
<text text-anchor="middle" x="957.62" y="-179.2" font-family="Times New Roman,serif" font-size="14.00">jakarta.servlet</text>
</g>
<!-- com.example.sms.presentation&#45;&gt;jakarta.servlet -->
<g id="edge19" class="edge">
<title>com.example.sms.presentation&#45;&gt;jakarta.servlet</title>
<path fill="none" stroke="black" d="M835.88,-237.87C835.88,-213.97 835.88,-175.25 835.88,-175.25 835.88,-175.25 899.39,-175.25 899.39,-175.25"/>
<polygon fill="black" stroke="black" points="899.39,-178.75 909.39,-175.25 899.39,-171.75 899.39,-178.75"/>
</g>
<!-- com.example.sms.presentation&#45;&gt;lombok -->
<g id="edge27" class="edge">
<title>com.example.sms.presentation&#45;&gt;lombok</title>
<path fill="none" stroke="black" d="M676.09,-237.83C676.09,-237.83 676.09,-70.13 676.09,-70.13"/>
<polygon fill="black" stroke="black" points="679.59,-70.13 676.09,-60.13 672.59,-70.13 679.59,-70.13"/>
</g>
<!-- com.example.sms.service&#45;&gt;com.example.sms.domain -->
<g id="edge17" class="edge">
<title>com.example.sms.service&#45;&gt;com.example.sms.domain</title>
<path fill="none" stroke="black" d="M553.12,-166.08C553.12,-166.08 553.12,-142.18 553.12,-142.18"/>
<polygon fill="black" stroke="black" points="556.63,-142.18 553.13,-132.18 549.63,-142.18 556.63,-142.18"/>
</g>
<!-- com.example.sms.service&#45;&gt;org.springframework -->
<g id="edge12" class="edge">
<title>com.example.sms.service&#45;&gt;org.springframework</title>
<path fill="none" stroke="black" d="M480.95,-166.01C480.95,-166.01 480.95,-69.85 480.95,-69.85"/>
<polygon fill="black" stroke="black" points="484.45,-69.85 480.95,-59.85 477.45,-69.85 484.45,-69.85"/>
</g>
<!-- com.example.sms.service&#45;&gt;com.github -->
<g id="edge3" class="edge">
<title>com.example.sms.service&#45;&gt;com.github</title>
<path fill="none" stroke="black" d="M473.48,-166.08C473.48,-144.75 473.48,-112.25 473.48,-112.25 473.48,-112.25 383.75,-112.25 383.75,-112.25"/>
<polygon fill="black" stroke="black" points="383.75,-108.75 373.75,-112.25 383.75,-115.75 383.75,-108.75"/>
</g>
<!-- com.example -->
<g id="node10" class="node">
<title>com.example</title>
<polygon fill="lightgrey" stroke="black" points="882.75,-346.25 792.5,-346.25 792.5,-342.25 788.5,-342.25 788.5,-338.25 792.5,-338.25 792.5,-318.25 788.5,-318.25 788.5,-314.25 792.5,-314.25 792.5,-310.25 882.75,-310.25 882.75,-346.25"/>
<polyline fill="none" stroke="black" points="792.5,-342.25 796.5,-342.25 796.5,-338.25 792.5,-338.25"/>
<polyline fill="none" stroke="black" points="792.5,-318.25 796.5,-318.25 796.5,-314.25 792.5,-314.25"/>
<text text-anchor="middle" x="837.62" y="-323.2" font-family="Times New Roman,serif" font-size="14.00">com.example</text>
</g>
<!-- com.example&#45;&gt;com.example.sms.presentation -->
<g id="edge7" class="edge">
<title>com.example&#45;&gt;com.example.sms.presentation</title>
<path fill="none" stroke="black" d="M827.69,-310.08C827.69,-310.08 827.69,-286.18 827.69,-286.18"/>
<polygon fill="black" stroke="black" points="831.19,-286.18 827.69,-276.18 824.19,-286.18 831.19,-286.18"/>
</g>
<!-- com.example&#45;&gt;org.springframework -->
<g id="edge26" class="edge">
<title>com.example&#45;&gt;org.springframework</title>
<path fill="none" stroke="black" d="M792.03,-328.25C676.17,-328.25 379.56,-328.25 379.56,-328.25 379.56,-328.25 379.56,-70.22 379.56,-70.22"/>
<polygon fill="black" stroke="black" points="383.06,-70.22 379.56,-60.22 376.06,-70.22 383.06,-70.22"/>
</g>
<!-- org.mybatis -->
<g id="node12" class="node">
<title>org.mybatis</title>
<polygon fill="lightgrey" stroke="black" points="962.25,-274.25 881,-274.25 881,-270.25 877,-270.25 877,-266.25 881,-266.25 881,-246.25 877,-246.25 877,-242.25 881,-242.25 881,-238.25 962.25,-238.25 962.25,-274.25"/>
<polyline fill="none" stroke="black" points="881,-270.25 885,-270.25 885,-266.25 881,-266.25"/>
<polyline fill="none" stroke="black" points="881,-246.25 885,-246.25 885,-242.25 881,-242.25"/>
<text text-anchor="middle" x="921.62" y="-251.2" font-family="Times New Roman,serif" font-size="14.00">org.mybatis</text>
</g>
<!-- com.example&#45;&gt;org.mybatis -->
<g id="edge9" class="edge">
<title>com.example&#45;&gt;org.mybatis</title>
<path fill="none" stroke="black" d="M874.96,-310.08C874.96,-288.75 874.96,-256.25 874.96,-256.25 874.96,-256.25 875.53,-256.25 875.53,-256.25"/>
<polygon fill="black" stroke="black" points="869.17,-259.75 879.17,-256.25 869.17,-252.75 869.17,-259.75"/>
</g>
<!-- com.example&#45;&gt;jakarta.servlet -->
<g id="edge16" class="edge">
<title>com.example&#45;&gt;jakarta.servlet</title>
<path fill="none" stroke="black" d="M868.92,-310.01C868.92,-271.26 868.92,-184.25 868.92,-184.25 868.92,-184.25 899.42,-184.25 899.42,-184.25"/>
<polygon fill="black" stroke="black" points="899.42,-187.75 909.42,-184.25 899.42,-180.75 899.42,-187.75"/>
</g>
</g>
</svg>
