<?xml version="1.0" encoding="UTF-8" standalone="no"?>
<!DOCTYPE svg PUBLIC "-//W3C//DTD SVG 1.1//EN"
 "http://www.w3.org/Graphics/SVG/1.1/DTD/svg11.dtd">
<!-- Generated by graphviz version 12.2.0 (20241103.1931)
 -->
<!-- Title: 区分図 Pages: 1 -->
<svg width="1404pt" height="1148pt"
 viewBox="0.00 0.00 1404.38 1147.59" xmlns="http://www.w3.org/2000/svg" xmlns:xlink="http://www.w3.org/1999/xlink">
<g id="graph0" class="graph" transform="scale(1 1) rotate(0) translate(4 1121.34)">
<title>区分図</title>
<polygon fill="white" stroke="none" points="-4,26.25 -4,-1121.34 1400.38,-1121.34 1400.38,26.25 -4,26.25"/>
<text text-anchor="middle" x="698.19" y="17.3" font-family="Times New Roman,serif" font-size="14.00">区分図</text>
<g id="clust1" class="cluster">
<title>cluster_com.example.sms.domain.type</title>
<polygon fill="none" stroke="lightgray" points="1078.5,0 1078.5,-265.5 1396.38,-265.5 1396.38,0 1078.5,0"/>
<text text-anchor="middle" x="1237.44" y="-248.2" font-family="Times New Roman,serif" font-size="14.00">type</text>
</g>
<g id="clust2" class="cluster">
<title>cluster_com.example.sms.domain.type.quantity</title>
<polygon fill="none" stroke="lightgray" points="1086.5,-8 1086.5,-233 1228,-233 1228,-8 1086.5,-8"/>
<text text-anchor="middle" x="1157.25" y="-215.7" font-family="Times New Roman,serif" font-size="14.00">quantity</text>
</g>
<g id="clust3" class="cluster">
<title>cluster_com.example.sms.domain.type.money</title>
<polygon fill="none" stroke="lightgray" points="1266.13,-8.12 1266.13,-158.87 1388.38,-158.87 1388.38,-8.12 1266.13,-8.12"/>
<text text-anchor="middle" x="1327.25" y="-141.57" font-family="Times New Roman,serif" font-size="14.00">money</text>
</g>
<g id="clust4" class="cluster">
<title>cluster_com.example.sms.domain.model</title>
<polygon fill="none" stroke="lightgray" points="0,-154.16 0,-1117.34 938.88,-1117.34 938.88,-154.16 0,-154.16"/>
<text text-anchor="middle" x="469.44" y="-1100.04" font-family="Times New Roman,serif" font-size="14.00">model</text>
</g>
<g id="clust5" class="cluster">
<title>cluster_com.example.sms.domain.model.system</title>
<polygon fill="none" stroke="lightgray" points="820.38,-916.09 820.38,-1084.84 930.87,-1084.84 930.87,-916.09 820.38,-916.09"/>
<text text-anchor="middle" x="875.62" y="-1067.54" font-family="Times New Roman,serif" font-size="14.00">system</text>
</g>
<g id="clust6" class="cluster">
<title>cluster_com.example.sms.domain.model.system.user</title>
<polygon fill="none" stroke="lightgray" points="828.37,-924.09 828.37,-1052.34 922.87,-1052.34 922.87,-924.09 828.37,-924.09"/>
<text text-anchor="middle" x="875.62" y="-1035.04" font-family="Times New Roman,serif" font-size="14.00">user</text>
</g>
<g id="clust7" class="cluster">
<title>cluster_com.example.sms.domain.model.master</title>
<polygon fill="none" stroke="lightgray" points="8,-162.16 8,-792.78 867.25,-792.78 867.25,-162.16 8,-162.16"/>
<text text-anchor="middle" x="437.62" y="-775.48" font-family="Times New Roman,serif" font-size="14.00">master</text>
</g>
<g id="clust8" class="cluster">
<title>cluster_com.example.sms.domain.model.master.department</title>
<polygon fill="none" stroke="lightgray" points="575.12,-170.16 575.12,-418.41 859.25,-418.41 859.25,-170.16 575.12,-170.16"/>
<text text-anchor="middle" x="717.19" y="-401.11" font-family="Times New Roman,serif" font-size="14.00">department</text>
</g>
<g id="clust9" class="cluster">
<title>cluster_com.example.sms.domain.model.master.product</title>
<polygon fill="none" stroke="lightgray" points="16,-256.28 16,-760.28 478.38,-760.28 478.38,-256.28 16,-256.28"/>
<text text-anchor="middle" x="247.19" y="-742.98" font-family="Times New Roman,serif" font-size="14.00">product</text>
</g>
<!-- com.example.sms.domain.type.quantity.UnitType -->
<g id="node1" class="node">
<title>com.example.sms.domain.type.quantity.UnitType</title>
<g id="a_node1"><a xlink:href="./enum.html#com.example.sms.domain.type.quantity.UnitType" xlink:title="&lt;TABLE&gt;">
<polygon fill="lemonchiffon" stroke="black" points="1220,-200.5 1094.5,-200.5 1094.5,-16 1220,-16 1220,-200.5"/>
<text text-anchor="start" x="1122.75" y="-181.2" font-family="Times New Roman,serif" font-size="14.00">単位区分</text>
<text text-anchor="start" x="1131.75" y="-164.7" font-family="Times New Roman,serif" font-size="14.00">UnitType</text>
<polygon fill="none" stroke="black" points="1102.5,-141.5 1102.5,-161.75 1212,-161.75 1212,-141.5 1102.5,-141.5"/>
<text text-anchor="start" x="1148.62" y="-145.45" font-family="Times New Roman,serif" font-size="14.00">個</text>
<polygon fill="none" stroke="black" points="1102.5,-121.25 1102.5,-141.5 1212,-141.5 1212,-121.25 1102.5,-121.25"/>
<text text-anchor="start" x="1131.38" y="-125.2" font-family="Times New Roman,serif" font-size="14.00">グラム</text>
<polygon fill="none" stroke="black" points="1102.5,-101 1102.5,-121.25 1212,-121.25 1212,-101 1102.5,-101"/>
<text text-anchor="start" x="1105.5" y="-104.95" font-family="Times New Roman,serif" font-size="14.00">ミリリットル</text>
<polygon fill="none" stroke="black" points="1102.5,-80.75 1102.5,-101 1212,-101 1212,-80.75 1102.5,-80.75"/>
<text text-anchor="start" x="1131.38" y="-84.7" font-family="Times New Roman,serif" font-size="14.00">パック</text>
<polygon fill="none" stroke="black" points="1102.5,-60.5 1102.5,-80.75 1212,-80.75 1212,-60.5 1102.5,-60.5"/>
<text text-anchor="start" x="1148.62" y="-64.45" font-family="Times New Roman,serif" font-size="14.00">本</text>
<polygon fill="none" stroke="black" points="1102.5,-40.25 1102.5,-60.5 1212,-60.5 1212,-40.25 1102.5,-40.25"/>
<text text-anchor="start" x="1131.38" y="-44.2" font-family="Times New Roman,serif" font-size="14.00">セット</text>
<polygon fill="none" stroke="black" points="1102.5,-20 1102.5,-40.25 1212,-40.25 1212,-20 1102.5,-20"/>
<text text-anchor="start" x="1131.38" y="-23.95" font-family="Times New Roman,serif" font-size="14.00">その他</text>
</a>
</g>
</g>
<!-- com.example.sms.domain.type.money.CurrencyType -->
<g id="node2" class="node">
<title>com.example.sms.domain.type.money.CurrencyType</title>
<g id="a_node2"><a xlink:href="./enum.html#com.example.sms.domain.type.money.CurrencyType" xlink:title="&lt;TABLE&gt;">
<polygon fill="lemonchiffon" stroke="black" points="1380.38,-126.37 1274.12,-126.37 1274.12,-16.12 1380.38,-16.12 1380.38,-126.37"/>
<text text-anchor="start" x="1284.12" y="-107.07" font-family="Times New Roman,serif" font-size="14.00">通貨タイプ</text>
<text text-anchor="start" x="1288.62" y="-90.57" font-family="Times New Roman,serif" font-size="14.00">CurrencyType</text>
<polygon fill="none" stroke="black" points="1282.12,-65.12 1282.12,-87.62 1372.38,-87.62 1372.38,-65.12 1282.12,-65.12"/>
<text text-anchor="start" x="1316" y="-71.32" font-family="Times New Roman,serif" font-size="14.00">JPY</text>
<polygon fill="none" stroke="black" points="1282.12,-42.62 1282.12,-65.12 1372.38,-65.12 1372.38,-42.62 1282.12,-42.62"/>
<text text-anchor="start" x="1313.75" y="-48.82" font-family="Times New Roman,serif" font-size="14.00">USD</text>
<polygon fill="none" stroke="black" points="1282.12,-20.12 1282.12,-42.62 1372.38,-42.62 1372.38,-20.12 1282.12,-20.12"/>
<text text-anchor="start" x="1314.12" y="-26.32" font-family="Times New Roman,serif" font-size="14.00">CHF</text>
</a>
</g>
</g>
<!-- com.example.sms.domain.model.system.user.RoleName -->
<g id="node3" class="node">
<title>com.example.sms.domain.model.system.user.RoleName</title>
<g id="a_node3"><a xlink:href="./enum.html#com.example.sms.domain.model.system.user.RoleName" xlink:title="&lt;TABLE&gt;">
<polygon fill="lemonchiffon" stroke="black" points="914.87,-1019.84 836.37,-1019.84 836.37,-932.09 914.87,-932.09 914.87,-1019.84"/>
<text text-anchor="start" x="858.37" y="-1000.54" font-family="Times New Roman,serif" font-size="14.00">役割</text>
<text text-anchor="start" x="846.37" y="-984.04" font-family="Times New Roman,serif" font-size="14.00">RoleName</text>
<polygon fill="none" stroke="black" points="844.37,-958.59 844.37,-981.09 906.87,-981.09 906.87,-958.59 844.37,-958.59"/>
<text text-anchor="start" x="852.37" y="-964.79" font-family="Times New Roman,serif" font-size="14.00">ADMIN</text>
<polygon fill="none" stroke="black" points="844.37,-936.09 844.37,-958.59 906.87,-958.59 906.87,-936.09 844.37,-936.09"/>
<text text-anchor="start" x="858.37" y="-942.29" font-family="Times New Roman,serif" font-size="14.00">USER</text>
</a>
</g>
</g>
<!-- com.example.sms.domain.model.master.department.SlitYnType -->
<g id="node4" class="node">
<title>com.example.sms.domain.model.master.department.SlitYnType</title>
<g id="a_node4"><a xlink:href="./enum.html#com.example.sms.domain.model.master.department.SlitYnType" xlink:title="&lt;TABLE&gt;">
<polygon fill="#eedd82" stroke="black" points="851.25,-385.91 727.75,-385.91 727.75,-298.16 851.25,-298.16 851.25,-385.91"/>
<text text-anchor="start" x="737.75" y="-366.61" font-family="Times New Roman,serif" font-size="14.00">伝票入力可否</text>
<text text-anchor="start" x="758.37" y="-350.11" font-family="Times New Roman,serif" font-size="14.00">SlitYnType</text>
<polygon fill="none" stroke="black" points="735.75,-324.66 735.75,-347.16 843.25,-347.16 843.25,-324.66 735.75,-324.66"/>
<text text-anchor="start" x="758" y="-330.86" font-family="Times New Roman,serif" font-size="14.00">NOT_SLIT</text>
<polygon fill="none" stroke="black" points="735.75,-302.16 735.75,-324.66 843.25,-324.66 843.25,-302.16 735.75,-302.16"/>
<text text-anchor="start" x="775.25" y="-308.36" font-family="Times New Roman,serif" font-size="14.00">SLIT</text>
</a>
</g>
</g>
<!-- com.example.sms.domain.model.master.department.DepartmentLowerType -->
<g id="node5" class="node">
<title>com.example.sms.domain.model.master.department.DepartmentLowerType</title>
<g id="a_node5"><a xlink:href="./enum.html#com.example.sms.domain.model.master.department.DepartmentLowerType" xlink:title="&lt;TABLE&gt;">
<polygon fill="#eedd82" stroke="black" points="729.87,-265.91 583.12,-265.91 583.12,-178.16 729.87,-178.16 729.87,-265.91"/>
<text text-anchor="start" x="613.37" y="-246.61" font-family="Times New Roman,serif" font-size="14.00">最下層区分</text>
<text text-anchor="start" x="593.12" y="-230.11" font-family="Times New Roman,serif" font-size="14.00">DepartmentLowerType</text>
<polygon fill="none" stroke="black" points="591.12,-204.66 591.12,-227.16 721.87,-227.16 721.87,-204.66 591.12,-204.66"/>
<text text-anchor="start" x="614.87" y="-210.86" font-family="Times New Roman,serif" font-size="14.00">NOT_LOWER</text>
<polygon fill="none" stroke="black" points="591.12,-182.16 591.12,-204.66 721.87,-204.66 721.87,-182.16 591.12,-182.16"/>
<text text-anchor="start" x="632.12" y="-188.36" font-family="Times New Roman,serif" font-size="14.00">LOWER</text>
</a>
</g>
</g>
<!-- com.example.sms.domain.model.master.product.MiscellaneousType -->
<g id="node6" class="node">
<title>com.example.sms.domain.model.master.product.MiscellaneousType</title>
<g id="a_node6"><a xlink:href="./enum.html#com.example.sms.domain.model.master.product.MiscellaneousType" xlink:title="&lt;TABLE&gt;">
<polygon fill="#eedd82" stroke="black" points="282.38,-371.66 156.63,-371.66 156.63,-288.41 282.38,-288.41 282.38,-371.66"/>
<text text-anchor="start" x="193.63" y="-352.36" font-family="Times New Roman,serif" font-size="14.00">雑区分</text>
<text text-anchor="start" x="166.63" y="-335.86" font-family="Times New Roman,serif" font-size="14.00">MiscellaneousType</text>
<polygon fill="none" stroke="black" points="164.63,-312.66 164.63,-332.91 274.38,-332.91 274.38,-312.66 164.63,-312.66"/>
<text text-anchor="start" x="193.63" y="-316.61" font-family="Times New Roman,serif" font-size="14.00">適用外</text>
<polygon fill="none" stroke="black" points="164.63,-292.41 164.63,-312.66 274.38,-312.66 274.38,-292.41 164.63,-292.41"/>
<text text-anchor="start" x="202.25" y="-296.36" font-family="Times New Roman,serif" font-size="14.00">適用</text>
</a>
</g>
</g>
<!-- com.example.sms.domain.model.master.product.ItemType -->
<g id="node7" class="node">
<title>com.example.sms.domain.model.master.product.ItemType</title>
<g id="a_node7"><a xlink:href="./enum.html#com.example.sms.domain.model.master.product.ItemType" xlink:title="&lt;TABLE&gt;">
<polygon fill="lemonchiffon" stroke="black" points="113,-727.78 24,-727.78 24,-624.28 113,-624.28 113,-727.78"/>
<text text-anchor="start" x="34" y="-708.48" font-family="Times New Roman,serif" font-size="14.00">品目区分</text>
<text text-anchor="start" x="42.25" y="-691.98" font-family="Times New Roman,serif" font-size="14.00">ItemType</text>
<polygon fill="none" stroke="black" points="32,-668.78 32,-689.03 105,-689.03 105,-668.78 32,-668.78"/>
<text text-anchor="start" x="51.25" y="-672.73" font-family="Times New Roman,serif" font-size="14.00">食肉</text>
<polygon fill="none" stroke="black" points="32,-648.53 32,-668.78 105,-668.78 105,-648.53 32,-648.53"/>
<text text-anchor="start" x="42.63" y="-652.48" font-family="Times New Roman,serif" font-size="14.00">水産物</text>
<polygon fill="none" stroke="black" points="32,-628.28 32,-648.53 105,-648.53 105,-628.28 32,-628.28"/>
<text text-anchor="start" x="42.63" y="-632.23" font-family="Times New Roman,serif" font-size="14.00">その他</text>
</a>
</g>
</g>
<!-- com.example.sms.domain.model.master.product.ProductType -->
<g id="node8" class="node">
<title>com.example.sms.domain.model.master.product.ProductType</title>
<g id="a_node8"><a xlink:href="./enum.html#com.example.sms.domain.model.master.product.ProductType" xlink:title="&lt;TABLE&gt;">
<polygon fill="#eedd82" stroke="black" points="233,-649.03 144,-649.03 144,-505.03 233,-505.03 233,-649.03"/>
<text text-anchor="start" x="154" y="-629.73" font-family="Times New Roman,serif" font-size="14.00">商品区分</text>
<text text-anchor="start" x="154" y="-613.23" font-family="Times New Roman,serif" font-size="14.00">ProductType</text>
<polygon fill="none" stroke="black" points="152,-590.03 152,-610.28 225,-610.28 225,-590.03 152,-590.03"/>
<text text-anchor="start" x="171.25" y="-593.98" font-family="Times New Roman,serif" font-size="14.00">商品</text>
<polygon fill="none" stroke="black" points="152,-569.78 152,-590.03 225,-590.03 225,-569.78 152,-569.78"/>
<text text-anchor="start" x="171.25" y="-573.73" font-family="Times New Roman,serif" font-size="14.00">製品</text>
<polygon fill="none" stroke="black" points="152,-549.53 152,-569.78 225,-569.78 225,-549.53 152,-549.53"/>
<text text-anchor="start" x="171.25" y="-553.48" font-family="Times New Roman,serif" font-size="14.00">部品</text>
<polygon fill="none" stroke="black" points="152,-529.28 152,-549.53 225,-549.53 225,-529.28 152,-529.28"/>
<text text-anchor="start" x="171.25" y="-533.23" font-family="Times New Roman,serif" font-size="14.00">包材</text>
<polygon fill="none" stroke="black" points="152,-509.03 152,-529.28 225,-529.28 225,-509.03 152,-509.03"/>
<text text-anchor="start" x="162.63" y="-512.98" font-family="Times New Roman,serif" font-size="14.00">その他</text>
</a>
</g>
</g>
<!-- com.example.sms.domain.model.master.product.BusinessType -->
<g id="node9" class="node">
<title>com.example.sms.domain.model.master.product.BusinessType</title>
<g id="a_node9"><a xlink:href="./enum.html#com.example.sms.domain.model.master.product.BusinessType" xlink:title="&lt;TABLE&gt;">
<polygon fill="lemonchiffon" stroke="black" points="132.63,-367.78 24.38,-367.78 24.38,-264.28 132.63,-264.28 132.63,-367.78"/>
<text text-anchor="start" x="44" y="-348.48" font-family="Times New Roman,serif" font-size="14.00">事業区分</text>
<text text-anchor="start" x="41" y="-331.98" font-family="Times New Roman,serif" font-size="14.00">BusinessType</text>
<polygon fill="none" stroke="black" points="32.38,-308.78 32.38,-329.03 124.63,-329.03 124.63,-308.78 32.38,-308.78"/>
<text text-anchor="start" x="35.38" y="-312.73" font-family="Times New Roman,serif" font-size="14.00">生鮮食料品</text>
<polygon fill="none" stroke="black" points="32.38,-288.53 32.38,-308.78 124.63,-308.78 124.63,-288.53 32.38,-288.53"/>
<text text-anchor="start" x="61.25" y="-292.48" font-family="Times New Roman,serif" font-size="14.00">缶詰</text>
<polygon fill="none" stroke="black" points="32.38,-268.28 32.38,-288.53 124.63,-288.53 124.63,-268.28 32.38,-268.28"/>
<text text-anchor="start" x="52.63" y="-272.23" font-family="Times New Roman,serif" font-size="14.00">その他</text>
</a>
</g>
</g>
<!-- com.example.sms.domain.model.master.product.StockAllocationType -->
<g id="node10" class="node">
<title>com.example.sms.domain.model.master.product.StockAllocationType</title>
<g id="a_node10"><a xlink:href="./enum.html#com.example.sms.domain.model.master.product.StockAllocationType" xlink:title="&lt;TABLE&gt;">
<polygon fill="#eedd82" stroke="black" points="458.88,-407.66 324.12,-407.66 324.12,-324.41 458.88,-324.41 458.88,-407.66"/>
<text text-anchor="start" x="339.75" y="-388.36" font-family="Times New Roman,serif" font-size="14.00">在庫引当区分</text>
<text text-anchor="start" x="334.12" y="-371.86" font-family="Times New Roman,serif" font-size="14.00">StockAllocationType</text>
<polygon fill="none" stroke="black" points="332.12,-348.66 332.12,-368.91 450.88,-368.91 450.88,-348.66 332.12,-348.66"/>
<text text-anchor="start" x="365.62" y="-352.61" font-family="Times New Roman,serif" font-size="14.00">未引当</text>
<polygon fill="none" stroke="black" points="332.12,-328.41 332.12,-348.66 450.88,-348.66 450.88,-328.41 332.12,-328.41"/>
<text text-anchor="start" x="365.62" y="-332.36" font-family="Times New Roman,serif" font-size="14.00">引当済</text>
</a>
</g>
</g>
<!-- com.example.sms.domain.model.master.product.LiveStockType -->
<g id="node11" class="node">
<title>com.example.sms.domain.model.master.product.LiveStockType</title>
<g id="a_node11"><a xlink:href="./enum.html#com.example.sms.domain.model.master.product.LiveStockType" xlink:title="&lt;TABLE&gt;">
<polygon fill="lemonchiffon" stroke="black" points="366.75,-649.03 264.25,-649.03 264.25,-505.03 366.75,-505.03 366.75,-649.03"/>
<text text-anchor="start" x="281" y="-629.73" font-family="Times New Roman,serif" font-size="14.00">畜産区分</text>
<text text-anchor="start" x="274.25" y="-613.23" font-family="Times New Roman,serif" font-size="14.00">LiveStockType</text>
<polygon fill="none" stroke="black" points="272.25,-590.03 272.25,-610.28 358.75,-610.28 358.75,-590.03 272.25,-590.03"/>
<text text-anchor="start" x="298.25" y="-593.98" font-family="Times New Roman,serif" font-size="14.00">牛肉</text>
<polygon fill="none" stroke="black" points="272.25,-569.78 272.25,-590.03 358.75,-590.03 358.75,-569.78 272.25,-569.78"/>
<text text-anchor="start" x="298.25" y="-573.73" font-family="Times New Roman,serif" font-size="14.00">豚肉</text>
<polygon fill="none" stroke="black" points="272.25,-549.53 272.25,-569.78 358.75,-569.78 358.75,-549.53 272.25,-549.53"/>
<text text-anchor="start" x="289.62" y="-553.48" font-family="Times New Roman,serif" font-size="14.00">まぐろ</text>
<polygon fill="none" stroke="black" points="272.25,-529.28 272.25,-549.53 358.75,-549.53 358.75,-529.28 272.25,-529.28"/>
<text text-anchor="start" x="298.25" y="-533.23" font-family="Times New Roman,serif" font-size="14.00">えび</text>
<polygon fill="none" stroke="black" points="272.25,-509.03 272.25,-529.28 358.75,-529.28 358.75,-509.03 272.25,-509.03"/>
<text text-anchor="start" x="289.62" y="-512.98" font-family="Times New Roman,serif" font-size="14.00">その他</text>
</a>
</g>
</g>
<!-- com.example.sms.domain.model.master.product.TaxType -->
<g id="node12" class="node">
<title>com.example.sms.domain.model.master.product.TaxType</title>
<g id="a_node12"><a xlink:href="./enum.html#com.example.sms.domain.model.master.product.TaxType" xlink:title="&lt;TABLE&gt;">
<polygon fill="#eedd82" stroke="black" points="470.38,-556.91 396.63,-556.91 396.63,-433.16 470.38,-433.16 470.38,-556.91"/>
<text text-anchor="start" x="407.63" y="-537.61" font-family="Times New Roman,serif" font-size="14.00">税区分</text>
<text text-anchor="start" x="409.88" y="-521.11" font-family="Times New Roman,serif" font-size="14.00">TaxType</text>
<polygon fill="none" stroke="black" points="404.63,-497.91 404.63,-518.16 462.38,-518.16 462.38,-497.91 404.63,-497.91"/>
<text text-anchor="start" x="416.25" y="-501.86" font-family="Times New Roman,serif" font-size="14.00">外税</text>
<polygon fill="none" stroke="black" points="404.63,-477.66 404.63,-497.91 462.38,-497.91 462.38,-477.66 404.63,-477.66"/>
<text text-anchor="start" x="416.25" y="-481.61" font-family="Times New Roman,serif" font-size="14.00">内税</text>
<polygon fill="none" stroke="black" points="404.63,-457.41 404.63,-477.66 462.38,-477.66 462.38,-457.41 404.63,-457.41"/>
<text text-anchor="start" x="407.63" y="-461.36" font-family="Times New Roman,serif" font-size="14.00">非課税</text>
<polygon fill="none" stroke="black" points="404.63,-437.16 404.63,-457.41 462.38,-457.41 462.38,-437.16 404.63,-437.16"/>
<text text-anchor="start" x="407.63" y="-441.11" font-family="Times New Roman,serif" font-size="14.00">その他</text>
</a>
</g>
</g>
<!-- com.example.sms.domain.model.master.product.StockManagementTargetType -->
<g id="node13" class="node">
<title>com.example.sms.domain.model.master.product.StockManagementTargetType</title>
<g id="a_node13"><a xlink:href="./enum.html#com.example.sms.domain.model.master.product.StockManagementTargetType" xlink:title="&lt;TABLE&gt;">
<polygon fill="#eedd82" stroke="black" points="292.62,-479.66 108.38,-479.66 108.38,-396.41 292.62,-396.41 292.62,-479.66"/>
<text text-anchor="start" x="131.5" y="-460.36" font-family="Times New Roman,serif" font-size="14.00">在庫管理対象区分</text>
<text text-anchor="start" x="118.38" y="-443.86" font-family="Times New Roman,serif" font-size="14.00">StockManagementTargetType</text>
<polygon fill="none" stroke="black" points="116.38,-420.66 116.38,-440.91 284.62,-440.91 284.62,-420.66 116.38,-420.66"/>
<text text-anchor="start" x="174.63" y="-424.61" font-family="Times New Roman,serif" font-size="14.00">対象外</text>
<polygon fill="none" stroke="black" points="116.38,-400.41 116.38,-420.66 284.62,-420.66 284.62,-400.41 116.38,-400.41"/>
<text text-anchor="start" x="183.25" y="-404.36" font-family="Times New Roman,serif" font-size="14.00">対象</text>
</a>
</g>
</g>
</g>
</svg>
