<?xml version="1.0" encoding="UTF-8" standalone="no"?>
<!DOCTYPE svg PUBLIC "-//W3C//DTD SVG 1.1//EN"
 "http://www.w3.org/Graphics/SVG/1.1/DTD/svg11.dtd">
<!-- Generated by graphviz version 12.1.2 (20240928.0832)
 -->
<!-- Title: 区分図 Pages: 1 -->
<svg width="796pt" height="762pt"
 viewBox="0.00 0.00 796.12 762.25" xmlns="http://www.w3.org/2000/svg" xmlns:xlink="http://www.w3.org/1999/xlink">
<g id="graph0" class="graph" transform="scale(1 1) rotate(0) translate(4 735.25)">
<title>区分図</title>
<polygon fill="white" stroke="none" points="-4,27 -4,-735.25 792.12,-735.25 792.12,27 -4,27"/>
<text text-anchor="middle" x="394.06" y="17.3" font-family="Times,serif" font-size="14.00">区分図</text>
<g id="clust1" class="cluster">
<title>cluster_com.example.sms.domain.type.user</title>
<polygon fill="none" stroke="lightgray" points="203.13,-580 203.13,-709 297.62,-709 297.62,-580 203.13,-580"/>
<text text-anchor="middle" x="250.38" y="-691.7" font-family="Times,serif" font-size="14.00">user</text>
</g>
<g id="clust2" class="cluster">
<title>cluster_com.example.sms.domain.type.quantity</title>
<polygon fill="none" stroke="lightgray" points="522,-319 522,-550 644.75,-550 644.75,-319 522,-319"/>
<text text-anchor="middle" x="583.38" y="-532.7" font-family="Times,serif" font-size="14.00">quantity</text>
</g>
<g id="clust3" class="cluster">
<title>cluster_com.example.sms.domain.type.product</title>
<polygon fill="none" stroke="lightgray" points="0,-28.75 0,-520.25 466.75,-520.25 466.75,-28.75 0,-28.75"/>
<text text-anchor="middle" x="233.38" y="-502.95" font-family="Times,serif" font-size="14.00">product</text>
</g>
<g id="clust4" class="cluster">
<title>cluster_com.example.sms.domain.type.money</title>
<polygon fill="none" stroke="lightgray" points="348.38,-579.75 348.38,-731.25 462.38,-731.25 462.38,-579.75 348.38,-579.75"/>
<text text-anchor="middle" x="405.38" y="-713.95" font-family="Times,serif" font-size="14.00">money</text>
</g>
<g id="clust5" class="cluster">
<title>cluster_com.example.sms.domain.type.department</title>
<polygon fill="none" stroke="lightgray" points="522.63,0 522.63,-249 788.13,-249 788.13,0 522.63,0"/>
<text text-anchor="middle" x="655.38" y="-231.7" font-family="Times,serif" font-size="14.00">department</text>
</g>
<!-- com.example.sms.domain.type.user.RoleName -->
<g id="node1" class="node">
<title>com.example.sms.domain.type.user.RoleName</title>
<g id="a_node1"><a xlink:href="./enum.html#com.example.sms.domain.type.user.RoleName" xlink:title="&lt;TABLE&gt;">
<polygon fill="lemonchiffon" stroke="black" points="289.62,-676.5 211.13,-676.5 211.13,-588 289.62,-588 289.62,-676.5"/>
<text text-anchor="start" x="236.13" y="-657.2" font-family="Times,serif" font-size="14.00">役割</text>
<text text-anchor="start" x="221.13" y="-640.7" font-family="Times,serif" font-size="14.00">RoleName</text>
<polygon fill="none" stroke="black" points="219.13,-614.5 219.13,-637 281.62,-637 281.62,-614.5 219.13,-614.5"/>
<text text-anchor="start" x="227.13" y="-620.7" font-family="Times,serif" font-size="14.00">ADMIN</text>
<polygon fill="none" stroke="black" points="219.13,-592 219.13,-614.5 281.62,-614.5 281.62,-592 219.13,-592"/>
<text text-anchor="start" x="233.13" y="-598.2" font-family="Times,serif" font-size="14.00">USER</text>
</a>
</g>
</g>
<!-- com.example.sms.domain.type.quantity.UnitType -->
<g id="node2" class="node">
<title>com.example.sms.domain.type.quantity.UnitType</title>
<g id="a_node2"><a xlink:href="./enum.html#com.example.sms.domain.type.quantity.UnitType" xlink:title="&lt;TABLE&gt;">
<polygon fill="lemonchiffon" stroke="black" points="636.75,-517.5 530,-517.5 530,-327 636.75,-327 636.75,-517.5"/>
<text text-anchor="start" x="554.88" y="-498.2" font-family="Times,serif" font-size="14.00">単位区分</text>
<text text-anchor="start" x="557.5" y="-481.7" font-family="Times,serif" font-size="14.00">UnitType</text>
<polygon fill="none" stroke="black" points="538,-457 538,-478 628.75,-478 628.75,-457 538,-457"/>
<text text-anchor="start" x="576.25" y="-461.7" font-family="Times,serif" font-size="14.00">個</text>
<polygon fill="none" stroke="black" points="538,-436 538,-457 628.75,-457 628.75,-436 538,-436"/>
<text text-anchor="start" x="562.38" y="-440.7" font-family="Times,serif" font-size="14.00">グラム</text>
<polygon fill="none" stroke="black" points="538,-415 538,-436 628.75,-436 628.75,-415 538,-415"/>
<text text-anchor="start" x="541" y="-419.7" font-family="Times,serif" font-size="14.00">ミリリットル</text>
<polygon fill="none" stroke="black" points="538,-394 538,-415 628.75,-415 628.75,-394 538,-394"/>
<text text-anchor="start" x="562" y="-398.7" font-family="Times,serif" font-size="14.00">パック</text>
<polygon fill="none" stroke="black" points="538,-373 538,-394 628.75,-394 628.75,-373 538,-373"/>
<text text-anchor="start" x="576.25" y="-377.7" font-family="Times,serif" font-size="14.00">本</text>
<polygon fill="none" stroke="black" points="538,-352 538,-373 628.75,-373 628.75,-352 538,-352"/>
<text text-anchor="start" x="562" y="-356.7" font-family="Times,serif" font-size="14.00">セット</text>
<polygon fill="none" stroke="black" points="538,-331 538,-352 628.75,-352 628.75,-331 538,-331"/>
<text text-anchor="start" x="562" y="-335.7" font-family="Times,serif" font-size="14.00">その他</text>
</a>
</g>
</g>
<!-- com.example.sms.domain.type.product.LiveStockType -->
<g id="node3" class="node">
<title>com.example.sms.domain.type.product.LiveStockType</title>
<g id="a_node3"><a xlink:href="./enum.html#com.example.sms.domain.type.product.LiveStockType" xlink:title="&lt;TABLE&gt;">
<polygon fill="lemonchiffon" stroke="black" points="387.12,-437.25 283.87,-437.25 283.87,-288.75 387.12,-288.75 387.12,-437.25"/>
<text text-anchor="start" x="307" y="-417.95" font-family="Times,serif" font-size="14.00">畜産区分</text>
<text text-anchor="start" x="293.87" y="-401.45" font-family="Times,serif" font-size="14.00">LiveStockType</text>
<polygon fill="none" stroke="black" points="291.87,-376.75 291.87,-397.75 379.12,-397.75 379.12,-376.75 291.87,-376.75"/>
<text text-anchor="start" x="321.25" y="-381.45" font-family="Times,serif" font-size="14.00">牛肉</text>
<polygon fill="none" stroke="black" points="291.87,-355.75 291.87,-376.75 379.12,-376.75 379.12,-355.75 291.87,-355.75"/>
<text text-anchor="start" x="321.25" y="-360.45" font-family="Times,serif" font-size="14.00">豚肉</text>
<polygon fill="none" stroke="black" points="291.87,-334.75 291.87,-355.75 379.12,-355.75 379.12,-334.75 291.87,-334.75"/>
<text text-anchor="start" x="314.5" y="-339.45" font-family="Times,serif" font-size="14.00">まぐろ</text>
<polygon fill="none" stroke="black" points="291.87,-313.75 291.87,-334.75 379.12,-334.75 379.12,-313.75 291.87,-313.75"/>
<text text-anchor="start" x="321.25" y="-318.45" font-family="Times,serif" font-size="14.00">えび</text>
<polygon fill="none" stroke="black" points="291.87,-292.75 291.87,-313.75 379.12,-313.75 379.12,-292.75 291.87,-292.75"/>
<text text-anchor="start" x="314.12" y="-297.45" font-family="Times,serif" font-size="14.00">その他</text>
</a>
</g>
</g>
<!-- com.example.sms.domain.type.product.BusinessType -->
<g id="node4" class="node">
<title>com.example.sms.domain.type.product.BusinessType</title>
<g id="a_node4"><a xlink:href="./enum.html#com.example.sms.domain.type.product.BusinessType" xlink:title="&lt;TABLE&gt;">
<polygon fill="lemonchiffon" stroke="black" points="308.38,-143.25 212.62,-143.25 212.62,-36.75 308.38,-36.75 308.38,-143.25"/>
<text text-anchor="start" x="232" y="-123.95" font-family="Times,serif" font-size="14.00">事業区分</text>
<text text-anchor="start" x="222.62" y="-107.45" font-family="Times,serif" font-size="14.00">BusinessType</text>
<polygon fill="none" stroke="black" points="220.62,-82.75 220.62,-103.75 300.38,-103.75 300.38,-82.75 220.62,-82.75"/>
<text text-anchor="start" x="224.88" y="-87.45" font-family="Times,serif" font-size="14.00">生鮮食料品</text>
<polygon fill="none" stroke="black" points="220.62,-61.75 220.62,-82.75 300.38,-82.75 300.38,-61.75 220.62,-61.75"/>
<text text-anchor="start" x="246.25" y="-66.45" font-family="Times,serif" font-size="14.00">缶詰</text>
<polygon fill="none" stroke="black" points="220.62,-40.75 220.62,-61.75 300.38,-61.75 300.38,-40.75 220.62,-40.75"/>
<text text-anchor="start" x="239.12" y="-45.45" font-family="Times,serif" font-size="14.00">その他</text>
</a>
</g>
</g>
<!-- com.example.sms.domain.type.product.ItemType -->
<g id="node5" class="node">
<title>com.example.sms.domain.type.product.ItemType</title>
<g id="a_node5"><a xlink:href="./enum.html#com.example.sms.domain.type.product.ItemType" xlink:title="&lt;TABLE&gt;">
<polygon fill="lemonchiffon" stroke="black" points="85,-323.25 8,-323.25 8,-216.75 85,-216.75 85,-323.25"/>
<text text-anchor="start" x="18" y="-303.95" font-family="Times,serif" font-size="14.00">品目区分</text>
<text text-anchor="start" x="19.87" y="-287.45" font-family="Times,serif" font-size="14.00">ItemType</text>
<polygon fill="none" stroke="black" points="16,-262.75 16,-283.75 77,-283.75 77,-262.75 16,-262.75"/>
<text text-anchor="start" x="32.25" y="-267.45" font-family="Times,serif" font-size="14.00">食肉</text>
<polygon fill="none" stroke="black" points="16,-241.75 16,-262.75 77,-262.75 77,-241.75 16,-241.75"/>
<text text-anchor="start" x="25.12" y="-246.45" font-family="Times,serif" font-size="14.00">水産物</text>
<polygon fill="none" stroke="black" points="16,-220.75 16,-241.75 77,-241.75 77,-220.75 16,-220.75"/>
<text text-anchor="start" x="25.12" y="-225.45" font-family="Times,serif" font-size="14.00">その他</text>
</a>
</g>
</g>
<!-- com.example.sms.domain.type.product.ProductType -->
<g id="node6" class="node">
<title>com.example.sms.domain.type.product.ProductType</title>
<g id="a_node6"><a xlink:href="./enum.html#com.example.sms.domain.type.product.ProductType" xlink:title="&lt;TABLE&gt;">
<polygon fill="#eedd82" stroke="black" points="254.38,-437.25 164.62,-437.25 164.62,-288.75 254.38,-288.75 254.38,-437.25"/>
<text text-anchor="start" x="181" y="-417.95" font-family="Times,serif" font-size="14.00">商品区分</text>
<text text-anchor="start" x="174.62" y="-401.45" font-family="Times,serif" font-size="14.00">ProductType</text>
<polygon fill="none" stroke="black" points="172.62,-376.75 172.62,-397.75 246.38,-397.75 246.38,-376.75 172.62,-376.75"/>
<text text-anchor="start" x="195.25" y="-381.45" font-family="Times,serif" font-size="14.00">商品</text>
<polygon fill="none" stroke="black" points="172.62,-355.75 172.62,-376.75 246.38,-376.75 246.38,-355.75 172.62,-355.75"/>
<text text-anchor="start" x="195.25" y="-360.45" font-family="Times,serif" font-size="14.00">製品</text>
<polygon fill="none" stroke="black" points="172.62,-334.75 172.62,-355.75 246.38,-355.75 246.38,-334.75 172.62,-334.75"/>
<text text-anchor="start" x="195.25" y="-339.45" font-family="Times,serif" font-size="14.00">部品</text>
<polygon fill="none" stroke="black" points="172.62,-313.75 172.62,-334.75 246.38,-334.75 246.38,-313.75 172.62,-313.75"/>
<text text-anchor="start" x="195.25" y="-318.45" font-family="Times,serif" font-size="14.00">包材</text>
<polygon fill="none" stroke="black" points="172.62,-292.75 172.62,-313.75 246.38,-313.75 246.38,-292.75 172.62,-292.75"/>
<text text-anchor="start" x="188.12" y="-297.45" font-family="Times,serif" font-size="14.00">その他</text>
</a>
</g>
</g>
<!-- com.example.sms.domain.type.product.MiscellaneousType -->
<g id="node7" class="node">
<title>com.example.sms.domain.type.product.MiscellaneousType</title>
<g id="a_node7"><a xlink:href="./enum.html#com.example.sms.domain.type.product.MiscellaneousType" xlink:title="&lt;TABLE&gt;">
<polygon fill="#eedd82" stroke="black" points="458.75,-181.75 332.25,-181.75 332.25,-96.25 458.75,-96.25 458.75,-181.75"/>
<text text-anchor="start" x="374.12" y="-162.45" font-family="Times,serif" font-size="14.00">雑区分</text>
<text text-anchor="start" x="342.25" y="-145.95" font-family="Times,serif" font-size="14.00">MiscellaneousType</text>
<polygon fill="none" stroke="black" points="340.25,-121.25 340.25,-142.25 450.75,-142.25 450.75,-121.25 340.25,-121.25"/>
<text text-anchor="start" x="374.12" y="-125.95" font-family="Times,serif" font-size="14.00">適用外</text>
<polygon fill="none" stroke="black" points="340.25,-100.25 340.25,-121.25 450.75,-121.25 450.75,-100.25 340.25,-100.25"/>
<text text-anchor="start" x="381.25" y="-104.95" font-family="Times,serif" font-size="14.00">適用</text>
</a>
</g>
</g>
<!-- com.example.sms.domain.type.product.TaxType -->
<g id="node8" class="node">
<title>com.example.sms.domain.type.product.TaxType</title>
<g id="a_node8"><a xlink:href="./enum.html#com.example.sms.domain.type.product.TaxType" xlink:title="&lt;TABLE&gt;">
<polygon fill="#eedd82" stroke="black" points="136.88,-487.75 68.12,-487.75 68.12,-360.25 136.88,-360.25 136.88,-487.75"/>
<text text-anchor="start" x="81.12" y="-468.45" font-family="Times,serif" font-size="14.00">税区分</text>
<text text-anchor="start" x="78.12" y="-451.95" font-family="Times,serif" font-size="14.00">TaxType</text>
<polygon fill="none" stroke="black" points="76.12,-427.25 76.12,-448.25 128.88,-448.25 128.88,-427.25 76.12,-427.25"/>
<text text-anchor="start" x="88.25" y="-431.95" font-family="Times,serif" font-size="14.00">外税</text>
<polygon fill="none" stroke="black" points="76.12,-406.25 76.12,-427.25 128.88,-427.25 128.88,-406.25 76.12,-406.25"/>
<text text-anchor="start" x="88.25" y="-410.95" font-family="Times,serif" font-size="14.00">内税</text>
<polygon fill="none" stroke="black" points="76.12,-385.25 76.12,-406.25 128.88,-406.25 128.88,-385.25 76.12,-385.25"/>
<text text-anchor="start" x="81.12" y="-389.95" font-family="Times,serif" font-size="14.00">非課税</text>
<polygon fill="none" stroke="black" points="76.12,-364.25 76.12,-385.25 128.88,-385.25 128.88,-364.25 76.12,-364.25"/>
<text text-anchor="start" x="81.12" y="-368.95" font-family="Times,serif" font-size="14.00">その他</text>
</a>
</g>
</g>
<!-- com.example.sms.domain.type.product.StockAllocationType -->
<g id="node9" class="node">
<title>com.example.sms.domain.type.product.StockAllocationType</title>
<g id="a_node9"><a xlink:href="./enum.html#com.example.sms.domain.type.product.StockAllocationType" xlink:title="&lt;TABLE&gt;">
<polygon fill="#eedd82" stroke="black" points="180.25,-133.75 44.75,-133.75 44.75,-48.25 180.25,-48.25 180.25,-133.75"/>
<text text-anchor="start" x="69.75" y="-114.45" font-family="Times,serif" font-size="14.00">在庫引当区分</text>
<text text-anchor="start" x="54.75" y="-97.95" font-family="Times,serif" font-size="14.00">StockAllocationType</text>
<polygon fill="none" stroke="black" points="52.75,-73.25 52.75,-94.25 172.25,-94.25 172.25,-73.25 52.75,-73.25"/>
<text text-anchor="start" x="91.12" y="-77.95" font-family="Times,serif" font-size="14.00">未引当</text>
<polygon fill="none" stroke="black" points="52.75,-52.25 52.75,-73.25 172.25,-73.25 172.25,-52.25 52.75,-52.25"/>
<text text-anchor="start" x="91.12" y="-56.95" font-family="Times,serif" font-size="14.00">引当済</text>
</a>
</g>
</g>
<!-- com.example.sms.domain.type.product.StockManagementTargetType -->
<g id="node10" class="node">
<title>com.example.sms.domain.type.product.StockManagementTargetType</title>
<g id="a_node10"><a xlink:href="./enum.html#com.example.sms.domain.type.product.StockManagementTargetType" xlink:title="&lt;TABLE&gt;">
<polygon fill="#eedd82" stroke="black" points="302.38,-253.75 116.62,-253.75 116.62,-168.25 302.38,-168.25 302.38,-253.75"/>
<text text-anchor="start" x="152.5" y="-234.45" font-family="Times,serif" font-size="14.00">在庫管理対象区分</text>
<text text-anchor="start" x="126.62" y="-217.95" font-family="Times,serif" font-size="14.00">StockManagementTargetType</text>
<polygon fill="none" stroke="black" points="124.62,-193.25 124.62,-214.25 294.38,-214.25 294.38,-193.25 124.62,-193.25"/>
<text text-anchor="start" x="188.12" y="-197.95" font-family="Times,serif" font-size="14.00">対象外</text>
<polygon fill="none" stroke="black" points="124.62,-172.25 124.62,-193.25 294.38,-193.25 294.38,-172.25 124.62,-172.25"/>
<text text-anchor="start" x="195.25" y="-176.95" font-family="Times,serif" font-size="14.00">対象</text>
</a>
</g>
</g>
<!-- com.example.sms.domain.type.money.CurrencyType -->
<g id="node11" class="node">
<title>com.example.sms.domain.type.money.CurrencyType</title>
<g id="a_node11"><a xlink:href="./enum.html#com.example.sms.domain.type.money.CurrencyType" xlink:title="&lt;TABLE&gt;">
<polygon fill="lemonchiffon" stroke="black" points="454.38,-698.75 356.38,-698.75 356.38,-587.75 454.38,-587.75 454.38,-698.75"/>
<text text-anchor="start" x="369.75" y="-679.45" font-family="Times,serif" font-size="14.00">通過タイプ</text>
<text text-anchor="start" x="366.38" y="-662.95" font-family="Times,serif" font-size="14.00">CurrencyType</text>
<polygon fill="none" stroke="black" points="364.38,-636.75 364.38,-659.25 446.38,-659.25 446.38,-636.75 364.38,-636.75"/>
<text text-anchor="start" x="394.13" y="-642.95" font-family="Times,serif" font-size="14.00">JPY</text>
<polygon fill="none" stroke="black" points="364.38,-614.25 364.38,-636.75 446.38,-636.75 446.38,-614.25 364.38,-614.25"/>
<text text-anchor="start" x="391.88" y="-620.45" font-family="Times,serif" font-size="14.00">USD</text>
<polygon fill="none" stroke="black" points="364.38,-591.75 364.38,-614.25 446.38,-614.25 446.38,-591.75 364.38,-591.75"/>
<text text-anchor="start" x="392.25" y="-597.95" font-family="Times,serif" font-size="14.00">CHF</text>
</a>
</g>
</g>
<!-- com.example.sms.domain.type.department.DepartmentLowerType -->
<g id="node12" class="node">
<title>com.example.sms.domain.type.department.DepartmentLowerType</title>
<g id="a_node12"><a xlink:href="./enum.html#com.example.sms.domain.type.department.DepartmentLowerType" xlink:title="&lt;TABLE&gt;">
<polygon fill="#eedd82" stroke="black" points="678.13,-96.5 530.63,-96.5 530.63,-8 678.13,-8 678.13,-96.5"/>
<text text-anchor="start" x="568.75" y="-77.2" font-family="Times,serif" font-size="14.00">最下層区分</text>
<text text-anchor="start" x="540.63" y="-60.7" font-family="Times,serif" font-size="14.00">DepartmentLowerType</text>
<polygon fill="none" stroke="black" points="538.63,-34.5 538.63,-57 670.13,-57 670.13,-34.5 538.63,-34.5"/>
<text text-anchor="start" x="562.75" y="-40.7" font-family="Times,serif" font-size="14.00">NOT_LOWER</text>
<polygon fill="none" stroke="black" points="538.63,-12 538.63,-34.5 670.13,-34.5 670.13,-12 538.63,-12"/>
<text text-anchor="start" x="580" y="-18.2" font-family="Times,serif" font-size="14.00">LOWER</text>
</a>
</g>
</g>
<!-- com.example.sms.domain.type.department.SlitYnType -->
<g id="node13" class="node">
<title>com.example.sms.domain.type.department.SlitYnType</title>
<g id="a_node13"><a xlink:href="./enum.html#com.example.sms.domain.type.department.SlitYnType" xlink:title="&lt;TABLE&gt;">
<polygon fill="#eedd82" stroke="black" points="780.13,-216.5 674.63,-216.5 674.63,-128 780.13,-128 780.13,-216.5"/>
<text text-anchor="start" x="684.63" y="-197.2" font-family="Times,serif" font-size="14.00">伝票入力可否</text>
<text text-anchor="start" x="695.88" y="-180.7" font-family="Times,serif" font-size="14.00">SlitYnType</text>
<polygon fill="none" stroke="black" points="682.63,-154.5 682.63,-177 772.13,-177 772.13,-154.5 682.63,-154.5"/>
<text text-anchor="start" x="695.88" y="-160.7" font-family="Times,serif" font-size="14.00">NOT_SLIT</text>
<polygon fill="none" stroke="black" points="682.63,-132 682.63,-154.5 772.13,-154.5 772.13,-132 682.63,-132"/>
<text text-anchor="start" x="713.13" y="-138.2" font-family="Times,serif" font-size="14.00">SLIT</text>
</a>
</g>
</g>
</g>
</svg>
