<?xml version="1.0" encoding="UTF-8" standalone="no"?>
<!DOCTYPE svg PUBLIC "-//W3C//DTD SVG 1.1//EN"
 "http://www.w3.org/Graphics/SVG/1.1/DTD/svg11.dtd">
<!-- Generated by graphviz version 12.1.2 (20240928.0832)
 -->
<!-- Title: パッケージ関連図 Pages: 1 -->
<svg width="553pt" height="330pt"
 viewBox="0.00 0.00 553.00 329.50" xmlns="http://www.w3.org/2000/svg" xmlns:xlink="http://www.w3.org/1999/xlink">
<g id="graph0" class="graph" transform="scale(1 1) rotate(0) translate(4 325.5)">
<title>パッケージ関連図</title>
<polygon fill="white" stroke="none" points="-4,4 -4,-325.5 549,-325.5 549,4 -4,4"/>
<text text-anchor="middle" x="272.5" y="-5.7" font-family="Times,serif" font-size="14.00">パッケージ関連図</text>
<g id="clust1" class="cluster">
<title>cluster_com.example.sms.domain.type</title>
<polygon fill="lemonchiffon" stroke="#eedd82" stroke-width="2" points="128,-31 128,-126 537,-126 537,-31 128,-31"/>
<text text-anchor="middle" x="332.5" y="-108.7" font-family="Times,serif" font-size="14.00">区分</text>
<text text-anchor="middle" x="332.5" y="-93.7" font-family="Times,serif" font-size="14.00">type</text>
</g>
<g id="clust2" class="cluster">
<title>cluster_com.example.sms.domain.model</title>
<polygon fill="lemonchiffon" stroke="#eedd82" stroke-width="2" points="198,-134 198,-313.5 368,-313.5 368,-134 198,-134"/>
<text text-anchor="middle" x="283" y="-296.2" font-family="Times,serif" font-size="14.00">ドメインモデル</text>
<text text-anchor="middle" x="283" y="-281.2" font-family="Times,serif" font-size="14.00">model</text>
</g>
<!-- summary -->
<g id="node1" class="node">
<title>summary</title>
<polygon fill="none" stroke="black" points="184,-275 0,-275 0,-217.5 190,-217.5 190,-269 184,-275"/>
<polyline fill="none" stroke="black" points="184,-275 184,-269"/>
<polyline fill="none" stroke="black" points="190,-269 184,-269"/>
<text text-anchor="start" x="8" y="-257.7" font-family="Times,serif" font-size="14.00">root: com.example.sms.domain</text>
<text text-anchor="start" x="8" y="-241.2" font-family="Times,serif" font-size="14.00">パッケージ数: 8</text>
<text text-anchor="start" x="8" y="-224.7" font-family="Times,serif" font-size="14.00">関連数: 7</text>
</g>
<!-- com.example.sms.domain.model.master -->
<g id="node2" class="node">
<title>com.example.sms.domain.model.master</title>
<g id="a_node2"><a xlink:href="./domain.html#com.example.sms.domain.model.master" xlink:title="マスタ\nmaster">
<polygon fill="#eedd82" stroke="black" points="356.38,-266 297.62,-266 297.62,-226.5 356.38,-226.5 356.38,-266"/>
<text text-anchor="middle" x="327" y="-248.7" font-family="Times,serif" font-size="14.00">マスタ</text>
<text text-anchor="middle" x="327" y="-233.7" font-family="Times,serif" font-size="14.00">master</text>
</a>
</g>
</g>
<!-- com.example.sms.domain.model.common -->
<g id="node3" class="node">
<title>com.example.sms.domain.model.common</title>
<g id="a_node3"><a xlink:href="./domain.html#com.example.sms.domain.model.common" xlink:title="共通\ncommon">
<polygon fill="#eedd82" stroke="black" points="270.38,-181.5 205.62,-181.5 205.62,-142 270.38,-142 270.38,-181.5"/>
<text text-anchor="middle" x="238" y="-164.2" font-family="Times,serif" font-size="14.00">共通</text>
<text text-anchor="middle" x="238" y="-149.2" font-family="Times,serif" font-size="14.00">common</text>
</a>
</g>
</g>
<!-- com.example.sms.domain.model.master&#45;&gt;com.example.sms.domain.model.common -->
<g id="edge1" class="edge">
<title>com.example.sms.domain.model.master&#45;&gt;com.example.sms.domain.model.common</title>
<path fill="none" stroke="black" d="M306.36,-226.12C294.56,-215.18 279.59,-201.31 266.67,-189.33"/>
<polygon fill="black" stroke="black" points="269.35,-187.04 259.64,-182.81 264.59,-192.17 269.35,-187.04"/>
</g>
<!-- com.example.sms.domain.model.system -->
<g id="node5" class="node">
<title>com.example.sms.domain.model.system</title>
<g id="a_node5"><a xlink:href="./domain.html#com.example.sms.domain.model.system" xlink:title="システム\nsystem">
<polygon fill="#eedd82" stroke="black" points="359.75,-181.5 288.25,-181.5 288.25,-142 359.75,-142 359.75,-181.5"/>
<text text-anchor="middle" x="324" y="-164.2" font-family="Times,serif" font-size="14.00">システム</text>
<text text-anchor="middle" x="324" y="-149.2" font-family="Times,serif" font-size="14.00">system</text>
</a>
</g>
</g>
<!-- com.example.sms.domain.model.master&#45;&gt;com.example.sms.domain.model.system -->
<g id="edge3" class="edge">
<title>com.example.sms.domain.model.master&#45;&gt;com.example.sms.domain.model.system</title>
<path fill="none" stroke="black" d="M326.3,-226.12C325.95,-216.33 325.51,-204.18 325.11,-193.15"/>
<polygon fill="black" stroke="black" points="328.61,-193.16 324.75,-183.29 321.61,-193.41 328.61,-193.16"/>
</g>
<!-- com.example.sms.domain.type.department -->
<g id="node6" class="node">
<title>com.example.sms.domain.type.department</title>
<g id="a_node6"><a xlink:href="./domain.html#com.example.sms.domain.type.department" xlink:title="部門\ndepartment">
<polygon fill="#eedd82" stroke="black" points="453.75,-78.5 376.25,-78.5 376.25,-39 453.75,-39 453.75,-78.5"/>
<text text-anchor="middle" x="415" y="-61.2" font-family="Times,serif" font-size="14.00">部門</text>
<text text-anchor="middle" x="415" y="-46.2" font-family="Times,serif" font-size="14.00">department</text>
</a>
</g>
</g>
<!-- com.example.sms.domain.model.master&#45;&gt;com.example.sms.domain.type.department -->
<g id="edge4" class="edge">
<title>com.example.sms.domain.model.master&#45;&gt;com.example.sms.domain.type.department</title>
<path fill="none" stroke="black" d="M341.22,-226.12C349.96,-213.79 360.99,-197.2 369,-181.5 384.41,-151.31 397.56,-114.69 405.8,-89.55"/>
<polygon fill="black" stroke="black" points="409.04,-90.9 408.77,-80.31 402.38,-88.76 409.04,-90.9"/>
</g>
<!-- com.example.sms.domain.type.product -->
<g id="node7" class="node">
<title>com.example.sms.domain.type.product</title>
<g id="a_node7"><a xlink:href="./domain.html#com.example.sms.domain.type.product" xlink:title="商品\nproduct">
<polygon fill="#eedd82" stroke="black" points="528.62,-78.5 471.38,-78.5 471.38,-39 528.62,-39 528.62,-78.5"/>
<text text-anchor="middle" x="500" y="-61.2" font-family="Times,serif" font-size="14.00">商品</text>
<text text-anchor="middle" x="500" y="-46.2" font-family="Times,serif" font-size="14.00">product</text>
</a>
</g>
</g>
<!-- com.example.sms.domain.model.master&#45;&gt;com.example.sms.domain.type.product -->
<g id="edge5" class="edge">
<title>com.example.sms.domain.model.master&#45;&gt;com.example.sms.domain.type.product</title>
<path fill="none" stroke="black" d="M353.98,-226.03C383.34,-204.18 430.41,-166.28 463,-126 472.1,-114.75 480.2,-100.96 486.49,-88.88"/>
<polygon fill="black" stroke="black" points="489.5,-90.67 490.85,-80.16 483.24,-87.54 489.5,-90.67"/>
</g>
<!-- com.example.sms.domain.type.money -->
<g id="node4" class="node">
<title>com.example.sms.domain.type.money</title>
<g id="a_node4"><a xlink:href="./domain.html#com.example.sms.domain.type.money" xlink:title="数量\nmoney">
<polygon fill="#eedd82" stroke="black" points="190,-78.5 136,-78.5 136,-39 190,-39 190,-78.5"/>
<text text-anchor="middle" x="163" y="-61.2" font-family="Times,serif" font-size="14.00">数量</text>
<text text-anchor="middle" x="163" y="-46.2" font-family="Times,serif" font-size="14.00">money</text>
</a>
</g>
</g>
<!-- com.example.sms.domain.model.common&#45;&gt;com.example.sms.domain.type.money -->
<g id="edge2" class="edge">
<title>com.example.sms.domain.model.common&#45;&gt;com.example.sms.domain.type.money</title>
<path fill="none" stroke="black" d="M214.03,-141.75C208.73,-136.93 203.39,-131.54 199,-126 190.07,-114.73 182.17,-100.94 176.07,-88.86"/>
<polygon fill="black" stroke="black" points="179.36,-87.63 171.85,-80.16 173.06,-90.68 179.36,-87.63"/>
</g>
<!-- com.example.sms.domain.type.quantity -->
<g id="node8" class="node">
<title>com.example.sms.domain.type.quantity</title>
<g id="a_node8"><a xlink:href="./domain.html#com.example.sms.domain.type.quantity" xlink:title="数量\nquantity">
<polygon fill="#eedd82" stroke="black" points="268.12,-78.5 207.88,-78.5 207.88,-39 268.12,-39 268.12,-78.5"/>
<text text-anchor="middle" x="238" y="-61.2" font-family="Times,serif" font-size="14.00">数量</text>
<text text-anchor="middle" x="238" y="-46.2" font-family="Times,serif" font-size="14.00">quantity</text>
</a>
</g>
</g>
<!-- com.example.sms.domain.model.common&#45;&gt;com.example.sms.domain.type.quantity -->
<g id="edge6" class="edge">
<title>com.example.sms.domain.model.common&#45;&gt;com.example.sms.domain.type.quantity</title>
<path fill="none" stroke="black" d="M238,-141.75C238,-127.22 238,-106.9 238,-90.12"/>
<polygon fill="black" stroke="black" points="241.5,-90.18 238,-80.18 234.5,-90.18 241.5,-90.18"/>
</g>
<!-- com.example.sms.domain.type.user -->
<g id="node9" class="node">
<title>com.example.sms.domain.type.user</title>
<g id="a_node9"><a xlink:href="./domain.html#com.example.sms.domain.type.user" xlink:title="ユーザー\nuser">
<polygon fill="#eedd82" stroke="black" points="357.75,-78.5 286.25,-78.5 286.25,-39 357.75,-39 357.75,-78.5"/>
<text text-anchor="middle" x="322" y="-61.2" font-family="Times,serif" font-size="14.00">ユーザー</text>
<text text-anchor="middle" x="322" y="-46.2" font-family="Times,serif" font-size="14.00">user</text>
</a>
</g>
</g>
<!-- com.example.sms.domain.model.system&#45;&gt;com.example.sms.domain.type.user -->
<g id="edge7" class="edge">
<title>com.example.sms.domain.model.system&#45;&gt;com.example.sms.domain.type.user</title>
<path fill="none" stroke="black" d="M323.62,-141.75C323.34,-127.22 322.93,-106.9 322.6,-90.12"/>
<polygon fill="black" stroke="black" points="326.1,-90.1 322.4,-80.18 319.1,-90.24 326.1,-90.1"/>
</g>
</g>
</svg>
