<?xml version="1.0" encoding="UTF-8" standalone="no"?>
<!DOCTYPE svg PUBLIC "-//W3C//DTD SVG 1.1//EN"
 "http://www.w3.org/Graphics/SVG/1.1/DTD/svg11.dtd">
<!-- Generated by graphviz version 12.2.0 (20241103.1931)
 -->
<!-- Title: パッケージ関連図 Pages: 1 -->
<svg width="1419pt" height="390pt"
 viewBox="0.00 0.00 1418.75 389.88" xmlns="http://www.w3.org/2000/svg" xmlns:xlink="http://www.w3.org/1999/xlink">
<g id="graph0" class="graph" transform="scale(1 1) rotate(0) translate(4 385.88)">
<title>パッケージ関連図</title>
<polygon fill="white" stroke="none" points="-4,4 -4,-385.88 1414.75,-385.88 1414.75,4 -4,4"/>
<text text-anchor="middle" x="705.38" y="-4.95" font-family="Times New Roman,serif" font-size="14.00">パッケージ関連図</text>
<g id="clust1" class="cluster">
<title>cluster_com.example.sms.domain.model.master.partner</title>
<polygon fill="lemonchiffon" stroke="#eedd82" stroke-width="2" points="429,-239.88 429,-316.38 657,-316.38 657,-239.88 429,-239.88"/>
<text text-anchor="middle" x="543" y="-299.07" font-family="Times New Roman,serif" font-size="14.00">model.master.partner</text>
</g>
<!-- summary -->
<g id="node1" class="node">
<title>summary</title>
<polygon fill="none" stroke="black" points="184,-381.88 0,-381.88 0,-324.38 190,-324.38 190,-375.88 184,-381.88"/>
<polyline fill="none" stroke="black" points="184,-381.88 184,-375.88"/>
<polyline fill="none" stroke="black" points="190,-375.88 184,-375.88"/>
<text text-anchor="start" x="8" y="-364.57" font-family="Times New Roman,serif" font-size="14.00">root: com.example.sms.domain</text>
<text text-anchor="start" x="8" y="-348.07" font-family="Times New Roman,serif" font-size="14.00">パッケージ数: 24</text>
<text text-anchor="start" x="8" y="-331.57" font-family="Times New Roman,serif" font-size="14.00">関連数: 33</text>
</g>
<!-- com.example.sms.domain.model.master.product -->
<g id="node2" class="node">
<title>com.example.sms.domain.model.master.product</title>
<g id="a_node2"><a xlink:href="./domain.html#com.example.sms.domain.model.master.product" xlink:title="商品\nmodel.master.product">
<polygon fill="#eedd82" stroke="black" points="343.62,-372.5 208.38,-372.5 208.38,-333.75 343.62,-333.75 343.62,-372.5"/>
<text text-anchor="middle" x="276" y="-355.2" font-family="Times New Roman,serif" font-size="14.00">商品</text>
<text text-anchor="middle" x="276" y="-340.95" font-family="Times New Roman,serif" font-size="14.00">model.master.product</text>
</a>
</g>
</g>
<!-- com.example.sms.domain.model.common.money -->
<g id="node3" class="node">
<title>com.example.sms.domain.model.common.money</title>
<g id="a_node3"><a xlink:href="./domain.html#com.example.sms.domain.model.common.money" xlink:title="通貨\nmodel.common.money">
<polygon fill="#eedd82" stroke="black" points="248.12,-135.75 103.88,-135.75 103.88,-97 248.12,-97 248.12,-135.75"/>
<text text-anchor="middle" x="176" y="-118.45" font-family="Times New Roman,serif" font-size="14.00">通貨</text>
<text text-anchor="middle" x="176" y="-104.2" font-family="Times New Roman,serif" font-size="14.00">model.common.money</text>
</a>
</g>
</g>
<!-- com.example.sms.domain.model.master.product&#45;&gt;com.example.sms.domain.model.common.money -->
<g id="edge1" class="edge">
<title>com.example.sms.domain.model.master.product&#45;&gt;com.example.sms.domain.model.common.money</title>
<path fill="none" stroke="black" d="M227.49,-333.33C218.12,-330.08 208.32,-326.92 199,-324.38 180.67,-319.36 169.11,-331.01 157,-316.38 117,-268.04 142.96,-188.75 161.68,-146.31"/>
<polygon fill="black" stroke="black" points="164.74,-148.04 165.72,-137.49 158.37,-145.12 164.74,-148.04"/>
</g>
<!-- com.example.sms.domain.type.product -->
<g id="node8" class="node">
<title>com.example.sms.domain.type.product</title>
<g id="a_node8"><a xlink:href="./domain.html#com.example.sms.domain.type.product" xlink:title="商品\ntype.product">
<polygon fill="#eedd82" stroke="black" points="250.12,-285.25 165.88,-285.25 165.88,-246.5 250.12,-246.5 250.12,-285.25"/>
<text text-anchor="middle" x="208" y="-267.95" font-family="Times New Roman,serif" font-size="14.00">商品</text>
<text text-anchor="middle" x="208" y="-253.7" font-family="Times New Roman,serif" font-size="14.00">type.product</text>
</a>
</g>
</g>
<!-- com.example.sms.domain.model.master.product&#45;&gt;com.example.sms.domain.type.product -->
<g id="edge4" class="edge">
<title>com.example.sms.domain.model.master.product&#45;&gt;com.example.sms.domain.type.product</title>
<path fill="none" stroke="black" d="M261.25,-333.63C252.13,-322.2 240.26,-307.32 230.05,-294.51"/>
<polygon fill="black" stroke="black" points="232.88,-292.45 223.9,-286.81 227.4,-296.81 232.88,-292.45"/>
</g>
<!-- com.example.sms.domain.model.common.quantity -->
<g id="node11" class="node">
<title>com.example.sms.domain.model.common.quantity</title>
<g id="a_node11"><a xlink:href="./domain.html#com.example.sms.domain.model.common.quantity" xlink:title="数量\nmodel.common.quantity">
<polygon fill="#eedd82" stroke="black" points="419.5,-285.25 268.5,-285.25 268.5,-246.5 419.5,-246.5 419.5,-285.25"/>
<text text-anchor="middle" x="344" y="-267.95" font-family="Times New Roman,serif" font-size="14.00">数量</text>
<text text-anchor="middle" x="344" y="-253.7" font-family="Times New Roman,serif" font-size="14.00">model.common.quantity</text>
</a>
</g>
</g>
<!-- com.example.sms.domain.model.master.product&#45;&gt;com.example.sms.domain.model.common.quantity -->
<g id="edge6" class="edge">
<title>com.example.sms.domain.model.master.product&#45;&gt;com.example.sms.domain.model.common.quantity</title>
<path fill="none" stroke="black" d="M290.75,-333.63C299.87,-322.2 311.74,-307.32 321.95,-294.51"/>
<polygon fill="black" stroke="black" points="324.6,-296.81 328.1,-286.81 319.12,-292.45 324.6,-296.81"/>
</g>
<!-- com.example.sms.domain.model.master.partner.vendor -->
<g id="node13" class="node">
<title>com.example.sms.domain.model.master.partner.vendor</title>
<g id="a_node13"><a xlink:href="./domain.html#com.example.sms.domain.model.master.partner.vendor" xlink:title="vendor">
<polygon fill="#eedd82" stroke="black" points="649,-283.88 595,-283.88 595,-247.88 649,-247.88 649,-283.88"/>
<text text-anchor="middle" x="622" y="-260.82" font-family="Times New Roman,serif" font-size="14.00">vendor</text>
</a>
</g>
</g>
<!-- com.example.sms.domain.model.master.product&#45;&gt;com.example.sms.domain.model.master.partner.vendor -->
<g id="edge21" class="edge">
<title>com.example.sms.domain.model.master.product&#45;&gt;com.example.sms.domain.model.master.partner.vendor</title>
<path fill="none" stroke="black" d="M343.98,-350.59C422.58,-347.74 546.23,-339.59 586,-316.38 595.1,-311.06 602.56,-302.43 608.27,-293.86"/>
<polygon fill="black" stroke="black" points="611.25,-295.69 613.4,-285.32 605.25,-292.09 611.25,-295.69"/>
</g>
<!-- com.example.sms.domain.type.money -->
<g id="node15" class="node">
<title>com.example.sms.domain.type.money</title>
<g id="a_node15"><a xlink:href="./domain.html#com.example.sms.domain.type.money" xlink:title="数量\ntype.money">
<polygon fill="#eedd82" stroke="black" points="216.25,-61 135.75,-61 135.75,-22.25 216.25,-22.25 216.25,-61"/>
<text text-anchor="middle" x="176" y="-43.7" font-family="Times New Roman,serif" font-size="14.00">数量</text>
<text text-anchor="middle" x="176" y="-29.45" font-family="Times New Roman,serif" font-size="14.00">type.money</text>
</a>
</g>
</g>
<!-- com.example.sms.domain.model.common.money&#45;&gt;com.example.sms.domain.type.money -->
<g id="edge9" class="edge">
<title>com.example.sms.domain.model.common.money&#45;&gt;com.example.sms.domain.type.money</title>
<path fill="none" stroke="black" d="M176,-96.64C176,-89.34 176,-80.79 176,-72.68"/>
<polygon fill="black" stroke="black" points="179.5,-72.81 176,-62.81 172.5,-72.81 179.5,-72.81"/>
</g>
<!-- com.example.sms.domain.model.master.partner.invoice -->
<g id="node4" class="node">
<title>com.example.sms.domain.model.master.partner.invoice</title>
<g id="a_node4"><a xlink:href="./domain.html#com.example.sms.domain.model.master.partner.invoice" xlink:title="invoice">
<polygon fill="#eedd82" stroke="black" points="492.88,-283.88 437.12,-283.88 437.12,-247.88 492.88,-247.88 492.88,-283.88"/>
<text text-anchor="middle" x="465" y="-260.82" font-family="Times New Roman,serif" font-size="14.00">invoice</text>
</a>
</g>
</g>
<!-- com.example.sms.domain.type.partner -->
<g id="node5" class="node">
<title>com.example.sms.domain.type.partner</title>
<g id="a_node5"><a xlink:href="./domain.html#com.example.sms.domain.type.partner" xlink:title="type.partner">
<polygon fill="#eedd82" stroke="black" points="384.62,-134.38 303.38,-134.38 303.38,-98.38 384.62,-98.38 384.62,-134.38"/>
<text text-anchor="middle" x="344" y="-111.33" font-family="Times New Roman,serif" font-size="14.00">type.partner</text>
</a>
</g>
</g>
<!-- com.example.sms.domain.model.master.partner.invoice&#45;&gt;com.example.sms.domain.type.partner -->
<g id="edge2" class="edge">
<title>com.example.sms.domain.model.master.partner.invoice&#45;&gt;com.example.sms.domain.type.partner</title>
<path fill="none" stroke="black" d="M442.43,-247.6C438.11,-244.76 433.53,-242.05 429,-239.88 387.63,-220.01 357.45,-247.28 330,-210.5 316.06,-191.82 321.99,-165.05 329.98,-145.01"/>
<polygon fill="black" stroke="black" points="333.1,-146.61 333.91,-136.04 326.69,-143.8 333.1,-146.61"/>
</g>
<!-- com.example.sms.domain.model.master.employee -->
<g id="node6" class="node">
<title>com.example.sms.domain.model.master.employee</title>
<g id="a_node6"><a xlink:href="./domain.html#com.example.sms.domain.model.master.employee" xlink:title="社員\nmodel.master.employee">
<polygon fill="#eedd82" stroke="black" points="869.62,-285.25 722.38,-285.25 722.38,-246.5 869.62,-246.5 869.62,-285.25"/>
<text text-anchor="middle" x="796" y="-267.95" font-family="Times New Roman,serif" font-size="14.00">社員</text>
<text text-anchor="middle" x="796" y="-253.7" font-family="Times New Roman,serif" font-size="14.00">model.master.employee</text>
</a>
</g>
</g>
<!-- com.example.sms.domain.model.system.user -->
<g id="node7" class="node">
<title>com.example.sms.domain.model.system.user</title>
<g id="a_node7"><a xlink:href="./domain.html#com.example.sms.domain.model.system.user" xlink:title="ユーザー\nmodel.system.user">
<polygon fill="#eedd82" stroke="black" points="1028.38,-210.5 909.62,-210.5 909.62,-171.75 1028.38,-171.75 1028.38,-210.5"/>
<text text-anchor="middle" x="969" y="-193.2" font-family="Times New Roman,serif" font-size="14.00">ユーザー</text>
<text text-anchor="middle" x="969" y="-178.95" font-family="Times New Roman,serif" font-size="14.00">model.system.user</text>
</a>
</g>
</g>
<!-- com.example.sms.domain.model.master.employee&#45;&gt;com.example.sms.domain.model.system.user -->
<g id="edge3" class="edge">
<title>com.example.sms.domain.model.master.employee&#45;&gt;com.example.sms.domain.model.system.user</title>
<path fill="none" stroke="black" d="M840.55,-246.14C862.86,-236.76 890.09,-225.31 913.72,-215.37"/>
<polygon fill="black" stroke="black" points="915.04,-218.61 922.9,-211.51 912.33,-212.16 915.04,-218.61"/>
</g>
<!-- com.example.sms.domain.model.common -->
<g id="node14" class="node">
<title>com.example.sms.domain.model.common</title>
<g id="a_node14"><a xlink:href="./domain.html#com.example.sms.domain.model.common" xlink:title="共通\nmodel.common">
<polygon fill="#eedd82" stroke="black" points="847.5,-210.5 744.5,-210.5 744.5,-171.75 847.5,-171.75 847.5,-210.5"/>
<text text-anchor="middle" x="796" y="-193.2" font-family="Times New Roman,serif" font-size="14.00">共通</text>
<text text-anchor="middle" x="796" y="-178.95" font-family="Times New Roman,serif" font-size="14.00">model.common</text>
</a>
</g>
</g>
<!-- com.example.sms.domain.model.master.employee&#45;&gt;com.example.sms.domain.model.common -->
<g id="edge20" class="edge">
<title>com.example.sms.domain.model.master.employee&#45;&gt;com.example.sms.domain.model.common</title>
<path fill="none" stroke="black" d="M796,-246.14C796,-238.84 796,-230.29 796,-222.18"/>
<polygon fill="black" stroke="black" points="799.5,-222.31 796,-212.31 792.5,-222.31 799.5,-222.31"/>
</g>
<!-- com.example.sms.domain.type.user -->
<g id="node20" class="node">
<title>com.example.sms.domain.type.user</title>
<g id="a_node20"><a xlink:href="./domain.html#com.example.sms.domain.type.user" xlink:title="ユーザー\ntype.user">
<polygon fill="#eedd82" stroke="black" points="967.5,-135.75 882.5,-135.75 882.5,-97 967.5,-97 967.5,-135.75"/>
<text text-anchor="middle" x="925" y="-118.45" font-family="Times New Roman,serif" font-size="14.00">ユーザー</text>
<text text-anchor="middle" x="925" y="-104.2" font-family="Times New Roman,serif" font-size="14.00">type.user</text>
</a>
</g>
</g>
<!-- com.example.sms.domain.model.system.user&#45;&gt;com.example.sms.domain.type.user -->
<g id="edge13" class="edge">
<title>com.example.sms.domain.model.system.user&#45;&gt;com.example.sms.domain.type.user</title>
<path fill="none" stroke="black" d="M957.67,-171.39C952.95,-163.58 947.36,-154.35 942.15,-145.74"/>
<polygon fill="black" stroke="black" points="945.25,-144.09 937.08,-137.34 939.26,-147.71 945.25,-144.09"/>
</g>
<!-- com.example.sms.domain.model.system.audit -->
<g id="node9" class="node">
<title>com.example.sms.domain.model.system.audit</title>
<g id="a_node9"><a xlink:href="./domain.html#com.example.sms.domain.model.system.audit" xlink:title="model.system.audit">
<polygon fill="#eedd82" stroke="black" points="1147.62,-283.88 1024.38,-283.88 1024.38,-247.88 1147.62,-247.88 1147.62,-283.88"/>
<text text-anchor="middle" x="1086" y="-260.82" font-family="Times New Roman,serif" font-size="14.00">model.system.audit</text>
</a>
</g>
</g>
<!-- com.example.sms.domain.model.system.audit&#45;&gt;com.example.sms.domain.model.system.user -->
<g id="edge12" class="edge">
<title>com.example.sms.domain.model.system.audit&#45;&gt;com.example.sms.domain.model.system.user</title>
<path fill="none" stroke="black" d="M1057.98,-247.45C1043.31,-238.33 1025.09,-227 1008.97,-216.98"/>
<polygon fill="black" stroke="black" points="1010.88,-214.04 1000.54,-211.74 1007.18,-219.99 1010.88,-214.04"/>
</g>
<!-- com.example.sms.domain.type.audit -->
<g id="node10" class="node">
<title>com.example.sms.domain.type.audit</title>
<g id="a_node10"><a xlink:href="./domain.html#com.example.sms.domain.type.audit" xlink:title="type.audit">
<polygon fill="#eedd82" stroke="black" points="1121,-209.12 1051,-209.12 1051,-173.12 1121,-173.12 1121,-209.12"/>
<text text-anchor="middle" x="1086" y="-186.07" font-family="Times New Roman,serif" font-size="14.00">type.audit</text>
</a>
</g>
</g>
<!-- com.example.sms.domain.model.system.audit&#45;&gt;com.example.sms.domain.type.audit -->
<g id="edge5" class="edge">
<title>com.example.sms.domain.model.system.audit&#45;&gt;com.example.sms.domain.type.audit</title>
<path fill="none" stroke="black" d="M1086,-247.63C1086,-239.63 1086,-229.9 1086,-220.83"/>
<polygon fill="black" stroke="black" points="1089.5,-221.01 1086,-211.01 1082.5,-221.01 1089.5,-221.01"/>
</g>
<!-- com.example.sms.domain.type.quantity -->
<g id="node22" class="node">
<title>com.example.sms.domain.type.quantity</title>
<g id="a_node22"><a xlink:href="./domain.html#com.example.sms.domain.type.quantity" xlink:title="数量\ntype.quantity">
<polygon fill="#eedd82" stroke="black" points="277.62,-210.5 190.38,-210.5 190.38,-171.75 277.62,-171.75 277.62,-210.5"/>
<text text-anchor="middle" x="234" y="-193.2" font-family="Times New Roman,serif" font-size="14.00">数量</text>
<text text-anchor="middle" x="234" y="-178.95" font-family="Times New Roman,serif" font-size="14.00">type.quantity</text>
</a>
</g>
</g>
<!-- com.example.sms.domain.model.common.quantity&#45;&gt;com.example.sms.domain.type.quantity -->
<g id="edge16" class="edge">
<title>com.example.sms.domain.model.common.quantity&#45;&gt;com.example.sms.domain.type.quantity</title>
<path fill="none" stroke="black" d="M315.67,-246.14C302.2,-237.23 285.91,-226.46 271.43,-216.88"/>
<polygon fill="black" stroke="black" points="273.77,-214.23 263.49,-211.63 269.9,-220.07 273.77,-214.23"/>
</g>
<!-- com.example.sms.domain.model.master.partner -->
<g id="node12" class="node">
<title>com.example.sms.domain.model.master.partner</title>
<g id="a_node12"><a xlink:href="./domain.html#com.example.sms.domain.model.master.partner" xlink:title="model.master.partner">
<polygon fill="#eedd82" stroke="black" points="688.12,-209.12 555.88,-209.12 555.88,-173.12 688.12,-173.12 688.12,-209.12"/>
<text text-anchor="middle" x="622" y="-186.07" font-family="Times New Roman,serif" font-size="14.00">model.master.partner</text>
</a>
</g>
</g>
<!-- com.example.sms.domain.model.master.partner&#45;&gt;com.example.sms.domain.model.common.money -->
<g id="edge18" class="edge">
<title>com.example.sms.domain.model.master.partner&#45;&gt;com.example.sms.domain.model.common.money</title>
<path fill="none" stroke="black" d="M555.42,-173.45C552.58,-172.85 549.76,-172.28 547,-171.75 435.48,-150.21 406.34,-152.49 294,-135.75 282.81,-134.08 271.03,-132.29 259.42,-130.51"/>
<polygon fill="black" stroke="black" points="260.28,-127.1 249.86,-129.03 259.21,-134.01 260.28,-127.1"/>
</g>
<!-- com.example.sms.domain.model.master.partner&#45;&gt;com.example.sms.domain.type.partner -->
<g id="edge7" class="edge">
<title>com.example.sms.domain.model.master.partner&#45;&gt;com.example.sms.domain.type.partner</title>
<path fill="none" stroke="black" d="M555.41,-172.7C506.54,-159.91 441.11,-142.79 396.05,-131"/>
<polygon fill="black" stroke="black" points="397.08,-127.65 386.52,-128.5 395.31,-134.42 397.08,-127.65"/>
</g>
<!-- com.example.sms.domain.model.common.address -->
<g id="node19" class="node">
<title>com.example.sms.domain.model.common.address</title>
<g id="a_node19"><a xlink:href="./domain.html#com.example.sms.domain.model.common.address" xlink:title="model.common.address">
<polygon fill="#eedd82" stroke="black" points="695.62,-134.38 548.38,-134.38 548.38,-98.38 695.62,-98.38 695.62,-134.38"/>
<text text-anchor="middle" x="622" y="-111.33" font-family="Times New Roman,serif" font-size="14.00">model.common.address</text>
</a>
</g>
</g>
<!-- com.example.sms.domain.model.master.partner&#45;&gt;com.example.sms.domain.model.common.address -->
<g id="edge23" class="edge">
<title>com.example.sms.domain.model.master.partner&#45;&gt;com.example.sms.domain.model.common.address</title>
<path fill="none" stroke="black" d="M622,-172.88C622,-164.88 622,-155.15 622,-146.08"/>
<polygon fill="black" stroke="black" points="625.5,-146.26 622,-136.26 618.5,-146.26 625.5,-146.26"/>
</g>
<!-- com.example.sms.domain.model.master.partner.vendor&#45;&gt;com.example.sms.domain.model.master.partner -->
<g id="edge28" class="edge">
<title>com.example.sms.domain.model.master.partner.vendor&#45;&gt;com.example.sms.domain.model.master.partner</title>
<path fill="none" stroke="red" stroke-width="2" d="M622,-236.32C622,-231.22 622,-225.91 622,-220.81"/>
<polygon fill="red" stroke="red" stroke-width="2" points="618.5,-234.61 622,-244.61 625.5,-234.61 618.5,-234.61"/>
<polygon fill="red" stroke="red" stroke-width="2" points="625.5,-222.52 622,-212.52 618.5,-222.52 625.5,-222.52"/>
</g>
<!-- com.example.sms.domain.model.master.partner.vendor&#45;&gt;com.example.sms.domain.model.common -->
<g id="edge8" class="edge">
<title>com.example.sms.domain.model.master.partner.vendor&#45;&gt;com.example.sms.domain.model.common</title>
<path fill="none" stroke="black" d="M649.19,-253.51C673.56,-243.32 710.06,-228.06 740.57,-215.3"/>
<polygon fill="black" stroke="black" points="741.81,-218.58 749.68,-211.49 739.1,-212.12 741.81,-218.58"/>
</g>
<!-- com.example.sms.domain.model.master.partner.vendor&#45;&gt;com.example.sms.domain.model.common.address -->
<g id="edge25" class="edge">
<title>com.example.sms.domain.model.master.partner.vendor&#45;&gt;com.example.sms.domain.model.common.address</title>
<path fill="none" stroke="black" d="M649.44,-253.08C666.51,-244.11 687.06,-229.98 697,-210.5 704.83,-195.16 704.83,-187.09 697,-171.75 690.66,-159.33 680.01,-149.08 668.7,-140.96"/>
<polygon fill="black" stroke="black" points="670.66,-138.06 660.38,-135.48 666.8,-143.9 670.66,-138.06"/>
</g>
<!-- com.example.sms.domain.model.system.download -->
<g id="node16" class="node">
<title>com.example.sms.domain.model.system.download</title>
<g id="a_node16"><a xlink:href="./domain.html#com.example.sms.domain.model.system.download" xlink:title="model.system.download">
<polygon fill="#eedd82" stroke="black" points="1410.75,-371.12 1261.25,-371.12 1261.25,-335.12 1410.75,-335.12 1410.75,-371.12"/>
<text text-anchor="middle" x="1336" y="-348.07" font-family="Times New Roman,serif" font-size="14.00">model.system.download</text>
</a>
</g>
</g>
<!-- com.example.sms.domain.type.download -->
<g id="node17" class="node">
<title>com.example.sms.domain.type.download</title>
<g id="a_node17"><a xlink:href="./domain.html#com.example.sms.domain.type.download" xlink:title="type.download">
<polygon fill="#eedd82" stroke="black" points="1384.12,-283.88 1287.88,-283.88 1287.88,-247.88 1384.12,-247.88 1384.12,-283.88"/>
<text text-anchor="middle" x="1336" y="-260.82" font-family="Times New Roman,serif" font-size="14.00">type.download</text>
</a>
</g>
</g>
<!-- com.example.sms.domain.model.system.download&#45;&gt;com.example.sms.domain.type.download -->
<g id="edge10" class="edge">
<title>com.example.sms.domain.model.system.download&#45;&gt;com.example.sms.domain.type.download</title>
<path fill="none" stroke="black" d="M1336,-334.87C1336,-323.55 1336,-308.47 1336,-295.39"/>
<polygon fill="black" stroke="black" points="1339.5,-295.61 1336,-285.61 1332.5,-295.61 1339.5,-295.61"/>
</g>
<!-- com.example.sms.domain.model.master.partner.customer -->
<g id="node18" class="node">
<title>com.example.sms.domain.model.master.partner.customer</title>
<g id="a_node18"><a xlink:href="./domain.html#com.example.sms.domain.model.master.partner.customer" xlink:title="customer">
<polygon fill="#eedd82" stroke="black" points="577.12,-283.88 510.88,-283.88 510.88,-247.88 577.12,-247.88 577.12,-283.88"/>
<text text-anchor="middle" x="544" y="-260.82" font-family="Times New Roman,serif" font-size="14.00">customer</text>
</a>
</g>
</g>
<!-- com.example.sms.domain.model.master.partner.customer&#45;&gt;com.example.sms.domain.type.partner -->
<g id="edge15" class="edge">
<title>com.example.sms.domain.model.master.partner.customer&#45;&gt;com.example.sms.domain.type.partner</title>
<path fill="none" stroke="black" d="M517.48,-247.57C512.46,-244.74 507.17,-242.03 502,-239.88 454.12,-219.88 429.1,-243.43 389,-210.5 368.86,-193.96 357.09,-166.25 350.68,-145.34"/>
<polygon fill="black" stroke="black" points="354.13,-144.68 348.06,-136 347.39,-146.57 354.13,-144.68"/>
</g>
<!-- com.example.sms.domain.model.master.partner.customer&#45;&gt;com.example.sms.domain.model.master.partner -->
<g id="edge26" class="edge">
<title>com.example.sms.domain.model.master.partner.customer&#45;&gt;com.example.sms.domain.model.master.partner</title>
<path fill="none" stroke="red" stroke-width="2" d="M570.74,-239.94C578.63,-232.58 587.27,-224.52 595.17,-217.15"/>
<polygon fill="red" stroke="red" stroke-width="2" points="569.62,-236.19 564.7,-245.57 574.4,-241.31 569.62,-236.19"/>
<polygon fill="red" stroke="red" stroke-width="2" points="596.24,-220.94 601.16,-211.56 591.46,-215.82 596.24,-220.94"/>
</g>
<!-- com.example.sms.domain.model.master.partner.customer&#45;&gt;com.example.sms.domain.model.common -->
<g id="edge17" class="edge">
<title>com.example.sms.domain.model.master.partner.customer&#45;&gt;com.example.sms.domain.model.common</title>
<path fill="none" stroke="black" d="M570.47,-247.44C575.49,-244.62 580.8,-241.95 586,-239.88 612.36,-229.34 681.34,-214.5 733.1,-204.17"/>
<polygon fill="black" stroke="black" points="733.58,-207.64 742.71,-202.27 732.22,-200.78 733.58,-207.64"/>
</g>
<!-- com.example.sms.domain.model.master.partner.customer&#45;&gt;com.example.sms.domain.model.common.address -->
<g id="edge11" class="edge">
<title>com.example.sms.domain.model.master.partner.customer&#45;&gt;com.example.sms.domain.model.common.address</title>
<path fill="none" stroke="black" d="M516.97,-247.43C512.1,-244.68 506.98,-242.04 502,-239.88 459.13,-221.24 429.06,-247.89 401,-210.5 390.66,-196.73 390.38,-185.3 401,-171.75 417.99,-150.07 482,-135.88 536.79,-127.45"/>
<polygon fill="black" stroke="black" points="537.09,-130.94 546.47,-126.01 536.06,-124.02 537.09,-130.94"/>
</g>
<!-- com.example.sms.domain.model.master.region -->
<g id="node21" class="node">
<title>com.example.sms.domain.model.master.region</title>
<g id="a_node21"><a xlink:href="./domain.html#com.example.sms.domain.model.master.region" xlink:title="model.master.region">
<polygon fill="#eedd82" stroke="black" points="538.25,-209.12 409.75,-209.12 409.75,-173.12 538.25,-173.12 538.25,-209.12"/>
<text text-anchor="middle" x="474" y="-186.07" font-family="Times New Roman,serif" font-size="14.00">model.master.region</text>
</a>
</g>
</g>
<!-- com.example.sms.domain.model.master.partner.customer&#45;&gt;com.example.sms.domain.model.master.region -->
<g id="edge14" class="edge">
<title>com.example.sms.domain.model.master.partner.customer&#45;&gt;com.example.sms.domain.model.master.region</title>
<path fill="none" stroke="black" d="M527.41,-247.63C518.76,-238.64 508,-227.46 498.42,-217.5"/>
<polygon fill="black" stroke="black" points="501.22,-215.36 491.76,-210.58 496.17,-220.22 501.22,-215.36"/>
</g>
<!-- com.example.sms.domain.model.master.department -->
<g id="node23" class="node">
<title>com.example.sms.domain.model.master.department</title>
<g id="a_node23"><a xlink:href="./domain.html#com.example.sms.domain.model.master.department" xlink:title="部門\nmodel.master.department">
<polygon fill="#eedd82" stroke="black" points="1057.75,-372.5 902.25,-372.5 902.25,-333.75 1057.75,-333.75 1057.75,-372.5"/>
<text text-anchor="middle" x="980" y="-355.2" font-family="Times New Roman,serif" font-size="14.00">部門</text>
<text text-anchor="middle" x="980" y="-340.95" font-family="Times New Roman,serif" font-size="14.00">model.master.department</text>
</a>
</g>
</g>
<!-- com.example.sms.domain.model.master.department&#45;&gt;com.example.sms.domain.model.master.employee -->
<g id="edge27" class="edge">
<title>com.example.sms.domain.model.master.department&#45;&gt;com.example.sms.domain.model.master.employee</title>
<path fill="none" stroke="red" stroke-width="2" d="M909.07,-329.4C898.51,-325.4 887.87,-321.02 878,-316.38 862.87,-309.25 846.97,-300.08 833.24,-291.58"/>
<polygon fill="red" stroke="red" stroke-width="2" points="906.14,-332.05 916.73,-332.21 908.56,-325.48 906.14,-332.05"/>
<polygon fill="red" stroke="red" stroke-width="2" points="836.55,-289.53 826.23,-287.15 832.82,-295.45 836.55,-289.53"/>
</g>
<!-- com.example.sms.domain.type.department -->
<g id="node24" class="node">
<title>com.example.sms.domain.type.department</title>
<g id="a_node24"><a xlink:href="./domain.html#com.example.sms.domain.type.department" xlink:title="部門\ntype.department">
<polygon fill="#eedd82" stroke="black" points="1270.25,-285.25 1165.75,-285.25 1165.75,-246.5 1270.25,-246.5 1270.25,-285.25"/>
<text text-anchor="middle" x="1218" y="-267.95" font-family="Times New Roman,serif" font-size="14.00">部門</text>
<text text-anchor="middle" x="1218" y="-253.7" font-family="Times New Roman,serif" font-size="14.00">type.department</text>
</a>
</g>
</g>
<!-- com.example.sms.domain.model.master.department&#45;&gt;com.example.sms.domain.type.department -->
<g id="edge19" class="edge">
<title>com.example.sms.domain.model.master.department&#45;&gt;com.example.sms.domain.type.department</title>
<path fill="none" stroke="black" d="M1057.93,-344.64C1089.75,-339.51 1126.23,-330.88 1157,-316.38 1169.4,-310.53 1181.47,-301.64 1191.56,-293"/>
<polygon fill="black" stroke="black" points="1193.63,-295.84 1198.74,-286.56 1188.96,-290.63 1193.63,-295.84"/>
</g>
<!-- com.example.sms.domain.model.system.auth -->
<g id="node25" class="node">
<title>com.example.sms.domain.model.system.auth</title>
<g id="a_node25"><a xlink:href="./domain.html#com.example.sms.domain.model.system.auth" xlink:title="認証\nmodel.system.auth">
<polygon fill="#eedd82" stroke="black" points="1006.75,-285.25 887.25,-285.25 887.25,-246.5 1006.75,-246.5 1006.75,-285.25"/>
<text text-anchor="middle" x="947" y="-267.95" font-family="Times New Roman,serif" font-size="14.00">認証</text>
<text text-anchor="middle" x="947" y="-253.7" font-family="Times New Roman,serif" font-size="14.00">model.system.auth</text>
</a>
</g>
</g>
<!-- com.example.sms.domain.model.system.auth&#45;&gt;com.example.sms.domain.model.system.user -->
<g id="edge24" class="edge">
<title>com.example.sms.domain.model.system.auth&#45;&gt;com.example.sms.domain.model.system.user</title>
<path fill="none" stroke="black" d="M952.67,-246.14C954.92,-238.67 957.58,-229.9 960.08,-221.61"/>
<polygon fill="black" stroke="black" points="963.37,-222.83 962.92,-212.25 956.67,-220.8 963.37,-222.83"/>
</g>
<!-- com.example.sms.domain.model.system.auth&#45;&gt;com.example.sms.domain.type.user -->
<g id="edge22" class="edge">
<title>com.example.sms.domain.model.system.auth&#45;&gt;com.example.sms.domain.type.user</title>
<path fill="none" stroke="black" d="M925.68,-246.45C916.18,-236.82 906.02,-224.2 901,-210.5 893.27,-189.4 900.3,-164.75 908.71,-146.11"/>
<polygon fill="black" stroke="black" points="911.79,-147.78 913.05,-137.26 905.5,-144.7 911.79,-147.78"/>
</g>
</g>
</svg>
