<?xml version="1.0" encoding="UTF-8" standalone="no"?>
<!DOCTYPE svg PUBLIC "-//W3C//DTD SVG 1.1//EN"
 "http://www.w3.org/Graphics/SVG/1.1/DTD/svg11.dtd">
<!-- Generated by graphviz version 12.1.2 (20240928.0832)
 -->
<!-- Title: パッケージ関連図 Pages: 1 -->
<svg width="330pt" height="164pt"
 viewBox="0.00 0.00 330.12 164.00" xmlns="http://www.w3.org/2000/svg" xmlns:xlink="http://www.w3.org/1999/xlink">
<g id="graph0" class="graph" transform="scale(1 1) rotate(0) translate(4 160)">
<title>パッケージ関連図</title>
<polygon fill="white" stroke="none" points="-4,4 -4,-160 326.12,-160 326.12,4 -4,4"/>
<text text-anchor="middle" x="161.06" y="-5.7" font-family="Times,serif" font-size="14.00">パッケージ関連図</text>
<!-- summary -->
<g id="node1" class="node">
<title>summary</title>
<polygon fill="none" stroke="black" points="184,-156 0,-156 0,-98.5 190,-98.5 190,-150 184,-156"/>
<polyline fill="none" stroke="black" points="184,-156 184,-150"/>
<polyline fill="none" stroke="black" points="190,-150 184,-150"/>
<text text-anchor="start" x="8" y="-138.7" font-family="Times,serif" font-size="14.00">root: com.example.sms.domain</text>
<text text-anchor="start" x="8" y="-122.2" font-family="Times,serif" font-size="14.00">パッケージ数: 2</text>
<text text-anchor="start" x="8" y="-105.7" font-family="Times,serif" font-size="14.00">関連数: 1</text>
</g>
<!-- com.example.sms.domain.model -->
<g id="node2" class="node">
<title>com.example.sms.domain.model</title>
<g id="a_node2"><a xlink:href="./domain.html#com.example.sms.domain.model" xlink:title="ドメインモデル\nmodel">
<polygon fill="#eedd82" stroke="black" points="322.12,-147 207.88,-147 207.88,-107.5 322.12,-107.5 322.12,-147"/>
<text text-anchor="middle" x="265" y="-129.7" font-family="Times,serif" font-size="14.00">ドメインモデル</text>
<text text-anchor="middle" x="265" y="-114.7" font-family="Times,serif" font-size="14.00">model</text>
</a>
</g>
</g>
<!-- com.example.sms.domain.type -->
<g id="node3" class="node">
<title>com.example.sms.domain.type</title>
<g id="a_node3"><a xlink:href="./domain.html#com.example.sms.domain.type" xlink:title="区分\ntype">
<polygon fill="#eedd82" stroke="black" points="292,-62.5 238,-62.5 238,-23 292,-23 292,-62.5"/>
<text text-anchor="middle" x="265" y="-45.2" font-family="Times,serif" font-size="14.00">区分</text>
<text text-anchor="middle" x="265" y="-30.2" font-family="Times,serif" font-size="14.00">type</text>
</a>
</g>
</g>
<!-- com.example.sms.domain.model&#45;&gt;com.example.sms.domain.type -->
<g id="edge1" class="edge">
<title>com.example.sms.domain.model&#45;&gt;com.example.sms.domain.type</title>
<path fill="none" stroke="black" d="M265,-107.12C265,-97.33 265,-85.18 265,-74.15"/>
<polygon fill="black" stroke="black" points="268.5,-74.29 265,-64.29 261.5,-74.29 268.5,-74.29"/>
</g>
</g>
</svg>
