<?xml version="1.0" encoding="UTF-8" standalone="no"?>
<!DOCTYPE svg PUBLIC "-//W3C//DTD SVG 1.1//EN"
 "http://www.w3.org/Graphics/SVG/1.1/DTD/svg11.dtd">
<!-- Generated by graphviz version 12.2.0 (20241103.1931)
 -->
<!-- Title: パッケージ関連図 Pages: 1 -->
<svg width="414pt" height="165pt"
 viewBox="0.00 0.00 413.75 164.75" xmlns="http://www.w3.org/2000/svg" xmlns:xlink="http://www.w3.org/1999/xlink">
<g id="graph0" class="graph" transform="scale(1 1) rotate(0) translate(4 160.75)">
<title>パッケージ関連図</title>
<polygon fill="white" stroke="none" points="-4,4 -4,-160.75 409.75,-160.75 409.75,4 -4,4"/>
<text text-anchor="middle" x="202.88" y="-4.95" font-family="Times New Roman,serif" font-size="14.00">パッケージ関連図</text>
<!-- summary -->
<g id="node1" class="node">
<title>summary</title>
<polygon fill="none" stroke="black" points="184,-156.75 0,-156.75 0,-99.25 190,-99.25 190,-150.75 184,-156.75"/>
<polyline fill="none" stroke="black" points="184,-156.75 184,-150.75"/>
<polyline fill="none" stroke="black" points="190,-150.75 184,-150.75"/>
<text text-anchor="start" x="8" y="-139.45" font-family="Times New Roman,serif" font-size="14.00">root: com.example.sms.domain</text>
<text text-anchor="start" x="8" y="-122.95" font-family="Times New Roman,serif" font-size="14.00">パッケージ数: 2</text>
<text text-anchor="start" x="8" y="-106.45" font-family="Times New Roman,serif" font-size="14.00">関連数: 1</text>
</g>
<!-- com.example.sms.domain.model -->
<g id="node2" class="node">
<title>com.example.sms.domain.model</title>
<g id="a_node2"><a xlink:href="./domain.html#com.example.sms.domain.model" xlink:title="ドメインモデル(複合型)\nmodel">
<polygon fill="#eedd82" stroke="black" points="405.75,-148.5 208.25,-148.5 208.25,-107.5 405.75,-107.5 405.75,-148.5"/>
<text text-anchor="middle" x="307" y="-131.2" font-family="Times New Roman,serif" font-size="14.00">ドメインモデル(複合型)</text>
<text text-anchor="middle" x="307" y="-114.7" font-family="Times New Roman,serif" font-size="14.00">model</text>
</a>
</g>
</g>
<!-- com.example.sms.domain.type -->
<g id="node3" class="node">
<title>com.example.sms.domain.type</title>
<g id="a_node3"><a xlink:href="./domain.html#com.example.sms.domain.type" xlink:title="ドメインモデル(基本型)\ntype">
<polygon fill="#eedd82" stroke="black" points="405.75,-63.25 208.25,-63.25 208.25,-22.25 405.75,-22.25 405.75,-63.25"/>
<text text-anchor="middle" x="307" y="-45.95" font-family="Times New Roman,serif" font-size="14.00">ドメインモデル(基本型)</text>
<text text-anchor="middle" x="307" y="-29.45" font-family="Times New Roman,serif" font-size="14.00">type</text>
</a>
</g>
</g>
<!-- com.example.sms.domain.model&#45;&gt;com.example.sms.domain.type -->
<g id="edge1" class="edge">
<title>com.example.sms.domain.model&#45;&gt;com.example.sms.domain.type</title>
<path fill="none" stroke="black" d="M307,-107.27C307,-97.6 307,-85.71 307,-74.86"/>
<polygon fill="black" stroke="black" points="310.5,-75.14 307,-65.14 303.5,-75.14 310.5,-75.14"/>
</g>
</g>
</svg>
