<?xml version="1.0" encoding="UTF-8" standalone="no"?>
<!DOCTYPE svg PUBLIC "-//W3C//DTD SVG 1.1//EN"
 "http://www.w3.org/Graphics/SVG/1.1/DTD/svg11.dtd">
<!-- Generated by graphviz version 12.1.2 (20240928.0832)
 -->
<!-- Title: パッケージ関連図 Pages: 1 -->
<svg width="849pt" height="381pt"
 viewBox="0.00 0.00 849.12 381.00" xmlns="http://www.w3.org/2000/svg" xmlns:xlink="http://www.w3.org/1999/xlink">
<g id="graph0" class="graph" transform="scale(1 1) rotate(0) translate(4 377)">
<title>パッケージ関連図</title>
<polygon fill="white" stroke="none" points="-4,4 -4,-377 845.12,-377 845.12,4 -4,4"/>
<text text-anchor="middle" x="420.56" y="-5.7" font-family="Times,serif" font-size="14.00">パッケージ関連図</text>
<g id="clust1" class="cluster">
<title>cluster_com.example.sms.domain.model.common</title>
<polygon fill="lemonchiffon" stroke="#eedd82" stroke-width="2" points="477,-166 477,-261 625,-261 625,-166 477,-166"/>
<text text-anchor="middle" x="551" y="-243.7" font-family="Times,serif" font-size="14.00">共通</text>
<text text-anchor="middle" x="551" y="-228.7" font-family="Times,serif" font-size="14.00">model.common</text>
</g>
<g id="clust2" class="cluster">
<title>cluster_com.example.sms.domain.model.system</title>
<polygon fill="lemonchiffon" stroke="#eedd82" stroke-width="2" points="377,-90.5 377,-261 469,-261 469,-90.5 377,-90.5"/>
<text text-anchor="middle" x="423" y="-243.7" font-family="Times,serif" font-size="14.00">システム</text>
<text text-anchor="middle" x="423" y="-228.7" font-family="Times,serif" font-size="14.00">model.system</text>
</g>
<g id="clust3" class="cluster">
<title>cluster_com.example.sms.domain.model.master</title>
<polygon fill="lemonchiffon" stroke="#eedd82" stroke-width="2" points="200,-166 200,-365 369,-365 369,-166 200,-166"/>
<text text-anchor="middle" x="284.5" y="-347.7" font-family="Times,serif" font-size="14.00">マスタ</text>
<text text-anchor="middle" x="284.5" y="-332.7" font-family="Times,serif" font-size="14.00">model.master</text>
</g>
<!-- summary -->
<g id="node1" class="node">
<title>summary</title>
<polygon fill="none" stroke="black" points="184,-326.5 0,-326.5 0,-269 190,-269 190,-320.5 184,-326.5"/>
<polyline fill="none" stroke="black" points="184,-326.5 184,-320.5"/>
<polyline fill="none" stroke="black" points="190,-320.5 184,-320.5"/>
<text text-anchor="start" x="8" y="-309.2" font-family="Times,serif" font-size="14.00">root: com.example.sms.domain</text>
<text text-anchor="start" x="8" y="-292.7" font-family="Times,serif" font-size="14.00">パッケージ数: 12</text>
<text text-anchor="start" x="8" y="-276.2" font-family="Times,serif" font-size="14.00">関連数: 12</text>
</g>
<!-- com.example.sms.domain.model.system.user -->
<g id="node2" class="node">
<title>com.example.sms.domain.model.system.user</title>
<g id="a_node2"><a xlink:href="./domain.html#com.example.sms.domain.model.system.user" xlink:title="ユーザー\nuser">
<polygon fill="#eedd82" stroke="black" points="456.75,-138 385.25,-138 385.25,-98.5 456.75,-98.5 456.75,-138"/>
<text text-anchor="middle" x="421" y="-120.7" font-family="Times,serif" font-size="14.00">ユーザー</text>
<text text-anchor="middle" x="421" y="-105.7" font-family="Times,serif" font-size="14.00">user</text>
</a>
</g>
</g>
<!-- com.example.sms.domain.type.user -->
<g id="node3" class="node">
<title>com.example.sms.domain.type.user</title>
<g id="a_node3"><a xlink:href="./domain.html#com.example.sms.domain.type.user" xlink:title="ユーザー\ntype.user">
<polygon fill="#eedd82" stroke="black" points="488.75,-62.5 417.25,-62.5 417.25,-23 488.75,-23 488.75,-62.5"/>
<text text-anchor="middle" x="453" y="-45.2" font-family="Times,serif" font-size="14.00">ユーザー</text>
<text text-anchor="middle" x="453" y="-30.2" font-family="Times,serif" font-size="14.00">type.user</text>
</a>
</g>
</g>
<!-- com.example.sms.domain.model.system.user&#45;&gt;com.example.sms.domain.type.user -->
<g id="edge1" class="edge">
<title>com.example.sms.domain.model.system.user&#45;&gt;com.example.sms.domain.type.user</title>
<path fill="none" stroke="black" d="M429.24,-98.32C432.57,-90.67 436.5,-81.65 440.19,-73.17"/>
<polygon fill="black" stroke="black" points="443.29,-74.82 444.07,-64.26 436.87,-72.03 443.29,-74.82"/>
</g>
<!-- com.example.sms.domain.model.master.product -->
<g id="node4" class="node">
<title>com.example.sms.domain.model.master.product</title>
<g id="a_node4"><a xlink:href="./domain.html#com.example.sms.domain.model.master.product" xlink:title="商品\nproduct">
<polygon fill="#eedd82" stroke="black" points="360.62,-317.5 303.38,-317.5 303.38,-278 360.62,-278 360.62,-317.5"/>
<text text-anchor="middle" x="332" y="-300.2" font-family="Times,serif" font-size="14.00">商品</text>
<text text-anchor="middle" x="332" y="-285.2" font-family="Times,serif" font-size="14.00">product</text>
</a>
</g>
</g>
<!-- com.example.sms.domain.model.common.money -->
<g id="node5" class="node">
<title>com.example.sms.domain.model.common.money</title>
<g id="a_node5"><a xlink:href="./domain.html#com.example.sms.domain.model.common.money" xlink:title="通貨\nmoney">
<polygon fill="#eedd82" stroke="black" points="539,-213.5 485,-213.5 485,-174 539,-174 539,-213.5"/>
<text text-anchor="middle" x="512" y="-196.2" font-family="Times,serif" font-size="14.00">通貨</text>
<text text-anchor="middle" x="512" y="-181.2" font-family="Times,serif" font-size="14.00">money</text>
</a>
</g>
</g>
<!-- com.example.sms.domain.model.master.product&#45;&gt;com.example.sms.domain.model.common.money -->
<g id="edge2" class="edge">
<title>com.example.sms.domain.model.master.product&#45;&gt;com.example.sms.domain.model.common.money</title>
<path fill="none" stroke="black" d="M360.99,-295.82C391.62,-293.49 439.97,-285.77 473,-261 485.35,-251.74 494.49,-237.33 500.82,-224.31"/>
<polygon fill="black" stroke="black" points="503.99,-225.79 504.86,-215.23 497.59,-222.94 503.99,-225.79"/>
</g>
<!-- com.example.sms.domain.type.product -->
<g id="node7" class="node">
<title>com.example.sms.domain.type.product</title>
<g id="a_node7"><a xlink:href="./domain.html#com.example.sms.domain.type.product" xlink:title="商品\ntype.product">
<polygon fill="#eedd82" stroke="black" points="841.12,-213.5 756.88,-213.5 756.88,-174 841.12,-174 841.12,-213.5"/>
<text text-anchor="middle" x="799" y="-196.2" font-family="Times,serif" font-size="14.00">商品</text>
<text text-anchor="middle" x="799" y="-181.2" font-family="Times,serif" font-size="14.00">type.product</text>
</a>
</g>
</g>
<!-- com.example.sms.domain.model.master.product&#45;&gt;com.example.sms.domain.type.product -->
<g id="edge4" class="edge">
<title>com.example.sms.domain.model.master.product&#45;&gt;com.example.sms.domain.type.product</title>
<path fill="none" stroke="black" d="M361,-297.24C444.07,-298.18 681.21,-297.51 748,-261 763.48,-252.54 775.75,-237.19 784.38,-223.39"/>
<polygon fill="black" stroke="black" points="787.23,-225.45 789.24,-215.04 781.18,-221.92 787.23,-225.45"/>
</g>
<!-- com.example.sms.domain.model.common.quantity -->
<g id="node8" class="node">
<title>com.example.sms.domain.model.common.quantity</title>
<g id="a_node8"><a xlink:href="./domain.html#com.example.sms.domain.model.common.quantity" xlink:title="数量\nquantity">
<polygon fill="#eedd82" stroke="black" points="617.12,-213.5 556.88,-213.5 556.88,-174 617.12,-174 617.12,-213.5"/>
<text text-anchor="middle" x="587" y="-196.2" font-family="Times,serif" font-size="14.00">数量</text>
<text text-anchor="middle" x="587" y="-181.2" font-family="Times,serif" font-size="14.00">quantity</text>
</a>
</g>
</g>
<!-- com.example.sms.domain.model.master.product&#45;&gt;com.example.sms.domain.model.common.quantity -->
<g id="edge5" class="edge">
<title>com.example.sms.domain.model.master.product&#45;&gt;com.example.sms.domain.model.common.quantity</title>
<path fill="none" stroke="black" d="M360.92,-294.98C412.56,-291.33 518.07,-281.54 548,-261 560.94,-252.12 570.22,-237.43 576.47,-224.13"/>
<polygon fill="black" stroke="black" points="579.54,-225.86 580.25,-215.29 573.1,-223.11 579.54,-225.86"/>
</g>
<!-- com.example.sms.domain.type.money -->
<g id="node9" class="node">
<title>com.example.sms.domain.type.money</title>
<g id="a_node9"><a xlink:href="./domain.html#com.example.sms.domain.type.money" xlink:title="数量\ntype.money">
<polygon fill="#eedd82" stroke="black" points="593.25,-138 512.75,-138 512.75,-98.5 593.25,-98.5 593.25,-138"/>
<text text-anchor="middle" x="553" y="-120.7" font-family="Times,serif" font-size="14.00">数量</text>
<text text-anchor="middle" x="553" y="-105.7" font-family="Times,serif" font-size="14.00">type.money</text>
</a>
</g>
</g>
<!-- com.example.sms.domain.model.common.money&#45;&gt;com.example.sms.domain.type.money -->
<g id="edge6" class="edge">
<title>com.example.sms.domain.model.common.money&#45;&gt;com.example.sms.domain.type.money</title>
<path fill="none" stroke="black" d="M522.56,-173.82C526.88,-166.08 531.97,-156.95 536.75,-148.39"/>
<polygon fill="black" stroke="black" points="539.78,-150.13 541.6,-139.69 533.67,-146.72 539.78,-150.13"/>
</g>
<!-- com.example.sms.domain.model.master.employee -->
<g id="node6" class="node">
<title>com.example.sms.domain.model.master.employee</title>
<g id="a_node6"><a xlink:href="./domain.html#com.example.sms.domain.model.master.employee" xlink:title="社員\nemployee">
<polygon fill="#eedd82" stroke="black" points="320.62,-213.5 251.38,-213.5 251.38,-174 320.62,-174 320.62,-213.5"/>
<text text-anchor="middle" x="286" y="-196.2" font-family="Times,serif" font-size="14.00">社員</text>
<text text-anchor="middle" x="286" y="-181.2" font-family="Times,serif" font-size="14.00">employee</text>
</a>
</g>
</g>
<!-- com.example.sms.domain.model.master.employee&#45;&gt;com.example.sms.domain.model.system.user -->
<g id="edge3" class="edge">
<title>com.example.sms.domain.model.master.employee&#45;&gt;com.example.sms.domain.model.system.user</title>
<path fill="none" stroke="black" d="M321.12,-173.63C337.91,-164.49 358.22,-153.43 376.12,-143.68"/>
<polygon fill="black" stroke="black" points="377.62,-146.85 384.73,-139 374.27,-140.71 377.62,-146.85"/>
</g>
<!-- com.example.sms.domain.type.quantity -->
<g id="node10" class="node">
<title>com.example.sms.domain.type.quantity</title>
<g id="a_node10"><a xlink:href="./domain.html#com.example.sms.domain.type.quantity" xlink:title="数量\ntype.quantity">
<polygon fill="#eedd82" stroke="black" points="698.62,-138 611.38,-138 611.38,-98.5 698.62,-98.5 698.62,-138"/>
<text text-anchor="middle" x="655" y="-120.7" font-family="Times,serif" font-size="14.00">数量</text>
<text text-anchor="middle" x="655" y="-105.7" font-family="Times,serif" font-size="14.00">type.quantity</text>
</a>
</g>
</g>
<!-- com.example.sms.domain.model.common.quantity&#45;&gt;com.example.sms.domain.type.quantity -->
<g id="edge7" class="edge">
<title>com.example.sms.domain.model.common.quantity&#45;&gt;com.example.sms.domain.type.quantity</title>
<path fill="none" stroke="black" d="M604.51,-173.82C612.15,-165.57 621.24,-155.74 629.6,-146.71"/>
<polygon fill="black" stroke="black" points="632.06,-149.2 636.28,-139.48 626.92,-144.44 632.06,-149.2"/>
</g>
<!-- com.example.sms.domain.model.system.auth -->
<g id="node11" class="node">
<title>com.example.sms.domain.model.system.auth</title>
<g id="a_node11"><a xlink:href="./domain.html#com.example.sms.domain.model.system.auth" xlink:title="認証\nauth">
<polygon fill="#eedd82" stroke="black" points="454,-213.5 400,-213.5 400,-174 454,-174 454,-213.5"/>
<text text-anchor="middle" x="427" y="-196.2" font-family="Times,serif" font-size="14.00">認証</text>
<text text-anchor="middle" x="427" y="-181.2" font-family="Times,serif" font-size="14.00">auth</text>
</a>
</g>
</g>
<!-- com.example.sms.domain.model.system.auth&#45;&gt;com.example.sms.domain.model.system.user -->
<g id="edge10" class="edge">
<title>com.example.sms.domain.model.system.auth&#45;&gt;com.example.sms.domain.model.system.user</title>
<path fill="none" stroke="black" d="M425.45,-173.82C424.86,-166.51 424.16,-157.95 423.49,-149.81"/>
<polygon fill="black" stroke="black" points="426.99,-149.56 422.68,-139.88 420.01,-150.13 426.99,-149.56"/>
</g>
<!-- com.example.sms.domain.model.system.auth&#45;&gt;com.example.sms.domain.type.user -->
<g id="edge8" class="edge">
<title>com.example.sms.domain.model.system.auth&#45;&gt;com.example.sms.domain.type.user</title>
<path fill="none" stroke="black" d="M445.12,-173.61C453.19,-163.77 461.81,-151.12 466,-138 472.67,-117.15 468.95,-92.64 463.81,-73.84"/>
<polygon fill="black" stroke="black" points="467.2,-72.95 460.95,-64.4 460.5,-74.99 467.2,-72.95"/>
</g>
<!-- com.example.sms.domain.model.master.department -->
<g id="node12" class="node">
<title>com.example.sms.domain.model.master.department</title>
<g id="a_node12"><a xlink:href="./domain.html#com.example.sms.domain.model.master.department" xlink:title="部門\ndepartment">
<polygon fill="#eedd82" stroke="black" points="285.75,-317.5 208.25,-317.5 208.25,-278 285.75,-278 285.75,-317.5"/>
<text text-anchor="middle" x="247" y="-300.2" font-family="Times,serif" font-size="14.00">部門</text>
<text text-anchor="middle" x="247" y="-285.2" font-family="Times,serif" font-size="14.00">department</text>
</a>
</g>
</g>
<!-- com.example.sms.domain.model.master.department&#45;&gt;com.example.sms.domain.model.master.employee -->
<g id="edge11" class="edge">
<title>com.example.sms.domain.model.master.department&#45;&gt;com.example.sms.domain.model.master.employee</title>
<path fill="none" stroke="red" stroke-width="2" d="M258.39,-266.96C263.51,-253.57 269.54,-237.8 274.65,-224.42"/>
<polygon fill="red" stroke="red" stroke-width="2" points="255.72,-264.15 255.42,-274.74 262.26,-266.65 255.72,-264.15"/>
<polygon fill="red" stroke="red" stroke-width="2" points="277.31,-227.27 277.62,-216.68 270.78,-224.77 277.31,-227.27"/>
</g>
<!-- com.example.sms.domain.type.department -->
<g id="node13" class="node">
<title>com.example.sms.domain.type.department</title>
<g id="a_node13"><a xlink:href="./domain.html#com.example.sms.domain.type.department" xlink:title="部門\ntype.department">
<polygon fill="#eedd82" stroke="black" points="739.25,-213.5 634.75,-213.5 634.75,-174 739.25,-174 739.25,-213.5"/>
<text text-anchor="middle" x="687" y="-196.2" font-family="Times,serif" font-size="14.00">部門</text>
<text text-anchor="middle" x="687" y="-181.2" font-family="Times,serif" font-size="14.00">type.department</text>
</a>
</g>
</g>
<!-- com.example.sms.domain.model.master.department&#45;&gt;com.example.sms.domain.type.department -->
<g id="edge9" class="edge">
<title>com.example.sms.domain.model.master.department&#45;&gt;com.example.sms.domain.type.department</title>
<path fill="none" stroke="black" d="M274.27,-277.54C280.49,-274.06 287.26,-270.93 294,-269 329.8,-258.76 595.28,-276.78 629,-261 646.1,-253 660.2,-237.3 670.21,-223.19"/>
<polygon fill="black" stroke="black" points="673,-225.31 675.64,-215.05 667.18,-221.43 673,-225.31"/>
</g>
</g>
</svg>
