<?xml version="1.0" encoding="UTF-8" standalone="no"?>
<!DOCTYPE svg PUBLIC "-//W3C//DTD SVG 1.1//EN"
 "http://www.w3.org/Graphics/SVG/1.1/DTD/svg11.dtd">
<!-- Generated by graphviz version 12.2.0 (20241103.1931)
 -->
<!-- Title: パッケージ関連図 Pages: 1 -->
<svg width="571pt" height="317pt"
 viewBox="0.00 0.00 570.62 317.38" xmlns="http://www.w3.org/2000/svg" xmlns:xlink="http://www.w3.org/1999/xlink">
<g id="graph0" class="graph" transform="scale(1 1) rotate(0) translate(4 313.38)">
<title>パッケージ関連図</title>
<polygon fill="white" stroke="none" points="-4,4 -4,-313.38 566.62,-313.38 566.62,4 -4,4"/>
<text text-anchor="middle" x="281.31" y="-4.95" font-family="Times New Roman,serif" font-size="14.00">パッケージ関連図</text>
<g id="clust1" class="cluster">
<title>cluster_com.example.sms.domain.model.system</title>
<polygon fill="lemonchiffon" stroke="#eedd82" stroke-width="2" points="90,-30.25 90,-198.5 192,-198.5 192,-30.25 90,-30.25"/>
<text text-anchor="middle" x="141" y="-181.2" font-family="Times New Roman,serif" font-size="14.00">システム</text>
<text text-anchor="middle" x="141" y="-166.95" font-family="Times New Roman,serif" font-size="14.00">model.system</text>
</g>
<g id="clust2" class="cluster">
<title>cluster_com.example.sms.domain.model.master</title>
<polygon fill="lemonchiffon" stroke="#eedd82" stroke-width="2" points="200,-105 200,-301.38 369,-301.38 369,-105 200,-105"/>
<text text-anchor="middle" x="284.5" y="-284.07" font-family="Times New Roman,serif" font-size="14.00">マスタ</text>
<text text-anchor="middle" x="284.5" y="-269.82" font-family="Times New Roman,serif" font-size="14.00">model.master</text>
</g>
<!-- summary -->
<g id="node1" class="node">
<title>summary</title>
<polygon fill="none" stroke="black" points="184,-264 0,-264 0,-206.5 190,-206.5 190,-258 184,-264"/>
<polyline fill="none" stroke="black" points="184,-264 184,-258"/>
<polyline fill="none" stroke="black" points="190,-258 184,-258"/>
<text text-anchor="start" x="8" y="-246.7" font-family="Times New Roman,serif" font-size="14.00">root: com.example.sms.domain</text>
<text text-anchor="start" x="8" y="-230.2" font-family="Times New Roman,serif" font-size="14.00">パッケージ数: 7</text>
<text text-anchor="start" x="8" y="-213.7" font-family="Times New Roman,serif" font-size="14.00">関連数: 6</text>
</g>
<!-- com.example.sms.domain.model.master.employee -->
<g id="node2" class="node">
<title>com.example.sms.domain.model.master.employee</title>
<g id="a_node2"><a xlink:href="./domain.html#com.example.sms.domain.model.master.employee" xlink:title="社員\nemployee">
<polygon fill="#eedd82" stroke="black" points="279.62,-151.75 210.38,-151.75 210.38,-113 279.62,-113 279.62,-151.75"/>
<text text-anchor="middle" x="245" y="-134.45" font-family="Times New Roman,serif" font-size="14.00">社員</text>
<text text-anchor="middle" x="245" y="-120.2" font-family="Times New Roman,serif" font-size="14.00">employee</text>
</a>
</g>
</g>
<!-- com.example.sms.domain.model.system.user -->
<g id="node3" class="node">
<title>com.example.sms.domain.model.system.user</title>
<g id="a_node3"><a xlink:href="./domain.html#com.example.sms.domain.model.system.user" xlink:title="ユーザー\nuser">
<polygon fill="#eedd82" stroke="black" points="183.5,-77 98.5,-77 98.5,-38.25 183.5,-38.25 183.5,-77"/>
<text text-anchor="middle" x="141" y="-59.7" font-family="Times New Roman,serif" font-size="14.00">ユーザー</text>
<text text-anchor="middle" x="141" y="-45.45" font-family="Times New Roman,serif" font-size="14.00">user</text>
</a>
</g>
</g>
<!-- com.example.sms.domain.model.master.employee&#45;&gt;com.example.sms.domain.model.system.user -->
<g id="edge1" class="edge">
<title>com.example.sms.domain.model.master.employee&#45;&gt;com.example.sms.domain.model.system.user</title>
<path fill="none" stroke="black" d="M218.22,-112.64C205.6,-103.81 190.37,-93.16 176.78,-83.66"/>
<polygon fill="black" stroke="black" points="179.13,-81.03 168.93,-78.16 175.12,-86.76 179.13,-81.03"/>
</g>
<!-- com.example.sms.domain.model.master.product -->
<g id="node4" class="node">
<title>com.example.sms.domain.model.master.product</title>
<g id="a_node4"><a xlink:href="./domain.html#com.example.sms.domain.model.master.product" xlink:title="商品\nproduct">
<polygon fill="#eedd82" stroke="black" points="360.62,-254.62 303.38,-254.62 303.38,-215.88 360.62,-215.88 360.62,-254.62"/>
<text text-anchor="middle" x="332" y="-237.32" font-family="Times New Roman,serif" font-size="14.00">商品</text>
<text text-anchor="middle" x="332" y="-223.07" font-family="Times New Roman,serif" font-size="14.00">product</text>
</a>
</g>
</g>
<!-- com.example.sms.domain.type.money -->
<g id="node5" class="node">
<title>com.example.sms.domain.type.money</title>
<g id="a_node5"><a xlink:href="./domain.html#com.example.sms.domain.type.money" xlink:title="通貨\ntype.money">
<polygon fill="#eedd82" stroke="black" points="457.25,-151.75 376.75,-151.75 376.75,-113 457.25,-113 457.25,-151.75"/>
<text text-anchor="middle" x="417" y="-134.45" font-family="Times New Roman,serif" font-size="14.00">通貨</text>
<text text-anchor="middle" x="417" y="-120.2" font-family="Times New Roman,serif" font-size="14.00">type.money</text>
</a>
</g>
</g>
<!-- com.example.sms.domain.model.master.product&#45;&gt;com.example.sms.domain.type.money -->
<g id="edge2" class="edge">
<title>com.example.sms.domain.model.master.product&#45;&gt;com.example.sms.domain.type.money</title>
<path fill="none" stroke="black" d="M355.54,-215.57C361.53,-210.34 367.75,-204.44 373,-198.5 383.03,-187.16 392.63,-173.42 400.29,-161.49"/>
<polygon fill="black" stroke="black" points="403.09,-163.6 405.43,-153.26 397.16,-159.89 403.09,-163.6"/>
</g>
<!-- com.example.sms.domain.type.quantity -->
<g id="node6" class="node">
<title>com.example.sms.domain.type.quantity</title>
<g id="a_node6"><a xlink:href="./domain.html#com.example.sms.domain.type.quantity" xlink:title="数量\ntype.quantity">
<polygon fill="#eedd82" stroke="black" points="562.62,-151.75 475.38,-151.75 475.38,-113 562.62,-113 562.62,-151.75"/>
<text text-anchor="middle" x="519" y="-134.45" font-family="Times New Roman,serif" font-size="14.00">数量</text>
<text text-anchor="middle" x="519" y="-120.2" font-family="Times New Roman,serif" font-size="14.00">type.quantity</text>
</a>
</g>
</g>
<!-- com.example.sms.domain.model.master.product&#45;&gt;com.example.sms.domain.type.quantity -->
<g id="edge3" class="edge">
<title>com.example.sms.domain.model.master.product&#45;&gt;com.example.sms.domain.type.quantity</title>
<path fill="none" stroke="black" d="M361.02,-231.73C389.67,-228.1 433.76,-219.36 466,-198.5 480.44,-189.16 492.82,-174.61 501.98,-161.62"/>
<polygon fill="black" stroke="black" points="504.85,-163.63 507.49,-153.37 499.03,-159.74 504.85,-163.63"/>
</g>
<!-- com.example.sms.domain.model.system.auth -->
<g id="node7" class="node">
<title>com.example.sms.domain.model.system.auth</title>
<g id="a_node7"><a xlink:href="./domain.html#com.example.sms.domain.model.system.auth" xlink:title="認証\nauth">
<polygon fill="#eedd82" stroke="black" points="168,-151.75 114,-151.75 114,-113 168,-113 168,-151.75"/>
<text text-anchor="middle" x="141" y="-134.45" font-family="Times New Roman,serif" font-size="14.00">認証</text>
<text text-anchor="middle" x="141" y="-120.2" font-family="Times New Roman,serif" font-size="14.00">auth</text>
</a>
</g>
</g>
<!-- com.example.sms.domain.model.system.auth&#45;&gt;com.example.sms.domain.model.system.user -->
<g id="edge4" class="edge">
<title>com.example.sms.domain.model.system.auth&#45;&gt;com.example.sms.domain.model.system.user</title>
<path fill="none" stroke="black" d="M141,-112.64C141,-105.34 141,-96.79 141,-88.68"/>
<polygon fill="black" stroke="black" points="144.5,-88.81 141,-78.81 137.5,-88.81 144.5,-88.81"/>
</g>
<!-- com.example.sms.domain.model.master.department -->
<g id="node8" class="node">
<title>com.example.sms.domain.model.master.department</title>
<g id="a_node8"><a xlink:href="./domain.html#com.example.sms.domain.model.master.department" xlink:title="部門\ndepartment">
<polygon fill="#eedd82" stroke="black" points="285.75,-254.62 208.25,-254.62 208.25,-215.88 285.75,-215.88 285.75,-254.62"/>
<text text-anchor="middle" x="247" y="-237.32" font-family="Times New Roman,serif" font-size="14.00">部門</text>
<text text-anchor="middle" x="247" y="-223.07" font-family="Times New Roman,serif" font-size="14.00">department</text>
</a>
</g>
</g>
<!-- com.example.sms.domain.model.master.department&#45;&gt;com.example.sms.domain.model.master.employee -->
<g id="edge5" class="edge">
<title>com.example.sms.domain.model.master.department&#45;&gt;com.example.sms.domain.model.master.employee</title>
<path fill="none" stroke="red" stroke-width="2" d="M246.41,-204.71C246.16,-191.7 245.85,-176.42 245.59,-163.35"/>
<polygon fill="red" stroke="red" stroke-width="2" points="242.88,-202.79 246.57,-212.72 249.87,-202.65 242.88,-202.79"/>
<polygon fill="red" stroke="red" stroke-width="2" points="249.13,-165.06 245.43,-155.13 242.13,-165.2 249.13,-165.06"/>
</g>
</g>
</svg>
