<?xml version="1.0" encoding="UTF-8" standalone="no"?>
<!DOCTYPE svg PUBLIC "-//W3C//DTD SVG 1.1//EN"
 "http://www.w3.org/Graphics/SVG/1.1/DTD/svg11.dtd">
<!-- Generated by graphviz version 12.2.0 (20241103.1931)
 -->
<!-- Title: ERD Pages: 1 -->
<svg width="963pt" height="1442pt"
 viewBox="0.00 0.00 962.50 1442.00" xmlns="http://www.w3.org/2000/svg" xmlns:xlink="http://www.w3.org/1999/xlink">
<g id="graph0" class="graph" transform="scale(1 1) rotate(0) translate(4 1438)">
<title>ERD</title>
<polygon fill="white" stroke="none" points="-4,4 -4,-1438 958.5,-1438 958.5,4 -4,4"/>
<g id="clust1" class="cluster">
<title>cluster_SYSTEM</title>
<polygon fill="lightyellow" stroke="black" points="514.25,-8 514.25,-97 946.5,-97 946.5,-8 514.25,-8"/>
<text text-anchor="middle" x="730.38" y="-79.7" font-family="Times New Roman,serif" font-size="14.00">SYSTEM</text>
</g>
<g id="clust2" class="cluster">
<title>cluster_PUBLIC</title>
<polygon fill="lightyellow" stroke="black" points="8,-105 8,-1426 927.75,-1426 927.75,-105 8,-105"/>
<text text-anchor="middle" x="467.88" y="-1408.7" font-family="Times New Roman,serif" font-size="14.00">PUBLIC</text>
</g>
<!-- SYSTEM.USR -->
<g id="node1" class="node">
<title>SYSTEM.USR</title>
<polygon fill="#eee9bf" stroke="none" points="522.25,-15.62 522.25,-64.38 609.25,-64.38 609.25,-15.62 522.25,-15.62"/>
<polygon fill="#eedd82" stroke="none" points="522.25,-38.12 522.25,-64.38 609.25,-64.38 609.25,-38.12 522.25,-38.12"/>
<polygon fill="none" stroke="black" points="522.25,-38.12 522.25,-64.38 609.25,-64.38 609.25,-38.12 522.25,-38.12"/>
<text text-anchor="start" x="528.25" y="-46.08" font-family="Times New Roman,serif" font-weight="bold" font-size="14.00">ユーザー</text>
<polygon fill="none" stroke="black" points="522.25,-15.62 522.25,-38.12 609.25,-38.12 609.25,-15.62 522.25,-15.62"/>
<text text-anchor="start" x="525.25" y="-21.82" font-family="Times New Roman,serif" font-size="14.00">USER_ID</text>
</g>
<!-- SYSTEM.APPLICATION_EXECUTION_HISTORY -->
<g id="node2" class="node">
<title>SYSTEM.APPLICATION_EXECUTION_HISTORY</title>
<polygon fill="#eee9bf" stroke="none" points="701.5,-15.62 701.5,-64.38 938.5,-64.38 938.5,-15.62 701.5,-15.62"/>
<polygon fill="#eedd82" stroke="none" points="701.5,-38.12 701.5,-64.38 938.5,-64.38 938.5,-38.12 701.5,-38.12"/>
<polygon fill="none" stroke="black" points="701.5,-38.12 701.5,-64.38 938.5,-64.38 938.5,-38.12 701.5,-38.12"/>
<text text-anchor="start" x="707.5" y="-46.08" font-family="Times New Roman,serif" font-weight="bold" font-size="14.00">アプリケーション実行履歴</text>
<polygon fill="none" stroke="black" points="701.5,-15.62 701.5,-38.12 938.5,-38.12 938.5,-15.62 701.5,-15.62"/>
<text text-anchor="start" x="704.5" y="-21.82" font-family="Times New Roman,serif" font-size="14.00">USER_ID</text>
</g>
<!-- SYSTEM.APPLICATION_EXECUTION_HISTORY&#45;&gt;SYSTEM.USR -->
<g id="edge1" class="edge">
<title>SYSTEM.APPLICATION_EXECUTION_HISTORY:r0&#45;&gt;SYSTEM.USR:r1</title>
<path fill="none" stroke="black" stroke-dasharray="5,2" d="M701.5,-26.88C664.9,-26.88 653.08,-26.88 621.32,-26.88"/>
<polygon fill="black" stroke="black" points="611.47,-26.88 621.47,-22.38 615.25,-26.88 621.47,-26.88 621.47,-26.88 621.47,-26.88 615.25,-26.88 621.47,-31.38 611.47,-26.88"/>
</g>
<!-- PUBLIC.与信残高データ -->
<g id="node3" class="node">
<title>PUBLIC.与信残高データ</title>
<polygon fill="#eee9bf" stroke="none" points="748.38,-112.88 748.38,-139.12 891.62,-139.12 891.62,-112.88 748.38,-112.88"/>
<polygon fill="#eedd82" stroke="none" points="748.38,-112.88 748.38,-139.12 891.62,-139.12 891.62,-112.88 748.38,-112.88"/>
<polygon fill="none" stroke="black" points="748.38,-112.88 748.38,-139.12 891.62,-139.12 891.62,-112.88 748.38,-112.88"/>
<text text-anchor="start" x="754.38" y="-120.83" font-family="Times New Roman,serif" font-weight="bold" font-size="14.00">与信残高データ</text>
</g>
<!-- PUBLIC.取引先グループマスタ -->
<g id="node4" class="node">
<title>PUBLIC.取引先グループマスタ</title>
<polygon fill="#eee9bf" stroke="none" points="720.25,-156.88 720.25,-183.12 919.75,-183.12 919.75,-156.88 720.25,-156.88"/>
<polygon fill="#eedd82" stroke="none" points="720.25,-156.88 720.25,-183.12 919.75,-183.12 919.75,-156.88 720.25,-156.88"/>
<polygon fill="none" stroke="black" points="720.25,-156.88 720.25,-183.12 919.75,-183.12 919.75,-156.88 720.25,-156.88"/>
<text text-anchor="start" x="726.25" y="-164.82" font-family="Times New Roman,serif" font-weight="bold" font-size="14.00">取引先グループマスタ</text>
</g>
<!-- PUBLIC.取引先マスタ -->
<g id="node5" class="node">
<title>PUBLIC.取引先マスタ</title>
<polygon fill="#eee9bf" stroke="none" points="278.5,-502.75 278.5,-549.25 403,-549.25 403,-502.75 278.5,-502.75"/>
<polygon fill="#eedd82" stroke="none" points="278.5,-523 278.5,-549.25 403,-549.25 403,-523 278.5,-523"/>
<polygon fill="none" stroke="black" points="278.5,-523 278.5,-549.25 403,-549.25 403,-523 278.5,-523"/>
<text text-anchor="start" x="284.5" y="-530.95" font-family="Times New Roman,serif" font-weight="bold" font-size="14.00">取引先マスタ</text>
<polygon fill="none" stroke="black" points="278.5,-502.75 278.5,-523 403,-523 403,-502.75 278.5,-502.75"/>
<text text-anchor="start" x="281.5" y="-506.7" font-family="Times New Roman,serif" font-size="14.00">取引先コード</text>
</g>
<!-- PUBLIC.仕入先マスタ -->
<g id="node6" class="node">
<title>PUBLIC.仕入先マスタ</title>
<polygon fill="#eee9bf" stroke="none" points="503.5,-276.75 503.5,-323.25 628,-323.25 628,-276.75 503.5,-276.75"/>
<polygon fill="#eedd82" stroke="none" points="503.5,-297 503.5,-323.25 628,-323.25 628,-297 503.5,-297"/>
<polygon fill="none" stroke="black" points="503.5,-297 503.5,-323.25 628,-323.25 628,-297 503.5,-297"/>
<text text-anchor="start" x="509.5" y="-304.95" font-family="Times New Roman,serif" font-weight="bold" font-size="14.00">仕入先マスタ</text>
<polygon fill="none" stroke="black" points="503.5,-276.75 503.5,-297 628,-297 628,-276.75 503.5,-276.75"/>
<text text-anchor="start" x="506.5" y="-280.7" font-family="Times New Roman,serif" font-size="14.00">仕入先コード</text>
</g>
<!-- PUBLIC.仕入先マスタ&#45;&gt;PUBLIC.取引先マスタ -->
<g id="edge14" class="edge">
<title>PUBLIC.仕入先マスタ:r21&#45;&gt;PUBLIC.取引先マスタ:r20</title>
<path fill="none" stroke="black" stroke-dasharray="5,2" d="M502.5,-286.88C396.89,-286.88 505.15,-496.84 415,-512.01"/>
<polygon fill="black" stroke="black" points="405.21,-512.78 414.83,-507.51 408.98,-512.48 415.18,-512 415.18,-512 415.18,-512 408.98,-512.48 415.54,-516.48 405.21,-512.78"/>
</g>
<!-- PUBLIC.商品マスタ -->
<g id="node7" class="node">
<title>PUBLIC.商品マスタ</title>
<polygon fill="#eee9bf" stroke="none" points="512.88,-341.75 512.88,-388.25 618.62,-388.25 618.62,-341.75 512.88,-341.75"/>
<polygon fill="#eedd82" stroke="none" points="512.88,-362 512.88,-388.25 618.62,-388.25 618.62,-362 512.88,-362"/>
<polygon fill="none" stroke="black" points="512.88,-362 512.88,-388.25 618.62,-388.25 618.62,-362 512.88,-362"/>
<text text-anchor="start" x="518.88" y="-369.95" font-family="Times New Roman,serif" font-weight="bold" font-size="14.00">商品マスタ</text>
<polygon fill="none" stroke="black" points="512.88,-341.75 512.88,-362 618.62,-362 618.62,-341.75 512.88,-341.75"/>
<text text-anchor="start" x="515.88" y="-345.7" font-family="Times New Roman,serif" font-size="14.00">商品コード</text>
</g>
<!-- PUBLIC.部品表 -->
<g id="node8" class="node">
<title>PUBLIC.部品表</title>
<polygon fill="#eee9bf" stroke="none" points="773.88,-417.75 773.88,-464.25 866.12,-464.25 866.12,-417.75 773.88,-417.75"/>
<polygon fill="#eedd82" stroke="none" points="773.88,-438 773.88,-464.25 866.12,-464.25 866.12,-438 773.88,-438"/>
<polygon fill="none" stroke="black" points="773.88,-438 773.88,-464.25 866.12,-464.25 866.12,-438 773.88,-438"/>
<text text-anchor="start" x="791.88" y="-445.95" font-family="Times New Roman,serif" font-weight="bold" font-size="14.00">部品表</text>
<polygon fill="none" stroke="black" points="773.88,-417.75 773.88,-438 866.12,-438 866.12,-417.75 773.88,-417.75"/>
<text text-anchor="start" x="776.88" y="-421.7" font-family="Times New Roman,serif" font-size="14.00">商品コード</text>
</g>
<!-- PUBLIC.部品表&#45;&gt;PUBLIC.商品マスタ -->
<g id="edge8" class="edge">
<title>PUBLIC.部品表:r14&#45;&gt;PUBLIC.商品マスタ:r13</title>
<path fill="none" stroke="black" stroke-dasharray="5,2" d="M772.88,-427.88C740.06,-427.88 731.27,-422.79 701.5,-409 664.86,-392.02 663.85,-358.63 630.51,-352.76"/>
<polygon fill="black" stroke="black" points="620.84,-351.97 631.17,-348.3 624.61,-352.28 630.81,-352.79 630.81,-352.79 630.81,-352.79 624.61,-352.28 630.44,-357.27 620.84,-351.97"/>
</g>
<!-- PUBLIC.顧客別販売単価 -->
<g id="node9" class="node">
<title>PUBLIC.顧客別販売単価</title>
<polygon fill="#eee9bf" stroke="none" points="748.38,-265.75 748.38,-312.25 891.62,-312.25 891.62,-265.75 748.38,-265.75"/>
<polygon fill="#eedd82" stroke="none" points="748.38,-286 748.38,-312.25 891.62,-312.25 891.62,-286 748.38,-286"/>
<polygon fill="none" stroke="black" points="748.38,-286 748.38,-312.25 891.62,-312.25 891.62,-286 748.38,-286"/>
<text text-anchor="start" x="754.38" y="-293.95" font-family="Times New Roman,serif" font-weight="bold" font-size="14.00">顧客別販売単価</text>
<polygon fill="none" stroke="black" points="748.38,-265.75 748.38,-286 891.62,-286 891.62,-265.75 748.38,-265.75"/>
<text text-anchor="start" x="751.38" y="-269.7" font-family="Times New Roman,serif" font-size="14.00">商品コード</text>
</g>
<!-- PUBLIC.顧客別販売単価&#45;&gt;PUBLIC.商品マスタ -->
<g id="edge7" class="edge">
<title>PUBLIC.顧客別販売単価:r12&#45;&gt;PUBLIC.商品マスタ:r13</title>
<path fill="none" stroke="black" stroke-dasharray="5,2" d="M747.38,-275.88C685.18,-275.88 685.42,-343.23 630.54,-351.12"/>
<polygon fill="black" stroke="black" points="620.84,-351.79 630.51,-346.61 624.61,-351.53 630.82,-351.1 630.82,-351.1 630.82,-351.1 624.61,-351.53 631.13,-355.59 620.84,-351.79"/>
</g>
<!-- PUBLIC.支払データ -->
<g id="node10" class="node">
<title>PUBLIC.支払データ</title>
<polygon fill="#eee9bf" stroke="none" points="767.12,-329.88 767.12,-356.12 872.88,-356.12 872.88,-329.88 767.12,-329.88"/>
<polygon fill="#eedd82" stroke="none" points="767.12,-329.88 767.12,-356.12 872.88,-356.12 872.88,-329.88 767.12,-329.88"/>
<polygon fill="none" stroke="black" points="767.12,-329.88 767.12,-356.12 872.88,-356.12 872.88,-329.88 767.12,-329.88"/>
<text text-anchor="start" x="773.12" y="-337.82" font-family="Times New Roman,serif" font-weight="bold" font-size="14.00">支払データ</text>
</g>
<!-- PUBLIC.取引先分類マスタ -->
<g id="node11" class="node">
<title>PUBLIC.取引先分類マスタ</title>
<polygon fill="#eee9bf" stroke="none" points="251.5,-812.62 251.5,-879.38 430,-879.38 430,-812.62 251.5,-812.62"/>
<polygon fill="#eedd82" stroke="none" points="251.5,-853.12 251.5,-879.38 430,-879.38 430,-853.12 251.5,-853.12"/>
<polygon fill="none" stroke="black" points="251.5,-853.12 251.5,-879.38 430,-879.38 430,-853.12 251.5,-853.12"/>
<text text-anchor="start" x="265.75" y="-861.08" font-family="Times New Roman,serif" font-weight="bold" font-size="14.00">取引先分類マスタ</text>
<polygon fill="none" stroke="black" points="251.5,-832.88 251.5,-853.12 430,-853.12 430,-832.88 251.5,-832.88"/>
<text text-anchor="start" x="254.5" y="-836.83" font-family="Times New Roman,serif" font-size="14.00">取引先分類種別コード</text>
<polygon fill="none" stroke="black" points="251.5,-812.62 251.5,-832.88 430,-832.88 430,-812.62 251.5,-812.62"/>
<text text-anchor="start" x="254.5" y="-816.58" font-family="Times New Roman,serif" font-size="14.00">取引先分類コード</text>
</g>
<!-- PUBLIC.取引先分類種別マスタ -->
<g id="node19" class="node">
<title>PUBLIC.取引先分類種別マスタ</title>
<polygon fill="#eee9bf" stroke="none" points="16,-832.75 16,-879.25 215.5,-879.25 215.5,-832.75 16,-832.75"/>
<polygon fill="#eedd82" stroke="none" points="16,-853 16,-879.25 215.5,-879.25 215.5,-853 16,-853"/>
<polygon fill="none" stroke="black" points="16,-853 16,-879.25 215.5,-879.25 215.5,-853 16,-853"/>
<text text-anchor="start" x="22" y="-860.95" font-family="Times New Roman,serif" font-weight="bold" font-size="14.00">取引先分類種別マスタ</text>
<polygon fill="none" stroke="black" points="16,-832.75 16,-853 215.5,-853 215.5,-832.75 16,-832.75"/>
<text text-anchor="start" x="19" y="-836.7" font-family="Times New Roman,serif" font-size="14.00">取引先分類種別コード</text>
</g>
<!-- PUBLIC.取引先分類マスタ&#45;&gt;PUBLIC.取引先分類種別マスタ -->
<g id="edge20" class="edge">
<title>PUBLIC.取引先分類マスタ:r7&#45;&gt;PUBLIC.取引先分類種別マスタ:r31</title>
<path fill="none" stroke="black" stroke-dasharray="5,2" d="M251.5,-843C240,-843 234.7,-842.94 226.69,-842.9"/>
<polygon fill="black" stroke="black" points="216.72,-842.88 226.73,-838.4 220.5,-842.89 226.72,-842.9 226.72,-842.9 226.72,-842.9 220.5,-842.89 226.71,-847.4 216.72,-842.88"/>
</g>
<!-- PUBLIC.取引先分類所属マスタ -->
<g id="node12" class="node">
<title>PUBLIC.取引先分類所属マスタ</title>
<polygon fill="#eee9bf" stroke="none" points="466,-792.5 466,-879.5 665.5,-879.5 665.5,-792.5 466,-792.5"/>
<polygon fill="#eedd82" stroke="none" points="466,-853.25 466,-879.5 665.5,-879.5 665.5,-853.25 466,-853.25"/>
<polygon fill="none" stroke="black" points="466,-853.25 466,-879.5 665.5,-879.5 665.5,-853.25 466,-853.25"/>
<text text-anchor="start" x="472" y="-861.2" font-family="Times New Roman,serif" font-weight="bold" font-size="14.00">取引先分類所属マスタ</text>
<polygon fill="none" stroke="black" points="466,-833 466,-853.25 665.5,-853.25 665.5,-833 466,-833"/>
<text text-anchor="start" x="469" y="-836.95" font-family="Times New Roman,serif" font-size="14.00">取引先分類種別コード</text>
<polygon fill="none" stroke="black" points="466,-812.75 466,-833 665.5,-833 665.5,-812.75 466,-812.75"/>
<text text-anchor="start" x="469" y="-816.7" font-family="Times New Roman,serif" font-size="14.00">取引先分類コード</text>
<polygon fill="none" stroke="black" points="466,-792.5 466,-812.75 665.5,-812.75 665.5,-792.5 466,-792.5"/>
<text text-anchor="start" x="469" y="-796.45" font-family="Times New Roman,serif" font-size="14.00">取引先コード</text>
</g>
<!-- PUBLIC.取引先分類所属マスタ&#45;&gt;PUBLIC.取引先マスタ -->
<g id="edge15" class="edge">
<title>PUBLIC.取引先分類所属マスタ:r22&#45;&gt;PUBLIC.取引先マスタ:r20</title>
<path fill="none" stroke="black" stroke-dasharray="5,2" d="M466,-802.62C338.29,-802.62 523.8,-530.15 415.06,-513.66"/>
<polygon fill="black" stroke="black" points="405.22,-512.96 415.51,-509.18 408.99,-513.23 415.19,-513.66 415.19,-513.66 415.19,-513.66 408.99,-513.23 414.87,-518.15 405.22,-512.96"/>
</g>
<!-- PUBLIC.取引先分類所属マスタ&#45;&gt;PUBLIC.取引先分類マスタ -->
<g id="edge4" class="edge">
<title>PUBLIC.取引先分類所属マスタ:r6&#45;&gt;PUBLIC.取引先分類マスタ:r7</title>
<path fill="none" stroke="black" stroke-dasharray="5,2" d="M466,-843.12C454.5,-843.12 449.2,-843.06 441.19,-843.02"/>
<polygon fill="black" stroke="black" points="431.22,-843 441.23,-838.52 435,-843.01 441.22,-843.02 441.22,-843.02 441.22,-843.02 435,-843.01 441.21,-847.52 431.22,-843"/>
</g>
<!-- PUBLIC.取引先分類所属マスタ&#45;&gt;PUBLIC.取引先分類マスタ -->
<g id="edge5" class="edge">
<title>PUBLIC.取引先分類所属マスタ:r8&#45;&gt;PUBLIC.取引先分類マスタ:r9</title>
<path fill="none" stroke="black" stroke-dasharray="5,2" d="M466,-822.88C454.5,-822.88 449.2,-822.81 441.19,-822.77"/>
<polygon fill="black" stroke="black" points="431.22,-822.75 441.23,-818.27 435,-822.76 441.22,-822.77 441.22,-822.77 441.22,-822.77 435,-822.76 441.21,-827.27 431.22,-822.75"/>
</g>
<!-- PUBLIC.自動採番マスタ -->
<g id="node13" class="node">
<title>PUBLIC.自動採番マスタ</title>
<polygon fill="#eee9bf" stroke="none" points="748.38,-373.88 748.38,-400.12 891.62,-400.12 891.62,-373.88 748.38,-373.88"/>
<polygon fill="#eedd82" stroke="none" points="748.38,-373.88 748.38,-400.12 891.62,-400.12 891.62,-373.88 748.38,-373.88"/>
<polygon fill="none" stroke="black" points="748.38,-373.88 748.38,-400.12 891.62,-400.12 891.62,-373.88 748.38,-373.88"/>
<text text-anchor="start" x="754.38" y="-381.82" font-family="Times New Roman,serif" font-weight="bold" font-size="14.00">自動採番マスタ</text>
</g>
<!-- PUBLIC.発注データ明細 -->
<g id="node14" class="node">
<title>PUBLIC.発注データ明細</title>
<polygon fill="#eee9bf" stroke="none" points="748.38,-567.75 748.38,-614.25 891.62,-614.25 891.62,-567.75 748.38,-567.75"/>
<polygon fill="#eedd82" stroke="none" points="748.38,-588 748.38,-614.25 891.62,-614.25 891.62,-588 748.38,-588"/>
<polygon fill="none" stroke="black" points="748.38,-588 748.38,-614.25 891.62,-614.25 891.62,-588 748.38,-588"/>
<text text-anchor="start" x="754.38" y="-595.95" font-family="Times New Roman,serif" font-weight="bold" font-size="14.00">発注データ明細</text>
<polygon fill="none" stroke="black" points="748.38,-567.75 748.38,-588 891.62,-588 891.62,-567.75 748.38,-567.75"/>
<text text-anchor="start" x="751.38" y="-571.7" font-family="Times New Roman,serif" font-size="14.00">発注番号</text>
</g>
<!-- PUBLIC.発注データ -->
<g id="node21" class="node">
<title>PUBLIC.発注データ</title>
<polygon fill="#eee9bf" stroke="none" points="512.88,-567.75 512.88,-614.25 618.62,-614.25 618.62,-567.75 512.88,-567.75"/>
<polygon fill="#eedd82" stroke="none" points="512.88,-588 512.88,-614.25 618.62,-614.25 618.62,-588 512.88,-588"/>
<polygon fill="none" stroke="black" points="512.88,-588 512.88,-614.25 618.62,-614.25 618.62,-588 512.88,-588"/>
<text text-anchor="start" x="518.88" y="-595.95" font-family="Times New Roman,serif" font-weight="bold" font-size="14.00">発注データ</text>
<polygon fill="none" stroke="black" points="512.88,-567.75 512.88,-588 618.62,-588 618.62,-567.75 512.88,-567.75"/>
<text text-anchor="start" x="515.88" y="-571.7" font-family="Times New Roman,serif" font-size="14.00">発注番号</text>
</g>
<!-- PUBLIC.発注データ明細&#45;&gt;PUBLIC.発注データ -->
<g id="edge24" class="edge">
<title>PUBLIC.発注データ明細:r37&#45;&gt;PUBLIC.発注データ:r38</title>
<path fill="none" stroke="black" stroke-dasharray="5,2" d="M747.38,-577.88C694.48,-577.88 678.54,-577.88 630.7,-577.88"/>
<polygon fill="black" stroke="black" points="620.84,-577.88 630.84,-573.38 624.62,-577.88 630.84,-577.88 630.84,-577.88 630.84,-577.88 624.62,-577.88 630.84,-582.38 620.84,-577.88"/>
</g>
<!-- PUBLIC.受注データ -->
<g id="node15" class="node">
<title>PUBLIC.受注データ</title>
<polygon fill="#eee9bf" stroke="none" points="512.88,-1168.75 512.88,-1215.25 618.62,-1215.25 618.62,-1168.75 512.88,-1168.75"/>
<polygon fill="#eedd82" stroke="none" points="512.88,-1189 512.88,-1215.25 618.62,-1215.25 618.62,-1189 512.88,-1189"/>
<polygon fill="none" stroke="black" points="512.88,-1189 512.88,-1215.25 618.62,-1215.25 618.62,-1189 512.88,-1189"/>
<text text-anchor="start" x="518.88" y="-1196.95" font-family="Times New Roman,serif" font-weight="bold" font-size="14.00">受注データ</text>
<polygon fill="none" stroke="black" points="512.88,-1168.75 512.88,-1189 618.62,-1189 618.62,-1168.75 512.88,-1168.75"/>
<text text-anchor="start" x="515.88" y="-1172.7" font-family="Times New Roman,serif" font-size="14.00">受注番号</text>
</g>
<!-- PUBLIC.顧客マスタ -->
<g id="node16" class="node">
<title>PUBLIC.顧客マスタ</title>
<polygon fill="#eee9bf" stroke="none" points="512.88,-482.62 512.88,-549.38 618.62,-549.38 618.62,-482.62 512.88,-482.62"/>
<polygon fill="#eedd82" stroke="none" points="512.88,-523.12 512.88,-549.38 618.62,-549.38 618.62,-523.12 512.88,-523.12"/>
<polygon fill="none" stroke="black" points="512.88,-523.12 512.88,-549.38 618.62,-549.38 618.62,-523.12 512.88,-523.12"/>
<text text-anchor="start" x="518.88" y="-531.08" font-family="Times New Roman,serif" font-weight="bold" font-size="14.00">顧客マスタ</text>
<polygon fill="none" stroke="black" points="512.88,-502.88 512.88,-523.12 618.62,-523.12 618.62,-502.88 512.88,-502.88"/>
<text text-anchor="start" x="515.88" y="-506.82" font-family="Times New Roman,serif" font-size="14.00">顧客コード</text>
<polygon fill="none" stroke="black" points="512.88,-482.62 512.88,-502.88 618.62,-502.88 618.62,-482.62 512.88,-482.62"/>
<text text-anchor="start" x="515.88" y="-486.57" font-family="Times New Roman,serif" font-size="14.00">顧客枝番</text>
</g>
<!-- PUBLIC.顧客マスタ&#45;&gt;PUBLIC.取引先マスタ -->
<g id="edge13" class="edge">
<title>PUBLIC.顧客マスタ:r3&#45;&gt;PUBLIC.取引先マスタ:r20</title>
<path fill="none" stroke="black" stroke-dasharray="5,2" d="M511.88,-513C467.86,-513 454.15,-512.89 415.11,-512.88"/>
<polygon fill="black" stroke="black" points="405.22,-512.88 415.22,-508.38 409,-512.88 415.22,-512.88 415.22,-512.88 415.22,-512.88 409,-512.88 415.22,-517.38 405.22,-512.88"/>
</g>
<!-- PUBLIC.倉庫部門マスタ -->
<g id="node17" class="node">
<title>PUBLIC.倉庫部門マスタ</title>
<polygon fill="#eee9bf" stroke="none" points="748.38,-632.5 748.38,-719.5 891.62,-719.5 891.62,-632.5 748.38,-632.5"/>
<polygon fill="#eedd82" stroke="none" points="748.38,-693.25 748.38,-719.5 891.62,-719.5 891.62,-693.25 748.38,-693.25"/>
<polygon fill="none" stroke="black" points="748.38,-693.25 748.38,-719.5 891.62,-719.5 891.62,-693.25 748.38,-693.25"/>
<text text-anchor="start" x="754.38" y="-701.2" font-family="Times New Roman,serif" font-weight="bold" font-size="14.00">倉庫部門マスタ</text>
<polygon fill="none" stroke="black" points="748.38,-673 748.38,-693.25 891.62,-693.25 891.62,-673 748.38,-673"/>
<text text-anchor="start" x="751.38" y="-676.95" font-family="Times New Roman,serif" font-size="14.00">倉庫コード</text>
<polygon fill="none" stroke="black" points="748.38,-652.75 748.38,-673 891.62,-673 891.62,-652.75 748.38,-652.75"/>
<text text-anchor="start" x="751.38" y="-656.7" font-family="Times New Roman,serif" font-size="14.00">部門コード</text>
<polygon fill="none" stroke="black" points="748.38,-632.5 748.38,-652.75 891.62,-652.75 891.62,-632.5 748.38,-632.5"/>
<text text-anchor="start" x="751.38" y="-636.45" font-family="Times New Roman,serif" font-size="14.00">開始日</text>
</g>
<!-- PUBLIC.部門マスタ -->
<g id="node26" class="node">
<title>PUBLIC.部門マスタ</title>
<polygon fill="#eee9bf" stroke="none" points="512.88,-632.62 512.88,-699.38 618.62,-699.38 618.62,-632.62 512.88,-632.62"/>
<polygon fill="#eedd82" stroke="none" points="512.88,-673.12 512.88,-699.38 618.62,-699.38 618.62,-673.12 512.88,-673.12"/>
<polygon fill="none" stroke="black" points="512.88,-673.12 512.88,-699.38 618.62,-699.38 618.62,-673.12 512.88,-673.12"/>
<text text-anchor="start" x="518.88" y="-681.08" font-family="Times New Roman,serif" font-weight="bold" font-size="14.00">部門マスタ</text>
<polygon fill="none" stroke="black" points="512.88,-652.88 512.88,-673.12 618.62,-673.12 618.62,-652.88 512.88,-652.88"/>
<text text-anchor="start" x="515.88" y="-656.83" font-family="Times New Roman,serif" font-size="14.00">部門コード</text>
<polygon fill="none" stroke="black" points="512.88,-632.62 512.88,-652.88 618.62,-652.88 618.62,-632.62 512.88,-632.62"/>
<text text-anchor="start" x="515.88" y="-636.58" font-family="Times New Roman,serif" font-size="14.00">開始日</text>
</g>
<!-- PUBLIC.倉庫部門マスタ&#45;&gt;PUBLIC.部門マスタ -->
<g id="edge17" class="edge">
<title>PUBLIC.倉庫部門マスタ:r25&#45;&gt;PUBLIC.部門マスタ:r26</title>
<path fill="none" stroke="black" stroke-dasharray="5,2" d="M747.38,-662.88C694.48,-662.88 678.54,-662.98 630.7,-663"/>
<polygon fill="black" stroke="black" points="620.84,-663 630.84,-658.5 624.62,-663 630.84,-663 630.84,-663 630.84,-663 624.62,-663 630.84,-667.5 620.84,-663"/>
</g>
<!-- PUBLIC.倉庫部門マスタ&#45;&gt;PUBLIC.部門マスタ -->
<g id="edge18" class="edge">
<title>PUBLIC.倉庫部門マスタ:r27&#45;&gt;PUBLIC.部門マスタ:r28</title>
<path fill="none" stroke="black" stroke-dasharray="5,2" d="M747.38,-642.62C694.48,-642.62 678.54,-642.73 630.7,-642.75"/>
<polygon fill="black" stroke="black" points="620.84,-642.75 630.84,-638.25 624.62,-642.75 630.84,-642.75 630.84,-642.75 630.84,-642.75 624.62,-642.75 630.84,-647.25 620.84,-642.75"/>
</g>
<!-- PUBLIC.倉庫マスタ -->
<g id="node30" class="node">
<title>PUBLIC.倉庫マスタ</title>
<polygon fill="#eee9bf" stroke="none" points="512.88,-727.75 512.88,-774.25 618.62,-774.25 618.62,-727.75 512.88,-727.75"/>
<polygon fill="#eedd82" stroke="none" points="512.88,-748 512.88,-774.25 618.62,-774.25 618.62,-748 512.88,-748"/>
<polygon fill="none" stroke="black" points="512.88,-748 512.88,-774.25 618.62,-774.25 618.62,-748 512.88,-748"/>
<text text-anchor="start" x="518.88" y="-755.95" font-family="Times New Roman,serif" font-weight="bold" font-size="14.00">倉庫マスタ</text>
<polygon fill="none" stroke="black" points="512.88,-727.75 512.88,-748 618.62,-748 618.62,-727.75 512.88,-727.75"/>
<text text-anchor="start" x="515.88" y="-731.7" font-family="Times New Roman,serif" font-size="14.00">倉庫コード</text>
</g>
<!-- PUBLIC.倉庫部門マスタ&#45;&gt;PUBLIC.倉庫マスタ -->
<g id="edge10" class="edge">
<title>PUBLIC.倉庫部門マスタ:r16&#45;&gt;PUBLIC.倉庫マスタ:r17</title>
<path fill="none" stroke="black" stroke-dasharray="5,2" d="M747.38,-683.12C689.46,-683.12 682.15,-731.25 630.56,-737.26"/>
<polygon fill="black" stroke="black" points="620.84,-737.81 630.57,-732.75 624.62,-737.59 630.83,-737.25 630.83,-737.25 630.83,-737.25 624.62,-737.59 631.08,-741.74 620.84,-737.81"/>
</g>
<!-- PUBLIC.在庫データ -->
<g id="node18" class="node">
<title>PUBLIC.在庫データ</title>
<polygon fill="#eee9bf" stroke="none" points="767.12,-889.75 767.12,-936.25 872.88,-936.25 872.88,-889.75 767.12,-889.75"/>
<polygon fill="#eedd82" stroke="none" points="767.12,-910 767.12,-936.25 872.88,-936.25 872.88,-910 767.12,-910"/>
<polygon fill="none" stroke="black" points="767.12,-910 767.12,-936.25 872.88,-936.25 872.88,-910 767.12,-910"/>
<text text-anchor="start" x="773.12" y="-917.95" font-family="Times New Roman,serif" font-weight="bold" font-size="14.00">在庫データ</text>
<polygon fill="none" stroke="black" points="767.12,-889.75 767.12,-910 872.88,-910 872.88,-889.75 767.12,-889.75"/>
<text text-anchor="start" x="770.12" y="-893.7" font-family="Times New Roman,serif" font-size="14.00">倉庫コード</text>
</g>
<!-- PUBLIC.在庫データ&#45;&gt;PUBLIC.倉庫マスタ -->
<g id="edge12" class="edge">
<title>PUBLIC.在庫データ:r19&#45;&gt;PUBLIC.倉庫マスタ:r17</title>
<path fill="none" stroke="black" stroke-dasharray="5,2" d="M766.12,-899.88C736.2,-899.88 723.4,-901.39 701.5,-881 650.8,-833.79 688.28,-747.94 630.62,-738.69"/>
<polygon fill="black" stroke="black" points="620.84,-737.96 631.14,-734.22 624.61,-738.24 630.81,-738.7 630.81,-738.7 630.81,-738.7 624.61,-738.24 630.48,-743.19 620.84,-737.96"/>
</g>
<!-- PUBLIC.出荷先マスタ -->
<g id="node20" class="node">
<title>PUBLIC.出荷先マスタ</title>
<polygon fill="#eee9bf" stroke="none" points="757.75,-482.62 757.75,-549.38 882.25,-549.38 882.25,-482.62 757.75,-482.62"/>
<polygon fill="#eedd82" stroke="none" points="757.75,-523.12 757.75,-549.38 882.25,-549.38 882.25,-523.12 757.75,-523.12"/>
<polygon fill="none" stroke="black" points="757.75,-523.12 757.75,-549.38 882.25,-549.38 882.25,-523.12 757.75,-523.12"/>
<text text-anchor="start" x="763.75" y="-531.08" font-family="Times New Roman,serif" font-weight="bold" font-size="14.00">出荷先マスタ</text>
<polygon fill="none" stroke="black" points="757.75,-502.88 757.75,-523.12 882.25,-523.12 882.25,-502.88 757.75,-502.88"/>
<text text-anchor="start" x="760.75" y="-506.82" font-family="Times New Roman,serif" font-size="14.00">顧客コード</text>
<polygon fill="none" stroke="black" points="757.75,-482.62 757.75,-502.88 882.25,-502.88 882.25,-482.62 757.75,-482.62"/>
<text text-anchor="start" x="760.75" y="-486.57" font-family="Times New Roman,serif" font-size="14.00">顧客枝番</text>
</g>
<!-- PUBLIC.出荷先マスタ&#45;&gt;PUBLIC.顧客マスタ -->
<g id="edge2" class="edge">
<title>PUBLIC.出荷先マスタ:r2&#45;&gt;PUBLIC.顧客マスタ:r3</title>
<path fill="none" stroke="black" stroke-dasharray="5,2" d="M756.75,-513C699.61,-513 682.65,-513 630.54,-513"/>
<polygon fill="black" stroke="black" points="620.84,-513 630.84,-508.5 624.62,-513 630.84,-513 630.84,-513 630.84,-513 624.62,-513 630.84,-517.5 620.84,-513"/>
</g>
<!-- PUBLIC.出荷先マスタ&#45;&gt;PUBLIC.顧客マスタ -->
<g id="edge3" class="edge">
<title>PUBLIC.出荷先マスタ:r4&#45;&gt;PUBLIC.顧客マスタ:r5</title>
<path fill="none" stroke="black" stroke-dasharray="5,2" d="M756.75,-492.75C699.61,-492.75 682.65,-492.75 630.54,-492.75"/>
<polygon fill="black" stroke="black" points="620.84,-492.75 630.84,-488.25 624.62,-492.75 630.84,-492.75 630.84,-492.75 630.84,-492.75 624.62,-492.75 630.84,-497.25 620.84,-492.75"/>
</g>
<!-- PUBLIC.請求データ -->
<g id="node22" class="node">
<title>PUBLIC.請求データ</title>
<polygon fill="#eee9bf" stroke="none" points="512.88,-996.75 512.88,-1043.25 618.62,-1043.25 618.62,-996.75 512.88,-996.75"/>
<polygon fill="#eedd82" stroke="none" points="512.88,-1017 512.88,-1043.25 618.62,-1043.25 618.62,-1017 512.88,-1017"/>
<polygon fill="none" stroke="black" points="512.88,-1017 512.88,-1043.25 618.62,-1043.25 618.62,-1017 512.88,-1017"/>
<text text-anchor="start" x="518.88" y="-1024.95" font-family="Times New Roman,serif" font-weight="bold" font-size="14.00">請求データ</text>
<polygon fill="none" stroke="black" points="512.88,-996.75 512.88,-1017 618.62,-1017 618.62,-996.75 512.88,-996.75"/>
<text text-anchor="start" x="515.88" y="-1000.7" font-family="Times New Roman,serif" font-size="14.00">請求番号</text>
</g>
<!-- PUBLIC.仕入データ明細 -->
<g id="node23" class="node">
<title>PUBLIC.仕入データ明細</title>
<polygon fill="#eee9bf" stroke="none" points="748.38,-954.75 748.38,-1001.25 891.62,-1001.25 891.62,-954.75 748.38,-954.75"/>
<polygon fill="#eedd82" stroke="none" points="748.38,-975 748.38,-1001.25 891.62,-1001.25 891.62,-975 748.38,-975"/>
<polygon fill="none" stroke="black" points="748.38,-975 748.38,-1001.25 891.62,-1001.25 891.62,-975 748.38,-975"/>
<text text-anchor="start" x="754.38" y="-982.95" font-family="Times New Roman,serif" font-weight="bold" font-size="14.00">仕入データ明細</text>
<polygon fill="none" stroke="black" points="748.38,-954.75 748.38,-975 891.62,-975 891.62,-954.75 748.38,-954.75"/>
<text text-anchor="start" x="751.38" y="-958.7" font-family="Times New Roman,serif" font-size="14.00">仕入番号</text>
</g>
<!-- PUBLIC.仕入データ -->
<g id="node38" class="node">
<title>PUBLIC.仕入データ</title>
<polygon fill="#eee9bf" stroke="none" points="512.88,-931.75 512.88,-978.25 618.62,-978.25 618.62,-931.75 512.88,-931.75"/>
<polygon fill="#eedd82" stroke="none" points="512.88,-952 512.88,-978.25 618.62,-978.25 618.62,-952 512.88,-952"/>
<polygon fill="none" stroke="black" points="512.88,-952 512.88,-978.25 618.62,-978.25 618.62,-952 512.88,-952"/>
<text text-anchor="start" x="518.88" y="-959.95" font-family="Times New Roman,serif" font-weight="bold" font-size="14.00">仕入データ</text>
<polygon fill="none" stroke="black" points="512.88,-931.75 512.88,-952 618.62,-952 618.62,-931.75 512.88,-931.75"/>
<text text-anchor="start" x="515.88" y="-935.7" font-family="Times New Roman,serif" font-size="14.00">仕入番号</text>
</g>
<!-- PUBLIC.仕入データ明細&#45;&gt;PUBLIC.仕入データ -->
<g id="edge19" class="edge">
<title>PUBLIC.仕入データ明細:r29&#45;&gt;PUBLIC.仕入データ:r30</title>
<path fill="none" stroke="black" stroke-dasharray="5,2" d="M747.38,-964.88C693.52,-964.88 679.16,-944.83 630.55,-942.17"/>
<polygon fill="black" stroke="black" points="620.84,-941.91 630.96,-937.68 624.62,-942.01 630.84,-942.17 630.84,-942.17 630.84,-942.17 624.62,-942.01 630.72,-946.67 620.84,-941.91"/>
</g>
<!-- PUBLIC.入金口座マスタ -->
<g id="node24" class="node">
<title>PUBLIC.入金口座マスタ</title>
<polygon fill="#eee9bf" stroke="none" points="748.38,-801.88 748.38,-828.12 891.62,-828.12 891.62,-801.88 748.38,-801.88"/>
<polygon fill="#eedd82" stroke="none" points="748.38,-801.88 748.38,-828.12 891.62,-828.12 891.62,-801.88 748.38,-801.88"/>
<polygon fill="none" stroke="black" points="748.38,-801.88 748.38,-828.12 891.62,-828.12 891.62,-801.88 748.38,-801.88"/>
<text text-anchor="start" x="754.38" y="-809.83" font-family="Times New Roman,serif" font-weight="bold" font-size="14.00">入金口座マスタ</text>
</g>
<!-- PUBLIC.社員マスタ -->
<g id="node25" class="node">
<title>PUBLIC.社員マスタ</title>
<polygon fill="#eee9bf" stroke="none" points="767.12,-845.88 767.12,-872.12 872.88,-872.12 872.88,-845.88 767.12,-845.88"/>
<polygon fill="#eedd82" stroke="none" points="767.12,-845.88 767.12,-872.12 872.88,-872.12 872.88,-845.88 767.12,-845.88"/>
<polygon fill="none" stroke="black" points="767.12,-845.88 767.12,-872.12 872.88,-872.12 872.88,-845.88 767.12,-845.88"/>
<text text-anchor="start" x="773.12" y="-853.83" font-family="Times New Roman,serif" font-weight="bold" font-size="14.00">社員マスタ</text>
</g>
<!-- PUBLIC.請求データ明細 -->
<g id="node27" class="node">
<title>PUBLIC.請求データ明細</title>
<polygon fill="#eee9bf" stroke="none" points="748.38,-1019.5 748.38,-1106.5 891.62,-1106.5 891.62,-1019.5 748.38,-1019.5"/>
<polygon fill="#eedd82" stroke="none" points="748.38,-1080.25 748.38,-1106.5 891.62,-1106.5 891.62,-1080.25 748.38,-1080.25"/>
<polygon fill="none" stroke="black" points="748.38,-1080.25 748.38,-1106.5 891.62,-1106.5 891.62,-1080.25 748.38,-1080.25"/>
<text text-anchor="start" x="754.38" y="-1088.2" font-family="Times New Roman,serif" font-weight="bold" font-size="14.00">請求データ明細</text>
<polygon fill="none" stroke="black" points="748.38,-1060 748.38,-1080.25 891.62,-1080.25 891.62,-1060 748.38,-1060"/>
<text text-anchor="start" x="751.38" y="-1063.95" font-family="Times New Roman,serif" font-size="14.00">売上番号</text>
<polygon fill="none" stroke="black" points="748.38,-1039.75 748.38,-1060 891.62,-1060 891.62,-1039.75 748.38,-1039.75"/>
<text text-anchor="start" x="751.38" y="-1043.7" font-family="Times New Roman,serif" font-size="14.00">売上行番号</text>
<polygon fill="none" stroke="black" points="748.38,-1019.5 748.38,-1039.75 891.62,-1039.75 891.62,-1019.5 748.38,-1019.5"/>
<text text-anchor="start" x="751.38" y="-1023.45" font-family="Times New Roman,serif" font-size="14.00">請求番号</text>
</g>
<!-- PUBLIC.請求データ明細&#45;&gt;PUBLIC.請求データ -->
<g id="edge23" class="edge">
<title>PUBLIC.請求データ明細:r35&#45;&gt;PUBLIC.請求データ:r36</title>
<path fill="none" stroke="black" stroke-dasharray="5,2" d="M747.38,-1029.62C693.53,-1029.62 679.14,-1009.8 630.54,-1007.16"/>
<polygon fill="black" stroke="black" points="620.84,-1006.91 630.96,-1002.67 624.62,-1007.01 630.84,-1007.17 630.84,-1007.17 630.84,-1007.17 624.62,-1007.01 630.72,-1011.67 620.84,-1006.91"/>
</g>
<!-- PUBLIC.売上データ明細 -->
<g id="node31" class="node">
<title>PUBLIC.売上データ明細</title>
<polygon fill="#eee9bf" stroke="none" points="494.12,-1061.62 494.12,-1128.38 637.38,-1128.38 637.38,-1061.62 494.12,-1061.62"/>
<polygon fill="#eedd82" stroke="none" points="494.12,-1102.12 494.12,-1128.38 637.38,-1128.38 637.38,-1102.12 494.12,-1102.12"/>
<polygon fill="none" stroke="black" points="494.12,-1102.12 494.12,-1128.38 637.38,-1128.38 637.38,-1102.12 494.12,-1102.12"/>
<text text-anchor="start" x="500.12" y="-1110.08" font-family="Times New Roman,serif" font-weight="bold" font-size="14.00">売上データ明細</text>
<polygon fill="none" stroke="black" points="494.12,-1081.88 494.12,-1102.12 637.38,-1102.12 637.38,-1081.88 494.12,-1081.88"/>
<text text-anchor="start" x="497.12" y="-1085.83" font-family="Times New Roman,serif" font-size="14.00">売上番号</text>
<polygon fill="none" stroke="black" points="494.12,-1061.62 494.12,-1081.88 637.38,-1081.88 637.38,-1061.62 494.12,-1061.62"/>
<text text-anchor="start" x="497.12" y="-1065.58" font-family="Times New Roman,serif" font-size="14.00">売上行番号</text>
</g>
<!-- PUBLIC.請求データ明細&#45;&gt;PUBLIC.売上データ明細 -->
<g id="edge21" class="edge">
<title>PUBLIC.請求データ明細:r32&#45;&gt;PUBLIC.売上データ明細:r23</title>
<path fill="none" stroke="black" stroke-dasharray="5,2" d="M747.38,-1070.12C701.92,-1070.12 689.67,-1088.64 649.53,-1091.6"/>
<polygon fill="black" stroke="black" points="639.59,-1091.96 649.43,-1087.1 643.37,-1091.82 649.59,-1091.6 649.59,-1091.6 649.59,-1091.6 643.37,-1091.82 649.75,-1096.1 639.59,-1091.96"/>
</g>
<!-- PUBLIC.請求データ明細&#45;&gt;PUBLIC.売上データ明細 -->
<g id="edge22" class="edge">
<title>PUBLIC.請求データ明細:r33&#45;&gt;PUBLIC.売上データ明細:r34</title>
<path fill="none" stroke="black" stroke-dasharray="5,2" d="M747.38,-1049.88C701.92,-1049.88 689.67,-1068.39 649.53,-1071.35"/>
<polygon fill="black" stroke="black" points="639.59,-1071.71 649.43,-1066.85 643.37,-1071.57 649.59,-1071.35 649.59,-1071.35 649.59,-1071.35 643.37,-1071.57 649.75,-1075.85 639.59,-1071.71"/>
</g>
<!-- PUBLIC.棚番マスタ -->
<g id="node28" class="node">
<title>PUBLIC.棚番マスタ</title>
<polygon fill="#eee9bf" stroke="none" points="767.12,-737.75 767.12,-784.25 872.88,-784.25 872.88,-737.75 767.12,-737.75"/>
<polygon fill="#eedd82" stroke="none" points="767.12,-758 767.12,-784.25 872.88,-784.25 872.88,-758 767.12,-758"/>
<polygon fill="none" stroke="black" points="767.12,-758 767.12,-784.25 872.88,-784.25 872.88,-758 767.12,-758"/>
<text text-anchor="start" x="773.12" y="-765.95" font-family="Times New Roman,serif" font-weight="bold" font-size="14.00">棚番マスタ</text>
<polygon fill="none" stroke="black" points="767.12,-737.75 767.12,-758 872.88,-758 872.88,-737.75 767.12,-737.75"/>
<text text-anchor="start" x="770.12" y="-741.7" font-family="Times New Roman,serif" font-size="14.00">倉庫コード</text>
</g>
<!-- PUBLIC.棚番マスタ&#45;&gt;PUBLIC.倉庫マスタ -->
<g id="edge11" class="edge">
<title>PUBLIC.棚番マスタ:r18&#45;&gt;PUBLIC.倉庫マスタ:r17</title>
<path fill="none" stroke="black" stroke-dasharray="5,2" d="M766.12,-747.88C704.69,-747.88 686.93,-739.01 630.61,-737.97"/>
<polygon fill="black" stroke="black" points="620.84,-737.89 630.88,-733.48 624.62,-737.92 630.84,-737.98 630.84,-737.98 630.84,-737.98 624.62,-737.92 630.8,-742.48 620.84,-737.89"/>
</g>
<!-- PUBLIC.代替商品 -->
<g id="node29" class="node">
<title>PUBLIC.代替商品</title>
<polygon fill="#eee9bf" stroke="none" points="773.88,-200.75 773.88,-247.25 866.12,-247.25 866.12,-200.75 773.88,-200.75"/>
<polygon fill="#eedd82" stroke="none" points="773.88,-221 773.88,-247.25 866.12,-247.25 866.12,-221 773.88,-221"/>
<polygon fill="none" stroke="black" points="773.88,-221 773.88,-247.25 866.12,-247.25 866.12,-221 773.88,-221"/>
<text text-anchor="start" x="782.5" y="-228.95" font-family="Times New Roman,serif" font-weight="bold" font-size="14.00">代替商品</text>
<polygon fill="none" stroke="black" points="773.88,-200.75 773.88,-221 866.12,-221 866.12,-200.75 773.88,-200.75"/>
<text text-anchor="start" x="776.88" y="-204.7" font-family="Times New Roman,serif" font-size="14.00">商品コード</text>
</g>
<!-- PUBLIC.代替商品&#45;&gt;PUBLIC.商品マスタ -->
<g id="edge9" class="edge">
<title>PUBLIC.代替商品:r15&#45;&gt;PUBLIC.商品マスタ:r13</title>
<path fill="none" stroke="black" stroke-dasharray="5,2" d="M772.88,-210.88C735.11,-210.88 726.47,-228.66 701.5,-257 677.06,-284.74 692.15,-306.37 665.5,-332 652.49,-344.52 645.01,-349.81 630.74,-351.36"/>
<polygon fill="black" stroke="black" points="620.84,-351.82 630.62,-346.86 624.62,-351.64 630.83,-351.36 630.83,-351.36 630.83,-351.36 624.62,-351.64 631.04,-355.85 620.84,-351.82"/>
</g>
<!-- PUBLIC.売上データ -->
<g id="node34" class="node">
<title>PUBLIC.売上データ</title>
<polygon fill="#eee9bf" stroke="none" points="287.88,-1081.75 287.88,-1128.25 393.62,-1128.25 393.62,-1081.75 287.88,-1081.75"/>
<polygon fill="#eedd82" stroke="none" points="287.88,-1102 287.88,-1128.25 393.62,-1128.25 393.62,-1102 287.88,-1102"/>
<polygon fill="none" stroke="black" points="287.88,-1102 287.88,-1128.25 393.62,-1128.25 393.62,-1102 287.88,-1102"/>
<text text-anchor="start" x="293.88" y="-1109.95" font-family="Times New Roman,serif" font-weight="bold" font-size="14.00">売上データ</text>
<polygon fill="none" stroke="black" points="287.88,-1081.75 287.88,-1102 393.62,-1102 393.62,-1081.75 287.88,-1081.75"/>
<text text-anchor="start" x="290.88" y="-1085.7" font-family="Times New Roman,serif" font-size="14.00">売上番号</text>
</g>
<!-- PUBLIC.売上データ明細&#45;&gt;PUBLIC.売上データ -->
<g id="edge16" class="edge">
<title>PUBLIC.売上データ明細:r23&#45;&gt;PUBLIC.売上データ:r24</title>
<path fill="none" stroke="black" stroke-dasharray="5,2" d="M493.12,-1092C453.28,-1092 440.63,-1091.9 405.68,-1091.88"/>
<polygon fill="black" stroke="black" points="395.84,-1091.88 405.84,-1087.38 399.62,-1091.88 405.84,-1091.88 405.84,-1091.88 405.84,-1091.88 399.62,-1091.88 405.84,-1096.38 395.84,-1091.88"/>
</g>
<!-- PUBLIC.地域マスタ -->
<g id="node32" class="node">
<title>PUBLIC.地域マスタ</title>
<polygon fill="#eee9bf" stroke="none" points="767.12,-1124.88 767.12,-1151.12 872.88,-1151.12 872.88,-1124.88 767.12,-1124.88"/>
<polygon fill="#eedd82" stroke="none" points="767.12,-1124.88 767.12,-1151.12 872.88,-1151.12 872.88,-1124.88 767.12,-1124.88"/>
<polygon fill="none" stroke="black" points="767.12,-1124.88 767.12,-1151.12 872.88,-1151.12 872.88,-1124.88 767.12,-1124.88"/>
<text text-anchor="start" x="773.12" y="-1132.83" font-family="Times New Roman,serif" font-weight="bold" font-size="14.00">地域マスタ</text>
</g>
<!-- PUBLIC.受注データ明細 -->
<g id="node33" class="node">
<title>PUBLIC.受注データ明細</title>
<polygon fill="#eee9bf" stroke="none" points="748.38,-1168.75 748.38,-1215.25 891.62,-1215.25 891.62,-1168.75 748.38,-1168.75"/>
<polygon fill="#eedd82" stroke="none" points="748.38,-1189 748.38,-1215.25 891.62,-1215.25 891.62,-1189 748.38,-1189"/>
<polygon fill="none" stroke="black" points="748.38,-1189 748.38,-1215.25 891.62,-1215.25 891.62,-1189 748.38,-1189"/>
<text text-anchor="start" x="754.38" y="-1196.95" font-family="Times New Roman,serif" font-weight="bold" font-size="14.00">受注データ明細</text>
<polygon fill="none" stroke="black" points="748.38,-1168.75 748.38,-1189 891.62,-1189 891.62,-1168.75 748.38,-1168.75"/>
<text text-anchor="start" x="751.38" y="-1172.7" font-family="Times New Roman,serif" font-size="14.00">受注番号</text>
</g>
<!-- PUBLIC.受注データ明細&#45;&gt;PUBLIC.受注データ -->
<g id="edge6" class="edge">
<title>PUBLIC.受注データ明細:r10&#45;&gt;PUBLIC.受注データ:r11</title>
<path fill="none" stroke="black" stroke-dasharray="5,2" d="M747.38,-1178.88C694.48,-1178.88 678.54,-1178.88 630.7,-1178.88"/>
<polygon fill="black" stroke="black" points="620.84,-1178.88 630.84,-1174.38 624.62,-1178.88 630.84,-1178.88 630.84,-1178.88 630.84,-1178.88 624.62,-1178.88 630.84,-1183.38 620.84,-1178.88"/>
</g>
<!-- PUBLIC.個人客マスタ -->
<g id="node35" class="node">
<title>PUBLIC.個人客マスタ</title>
<polygon fill="#eee9bf" stroke="none" points="757.75,-1232.88 757.75,-1259.12 882.25,-1259.12 882.25,-1232.88 757.75,-1232.88"/>
<polygon fill="#eedd82" stroke="none" points="757.75,-1232.88 757.75,-1259.12 882.25,-1259.12 882.25,-1232.88 757.75,-1232.88"/>
<polygon fill="none" stroke="black" points="757.75,-1232.88 757.75,-1259.12 882.25,-1259.12 882.25,-1232.88 757.75,-1232.88"/>
<text text-anchor="start" x="763.75" y="-1240.83" font-family="Times New Roman,serif" font-weight="bold" font-size="14.00">個人客マスタ</text>
</g>
<!-- PUBLIC.flyway_schema_history -->
<g id="node36" class="node">
<title>PUBLIC.flyway_schema_history</title>
<polygon fill="#eee9bf" stroke="none" points="746.12,-1276.75 746.12,-1305.25 893.88,-1305.25 893.88,-1276.75 746.12,-1276.75"/>
<polygon fill="#eedd82" stroke="none" points="746.12,-1276.75 746.12,-1305.25 893.88,-1305.25 893.88,-1276.75 746.12,-1276.75"/>
<polygon fill="none" stroke="black" points="746.12,-1276.75 746.12,-1305.25 893.88,-1305.25 893.88,-1276.75 746.12,-1276.75"/>
<text text-anchor="start" x="752.12" y="-1286.95" font-family="Times New Roman,serif" font-weight="bold" font-size="14.00">flyway_schema_history</text>
</g>
<!-- PUBLIC.商品分類マスタ -->
<g id="node37" class="node">
<title>PUBLIC.商品分類マスタ</title>
<polygon fill="#eee9bf" stroke="none" points="748.38,-1322.88 748.38,-1349.12 891.62,-1349.12 891.62,-1322.88 748.38,-1322.88"/>
<polygon fill="#eedd82" stroke="none" points="748.38,-1322.88 748.38,-1349.12 891.62,-1349.12 891.62,-1322.88 748.38,-1322.88"/>
<polygon fill="none" stroke="black" points="748.38,-1322.88 748.38,-1349.12 891.62,-1349.12 891.62,-1322.88 748.38,-1322.88"/>
<text text-anchor="start" x="754.38" y="-1330.83" font-family="Times New Roman,serif" font-weight="bold" font-size="14.00">商品分類マスタ</text>
</g>
<!-- PUBLIC.入金データ -->
<g id="node39" class="node">
<title>PUBLIC.入金データ</title>
<polygon fill="#eee9bf" stroke="none" points="767.12,-1366.88 767.12,-1393.12 872.88,-1393.12 872.88,-1366.88 767.12,-1366.88"/>
<polygon fill="#eedd82" stroke="none" points="767.12,-1366.88 767.12,-1393.12 872.88,-1393.12 872.88,-1366.88 767.12,-1366.88"/>
<polygon fill="none" stroke="black" points="767.12,-1366.88 767.12,-1393.12 872.88,-1393.12 872.88,-1366.88 767.12,-1366.88"/>
<text text-anchor="start" x="773.12" y="-1374.83" font-family="Times New Roman,serif" font-weight="bold" font-size="14.00">入金データ</text>
</g>
</g>
</svg>
