<?xml version="1.0" encoding="UTF-8" standalone="no"?>
<!DOCTYPE svg PUBLIC "-//W3C//DTD SVG 1.1//EN"
 "http://www.w3.org/Graphics/SVG/1.1/DTD/svg11.dtd">
<!-- Generated by graphviz version 12.2.0 (20241103.1931)
 -->
<!-- Title: アーキテクチャ図 Pages: 1 -->
<svg width="1385pt" height="298pt"
 viewBox="0.00 0.00 1384.88 298.25" xmlns="http://www.w3.org/2000/svg" xmlns:xlink="http://www.w3.org/1999/xlink">
<g id="graph0" class="graph" transform="scale(1 1) rotate(0) translate(4 294.25)">
<title>アーキテクチャ図</title>
<polygon fill="white" stroke="none" points="-4,4 -4,-294.25 1380.88,-294.25 1380.88,4 -4,4"/>
<text text-anchor="middle" x="688.44" y="-4.95" font-family="Times New Roman,serif" font-size="14.00">アーキテクチャ図</text>
<g id="clust1" class="cluster">
<title>clusterArchitecture</title>
<polygon fill="lightyellow" stroke="#eedd82" points="83.62,-86.25 83.62,-282.25 574.62,-282.25 574.62,-86.25 83.62,-86.25"/>
</g>
<!-- com.example.sms.domain -->
<g id="node1" class="node">
<title>com.example.sms.domain</title>
<polygon fill="#eedd82" stroke="black" points="446.25,-130.25 329,-130.25 329,-126.25 325,-126.25 325,-122.25 329,-122.25 329,-102.25 325,-102.25 325,-98.25 329,-98.25 329,-94.25 446.25,-94.25 446.25,-130.25"/>
<polyline fill="none" stroke="black" points="329,-126.25 333,-126.25 333,-122.25 329,-122.25"/>
<polyline fill="none" stroke="black" points="329,-102.25 333,-102.25 333,-98.25 329,-98.25"/>
<text text-anchor="middle" x="387.62" y="-101.88" font-family="Times New Roman,serif" font-size="20.00">ドメイン層</text>
</g>
<!-- io.jsonwebtoken -->
<g id="node5" class="node">
<title>io.jsonwebtoken</title>
<polygon fill="lightgrey" stroke="black" points="132.25,-58.25 27,-58.25 27,-54.25 23,-54.25 23,-50.25 27,-50.25 27,-30.25 23,-30.25 23,-26.25 27,-26.25 27,-22.25 132.25,-22.25 132.25,-58.25"/>
<polyline fill="none" stroke="black" points="27,-54.25 31,-54.25 31,-50.25 27,-50.25"/>
<polyline fill="none" stroke="black" points="27,-30.25 31,-30.25 31,-26.25 27,-26.25"/>
<text text-anchor="middle" x="79.62" y="-35.2" font-family="Times New Roman,serif" font-size="14.00">io.jsonwebtoken</text>
</g>
<!-- com.example.sms.domain&#45;&gt;io.jsonwebtoken -->
<g id="edge1" class="edge">
<title>com.example.sms.domain&#45;&gt;io.jsonwebtoken</title>
<path fill="none" stroke="black" d="M328.58,-112.25C249.39,-112.25 118.58,-112.25 118.58,-112.25 118.58,-112.25 118.58,-69.93 118.58,-69.93"/>
<polygon fill="black" stroke="black" points="122.08,-69.93 118.58,-59.93 115.08,-69.93 122.08,-69.93"/>
</g>
<!-- org.springframework -->
<g id="node6" class="node">
<title>org.springframework</title>
<polygon fill="lightgrey" stroke="black" points="924.38,-58.25 792.88,-58.25 792.88,-54.25 788.88,-54.25 788.88,-50.25 792.88,-50.25 792.88,-30.25 788.88,-30.25 788.88,-26.25 792.88,-26.25 792.88,-22.25 924.38,-22.25 924.38,-58.25"/>
<polyline fill="none" stroke="black" points="792.88,-54.25 796.88,-54.25 796.88,-50.25 792.88,-50.25"/>
<polyline fill="none" stroke="black" points="792.88,-30.25 796.88,-30.25 796.88,-26.25 792.88,-26.25"/>
<text text-anchor="middle" x="858.62" y="-35.2" font-family="Times New Roman,serif" font-size="14.00">org.springframework</text>
</g>
<!-- com.example.sms.domain&#45;&gt;org.springframework -->
<g id="edge33" class="edge">
<title>com.example.sms.domain&#45;&gt;org.springframework</title>
<path fill="none" stroke="black" d="M440.67,-93.76C440.67,-87.59 440.67,-82.25 440.67,-82.25 440.67,-82.25 809,-82.25 809,-82.25 809,-82.25 809,-69.82 809,-69.82"/>
<polygon fill="black" stroke="black" points="812.5,-69.82 809,-59.82 805.5,-69.82 812.5,-69.82"/>
</g>
<!-- org.apache -->
<g id="node7" class="node">
<title>org.apache</title>
<polygon fill="lightgrey" stroke="black" points="327.25,-58.25 252,-58.25 252,-54.25 248,-54.25 248,-50.25 252,-50.25 252,-30.25 248,-30.25 248,-26.25 252,-26.25 252,-22.25 327.25,-22.25 327.25,-58.25"/>
<polyline fill="none" stroke="black" points="252,-54.25 256,-54.25 256,-50.25 252,-50.25"/>
<polyline fill="none" stroke="black" points="252,-30.25 256,-30.25 256,-26.25 252,-26.25"/>
<text text-anchor="middle" x="289.62" y="-35.2" font-family="Times New Roman,serif" font-size="14.00">org.apache</text>
</g>
<!-- com.example.sms.domain&#45;&gt;org.apache -->
<g id="edge29" class="edge">
<title>com.example.sms.domain&#45;&gt;org.apache</title>
<path fill="none" stroke="black" d="M337.19,-94.08C337.19,-72.75 337.19,-40.25 337.19,-40.25 337.19,-40.25 336.23,-40.25 336.23,-40.25"/>
<polygon fill="black" stroke="black" points="339.08,-36.75 329.08,-40.25 339.08,-43.75 339.08,-36.75"/>
</g>
<!-- org.thymeleaf -->
<g id="node10" class="node">
<title>org.thymeleaf</title>
<polygon fill="lightgrey" stroke="black" points="437.88,-58.25 345.38,-58.25 345.38,-54.25 341.38,-54.25 341.38,-50.25 345.38,-50.25 345.38,-30.25 341.38,-30.25 341.38,-26.25 345.38,-26.25 345.38,-22.25 437.88,-22.25 437.88,-58.25"/>
<polyline fill="none" stroke="black" points="345.38,-54.25 349.38,-54.25 349.38,-50.25 345.38,-50.25"/>
<polyline fill="none" stroke="black" points="345.38,-30.25 349.38,-30.25 349.38,-26.25 345.38,-26.25"/>
<text text-anchor="middle" x="391.62" y="-35.2" font-family="Times New Roman,serif" font-size="14.00">org.thymeleaf</text>
</g>
<!-- com.example.sms.domain&#45;&gt;org.thymeleaf -->
<g id="edge6" class="edge">
<title>com.example.sms.domain&#45;&gt;org.thymeleaf</title>
<path fill="none" stroke="black" d="M391.62,-94.08C391.62,-94.08 391.62,-70.18 391.62,-70.18"/>
<polygon fill="black" stroke="black" points="395.13,-70.18 391.63,-60.18 388.13,-70.18 395.13,-70.18"/>
</g>
<!-- lombok -->
<g id="node12" class="node">
<title>lombok</title>
<polygon fill="lightgrey" stroke="black" points="774.62,-58.25 716.62,-58.25 716.62,-54.25 712.62,-54.25 712.62,-50.25 716.62,-50.25 716.62,-30.25 712.62,-30.25 712.62,-26.25 716.62,-26.25 716.62,-22.25 774.62,-22.25 774.62,-58.25"/>
<polyline fill="none" stroke="black" points="716.62,-54.25 720.62,-54.25 720.62,-50.25 716.62,-50.25"/>
<polyline fill="none" stroke="black" points="716.62,-30.25 720.62,-30.25 720.62,-26.25 716.62,-26.25"/>
<text text-anchor="middle" x="745.62" y="-35.2" font-family="Times New Roman,serif" font-size="14.00">lombok</text>
</g>
<!-- com.example.sms.domain&#45;&gt;lombok -->
<g id="edge41" class="edge">
<title>com.example.sms.domain&#45;&gt;lombok</title>
<path fill="none" stroke="black" d="M443.46,-93.77C443.46,-70.7 443.46,-34.25 443.46,-34.25 443.46,-34.25 443.46,-22.74 443.46,-22.74"/>
<polygon fill="black" stroke="black" points="704.73,-37.26 714.87,-34.19 705.02,-30.27 704.73,-37.26"/>
</g>
<!-- com.example.sms.infrastructure -->
<g id="node2" class="node">
<title>com.example.sms.infrastructure</title>
<polygon fill="#eedd82" stroke="black" points="330,-274.25 91.25,-274.25 91.25,-270.25 87.25,-270.25 87.25,-266.25 91.25,-266.25 91.25,-246.25 87.25,-246.25 87.25,-242.25 91.25,-242.25 91.25,-238.25 330,-238.25 330,-274.25"/>
<polyline fill="none" stroke="black" points="91.25,-270.25 95.25,-270.25 95.25,-266.25 91.25,-266.25"/>
<polyline fill="none" stroke="black" points="91.25,-246.25 95.25,-246.25 95.25,-242.25 91.25,-242.25"/>
<text text-anchor="middle" x="210.62" y="-245.88" font-family="Times New Roman,serif" font-size="20.00">インフラストラクチャ層</text>
</g>
<!-- com.example.sms.infrastructure&#45;&gt;com.example.sms.domain -->
<g id="edge32" class="edge">
<title>com.example.sms.infrastructure&#45;&gt;com.example.sms.domain</title>
<path fill="none" stroke="black" d="M330.35,-256.25C335.89,-256.25 339.19,-256.25 339.19,-256.25 339.19,-256.25 339.19,-142 339.19,-142"/>
<polygon fill="black" stroke="black" points="342.69,-142 339.19,-132 335.69,-142 342.69,-142"/>
</g>
<!-- com.example.sms.service -->
<g id="node4" class="node">
<title>com.example.sms.service</title>
<polygon fill="#eedd82" stroke="black" points="485.25,-202.25 368,-202.25 368,-198.25 364,-198.25 364,-194.25 368,-194.25 368,-174.25 364,-174.25 364,-170.25 368,-170.25 368,-166.25 485.25,-166.25 485.25,-202.25"/>
<polyline fill="none" stroke="black" points="368,-198.25 372,-198.25 372,-194.25 368,-194.25"/>
<polyline fill="none" stroke="black" points="368,-174.25 372,-174.25 372,-170.25 368,-170.25"/>
<text text-anchor="middle" x="426.62" y="-173.88" font-family="Times New Roman,serif" font-size="20.00">サービス層</text>
</g>
<!-- com.example.sms.infrastructure&#45;&gt;com.example.sms.service -->
<g id="edge21" class="edge">
<title>com.example.sms.infrastructure&#45;&gt;com.example.sms.service</title>
<path fill="none" stroke="black" d="M308.44,-237.92C308.44,-217.66 308.44,-187.85 308.44,-187.85 308.44,-187.85 356.02,-187.85 356.02,-187.85"/>
<polygon fill="black" stroke="black" points="356.02,-191.35 366.02,-187.85 356.02,-184.35 356.02,-191.35"/>
</g>
<!-- com.example.sms.infrastructure&#45;&gt;io.jsonwebtoken -->
<g id="edge31" class="edge">
<title>com.example.sms.infrastructure&#45;&gt;io.jsonwebtoken</title>
<path fill="none" stroke="black" d="M104.92,-237.83C104.92,-237.83 104.92,-70.13 104.92,-70.13"/>
<polygon fill="black" stroke="black" points="108.42,-70.13 104.92,-60.13 101.42,-70.13 108.42,-70.13"/>
</g>
<!-- com.example.sms.infrastructure&#45;&gt;org.springframework -->
<g id="edge2" class="edge">
<title>com.example.sms.infrastructure&#45;&gt;org.springframework</title>
<path fill="none" stroke="black" d="M289.62,-237.81C289.62,-204.62 289.62,-138.25 289.62,-138.25 289.62,-138.25 825.12,-138.25 825.12,-138.25 825.12,-138.25 825.12,-70.2 825.12,-70.2"/>
<polygon fill="black" stroke="black" points="828.63,-70.2 825.13,-60.2 821.63,-70.2 828.63,-70.2"/>
</g>
<!-- com.example.sms.infrastructure&#45;&gt;org.apache -->
<g id="edge3" class="edge">
<title>com.example.sms.infrastructure&#45;&gt;org.apache</title>
<path fill="none" stroke="black" d="M258.27,-237.83C258.27,-237.83 258.27,-70.13 258.27,-70.13"/>
<polygon fill="black" stroke="black" points="261.77,-70.13 258.27,-60.13 254.77,-70.13 261.77,-70.13"/>
</g>
<!-- com.github -->
<g id="node8" class="node">
<title>com.github</title>
<polygon fill="lightgrey" stroke="black" points="946.75,-130.25 868.5,-130.25 868.5,-126.25 864.5,-126.25 864.5,-122.25 868.5,-122.25 868.5,-102.25 864.5,-102.25 864.5,-98.25 868.5,-98.25 868.5,-94.25 946.75,-94.25 946.75,-130.25"/>
<polyline fill="none" stroke="black" points="868.5,-126.25 872.5,-126.25 872.5,-122.25 868.5,-122.25"/>
<polyline fill="none" stroke="black" points="868.5,-102.25 872.5,-102.25 872.5,-98.25 868.5,-98.25"/>
<text text-anchor="middle" x="907.62" y="-107.2" font-family="Times New Roman,serif" font-size="14.00">com.github</text>
</g>
<!-- com.example.sms.infrastructure&#45;&gt;com.github -->
<g id="edge18" class="edge">
<title>com.example.sms.infrastructure&#45;&gt;com.github</title>
<path fill="none" stroke="black" d="M295.9,-238.09C295.9,-206.84 295.9,-146.25 295.9,-146.25 295.9,-146.25 898.92,-146.25 898.92,-146.25 898.92,-146.25 898.92,-141.96 898.92,-141.96"/>
<polygon fill="black" stroke="black" points="902.42,-141.96 898.92,-131.96 895.42,-141.96 902.42,-141.96"/>
</g>
<!-- com.opencsv -->
<g id="node9" class="node">
<title>com.opencsv</title>
<polygon fill="lightgrey" stroke="black" points="743.62,-202.25 655.62,-202.25 655.62,-198.25 651.62,-198.25 651.62,-194.25 655.62,-194.25 655.62,-174.25 651.62,-174.25 651.62,-170.25 655.62,-170.25 655.62,-166.25 743.62,-166.25 743.62,-202.25"/>
<polyline fill="none" stroke="black" points="655.62,-198.25 659.62,-198.25 659.62,-194.25 655.62,-194.25"/>
<polyline fill="none" stroke="black" points="655.62,-174.25 659.62,-174.25 659.62,-170.25 655.62,-170.25"/>
<text text-anchor="middle" x="699.62" y="-179.2" font-family="Times New Roman,serif" font-size="14.00">com.opencsv</text>
</g>
<!-- com.example.sms.infrastructure&#45;&gt;com.opencsv -->
<g id="edge5" class="edge">
<title>com.example.sms.infrastructure&#45;&gt;com.opencsv</title>
<path fill="none" stroke="black" d="M270.81,-237.95C270.81,-225.49 270.81,-211.25 270.81,-211.25 270.81,-211.25 699.62,-211.25 699.62,-211.25 699.62,-211.25 699.62,-210.4 699.62,-210.4"/>
<polygon fill="black" stroke="black" points="703.13,-214.22 699.63,-204.22 696.13,-214.22 703.13,-214.22"/>
</g>
<!-- com.example.sms.infrastructure&#45;&gt;lombok -->
<g id="edge26" class="edge">
<title>com.example.sms.infrastructure&#45;&gt;lombok</title>
<path fill="none" stroke="black" d="M264.54,-237.99C264.54,-203.95 264.54,-134.25 264.54,-134.25 264.54,-134.25 730.12,-134.25 730.12,-134.25 730.12,-134.25 730.12,-69.89 730.12,-69.89"/>
<polygon fill="black" stroke="black" points="733.63,-69.89 730.13,-59.89 726.63,-69.89 733.63,-69.89"/>
</g>
<!-- io.swagger -->
<g id="node13" class="node">
<title>io.swagger</title>
<polygon fill="lightgrey" stroke="black" points="950.25,-202.25 875,-202.25 875,-198.25 871,-198.25 871,-194.25 875,-194.25 875,-174.25 871,-174.25 871,-170.25 875,-170.25 875,-166.25 950.25,-166.25 950.25,-202.25"/>
<polyline fill="none" stroke="black" points="875,-198.25 879,-198.25 879,-194.25 875,-194.25"/>
<polyline fill="none" stroke="black" points="875,-174.25 879,-174.25 879,-170.25 875,-170.25"/>
<text text-anchor="middle" x="912.62" y="-179.2" font-family="Times New Roman,serif" font-size="14.00">io.swagger</text>
</g>
<!-- com.example.sms.infrastructure&#45;&gt;io.swagger -->
<g id="edge10" class="edge">
<title>com.example.sms.infrastructure&#45;&gt;io.swagger</title>
<path fill="none" stroke="black" d="M283.35,-237.79C283.35,-233.05 283.35,-229.25 283.35,-229.25 283.35,-229.25 900.08,-229.25 900.08,-229.25 900.08,-229.25 900.08,-214.07 900.08,-214.07"/>
<polygon fill="black" stroke="black" points="903.58,-214.07 900.08,-204.07 896.58,-214.07 903.58,-214.07"/>
</g>
<!-- com.fasterxml -->
<g id="node16" class="node">
<title>com.fasterxml</title>
<polygon fill="lightgrey" stroke="black" points="857.38,-202.25 761.88,-202.25 761.88,-198.25 757.88,-198.25 757.88,-194.25 761.88,-194.25 761.88,-174.25 757.88,-174.25 757.88,-170.25 761.88,-170.25 761.88,-166.25 857.38,-166.25 857.38,-202.25"/>
<polyline fill="none" stroke="black" points="761.88,-198.25 765.88,-198.25 765.88,-194.25 761.88,-194.25"/>
<polyline fill="none" stroke="black" points="761.88,-174.25 765.88,-174.25 765.88,-170.25 761.88,-170.25"/>
<text text-anchor="middle" x="809.62" y="-179.2" font-family="Times New Roman,serif" font-size="14.00">com.fasterxml</text>
</g>
<!-- com.example.sms.infrastructure&#45;&gt;com.fasterxml -->
<g id="edge15" class="edge">
<title>com.example.sms.infrastructure&#45;&gt;com.fasterxml</title>
<path fill="none" stroke="black" d="M277.08,-237.83C277.08,-228.97 277.08,-220.25 277.08,-220.25 277.08,-220.25 809.62,-220.25 809.62,-220.25 809.62,-220.25 809.62,-214.19 809.62,-214.19"/>
<polygon fill="black" stroke="black" points="813.13,-214.19 809.63,-204.19 806.13,-214.19 813.13,-214.19"/>
</g>
<!-- org.slf4j -->
<g id="node17" class="node">
<title>org.slf4j</title>
<polygon fill="lightgrey" stroke="black" points="1026.5,-130.25 964.75,-130.25 964.75,-126.25 960.75,-126.25 960.75,-122.25 964.75,-122.25 964.75,-102.25 960.75,-102.25 960.75,-98.25 964.75,-98.25 964.75,-94.25 1026.5,-94.25 1026.5,-130.25"/>
<polyline fill="none" stroke="black" points="964.75,-126.25 968.75,-126.25 968.75,-122.25 964.75,-122.25"/>
<polyline fill="none" stroke="black" points="964.75,-102.25 968.75,-102.25 968.75,-98.25 964.75,-98.25"/>
<text text-anchor="middle" x="995.62" y="-107.2" font-family="Times New Roman,serif" font-size="14.00">org.slf4j</text>
</g>
<!-- com.example.sms.infrastructure&#45;&gt;org.slf4j -->
<g id="edge16" class="edge">
<title>com.example.sms.infrastructure&#45;&gt;org.slf4j</title>
<path fill="none" stroke="black" d="M302.17,-238.01C302.17,-208.68 302.17,-154.25 302.17,-154.25 302.17,-154.25 980.19,-154.25 980.19,-154.25 980.19,-154.25 980.19,-141.82 980.19,-141.82"/>
<polygon fill="black" stroke="black" points="983.69,-141.82 980.19,-131.82 976.69,-141.82 983.69,-141.82"/>
</g>
<!-- com.example.sms.presentation -->
<g id="node3" class="node">
<title>com.example.sms.presentation</title>
<polygon fill="#eedd82" stroke="black" points="566.88,-274.25 348.38,-274.25 348.38,-270.25 344.38,-270.25 344.38,-266.25 348.38,-266.25 348.38,-246.25 344.38,-246.25 344.38,-242.25 348.38,-242.25 348.38,-238.25 566.88,-238.25 566.88,-274.25"/>
<polyline fill="none" stroke="black" points="348.38,-270.25 352.38,-270.25 352.38,-266.25 348.38,-266.25"/>
<polyline fill="none" stroke="black" points="348.38,-246.25 352.38,-246.25 352.38,-242.25 348.38,-242.25"/>
<text text-anchor="middle" x="457.62" y="-245.88" font-family="Times New Roman,serif" font-size="20.00">プレゼンテーション層</text>
</g>
<!-- com.example.sms.presentation&#45;&gt;com.example.sms.domain -->
<g id="edge22" class="edge">
<title>com.example.sms.presentation&#45;&gt;com.example.sms.domain</title>
<path fill="none" stroke="black" d="M358.19,-238.01C358.19,-238.01 358.19,-141.85 358.19,-141.85"/>
<polygon fill="black" stroke="black" points="361.69,-141.85 358.19,-131.85 354.69,-141.85 361.69,-141.85"/>
</g>
<!-- com.example.sms.presentation&#45;&gt;com.example.sms.service -->
<g id="edge34" class="edge">
<title>com.example.sms.presentation&#45;&gt;com.example.sms.service</title>
<path fill="none" stroke="black" d="M426.62,-238.08C426.62,-238.08 426.62,-214.18 426.62,-214.18"/>
<polygon fill="black" stroke="black" points="430.13,-214.18 426.63,-204.18 423.13,-214.18 430.13,-214.18"/>
</g>
<!-- com.example.sms.presentation&#45;&gt;org.springframework -->
<g id="edge35" class="edge">
<title>com.example.sms.presentation&#45;&gt;org.springframework</title>
<path fill="none" stroke="black" d="M567.31,-249.05C687.34,-249.05 862.94,-249.05 862.94,-249.05 862.94,-249.05 862.94,-69.93 862.94,-69.93"/>
<polygon fill="black" stroke="black" points="866.44,-69.93 862.94,-59.93 859.44,-69.93 866.44,-69.93"/>
</g>
<!-- com.example.sms.presentation&#45;&gt;com.github -->
<g id="edge9" class="edge">
<title>com.example.sms.presentation&#45;&gt;com.github</title>
<path fill="none" stroke="black" d="M566.96,-245.45C652.05,-245.45 755.79,-245.45 755.79,-245.45 755.79,-245.45 755.79,-112.25 755.79,-112.25 755.79,-112.25 856.62,-112.25 856.62,-112.25"/>
<polygon fill="black" stroke="black" points="856.62,-115.75 866.62,-112.25 856.62,-108.75 856.62,-115.75"/>
</g>
<!-- com.example.sms.presentation&#45;&gt;lombok -->
<g id="edge37" class="edge">
<title>com.example.sms.presentation&#45;&gt;lombok</title>
<path fill="none" stroke="black" d="M567.22,-241.85C650.1,-241.85 749.71,-241.85 749.71,-241.85 749.71,-241.85 749.71,-70.01 749.71,-70.01"/>
<polygon fill="black" stroke="black" points="753.21,-70.01 749.71,-60.01 746.21,-70.01 753.21,-70.01"/>
</g>
<!-- com.example.sms.presentation&#45;&gt;io.swagger -->
<g id="edge28" class="edge">
<title>com.example.sms.presentation&#45;&gt;io.swagger</title>
<path fill="none" stroke="black" d="M567.24,-252.65C705.43,-252.65 925.17,-252.65 925.17,-252.65 925.17,-252.65 925.17,-214.09 925.17,-214.09"/>
<polygon fill="black" stroke="black" points="928.67,-214.09 925.17,-204.09 921.67,-214.09 928.67,-214.09"/>
</g>
<!-- jakarta.validation -->
<g id="node14" class="node">
<title>jakarta.validation</title>
<polygon fill="lightgrey" stroke="black" points="1376.88,-202.25 1266.38,-202.25 1266.38,-198.25 1262.38,-198.25 1262.38,-194.25 1266.38,-194.25 1266.38,-174.25 1262.38,-174.25 1262.38,-170.25 1266.38,-170.25 1266.38,-166.25 1376.88,-166.25 1376.88,-202.25"/>
<polyline fill="none" stroke="black" points="1266.38,-198.25 1270.38,-198.25 1270.38,-194.25 1266.38,-194.25"/>
<polyline fill="none" stroke="black" points="1266.38,-174.25 1270.38,-174.25 1270.38,-170.25 1266.38,-170.25"/>
<text text-anchor="middle" x="1321.62" y="-179.2" font-family="Times New Roman,serif" font-size="14.00">jakarta.validation</text>
</g>
<!-- com.example.sms.presentation&#45;&gt;jakarta.validation -->
<g id="edge11" class="edge">
<title>com.example.sms.presentation&#45;&gt;jakarta.validation</title>
<path fill="none" stroke="black" d="M567.05,-270.65C799.54,-270.65 1321.62,-270.65 1321.62,-270.65 1321.62,-270.65 1321.62,-214.09 1321.62,-214.09"/>
<polygon fill="black" stroke="black" points="1325.13,-214.09 1321.63,-204.09 1318.13,-214.09 1325.13,-214.09"/>
</g>
<!-- com.example -->
<g id="node15" class="node">
<title>com.example</title>
<polygon fill="lightgrey" stroke="black" points="1172.75,-130.25 1082.5,-130.25 1082.5,-126.25 1078.5,-126.25 1078.5,-122.25 1082.5,-122.25 1082.5,-102.25 1078.5,-102.25 1078.5,-98.25 1082.5,-98.25 1082.5,-94.25 1172.75,-94.25 1172.75,-130.25"/>
<polyline fill="none" stroke="black" points="1082.5,-126.25 1086.5,-126.25 1086.5,-122.25 1082.5,-122.25"/>
<polyline fill="none" stroke="black" points="1082.5,-102.25 1086.5,-102.25 1086.5,-98.25 1082.5,-98.25"/>
<text text-anchor="middle" x="1127.62" y="-107.2" font-family="Times New Roman,serif" font-size="14.00">com.example</text>
</g>
<!-- com.example.sms.presentation&#45;&gt;com.example -->
<g id="edge12" class="edge">
<title>com.example.sms.presentation&#45;&gt;com.example</title>
<path fill="none" stroke="black" d="M567.36,-263.45C762.65,-263.45 1150.19,-263.45 1150.19,-263.45 1150.19,-263.45 1150.19,-142 1150.19,-142"/>
<polygon fill="black" stroke="black" points="1153.69,-142 1150.19,-132 1146.69,-142 1153.69,-142"/>
</g>
<!-- com.example.sms.presentation&#45;&gt;org.slf4j -->
<g id="edge19" class="edge">
<title>com.example.sms.presentation&#45;&gt;org.slf4j</title>
<path fill="none" stroke="black" d="M567.3,-256.25C728.64,-256.25 1011.06,-256.25 1011.06,-256.25 1011.06,-256.25 1011.06,-142 1011.06,-142"/>
<polygon fill="black" stroke="black" points="1014.56,-142 1011.06,-132 1007.56,-142 1014.56,-142"/>
</g>
<!-- jakarta.servlet -->
<g id="node19" class="node">
<title>jakarta.servlet</title>
<polygon fill="lightgrey" stroke="black" points="1281.88,-58.25 1189.38,-58.25 1189.38,-54.25 1185.38,-54.25 1185.38,-50.25 1189.38,-50.25 1189.38,-30.25 1185.38,-30.25 1185.38,-26.25 1189.38,-26.25 1189.38,-22.25 1281.88,-22.25 1281.88,-58.25"/>
<polyline fill="none" stroke="black" points="1189.38,-54.25 1193.38,-54.25 1193.38,-50.25 1189.38,-50.25"/>
<polyline fill="none" stroke="black" points="1189.38,-30.25 1193.38,-30.25 1193.38,-26.25 1189.38,-26.25"/>
<text text-anchor="middle" x="1235.62" y="-35.2" font-family="Times New Roman,serif" font-size="14.00">jakarta.servlet</text>
</g>
<!-- com.example.sms.presentation&#45;&gt;jakarta.servlet -->
<g id="edge27" class="edge">
<title>com.example.sms.presentation&#45;&gt;jakarta.servlet</title>
<path fill="none" stroke="black" d="M567.33,-267.05C782.85,-267.05 1240.71,-267.05 1240.71,-267.05 1240.71,-267.05 1240.71,-69.94 1240.71,-69.94"/>
<polygon fill="black" stroke="black" points="1244.21,-69.94 1240.71,-59.94 1237.21,-69.94 1244.21,-69.94"/>
</g>
<!-- com.example.sms.service&#45;&gt;com.example.sms.domain -->
<g id="edge25" class="edge">
<title>com.example.sms.service&#45;&gt;com.example.sms.domain</title>
<path fill="none" stroke="black" d="M407.12,-166.08C407.12,-166.08 407.12,-142.18 407.12,-142.18"/>
<polygon fill="black" stroke="black" points="410.63,-142.18 407.13,-132.18 403.63,-142.18 410.63,-142.18"/>
</g>
<!-- com.example.sms.service&#45;&gt;com.example.sms.infrastructure -->
<g id="edge14" class="edge">
<title>com.example.sms.service&#45;&gt;com.example.sms.infrastructure</title>
<path fill="none" stroke="black" d="M367.72,-195.05C340.75,-195.05 314.71,-195.05 314.71,-195.05 314.71,-195.05 314.71,-226.37 314.71,-226.37"/>
<polygon fill="black" stroke="black" points="311.21,-226.37 314.71,-236.37 318.21,-226.37 311.21,-226.37"/>
</g>
<!-- com.example.sms.service&#45;&gt;org.springframework -->
<g id="edge20" class="edge">
<title>com.example.sms.service&#45;&gt;org.springframework</title>
<path fill="none" stroke="black" d="M451.82,-166.19C451.82,-154.81 451.82,-142.25 451.82,-142.25 451.82,-142.25 841.25,-142.25 841.25,-142.25 841.25,-142.25 841.25,-70 841.25,-70"/>
<polygon fill="black" stroke="black" points="844.75,-70 841.25,-60 837.75,-70 844.75,-70"/>
</g>
<!-- com.example.sms.service&#45;&gt;org.apache -->
<g id="edge30" class="edge">
<title>com.example.sms.service&#45;&gt;org.apache</title>
<path fill="none" stroke="black" d="M367.62,-173.45C343.43,-173.45 320.98,-173.45 320.98,-173.45 320.98,-173.45 320.98,-70.01 320.98,-70.01"/>
<polygon fill="black" stroke="black" points="324.48,-70.01 320.98,-60.01 317.48,-70.01 324.48,-70.01"/>
</g>
<!-- com.example.sms.service&#45;&gt;com.github -->
<g id="edge4" class="edge">
<title>com.example.sms.service&#45;&gt;com.github</title>
<path fill="none" stroke="black" d="M457.39,-166.06C457.39,-157.97 457.39,-150.25 457.39,-150.25 457.39,-150.25 922.83,-150.25 922.83,-150.25 922.83,-150.25 922.83,-141.87 922.83,-141.87"/>
<polygon fill="black" stroke="black" points="926.33,-141.87 922.83,-131.87 919.33,-141.87 926.33,-141.87"/>
</g>
<!-- jakarta.transaction -->
<g id="node11" class="node">
<title>jakarta.transaction</title>
<polygon fill="lightgrey" stroke="black" points="698.5,-130.25 582.75,-130.25 582.75,-126.25 578.75,-126.25 578.75,-122.25 582.75,-122.25 582.75,-102.25 578.75,-102.25 578.75,-98.25 582.75,-98.25 582.75,-94.25 698.5,-94.25 698.5,-130.25"/>
<polyline fill="none" stroke="black" points="582.75,-126.25 586.75,-126.25 586.75,-122.25 582.75,-122.25"/>
<polyline fill="none" stroke="black" points="582.75,-102.25 586.75,-102.25 586.75,-98.25 582.75,-98.25"/>
<text text-anchor="middle" x="640.62" y="-107.2" font-family="Times New Roman,serif" font-size="14.00">jakarta.transaction</text>
</g>
<!-- com.example.sms.service&#45;&gt;jakarta.transaction -->
<g id="edge7" class="edge">
<title>com.example.sms.service&#45;&gt;jakarta.transaction</title>
<path fill="none" stroke="black" d="M479.68,-166.08C479.68,-144.75 479.68,-112.25 479.68,-112.25 479.68,-112.25 571.01,-112.25 571.01,-112.25"/>
<polygon fill="black" stroke="black" points="571.01,-115.75 581.01,-112.25 571.01,-108.75 571.01,-115.75"/>
</g>
<!-- com.example.sms.service&#45;&gt;lombok -->
<g id="edge8" class="edge">
<title>com.example.sms.service&#45;&gt;lombok</title>
<path fill="none" stroke="black" d="M474.11,-165.92C474.11,-128.39 474.11,-46.25 474.11,-46.25 474.11,-46.25 474.11,-34.74 474.11,-34.74"/>
<polygon fill="black" stroke="black" points="704.64,-49.2 714.8,-46.18 704.98,-42.21 704.64,-49.2"/>
</g>
<!-- com.example.sms.service&#45;&gt;com.example -->
<g id="edge36" class="edge">
<title>com.example.sms.service&#45;&gt;com.example</title>
<path fill="none" stroke="black" d="M468.54,-166.08C468.54,-163.8 468.54,-162.25 468.54,-162.25 468.54,-162.25 1105.06,-162.25 1105.06,-162.25 1105.06,-162.25 1105.06,-142.1 1105.06,-142.1"/>
<polygon fill="black" stroke="black" points="1108.56,-142.1 1105.06,-132.1 1101.56,-142.1 1108.56,-142.1"/>
</g>
<!-- com.example.sms.service&#45;&gt;org.slf4j -->
<g id="edge24" class="edge">
<title>com.example.sms.service&#45;&gt;org.slf4j</title>
<path fill="none" stroke="black" d="M462.96,-165.91C462.96,-161.61 462.96,-158.25 462.96,-158.25 462.96,-158.25 995.62,-158.25 995.62,-158.25 995.62,-158.25 995.62,-142.21 995.62,-142.21"/>
<polygon fill="black" stroke="black" points="999.13,-142.21 995.63,-132.21 992.13,-142.21 999.13,-142.21"/>
</g>
<!-- org.aspectj -->
<g id="node20" class="node">
<title>org.aspectj</title>
<polygon fill="lightgrey" stroke="black" points="75.25,-130.25 0,-130.25 0,-126.25 -4,-126.25 -4,-122.25 0,-122.25 0,-102.25 -4,-102.25 -4,-98.25 0,-98.25 0,-94.25 75.25,-94.25 75.25,-130.25"/>
<polyline fill="none" stroke="black" points="0,-126.25 4,-126.25 4,-122.25 0,-122.25"/>
<polyline fill="none" stroke="black" points="0,-102.25 4,-102.25 4,-98.25 0,-98.25"/>
<text text-anchor="middle" x="37.62" y="-107.2" font-family="Times New Roman,serif" font-size="14.00">org.aspectj</text>
</g>
<!-- com.example.sms.service&#45;&gt;org.aspectj -->
<g id="edge39" class="edge">
<title>com.example.sms.service&#45;&gt;org.aspectj</title>
<path fill="none" stroke="black" d="M367.54,-180.65C258.72,-180.65 37.62,-180.65 37.62,-180.65 37.62,-180.65 37.62,-142.09 37.62,-142.09"/>
<polygon fill="black" stroke="black" points="41.13,-142.09 37.63,-132.09 34.13,-142.09 41.13,-142.09"/>
</g>
<!-- com.example&#45;&gt;com.example.sms.presentation -->
<g id="edge13" class="edge">
<title>com.example&#45;&gt;com.example.sms.presentation</title>
<path fill="none" stroke="black" d="M1127.62,-130.65C1127.62,-170.21 1127.62,-259.85 1127.62,-259.85 1127.62,-259.85 578.65,-259.85 578.65,-259.85"/>
<polygon fill="black" stroke="black" points="578.65,-256.35 568.65,-259.85 578.65,-263.35 578.65,-256.35"/>
</g>
<!-- com.example&#45;&gt;org.springframework -->
<g id="edge38" class="edge">
<title>com.example&#45;&gt;org.springframework</title>
<path fill="none" stroke="black" d="M1082.15,-112.25C1067.27,-112.25 1054.5,-112.25 1054.5,-112.25 1054.5,-112.25 1054.5,-40.25 1054.5,-40.25 1054.5,-40.25 936.18,-40.25 936.18,-40.25"/>
<polygon fill="black" stroke="black" points="936.18,-36.75 926.18,-40.25 936.18,-43.75 936.18,-36.75"/>
</g>
<!-- com.example&#45;&gt;lombok -->
<g id="edge40" class="edge">
<title>com.example&#45;&gt;lombok</title>
<path fill="none" stroke="black" d="M1114.08,-94.19C1114.08,-82.81 1114.08,-70.25 1114.08,-70.25 1114.08,-70.25 768.25,-70.25 768.25,-70.25 768.25,-70.25 768.25,-69.1 768.25,-69.1"/>
<polygon fill="black" stroke="black" points="771.75,-70.25 768.25,-60.25 764.75,-70.25 771.75,-70.25"/>
</g>
<!-- org.mybatis -->
<g id="node18" class="node">
<title>org.mybatis</title>
<polygon fill="lightgrey" stroke="black" points="1168.25,-58.25 1087,-58.25 1087,-54.25 1083,-54.25 1083,-50.25 1087,-50.25 1087,-30.25 1083,-30.25 1083,-26.25 1087,-26.25 1087,-22.25 1168.25,-22.25 1168.25,-58.25"/>
<polyline fill="none" stroke="black" points="1087,-54.25 1091,-54.25 1091,-50.25 1087,-50.25"/>
<polyline fill="none" stroke="black" points="1087,-30.25 1091,-30.25 1091,-26.25 1087,-26.25"/>
<text text-anchor="middle" x="1127.62" y="-35.2" font-family="Times New Roman,serif" font-size="14.00">org.mybatis</text>
</g>
<!-- com.example&#45;&gt;org.mybatis -->
<g id="edge17" class="edge">
<title>com.example&#45;&gt;org.mybatis</title>
<path fill="none" stroke="black" d="M1141.17,-94.08C1141.17,-94.08 1141.17,-70.18 1141.17,-70.18"/>
<polygon fill="black" stroke="black" points="1144.67,-70.18 1141.17,-60.18 1137.67,-70.18 1144.67,-70.18"/>
</g>
<!-- com.example&#45;&gt;jakarta.servlet -->
<g id="edge23" class="edge">
<title>com.example&#45;&gt;jakarta.servlet</title>
<path fill="none" stroke="black" d="M1173.13,-112.25C1194.37,-112.25 1215.04,-112.25 1215.04,-112.25 1215.04,-112.25 1215.04,-69.93 1215.04,-69.93"/>
<polygon fill="black" stroke="black" points="1218.54,-69.93 1215.04,-59.93 1211.54,-69.93 1218.54,-69.93"/>
</g>
</g>
</svg>
