<?xml version="1.0" encoding="UTF-8" standalone="no"?>
<!DOCTYPE svg PUBLIC "-//W3C//DTD SVG 1.1//EN"
 "http://www.w3.org/Graphics/SVG/1.1/DTD/svg11.dtd">
<!-- Generated by graphviz version 12.2.0 (20241103.1931)
 -->
<!-- Title: パッケージ関連図 Pages: 1 -->
<svg width="1546pt" height="630pt"
 viewBox="0.00 0.00 1545.62 629.75" xmlns="http://www.w3.org/2000/svg" xmlns:xlink="http://www.w3.org/1999/xlink">
<g id="graph0" class="graph" transform="scale(1 1) rotate(0) translate(4 625.75)">
<title>パッケージ関連図</title>
<polygon fill="white" stroke="none" points="-4,4 -4,-625.75 1541.62,-625.75 1541.62,4 -4,4"/>
<text text-anchor="middle" x="768.81" y="-4.95" font-family="Times New Roman,serif" font-size="14.00">パッケージ関連図</text>
<g id="clust1" class="cluster">
<title>cluster_com.example.sms.domain.model.master.payment.account</title>
<polygon fill="lemonchiffon" stroke="#eedd82" stroke-width="2" points="439.62,-388 439.62,-481.5 626.62,-481.5 626.62,-388 439.62,-388"/>
<text text-anchor="middle" x="533.12" y="-464.2" font-family="Times New Roman,serif" font-size="14.00">入金口座</text>
<text text-anchor="middle" x="533.12" y="-449.95" font-family="Times New Roman,serif" font-size="14.00">model.master.payment.account</text>
</g>
<!-- summary -->
<g id="node1" class="node">
<title>summary</title>
<polygon fill="none" stroke="black" points="634.62,-621.75 450.62,-621.75 450.62,-564.25 640.62,-564.25 640.62,-615.75 634.62,-621.75"/>
<polyline fill="none" stroke="black" points="634.62,-621.75 634.62,-615.75"/>
<polyline fill="none" stroke="black" points="640.62,-615.75 634.62,-615.75"/>
<text text-anchor="start" x="458.62" y="-604.45" font-family="Times New Roman,serif" font-size="14.00">root: com.example.sms.domain</text>
<text text-anchor="start" x="458.62" y="-587.95" font-family="Times New Roman,serif" font-size="14.00">パッケージ数: 26</text>
<text text-anchor="start" x="458.62" y="-571.45" font-family="Times New Roman,serif" font-size="14.00">関連数: 64</text>
</g>
<!-- com.example.sms.domain.model.master.employee -->
<g id="node2" class="node">
<title>com.example.sms.domain.model.master.employee</title>
<g id="a_node2"><a xlink:href="./domain.html#com.example.sms.domain.model.master.employee" xlink:title="社員\nmodel.master.employee">
<polygon fill="#eedd82" stroke="black" points="599.25,-285.25 452,-285.25 452,-246.5 599.25,-246.5 599.25,-285.25"/>
<text text-anchor="middle" x="525.62" y="-267.95" font-family="Times New Roman,serif" font-size="14.00">社員</text>
<text text-anchor="middle" x="525.62" y="-253.7" font-family="Times New Roman,serif" font-size="14.00">model.master.employee</text>
</a>
</g>
</g>
<!-- com.example.sms.domain.model.system.user -->
<g id="node3" class="node">
<title>com.example.sms.domain.model.system.user</title>
<g id="a_node3"><a xlink:href="./domain.html#com.example.sms.domain.model.system.user" xlink:title="ユーザー\nmodel.system.user">
<polygon fill="#eedd82" stroke="black" points="242,-210.5 123.25,-210.5 123.25,-171.75 242,-171.75 242,-210.5"/>
<text text-anchor="middle" x="182.62" y="-193.2" font-family="Times New Roman,serif" font-size="14.00">ユーザー</text>
<text text-anchor="middle" x="182.62" y="-178.95" font-family="Times New Roman,serif" font-size="14.00">model.system.user</text>
</a>
</g>
</g>
<!-- com.example.sms.domain.model.master.employee&#45;&gt;com.example.sms.domain.model.system.user -->
<g id="edge1" class="edge">
<title>com.example.sms.domain.model.master.employee&#45;&gt;com.example.sms.domain.model.system.user</title>
<path fill="none" stroke="black" d="M451.51,-250.94C397.14,-240.48 321.61,-225.44 255.62,-210.5 254.81,-210.32 254,-210.13 253.17,-209.94"/>
<polygon fill="black" stroke="black" points="254.34,-206.62 243.8,-207.75 252.74,-213.43 254.34,-206.62"/>
</g>
<!-- com.example.sms.domain.type.phone -->
<g id="node8" class="node">
<title>com.example.sms.domain.type.phone</title>
<g id="a_node8"><a xlink:href="./domain.html#com.example.sms.domain.type.phone" xlink:title="電話番号\ntype.phone">
<polygon fill="#eedd82" stroke="black" points="601.12,-61 516.12,-61 516.12,-22.25 601.12,-22.25 601.12,-61"/>
<text text-anchor="middle" x="558.62" y="-43.7" font-family="Times New Roman,serif" font-size="14.00">電話番号</text>
<text text-anchor="middle" x="558.62" y="-29.45" font-family="Times New Roman,serif" font-size="14.00">type.phone</text>
</a>
</g>
</g>
<!-- com.example.sms.domain.model.master.employee&#45;&gt;com.example.sms.domain.type.phone -->
<g id="edge4" class="edge">
<title>com.example.sms.domain.model.master.employee&#45;&gt;com.example.sms.domain.type.phone</title>
<path fill="none" stroke="black" d="M528.38,-246.31C534.1,-207.82 547.28,-119.06 554.2,-72.45"/>
<polygon fill="black" stroke="black" points="557.62,-73.2 555.63,-62.79 550.7,-72.17 557.62,-73.2"/>
</g>
<!-- com.example.sms.domain.model.sales.order.rule -->
<g id="node4" class="node">
<title>com.example.sms.domain.model.sales.order.rule</title>
<g id="a_node4"><a xlink:href="./domain.html#com.example.sms.domain.model.sales.order.rule" xlink:title="受注ルール\nmodel.sales.order.rule">
<polygon fill="#eedd82" stroke="black" points="1465,-528.25 1328.25,-528.25 1328.25,-489.5 1465,-489.5 1465,-528.25"/>
<text text-anchor="middle" x="1396.62" y="-510.95" font-family="Times New Roman,serif" font-size="14.00">受注ルール</text>
<text text-anchor="middle" x="1396.62" y="-496.7" font-family="Times New Roman,serif" font-size="14.00">model.sales.order.rule</text>
</a>
</g>
</g>
<!-- com.example.sms.domain.type.money -->
<g id="node5" class="node">
<title>com.example.sms.domain.type.money</title>
<g id="a_node5"><a xlink:href="./domain.html#com.example.sms.domain.type.money" xlink:title="通貨\ntype.money">
<polygon fill="#eedd82" stroke="black" points="1311.88,-135.75 1231.38,-135.75 1231.38,-97 1311.88,-97 1311.88,-135.75"/>
<text text-anchor="middle" x="1271.62" y="-118.45" font-family="Times New Roman,serif" font-size="14.00">通貨</text>
<text text-anchor="middle" x="1271.62" y="-104.2" font-family="Times New Roman,serif" font-size="14.00">type.money</text>
</a>
</g>
</g>
<!-- com.example.sms.domain.model.sales.order.rule&#45;&gt;com.example.sms.domain.type.money -->
<g id="edge2" class="edge">
<title>com.example.sms.domain.model.sales.order.rule&#45;&gt;com.example.sms.domain.type.money</title>
<path fill="none" stroke="black" d="M1399.94,-489.26C1405.32,-455.31 1414.01,-381.28 1399.62,-321.25 1382.26,-248.76 1366.73,-232.56 1323.62,-171.75 1316.77,-162.08 1308.24,-152.43 1300.08,-144.01"/>
<polygon fill="black" stroke="black" points="1302.74,-141.71 1293.2,-137.11 1297.78,-146.66 1302.74,-141.71"/>
</g>
<!-- com.example.sms.domain.model.sales.order -->
<g id="node6" class="node">
<title>com.example.sms.domain.model.sales.order</title>
<g id="a_node6"><a xlink:href="./domain.html#com.example.sms.domain.model.sales.order" xlink:title="受注\nmodel.sales.order">
<polygon fill="#eedd82" stroke="black" points="1224,-434.75 1111.25,-434.75 1111.25,-396 1224,-396 1224,-434.75"/>
<text text-anchor="middle" x="1167.62" y="-417.45" font-family="Times New Roman,serif" font-size="14.00">受注</text>
<text text-anchor="middle" x="1167.62" y="-403.2" font-family="Times New Roman,serif" font-size="14.00">model.sales.order</text>
</a>
</g>
</g>
<!-- com.example.sms.domain.model.sales.order.rule&#45;&gt;com.example.sms.domain.model.sales.order -->
<g id="edge23" class="edge">
<title>com.example.sms.domain.model.sales.order.rule&#45;&gt;com.example.sms.domain.model.sales.order</title>
<path fill="none" stroke="black" d="M1349.45,-489.03C1313.43,-474.63 1263.62,-454.73 1225.24,-439.39"/>
<polygon fill="black" stroke="black" points="1226.73,-436.22 1216.14,-435.76 1224.13,-442.72 1226.73,-436.22"/>
</g>
<!-- com.example.sms.domain.type.quantity -->
<g id="node10" class="node">
<title>com.example.sms.domain.type.quantity</title>
<g id="a_node10"><a xlink:href="./domain.html#com.example.sms.domain.type.quantity" xlink:title="数量\ntype.quantity">
<polygon fill="#eedd82" stroke="black" points="1467.25,-61 1380,-61 1380,-22.25 1467.25,-22.25 1467.25,-61"/>
<text text-anchor="middle" x="1423.62" y="-43.7" font-family="Times New Roman,serif" font-size="14.00">数量</text>
<text text-anchor="middle" x="1423.62" y="-29.45" font-family="Times New Roman,serif" font-size="14.00">type.quantity</text>
</a>
</g>
</g>
<!-- com.example.sms.domain.type.money&#45;&gt;com.example.sms.domain.type.quantity -->
<g id="edge25" class="edge">
<title>com.example.sms.domain.type.money&#45;&gt;com.example.sms.domain.type.quantity</title>
<path fill="none" stroke="black" d="M1310.77,-96.64C1330.11,-87.38 1353.65,-76.12 1374.21,-66.27"/>
<polygon fill="black" stroke="black" points="1375.48,-69.55 1382.98,-62.08 1372.45,-63.24 1375.48,-69.55"/>
</g>
<!-- com.example.sms.domain.model.sales.order&#45;&gt;com.example.sms.domain.model.master.employee -->
<g id="edge38" class="edge">
<title>com.example.sms.domain.model.sales.order&#45;&gt;com.example.sms.domain.model.master.employee</title>
<path fill="none" stroke="black" d="M1123.13,-395.65C1071.3,-374.55 982.68,-340.68 903.62,-321.25 804.52,-296.89 687.93,-282.17 610.71,-274.3"/>
<polygon fill="black" stroke="black" points="611.42,-270.85 601.12,-273.34 610.72,-277.82 611.42,-270.85"/>
</g>
<!-- com.example.sms.domain.model.sales.order&#45;&gt;com.example.sms.domain.type.money -->
<g id="edge17" class="edge">
<title>com.example.sms.domain.model.sales.order&#45;&gt;com.example.sms.domain.type.money</title>
<path fill="none" stroke="black" d="M1174.13,-395.8C1191.68,-345.69 1240.08,-207.46 1261.36,-146.69"/>
<polygon fill="black" stroke="black" points="1264.62,-147.97 1264.62,-137.38 1258.01,-145.66 1264.62,-147.97"/>
</g>
<!-- com.example.sms.domain.model.master.partner -->
<g id="node7" class="node">
<title>com.example.sms.domain.model.master.partner</title>
<g id="a_node7"><a xlink:href="./domain.html#com.example.sms.domain.model.master.partner" xlink:title="取引先\nmodel.master.partner">
<polygon fill="#eedd82" stroke="black" points="977.75,-210.5 845.5,-210.5 845.5,-171.75 977.75,-171.75 977.75,-210.5"/>
<text text-anchor="middle" x="911.62" y="-193.2" font-family="Times New Roman,serif" font-size="14.00">取引先</text>
<text text-anchor="middle" x="911.62" y="-178.95" font-family="Times New Roman,serif" font-size="14.00">model.master.partner</text>
</a>
</g>
</g>
<!-- com.example.sms.domain.model.sales.order&#45;&gt;com.example.sms.domain.model.master.partner -->
<g id="edge3" class="edge">
<title>com.example.sms.domain.model.sales.order&#45;&gt;com.example.sms.domain.model.master.partner</title>
<path fill="none" stroke="black" d="M1158.12,-395.71C1146.14,-374.17 1123.44,-339.4 1093.62,-321.25 1022.82,-278.15 963.28,-349.27 910.62,-285.25 896.37,-267.92 897.87,-242.02 902.22,-221.92"/>
<polygon fill="black" stroke="black" points="905.59,-222.9 904.65,-212.34 898.8,-221.18 905.59,-222.9"/>
</g>
<!-- com.example.sms.domain.model.sales.order&#45;&gt;com.example.sms.domain.type.quantity -->
<g id="edge43" class="edge">
<title>com.example.sms.domain.model.sales.order&#45;&gt;com.example.sms.domain.type.quantity</title>
<path fill="none" stroke="black" d="M1224.39,-405.75C1276.2,-396.7 1347.53,-380.88 1366.62,-360 1441.01,-278.68 1434.7,-134.73 1427.81,-72.58"/>
<polygon fill="black" stroke="black" points="1431.3,-72.29 1426.63,-62.78 1424.35,-73.13 1431.3,-72.29"/>
</g>
<!-- com.example.sms.domain.model.master.partner.customer -->
<g id="node11" class="node">
<title>com.example.sms.domain.model.master.partner.customer</title>
<g id="a_node11"><a xlink:href="./domain.html#com.example.sms.domain.model.master.partner.customer" xlink:title="顧客\nmodel.master.partner.customer">
<polygon fill="#eedd82" stroke="black" points="872.38,-135.75 686.88,-135.75 686.88,-97 872.38,-97 872.38,-135.75"/>
<text text-anchor="middle" x="779.62" y="-118.45" font-family="Times New Roman,serif" font-size="14.00">顧客</text>
<text text-anchor="middle" x="779.62" y="-104.2" font-family="Times New Roman,serif" font-size="14.00">model.master.partner.customer</text>
</a>
</g>
</g>
<!-- com.example.sms.domain.model.sales.order&#45;&gt;com.example.sms.domain.model.master.partner.customer -->
<g id="edge16" class="edge">
<title>com.example.sms.domain.model.sales.order&#45;&gt;com.example.sms.domain.model.master.partner.customer</title>
<path fill="none" stroke="black" d="M1142.26,-395.65C1113.34,-375.04 1064.06,-342.06 1017.62,-321.25 966.03,-298.13 942.45,-316.93 895.62,-285.25 844.22,-250.47 808.84,-184.67 791.63,-146.59"/>
<polygon fill="black" stroke="black" points="794.9,-145.32 787.68,-137.57 788.49,-148.13 794.9,-145.32"/>
</g>
<!-- com.example.sms.domain.model.master.product -->
<g id="node12" class="node">
<title>com.example.sms.domain.model.master.product</title>
<g id="a_node12"><a xlink:href="./domain.html#com.example.sms.domain.model.master.product" xlink:title="商品\nmodel.master.product">
<polygon fill="#eedd82" stroke="black" points="1357.25,-360 1222,-360 1222,-321.25 1357.25,-321.25 1357.25,-360"/>
<text text-anchor="middle" x="1289.62" y="-342.7" font-family="Times New Roman,serif" font-size="14.00">商品</text>
<text text-anchor="middle" x="1289.62" y="-328.45" font-family="Times New Roman,serif" font-size="14.00">model.master.product</text>
</a>
</g>
</g>
<!-- com.example.sms.domain.model.sales.order&#45;&gt;com.example.sms.domain.model.master.product -->
<g id="edge51" class="edge">
<title>com.example.sms.domain.model.sales.order&#45;&gt;com.example.sms.domain.model.master.product</title>
<path fill="none" stroke="black" d="M1199.04,-395.64C1214.13,-386.65 1232.4,-375.75 1248.56,-366.11"/>
<polygon fill="black" stroke="black" points="1250.22,-369.2 1257.01,-361.07 1246.63,-363.19 1250.22,-369.2"/>
</g>
<!-- com.example.sms.domain.model.master.department -->
<g id="node17" class="node">
<title>com.example.sms.domain.model.master.department</title>
<g id="a_node17"><a xlink:href="./domain.html#com.example.sms.domain.model.master.department" xlink:title="部門\nmodel.master.department">
<polygon fill="#eedd82" stroke="black" points="643.38,-360 487.88,-360 487.88,-321.25 643.38,-321.25 643.38,-360"/>
<text text-anchor="middle" x="565.62" y="-342.7" font-family="Times New Roman,serif" font-size="14.00">部門</text>
<text text-anchor="middle" x="565.62" y="-328.45" font-family="Times New Roman,serif" font-size="14.00">model.master.department</text>
</a>
</g>
</g>
<!-- com.example.sms.domain.model.sales.order&#45;&gt;com.example.sms.domain.model.master.department -->
<g id="edge13" class="edge">
<title>com.example.sms.domain.model.sales.order&#45;&gt;com.example.sms.domain.model.master.department</title>
<path fill="none" stroke="black" d="M1111.01,-408.52C1021.61,-399.14 842.28,-379.79 690.62,-360 678.97,-358.48 666.71,-356.79 654.62,-355.07"/>
<polygon fill="black" stroke="black" points="655.48,-351.66 645.08,-353.7 654.49,-358.59 655.48,-351.66"/>
</g>
<!-- com.example.sms.domain.model.system.autonumber -->
<g id="node19" class="node">
<title>com.example.sms.domain.model.system.autonumber</title>
<g id="a_node19"><a xlink:href="./domain.html#com.example.sms.domain.model.system.autonumber" xlink:title="自動採番\nmodel.system.autonumber">
<polygon fill="#eedd82" stroke="black" points="861.38,-360 699.88,-360 699.88,-321.25 861.38,-321.25 861.38,-360"/>
<text text-anchor="middle" x="780.62" y="-342.7" font-family="Times New Roman,serif" font-size="14.00">自動採番</text>
<text text-anchor="middle" x="780.62" y="-328.45" font-family="Times New Roman,serif" font-size="14.00">model.system.autonumber</text>
</a>
</g>
</g>
<!-- com.example.sms.domain.model.sales.order&#45;&gt;com.example.sms.domain.model.system.autonumber -->
<g id="edge18" class="edge">
<title>com.example.sms.domain.model.sales.order&#45;&gt;com.example.sms.domain.model.system.autonumber</title>
<path fill="none" stroke="black" d="M1110.94,-403.72C1048.43,-391.97 946.93,-372.89 872.92,-358.98"/>
<polygon fill="black" stroke="black" points="873.71,-355.56 863.24,-357.16 872.42,-362.44 873.71,-355.56"/>
</g>
<!-- com.example.sms.domain.model.master.partner&#45;&gt;com.example.sms.domain.type.money -->
<g id="edge22" class="edge">
<title>com.example.sms.domain.model.master.partner&#45;&gt;com.example.sms.domain.type.money</title>
<path fill="none" stroke="black" d="M978.07,-176.7C1047.93,-162.58 1156.36,-140.67 1220.04,-127.8"/>
<polygon fill="black" stroke="black" points="1220.42,-131.29 1229.53,-125.88 1219.03,-124.43 1220.42,-131.29"/>
</g>
<!-- com.example.sms.domain.model.master.partner&#45;&gt;com.example.sms.domain.model.master.partner.customer -->
<g id="edge58" class="edge">
<title>com.example.sms.domain.model.master.partner&#45;&gt;com.example.sms.domain.model.master.partner.customer</title>
<path fill="none" stroke="red" stroke-width="2" d="M867.57,-165.84C853.39,-158.03 837.68,-149.37 823.51,-141.56"/>
<polygon fill="red" stroke="red" stroke-width="2" points="864.53,-168.17 874.98,-169.93 867.91,-162.04 864.53,-168.17"/>
<polygon fill="red" stroke="red" stroke-width="2" points="826.6,-139.27 816.15,-137.51 823.22,-145.4 826.6,-139.27"/>
</g>
<!-- com.example.sms.domain.type.address -->
<g id="node21" class="node">
<title>com.example.sms.domain.type.address</title>
<g id="a_node21"><a xlink:href="./domain.html#com.example.sms.domain.type.address" xlink:title="住所\ntype.address">
<polygon fill="#eedd82" stroke="black" points="1038.38,-61 954.88,-61 954.88,-22.25 1038.38,-22.25 1038.38,-61"/>
<text text-anchor="middle" x="996.62" y="-43.7" font-family="Times New Roman,serif" font-size="14.00">住所</text>
<text text-anchor="middle" x="996.62" y="-29.45" font-family="Times New Roman,serif" font-size="14.00">type.address</text>
</a>
</g>
</g>
<!-- com.example.sms.domain.model.master.partner&#45;&gt;com.example.sms.domain.type.address -->
<g id="edge21" class="edge">
<title>com.example.sms.domain.model.master.partner&#45;&gt;com.example.sms.domain.type.address</title>
<path fill="none" stroke="black" d="M922.39,-171.44C937.02,-146.06 963.29,-100.47 980.34,-70.89"/>
<polygon fill="black" stroke="black" points="983.23,-72.88 985.19,-62.47 977.17,-69.38 983.23,-72.88"/>
</g>
<!-- com.example.sms.domain.model.sales.shipping -->
<g id="node9" class="node">
<title>com.example.sms.domain.model.sales.shipping</title>
<g id="a_node9"><a xlink:href="./domain.html#com.example.sms.domain.model.sales.shipping" xlink:title="出荷\nmodel.sales.shipping">
<polygon fill="#eedd82" stroke="black" points="1184,-528.25 1053.25,-528.25 1053.25,-489.5 1184,-489.5 1184,-528.25"/>
<text text-anchor="middle" x="1118.62" y="-510.95" font-family="Times New Roman,serif" font-size="14.00">出荷</text>
<text text-anchor="middle" x="1118.62" y="-496.7" font-family="Times New Roman,serif" font-size="14.00">model.sales.shipping</text>
</a>
</g>
</g>
<!-- com.example.sms.domain.model.sales.shipping&#45;&gt;com.example.sms.domain.model.master.employee -->
<g id="edge11" class="edge">
<title>com.example.sms.domain.model.sales.shipping&#45;&gt;com.example.sms.domain.model.master.employee</title>
<path fill="none" stroke="black" d="M1053.13,-492.8C1044.61,-489.67 1036.22,-485.93 1028.62,-481.5 961.71,-442.46 956.58,-416.55 903.62,-360 888.16,-343.49 890.36,-332.31 870.62,-321.25 827.3,-296.97 698.15,-281.5 610.75,-273.5"/>
<polygon fill="black" stroke="black" points="611.29,-270.04 601.02,-272.63 610.67,-277.01 611.29,-270.04"/>
</g>
<!-- com.example.sms.domain.model.sales.shipping&#45;&gt;com.example.sms.domain.type.money -->
<g id="edge27" class="edge">
<title>com.example.sms.domain.model.sales.shipping&#45;&gt;com.example.sms.domain.type.money</title>
<path fill="none" stroke="black" d="M1184.21,-503.78C1226.17,-500.08 1275.94,-493.33 1293.62,-481.5 1345.98,-446.47 1349.79,-420.71 1366.62,-360 1371.23,-343.4 1370.35,-338.06 1366.62,-321.25 1358.73,-285.62 1311.71,-193.31 1286.91,-146.1"/>
<polygon fill="black" stroke="black" points="1290.02,-144.49 1282.26,-137.28 1283.83,-147.76 1290.02,-144.49"/>
</g>
<!-- com.example.sms.domain.model.sales.shipping&#45;&gt;com.example.sms.domain.model.sales.order -->
<g id="edge12" class="edge">
<title>com.example.sms.domain.model.sales.shipping&#45;&gt;com.example.sms.domain.model.sales.order</title>
<path fill="none" stroke="black" d="M1128.54,-489.36C1135.34,-476.67 1144.49,-459.58 1152.22,-445.13"/>
<polygon fill="black" stroke="black" points="1155.21,-446.98 1156.84,-436.51 1149.03,-443.68 1155.21,-446.98"/>
</g>
<!-- com.example.sms.domain.model.sales.shipping&#45;&gt;com.example.sms.domain.type.quantity -->
<g id="edge5" class="edge">
<title>com.example.sms.domain.model.sales.shipping&#45;&gt;com.example.sms.domain.type.quantity</title>
<path fill="none" stroke="black" d="M1184.35,-504.38C1239.51,-500.66 1313.51,-493.6 1340.62,-481.5 1426.57,-443.13 1499.62,-435.74 1499.62,-341.62 1499.62,-341.62 1499.62,-341.62 1499.62,-190.12 1499.62,-144.06 1469.97,-97.98 1447.7,-69.89"/>
<polygon fill="black" stroke="black" points="1450.49,-67.77 1441.45,-62.25 1445.08,-72.21 1450.49,-67.77"/>
</g>
<!-- com.example.sms.domain.model.sales.shipping&#45;&gt;com.example.sms.domain.model.master.partner.customer -->
<g id="edge14" class="edge">
<title>com.example.sms.domain.model.sales.shipping&#45;&gt;com.example.sms.domain.model.master.partner.customer</title>
<path fill="none" stroke="black" d="M1100.53,-489.23C1076.65,-464.98 1032.92,-421.71 992.62,-388 954.15,-355.81 942.34,-350.55 901.62,-321.25 879.1,-305.04 870,-305.11 850.62,-285.25 822.72,-256.63 816.4,-247.23 800.62,-210.5 791.99,-190.39 786.67,-166.24 783.55,-147.58"/>
<polygon fill="black" stroke="black" points="787.01,-147.05 782.03,-137.7 780.09,-148.11 787.01,-147.05"/>
</g>
<!-- com.example.sms.domain.model.sales.shipping&#45;&gt;com.example.sms.domain.model.master.product -->
<g id="edge47" class="edge">
<title>com.example.sms.domain.model.sales.shipping&#45;&gt;com.example.sms.domain.model.master.product</title>
<path fill="none" stroke="black" d="M1184.15,-503.44C1217.76,-499.77 1254.03,-493.19 1265.62,-481.5 1294.1,-452.81 1295.93,-403.46 1293.58,-371.7"/>
<polygon fill="black" stroke="black" points="1297.09,-371.6 1292.66,-361.98 1290.12,-372.26 1297.09,-371.6"/>
</g>
<!-- com.example.sms.domain.model.sales.shipping&#45;&gt;com.example.sms.domain.model.master.department -->
<g id="edge19" class="edge">
<title>com.example.sms.domain.model.sales.shipping&#45;&gt;com.example.sms.domain.model.master.department</title>
<path fill="none" stroke="black" d="M1052.97,-496.61C1032.79,-492.54 1010.63,-487.46 990.62,-481.5 882.1,-449.18 861.5,-422.41 753.62,-388 721.68,-377.81 686.09,-368.52 654.54,-360.98"/>
<polygon fill="black" stroke="black" points="655.58,-357.62 645.04,-358.73 653.97,-364.44 655.58,-357.62"/>
</g>
<!-- com.example.sms.domain.model.master.partner.customer&#45;&gt;com.example.sms.domain.type.phone -->
<g id="edge6" class="edge">
<title>com.example.sms.domain.model.master.partner.customer&#45;&gt;com.example.sms.domain.type.phone</title>
<path fill="none" stroke="black" d="M719.66,-96.54C689.88,-87.08 653.14,-75.25 612.22,-61.5"/>
<polygon fill="black" stroke="black" points="613.47,-58.22 602.87,-58.35 611.23,-64.86 613.47,-58.22"/>
</g>
<!-- com.example.sms.domain.type.mail -->
<g id="node14" class="node">
<title>com.example.sms.domain.type.mail</title>
<g id="a_node14"><a xlink:href="./domain.html#com.example.sms.domain.type.mail" xlink:title="メール\ntype.mail">
<polygon fill="#eedd82" stroke="black" points="1124.5,-61 1056.75,-61 1056.75,-22.25 1124.5,-22.25 1124.5,-61"/>
<text text-anchor="middle" x="1090.62" y="-43.7" font-family="Times New Roman,serif" font-size="14.00">メール</text>
<text text-anchor="middle" x="1090.62" y="-29.45" font-family="Times New Roman,serif" font-size="14.00">type.mail</text>
</a>
</g>
</g>
<!-- com.example.sms.domain.model.master.partner.customer&#45;&gt;com.example.sms.domain.type.mail -->
<g id="edge33" class="edge">
<title>com.example.sms.domain.model.master.partner.customer&#45;&gt;com.example.sms.domain.type.mail</title>
<path fill="none" stroke="black" d="M872.58,-101.31C921.85,-92.74 983.36,-80.25 1045.76,-61.27"/>
<polygon fill="black" stroke="black" points="1046.63,-64.66 1055.15,-58.36 1044.56,-57.98 1046.63,-64.66"/>
</g>
<!-- com.example.sms.domain.model.master.region -->
<g id="node16" class="node">
<title>com.example.sms.domain.model.master.region</title>
<g id="a_node16"><a xlink:href="./domain.html#com.example.sms.domain.model.master.region" xlink:title="地域\nmodel.master.region">
<polygon fill="#eedd82" stroke="black" points="747.88,-61 619.38,-61 619.38,-22.25 747.88,-22.25 747.88,-61"/>
<text text-anchor="middle" x="683.62" y="-43.7" font-family="Times New Roman,serif" font-size="14.00">地域</text>
<text text-anchor="middle" x="683.62" y="-29.45" font-family="Times New Roman,serif" font-size="14.00">model.master.region</text>
</a>
</g>
</g>
<!-- com.example.sms.domain.model.master.partner.customer&#45;&gt;com.example.sms.domain.model.master.region -->
<g id="edge10" class="edge">
<title>com.example.sms.domain.model.master.partner.customer&#45;&gt;com.example.sms.domain.model.master.region</title>
<path fill="none" stroke="black" d="M754.9,-96.64C743.48,-87.98 729.74,-77.57 717.38,-68.21"/>
<polygon fill="black" stroke="black" points="719.55,-65.46 709.47,-62.21 715.33,-71.04 719.55,-65.46"/>
</g>
<!-- com.example.sms.domain.model.master.partner.customer&#45;&gt;com.example.sms.domain.type.address -->
<g id="edge46" class="edge">
<title>com.example.sms.domain.model.master.partner.customer&#45;&gt;com.example.sms.domain.type.address</title>
<path fill="none" stroke="black" d="M838.54,-96.54C867.72,-87.1 903.72,-75.31 943.8,-61.59"/>
<polygon fill="black" stroke="black" points="944.88,-64.91 953.2,-58.36 942.61,-58.29 944.88,-64.91"/>
</g>
<!-- com.example.sms.domain.model.master.partner.billing -->
<g id="node26" class="node">
<title>com.example.sms.domain.model.master.partner.billing</title>
<g id="a_node26"><a xlink:href="./domain.html#com.example.sms.domain.model.master.partner.billing" xlink:title="請求\nmodel.master.partner.billing">
<polygon fill="#eedd82" stroke="black" points="936.88,-61 766.38,-61 766.38,-22.25 936.88,-22.25 936.88,-61"/>
<text text-anchor="middle" x="851.62" y="-43.7" font-family="Times New Roman,serif" font-size="14.00">請求</text>
<text text-anchor="middle" x="851.62" y="-29.45" font-family="Times New Roman,serif" font-size="14.00">model.master.partner.billing</text>
</a>
</g>
</g>
<!-- com.example.sms.domain.model.master.partner.customer&#45;&gt;com.example.sms.domain.model.master.partner.billing -->
<g id="edge57" class="edge">
<title>com.example.sms.domain.model.master.partner.customer&#45;&gt;com.example.sms.domain.model.master.partner.billing</title>
<path fill="none" stroke="red" stroke-width="2" d="M806.11,-88.62C812.42,-82.24 819.16,-75.43 825.46,-69.06"/>
<polygon fill="red" stroke="red" stroke-width="2" points="804.84,-84.92 800.3,-94.49 809.82,-89.84 804.84,-84.92"/>
<polygon fill="red" stroke="red" stroke-width="2" points="826.47,-73.02 831.02,-63.45 821.49,-68.09 826.47,-73.02"/>
</g>
<!-- com.example.sms.domain.model.master.product&#45;&gt;com.example.sms.domain.type.money -->
<g id="edge24" class="edge">
<title>com.example.sms.domain.model.master.product&#45;&gt;com.example.sms.domain.type.money</title>
<path fill="none" stroke="black" d="M1288.12,-321.06C1285.01,-282.65 1277.85,-194.19 1274.06,-147.5"/>
<polygon fill="black" stroke="black" points="1277.56,-147.24 1273.26,-137.55 1270.58,-147.8 1277.56,-147.24"/>
</g>
<!-- com.example.sms.domain.model.master.product&#45;&gt;com.example.sms.domain.type.quantity -->
<g id="edge7" class="edge">
<title>com.example.sms.domain.model.master.product&#45;&gt;com.example.sms.domain.type.quantity</title>
<path fill="none" stroke="black" d="M1298.01,-321.05C1320.66,-270.83 1383.24,-132.13 1410.57,-71.56"/>
<polygon fill="black" stroke="black" points="1413.7,-73.13 1414.62,-62.58 1407.32,-70.25 1413.7,-73.13"/>
</g>
<!-- com.example.sms.domain.model.master.partner.vendor -->
<g id="node13" class="node">
<title>com.example.sms.domain.model.master.partner.vendor</title>
<g id="a_node13"><a xlink:href="./domain.html#com.example.sms.domain.model.master.partner.vendor" xlink:title="仕入先\nmodel.master.partner.vendor">
<polygon fill="#eedd82" stroke="black" points="1092,-285.25 919.25,-285.25 919.25,-246.5 1092,-246.5 1092,-285.25"/>
<text text-anchor="middle" x="1005.62" y="-267.95" font-family="Times New Roman,serif" font-size="14.00">仕入先</text>
<text text-anchor="middle" x="1005.62" y="-253.7" font-family="Times New Roman,serif" font-size="14.00">model.master.partner.vendor</text>
</a>
</g>
</g>
<!-- com.example.sms.domain.model.master.product&#45;&gt;com.example.sms.domain.model.master.partner.vendor -->
<g id="edge26" class="edge">
<title>com.example.sms.domain.model.master.product&#45;&gt;com.example.sms.domain.model.master.partner.vendor</title>
<path fill="none" stroke="black" d="M1221.6,-322.2C1182.13,-312.09 1132.09,-299.27 1090.11,-288.52"/>
<polygon fill="black" stroke="black" points="1091.09,-285.15 1080.53,-286.06 1089.35,-291.94 1091.09,-285.15"/>
</g>
<!-- com.example.sms.domain.model.master.partner.vendor&#45;&gt;com.example.sms.domain.model.master.partner -->
<g id="edge59" class="edge">
<title>com.example.sms.domain.model.master.partner.vendor&#45;&gt;com.example.sms.domain.model.master.partner</title>
<path fill="none" stroke="red" stroke-width="2" d="M972.48,-239.22C963.5,-232.27 953.77,-224.74 944.78,-217.79"/>
<polygon fill="red" stroke="red" stroke-width="2" points="968.97,-240.93 979.02,-244.29 973.26,-235.4 968.97,-240.93"/>
<polygon fill="red" stroke="red" stroke-width="2" points="948.19,-216 938.14,-212.65 943.91,-221.54 948.19,-216"/>
</g>
<!-- com.example.sms.domain.model.master.partner.vendor&#45;&gt;com.example.sms.domain.type.phone -->
<g id="edge28" class="edge">
<title>com.example.sms.domain.model.master.partner.vendor&#45;&gt;com.example.sms.domain.type.phone</title>
<path fill="none" stroke="black" d="M1005.74,-246.23C1005.03,-226.27 1001.38,-194.43 986.62,-171.75 955.39,-123.73 934.92,-118 881.62,-97 771.89,-53.76 731.16,-87.3 612.51,-61.1"/>
<polygon fill="black" stroke="black" points="613.55,-57.75 603.02,-58.91 611.97,-64.57 613.55,-57.75"/>
</g>
<!-- com.example.sms.domain.model.master.partner.vendor&#45;&gt;com.example.sms.domain.type.mail -->
<g id="edge8" class="edge">
<title>com.example.sms.domain.model.master.partner.vendor&#45;&gt;com.example.sms.domain.type.mail</title>
<path fill="none" stroke="black" d="M1016.63,-246.13C1022.42,-235.83 1029.39,-222.69 1034.62,-210.5 1054.87,-163.41 1072.51,-106.4 1082.34,-72.4"/>
<polygon fill="black" stroke="black" points="1085.69,-73.42 1085.07,-62.84 1078.96,-71.5 1085.69,-73.42"/>
</g>
<!-- com.example.sms.domain.model.master.partner.vendor&#45;&gt;com.example.sms.domain.type.address -->
<g id="edge37" class="edge">
<title>com.example.sms.domain.model.master.partner.vendor&#45;&gt;com.example.sms.domain.type.address</title>
<path fill="none" stroke="black" d="M1011.59,-246.48C1014.67,-236.05 1018.08,-222.69 1019.62,-210.5 1025.76,-162.07 1014.28,-105.89 1005.44,-72.36"/>
<polygon fill="black" stroke="black" points="1008.88,-71.67 1002.86,-62.95 1002.13,-73.52 1008.88,-71.67"/>
</g>
<!-- com.example.sms.domain.model.sales.sales -->
<g id="node15" class="node">
<title>com.example.sms.domain.model.sales.sales</title>
<g id="a_node15"><a xlink:href="./domain.html#com.example.sms.domain.model.sales.sales" xlink:title="売上\nmodel.sales.sales">
<polygon fill="#eedd82" stroke="black" points="938.88,-528.25 828.38,-528.25 828.38,-489.5 938.88,-489.5 938.88,-528.25"/>
<text text-anchor="middle" x="883.62" y="-510.95" font-family="Times New Roman,serif" font-size="14.00">売上</text>
<text text-anchor="middle" x="883.62" y="-496.7" font-family="Times New Roman,serif" font-size="14.00">model.sales.sales</text>
</a>
</g>
</g>
<!-- com.example.sms.domain.model.sales.sales&#45;&gt;com.example.sms.domain.model.master.employee -->
<g id="edge29" class="edge">
<title>com.example.sms.domain.model.sales.sales&#45;&gt;com.example.sms.domain.model.master.employee</title>
<path fill="none" stroke="black" d="M828.03,-504.88C781.06,-501.48 718.1,-494.61 696.62,-481.5 653.21,-454.99 673.47,-415.41 630.62,-388 572.76,-350.98 522.58,-412.79 478.62,-360 462.07,-340.12 478.63,-313.43 496.5,-293.72"/>
<polygon fill="black" stroke="black" points="498.97,-296.2 503.37,-286.56 493.92,-291.35 498.97,-296.2"/>
</g>
<!-- com.example.sms.domain.model.sales.sales&#45;&gt;com.example.sms.domain.type.money -->
<g id="edge41" class="edge">
<title>com.example.sms.domain.model.sales.sales&#45;&gt;com.example.sms.domain.type.money</title>
<path fill="none" stroke="black" d="M939.29,-498.16C953.38,-494.27 968.07,-488.89 980.62,-481.5 1085.5,-419.74 1098.68,-382.68 1171.62,-285.25 1206.33,-238.89 1205.4,-221.15 1235.62,-171.75 1240.98,-163 1247.05,-153.64 1252.66,-145.19"/>
<polygon fill="black" stroke="black" points="1255.46,-147.3 1258.12,-137.04 1249.65,-143.4 1255.46,-147.3"/>
</g>
<!-- com.example.sms.domain.model.sales.sales&#45;&gt;com.example.sms.domain.model.sales.order -->
<g id="edge9" class="edge">
<title>com.example.sms.domain.model.sales.sales&#45;&gt;com.example.sms.domain.model.sales.order</title>
<path fill="none" stroke="black" d="M939.18,-501.45C1001.38,-494.19 1094.03,-483.17 1097.62,-481.5 1116.14,-472.87 1133.03,-457.5 1145.58,-443.85"/>
<polygon fill="black" stroke="black" points="1148.19,-446.17 1152.17,-436.35 1142.94,-441.55 1148.19,-446.17"/>
</g>
<!-- com.example.sms.domain.model.sales.sales&#45;&gt;com.example.sms.domain.model.master.partner -->
<g id="edge49" class="edge">
<title>com.example.sms.domain.model.sales.sales&#45;&gt;com.example.sms.domain.model.master.partner</title>
<path fill="none" stroke="black" d="M882.95,-489.01C881.74,-445.78 880.57,-336.33 895.62,-246.5 896.98,-238.41 899.15,-229.83 901.46,-221.93"/>
<polygon fill="black" stroke="black" points="904.78,-223.02 904.41,-212.43 898.1,-220.94 904.78,-223.02"/>
</g>
<!-- com.example.sms.domain.model.sales.sales&#45;&gt;com.example.sms.domain.type.quantity -->
<g id="edge55" class="edge">
<title>com.example.sms.domain.model.sales.sales&#45;&gt;com.example.sms.domain.type.quantity</title>
<path fill="none" stroke="black" d="M897.11,-489.14C915.01,-464.77 948.15,-421.39 980.62,-388 1029.58,-337.67 1054.39,-338.09 1100.62,-285.25 1166.28,-210.22 1142.06,-155.74 1222.62,-97 1265.53,-65.72 1325.36,-52.43 1368.58,-46.79"/>
<polygon fill="black" stroke="black" points="1368.73,-50.3 1378.24,-45.63 1367.9,-43.35 1368.73,-50.3"/>
</g>
<!-- com.example.sms.domain.model.sales.sales&#45;&gt;com.example.sms.domain.model.master.partner.customer -->
<g id="edge39" class="edge">
<title>com.example.sms.domain.model.sales.sales&#45;&gt;com.example.sms.domain.model.master.partner.customer</title>
<path fill="none" stroke="black" d="M828.03,-492.41C821.81,-489.37 815.84,-485.76 810.62,-481.5 772.94,-450.71 790.19,-420.12 753.62,-388 730.6,-367.78 707.32,-385.69 690.62,-360 644.57,-289.14 714.47,-191.2 754.62,-144.4"/>
<polygon fill="black" stroke="black" points="757.02,-146.97 760.98,-137.14 751.76,-142.36 757.02,-146.97"/>
</g>
<!-- com.example.sms.domain.model.sales.sales&#45;&gt;com.example.sms.domain.model.master.product -->
<g id="edge45" class="edge">
<title>com.example.sms.domain.model.sales.sales&#45;&gt;com.example.sms.domain.model.master.product</title>
<path fill="none" stroke="black" d="M939.04,-500.57C970.05,-496.72 1009.43,-492.25 1044.62,-489.5 1055.05,-488.68 1224.22,-487.72 1232.62,-481.5 1268.05,-455.29 1248.12,-428.44 1265.62,-388 1268.15,-382.18 1271.08,-376.07 1274.02,-370.27"/>
<polygon fill="black" stroke="black" points="1277,-372.12 1278.52,-361.63 1270.79,-368.89 1277,-372.12"/>
</g>
<!-- com.example.sms.domain.model.sales.sales&#45;&gt;com.example.sms.domain.model.master.department -->
<g id="edge35" class="edge">
<title>com.example.sms.domain.model.sales.sales&#45;&gt;com.example.sms.domain.model.master.department</title>
<path fill="none" stroke="black" d="M827.88,-499.32C812.5,-495.4 796.29,-489.72 782.62,-481.5 734.24,-452.41 743.74,-419.12 696.62,-388 682.26,-378.51 665.72,-370.71 649.34,-364.39"/>
<polygon fill="black" stroke="black" points="650.63,-361.14 640.04,-360.97 648.22,-367.71 650.63,-361.14"/>
</g>
<!-- com.example.sms.domain.model.sales.sales&#45;&gt;com.example.sms.domain.model.system.autonumber -->
<g id="edge30" class="edge">
<title>com.example.sms.domain.model.sales.sales&#45;&gt;com.example.sms.domain.model.system.autonumber</title>
<path fill="none" stroke="black" d="M872.4,-489.09C858.2,-465.41 832.91,-423.5 810.62,-388 806.81,-381.92 802.66,-375.44 798.7,-369.3"/>
<polygon fill="black" stroke="black" points="801.91,-367.81 793.53,-361.33 796.04,-371.62 801.91,-367.81"/>
</g>
<!-- com.example.sms.domain.model.master.department&#45;&gt;com.example.sms.domain.model.master.employee -->
<g id="edge56" class="edge">
<title>com.example.sms.domain.model.master.department&#45;&gt;com.example.sms.domain.model.master.employee</title>
<path fill="none" stroke="red" stroke-width="2" d="M549.84,-310.91C547.05,-305.85 544.15,-300.57 541.37,-295.51"/>
<polygon fill="red" stroke="red" stroke-width="2" points="545.98,-311.16 553.87,-318.24 552.11,-307.79 545.98,-311.16"/>
<polygon fill="red" stroke="red" stroke-width="2" points="545.23,-295.28 537.35,-288.2 539.1,-298.65 545.23,-295.28"/>
</g>
<!-- com.example.sms.domain.model.sales.shipping.rule -->
<g id="node18" class="node">
<title>com.example.sms.domain.model.sales.shipping.rule</title>
<g id="a_node18"><a xlink:href="./domain.html#com.example.sms.domain.model.sales.shipping.rule" xlink:title="出荷ルール\nmodel.sales.shipping.rule">
<polygon fill="#eedd82" stroke="black" points="1242.38,-612.38 1086.88,-612.38 1086.88,-573.62 1242.38,-573.62 1242.38,-612.38"/>
<text text-anchor="middle" x="1164.62" y="-595.08" font-family="Times New Roman,serif" font-size="14.00">出荷ルール</text>
<text text-anchor="middle" x="1164.62" y="-580.83" font-family="Times New Roman,serif" font-size="14.00">model.sales.shipping.rule</text>
</a>
</g>
</g>
<!-- com.example.sms.domain.model.sales.shipping.rule&#45;&gt;com.example.sms.domain.model.sales.order -->
<g id="edge52" class="edge">
<title>com.example.sms.domain.model.sales.shipping.rule&#45;&gt;com.example.sms.domain.model.sales.order</title>
<path fill="none" stroke="black" d="M1175.37,-573.17C1181.78,-560.83 1189.3,-544.1 1192.62,-528.25 1198.54,-500.09 1189.8,-468.06 1181.07,-445.5"/>
<polygon fill="black" stroke="black" points="1184.34,-444.26 1177.3,-436.35 1177.87,-446.93 1184.34,-444.26"/>
</g>
<!-- com.example.sms.domain.model.sales.shipping.rule&#45;&gt;com.example.sms.domain.model.sales.shipping -->
<g id="edge15" class="edge">
<title>com.example.sms.domain.model.sales.shipping.rule&#45;&gt;com.example.sms.domain.model.sales.shipping</title>
<path fill="none" stroke="black" d="M1154.19,-573.36C1148.46,-563.15 1141.24,-550.26 1134.81,-538.76"/>
<polygon fill="black" stroke="black" points="1137.86,-537.06 1129.92,-530.04 1131.75,-540.48 1137.86,-537.06"/>
</g>
<!-- com.example.sms.domain.model.master.payment.account.incoming -->
<g id="node20" class="node">
<title>com.example.sms.domain.model.master.payment.account.incoming</title>
<g id="a_node20"><a xlink:href="./domain.html#com.example.sms.domain.model.master.payment.account.incoming" xlink:title="入出口座\nincoming">
<polygon fill="#eedd82" stroke="black" points="593.12,-434.75 508.12,-434.75 508.12,-396 593.12,-396 593.12,-434.75"/>
<text text-anchor="middle" x="550.62" y="-417.45" font-family="Times New Roman,serif" font-size="14.00">入出口座</text>
<text text-anchor="middle" x="550.62" y="-403.2" font-family="Times New Roman,serif" font-size="14.00">incoming</text>
</a>
</g>
</g>
<!-- com.example.sms.domain.model.master.payment.account.incoming&#45;&gt;com.example.sms.domain.model.master.department -->
<g id="edge20" class="edge">
<title>com.example.sms.domain.model.master.payment.account.incoming&#45;&gt;com.example.sms.domain.model.master.department</title>
<path fill="none" stroke="black" d="M554.49,-395.64C556.01,-388.26 557.8,-379.6 559.49,-371.4"/>
<polygon fill="black" stroke="black" points="562.88,-372.28 561.47,-361.78 556.02,-370.87 562.88,-372.28"/>
</g>
<!-- com.example.sms.domain.model.sales.payment.incoming -->
<g id="node22" class="node">
<title>com.example.sms.domain.model.sales.payment.incoming</title>
<g id="a_node22"><a xlink:href="./domain.html#com.example.sms.domain.model.sales.payment.incoming" xlink:title="入金\nmodel.sales.payment.incoming">
<polygon fill="#eedd82" stroke="black" points="614.12,-528.25 427.12,-528.25 427.12,-489.5 614.12,-489.5 614.12,-528.25"/>
<text text-anchor="middle" x="520.62" y="-510.95" font-family="Times New Roman,serif" font-size="14.00">入金</text>
<text text-anchor="middle" x="520.62" y="-496.7" font-family="Times New Roman,serif" font-size="14.00">model.sales.payment.incoming</text>
</a>
</g>
</g>
<!-- com.example.sms.domain.model.sales.payment.incoming&#45;&gt;com.example.sms.domain.type.money -->
<g id="edge40" class="edge">
<title>com.example.sms.domain.model.sales.payment.incoming&#45;&gt;com.example.sms.domain.type.money</title>
<path fill="none" stroke="black" d="M442.8,-489.21C440.15,-486.92 437.73,-484.36 435.62,-481.5 391.89,-422.13 414.93,-358.41 478.62,-321.25 598.21,-251.48 974.74,-342.9 1100.62,-285.25 1164.49,-256 1159.93,-220.38 1210.62,-171.75 1220.44,-162.33 1231.47,-152.34 1241.42,-143.52"/>
<polygon fill="black" stroke="black" points="1243.49,-146.36 1248.69,-137.12 1238.87,-141.1 1243.49,-146.36"/>
</g>
<!-- com.example.sms.domain.model.sales.payment.incoming&#45;&gt;com.example.sms.domain.model.master.partner.customer -->
<g id="edge31" class="edge">
<title>com.example.sms.domain.model.sales.payment.incoming&#45;&gt;com.example.sms.domain.model.master.partner.customer</title>
<path fill="none" stroke="black" d="M426.63,-493.43C419.81,-490.18 413.37,-486.25 407.62,-481.5 355.24,-438.14 345.62,-409.63 345.62,-341.62 345.62,-341.62 345.62,-341.62 345.62,-264.88 345.62,-195.47 547.08,-152.17 675.49,-131.62"/>
<polygon fill="black" stroke="black" points="675.69,-135.13 685.03,-130.12 674.6,-128.22 675.69,-135.13"/>
</g>
<!-- com.example.sms.domain.model.sales.payment.incoming&#45;&gt;com.example.sms.domain.model.master.department -->
<g id="edge34" class="edge">
<title>com.example.sms.domain.model.sales.payment.incoming&#45;&gt;com.example.sms.domain.model.master.department</title>
<path fill="none" stroke="black" d="M614.23,-491.44C621.78,-488.58 627.65,-485.28 630.62,-481.5 656.36,-448.87 649.65,-424.94 630.62,-388 626.52,-380.03 620.34,-373.12 613.39,-367.26"/>
<polygon fill="black" stroke="black" points="615.58,-364.52 605.49,-361.29 611.36,-370.11 615.58,-364.52"/>
</g>
<!-- com.example.sms.domain.model.sales.payment.incoming&#45;&gt;com.example.sms.domain.model.master.payment.account.incoming -->
<g id="edge36" class="edge">
<title>com.example.sms.domain.model.sales.payment.incoming&#45;&gt;com.example.sms.domain.model.master.payment.account.incoming</title>
<path fill="none" stroke="black" d="M526.7,-489.36C530.78,-476.91 536.24,-460.24 540.92,-445.98"/>
<polygon fill="black" stroke="black" points="544.2,-447.21 543.99,-436.62 537.55,-445.03 544.2,-447.21"/>
</g>
<!-- com.example.sms.domain.model.sales.invoice -->
<g id="node23" class="node">
<title>com.example.sms.domain.model.sales.invoice</title>
<g id="a_node23"><a xlink:href="./domain.html#com.example.sms.domain.model.sales.invoice" xlink:title="請求\nmodel.sales.invoice">
<polygon fill="#eedd82" stroke="black" points="782.62,-612.38 658.62,-612.38 658.62,-573.62 782.62,-573.62 782.62,-612.38"/>
<text text-anchor="middle" x="720.62" y="-595.08" font-family="Times New Roman,serif" font-size="14.00">請求</text>
<text text-anchor="middle" x="720.62" y="-580.83" font-family="Times New Roman,serif" font-size="14.00">model.sales.invoice</text>
</a>
</g>
</g>
<!-- com.example.sms.domain.model.sales.invoice&#45;&gt;com.example.sms.domain.type.money -->
<g id="edge50" class="edge">
<title>com.example.sms.domain.model.sales.invoice&#45;&gt;com.example.sms.domain.type.money</title>
<path fill="none" stroke="black" d="M782.84,-587.11C961.92,-573 1466.35,-532.89 1473.62,-528.25 1521.92,-497.44 1537.62,-473.66 1537.62,-416.38 1537.62,-416.38 1537.62,-416.38 1537.62,-339.62 1537.62,-228.84 1400.07,-162.46 1322.8,-133.91"/>
<polygon fill="black" stroke="black" points="1324.33,-130.74 1313.74,-130.64 1321.96,-137.33 1324.33,-130.74"/>
</g>
<!-- com.example.sms.domain.model.sales.invoice&#45;&gt;com.example.sms.domain.model.master.partner -->
<g id="edge44" class="edge">
<title>com.example.sms.domain.model.sales.invoice&#45;&gt;com.example.sms.domain.model.master.partner</title>
<path fill="none" stroke="black" d="M676.81,-573.16C667.93,-569.83 658.57,-566.66 649.62,-564.25 549.31,-537.18 497.35,-596.07 418.62,-528.25 379.15,-494.25 383.62,-468.47 383.62,-416.38 383.62,-416.38 383.62,-416.38 383.62,-339.62 383.62,-290.63 401.13,-272.56 442.62,-246.5 506.03,-206.69 717.74,-196 833.83,-193.15"/>
<polygon fill="black" stroke="black" points="833.67,-196.66 843.58,-192.93 833.51,-189.66 833.67,-196.66"/>
</g>
<!-- com.example.sms.domain.model.sales.invoice&#45;&gt;com.example.sms.domain.model.master.partner.customer -->
<g id="edge32" class="edge">
<title>com.example.sms.domain.model.sales.invoice&#45;&gt;com.example.sms.domain.model.master.partner.customer</title>
<path fill="none" stroke="black" d="M677.23,-573.17C668.23,-569.8 658.72,-566.61 649.62,-564.25 535.01,-534.49 489.93,-584.31 385.62,-528.25 332.23,-499.55 307.62,-476.99 307.62,-416.38 307.62,-416.38 307.62,-416.38 307.62,-264.88 307.62,-210.6 339.06,-197.88 386.62,-171.75 434.87,-145.24 576.08,-130.64 675.35,-123.41"/>
<polygon fill="black" stroke="black" points="675.4,-126.91 685.13,-122.71 674.9,-119.93 675.4,-126.91"/>
</g>
<!-- com.example.sms.domain.model.sales.invoice&#45;&gt;com.example.sms.domain.model.sales.sales -->
<g id="edge53" class="edge">
<title>com.example.sms.domain.model.sales.invoice&#45;&gt;com.example.sms.domain.model.sales.sales</title>
<path fill="none" stroke="black" d="M758.02,-573.16C781.32,-561.42 811.49,-546.22 836.43,-533.65"/>
<polygon fill="black" stroke="black" points="837.7,-536.93 845.05,-529.31 834.55,-530.68 837.7,-536.93"/>
</g>
<!-- com.example.sms.domain.model.sales.invoice&#45;&gt;com.example.sms.domain.model.system.autonumber -->
<g id="edge48" class="edge">
<title>com.example.sms.domain.model.sales.invoice&#45;&gt;com.example.sms.domain.model.system.autonumber</title>
<path fill="none" stroke="black" d="M725.13,-573.18C735.48,-530.03 760.97,-423.66 773.47,-371.47"/>
<polygon fill="black" stroke="black" points="776.87,-372.33 775.79,-361.79 770.06,-370.7 776.87,-372.33"/>
</g>
<!-- com.example.sms.domain.model.system.audit -->
<g id="node24" class="node">
<title>com.example.sms.domain.model.system.audit</title>
<g id="a_node24"><a xlink:href="./domain.html#com.example.sms.domain.model.system.audit" xlink:title="監査\nmodel.system.audit">
<polygon fill="#eedd82" stroke="black" points="123.25,-285.25 0,-285.25 0,-246.5 123.25,-246.5 123.25,-285.25"/>
<text text-anchor="middle" x="61.62" y="-267.95" font-family="Times New Roman,serif" font-size="14.00">監査</text>
<text text-anchor="middle" x="61.62" y="-253.7" font-family="Times New Roman,serif" font-size="14.00">model.system.audit</text>
</a>
</g>
</g>
<!-- com.example.sms.domain.model.system.audit&#45;&gt;com.example.sms.domain.model.system.user -->
<g id="edge42" class="edge">
<title>com.example.sms.domain.model.system.audit&#45;&gt;com.example.sms.domain.model.system.user</title>
<path fill="none" stroke="black" d="M92.79,-246.14C107.75,-237.15 125.87,-226.25 141.9,-216.61"/>
<polygon fill="black" stroke="black" points="143.51,-219.73 150.27,-211.58 139.9,-213.73 143.51,-219.73"/>
</g>
<!-- com.example.sms.domain.model.system.auth -->
<g id="node25" class="node">
<title>com.example.sms.domain.model.system.auth</title>
<g id="a_node25"><a xlink:href="./domain.html#com.example.sms.domain.model.system.auth" xlink:title="認証\nmodel.system.auth">
<polygon fill="#eedd82" stroke="black" points="260.38,-285.25 140.88,-285.25 140.88,-246.5 260.38,-246.5 260.38,-285.25"/>
<text text-anchor="middle" x="200.62" y="-267.95" font-family="Times New Roman,serif" font-size="14.00">認証</text>
<text text-anchor="middle" x="200.62" y="-253.7" font-family="Times New Roman,serif" font-size="14.00">model.system.auth</text>
</a>
</g>
</g>
<!-- com.example.sms.domain.model.system.auth&#45;&gt;com.example.sms.domain.model.system.user -->
<g id="edge54" class="edge">
<title>com.example.sms.domain.model.system.auth&#45;&gt;com.example.sms.domain.model.system.user</title>
<path fill="none" stroke="black" d="M195.99,-246.14C194.16,-238.76 192.02,-230.1 189.99,-221.9"/>
<polygon fill="black" stroke="black" points="193.41,-221.13 187.61,-212.27 186.61,-222.81 193.41,-221.13"/>
</g>
<!-- com.example.sms.domain.model.system.download -->
<g id="node27" class="node">
<title>com.example.sms.domain.model.system.download</title>
<g id="a_node27"><a xlink:href="./domain.html#com.example.sms.domain.model.system.download" xlink:title="データダウンロード\nmodel.system.download">
<polygon fill="#eedd82" stroke="black" points="1431.25,-612.38 1260,-612.38 1260,-573.62 1431.25,-573.62 1431.25,-612.38"/>
<text text-anchor="middle" x="1345.62" y="-595.08" font-family="Times New Roman,serif" font-size="14.00">データダウンロード</text>
<text text-anchor="middle" x="1345.62" y="-580.83" font-family="Times New Roman,serif" font-size="14.00">model.system.download</text>
</a>
</g>
</g>
</g>
</svg>
