<?xml version="1.0" encoding="UTF-8" standalone="no"?>
<!DOCTYPE svg PUBLIC "-//W3C//DTD SVG 1.1//EN"
 "http://www.w3.org/Graphics/SVG/1.1/DTD/svg11.dtd">
<!-- Generated by graphviz version 12.2.0 (20241103.1931)
 -->
<!-- Title: パッケージ関連図 Pages: 1 -->
<svg width="1007pt" height="560pt"
 viewBox="0.00 0.00 1006.53 560.38" xmlns="http://www.w3.org/2000/svg" xmlns:xlink="http://www.w3.org/1999/xlink">
<g id="graph0" class="graph" transform="scale(1 1) rotate(0) translate(4 556.38)">
<title>パッケージ関連図</title>
<polygon fill="white" stroke="none" points="-4,4 -4,-556.38 1002.53,-556.38 1002.53,4 -4,4"/>
<text text-anchor="middle" x="499.26" y="-4.95" font-family="Times New Roman,serif" font-size="14.00">パッケージ関連図</text>
<g id="clust1" class="cluster">
<title>cluster_com.example.sms.domain.model.system</title>
<polygon fill="lemonchiffon" stroke="#eedd82" stroke-width="2" points="8,-30.25 8,-198.5 444,-198.5 444,-30.25 8,-30.25"/>
<text text-anchor="middle" x="226" y="-181.2" font-family="Times New Roman,serif" font-size="14.00">システム</text>
<text text-anchor="middle" x="226" y="-166.95" font-family="Times New Roman,serif" font-size="14.00">model.system</text>
</g>
<g id="clust2" class="cluster">
<title>cluster_com.example.sms.domain.model.master</title>
<polygon fill="lemonchiffon" stroke="#eedd82" stroke-width="2" points="595,-105 595,-366.75 775,-366.75 775,-105 595,-105"/>
<text text-anchor="middle" x="685" y="-349.45" font-family="Times New Roman,serif" font-size="14.00">マスタ</text>
<text text-anchor="middle" x="685" y="-335.2" font-family="Times New Roman,serif" font-size="14.00">model.master</text>
</g>
<g id="clust3" class="cluster">
<title>cluster_com.example.sms.domain.model.sales</title>
<polygon fill="lemonchiffon" stroke="#eedd82" stroke-width="2" points="418,-273.25 418,-544.38 576,-544.38 576,-273.25 418,-273.25"/>
<text text-anchor="middle" x="497" y="-527.08" font-family="Times New Roman,serif" font-size="14.00">販売</text>
<text text-anchor="middle" x="497" y="-512.83" font-family="Times New Roman,serif" font-size="14.00">model.sales</text>
</g>
<!-- summary -->
<g id="node1" class="node">
<title>summary</title>
<polygon fill="none" stroke="black" points="402,-507 218,-507 218,-449.5 408,-449.5 408,-501 402,-507"/>
<polyline fill="none" stroke="black" points="402,-507 402,-501"/>
<polyline fill="none" stroke="black" points="408,-501 402,-501"/>
<text text-anchor="start" x="226" y="-489.7" font-family="Times New Roman,serif" font-size="14.00">root: com.example.sms.domain</text>
<text text-anchor="start" x="226" y="-473.2" font-family="Times New Roman,serif" font-size="14.00">パッケージ数: 21</text>
<text text-anchor="start" x="226" y="-456.7" font-family="Times New Roman,serif" font-size="14.00">関連数: 46</text>
</g>
<!-- com.example.sms.domain.model.sales.sales -->
<g id="node2" class="node">
<title>com.example.sms.domain.model.sales.sales</title>
<g id="a_node2"><a xlink:href="./domain.html#com.example.sms.domain.model.sales.sales" xlink:title="売上\nsales">
<polygon fill="#eedd82" stroke="black" points="481,-413.5 427,-413.5 427,-374.75 481,-374.75 481,-413.5"/>
<text text-anchor="middle" x="454" y="-396.2" font-family="Times New Roman,serif" font-size="14.00">売上</text>
<text text-anchor="middle" x="454" y="-381.95" font-family="Times New Roman,serif" font-size="14.00">sales</text>
</a>
</g>
</g>
<!-- com.example.sms.domain.model.system.autonumber -->
<g id="node3" class="node">
<title>com.example.sms.domain.model.system.autonumber</title>
<g id="a_node3"><a xlink:href="./domain.html#com.example.sms.domain.model.system.autonumber" xlink:title="自動採番\nautonumber">
<polygon fill="#eedd82" stroke="black" points="101.5,-151.75 16.5,-151.75 16.5,-113 101.5,-113 101.5,-151.75"/>
<text text-anchor="middle" x="59" y="-134.45" font-family="Times New Roman,serif" font-size="14.00">自動採番</text>
<text text-anchor="middle" x="59" y="-120.2" font-family="Times New Roman,serif" font-size="14.00">autonumber</text>
</a>
</g>
</g>
<!-- com.example.sms.domain.model.sales.sales&#45;&gt;com.example.sms.domain.model.system.autonumber -->
<g id="edge1" class="edge">
<title>com.example.sms.domain.model.sales.sales&#45;&gt;com.example.sms.domain.model.system.autonumber</title>
<path fill="none" stroke="black" d="M426.52,-393.21C369.49,-392.91 240.52,-389.64 204,-366.75 127.51,-318.8 84.87,-214.2 67.83,-162.91"/>
<polygon fill="black" stroke="black" points="71.16,-161.85 64.78,-153.39 64.5,-163.98 71.16,-161.85"/>
</g>
<!-- com.example.sms.domain.model.master.employee -->
<g id="node4" class="node">
<title>com.example.sms.domain.model.master.employee</title>
<g id="a_node4"><a xlink:href="./domain.html#com.example.sms.domain.model.master.employee" xlink:title="社員\nemployee">
<polygon fill="#eedd82" stroke="black" points="672.62,-151.75 603.38,-151.75 603.38,-113 672.62,-113 672.62,-151.75"/>
<text text-anchor="middle" x="638" y="-134.45" font-family="Times New Roman,serif" font-size="14.00">社員</text>
<text text-anchor="middle" x="638" y="-120.2" font-family="Times New Roman,serif" font-size="14.00">employee</text>
</a>
</g>
</g>
<!-- com.example.sms.domain.model.sales.sales&#45;&gt;com.example.sms.domain.model.master.employee -->
<g id="edge41" class="edge">
<title>com.example.sms.domain.model.sales.sales&#45;&gt;com.example.sms.domain.model.master.employee</title>
<path fill="none" stroke="black" d="M481.42,-374.37C484.14,-371.96 486.72,-369.41 489,-366.75 519.65,-330.95 516.47,-314.64 539,-273.25 555.22,-243.46 556.72,-234.4 576,-206.5 587.1,-190.44 601.05,-173.74 612.9,-160.37"/>
<polygon fill="black" stroke="black" points="615.24,-163 619.32,-153.22 610.03,-158.32 615.24,-163"/>
</g>
<!-- com.example.sms.domain.model.master.partner -->
<g id="node7" class="node">
<title>com.example.sms.domain.model.master.partner</title>
<g id="a_node7"><a xlink:href="./domain.html#com.example.sms.domain.model.master.partner" xlink:title="取引先\npartner">
<polygon fill="#eedd82" stroke="black" points="766.88,-245.25 699.12,-245.25 699.12,-206.5 766.88,-206.5 766.88,-245.25"/>
<text text-anchor="middle" x="733" y="-227.95" font-family="Times New Roman,serif" font-size="14.00">取引先</text>
<text text-anchor="middle" x="733" y="-213.7" font-family="Times New Roman,serif" font-size="14.00">partner</text>
</a>
</g>
</g>
<!-- com.example.sms.domain.model.sales.sales&#45;&gt;com.example.sms.domain.model.master.partner -->
<g id="edge33" class="edge">
<title>com.example.sms.domain.model.sales.sales&#45;&gt;com.example.sms.domain.model.master.partner</title>
<path fill="none" stroke="black" d="M481.25,-379.68C486.37,-377.68 491.77,-375.9 497,-374.75 512.36,-371.38 769.04,-378.03 780,-366.75 808.97,-336.95 796.03,-311.59 780,-273.25 776.97,-266 772.19,-259.31 766.82,-253.4"/>
<polygon fill="black" stroke="black" points="769.31,-250.93 759.74,-246.38 764.38,-255.91 769.31,-250.93"/>
</g>
<!-- com.example.sms.domain.model.master.department -->
<g id="node8" class="node">
<title>com.example.sms.domain.model.master.department</title>
<g id="a_node8"><a xlink:href="./domain.html#com.example.sms.domain.model.master.department" xlink:title="部門\ndepartment">
<polygon fill="#eedd82" stroke="black" points="680.75,-245.25 603.25,-245.25 603.25,-206.5 680.75,-206.5 680.75,-245.25"/>
<text text-anchor="middle" x="642" y="-227.95" font-family="Times New Roman,serif" font-size="14.00">部門</text>
<text text-anchor="middle" x="642" y="-213.7" font-family="Times New Roman,serif" font-size="14.00">department</text>
</a>
</g>
</g>
<!-- com.example.sms.domain.model.sales.sales&#45;&gt;com.example.sms.domain.model.master.department -->
<g id="edge4" class="edge">
<title>com.example.sms.domain.model.sales.sales&#45;&gt;com.example.sms.domain.model.master.department</title>
<path fill="none" stroke="black" d="M481.25,-379.69C486.38,-377.69 491.77,-375.91 497,-374.75 511.06,-371.65 745.98,-377.09 756,-366.75 784.93,-336.92 779.2,-307.73 756,-273.25 754.97,-271.72 721.83,-258.32 691.54,-246.32"/>
<polygon fill="black" stroke="black" points="693,-243.14 682.42,-242.71 690.43,-249.65 693,-243.14"/>
</g>
<!-- com.example.sms.domain.model.sales.order -->
<g id="node9" class="node">
<title>com.example.sms.domain.model.sales.order</title>
<g id="a_node9"><a xlink:href="./domain.html#com.example.sms.domain.model.sales.order" xlink:title="受注\norder">
<polygon fill="#eedd82" stroke="black" points="480,-320 426,-320 426,-281.25 480,-281.25 480,-320"/>
<text text-anchor="middle" x="453" y="-302.7" font-family="Times New Roman,serif" font-size="14.00">受注</text>
<text text-anchor="middle" x="453" y="-288.45" font-family="Times New Roman,serif" font-size="14.00">order</text>
</a>
</g>
</g>
<!-- com.example.sms.domain.model.sales.sales&#45;&gt;com.example.sms.domain.model.sales.order -->
<g id="edge14" class="edge">
<title>com.example.sms.domain.model.sales.sales&#45;&gt;com.example.sms.domain.model.sales.order</title>
<path fill="none" stroke="black" d="M453.8,-374.61C453.66,-362.29 453.48,-345.82 453.33,-331.65"/>
<polygon fill="black" stroke="black" points="456.83,-331.9 453.22,-321.94 449.83,-331.98 456.83,-331.9"/>
</g>
<!-- com.example.sms.domain.type.quantity -->
<g id="node12" class="node">
<title>com.example.sms.domain.type.quantity</title>
<g id="a_node12"><a xlink:href="./domain.html#com.example.sms.domain.type.quantity" xlink:title="数量\ntype.quantity">
<polygon fill="#eedd82" stroke="black" points="540.62,-151.75 453.38,-151.75 453.38,-113 540.62,-113 540.62,-151.75"/>
<text text-anchor="middle" x="497" y="-134.45" font-family="Times New Roman,serif" font-size="14.00">数量</text>
<text text-anchor="middle" x="497" y="-120.2" font-family="Times New Roman,serif" font-size="14.00">type.quantity</text>
</a>
</g>
</g>
<!-- com.example.sms.domain.model.sales.sales&#45;&gt;com.example.sms.domain.type.quantity -->
<g id="edge44" class="edge">
<title>com.example.sms.domain.model.sales.sales&#45;&gt;com.example.sms.domain.type.quantity</title>
<path fill="none" stroke="black" d="M426.76,-392.3C383.21,-390.45 300.49,-384.63 278,-366.75 219.8,-320.48 178.4,-260.03 230,-206.5 246.82,-189.05 426.51,-209.72 448,-198.5 463.19,-190.57 474.98,-175.56 483.18,-161.95"/>
<polygon fill="black" stroke="black" points="486.2,-163.72 488.01,-153.28 480.09,-160.31 486.2,-163.72"/>
</g>
<!-- com.example.sms.domain.model.master.product -->
<g id="node13" class="node">
<title>com.example.sms.domain.model.master.product</title>
<g id="a_node13"><a xlink:href="./domain.html#com.example.sms.domain.model.master.product" xlink:title="商品\nproduct">
<polygon fill="#eedd82" stroke="black" points="660.62,-320 603.38,-320 603.38,-281.25 660.62,-281.25 660.62,-320"/>
<text text-anchor="middle" x="632" y="-302.7" font-family="Times New Roman,serif" font-size="14.00">商品</text>
<text text-anchor="middle" x="632" y="-288.45" font-family="Times New Roman,serif" font-size="14.00">product</text>
</a>
</g>
</g>
<!-- com.example.sms.domain.model.sales.sales&#45;&gt;com.example.sms.domain.model.master.product -->
<g id="edge24" class="edge">
<title>com.example.sms.domain.model.sales.sales&#45;&gt;com.example.sms.domain.model.master.product</title>
<path fill="none" stroke="black" d="M481.32,-379.97C486.44,-377.94 491.81,-376.08 497,-374.75 532.91,-365.58 547.42,-384.4 580,-366.75 595.46,-358.37 607.96,-343.28 616.82,-329.73"/>
<polygon fill="black" stroke="black" points="619.6,-331.9 621.84,-321.54 613.63,-328.24 619.6,-331.9"/>
</g>
<!-- com.example.sms.domain.type.money -->
<g id="node14" class="node">
<title>com.example.sms.domain.type.money</title>
<g id="a_node14"><a xlink:href="./domain.html#com.example.sms.domain.type.money" xlink:title="通貨\ntype.money">
<polygon fill="#eedd82" stroke="black" points="319.25,-245.25 238.75,-245.25 238.75,-206.5 319.25,-206.5 319.25,-245.25"/>
<text text-anchor="middle" x="279" y="-227.95" font-family="Times New Roman,serif" font-size="14.00">通貨</text>
<text text-anchor="middle" x="279" y="-213.7" font-family="Times New Roman,serif" font-size="14.00">type.money</text>
</a>
</g>
</g>
<!-- com.example.sms.domain.model.sales.sales&#45;&gt;com.example.sms.domain.type.money -->
<g id="edge11" class="edge">
<title>com.example.sms.domain.model.sales.sales&#45;&gt;com.example.sms.domain.type.money</title>
<path fill="none" stroke="black" d="M426.77,-390.75C393.49,-387.32 339.77,-379.9 325,-366.75 293.51,-338.72 283.5,-288.75 280.37,-256.74"/>
<polygon fill="black" stroke="black" points="283.87,-256.64 279.59,-246.95 276.89,-257.19 283.87,-256.64"/>
</g>
<!-- com.example.sms.domain.model.system.user -->
<g id="node5" class="node">
<title>com.example.sms.domain.model.system.user</title>
<g id="a_node5"><a xlink:href="./domain.html#com.example.sms.domain.model.system.user" xlink:title="ユーザー\nuser">
<polygon fill="#eedd82" stroke="black" points="261.5,-77 176.5,-77 176.5,-38.25 261.5,-38.25 261.5,-77"/>
<text text-anchor="middle" x="219" y="-59.7" font-family="Times New Roman,serif" font-size="14.00">ユーザー</text>
<text text-anchor="middle" x="219" y="-45.45" font-family="Times New Roman,serif" font-size="14.00">user</text>
</a>
</g>
</g>
<!-- com.example.sms.domain.model.master.employee&#45;&gt;com.example.sms.domain.model.system.user -->
<g id="edge2" class="edge">
<title>com.example.sms.domain.model.master.employee&#45;&gt;com.example.sms.domain.model.system.user</title>
<path fill="none" stroke="black" d="M603.21,-119.62C587.16,-114.54 567.76,-108.88 550,-105 453.61,-83.93 339.23,-70.39 273.29,-63.67"/>
<polygon fill="black" stroke="black" points="273.76,-60.2 263.46,-62.69 273.06,-67.17 273.76,-60.2"/>
</g>
<!-- com.example.sms.domain.type.phone -->
<g id="node11" class="node">
<title>com.example.sms.domain.type.phone</title>
<g id="a_node11"><a xlink:href="./domain.html#com.example.sms.domain.type.phone" xlink:title="電話番号\ntype.phone">
<polygon fill="#eedd82" stroke="black" points="851.5,-77 766.5,-77 766.5,-38.25 851.5,-38.25 851.5,-77"/>
<text text-anchor="middle" x="809" y="-59.7" font-family="Times New Roman,serif" font-size="14.00">電話番号</text>
<text text-anchor="middle" x="809" y="-45.45" font-family="Times New Roman,serif" font-size="14.00">type.phone</text>
</a>
</g>
</g>
<!-- com.example.sms.domain.model.master.employee&#45;&gt;com.example.sms.domain.type.phone -->
<g id="edge8" class="edge">
<title>com.example.sms.domain.model.master.employee&#45;&gt;com.example.sms.domain.type.phone</title>
<path fill="none" stroke="black" d="M672.87,-115.59C680.79,-112.07 689.17,-108.37 697,-105 715.99,-96.83 736.89,-88.1 755.45,-80.44"/>
<polygon fill="black" stroke="black" points="756.75,-83.69 764.67,-76.65 754.09,-77.22 756.75,-83.69"/>
</g>
<!-- com.example.sms.domain.model.sales.shipping -->
<g id="node6" class="node">
<title>com.example.sms.domain.model.sales.shipping</title>
<g id="a_node6"><a xlink:href="./domain.html#com.example.sms.domain.model.sales.shipping" xlink:title="出荷\nshipping">
<polygon fill="#eedd82" stroke="black" points="568.25,-413.5 505.75,-413.5 505.75,-374.75 568.25,-374.75 568.25,-413.5"/>
<text text-anchor="middle" x="537" y="-396.2" font-family="Times New Roman,serif" font-size="14.00">出荷</text>
<text text-anchor="middle" x="537" y="-381.95" font-family="Times New Roman,serif" font-size="14.00">shipping</text>
</a>
</g>
</g>
<!-- com.example.sms.domain.model.sales.shipping&#45;&gt;com.example.sms.domain.model.master.employee -->
<g id="edge17" class="edge">
<title>com.example.sms.domain.model.sales.shipping&#45;&gt;com.example.sms.domain.model.master.employee</title>
<path fill="none" stroke="black" d="M541.13,-374.3C549,-340.01 567.74,-265.45 594,-206.5 600.87,-191.08 610.34,-174.9 618.74,-161.69"/>
<polygon fill="black" stroke="black" points="621.55,-163.79 624.06,-153.5 615.68,-159.97 621.55,-163.79"/>
</g>
<!-- com.example.sms.domain.model.sales.shipping&#45;&gt;com.example.sms.domain.model.master.partner -->
<g id="edge3" class="edge">
<title>com.example.sms.domain.model.sales.shipping&#45;&gt;com.example.sms.domain.model.master.partner</title>
<path fill="none" stroke="black" d="M568.52,-392.45C637.46,-390.64 796.81,-384.56 813,-366.75 840.95,-336 833.75,-309.26 813,-273.25 805.07,-259.48 791.31,-249.43 777.42,-242.27"/>
<polygon fill="black" stroke="black" points="779.27,-239.28 768.73,-238.21 776.3,-245.62 779.27,-239.28"/>
</g>
<!-- com.example.sms.domain.model.sales.shipping&#45;&gt;com.example.sms.domain.model.master.department -->
<g id="edge27" class="edge">
<title>com.example.sms.domain.model.sales.shipping&#45;&gt;com.example.sms.domain.model.master.department</title>
<path fill="none" stroke="black" d="M568.68,-392.13C633.09,-389.79 774.5,-382.85 789,-366.75 816.81,-335.87 814.07,-306.39 789,-273.25 763.41,-239.42 737.44,-256.66 692.14,-245.4"/>
<polygon fill="black" stroke="black" points="693.22,-242.07 682.64,-242.63 691.26,-248.79 693.22,-242.07"/>
</g>
<!-- com.example.sms.domain.model.sales.shipping&#45;&gt;com.example.sms.domain.model.sales.order -->
<g id="edge19" class="edge">
<title>com.example.sms.domain.model.sales.shipping&#45;&gt;com.example.sms.domain.model.sales.order</title>
<path fill="none" stroke="black" d="M520,-374.61C507.9,-361.43 491.44,-343.5 477.87,-328.71"/>
<polygon fill="black" stroke="black" points="480.63,-326.54 471.29,-321.54 475.47,-331.28 480.63,-326.54"/>
</g>
<!-- com.example.sms.domain.model.sales.shipping&#45;&gt;com.example.sms.domain.type.quantity -->
<g id="edge9" class="edge">
<title>com.example.sms.domain.model.sales.shipping&#45;&gt;com.example.sms.domain.type.quantity</title>
<path fill="none" stroke="black" d="M505.26,-379.42C500.22,-377.62 495.02,-375.98 490,-374.75 474.15,-370.86 427.89,-378.9 417,-366.75 369.01,-313.22 399.53,-266.58 439,-206.5 441.94,-202.03 444.37,-202.44 448,-198.5 458.67,-186.92 469.32,-173.11 477.95,-161.19"/>
<polygon fill="black" stroke="black" points="480.59,-163.52 483.53,-153.35 474.88,-159.47 480.59,-163.52"/>
</g>
<!-- com.example.sms.domain.model.sales.shipping&#45;&gt;com.example.sms.domain.model.master.product -->
<g id="edge30" class="edge">
<title>com.example.sms.domain.model.sales.shipping&#45;&gt;com.example.sms.domain.model.master.product</title>
<path fill="none" stroke="black" d="M568.45,-375.62C572.49,-372.86 576.46,-369.88 580,-366.75 592.23,-355.94 603.79,-342.01 612.88,-329.81"/>
<polygon fill="black" stroke="black" points="615.71,-331.87 618.73,-321.71 610.03,-327.77 615.71,-331.87"/>
</g>
<!-- com.example.sms.domain.model.sales.shipping&#45;&gt;com.example.sms.domain.type.money -->
<g id="edge40" class="edge">
<title>com.example.sms.domain.model.sales.shipping&#45;&gt;com.example.sms.domain.type.money</title>
<path fill="none" stroke="black" d="M505.3,-379.23C500.26,-377.46 495.04,-375.88 490,-374.75 464.13,-368.97 393.44,-380.85 371,-366.75 330.56,-341.33 345.26,-312.47 318,-273.25 313.56,-266.87 308.44,-260.3 303.39,-254.2"/>
<polygon fill="black" stroke="black" points="306.26,-252.17 297.12,-246.8 300.92,-256.69 306.26,-252.17"/>
</g>
<!-- com.example.sms.domain.model.master.partner&#45;&gt;com.example.sms.domain.type.phone -->
<g id="edge32" class="edge">
<title>com.example.sms.domain.model.master.partner&#45;&gt;com.example.sms.domain.type.phone</title>
<path fill="none" stroke="black" d="M767.33,-223.4C828.07,-220.43 949.28,-212.76 962,-198.5 989.65,-167.48 986.76,-138.37 962,-105 939.42,-74.56 897.39,-63.4 863.09,-59.61"/>
<polygon fill="black" stroke="black" points="863.57,-56.14 853.3,-58.73 862.94,-63.11 863.57,-56.14"/>
</g>
<!-- com.example.sms.domain.model.master.partner&#45;&gt;com.example.sms.domain.type.money -->
<g id="edge31" class="edge">
<title>com.example.sms.domain.model.master.partner&#45;&gt;com.example.sms.domain.type.money</title>
<path fill="none" stroke="black" d="M708.51,-245.65C700.26,-251.16 690.68,-256.41 681,-259.25 646.46,-269.38 635.95,-261.11 600,-259.25 504.79,-254.31 394.33,-241.19 330.96,-232.95"/>
<polygon fill="black" stroke="black" points="331.56,-229.5 321.19,-231.67 330.65,-236.44 331.56,-229.5"/>
</g>
<!-- com.example.sms.domain.model.master.region -->
<g id="node15" class="node">
<title>com.example.sms.domain.model.master.region</title>
<g id="a_node15"><a xlink:href="./domain.html#com.example.sms.domain.model.master.region" xlink:title="地域\nregion">
<polygon fill="#eedd82" stroke="black" points="760,-151.75 706,-151.75 706,-113 760,-113 760,-151.75"/>
<text text-anchor="middle" x="733" y="-134.45" font-family="Times New Roman,serif" font-size="14.00">地域</text>
<text text-anchor="middle" x="733" y="-120.2" font-family="Times New Roman,serif" font-size="14.00">region</text>
</a>
</g>
</g>
<!-- com.example.sms.domain.model.master.partner&#45;&gt;com.example.sms.domain.model.master.region -->
<g id="edge12" class="edge">
<title>com.example.sms.domain.model.master.partner&#45;&gt;com.example.sms.domain.model.master.region</title>
<path fill="none" stroke="black" d="M733,-206.36C733,-194.04 733,-177.57 733,-163.4"/>
<polygon fill="black" stroke="black" points="736.5,-163.69 733,-153.69 729.5,-163.69 736.5,-163.69"/>
</g>
<!-- com.example.sms.domain.type.mail -->
<g id="node17" class="node">
<title>com.example.sms.domain.type.mail</title>
<g id="a_node17"><a xlink:href="./domain.html#com.example.sms.domain.type.mail" xlink:title="メール\ntype.mail">
<polygon fill="#eedd82" stroke="black" points="850.88,-151.75 783.12,-151.75 783.12,-113 850.88,-113 850.88,-151.75"/>
<text text-anchor="middle" x="817" y="-134.45" font-family="Times New Roman,serif" font-size="14.00">メール</text>
<text text-anchor="middle" x="817" y="-120.2" font-family="Times New Roman,serif" font-size="14.00">type.mail</text>
</a>
</g>
</g>
<!-- com.example.sms.domain.model.master.partner&#45;&gt;com.example.sms.domain.type.mail -->
<g id="edge16" class="edge">
<title>com.example.sms.domain.model.master.partner&#45;&gt;com.example.sms.domain.type.mail</title>
<path fill="none" stroke="black" d="M767.13,-208.07C771.38,-205.2 775.47,-202 779,-198.5 789.35,-188.23 797.88,-174.57 804.23,-162.41"/>
<polygon fill="black" stroke="black" points="807.29,-164.12 808.56,-153.6 801.01,-161.03 807.29,-164.12"/>
</g>
<!-- com.example.sms.domain.type.address -->
<g id="node20" class="node">
<title>com.example.sms.domain.type.address</title>
<g id="a_node20"><a xlink:href="./domain.html#com.example.sms.domain.type.address" xlink:title="住所\ntype.address">
<polygon fill="#eedd82" stroke="black" points="952.75,-151.75 869.25,-151.75 869.25,-113 952.75,-113 952.75,-151.75"/>
<text text-anchor="middle" x="911" y="-134.45" font-family="Times New Roman,serif" font-size="14.00">住所</text>
<text text-anchor="middle" x="911" y="-120.2" font-family="Times New Roman,serif" font-size="14.00">type.address</text>
</a>
</g>
</g>
<!-- com.example.sms.domain.model.master.partner&#45;&gt;com.example.sms.domain.type.address -->
<g id="edge29" class="edge">
<title>com.example.sms.domain.model.master.partner&#45;&gt;com.example.sms.domain.type.address</title>
<path fill="none" stroke="black" d="M767.17,-224.1C794.18,-222.07 831.88,-215.96 860,-198.5 874.49,-189.51 886.51,-174.85 895.23,-161.71"/>
<polygon fill="black" stroke="black" points="898.11,-163.7 900.44,-153.36 892.18,-159.99 898.11,-163.7"/>
</g>
<!-- com.example.sms.domain.model.master.department&#45;&gt;com.example.sms.domain.model.master.employee -->
<g id="edge45" class="edge">
<title>com.example.sms.domain.model.master.department&#45;&gt;com.example.sms.domain.model.master.employee</title>
<path fill="none" stroke="red" stroke-width="2" d="M640.7,-195.18C640.26,-185.02 639.76,-173.65 639.31,-163.46"/>
<polygon fill="red" stroke="red" stroke-width="2" points="637.12,-193.5 641.06,-203.33 644.12,-193.19 637.12,-193.5"/>
<polygon fill="red" stroke="red" stroke-width="2" points="642.89,-165.04 638.95,-155.2 635.89,-165.35 642.89,-165.04"/>
</g>
<!-- com.example.sms.domain.model.sales.order&#45;&gt;com.example.sms.domain.model.system.autonumber -->
<g id="edge26" class="edge">
<title>com.example.sms.domain.model.sales.order&#45;&gt;com.example.sms.domain.model.system.autonumber</title>
<path fill="none" stroke="black" d="M435.64,-281.12C413.24,-258.68 371.9,-221.96 328,-206.5 305.24,-198.49 132.54,-209.36 111,-198.5 95.2,-190.53 82.63,-175.31 73.8,-161.59"/>
<polygon fill="black" stroke="black" points="76.97,-160.06 68.83,-153.28 70.96,-163.66 76.97,-160.06"/>
</g>
<!-- com.example.sms.domain.model.sales.order&#45;&gt;com.example.sms.domain.model.master.employee -->
<g id="edge6" class="edge">
<title>com.example.sms.domain.model.sales.order&#45;&gt;com.example.sms.domain.model.master.employee</title>
<path fill="none" stroke="black" d="M453.8,-280.97C455.8,-259.45 462.56,-224.69 485,-206.5 507.61,-188.17 522.97,-209.29 550,-198.5 572.34,-189.58 594.1,-173.56 610.39,-159.65"/>
<polygon fill="black" stroke="black" points="612.53,-162.43 617.72,-153.19 607.9,-157.18 612.53,-162.43"/>
</g>
<!-- com.example.sms.domain.model.sales.order&#45;&gt;com.example.sms.domain.model.master.partner -->
<g id="edge5" class="edge">
<title>com.example.sms.domain.model.sales.order&#45;&gt;com.example.sms.domain.model.master.partner</title>
<path fill="none" stroke="black" d="M480.44,-294.98C523.12,-287.39 608.03,-270.92 688.18,-245.55"/>
<polygon fill="black" stroke="black" points="689.06,-248.94 697.5,-242.54 686.91,-242.28 689.06,-248.94"/>
</g>
<!-- com.example.sms.domain.model.sales.order&#45;&gt;com.example.sms.domain.model.master.department -->
<g id="edge20" class="edge">
<title>com.example.sms.domain.model.sales.order&#45;&gt;com.example.sms.domain.model.master.department</title>
<path fill="none" stroke="black" d="M480.48,-289.05C509.71,-277.8 556.56,-259.76 592.29,-246.01"/>
<polygon fill="black" stroke="black" points="593.5,-249.29 601.58,-242.43 590.99,-242.76 593.5,-249.29"/>
</g>
<!-- com.example.sms.domain.model.sales.order&#45;&gt;com.example.sms.domain.type.quantity -->
<g id="edge22" class="edge">
<title>com.example.sms.domain.model.sales.order&#45;&gt;com.example.sms.domain.type.quantity</title>
<path fill="none" stroke="black" d="M447.95,-280.97C443.65,-261.83 439.29,-231.42 447,-206.5 452.12,-189.95 462.41,-173.8 472.34,-160.91"/>
<polygon fill="black" stroke="black" points="474.91,-163.3 478.47,-153.32 469.47,-158.9 474.91,-163.3"/>
</g>
<!-- com.example.sms.domain.model.sales.order&#45;&gt;com.example.sms.domain.model.master.product -->
<g id="edge37" class="edge">
<title>com.example.sms.domain.model.sales.order&#45;&gt;com.example.sms.domain.model.master.product</title>
<path fill="none" stroke="black" d="M480.27,-300.62C517.33,-300.62 554.39,-300.62 591.46,-300.62"/>
<polygon fill="black" stroke="black" points="591.44,-304.13 601.44,-300.63 591.44,-297.13 591.44,-304.13"/>
</g>
<!-- com.example.sms.domain.model.sales.order&#45;&gt;com.example.sms.domain.type.money -->
<g id="edge25" class="edge">
<title>com.example.sms.domain.model.sales.order&#45;&gt;com.example.sms.domain.type.money</title>
<path fill="none" stroke="black" d="M425.81,-288.26C400.22,-277.56 361.25,-261.26 329.89,-248.15"/>
<polygon fill="black" stroke="black" points="331.55,-245.05 320.97,-244.42 328.85,-251.51 331.55,-245.05"/>
</g>
<!-- com.example.sms.domain.model.sales.payment -->
<g id="node10" class="node">
<title>com.example.sms.domain.model.sales.payment</title>
<g id="a_node10"><a xlink:href="./domain.html#com.example.sms.domain.model.sales.payment" xlink:title="入出金\npayment">
<polygon fill="#eedd82" stroke="black" points="567.88,-497.62 500.12,-497.62 500.12,-458.88 567.88,-458.88 567.88,-497.62"/>
<text text-anchor="middle" x="534" y="-480.32" font-family="Times New Roman,serif" font-size="14.00">入出金</text>
<text text-anchor="middle" x="534" y="-466.07" font-family="Times New Roman,serif" font-size="14.00">payment</text>
</a>
</g>
</g>
<!-- com.example.sms.domain.model.sales.payment&#45;&gt;com.example.sms.domain.model.master.partner -->
<g id="edge7" class="edge">
<title>com.example.sms.domain.model.sales.payment&#45;&gt;com.example.sms.domain.model.master.partner</title>
<path fill="none" stroke="black" d="M568.36,-474.11C663.76,-464.6 928.24,-432.65 979,-366.75 1004.36,-333.83 1005.52,-305.24 979,-273.25 954,-243.09 842.21,-232.41 778.27,-228.73"/>
<polygon fill="black" stroke="black" points="778.61,-225.24 768.43,-228.2 778.23,-232.23 778.61,-225.24"/>
</g>
<!-- com.example.sms.domain.model.sales.payment&#45;&gt;com.example.sms.domain.model.master.department -->
<g id="edge15" class="edge">
<title>com.example.sms.domain.model.sales.payment&#45;&gt;com.example.sms.domain.model.master.department</title>
<path fill="none" stroke="black" d="M568.01,-475.41C629.29,-470.06 757.07,-449.05 813,-366.75 836.36,-332.38 838.92,-305.73 813,-273.25 780.15,-232.08 747.81,-257.93 692.19,-245.32"/>
<polygon fill="black" stroke="black" points="693.16,-241.96 682.6,-242.77 691.36,-248.72 693.16,-241.96"/>
</g>
<!-- com.example.sms.domain.model.sales.payment&#45;&gt;com.example.sms.domain.type.money -->
<g id="edge21" class="edge">
<title>com.example.sms.domain.model.sales.payment&#45;&gt;com.example.sms.domain.type.money</title>
<path fill="none" stroke="black" d="M506.73,-458.49C501.61,-455.3 496.22,-452.17 491,-449.5 400.54,-403.34 335.36,-450.56 278,-366.75 255.75,-334.23 262.11,-286.74 269.75,-256.32"/>
<polygon fill="black" stroke="black" points="273.03,-257.59 272.28,-247.02 266.27,-255.75 273.03,-257.59"/>
</g>
<!-- com.example.sms.domain.model.master.payment -->
<g id="node19" class="node">
<title>com.example.sms.domain.model.master.payment</title>
<g id="a_node19"><a xlink:href="./domain.html#com.example.sms.domain.model.master.payment" xlink:title="入出金\npayment">
<polygon fill="#eedd82" stroke="black" points="746.88,-320 679.12,-320 679.12,-281.25 746.88,-281.25 746.88,-320"/>
<text text-anchor="middle" x="713" y="-302.7" font-family="Times New Roman,serif" font-size="14.00">入出金</text>
<text text-anchor="middle" x="713" y="-288.45" font-family="Times New Roman,serif" font-size="14.00">payment</text>
</a>
</g>
</g>
<!-- com.example.sms.domain.model.sales.payment&#45;&gt;com.example.sms.domain.model.master.payment -->
<g id="edge35" class="edge">
<title>com.example.sms.domain.model.sales.payment&#45;&gt;com.example.sms.domain.model.master.payment</title>
<path fill="none" stroke="black" d="M561.89,-458.46C590.96,-438.04 636.81,-403.39 670,-366.75 680.09,-355.61 689.51,-341.9 696.95,-329.93"/>
<polygon fill="black" stroke="black" points="699.75,-332.05 701.92,-321.68 693.76,-328.44 699.75,-332.05"/>
</g>
<!-- com.example.sms.domain.model.master.product&#45;&gt;com.example.sms.domain.model.master.partner -->
<g id="edge18" class="edge">
<title>com.example.sms.domain.model.master.product&#45;&gt;com.example.sms.domain.model.master.partner</title>
<path fill="none" stroke="black" d="M658.01,-280.89C670.14,-272.15 684.77,-261.62 697.87,-252.18"/>
<polygon fill="black" stroke="black" points="699.78,-255.12 705.85,-246.43 695.69,-249.44 699.78,-255.12"/>
</g>
<!-- com.example.sms.domain.model.master.product&#45;&gt;com.example.sms.domain.type.quantity -->
<g id="edge10" class="edge">
<title>com.example.sms.domain.model.master.product&#45;&gt;com.example.sms.domain.type.quantity</title>
<path fill="none" stroke="black" d="M616.78,-280.88C593.01,-251.61 546.98,-194.92 519.42,-160.98"/>
<polygon fill="black" stroke="black" points="522.14,-158.79 513.12,-153.23 516.71,-163.2 522.14,-158.79"/>
</g>
<!-- com.example.sms.domain.model.master.product&#45;&gt;com.example.sms.domain.type.money -->
<g id="edge38" class="edge">
<title>com.example.sms.domain.model.master.product&#45;&gt;com.example.sms.domain.type.money</title>
<path fill="none" stroke="black" d="M602.99,-282.88C595.68,-279.23 587.71,-275.73 580,-273.25 495.12,-245.95 391.46,-234.5 330.59,-229.85"/>
<polygon fill="black" stroke="black" points="331.1,-226.38 320.88,-229.15 330.6,-233.36 331.1,-226.38"/>
</g>
<!-- com.example.sms.domain.type.money&#45;&gt;com.example.sms.domain.type.quantity -->
<g id="edge39" class="edge">
<title>com.example.sms.domain.type.money&#45;&gt;com.example.sms.domain.type.quantity</title>
<path fill="none" stroke="black" d="M319.62,-215.91C335.58,-212.61 354.09,-209.06 371,-206.5 388.01,-203.92 433.03,-206.97 448,-198.5 462.82,-190.12 474.53,-175.23 482.79,-161.8"/>
<polygon fill="black" stroke="black" points="485.74,-163.68 487.67,-153.26 479.67,-160.21 485.74,-163.68"/>
</g>
<!-- com.example.sms.domain.model.system.audit -->
<g id="node16" class="node">
<title>com.example.sms.domain.model.system.audit</title>
<g id="a_node16"><a xlink:href="./domain.html#com.example.sms.domain.model.system.audit" xlink:title="監査\naudit">
<polygon fill="#eedd82" stroke="black" points="174,-151.75 120,-151.75 120,-113 174,-113 174,-151.75"/>
<text text-anchor="middle" x="147" y="-134.45" font-family="Times New Roman,serif" font-size="14.00">監査</text>
<text text-anchor="middle" x="147" y="-120.2" font-family="Times New Roman,serif" font-size="14.00">audit</text>
</a>
</g>
</g>
<!-- com.example.sms.domain.model.system.audit&#45;&gt;com.example.sms.domain.model.system.user -->
<g id="edge13" class="edge">
<title>com.example.sms.domain.model.system.audit&#45;&gt;com.example.sms.domain.model.system.user</title>
<path fill="none" stroke="black" d="M165.54,-112.64C173.77,-104.32 183.61,-94.38 192.59,-85.31"/>
<polygon fill="black" stroke="black" points="194.91,-87.94 199.46,-78.37 189.93,-83.02 194.91,-87.94"/>
</g>
<!-- com.example.sms.domain.model.sales.invoice -->
<g id="node18" class="node">
<title>com.example.sms.domain.model.sales.invoice</title>
<g id="a_node18"><a xlink:href="./domain.html#com.example.sms.domain.model.sales.invoice" xlink:title="請求\ninvoice">
<polygon fill="#eedd82" stroke="black" points="481.88,-497.62 426.12,-497.62 426.12,-458.88 481.88,-458.88 481.88,-497.62"/>
<text text-anchor="middle" x="454" y="-480.32" font-family="Times New Roman,serif" font-size="14.00">請求</text>
<text text-anchor="middle" x="454" y="-466.07" font-family="Times New Roman,serif" font-size="14.00">invoice</text>
</a>
</g>
</g>
<!-- com.example.sms.domain.model.sales.invoice&#45;&gt;com.example.sms.domain.model.sales.sales -->
<g id="edge42" class="edge">
<title>com.example.sms.domain.model.sales.invoice&#45;&gt;com.example.sms.domain.model.sales.sales</title>
<path fill="none" stroke="black" d="M454,-458.61C454,-448.81 454,-436.55 454,-425.43"/>
<polygon fill="black" stroke="black" points="457.5,-425.48 454,-415.48 450.5,-425.48 457.5,-425.48"/>
</g>
<!-- com.example.sms.domain.model.sales.invoice&#45;&gt;com.example.sms.domain.model.system.autonumber -->
<g id="edge34" class="edge">
<title>com.example.sms.domain.model.sales.invoice&#45;&gt;com.example.sms.domain.model.system.autonumber</title>
<path fill="none" stroke="black" d="M432.86,-458.43C427.95,-454.93 422.52,-451.69 417,-449.5 349.65,-422.83 144.66,-464.29 93,-413.5 25.33,-346.97 40.6,-220.72 52.04,-163.23"/>
<polygon fill="black" stroke="black" points="55.45,-164.04 54.08,-153.54 48.6,-162.6 55.45,-164.04"/>
</g>
<!-- com.example.sms.domain.model.sales.invoice&#45;&gt;com.example.sms.domain.model.master.partner -->
<g id="edge23" class="edge">
<title>com.example.sms.domain.model.sales.invoice&#45;&gt;com.example.sms.domain.model.master.partner</title>
<path fill="none" stroke="black" d="M476.16,-458.38C480.84,-455.05 485.91,-451.89 491,-449.5 633.7,-382.41 738.37,-490.57 836,-366.75 861.73,-334.12 858.56,-308.15 836,-273.25 823.17,-253.41 799.6,-241.97 778.24,-235.42"/>
<polygon fill="black" stroke="black" points="779.37,-232.1 768.8,-232.82 777.52,-238.85 779.37,-232.1"/>
</g>
<!-- com.example.sms.domain.model.sales.invoice&#45;&gt;com.example.sms.domain.type.money -->
<g id="edge36" class="edge">
<title>com.example.sms.domain.model.sales.invoice&#45;&gt;com.example.sms.domain.type.money</title>
<path fill="none" stroke="black" d="M432.85,-458.48C427.93,-454.97 422.51,-451.72 417,-449.5 355.52,-424.78 164.94,-463.1 121,-413.5 79.67,-366.84 83.64,-323.15 121,-273.25 133.88,-256.04 186.14,-243.05 227.07,-235.26"/>
<polygon fill="black" stroke="black" points="227.58,-238.72 236.79,-233.47 226.32,-231.84 227.58,-238.72"/>
</g>
<!-- com.example.sms.domain.model.master.payment&#45;&gt;com.example.sms.domain.model.master.department -->
<g id="edge28" class="edge">
<title>com.example.sms.domain.model.master.payment&#45;&gt;com.example.sms.domain.model.master.department</title>
<path fill="none" stroke="black" d="M694.72,-280.89C686.6,-272.57 676.9,-262.63 668.05,-253.56"/>
<polygon fill="black" stroke="black" points="670.77,-251.34 661.28,-246.63 665.76,-256.23 670.77,-251.34"/>
</g>
<!-- com.example.sms.domain.model.system.auth -->
<g id="node21" class="node">
<title>com.example.sms.domain.model.system.auth</title>
<g id="a_node21"><a xlink:href="./domain.html#com.example.sms.domain.model.system.auth" xlink:title="認証\nauth">
<polygon fill="#eedd82" stroke="black" points="246,-151.75 192,-151.75 192,-113 246,-113 246,-151.75"/>
<text text-anchor="middle" x="219" y="-134.45" font-family="Times New Roman,serif" font-size="14.00">認証</text>
<text text-anchor="middle" x="219" y="-120.2" font-family="Times New Roman,serif" font-size="14.00">auth</text>
</a>
</g>
</g>
<!-- com.example.sms.domain.model.system.auth&#45;&gt;com.example.sms.domain.model.system.user -->
<g id="edge43" class="edge">
<title>com.example.sms.domain.model.system.auth&#45;&gt;com.example.sms.domain.model.system.user</title>
<path fill="none" stroke="black" d="M219,-112.64C219,-105.34 219,-96.79 219,-88.68"/>
<polygon fill="black" stroke="black" points="222.5,-88.81 219,-78.81 215.5,-88.81 222.5,-88.81"/>
</g>
<!-- com.example.sms.domain.model.system.download -->
<g id="node22" class="node">
<title>com.example.sms.domain.model.system.download</title>
<g id="a_node22"><a xlink:href="./domain.html#com.example.sms.domain.model.system.download" xlink:title="データダウンロード\ndownload">
<polygon fill="#eedd82" stroke="black" points="435.62,-151.75 264.38,-151.75 264.38,-113 435.62,-113 435.62,-151.75"/>
<text text-anchor="middle" x="350" y="-134.45" font-family="Times New Roman,serif" font-size="14.00">データダウンロード</text>
<text text-anchor="middle" x="350" y="-120.2" font-family="Times New Roman,serif" font-size="14.00">download</text>
</a>
</g>
</g>
</g>
</svg>
