<?xml version="1.0" encoding="UTF-8" standalone="no"?>
<!DOCTYPE svg PUBLIC "-//W3C//DTD SVG 1.1//EN"
 "http://www.w3.org/Graphics/SVG/1.1/DTD/svg11.dtd">
<!-- Generated by graphviz version 12.2.0 (20241103.1931)
 -->
<!-- Title: アーキテクチャ図 Pages: 1 -->
<svg width="1438pt" height="354pt"
 viewBox="0.00 0.00 1438.25 354.25" xmlns="http://www.w3.org/2000/svg" xmlns:xlink="http://www.w3.org/1999/xlink">
<g id="graph0" class="graph" transform="scale(1 1) rotate(0) translate(4 350.25)">
<title>アーキテクチャ図</title>
<polygon fill="white" stroke="none" points="-4,4 -4,-350.25 1434.25,-350.25 1434.25,4 -4,4"/>
<text text-anchor="middle" x="715.12" y="-4.95" font-family="Times New Roman,serif" font-size="14.00">アーキテクチャ図</text>
<g id="clust1" class="cluster">
<title>clusterArchitecture</title>
<polygon fill="lightyellow" stroke="#eedd82" points="497.62,-86.25 497.62,-282.25 988.62,-282.25 988.62,-86.25 497.62,-86.25"/>
</g>
<!-- com.example.sms.domain -->
<g id="node1" class="node">
<title>com.example.sms.domain</title>
<polygon fill="#eedd82" stroke="black" points="727.25,-130.25 610,-130.25 610,-126.25 606,-126.25 606,-122.25 610,-122.25 610,-102.25 606,-102.25 606,-98.25 610,-98.25 610,-94.25 727.25,-94.25 727.25,-130.25"/>
<polyline fill="none" stroke="black" points="610,-126.25 614,-126.25 614,-122.25 610,-122.25"/>
<polyline fill="none" stroke="black" points="610,-102.25 614,-102.25 614,-98.25 610,-98.25"/>
<text text-anchor="middle" x="668.62" y="-101.88" font-family="Times New Roman,serif" font-size="20.00">ドメイン層</text>
</g>
<!-- org.springframework -->
<g id="node5" class="node">
<title>org.springframework</title>
<polygon fill="lightgrey" stroke="black" points="1168.38,-58.25 1036.88,-58.25 1036.88,-54.25 1032.88,-54.25 1032.88,-50.25 1036.88,-50.25 1036.88,-30.25 1032.88,-30.25 1032.88,-26.25 1036.88,-26.25 1036.88,-22.25 1168.38,-22.25 1168.38,-58.25"/>
<polyline fill="none" stroke="black" points="1036.88,-54.25 1040.88,-54.25 1040.88,-50.25 1036.88,-50.25"/>
<polyline fill="none" stroke="black" points="1036.88,-30.25 1040.88,-30.25 1040.88,-26.25 1036.88,-26.25"/>
<text text-anchor="middle" x="1102.62" y="-35.2" font-family="Times New Roman,serif" font-size="14.00">org.springframework</text>
</g>
<!-- com.example.sms.domain&#45;&gt;org.springframework -->
<g id="edge29" class="edge">
<title>com.example.sms.domain&#45;&gt;org.springframework</title>
<path fill="none" stroke="black" d="M719,-93.95C719,-81.49 719,-67.25 719,-67.25 719,-67.25 1049.5,-67.25 1049.5,-67.25 1049.5,-67.25 1049.5,-66.4 1049.5,-66.4"/>
<polygon fill="black" stroke="black" points="1053,-70.22 1049.5,-60.22 1046,-70.22 1053,-70.22"/>
</g>
<!-- org.apache -->
<g id="node6" class="node">
<title>org.apache</title>
<polygon fill="lightgrey" stroke="black" points="820.25,-58.25 745,-58.25 745,-54.25 741,-54.25 741,-50.25 745,-50.25 745,-30.25 741,-30.25 741,-26.25 745,-26.25 745,-22.25 820.25,-22.25 820.25,-58.25"/>
<polyline fill="none" stroke="black" points="745,-54.25 749,-54.25 749,-50.25 745,-50.25"/>
<polyline fill="none" stroke="black" points="745,-30.25 749,-30.25 749,-26.25 745,-26.25"/>
<text text-anchor="middle" x="782.62" y="-35.2" font-family="Times New Roman,serif" font-size="14.00">org.apache</text>
</g>
<!-- com.example.sms.domain&#45;&gt;org.apache -->
<g id="edge26" class="edge">
<title>com.example.sms.domain&#45;&gt;org.apache</title>
<path fill="none" stroke="black" d="M723.12,-93.77C723.12,-70.7 723.12,-34.25 723.12,-34.25 723.12,-34.25 723.12,-22.74 723.12,-22.74"/>
<polygon fill="black" stroke="black" points="732.8,-31.9 743.27,-33.53 736.11,-25.73 732.8,-31.9"/>
</g>
<!-- org.thymeleaf -->
<g id="node9" class="node">
<title>org.thymeleaf</title>
<polygon fill="lightgrey" stroke="black" points="714.88,-58.25 622.38,-58.25 622.38,-54.25 618.38,-54.25 618.38,-50.25 622.38,-50.25 622.38,-30.25 618.38,-30.25 618.38,-26.25 622.38,-26.25 622.38,-22.25 714.88,-22.25 714.88,-58.25"/>
<polyline fill="none" stroke="black" points="622.38,-54.25 626.38,-54.25 626.38,-50.25 622.38,-50.25"/>
<polyline fill="none" stroke="black" points="622.38,-30.25 626.38,-30.25 626.38,-26.25 622.38,-26.25"/>
<text text-anchor="middle" x="668.62" y="-35.2" font-family="Times New Roman,serif" font-size="14.00">org.thymeleaf</text>
</g>
<!-- com.example.sms.domain&#45;&gt;org.thymeleaf -->
<g id="edge5" class="edge">
<title>com.example.sms.domain&#45;&gt;org.thymeleaf</title>
<path fill="none" stroke="black" d="M668.62,-94.08C668.62,-94.08 668.62,-70.18 668.62,-70.18"/>
<polygon fill="black" stroke="black" points="672.13,-70.18 668.63,-60.18 665.13,-70.18 672.13,-70.18"/>
</g>
<!-- lombok -->
<g id="node11" class="node">
<title>lombok</title>
<polygon fill="lightgrey" stroke="black" points="425.62,-58.25 367.62,-58.25 367.62,-54.25 363.62,-54.25 363.62,-50.25 367.62,-50.25 367.62,-30.25 363.62,-30.25 363.62,-26.25 367.62,-26.25 367.62,-22.25 425.62,-22.25 425.62,-58.25"/>
<polyline fill="none" stroke="black" points="367.62,-54.25 371.62,-54.25 371.62,-50.25 367.62,-50.25"/>
<polyline fill="none" stroke="black" points="367.62,-30.25 371.62,-30.25 371.62,-26.25 367.62,-26.25"/>
<text text-anchor="middle" x="396.62" y="-35.2" font-family="Times New Roman,serif" font-size="14.00">lombok</text>
</g>
<!-- com.example.sms.domain&#45;&gt;lombok -->
<g id="edge35" class="edge">
<title>com.example.sms.domain&#45;&gt;lombok</title>
<path fill="none" stroke="black" d="M616.19,-93.87C616.19,-69.97 616.19,-31.25 616.19,-31.25 616.19,-31.25 437.29,-31.25 437.29,-31.25"/>
<polygon fill="black" stroke="black" points="437.29,-27.75 427.29,-31.25 437.29,-34.75 437.29,-27.75"/>
</g>
<!-- com.example.sms.infrastructure -->
<g id="node2" class="node">
<title>com.example.sms.infrastructure</title>
<polygon fill="#eedd82" stroke="black" points="744,-274.25 505.25,-274.25 505.25,-270.25 501.25,-270.25 501.25,-266.25 505.25,-266.25 505.25,-246.25 501.25,-246.25 501.25,-242.25 505.25,-242.25 505.25,-238.25 744,-238.25 744,-274.25"/>
<polyline fill="none" stroke="black" points="505.25,-270.25 509.25,-270.25 509.25,-266.25 505.25,-266.25"/>
<polyline fill="none" stroke="black" points="505.25,-246.25 509.25,-246.25 509.25,-242.25 505.25,-242.25"/>
<text text-anchor="middle" x="624.62" y="-245.88" font-family="Times New Roman,serif" font-size="20.00">インフラストラクチャ層</text>
</g>
<!-- com.example.sms.infrastructure&#45;&gt;com.example.sms.domain -->
<g id="edge28" class="edge">
<title>com.example.sms.infrastructure&#45;&gt;com.example.sms.domain</title>
<path fill="none" stroke="black" d="M697.75,-238.01C697.75,-238.01 697.75,-141.85 697.75,-141.85"/>
<polygon fill="black" stroke="black" points="701.25,-141.85 697.75,-131.85 694.25,-141.85 701.25,-141.85"/>
</g>
<!-- com.example.sms.service -->
<g id="node4" class="node">
<title>com.example.sms.service</title>
<polygon fill="#eedd82" stroke="black" points="668.25,-202.25 551,-202.25 551,-198.25 547,-198.25 547,-194.25 551,-194.25 551,-174.25 547,-174.25 547,-170.25 551,-170.25 551,-166.25 668.25,-166.25 668.25,-202.25"/>
<polyline fill="none" stroke="black" points="551,-198.25 555,-198.25 555,-194.25 551,-194.25"/>
<polyline fill="none" stroke="black" points="551,-174.25 555,-174.25 555,-170.25 551,-170.25"/>
<text text-anchor="middle" x="609.62" y="-173.88" font-family="Times New Roman,serif" font-size="20.00">サービス層</text>
</g>
<!-- com.example.sms.infrastructure&#45;&gt;com.example.sms.service -->
<g id="edge18" class="edge">
<title>com.example.sms.infrastructure&#45;&gt;com.example.sms.service</title>
<path fill="none" stroke="black" d="M629.17,-238.08C629.17,-238.08 629.17,-214.18 629.17,-214.18"/>
<polygon fill="black" stroke="black" points="632.67,-214.18 629.17,-204.18 625.67,-214.18 632.67,-214.18"/>
</g>
<!-- com.example.sms.infrastructure&#45;&gt;org.springframework -->
<g id="edge1" class="edge">
<title>com.example.sms.infrastructure&#45;&gt;org.springframework</title>
<path fill="none" stroke="black" d="M735.62,-237.95C735.62,-193.84 735.62,-85.25 735.62,-85.25 735.62,-85.25 1062.12,-85.25 1062.12,-85.25 1062.12,-85.25 1062.12,-70.07 1062.12,-70.07"/>
<polygon fill="black" stroke="black" points="1065.63,-70.07 1062.13,-60.07 1058.63,-70.07 1065.63,-70.07"/>
</g>
<!-- com.example.sms.infrastructure&#45;&gt;org.apache -->
<g id="edge2" class="edge">
<title>com.example.sms.infrastructure&#45;&gt;org.apache</title>
<path fill="none" stroke="black" d="M731.44,-237.98C731.44,-186.89 731.44,-46.25 731.44,-46.25 731.44,-46.25 733.11,-46.25 733.11,-46.25"/>
<polygon fill="black" stroke="black" points="733.11,-49.75 743.11,-46.25 733.11,-42.75 733.11,-49.75"/>
</g>
<!-- com.github -->
<g id="node7" class="node">
<title>com.github</title>
<polygon fill="lightgrey" stroke="black" points="1074.75,-130.25 996.5,-130.25 996.5,-126.25 992.5,-126.25 992.5,-122.25 996.5,-122.25 996.5,-102.25 992.5,-102.25 992.5,-98.25 996.5,-98.25 996.5,-94.25 1074.75,-94.25 1074.75,-130.25"/>
<polyline fill="none" stroke="black" points="996.5,-126.25 1000.5,-126.25 1000.5,-122.25 996.5,-122.25"/>
<polyline fill="none" stroke="black" points="996.5,-102.25 1000.5,-102.25 1000.5,-98.25 996.5,-98.25"/>
<text text-anchor="middle" x="1035.62" y="-107.2" font-family="Times New Roman,serif" font-size="14.00">com.github</text>
</g>
<!-- com.example.sms.infrastructure&#45;&gt;com.github -->
<g id="edge15" class="edge">
<title>com.example.sms.infrastructure&#45;&gt;com.github</title>
<path fill="none" stroke="black" d="M739.81,-237.88C739.81,-196.88 739.81,-101.45 739.81,-101.45 739.81,-101.45 739.81,-89.94 739.81,-89.94"/>
<polygon fill="black" stroke="black" points="984.38,-104.43 994.53,-101.38 984.69,-97.44 984.38,-104.43"/>
</g>
<!-- com.opencsv -->
<g id="node8" class="node">
<title>com.opencsv</title>
<polygon fill="lightgrey" stroke="black" points="279.62,-202.25 191.62,-202.25 191.62,-198.25 187.62,-198.25 187.62,-194.25 191.62,-194.25 191.62,-174.25 187.62,-174.25 187.62,-170.25 191.62,-170.25 191.62,-166.25 279.62,-166.25 279.62,-202.25"/>
<polyline fill="none" stroke="black" points="191.62,-198.25 195.62,-198.25 195.62,-194.25 191.62,-194.25"/>
<polyline fill="none" stroke="black" points="191.62,-174.25 195.62,-174.25 195.62,-170.25 191.62,-170.25"/>
<text text-anchor="middle" x="235.62" y="-179.2" font-family="Times New Roman,serif" font-size="14.00">com.opencsv</text>
</g>
<!-- com.example.sms.infrastructure&#45;&gt;com.opencsv -->
<g id="edge4" class="edge">
<title>com.example.sms.infrastructure&#45;&gt;com.opencsv</title>
<path fill="none" stroke="black" d="M505,-247.25C390.68,-247.25 235.62,-247.25 235.62,-247.25 235.62,-247.25 235.62,-213.99 235.62,-213.99"/>
<polygon fill="black" stroke="black" points="239.13,-213.99 235.63,-203.99 232.13,-213.99 239.13,-213.99"/>
</g>
<!-- com.example.sms.infrastructure&#45;&gt;lombok -->
<g id="edge23" class="edge">
<title>com.example.sms.infrastructure&#45;&gt;lombok</title>
<path fill="none" stroke="black" d="M535.75,-237.88C535.75,-187.22 535.75,-49.25 535.75,-49.25 535.75,-49.25 437.3,-49.25 437.3,-49.25"/>
<polygon fill="black" stroke="black" points="437.3,-45.75 427.3,-49.25 437.3,-52.75 437.3,-45.75"/>
</g>
<!-- io.swagger -->
<g id="node12" class="node">
<title>io.swagger</title>
<polygon fill="lightgrey" stroke="black" points="411.25,-202.25 336,-202.25 336,-198.25 332,-198.25 332,-194.25 336,-194.25 336,-174.25 332,-174.25 332,-170.25 336,-170.25 336,-166.25 411.25,-166.25 411.25,-202.25"/>
<polyline fill="none" stroke="black" points="336,-198.25 340,-198.25 340,-194.25 336,-194.25"/>
<polyline fill="none" stroke="black" points="336,-174.25 340,-174.25 340,-170.25 336,-170.25"/>
<text text-anchor="middle" x="373.62" y="-179.2" font-family="Times New Roman,serif" font-size="14.00">io.swagger</text>
</g>
<!-- com.example.sms.infrastructure&#45;&gt;io.swagger -->
<g id="edge9" class="edge">
<title>com.example.sms.infrastructure&#45;&gt;io.swagger</title>
<path fill="none" stroke="black" d="M520.5,-238.08C520.5,-216.75 520.5,-184.25 520.5,-184.25 520.5,-184.25 422.96,-184.25 422.96,-184.25"/>
<polygon fill="black" stroke="black" points="422.96,-180.75 412.96,-184.25 422.96,-187.75 422.96,-180.75"/>
</g>
<!-- org.slf4j -->
<g id="node15" class="node">
<title>org.slf4j</title>
<polygon fill="lightgrey" stroke="black" points="223.5,-130.25 161.75,-130.25 161.75,-126.25 157.75,-126.25 157.75,-122.25 161.75,-122.25 161.75,-102.25 157.75,-102.25 157.75,-98.25 161.75,-98.25 161.75,-94.25 223.5,-94.25 223.5,-130.25"/>
<polyline fill="none" stroke="black" points="161.75,-126.25 165.75,-126.25 165.75,-122.25 161.75,-122.25"/>
<polyline fill="none" stroke="black" points="161.75,-102.25 165.75,-102.25 165.75,-98.25 161.75,-98.25"/>
<text text-anchor="middle" x="192.62" y="-107.2" font-family="Times New Roman,serif" font-size="14.00">org.slf4j</text>
</g>
<!-- com.example.sms.infrastructure&#45;&gt;org.slf4j -->
<g id="edge13" class="edge">
<title>com.example.sms.infrastructure&#45;&gt;org.slf4j</title>
<path fill="none" stroke="black" d="M504.88,-256.25C372.19,-256.25 176.69,-256.25 176.69,-256.25 176.69,-256.25 176.69,-142 176.69,-142"/>
<polygon fill="black" stroke="black" points="180.19,-142 176.69,-132 173.19,-142 180.19,-142"/>
</g>
<!-- io.jsonwebtoken -->
<g id="node18" class="node">
<title>io.jsonwebtoken</title>
<polygon fill="lightgrey" stroke="black" points="105.25,-202.25 0,-202.25 0,-198.25 -4,-198.25 -4,-194.25 0,-194.25 0,-174.25 -4,-174.25 -4,-170.25 0,-170.25 0,-166.25 105.25,-166.25 105.25,-202.25"/>
<polyline fill="none" stroke="black" points="0,-198.25 4,-198.25 4,-194.25 0,-194.25"/>
<polyline fill="none" stroke="black" points="0,-174.25 4,-174.25 4,-170.25 0,-170.25"/>
<text text-anchor="middle" x="52.62" y="-179.2" font-family="Times New Roman,serif" font-size="14.00">io.jsonwebtoken</text>
</g>
<!-- com.example.sms.infrastructure&#45;&gt;io.jsonwebtoken -->
<g id="edge27" class="edge">
<title>com.example.sms.infrastructure&#45;&gt;io.jsonwebtoken</title>
<path fill="none" stroke="black" d="M505.06,-265.25C337.38,-265.25 52.62,-265.25 52.62,-265.25 52.62,-265.25 52.62,-214.14 52.62,-214.14"/>
<polygon fill="black" stroke="black" points="56.13,-214.14 52.63,-204.14 49.13,-214.14 56.13,-214.14"/>
</g>
<!-- com.example.sms.presentation -->
<g id="node3" class="node">
<title>com.example.sms.presentation</title>
<polygon fill="#eedd82" stroke="black" points="980.88,-274.25 762.38,-274.25 762.38,-270.25 758.38,-270.25 758.38,-266.25 762.38,-266.25 762.38,-246.25 758.38,-246.25 758.38,-242.25 762.38,-242.25 762.38,-238.25 980.88,-238.25 980.88,-274.25"/>
<polyline fill="none" stroke="black" points="762.38,-270.25 766.38,-270.25 766.38,-266.25 762.38,-266.25"/>
<polyline fill="none" stroke="black" points="762.38,-246.25 766.38,-246.25 766.38,-242.25 762.38,-242.25"/>
<text text-anchor="middle" x="871.62" y="-245.88" font-family="Times New Roman,serif" font-size="20.00">プレゼンテーション層</text>
</g>
<!-- com.example.sms.presentation&#45;&gt;com.example.sms.domain -->
<g id="edge19" class="edge">
<title>com.example.sms.presentation&#45;&gt;com.example.sms.domain</title>
<path fill="none" stroke="black" d="M800.96,-238.01C800.96,-201.53 800.96,-123.05 800.96,-123.05 800.96,-123.05 800.96,-134.56 800.96,-134.56"/>
<polygon fill="black" stroke="black" points="739.36,-121.37 728.93,-123.28 738.27,-128.29 739.36,-121.37"/>
</g>
<!-- com.example.sms.presentation&#45;&gt;com.example.sms.service -->
<g id="edge30" class="edge">
<title>com.example.sms.presentation&#45;&gt;com.example.sms.service</title>
<path fill="none" stroke="black" d="M781.67,-238.03C781.67,-219.42 781.67,-193.25 781.67,-193.25 781.67,-193.25 679.86,-193.25 679.86,-193.25"/>
<polygon fill="black" stroke="black" points="679.86,-189.75 669.86,-193.25 679.86,-196.75 679.86,-189.75"/>
</g>
<!-- com.example.sms.presentation&#45;&gt;org.springframework -->
<g id="edge31" class="edge">
<title>com.example.sms.presentation&#45;&gt;org.springframework</title>
<path fill="none" stroke="black" d="M873.79,-238.08C873.79,-185.06 873.79,-34.25 873.79,-34.25 873.79,-34.25 873.79,-22.74 873.79,-22.74"/>
<polygon fill="black" stroke="black" points="1024.7,-36.93 1034.93,-34.14 1025.2,-29.95 1024.7,-36.93"/>
</g>
<!-- com.example.sms.presentation&#45;&gt;com.github -->
<g id="edge8" class="edge">
<title>com.example.sms.presentation&#45;&gt;com.github</title>
<path fill="none" stroke="black" d="M927.33,-237.9C927.33,-199.84 927.33,-115.85 927.33,-115.85 927.33,-115.85 984.71,-115.85 984.71,-115.85"/>
<polygon fill="black" stroke="black" points="984.71,-119.35 994.71,-115.85 984.71,-112.35 984.71,-119.35"/>
</g>
<!-- com.example.sms.presentation&#45;&gt;lombok -->
<g id="edge33" class="edge">
<title>com.example.sms.presentation&#45;&gt;lombok</title>
<path fill="none" stroke="black" d="M810.6,-238C810.6,-192.24 810.6,-76.25 810.6,-76.25 810.6,-76.25 419.81,-76.25 419.81,-76.25 419.81,-76.25 419.81,-70.19 419.81,-70.19"/>
<polygon fill="black" stroke="black" points="423.31,-70.19 419.81,-60.19 416.31,-70.19 423.31,-70.19"/>
</g>
<!-- com.example.sms.presentation&#45;&gt;io.swagger -->
<g id="edge25" class="edge">
<title>com.example.sms.presentation&#45;&gt;io.swagger</title>
<path fill="none" stroke="black" d="M772.02,-237.83C772.02,-228.97 772.02,-220.25 772.02,-220.25 772.02,-220.25 373.62,-220.25 373.62,-220.25 373.62,-220.25 373.62,-214.19 373.62,-214.19"/>
<polygon fill="black" stroke="black" points="377.13,-214.19 373.63,-204.19 370.13,-214.19 377.13,-214.19"/>
</g>
<!-- jakarta.validation -->
<g id="node13" class="node">
<title>jakarta.validation</title>
<polygon fill="lightgrey" stroke="black" points="1106.88,-202.25 996.38,-202.25 996.38,-198.25 992.38,-198.25 992.38,-194.25 996.38,-194.25 996.38,-174.25 992.38,-174.25 992.38,-170.25 996.38,-170.25 996.38,-166.25 1106.88,-166.25 1106.88,-202.25"/>
<polyline fill="none" stroke="black" points="996.38,-198.25 1000.38,-198.25 1000.38,-194.25 996.38,-194.25"/>
<polyline fill="none" stroke="black" points="996.38,-174.25 1000.38,-174.25 1000.38,-170.25 996.38,-170.25"/>
<text text-anchor="middle" x="1051.62" y="-179.2" font-family="Times New Roman,serif" font-size="14.00">jakarta.validation</text>
</g>
<!-- com.example.sms.presentation&#45;&gt;jakarta.validation -->
<g id="edge10" class="edge">
<title>com.example.sms.presentation&#45;&gt;jakarta.validation</title>
<path fill="none" stroke="black" d="M981.26,-252.65C1018.84,-252.65 1051.62,-252.65 1051.62,-252.65 1051.62,-252.65 1051.62,-214.09 1051.62,-214.09"/>
<polygon fill="black" stroke="black" points="1055.13,-214.09 1051.63,-204.09 1048.13,-214.09 1055.13,-214.09"/>
</g>
<!-- com.example.sms.presentation&#45;&gt;org.slf4j -->
<g id="edge16" class="edge">
<title>com.example.sms.presentation&#45;&gt;org.slf4j</title>
<path fill="none" stroke="black" d="M791.31,-237.93C791.31,-207.12 791.31,-148.25 791.31,-148.25 791.31,-148.25 212.88,-148.25 212.88,-148.25 212.88,-148.25 212.88,-142.19 212.88,-142.19"/>
<polygon fill="black" stroke="black" points="216.38,-142.19 212.88,-132.19 209.38,-142.19 216.38,-142.19"/>
</g>
<!-- jakarta.servlet -->
<g id="node17" class="node">
<title>jakarta.servlet</title>
<polygon fill="lightgrey" stroke="black" points="1292.88,-202.25 1200.38,-202.25 1200.38,-198.25 1196.38,-198.25 1196.38,-194.25 1200.38,-194.25 1200.38,-174.25 1196.38,-174.25 1196.38,-170.25 1200.38,-170.25 1200.38,-166.25 1292.88,-166.25 1292.88,-202.25"/>
<polyline fill="none" stroke="black" points="1200.38,-198.25 1204.38,-198.25 1204.38,-194.25 1200.38,-194.25"/>
<polyline fill="none" stroke="black" points="1200.38,-174.25 1204.38,-174.25 1204.38,-170.25 1200.38,-170.25"/>
<text text-anchor="middle" x="1246.62" y="-179.2" font-family="Times New Roman,serif" font-size="14.00">jakarta.servlet</text>
</g>
<!-- com.example.sms.presentation&#45;&gt;jakarta.servlet -->
<g id="edge24" class="edge">
<title>com.example.sms.presentation&#45;&gt;jakarta.servlet</title>
<path fill="none" stroke="black" d="M981.11,-259.85C1085.99,-259.85 1228.44,-259.85 1228.44,-259.85 1228.44,-259.85 1228.44,-214.06 1228.44,-214.06"/>
<polygon fill="black" stroke="black" points="1231.94,-214.06 1228.44,-204.06 1224.94,-214.06 1231.94,-214.06"/>
</g>
<!-- com.example.sms.service&#45;&gt;com.example.sms.domain -->
<g id="edge21" class="edge">
<title>com.example.sms.service&#45;&gt;com.example.sms.domain</title>
<path fill="none" stroke="black" d="M639.12,-166.08C639.12,-166.08 639.12,-142.18 639.12,-142.18"/>
<polygon fill="black" stroke="black" points="642.63,-142.18 639.13,-132.18 635.63,-142.18 642.63,-142.18"/>
</g>
<!-- com.example.sms.service&#45;&gt;com.example.sms.infrastructure -->
<g id="edge12" class="edge">
<title>com.example.sms.service&#45;&gt;com.example.sms.infrastructure</title>
<path fill="none" stroke="black" d="M590.08,-202.42C590.08,-202.42 590.08,-226.32 590.08,-226.32"/>
<polygon fill="black" stroke="black" points="586.58,-226.32 590.08,-236.32 593.58,-226.32 586.58,-226.32"/>
</g>
<!-- com.example.sms.service&#45;&gt;org.springframework -->
<g id="edge17" class="edge">
<title>com.example.sms.service&#45;&gt;org.springframework</title>
<path fill="none" stroke="black" d="M668.43,-184.25C774.88,-184.25 988.62,-184.25 988.62,-184.25 988.62,-184.25 988.62,-46.25 988.62,-46.25 988.62,-46.25 1025.13,-46.25 1025.13,-46.25"/>
<polygon fill="black" stroke="black" points="1025.13,-49.75 1035.13,-46.25 1025.13,-42.75 1025.13,-49.75"/>
</g>
<!-- com.example.sms.service&#45;&gt;com.github -->
<g id="edge3" class="edge">
<title>com.example.sms.service&#45;&gt;com.github</title>
<path fill="none" stroke="black" d="M668.64,-175.25C708.42,-175.25 753.69,-175.25 753.69,-175.25 753.69,-175.25 753.69,-108.65 753.69,-108.65 753.69,-108.65 984.61,-108.65 984.61,-108.65"/>
<polygon fill="black" stroke="black" points="984.61,-112.15 994.61,-108.65 984.61,-105.15 984.61,-112.15"/>
</g>
<!-- jakarta.transaction -->
<g id="node10" class="node">
<title>jakarta.transaction</title>
<polygon fill="lightgrey" stroke="black" points="395.5,-130.25 279.75,-130.25 279.75,-126.25 275.75,-126.25 275.75,-122.25 279.75,-122.25 279.75,-102.25 275.75,-102.25 275.75,-98.25 279.75,-98.25 279.75,-94.25 395.5,-94.25 395.5,-130.25"/>
<polyline fill="none" stroke="black" points="279.75,-126.25 283.75,-126.25 283.75,-122.25 279.75,-122.25"/>
<polyline fill="none" stroke="black" points="279.75,-102.25 283.75,-102.25 283.75,-98.25 279.75,-98.25"/>
<text text-anchor="middle" x="337.62" y="-107.2" font-family="Times New Roman,serif" font-size="14.00">jakarta.transaction</text>
</g>
<!-- com.example.sms.service&#45;&gt;jakarta.transaction -->
<g id="edge6" class="edge">
<title>com.example.sms.service&#45;&gt;jakarta.transaction</title>
<path fill="none" stroke="black" d="M574.6,-165.95C574.6,-153.49 574.6,-139.25 574.6,-139.25 574.6,-139.25 365.75,-139.25 365.75,-139.25 365.75,-139.25 365.75,-138.4 365.75,-138.4"/>
<polygon fill="black" stroke="black" points="369.25,-142.22 365.75,-132.22 362.25,-142.22 369.25,-142.22"/>
</g>
<!-- com.example.sms.service&#45;&gt;lombok -->
<g id="edge7" class="edge">
<title>com.example.sms.service&#45;&gt;lombok</title>
<path fill="none" stroke="black" d="M598.2,-166.01C598.2,-127.26 598.2,-40.25 598.2,-40.25 598.2,-40.25 437.45,-40.25 437.45,-40.25"/>
<polygon fill="black" stroke="black" points="437.45,-36.75 427.45,-40.25 437.45,-43.75 437.45,-36.75"/>
</g>
<!-- com.example.sms.service&#45;&gt;org.slf4j -->
<g id="edge22" class="edge">
<title>com.example.sms.service&#45;&gt;org.slf4j</title>
<path fill="none" stroke="black" d="M562.8,-165.79C562.8,-161.05 562.8,-157.25 562.8,-157.25 562.8,-157.25 202.25,-157.25 202.25,-157.25 202.25,-157.25 202.25,-142.07 202.25,-142.07"/>
<polygon fill="black" stroke="black" points="205.75,-142.07 202.25,-132.07 198.75,-142.07 205.75,-142.07"/>
</g>
<!-- org.aspectj -->
<g id="node19" class="node">
<title>org.aspectj</title>
<polygon fill="lightgrey" stroke="black" points="489.25,-130.25 414,-130.25 414,-126.25 410,-126.25 410,-122.25 414,-122.25 414,-102.25 410,-102.25 410,-98.25 414,-98.25 414,-94.25 489.25,-94.25 489.25,-130.25"/>
<polyline fill="none" stroke="black" points="414,-126.25 418,-126.25 418,-122.25 414,-122.25"/>
<polyline fill="none" stroke="black" points="414,-102.25 418,-102.25 418,-98.25 414,-98.25"/>
<text text-anchor="middle" x="451.62" y="-107.2" font-family="Times New Roman,serif" font-size="14.00">org.aspectj</text>
</g>
<!-- com.example.sms.service&#45;&gt;org.aspectj -->
<g id="edge34" class="edge">
<title>com.example.sms.service&#45;&gt;org.aspectj</title>
<path fill="none" stroke="black" d="M586.4,-166.08C586.4,-144.75 586.4,-112.25 586.4,-112.25 586.4,-112.25 501.04,-112.25 501.04,-112.25"/>
<polygon fill="black" stroke="black" points="501.04,-108.75 491.04,-112.25 501.04,-115.75 501.04,-108.75"/>
</g>
<!-- com.example -->
<g id="node14" class="node">
<title>com.example</title>
<polygon fill="lightgrey" stroke="black" points="1346.75,-346.25 1256.5,-346.25 1256.5,-342.25 1252.5,-342.25 1252.5,-338.25 1256.5,-338.25 1256.5,-318.25 1252.5,-318.25 1252.5,-314.25 1256.5,-314.25 1256.5,-310.25 1346.75,-310.25 1346.75,-346.25"/>
<polyline fill="none" stroke="black" points="1256.5,-342.25 1260.5,-342.25 1260.5,-338.25 1256.5,-338.25"/>
<polyline fill="none" stroke="black" points="1256.5,-318.25 1260.5,-318.25 1260.5,-314.25 1256.5,-314.25"/>
<text text-anchor="middle" x="1301.62" y="-323.2" font-family="Times New Roman,serif" font-size="14.00">com.example</text>
</g>
<!-- com.example&#45;&gt;com.example.sms.presentation -->
<g id="edge11" class="edge">
<title>com.example&#45;&gt;com.example.sms.presentation</title>
<path fill="none" stroke="black" d="M1268.62,-309.89C1268.62,-291.86 1268.62,-267.05 1268.62,-267.05 1268.62,-267.05 992.67,-267.05 992.67,-267.05"/>
<polygon fill="black" stroke="black" points="992.67,-263.55 982.67,-267.05 992.67,-270.55 992.67,-263.55"/>
</g>
<!-- com.example&#45;&gt;org.springframework -->
<g id="edge32" class="edge">
<title>com.example&#45;&gt;org.springframework</title>
<path fill="none" stroke="black" d="M1256.38,-328.25C1207.83,-328.25 1137.62,-328.25 1137.62,-328.25 1137.62,-328.25 1137.62,-70.22 1137.62,-70.22"/>
<polygon fill="black" stroke="black" points="1141.13,-70.22 1137.63,-60.22 1134.13,-70.22 1141.13,-70.22"/>
</g>
<!-- org.mybatis -->
<g id="node16" class="node">
<title>org.mybatis</title>
<polygon fill="lightgrey" stroke="black" points="1430.25,-274.25 1349,-274.25 1349,-270.25 1345,-270.25 1345,-266.25 1349,-266.25 1349,-246.25 1345,-246.25 1345,-242.25 1349,-242.25 1349,-238.25 1430.25,-238.25 1430.25,-274.25"/>
<polyline fill="none" stroke="black" points="1349,-270.25 1353,-270.25 1353,-266.25 1349,-266.25"/>
<polyline fill="none" stroke="black" points="1349,-246.25 1353,-246.25 1353,-242.25 1349,-242.25"/>
<text text-anchor="middle" x="1389.62" y="-251.2" font-family="Times New Roman,serif" font-size="14.00">org.mybatis</text>
</g>
<!-- com.example&#45;&gt;org.mybatis -->
<g id="edge14" class="edge">
<title>com.example&#45;&gt;org.mybatis</title>
<path fill="none" stroke="black" d="M1319.81,-309.87C1319.81,-285.48 1319.81,-245.45 1319.81,-245.45 1319.81,-245.45 1337.1,-245.45 1337.1,-245.45"/>
<polygon fill="black" stroke="black" points="1337.1,-248.95 1347.1,-245.45 1337.1,-241.95 1337.1,-248.95"/>
</g>
<!-- com.example&#45;&gt;jakarta.servlet -->
<g id="edge20" class="edge">
<title>com.example&#45;&gt;jakarta.servlet</title>
<path fill="none" stroke="black" d="M1280.75,-310.01C1280.75,-310.01 1280.75,-213.85 1280.75,-213.85"/>
<polygon fill="black" stroke="black" points="1284.25,-213.85 1280.75,-203.85 1277.25,-213.85 1284.25,-213.85"/>
</g>
</g>
</svg>
