<?xml version="1.0" encoding="UTF-8" standalone="no"?>
<!DOCTYPE svg PUBLIC "-//W3C//DTD SVG 1.1//EN"
 "http://www.w3.org/Graphics/SVG/1.1/DTD/svg11.dtd">
<!-- Generated by graphviz version 12.2.0 (20241103.1931)
 -->
<!-- Title: パッケージ関連図 Pages: 1 -->
<svg width="765pt" height="299pt"
 viewBox="0.00 0.00 765.00 298.62" xmlns="http://www.w3.org/2000/svg" xmlns:xlink="http://www.w3.org/1999/xlink">
<g id="graph0" class="graph" transform="scale(1 1) rotate(0) translate(4 294.62)">
<title>パッケージ関連図</title>
<polygon fill="white" stroke="none" points="-4,4 -4,-294.62 761,-294.62 761,4 -4,4"/>
<text text-anchor="middle" x="378.5" y="-4.95" font-family="Times New Roman,serif" font-size="14.00">パッケージ関連図</text>
<g id="clust1" class="cluster">
<title>cluster_com.example.sms.domain.model.system</title>
<polygon fill="lemonchiffon" stroke="#eedd82" stroke-width="2" points="417,-105 417,-282.62 749,-282.62 749,-105 417,-105"/>
<text text-anchor="middle" x="583" y="-265.32" font-family="Times New Roman,serif" font-size="14.00">システム</text>
<text text-anchor="middle" x="583" y="-251.07" font-family="Times New Roman,serif" font-size="14.00">model.system</text>
</g>
<g id="clust2" class="cluster">
<title>cluster_com.example.sms.domain.model.master</title>
<polygon fill="lemonchiffon" stroke="#eedd82" stroke-width="2" points="198,-30.25 198,-282.62 378,-282.62 378,-30.25 198,-30.25"/>
<text text-anchor="middle" x="288" y="-265.32" font-family="Times New Roman,serif" font-size="14.00">マスタ</text>
<text text-anchor="middle" x="288" y="-251.07" font-family="Times New Roman,serif" font-size="14.00">model.master</text>
</g>
<!-- summary -->
<g id="node1" class="node">
<title>summary</title>
<polygon fill="none" stroke="black" points="184,-245.25 0,-245.25 0,-187.75 190,-187.75 190,-239.25 184,-245.25"/>
<polyline fill="none" stroke="black" points="184,-245.25 184,-239.25"/>
<polyline fill="none" stroke="black" points="190,-239.25 184,-239.25"/>
<text text-anchor="start" x="8" y="-227.95" font-family="Times New Roman,serif" font-size="14.00">root: com.example.sms.domain</text>
<text text-anchor="start" x="8" y="-211.45" font-family="Times New Roman,serif" font-size="14.00">パッケージ数: 14</text>
<text text-anchor="start" x="8" y="-194.95" font-family="Times New Roman,serif" font-size="14.00">関連数: 14</text>
</g>
<!-- com.example.sms.domain.model.master.partner -->
<g id="node2" class="node">
<title>com.example.sms.domain.model.master.partner</title>
<g id="a_node2"><a xlink:href="./domain.html#com.example.sms.domain.model.master.partner" xlink:title="取引先\npartner">
<polygon fill="#eedd82" stroke="black" points="273.88,-151.75 206.12,-151.75 206.12,-113 273.88,-113 273.88,-151.75"/>
<text text-anchor="middle" x="240" y="-134.45" font-family="Times New Roman,serif" font-size="14.00">取引先</text>
<text text-anchor="middle" x="240" y="-120.2" font-family="Times New Roman,serif" font-size="14.00">partner</text>
</a>
</g>
</g>
<!-- com.example.sms.domain.type.mail -->
<g id="node3" class="node">
<title>com.example.sms.domain.type.mail</title>
<g id="a_node3"><a xlink:href="./domain.html#com.example.sms.domain.type.mail" xlink:title="メール\ntype.mail">
<polygon fill="#eedd82" stroke="black" points="453.88,-77 386.12,-77 386.12,-38.25 453.88,-38.25 453.88,-77"/>
<text text-anchor="middle" x="420" y="-59.7" font-family="Times New Roman,serif" font-size="14.00">メール</text>
<text text-anchor="middle" x="420" y="-45.45" font-family="Times New Roman,serif" font-size="14.00">type.mail</text>
</a>
</g>
</g>
<!-- com.example.sms.domain.model.master.partner&#45;&gt;com.example.sms.domain.type.mail -->
<g id="edge1" class="edge">
<title>com.example.sms.domain.model.master.partner&#45;&gt;com.example.sms.domain.type.mail</title>
<path fill="none" stroke="black" d="M268.09,-112.65C272.94,-109.85 278.03,-107.18 283,-105 321.45,-88.16 336.71,-92.32 374.91,-79.42"/>
<polygon fill="black" stroke="black" points="376.09,-82.72 384.31,-76.04 373.72,-76.13 376.09,-82.72"/>
</g>
<!-- com.example.sms.domain.type.address -->
<g id="node7" class="node">
<title>com.example.sms.domain.type.address</title>
<g id="a_node7"><a xlink:href="./domain.html#com.example.sms.domain.type.address" xlink:title="住所\ntype.address">
<polygon fill="#eedd82" stroke="black" points="555.75,-77 472.25,-77 472.25,-38.25 555.75,-38.25 555.75,-77"/>
<text text-anchor="middle" x="514" y="-59.7" font-family="Times New Roman,serif" font-size="14.00">住所</text>
<text text-anchor="middle" x="514" y="-45.45" font-family="Times New Roman,serif" font-size="14.00">type.address</text>
</a>
</g>
</g>
<!-- com.example.sms.domain.model.master.partner&#45;&gt;com.example.sms.domain.type.address -->
<g id="edge4" class="edge">
<title>com.example.sms.domain.model.master.partner&#45;&gt;com.example.sms.domain.type.address</title>
<path fill="none" stroke="black" d="M266.93,-112.65C272.09,-109.71 277.57,-106.99 283,-105 355.73,-78.27 382.27,-95.41 460.97,-77.18"/>
<polygon fill="black" stroke="black" points="461.54,-80.64 470.42,-74.86 459.88,-73.84 461.54,-80.64"/>
</g>
<!-- com.example.sms.domain.type.money -->
<g id="node8" class="node">
<title>com.example.sms.domain.type.money</title>
<g id="a_node8"><a xlink:href="./domain.html#com.example.sms.domain.type.money" xlink:title="通貨\ntype.money">
<polygon fill="#eedd82" stroke="black" points="654.25,-77 573.75,-77 573.75,-38.25 654.25,-38.25 654.25,-77"/>
<text text-anchor="middle" x="614" y="-59.7" font-family="Times New Roman,serif" font-size="14.00">通貨</text>
<text text-anchor="middle" x="614" y="-45.45" font-family="Times New Roman,serif" font-size="14.00">type.money</text>
</a>
</g>
</g>
<!-- com.example.sms.domain.model.master.partner&#45;&gt;com.example.sms.domain.type.money -->
<g id="edge5" class="edge">
<title>com.example.sms.domain.model.master.partner&#45;&gt;com.example.sms.domain.type.money</title>
<path fill="none" stroke="black" d="M266.38,-112.67C271.68,-109.65 277.36,-106.9 283,-105 398.99,-65.97 440.01,-103.33 562.42,-77.22"/>
<polygon fill="black" stroke="black" points="562.87,-80.71 571.86,-75.11 561.34,-73.88 562.87,-80.71"/>
</g>
<!-- com.example.sms.domain.type.phone -->
<g id="node9" class="node">
<title>com.example.sms.domain.type.phone</title>
<g id="a_node9"><a xlink:href="./domain.html#com.example.sms.domain.type.phone" xlink:title="電話番号\ntype.phone">
<polygon fill="#eedd82" stroke="black" points="189.5,-77 104.5,-77 104.5,-38.25 189.5,-38.25 189.5,-77"/>
<text text-anchor="middle" x="147" y="-59.7" font-family="Times New Roman,serif" font-size="14.00">電話番号</text>
<text text-anchor="middle" x="147" y="-45.45" font-family="Times New Roman,serif" font-size="14.00">type.phone</text>
</a>
</g>
</g>
<!-- com.example.sms.domain.model.master.partner&#45;&gt;com.example.sms.domain.type.phone -->
<g id="edge6" class="edge">
<title>com.example.sms.domain.model.master.partner&#45;&gt;com.example.sms.domain.type.phone</title>
<path fill="none" stroke="black" d="M216.05,-112.64C204.99,-103.98 191.67,-93.57 179.7,-84.21"/>
<polygon fill="black" stroke="black" points="182.09,-81.63 172.06,-78.23 177.78,-87.15 182.09,-81.63"/>
</g>
<!-- com.example.sms.domain.model.master.region -->
<g id="node11" class="node">
<title>com.example.sms.domain.model.master.region</title>
<g id="a_node11"><a xlink:href="./domain.html#com.example.sms.domain.model.master.region" xlink:title="地域\nregion">
<polygon fill="#eedd82" stroke="black" points="267,-77 213,-77 213,-38.25 267,-38.25 267,-77"/>
<text text-anchor="middle" x="240" y="-59.7" font-family="Times New Roman,serif" font-size="14.00">地域</text>
<text text-anchor="middle" x="240" y="-45.45" font-family="Times New Roman,serif" font-size="14.00">region</text>
</a>
</g>
</g>
<!-- com.example.sms.domain.model.master.partner&#45;&gt;com.example.sms.domain.model.master.region -->
<g id="edge10" class="edge">
<title>com.example.sms.domain.model.master.partner&#45;&gt;com.example.sms.domain.model.master.region</title>
<path fill="none" stroke="black" d="M240,-112.64C240,-105.34 240,-96.79 240,-88.68"/>
<polygon fill="black" stroke="black" points="243.5,-88.81 240,-78.81 236.5,-88.81 243.5,-88.81"/>
</g>
<!-- com.example.sms.domain.model.master.product -->
<g id="node4" class="node">
<title>com.example.sms.domain.model.master.product</title>
<g id="a_node4"><a xlink:href="./domain.html#com.example.sms.domain.model.master.product" xlink:title="商品\nproduct">
<polygon fill="#eedd82" stroke="black" points="268.62,-235.88 211.38,-235.88 211.38,-197.12 268.62,-197.12 268.62,-235.88"/>
<text text-anchor="middle" x="240" y="-218.57" font-family="Times New Roman,serif" font-size="14.00">商品</text>
<text text-anchor="middle" x="240" y="-204.32" font-family="Times New Roman,serif" font-size="14.00">product</text>
</a>
</g>
</g>
<!-- com.example.sms.domain.model.master.product&#45;&gt;com.example.sms.domain.model.master.partner -->
<g id="edge2" class="edge">
<title>com.example.sms.domain.model.master.product&#45;&gt;com.example.sms.domain.model.master.partner</title>
<path fill="none" stroke="black" d="M240,-196.86C240,-187.06 240,-174.8 240,-163.68"/>
<polygon fill="black" stroke="black" points="243.5,-163.73 240,-153.73 236.5,-163.73 243.5,-163.73"/>
</g>
<!-- com.example.sms.domain.model.master.product&#45;&gt;com.example.sms.domain.type.money -->
<g id="edge8" class="edge">
<title>com.example.sms.domain.model.master.product&#45;&gt;com.example.sms.domain.type.money</title>
<path fill="none" stroke="black" d="M268.94,-197.44C274.82,-194.04 281.04,-190.65 287,-187.75 326.48,-168.53 344.25,-178.58 379,-151.75 399.34,-136.05 391.26,-118.69 413,-105 468.17,-70.25 495.92,-92.78 562.28,-77.33"/>
<polygon fill="black" stroke="black" points="562.99,-80.76 571.81,-74.89 561.25,-73.98 562.99,-80.76"/>
</g>
<!-- com.example.sms.domain.type.quantity -->
<g id="node10" class="node">
<title>com.example.sms.domain.type.quantity</title>
<g id="a_node10"><a xlink:href="./domain.html#com.example.sms.domain.type.quantity" xlink:title="数量\ntype.quantity">
<polygon fill="#eedd82" stroke="black" points="149.62,-151.75 62.38,-151.75 62.38,-113 149.62,-113 149.62,-151.75"/>
<text text-anchor="middle" x="106" y="-134.45" font-family="Times New Roman,serif" font-size="14.00">数量</text>
<text text-anchor="middle" x="106" y="-120.2" font-family="Times New Roman,serif" font-size="14.00">type.quantity</text>
</a>
</g>
</g>
<!-- com.example.sms.domain.model.master.product&#45;&gt;com.example.sms.domain.type.quantity -->
<g id="edge9" class="edge">
<title>com.example.sms.domain.model.master.product&#45;&gt;com.example.sms.domain.type.quantity</title>
<path fill="none" stroke="black" d="M212.82,-196.74C208.24,-193.68 203.51,-190.59 199,-187.75 182.88,-177.6 164.86,-166.92 149.01,-157.73"/>
<polygon fill="black" stroke="black" points="151.18,-154.94 140.77,-152.98 147.69,-161.01 151.18,-154.94"/>
</g>
<!-- com.example.sms.domain.model.master.employee -->
<g id="node5" class="node">
<title>com.example.sms.domain.model.master.employee</title>
<g id="a_node5"><a xlink:href="./domain.html#com.example.sms.domain.model.master.employee" xlink:title="社員\nemployee">
<polygon fill="#eedd82" stroke="black" points="365.62,-235.88 296.38,-235.88 296.38,-197.12 365.62,-197.12 365.62,-235.88"/>
<text text-anchor="middle" x="331" y="-218.57" font-family="Times New Roman,serif" font-size="14.00">社員</text>
<text text-anchor="middle" x="331" y="-204.32" font-family="Times New Roman,serif" font-size="14.00">employee</text>
</a>
</g>
</g>
<!-- com.example.sms.domain.model.system.user -->
<g id="node6" class="node">
<title>com.example.sms.domain.model.system.user</title>
<g id="a_node6"><a xlink:href="./domain.html#com.example.sms.domain.model.system.user" xlink:title="ユーザー\nuser">
<polygon fill="#eedd82" stroke="black" points="511.5,-151.75 426.5,-151.75 426.5,-113 511.5,-113 511.5,-151.75"/>
<text text-anchor="middle" x="469" y="-134.45" font-family="Times New Roman,serif" font-size="14.00">ユーザー</text>
<text text-anchor="middle" x="469" y="-120.2" font-family="Times New Roman,serif" font-size="14.00">user</text>
</a>
</g>
</g>
<!-- com.example.sms.domain.model.master.employee&#45;&gt;com.example.sms.domain.model.system.user -->
<g id="edge3" class="edge">
<title>com.example.sms.domain.model.master.employee&#45;&gt;com.example.sms.domain.model.system.user</title>
<path fill="none" stroke="black" d="M362.66,-196.66C381.94,-185.18 406.8,-170.39 427.63,-158"/>
<polygon fill="black" stroke="black" points="429.38,-161.02 436.19,-152.9 425.8,-155.01 429.38,-161.02"/>
</g>
<!-- com.example.sms.domain.model.master.employee&#45;&gt;com.example.sms.domain.type.phone -->
<g id="edge7" class="edge">
<title>com.example.sms.domain.model.master.employee&#45;&gt;com.example.sms.domain.type.phone</title>
<path fill="none" stroke="black" d="M296.09,-196.82C290.09,-193.72 283.89,-190.6 278,-187.75 242.53,-170.6 225.88,-178.55 197,-151.75 178.16,-134.27 164.97,-108.04 156.89,-87.87"/>
<polygon fill="black" stroke="black" points="160.26,-86.91 153.45,-78.79 153.72,-89.39 160.26,-86.91"/>
</g>
<!-- com.example.sms.domain.model.master.department -->
<g id="node14" class="node">
<title>com.example.sms.domain.model.master.department</title>
<g id="a_node14"><a xlink:href="./domain.html#com.example.sms.domain.model.master.department" xlink:title="部門\ndepartment">
<polygon fill="#eedd82" stroke="black" points="369.75,-151.75 292.25,-151.75 292.25,-113 369.75,-113 369.75,-151.75"/>
<text text-anchor="middle" x="331" y="-134.45" font-family="Times New Roman,serif" font-size="14.00">部門</text>
<text text-anchor="middle" x="331" y="-120.2" font-family="Times New Roman,serif" font-size="14.00">department</text>
</a>
</g>
</g>
<!-- com.example.sms.domain.model.master.employee&#45;&gt;com.example.sms.domain.model.master.department -->
<g id="edge13" class="edge">
<title>com.example.sms.domain.model.master.employee&#45;&gt;com.example.sms.domain.model.master.department</title>
<path fill="none" stroke="red" stroke-width="2" d="M331,-185.43C331,-178.32 331,-170.73 331,-163.6"/>
<polygon fill="red" stroke="red" stroke-width="2" points="327.5,-183.84 331,-193.84 334.5,-183.84 327.5,-183.84"/>
<polygon fill="red" stroke="red" stroke-width="2" points="334.5,-165.25 331,-155.25 327.5,-165.25 334.5,-165.25"/>
</g>
<!-- com.example.sms.domain.model.system.auth -->
<g id="node12" class="node">
<title>com.example.sms.domain.model.system.auth</title>
<g id="a_node12"><a xlink:href="./domain.html#com.example.sms.domain.model.system.auth" xlink:title="認証\nauth">
<polygon fill="#eedd82" stroke="black" points="479,-235.88 425,-235.88 425,-197.12 479,-197.12 479,-235.88"/>
<text text-anchor="middle" x="452" y="-218.57" font-family="Times New Roman,serif" font-size="14.00">認証</text>
<text text-anchor="middle" x="452" y="-204.32" font-family="Times New Roman,serif" font-size="14.00">auth</text>
</a>
</g>
</g>
<!-- com.example.sms.domain.model.system.auth&#45;&gt;com.example.sms.domain.model.system.user -->
<g id="edge11" class="edge">
<title>com.example.sms.domain.model.system.auth&#45;&gt;com.example.sms.domain.model.system.user</title>
<path fill="none" stroke="black" d="M455.86,-196.86C457.91,-186.96 460.48,-174.54 462.8,-163.32"/>
<polygon fill="black" stroke="black" points="466.19,-164.2 464.79,-153.7 459.34,-162.79 466.19,-164.2"/>
</g>
<!-- com.example.sms.domain.model.system.audit -->
<g id="node13" class="node">
<title>com.example.sms.domain.model.system.audit</title>
<g id="a_node13"><a xlink:href="./domain.html#com.example.sms.domain.model.system.audit" xlink:title="監査\naudit">
<polygon fill="#eedd82" stroke="black" points="551,-235.88 497,-235.88 497,-197.12 551,-197.12 551,-235.88"/>
<text text-anchor="middle" x="524" y="-218.57" font-family="Times New Roman,serif" font-size="14.00">監査</text>
<text text-anchor="middle" x="524" y="-204.32" font-family="Times New Roman,serif" font-size="14.00">audit</text>
</a>
</g>
</g>
<!-- com.example.sms.domain.model.system.audit&#45;&gt;com.example.sms.domain.model.system.user -->
<g id="edge12" class="edge">
<title>com.example.sms.domain.model.system.audit&#45;&gt;com.example.sms.domain.model.system.user</title>
<path fill="none" stroke="black" d="M511.52,-196.86C504.54,-186.44 495.69,-173.23 487.88,-161.56"/>
<polygon fill="black" stroke="black" points="490.94,-159.84 482.46,-153.48 485.12,-163.73 490.94,-159.84"/>
</g>
<!-- com.example.sms.domain.model.system.download -->
<g id="node15" class="node">
<title>com.example.sms.domain.model.system.download</title>
<g id="a_node15"><a xlink:href="./domain.html#com.example.sms.domain.model.system.download" xlink:title="データダウンロード\ndownload">
<polygon fill="#eedd82" stroke="black" points="740.62,-235.88 569.38,-235.88 569.38,-197.12 740.62,-197.12 740.62,-235.88"/>
<text text-anchor="middle" x="655" y="-218.57" font-family="Times New Roman,serif" font-size="14.00">データダウンロード</text>
<text text-anchor="middle" x="655" y="-204.32" font-family="Times New Roman,serif" font-size="14.00">download</text>
</a>
</g>
</g>
</g>
</svg>
