<?xml version="1.0" encoding="UTF-8" standalone="no"?>
<!DOCTYPE svg PUBLIC "-//W3C//DTD SVG 1.1//EN"
 "http://www.w3.org/Graphics/SVG/1.1/DTD/svg11.dtd">
<!-- Generated by graphviz version 12.2.0 (20241103.1931)
 -->
<!-- Title: パッケージ関連図 Pages: 1 -->
<svg width="1009pt" height="256pt"
 viewBox="0.00 0.00 1008.88 256.00" xmlns="http://www.w3.org/2000/svg" xmlns:xlink="http://www.w3.org/1999/xlink">
<g id="graph0" class="graph" transform="scale(1 1) rotate(0) translate(4 252)">
<title>パッケージ関連図</title>
<polygon fill="white" stroke="none" points="-4,4 -4,-252 1004.88,-252 1004.88,4 -4,4"/>
<text text-anchor="middle" x="500.44" y="-4.95" font-family="Times New Roman,serif" font-size="14.00">パッケージ関連図</text>
<g id="clust1" class="cluster">
<title>cluster_com.example.sms.domain.model.master.partner</title>
<polygon fill="lemonchiffon" stroke="#eedd82" stroke-width="2" points="216.25,-89 216.25,-182.5 458.25,-182.5 458.25,-89 216.25,-89"/>
<text text-anchor="middle" x="337.25" y="-165.2" font-family="Times New Roman,serif" font-size="14.00">取引先</text>
<text text-anchor="middle" x="337.25" y="-150.95" font-family="Times New Roman,serif" font-size="14.00">model.master.partner</text>
</g>
<!-- summary -->
<g id="node1" class="node">
<title>summary</title>
<polygon fill="none" stroke="black" points="250.25,-248 66.25,-248 66.25,-190.5 256.25,-190.5 256.25,-242 250.25,-248"/>
<polyline fill="none" stroke="black" points="250.25,-248 250.25,-242"/>
<polyline fill="none" stroke="black" points="256.25,-242 250.25,-242"/>
<text text-anchor="start" x="74.25" y="-230.7" font-family="Times New Roman,serif" font-size="14.00">root: com.example.sms.domain</text>
<text text-anchor="start" x="74.25" y="-214.2" font-family="Times New Roman,serif" font-size="14.00">パッケージ数: 17</text>
<text text-anchor="start" x="74.25" y="-197.7" font-family="Times New Roman,serif" font-size="14.00">関連数: 25</text>
</g>
<!-- com.example.sms.domain.model.master.partner.customer -->
<g id="node2" class="node">
<title>com.example.sms.domain.model.master.partner.customer</title>
<g id="a_node2"><a xlink:href="./domain.html#com.example.sms.domain.model.master.partner.customer" xlink:title="顧客\ncustomer">
<polygon fill="#eedd82" stroke="black" points="290.38,-135.75 224.12,-135.75 224.12,-97 290.38,-97 290.38,-135.75"/>
<text text-anchor="middle" x="257.25" y="-118.45" font-family="Times New Roman,serif" font-size="14.00">顧客</text>
<text text-anchor="middle" x="257.25" y="-104.2" font-family="Times New Roman,serif" font-size="14.00">customer</text>
</a>
</g>
</g>
<!-- com.example.sms.domain.model.master.region -->
<g id="node3" class="node">
<title>com.example.sms.domain.model.master.region</title>
<g id="a_node3"><a xlink:href="./domain.html#com.example.sms.domain.model.master.region" xlink:title="地域\nmodel.master.region">
<polygon fill="#eedd82" stroke="black" points="328.5,-61 200,-61 200,-22.25 328.5,-22.25 328.5,-61"/>
<text text-anchor="middle" x="264.25" y="-43.7" font-family="Times New Roman,serif" font-size="14.00">地域</text>
<text text-anchor="middle" x="264.25" y="-29.45" font-family="Times New Roman,serif" font-size="14.00">model.master.region</text>
</a>
</g>
</g>
<!-- com.example.sms.domain.model.master.partner.customer&#45;&gt;com.example.sms.domain.model.master.region -->
<g id="edge1" class="edge">
<title>com.example.sms.domain.model.master.partner.customer&#45;&gt;com.example.sms.domain.model.master.region</title>
<path fill="none" stroke="black" d="M259.05,-96.64C259.75,-89.34 260.58,-80.79 261.36,-72.68"/>
<polygon fill="black" stroke="black" points="264.83,-73.09 262.31,-62.8 257.87,-72.42 264.83,-73.09"/>
</g>
<!-- com.example.sms.domain.type.mail -->
<g id="node6" class="node">
<title>com.example.sms.domain.type.mail</title>
<g id="a_node6"><a xlink:href="./domain.html#com.example.sms.domain.type.mail" xlink:title="メール\ntype.mail">
<polygon fill="#eedd82" stroke="black" points="414.12,-61 346.38,-61 346.38,-22.25 414.12,-22.25 414.12,-61"/>
<text text-anchor="middle" x="380.25" y="-43.7" font-family="Times New Roman,serif" font-size="14.00">メール</text>
<text text-anchor="middle" x="380.25" y="-29.45" font-family="Times New Roman,serif" font-size="14.00">type.mail</text>
</a>
</g>
</g>
<!-- com.example.sms.domain.model.master.partner.customer&#45;&gt;com.example.sms.domain.type.mail -->
<g id="edge3" class="edge">
<title>com.example.sms.domain.model.master.partner.customer&#45;&gt;com.example.sms.domain.type.mail</title>
<path fill="none" stroke="black" d="M286.53,-96.78C290.78,-94.14 295.12,-91.48 299.25,-89 311.3,-81.77 324.48,-74.12 336.64,-67.16"/>
<polygon fill="black" stroke="black" points="338.3,-70.24 345.26,-62.25 334.84,-64.16 338.3,-70.24"/>
</g>
<!-- com.example.sms.domain.type.address -->
<g id="node7" class="node">
<title>com.example.sms.domain.type.address</title>
<g id="a_node7"><a xlink:href="./domain.html#com.example.sms.domain.type.address" xlink:title="住所\ntype.address">
<polygon fill="#eedd82" stroke="black" points="182,-61 98.5,-61 98.5,-22.25 182,-22.25 182,-61"/>
<text text-anchor="middle" x="140.25" y="-43.7" font-family="Times New Roman,serif" font-size="14.00">住所</text>
<text text-anchor="middle" x="140.25" y="-29.45" font-family="Times New Roman,serif" font-size="14.00">type.address</text>
</a>
</g>
</g>
<!-- com.example.sms.domain.model.master.partner.customer&#45;&gt;com.example.sms.domain.type.address -->
<g id="edge4" class="edge">
<title>com.example.sms.domain.model.master.partner.customer&#45;&gt;com.example.sms.domain.type.address</title>
<path fill="none" stroke="black" d="M227.44,-96.62C223.35,-94.05 219.2,-91.46 215.25,-89 203.89,-81.92 191.55,-74.27 180.22,-67.27"/>
<polygon fill="black" stroke="black" points="182.2,-64.38 171.86,-62.1 178.52,-70.33 182.2,-64.38"/>
</g>
<!-- com.example.sms.domain.type.phone -->
<g id="node11" class="node">
<title>com.example.sms.domain.type.phone</title>
<g id="a_node11"><a xlink:href="./domain.html#com.example.sms.domain.type.phone" xlink:title="電話番号\ntype.phone">
<polygon fill="#eedd82" stroke="black" points="516.75,-61 431.75,-61 431.75,-22.25 516.75,-22.25 516.75,-61"/>
<text text-anchor="middle" x="474.25" y="-43.7" font-family="Times New Roman,serif" font-size="14.00">電話番号</text>
<text text-anchor="middle" x="474.25" y="-29.45" font-family="Times New Roman,serif" font-size="14.00">type.phone</text>
</a>
</g>
</g>
<!-- com.example.sms.domain.model.master.partner.customer&#45;&gt;com.example.sms.domain.type.phone -->
<g id="edge11" class="edge">
<title>com.example.sms.domain.model.master.partner.customer&#45;&gt;com.example.sms.domain.type.phone</title>
<path fill="none" stroke="black" d="M284.09,-96.67C288.98,-93.8 294.16,-91.1 299.25,-89 348.31,-68.75 366.76,-75.81 420.65,-61.5"/>
<polygon fill="black" stroke="black" points="421.38,-64.93 430.07,-58.86 419.49,-58.19 421.38,-64.93"/>
</g>
<!-- com.example.sms.domain.model.master.employee -->
<g id="node4" class="node">
<title>com.example.sms.domain.model.master.employee</title>
<g id="a_node4"><a xlink:href="./domain.html#com.example.sms.domain.model.master.employee" xlink:title="社員\nmodel.master.employee">
<polygon fill="#eedd82" stroke="black" points="720.88,-135.75 573.62,-135.75 573.62,-97 720.88,-97 720.88,-135.75"/>
<text text-anchor="middle" x="647.25" y="-118.45" font-family="Times New Roman,serif" font-size="14.00">社員</text>
<text text-anchor="middle" x="647.25" y="-104.2" font-family="Times New Roman,serif" font-size="14.00">model.master.employee</text>
</a>
</g>
</g>
<!-- com.example.sms.domain.model.system.user -->
<g id="node5" class="node">
<title>com.example.sms.domain.model.system.user</title>
<g id="a_node5"><a xlink:href="./domain.html#com.example.sms.domain.model.system.user" xlink:title="ユーザー\nmodel.system.user">
<polygon fill="#eedd82" stroke="black" points="860.62,-61 741.88,-61 741.88,-22.25 860.62,-22.25 860.62,-61"/>
<text text-anchor="middle" x="801.25" y="-43.7" font-family="Times New Roman,serif" font-size="14.00">ユーザー</text>
<text text-anchor="middle" x="801.25" y="-29.45" font-family="Times New Roman,serif" font-size="14.00">model.system.user</text>
</a>
</g>
</g>
<!-- com.example.sms.domain.model.master.employee&#45;&gt;com.example.sms.domain.model.system.user -->
<g id="edge2" class="edge">
<title>com.example.sms.domain.model.master.employee&#45;&gt;com.example.sms.domain.model.system.user</title>
<path fill="none" stroke="black" d="M686.91,-96.64C706.5,-87.38 730.35,-76.12 751.19,-66.27"/>
<polygon fill="black" stroke="black" points="752.54,-69.51 760.09,-62.07 749.55,-63.18 752.54,-69.51"/>
</g>
<!-- com.example.sms.domain.model.master.employee&#45;&gt;com.example.sms.domain.type.phone -->
<g id="edge8" class="edge">
<title>com.example.sms.domain.model.master.employee&#45;&gt;com.example.sms.domain.type.phone</title>
<path fill="none" stroke="black" d="M602.7,-96.64C579.76,-87 551.63,-75.17 527.55,-65.04"/>
<polygon fill="black" stroke="black" points="529.13,-61.91 518.55,-61.26 526.41,-68.36 529.13,-61.91"/>
</g>
<!-- com.example.sms.domain.model.master.department -->
<g id="node16" class="node">
<title>com.example.sms.domain.model.master.department</title>
<g id="a_node16"><a xlink:href="./domain.html#com.example.sms.domain.model.master.department" xlink:title="部門\nmodel.master.department">
<polygon fill="#eedd82" stroke="black" points="724,-61 568.5,-61 568.5,-22.25 724,-22.25 724,-61"/>
<text text-anchor="middle" x="646.25" y="-43.7" font-family="Times New Roman,serif" font-size="14.00">部門</text>
<text text-anchor="middle" x="646.25" y="-29.45" font-family="Times New Roman,serif" font-size="14.00">model.master.department</text>
</a>
</g>
</g>
<!-- com.example.sms.domain.model.master.employee&#45;&gt;com.example.sms.domain.model.master.department -->
<g id="edge17" class="edge">
<title>com.example.sms.domain.model.master.employee&#45;&gt;com.example.sms.domain.model.master.department</title>
<path fill="none" stroke="red" stroke-width="2" d="M646.84,-85.25C646.78,-81.06 646.72,-76.76 646.66,-72.58"/>
<polygon fill="red" stroke="red" stroke-width="2" points="643.31,-83.66 646.95,-93.61 650.31,-83.57 643.31,-83.66"/>
<polygon fill="red" stroke="red" stroke-width="2" points="650.19,-74.27 646.55,-64.32 643.19,-74.37 650.19,-74.27"/>
</g>
<!-- com.example.sms.domain.model.master.partner -->
<g id="node8" class="node">
<title>com.example.sms.domain.model.master.partner</title>
<g id="a_node8"><a xlink:href="./domain.html#com.example.sms.domain.model.master.partner" xlink:title="取引先\nmodel.master.partner">
<polygon fill="#eedd82" stroke="black" points="206.38,-135.75 74.12,-135.75 74.12,-97 206.38,-97 206.38,-135.75"/>
<text text-anchor="middle" x="140.25" y="-118.45" font-family="Times New Roman,serif" font-size="14.00">取引先</text>
<text text-anchor="middle" x="140.25" y="-104.2" font-family="Times New Roman,serif" font-size="14.00">model.master.partner</text>
</a>
</g>
</g>
<!-- com.example.sms.domain.model.master.partner&#45;&gt;com.example.sms.domain.model.master.partner.customer -->
<g id="edge18" class="edge">
<title>com.example.sms.domain.model.master.partner&#45;&gt;com.example.sms.domain.model.master.partner.customer</title>
<path fill="none" stroke="red" stroke-width="2" d="M217.96,-116.38C218.09,-116.38 218.21,-116.38 218.34,-116.38"/>
<polygon fill="red" stroke="red" stroke-width="2" points="219.55,-112.88 209.55,-116.38 219.55,-119.88 219.55,-112.88"/>
<polygon fill="red" stroke="red" stroke-width="2" points="210.93,-119.88 220.93,-116.38 210.93,-112.88 210.93,-119.88"/>
</g>
<!-- com.example.sms.domain.model.master.partner&#45;&gt;com.example.sms.domain.type.address -->
<g id="edge5" class="edge">
<title>com.example.sms.domain.model.master.partner&#45;&gt;com.example.sms.domain.type.address</title>
<path fill="none" stroke="black" d="M140.25,-96.64C140.25,-89.34 140.25,-80.79 140.25,-72.68"/>
<polygon fill="black" stroke="black" points="143.75,-72.81 140.25,-62.81 136.75,-72.81 143.75,-72.81"/>
</g>
<!-- com.example.sms.domain.type.money -->
<g id="node10" class="node">
<title>com.example.sms.domain.type.money</title>
<g id="a_node10"><a xlink:href="./domain.html#com.example.sms.domain.type.money" xlink:title="通貨\ntype.money">
<polygon fill="#eedd82" stroke="black" points="80.5,-61 0,-61 0,-22.25 80.5,-22.25 80.5,-61"/>
<text text-anchor="middle" x="40.25" y="-43.7" font-family="Times New Roman,serif" font-size="14.00">通貨</text>
<text text-anchor="middle" x="40.25" y="-29.45" font-family="Times New Roman,serif" font-size="14.00">type.money</text>
</a>
</g>
</g>
<!-- com.example.sms.domain.model.master.partner&#45;&gt;com.example.sms.domain.type.money -->
<g id="edge7" class="edge">
<title>com.example.sms.domain.model.master.partner&#45;&gt;com.example.sms.domain.type.money</title>
<path fill="none" stroke="black" d="M114.5,-96.64C102.48,-87.9 88,-77.37 75.04,-67.93"/>
<polygon fill="black" stroke="black" points="77.28,-65.24 67.14,-62.19 73.17,-70.9 77.28,-65.24"/>
</g>
<!-- com.example.sms.domain.model.master.partner.vendor -->
<g id="node9" class="node">
<title>com.example.sms.domain.model.master.partner.vendor</title>
<g id="a_node9"><a xlink:href="./domain.html#com.example.sms.domain.model.master.partner.vendor" xlink:title="仕入先\nvendor">
<polygon fill="#eedd82" stroke="black" points="376.12,-135.75 308.38,-135.75 308.38,-97 376.12,-97 376.12,-135.75"/>
<text text-anchor="middle" x="342.25" y="-118.45" font-family="Times New Roman,serif" font-size="14.00">仕入先</text>
<text text-anchor="middle" x="342.25" y="-104.2" font-family="Times New Roman,serif" font-size="14.00">vendor</text>
</a>
</g>
</g>
<!-- com.example.sms.domain.model.master.partner.vendor&#45;&gt;com.example.sms.domain.type.mail -->
<g id="edge13" class="edge">
<title>com.example.sms.domain.model.master.partner.vendor&#45;&gt;com.example.sms.domain.type.mail</title>
<path fill="none" stroke="black" d="M352.04,-96.64C356.07,-88.92 360.83,-79.8 365.29,-71.27"/>
<polygon fill="black" stroke="black" points="368.27,-73.12 369.8,-62.64 362.06,-69.88 368.27,-73.12"/>
</g>
<!-- com.example.sms.domain.model.master.partner.vendor&#45;&gt;com.example.sms.domain.type.address -->
<g id="edge6" class="edge">
<title>com.example.sms.domain.model.master.partner.vendor&#45;&gt;com.example.sms.domain.type.address</title>
<path fill="none" stroke="black" d="M314.2,-96.55C309.35,-93.77 304.25,-91.12 299.25,-89 256.73,-70.93 240.82,-74.93 193.42,-61.44"/>
<polygon fill="black" stroke="black" points="194.48,-58.1 183.9,-58.6 192.48,-64.81 194.48,-58.1"/>
</g>
<!-- com.example.sms.domain.model.master.partner.vendor&#45;&gt;com.example.sms.domain.model.master.partner -->
<g id="edge19" class="edge">
<title>com.example.sms.domain.model.master.partner.vendor&#45;&gt;com.example.sms.domain.model.master.partner</title>
<path fill="none" stroke="red" stroke-width="2" d="M327.76,-146.25C320.56,-158.72 310.89,-172.57 299.25,-182.5 286.05,-193.76 238.23,-190.1 221.25,-186.5 196.46,-181.24 175.11,-161.71 160.57,-144.6"/>
<polygon fill="red" stroke="red" stroke-width="2" points="330.07,-149.34 331.77,-138.88 323.92,-145.99 330.07,-149.34"/>
<polygon fill="red" stroke="red" stroke-width="2" points="164.5,-143.9 155.5,-138.31 159.05,-148.29 164.5,-143.9"/>
</g>
<!-- com.example.sms.domain.model.master.partner.vendor&#45;&gt;com.example.sms.domain.type.phone -->
<g id="edge14" class="edge">
<title>com.example.sms.domain.model.master.partner.vendor&#45;&gt;com.example.sms.domain.type.phone</title>
<path fill="none" stroke="black" d="M372.16,-96.66C376.52,-94.04 380.98,-91.42 385.25,-89 398.54,-81.47 413.16,-73.66 426.65,-66.65"/>
<polygon fill="black" stroke="black" points="428.08,-69.85 435.35,-62.15 424.86,-63.63 428.08,-69.85"/>
</g>
<!-- com.example.sms.domain.model.master.product -->
<g id="node12" class="node">
<title>com.example.sms.domain.model.master.product</title>
<g id="a_node12"><a xlink:href="./domain.html#com.example.sms.domain.model.master.product" xlink:title="商品\nmodel.master.product">
<polygon fill="#eedd82" stroke="black" points="409.88,-238.62 274.62,-238.62 274.62,-199.88 409.88,-199.88 409.88,-238.62"/>
<text text-anchor="middle" x="342.25" y="-221.32" font-family="Times New Roman,serif" font-size="14.00">商品</text>
<text text-anchor="middle" x="342.25" y="-207.07" font-family="Times New Roman,serif" font-size="14.00">model.master.product</text>
</a>
</g>
</g>
<!-- com.example.sms.domain.model.master.product&#45;&gt;com.example.sms.domain.model.master.partner.vendor -->
<g id="edge10" class="edge">
<title>com.example.sms.domain.model.master.product&#45;&gt;com.example.sms.domain.model.master.partner.vendor</title>
<path fill="none" stroke="black" d="M342.25,-199.75C342.25,-185.05 342.25,-164.21 342.25,-147.17"/>
<polygon fill="black" stroke="black" points="345.75,-147.61 342.25,-137.61 338.75,-147.61 345.75,-147.61"/>
</g>
<!-- com.example.sms.domain.model.master.product&#45;&gt;com.example.sms.domain.type.money -->
<g id="edge9" class="edge">
<title>com.example.sms.domain.model.master.product&#45;&gt;com.example.sms.domain.type.money</title>
<path fill="none" stroke="black" d="M297.3,-199.46C286.94,-195.86 275.85,-192.57 265.25,-190.5 243.42,-186.24 82.01,-197.11 65.25,-182.5 34.42,-155.62 33.04,-104.88 35.89,-72.46"/>
<polygon fill="black" stroke="black" points="39.37,-72.85 36.98,-62.53 32.41,-72.09 39.37,-72.85"/>
</g>
<!-- com.example.sms.domain.type.quantity -->
<g id="node13" class="node">
<title>com.example.sms.domain.type.quantity</title>
<g id="a_node13"><a xlink:href="./domain.html#com.example.sms.domain.type.quantity" xlink:title="数量\ntype.quantity">
<polygon fill="#eedd82" stroke="black" points="555.88,-135.75 468.62,-135.75 468.62,-97 555.88,-97 555.88,-135.75"/>
<text text-anchor="middle" x="512.25" y="-118.45" font-family="Times New Roman,serif" font-size="14.00">数量</text>
<text text-anchor="middle" x="512.25" y="-104.2" font-family="Times New Roman,serif" font-size="14.00">type.quantity</text>
</a>
</g>
</g>
<!-- com.example.sms.domain.model.master.product&#45;&gt;com.example.sms.domain.type.quantity -->
<g id="edge12" class="edge">
<title>com.example.sms.domain.model.master.product&#45;&gt;com.example.sms.domain.type.quantity</title>
<path fill="none" stroke="black" d="M390.1,-199.38C399.35,-196.13 409.03,-193 418.25,-190.5 437.43,-185.29 445.28,-192.85 462.25,-182.5 476.7,-173.68 488.5,-159.04 497,-145.86"/>
<polygon fill="black" stroke="black" points="499.88,-147.86 502.07,-137.49 493.89,-144.24 499.88,-147.86"/>
</g>
<!-- com.example.sms.domain.model.system.auth -->
<g id="node14" class="node">
<title>com.example.sms.domain.model.system.auth</title>
<g id="a_node14"><a xlink:href="./domain.html#com.example.sms.domain.model.system.auth" xlink:title="認証\nmodel.system.auth">
<polygon fill="#eedd82" stroke="black" points="860,-135.75 740.5,-135.75 740.5,-97 860,-97 860,-135.75"/>
<text text-anchor="middle" x="800.25" y="-118.45" font-family="Times New Roman,serif" font-size="14.00">認証</text>
<text text-anchor="middle" x="800.25" y="-104.2" font-family="Times New Roman,serif" font-size="14.00">model.system.auth</text>
</a>
</g>
</g>
<!-- com.example.sms.domain.model.system.auth&#45;&gt;com.example.sms.domain.model.system.user -->
<g id="edge15" class="edge">
<title>com.example.sms.domain.model.system.auth&#45;&gt;com.example.sms.domain.model.system.user</title>
<path fill="none" stroke="black" d="M800.51,-96.64C800.61,-89.34 800.73,-80.79 800.84,-72.68"/>
<polygon fill="black" stroke="black" points="804.33,-72.86 800.97,-62.81 797.34,-72.76 804.33,-72.86"/>
</g>
<!-- com.example.sms.domain.model.system.audit -->
<g id="node15" class="node">
<title>com.example.sms.domain.model.system.audit</title>
<g id="a_node15"><a xlink:href="./domain.html#com.example.sms.domain.model.system.audit" xlink:title="監査\nmodel.system.audit">
<polygon fill="#eedd82" stroke="black" points="1000.88,-135.75 877.62,-135.75 877.62,-97 1000.88,-97 1000.88,-135.75"/>
<text text-anchor="middle" x="939.25" y="-118.45" font-family="Times New Roman,serif" font-size="14.00">監査</text>
<text text-anchor="middle" x="939.25" y="-104.2" font-family="Times New Roman,serif" font-size="14.00">model.system.audit</text>
</a>
</g>
</g>
<!-- com.example.sms.domain.model.system.audit&#45;&gt;com.example.sms.domain.model.system.user -->
<g id="edge16" class="edge">
<title>com.example.sms.domain.model.system.audit&#45;&gt;com.example.sms.domain.model.system.user</title>
<path fill="none" stroke="black" d="M903.71,-96.64C886.33,-87.48 865.2,-76.34 846.66,-66.57"/>
<polygon fill="black" stroke="black" points="848.49,-63.57 838.01,-62 845.22,-69.76 848.49,-63.57"/>
</g>
<!-- com.example.sms.domain.model.master.partner.invoice -->
<g id="node17" class="node">
<title>com.example.sms.domain.model.master.partner.invoice</title>
<g id="a_node17"><a xlink:href="./domain.html#com.example.sms.domain.model.master.partner.invoice" xlink:title="請求\ninvoice">
<polygon fill="#eedd82" stroke="black" points="450.12,-135.75 394.38,-135.75 394.38,-97 450.12,-97 450.12,-135.75"/>
<text text-anchor="middle" x="422.25" y="-118.45" font-family="Times New Roman,serif" font-size="14.00">請求</text>
<text text-anchor="middle" x="422.25" y="-104.2" font-family="Times New Roman,serif" font-size="14.00">invoice</text>
</a>
</g>
</g>
<!-- com.example.sms.domain.model.system.download -->
<g id="node18" class="node">
<title>com.example.sms.domain.model.system.download</title>
<g id="a_node18"><a xlink:href="./domain.html#com.example.sms.domain.model.system.download" xlink:title="データダウンロード\nmodel.system.download">
<polygon fill="#eedd82" stroke="black" points="598.88,-238.62 427.62,-238.62 427.62,-199.88 598.88,-199.88 598.88,-238.62"/>
<text text-anchor="middle" x="513.25" y="-221.32" font-family="Times New Roman,serif" font-size="14.00">データダウンロード</text>
<text text-anchor="middle" x="513.25" y="-207.07" font-family="Times New Roman,serif" font-size="14.00">model.system.download</text>
</a>
</g>
</g>
</g>
</svg>
