<?xml version="1.0" encoding="UTF-8" standalone="no"?>
<!DOCTYPE svg PUBLIC "-//W3C//DTD SVG 1.1//EN"
 "http://www.w3.org/Graphics/SVG/1.1/DTD/svg11.dtd">
<!-- Generated by graphviz version 12.2.0 (20241103.1931)
 -->
<!-- Title: パッケージ関連図 Pages: 1 -->
<svg width="830pt" height="247pt"
 viewBox="0.00 0.00 830.00 247.12" xmlns="http://www.w3.org/2000/svg" xmlns:xlink="http://www.w3.org/1999/xlink">
<g id="graph0" class="graph" transform="scale(1 1) rotate(0) translate(4 243.12)">
<title>パッケージ関連図</title>
<polygon fill="white" stroke="none" points="-4,4 -4,-243.12 826,-243.12 826,4 -4,4"/>
<text text-anchor="middle" x="411" y="-4.95" font-family="Times New Roman,serif" font-size="14.00">パッケージ関連図</text>
<g id="clust1" class="cluster">
<title>cluster_com.example.sms.domain.type</title>
<polygon fill="lemonchiffon" stroke="#eedd82" stroke-width="2" points="403,-30.25 403,-126 814,-126 814,-30.25 403,-30.25"/>
<text text-anchor="middle" x="608.5" y="-108.7" font-family="Times New Roman,serif" font-size="14.00">ドメインモデル(基本型)</text>
<text text-anchor="middle" x="608.5" y="-92.2" font-family="Times New Roman,serif" font-size="14.00">type</text>
</g>
<g id="clust2" class="cluster">
<title>cluster_com.example.sms.domain.model</title>
<polygon fill="lemonchiffon" stroke="#eedd82" stroke-width="2" points="198,-30.25 198,-231.12 395,-231.12 395,-30.25 198,-30.25"/>
<text text-anchor="middle" x="296.5" y="-213.82" font-family="Times New Roman,serif" font-size="14.00">ドメインモデル(複合型)</text>
<text text-anchor="middle" x="296.5" y="-197.32" font-family="Times New Roman,serif" font-size="14.00">model</text>
</g>
<!-- summary -->
<g id="node1" class="node">
<title>summary</title>
<polygon fill="none" stroke="black" points="184,-191.5 0,-191.5 0,-134 190,-134 190,-185.5 184,-191.5"/>
<polyline fill="none" stroke="black" points="184,-191.5 184,-185.5"/>
<polyline fill="none" stroke="black" points="190,-185.5 184,-185.5"/>
<text text-anchor="start" x="8" y="-174.2" font-family="Times New Roman,serif" font-size="14.00">root: com.example.sms.domain</text>
<text text-anchor="start" x="8" y="-157.7" font-family="Times New Roman,serif" font-size="14.00">パッケージ数: 7</text>
<text text-anchor="start" x="8" y="-141.2" font-family="Times New Roman,serif" font-size="14.00">関連数: 6</text>
</g>
<!-- com.example.sms.domain.model.master -->
<g id="node2" class="node">
<title>com.example.sms.domain.model.master</title>
<g id="a_node2"><a xlink:href="./domain.html#com.example.sms.domain.model.master" xlink:title="マスタ\nmaster">
<polygon fill="#eedd82" stroke="black" points="386.88,-182.12 319.12,-182.12 319.12,-143.38 386.88,-143.38 386.88,-182.12"/>
<text text-anchor="middle" x="353" y="-164.82" font-family="Times New Roman,serif" font-size="14.00">マスタ</text>
<text text-anchor="middle" x="353" y="-150.57" font-family="Times New Roman,serif" font-size="14.00">master</text>
</a>
</g>
</g>
<!-- com.example.sms.domain.type.mail -->
<g id="node3" class="node">
<title>com.example.sms.domain.type.mail</title>
<g id="a_node3"><a xlink:href="./domain.html#com.example.sms.domain.type.mail" xlink:title="メール\nmail">
<polygon fill="#eedd82" stroke="black" points="478.88,-77 411.12,-77 411.12,-38.25 478.88,-38.25 478.88,-77"/>
<text text-anchor="middle" x="445" y="-59.7" font-family="Times New Roman,serif" font-size="14.00">メール</text>
<text text-anchor="middle" x="445" y="-45.45" font-family="Times New Roman,serif" font-size="14.00">mail</text>
</a>
</g>
</g>
<!-- com.example.sms.domain.model.master&#45;&gt;com.example.sms.domain.type.mail -->
<g id="edge1" class="edge">
<title>com.example.sms.domain.model.master&#45;&gt;com.example.sms.domain.type.mail</title>
<path fill="none" stroke="black" d="M379.99,-143.03C386.56,-137.88 393.32,-132.04 399,-126 410.02,-114.28 420.32,-99.69 428.37,-87.08"/>
<polygon fill="black" stroke="black" points="431.22,-89.13 433.51,-78.78 425.27,-85.44 431.22,-89.13"/>
</g>
<!-- com.example.sms.domain.type.phone -->
<g id="node4" class="node">
<title>com.example.sms.domain.type.phone</title>
<g id="a_node4"><a xlink:href="./domain.html#com.example.sms.domain.type.phone" xlink:title="電話番号\nphone">
<polygon fill="#eedd82" stroke="black" points="581.5,-77 496.5,-77 496.5,-38.25 581.5,-38.25 581.5,-77"/>
<text text-anchor="middle" x="539" y="-59.7" font-family="Times New Roman,serif" font-size="14.00">電話番号</text>
<text text-anchor="middle" x="539" y="-45.45" font-family="Times New Roman,serif" font-size="14.00">phone</text>
</a>
</g>
</g>
<!-- com.example.sms.domain.model.master&#45;&gt;com.example.sms.domain.type.phone -->
<g id="edge2" class="edge">
<title>com.example.sms.domain.model.master&#45;&gt;com.example.sms.domain.type.phone</title>
<path fill="none" stroke="black" d="M387.16,-158.93C416.09,-155.17 457.6,-146.39 488,-126 502.71,-116.14 514.88,-100.6 523.64,-86.92"/>
<polygon fill="black" stroke="black" points="526.44,-89.07 528.62,-78.7 520.45,-85.44 526.44,-89.07"/>
</g>
<!-- com.example.sms.domain.type.address -->
<g id="node5" class="node">
<title>com.example.sms.domain.type.address</title>
<g id="a_node5"><a xlink:href="./domain.html#com.example.sms.domain.type.address" xlink:title="住所\naddress">
<polygon fill="#eedd82" stroke="black" points="656.25,-77 599.75,-77 599.75,-38.25 656.25,-38.25 656.25,-77"/>
<text text-anchor="middle" x="628" y="-59.7" font-family="Times New Roman,serif" font-size="14.00">住所</text>
<text text-anchor="middle" x="628" y="-45.45" font-family="Times New Roman,serif" font-size="14.00">address</text>
</a>
</g>
</g>
<!-- com.example.sms.domain.model.master&#45;&gt;com.example.sms.domain.type.address -->
<g id="edge3" class="edge">
<title>com.example.sms.domain.model.master&#45;&gt;com.example.sms.domain.type.address</title>
<path fill="none" stroke="black" d="M387.18,-160.3C444.93,-157.26 558.7,-148.52 591,-126 604.13,-116.85 613.08,-101.48 618.88,-87.73"/>
<polygon fill="black" stroke="black" points="622.06,-89.21 622.34,-78.62 615.52,-86.73 622.06,-89.21"/>
</g>
<!-- com.example.sms.domain.type.quantity -->
<g id="node6" class="node">
<title>com.example.sms.domain.type.quantity</title>
<g id="a_node6"><a xlink:href="./domain.html#com.example.sms.domain.type.quantity" xlink:title="数量\nquantity">
<polygon fill="#eedd82" stroke="black" points="734.12,-77 673.88,-77 673.88,-38.25 734.12,-38.25 734.12,-77"/>
<text text-anchor="middle" x="704" y="-59.7" font-family="Times New Roman,serif" font-size="14.00">数量</text>
<text text-anchor="middle" x="704" y="-45.45" font-family="Times New Roman,serif" font-size="14.00">quantity</text>
</a>
</g>
</g>
<!-- com.example.sms.domain.model.master&#45;&gt;com.example.sms.domain.type.quantity -->
<g id="edge4" class="edge">
<title>com.example.sms.domain.model.master&#45;&gt;com.example.sms.domain.type.quantity</title>
<path fill="none" stroke="black" d="M387.11,-161.63C458.31,-160.78 619.91,-155.55 665,-126 678.56,-117.12 687.97,-101.77 694.15,-87.96"/>
<polygon fill="black" stroke="black" points="697.36,-89.36 697.86,-78.78 690.87,-86.74 697.36,-89.36"/>
</g>
<!-- com.example.sms.domain.model.system -->
<g id="node7" class="node">
<title>com.example.sms.domain.model.system</title>
<g id="a_node7"><a xlink:href="./domain.html#com.example.sms.domain.model.system" xlink:title="システム\nsystem">
<polygon fill="#eedd82" stroke="black" points="386.5,-77 301.5,-77 301.5,-38.25 386.5,-38.25 386.5,-77"/>
<text text-anchor="middle" x="344" y="-59.7" font-family="Times New Roman,serif" font-size="14.00">システム</text>
<text text-anchor="middle" x="344" y="-45.45" font-family="Times New Roman,serif" font-size="14.00">system</text>
</a>
</g>
</g>
<!-- com.example.sms.domain.model.master&#45;&gt;com.example.sms.domain.model.system -->
<g id="edge5" class="edge">
<title>com.example.sms.domain.model.master&#45;&gt;com.example.sms.domain.model.system</title>
<path fill="none" stroke="black" d="M351.39,-143.31C350.07,-128.16 348.17,-106.38 346.62,-88.7"/>
<polygon fill="black" stroke="black" points="350.11,-88.42 345.76,-78.76 343.14,-89.02 350.11,-88.42"/>
</g>
<!-- com.example.sms.domain.type.money -->
<g id="node8" class="node">
<title>com.example.sms.domain.type.money</title>
<g id="a_node8"><a xlink:href="./domain.html#com.example.sms.domain.type.money" xlink:title="通貨\nmoney">
<polygon fill="#eedd82" stroke="black" points="806,-77 752,-77 752,-38.25 806,-38.25 806,-77"/>
<text text-anchor="middle" x="779" y="-59.7" font-family="Times New Roman,serif" font-size="14.00">通貨</text>
<text text-anchor="middle" x="779" y="-45.45" font-family="Times New Roman,serif" font-size="14.00">money</text>
</a>
</g>
</g>
<!-- com.example.sms.domain.model.master&#45;&gt;com.example.sms.domain.type.money -->
<g id="edge6" class="edge">
<title>com.example.sms.domain.model.master&#45;&gt;com.example.sms.domain.type.money</title>
<path fill="none" stroke="black" d="M387.17,-160.46C476.78,-156.82 713.68,-145.45 743,-126 756.25,-117.21 764.99,-101.86 770.53,-88.04"/>
<polygon fill="black" stroke="black" points="773.75,-89.45 773.81,-78.86 767.15,-87.1 773.75,-89.45"/>
</g>
</g>
</svg>
