<?xml version="1.0" encoding="UTF-8" standalone="no"?>
<!DOCTYPE svg PUBLIC "-//W3C//DTD SVG 1.1//EN"
 "http://www.w3.org/Graphics/SVG/1.1/DTD/svg11.dtd">
<!-- Generated by graphviz version 12.2.0 (20241103.1931)
 -->
<!-- Title: パッケージ関連図 Pages: 1 -->
<svg width="753pt" height="471pt"
 viewBox="0.00 0.00 753.00 471.38" xmlns="http://www.w3.org/2000/svg" xmlns:xlink="http://www.w3.org/1999/xlink">
<g id="graph0" class="graph" transform="scale(1 1) rotate(0) translate(4 467.38)">
<title>パッケージ関連図</title>
<polygon fill="white" stroke="none" points="-4,4 -4,-467.38 749,-467.38 749,4 -4,4"/>
<text text-anchor="middle" x="372.5" y="-4.95" font-family="Times New Roman,serif" font-size="14.00">パッケージ関連図</text>
<g id="clust1" class="cluster">
<title>cluster_com.example.sms.domain.type</title>
<polygon fill="lemonchiffon" stroke="#eedd82" stroke-width="2" points="403,-30.25 403,-200.75 737,-200.75 737,-30.25 403,-30.25"/>
<text text-anchor="middle" x="570" y="-183.45" font-family="Times New Roman,serif" font-size="14.00">ドメインモデル(基本型)</text>
<text text-anchor="middle" x="570" y="-166.95" font-family="Times New Roman,serif" font-size="14.00">type</text>
</g>
<g id="clust2" class="cluster">
<title>cluster_com.example.sms.domain.model</title>
<polygon fill="lemonchiffon" stroke="#eedd82" stroke-width="2" points="198,-105 198,-455.38 395,-455.38 395,-105 198,-105"/>
<text text-anchor="middle" x="296.5" y="-438.07" font-family="Times New Roman,serif" font-size="14.00">ドメインモデル(複合型)</text>
<text text-anchor="middle" x="296.5" y="-421.57" font-family="Times New Roman,serif" font-size="14.00">model</text>
</g>
<!-- summary -->
<g id="node1" class="node">
<title>summary</title>
<polygon fill="none" stroke="black" points="184,-415.75 0,-415.75 0,-358.25 190,-358.25 190,-409.75 184,-415.75"/>
<polyline fill="none" stroke="black" points="184,-415.75 184,-409.75"/>
<polyline fill="none" stroke="black" points="190,-409.75 184,-409.75"/>
<text text-anchor="start" x="8" y="-398.45" font-family="Times New Roman,serif" font-size="14.00">root: com.example.sms.domain</text>
<text text-anchor="start" x="8" y="-381.95" font-family="Times New Roman,serif" font-size="14.00">パッケージ数: 9</text>
<text text-anchor="start" x="8" y="-365.45" font-family="Times New Roman,serif" font-size="14.00">関連数: 16</text>
</g>
<!-- com.example.sms.domain.model.procurement -->
<g id="node2" class="node">
<title>com.example.sms.domain.model.procurement</title>
<g id="a_node2"><a xlink:href="./domain.html#com.example.sms.domain.model.procurement" xlink:title="調達\nprocurement">
<polygon fill="#eedd82" stroke="black" points="360.5,-406.38 275.5,-406.38 275.5,-367.62 360.5,-367.62 360.5,-406.38"/>
<text text-anchor="middle" x="318" y="-389.07" font-family="Times New Roman,serif" font-size="14.00">調達</text>
<text text-anchor="middle" x="318" y="-374.82" font-family="Times New Roman,serif" font-size="14.00">procurement</text>
</a>
</g>
</g>
<!-- com.example.sms.domain.model.sales -->
<g id="node3" class="node">
<title>com.example.sms.domain.model.sales</title>
<g id="a_node3"><a xlink:href="./domain.html#com.example.sms.domain.model.sales" xlink:title="販売\nsales">
<polygon fill="#eedd82" stroke="black" points="345,-322.25 291,-322.25 291,-283.5 345,-283.5 345,-322.25"/>
<text text-anchor="middle" x="318" y="-304.95" font-family="Times New Roman,serif" font-size="14.00">販売</text>
<text text-anchor="middle" x="318" y="-290.7" font-family="Times New Roman,serif" font-size="14.00">sales</text>
</a>
</g>
</g>
<!-- com.example.sms.domain.model.procurement&#45;&gt;com.example.sms.domain.model.sales -->
<g id="edge1" class="edge">
<title>com.example.sms.domain.model.procurement&#45;&gt;com.example.sms.domain.model.sales</title>
<path fill="none" stroke="black" d="M318,-367.36C318,-357.56 318,-345.3 318,-334.18"/>
<polygon fill="black" stroke="black" points="321.5,-334.23 318,-324.23 314.5,-334.23 321.5,-334.23"/>
</g>
<!-- com.example.sms.domain.model.master -->
<g id="node4" class="node">
<title>com.example.sms.domain.model.master</title>
<g id="a_node4"><a xlink:href="./domain.html#com.example.sms.domain.model.master" xlink:title="マスタ\nmaster">
<polygon fill="#eedd82" stroke="black" points="386.88,-247.5 319.12,-247.5 319.12,-208.75 386.88,-208.75 386.88,-247.5"/>
<text text-anchor="middle" x="353" y="-230.2" font-family="Times New Roman,serif" font-size="14.00">マスタ</text>
<text text-anchor="middle" x="353" y="-215.95" font-family="Times New Roman,serif" font-size="14.00">master</text>
</a>
</g>
</g>
<!-- com.example.sms.domain.model.procurement&#45;&gt;com.example.sms.domain.model.master -->
<g id="edge13" class="edge">
<title>com.example.sms.domain.model.procurement&#45;&gt;com.example.sms.domain.model.master</title>
<path fill="none" stroke="black" d="M331.97,-367.31C340.15,-355.17 349.7,-338.6 354,-322.25 359.43,-301.6 358.99,-277.47 357.29,-258.95"/>
<polygon fill="black" stroke="black" points="360.79,-258.74 356.21,-249.18 353.83,-259.51 360.79,-258.74"/>
</g>
<!-- com.example.sms.domain.type.quantity -->
<g id="node6" class="node">
<title>com.example.sms.domain.type.quantity</title>
<g id="a_node6"><a xlink:href="./domain.html#com.example.sms.domain.type.quantity" xlink:title="数量\nquantity">
<polygon fill="#eedd82" stroke="black" points="471.12,-77 410.88,-77 410.88,-38.25 471.12,-38.25 471.12,-77"/>
<text text-anchor="middle" x="441" y="-59.7" font-family="Times New Roman,serif" font-size="14.00">数量</text>
<text text-anchor="middle" x="441" y="-45.45" font-family="Times New Roman,serif" font-size="14.00">quantity</text>
</a>
</g>
</g>
<!-- com.example.sms.domain.model.procurement&#45;&gt;com.example.sms.domain.type.quantity -->
<g id="edge4" class="edge">
<title>com.example.sms.domain.model.procurement&#45;&gt;com.example.sms.domain.type.quantity</title>
<path fill="none" stroke="black" d="M302.48,-367.35C293.16,-355.21 281.82,-338.64 275,-322.25 237.69,-232.56 191,-181.4 251,-105 269.09,-81.96 349.12,-68.91 399.37,-62.85"/>
<polygon fill="black" stroke="black" points="399.49,-66.36 409.02,-61.73 398.69,-59.41 399.49,-66.36"/>
</g>
<!-- com.example.sms.domain.type.money -->
<g id="node7" class="node">
<title>com.example.sms.domain.type.money</title>
<g id="a_node7"><a xlink:href="./domain.html#com.example.sms.domain.type.money" xlink:title="通貨\nmoney">
<polygon fill="#eedd82" stroke="black" points="729,-151.75 675,-151.75 675,-113 729,-113 729,-151.75"/>
<text text-anchor="middle" x="702" y="-134.45" font-family="Times New Roman,serif" font-size="14.00">通貨</text>
<text text-anchor="middle" x="702" y="-120.2" font-family="Times New Roman,serif" font-size="14.00">money</text>
</a>
</g>
</g>
<!-- com.example.sms.domain.model.procurement&#45;&gt;com.example.sms.domain.type.money -->
<g id="edge5" class="edge">
<title>com.example.sms.domain.model.procurement&#45;&gt;com.example.sms.domain.type.money</title>
<path fill="none" stroke="black" d="M360.76,-372.49C431.87,-348.19 575.55,-291.06 666,-200.75 676.78,-189.99 685.13,-175.32 691.07,-162.42"/>
<polygon fill="black" stroke="black" points="694.16,-164.09 694.88,-153.52 687.73,-161.33 694.16,-164.09"/>
</g>
<!-- com.example.sms.domain.model.system -->
<g id="node8" class="node">
<title>com.example.sms.domain.model.system</title>
<g id="a_node8"><a xlink:href="./domain.html#com.example.sms.domain.model.system" xlink:title="システム\nsystem">
<polygon fill="#eedd82" stroke="black" points="386.5,-151.75 301.5,-151.75 301.5,-113 386.5,-113 386.5,-151.75"/>
<text text-anchor="middle" x="344" y="-134.45" font-family="Times New Roman,serif" font-size="14.00">システム</text>
<text text-anchor="middle" x="344" y="-120.2" font-family="Times New Roman,serif" font-size="14.00">system</text>
</a>
</g>
</g>
<!-- com.example.sms.domain.model.procurement&#45;&gt;com.example.sms.domain.model.system -->
<g id="edge6" class="edge">
<title>com.example.sms.domain.model.procurement&#45;&gt;com.example.sms.domain.model.system</title>
<path fill="none" stroke="black" d="M304.03,-367.31C295.85,-355.17 286.3,-338.6 282,-322.25 277.62,-305.59 279.65,-300.56 282,-283.5 286.71,-249.31 290.01,-240.72 303,-208.75 309.53,-192.69 318.59,-175.66 326.53,-161.86"/>
<polygon fill="black" stroke="black" points="329.51,-163.7 331.56,-153.31 323.48,-160.15 329.51,-163.7"/>
</g>
<!-- com.example.sms.domain.model.sales&#45;&gt;com.example.sms.domain.model.master -->
<g id="edge10" class="edge">
<title>com.example.sms.domain.model.sales&#45;&gt;com.example.sms.domain.model.master</title>
<path fill="none" stroke="black" d="M327.01,-283.14C330.69,-275.5 335.02,-266.5 339.08,-258.05"/>
<polygon fill="black" stroke="black" points="342.18,-259.69 343.36,-249.16 335.87,-256.65 342.18,-259.69"/>
</g>
<!-- com.example.sms.domain.model.sales&#45;&gt;com.example.sms.domain.type.quantity -->
<g id="edge8" class="edge">
<title>com.example.sms.domain.model.sales&#45;&gt;com.example.sms.domain.type.quantity</title>
<path fill="none" stroke="black" d="M304.38,-283.23C278.7,-245.62 229.3,-159.6 271,-105 286.5,-84.7 354.1,-71.16 399.24,-64.19"/>
<polygon fill="black" stroke="black" points="399.6,-67.67 408.97,-62.74 398.57,-60.75 399.6,-67.67"/>
</g>
<!-- com.example.sms.domain.model.sales&#45;&gt;com.example.sms.domain.type.money -->
<g id="edge16" class="edge">
<title>com.example.sms.domain.model.sales&#45;&gt;com.example.sms.domain.type.money</title>
<path fill="none" stroke="black" d="M345.26,-292.58C398.53,-274.65 520.41,-234.75 625,-208.75 643.02,-204.27 651.07,-211.78 666,-200.75 678.71,-191.36 687.39,-176.12 693.03,-162.5"/>
<polygon fill="black" stroke="black" points="696.18,-164.08 696.4,-153.49 689.62,-161.63 696.18,-164.08"/>
</g>
<!-- com.example.sms.domain.model.sales&#45;&gt;com.example.sms.domain.model.system -->
<g id="edge15" class="edge">
<title>com.example.sms.domain.model.sales&#45;&gt;com.example.sms.domain.model.system</title>
<path fill="none" stroke="black" d="M313.17,-283.12C309.03,-264.16 304.54,-234.13 310,-208.75 313.45,-192.69 320.61,-175.93 327.47,-162.3"/>
<polygon fill="black" stroke="black" points="330.57,-163.94 332.13,-153.46 324.37,-160.68 330.57,-163.94"/>
</g>
<!-- com.example.sms.domain.type.mail -->
<g id="node5" class="node">
<title>com.example.sms.domain.type.mail</title>
<g id="a_node5"><a xlink:href="./domain.html#com.example.sms.domain.type.mail" xlink:title="メール\nmail">
<polygon fill="#eedd82" stroke="black" points="656.88,-151.75 589.12,-151.75 589.12,-113 656.88,-113 656.88,-151.75"/>
<text text-anchor="middle" x="623" y="-134.45" font-family="Times New Roman,serif" font-size="14.00">メール</text>
<text text-anchor="middle" x="623" y="-120.2" font-family="Times New Roman,serif" font-size="14.00">mail</text>
</a>
</g>
</g>
<!-- com.example.sms.domain.model.master&#45;&gt;com.example.sms.domain.type.mail -->
<g id="edge2" class="edge">
<title>com.example.sms.domain.model.master&#45;&gt;com.example.sms.domain.type.mail</title>
<path fill="none" stroke="black" d="M387.22,-223.53C449.64,-216.92 575.95,-203.28 580,-200.75 594.25,-191.83 604.64,-176.27 611.63,-162.35"/>
<polygon fill="black" stroke="black" points="614.69,-164.08 615.69,-153.53 608.33,-161.15 614.69,-164.08"/>
</g>
<!-- com.example.sms.domain.model.master&#45;&gt;com.example.sms.domain.type.quantity -->
<g id="edge3" class="edge">
<title>com.example.sms.domain.model.master&#45;&gt;com.example.sms.domain.type.quantity</title>
<path fill="none" stroke="black" d="M318.67,-219.69C308.69,-215.77 298.91,-209.8 293,-200.75 269.74,-165.11 267.81,-139.3 293,-105 317.2,-72.05 364.76,-61.87 399.45,-59.05"/>
<polygon fill="black" stroke="black" points="399.4,-62.56 409.16,-58.44 398.96,-55.57 399.4,-62.56"/>
</g>
<!-- com.example.sms.domain.model.master&#45;&gt;com.example.sms.domain.type.money -->
<g id="edge14" class="edge">
<title>com.example.sms.domain.model.master&#45;&gt;com.example.sms.domain.type.money</title>
<path fill="none" stroke="black" d="M387.22,-222.96C421.9,-218.86 477.11,-212.66 525,-208.75 540.64,-207.47 652.78,-209.2 666,-200.75 679.49,-192.13 688.27,-176.66 693.77,-162.71"/>
<polygon fill="black" stroke="black" points="697.01,-164.04 697.01,-153.44 690.41,-161.73 697.01,-164.04"/>
</g>
<!-- com.example.sms.domain.model.master&#45;&gt;com.example.sms.domain.model.system -->
<g id="edge11" class="edge">
<title>com.example.sms.domain.model.master&#45;&gt;com.example.sms.domain.model.system</title>
<path fill="none" stroke="black" d="M351.22,-208.6C349.98,-195.72 348.31,-178.26 346.88,-163.4"/>
<polygon fill="black" stroke="black" points="350.39,-163.31 345.95,-153.69 343.42,-163.97 350.39,-163.31"/>
</g>
<!-- com.example.sms.domain.type.phone -->
<g id="node9" class="node">
<title>com.example.sms.domain.type.phone</title>
<g id="a_node9"><a xlink:href="./domain.html#com.example.sms.domain.type.phone" xlink:title="電話番号\nphone">
<polygon fill="#eedd82" stroke="black" points="496.5,-151.75 411.5,-151.75 411.5,-113 496.5,-113 496.5,-151.75"/>
<text text-anchor="middle" x="454" y="-134.45" font-family="Times New Roman,serif" font-size="14.00">電話番号</text>
<text text-anchor="middle" x="454" y="-120.2" font-family="Times New Roman,serif" font-size="14.00">phone</text>
</a>
</g>
</g>
<!-- com.example.sms.domain.model.master&#45;&gt;com.example.sms.domain.type.phone -->
<g id="edge7" class="edge">
<title>com.example.sms.domain.model.master&#45;&gt;com.example.sms.domain.type.phone</title>
<path fill="none" stroke="black" d="M387.12,-209.47C391.28,-206.77 395.35,-203.85 399,-200.75 412.53,-189.28 425.22,-174.14 435,-161.13"/>
<polygon fill="black" stroke="black" points="437.62,-163.47 440.68,-153.33 431.97,-159.35 437.62,-163.47"/>
</g>
<!-- com.example.sms.domain.type.address -->
<g id="node10" class="node">
<title>com.example.sms.domain.type.address</title>
<g id="a_node10"><a xlink:href="./domain.html#com.example.sms.domain.type.address" xlink:title="住所\naddress">
<polygon fill="#eedd82" stroke="black" points="571.25,-151.75 514.75,-151.75 514.75,-113 571.25,-113 571.25,-151.75"/>
<text text-anchor="middle" x="543" y="-134.45" font-family="Times New Roman,serif" font-size="14.00">住所</text>
<text text-anchor="middle" x="543" y="-120.2" font-family="Times New Roman,serif" font-size="14.00">address</text>
</a>
</g>
</g>
<!-- com.example.sms.domain.model.master&#45;&gt;com.example.sms.domain.type.address -->
<g id="edge9" class="edge">
<title>com.example.sms.domain.model.master&#45;&gt;com.example.sms.domain.type.address</title>
<path fill="none" stroke="black" d="M387.23,-224.67C426.36,-221.28 487.4,-214.02 506,-200.75 518.94,-191.52 527.85,-176.28 533.68,-162.63"/>
<polygon fill="black" stroke="black" points="536.84,-164.18 537.17,-153.59 530.31,-161.66 536.84,-164.18"/>
</g>
<!-- com.example.sms.domain.type.money&#45;&gt;com.example.sms.domain.type.quantity -->
<g id="edge12" class="edge">
<title>com.example.sms.domain.type.money&#45;&gt;com.example.sms.domain.type.quantity</title>
<path fill="none" stroke="black" d="M679.27,-112.52C675.05,-109.67 670.53,-107.01 666,-105 605.64,-78.2 529.23,-66.67 482.78,-61.87"/>
<polygon fill="black" stroke="black" points="483.17,-58.39 472.87,-60.9 482.49,-65.35 483.17,-58.39"/>
</g>
</g>
</svg>
