<?xml version="1.0" encoding="UTF-8" standalone="no"?>
<!DOCTYPE svg PUBLIC "-//W3C//DTD SVG 1.1//EN"
 "http://www.w3.org/Graphics/SVG/1.1/DTD/svg11.dtd">
<!-- Generated by graphviz version 12.2.0 (20241103.1931)
 -->
<!-- Title: パッケージ関連図 Pages: 1 -->
<svg width="1029pt" height="587pt"
 viewBox="0.00 0.00 1028.75 587.12" xmlns="http://www.w3.org/2000/svg" xmlns:xlink="http://www.w3.org/1999/xlink">
<g id="graph0" class="graph" transform="scale(1 1) rotate(0) translate(4 583.12)">
<title>パッケージ関連図</title>
<polygon fill="white" stroke="none" points="-4,4 -4,-583.12 1024.75,-583.12 1024.75,4 -4,4"/>
<text text-anchor="middle" x="510.38" y="-4.95" font-family="Times New Roman,serif" font-size="14.00">パッケージ関連図</text>
<g id="clust1" class="cluster">
<title>cluster_com.example.sms.domain.model.system</title>
<polygon fill="lemonchiffon" stroke="#eedd82" stroke-width="2" points="8,-30.25 8,-198.5 444,-198.5 444,-30.25 8,-30.25"/>
<text text-anchor="middle" x="226" y="-181.2" font-family="Times New Roman,serif" font-size="14.00">システム</text>
<text text-anchor="middle" x="226" y="-166.95" font-family="Times New Roman,serif" font-size="14.00">model.system</text>
</g>
<g id="clust2" class="cluster">
<title>cluster_com.example.sms.domain.model.master</title>
<polygon fill="lemonchiffon" stroke="#eedd82" stroke-width="2" points="645,-105 645,-366.75 825,-366.75 825,-105 645,-105"/>
<text text-anchor="middle" x="735" y="-349.45" font-family="Times New Roman,serif" font-size="14.00">マスタ</text>
<text text-anchor="middle" x="735" y="-335.2" font-family="Times New Roman,serif" font-size="14.00">model.master</text>
</g>
<g id="clust3" class="cluster">
<title>cluster_com.example.sms.domain.model.sales</title>
<polygon fill="lemonchiffon" stroke="#eedd82" stroke-width="2" points="421,-273.25 421,-571.12 579,-571.12 579,-273.25 421,-273.25"/>
<text text-anchor="middle" x="500" y="-553.83" font-family="Times New Roman,serif" font-size="14.00">販売</text>
<text text-anchor="middle" x="500" y="-539.58" font-family="Times New Roman,serif" font-size="14.00">model.sales</text>
</g>
<g id="clust4" class="cluster">
<title>cluster_com.example.sms.domain.model.procurement</title>
<polygon fill="lemonchiffon" stroke="#eedd82" stroke-width="2" points="238,-374.75 238,-468.25 361,-468.25 361,-374.75 238,-374.75"/>
<text text-anchor="middle" x="299.5" y="-450.95" font-family="Times New Roman,serif" font-size="14.00">調達</text>
<text text-anchor="middle" x="299.5" y="-436.7" font-family="Times New Roman,serif" font-size="14.00">model.procurement</text>
</g>
<!-- summary -->
<g id="node1" class="node">
<title>summary</title>
<polygon fill="none" stroke="black" points="405,-533.75 221,-533.75 221,-476.25 411,-476.25 411,-527.75 405,-533.75"/>
<polyline fill="none" stroke="black" points="405,-533.75 405,-527.75"/>
<polyline fill="none" stroke="black" points="411,-527.75 405,-527.75"/>
<text text-anchor="start" x="229" y="-516.45" font-family="Times New Roman,serif" font-size="14.00">root: com.example.sms.domain</text>
<text text-anchor="start" x="229" y="-499.95" font-family="Times New Roman,serif" font-size="14.00">パッケージ数: 22</text>
<text text-anchor="start" x="229" y="-483.45" font-family="Times New Roman,serif" font-size="14.00">関連数: 53</text>
</g>
<!-- com.example.sms.domain.model.master.employee -->
<g id="node2" class="node">
<title>com.example.sms.domain.model.master.employee</title>
<g id="a_node2"><a xlink:href="./domain.html#com.example.sms.domain.model.master.employee" xlink:title="社員\nemployee">
<polygon fill="#eedd82" stroke="black" points="722.62,-151.75 653.38,-151.75 653.38,-113 722.62,-113 722.62,-151.75"/>
<text text-anchor="middle" x="688" y="-134.45" font-family="Times New Roman,serif" font-size="14.00">社員</text>
<text text-anchor="middle" x="688" y="-120.2" font-family="Times New Roman,serif" font-size="14.00">employee</text>
</a>
</g>
</g>
<!-- com.example.sms.domain.model.system.user -->
<g id="node3" class="node">
<title>com.example.sms.domain.model.system.user</title>
<g id="a_node3"><a xlink:href="./domain.html#com.example.sms.domain.model.system.user" xlink:title="ユーザー\nuser">
<polygon fill="#eedd82" stroke="black" points="261.5,-77 176.5,-77 176.5,-38.25 261.5,-38.25 261.5,-77"/>
<text text-anchor="middle" x="219" y="-59.7" font-family="Times New Roman,serif" font-size="14.00">ユーザー</text>
<text text-anchor="middle" x="219" y="-45.45" font-family="Times New Roman,serif" font-size="14.00">user</text>
</a>
</g>
</g>
<!-- com.example.sms.domain.model.master.employee&#45;&gt;com.example.sms.domain.model.system.user -->
<g id="edge1" class="edge">
<title>com.example.sms.domain.model.master.employee&#45;&gt;com.example.sms.domain.model.system.user</title>
<path fill="none" stroke="black" d="M652.92,-124.17C625.08,-118.58 585.13,-110.82 550,-105 452.79,-88.91 338.91,-73.76 273.24,-65.38"/>
<polygon fill="black" stroke="black" points="273.81,-61.93 263.45,-64.14 272.93,-68.87 273.81,-61.93"/>
</g>
<!-- com.example.sms.domain.type.phone -->
<g id="node8" class="node">
<title>com.example.sms.domain.type.phone</title>
<g id="a_node8"><a xlink:href="./domain.html#com.example.sms.domain.type.phone" xlink:title="電話番号\ntype.phone">
<polygon fill="#eedd82" stroke="black" points="797.5,-77 712.5,-77 712.5,-38.25 797.5,-38.25 797.5,-77"/>
<text text-anchor="middle" x="755" y="-59.7" font-family="Times New Roman,serif" font-size="14.00">電話番号</text>
<text text-anchor="middle" x="755" y="-45.45" font-family="Times New Roman,serif" font-size="14.00">type.phone</text>
</a>
</g>
</g>
<!-- com.example.sms.domain.model.master.employee&#45;&gt;com.example.sms.domain.type.phone -->
<g id="edge5" class="edge">
<title>com.example.sms.domain.model.master.employee&#45;&gt;com.example.sms.domain.type.phone</title>
<path fill="none" stroke="black" d="M705.25,-112.64C712.83,-104.41 721.88,-94.59 730.17,-85.59"/>
<polygon fill="black" stroke="black" points="732.58,-88.14 736.78,-78.41 727.43,-83.39 732.58,-88.14"/>
</g>
<!-- com.example.sms.domain.model.procurement.purchase -->
<g id="node4" class="node">
<title>com.example.sms.domain.model.procurement.purchase</title>
<g id="a_node4"><a xlink:href="./domain.html#com.example.sms.domain.model.procurement.purchase" xlink:title="発注\npurchase">
<polygon fill="#eedd82" stroke="black" points="319,-421.5 255,-421.5 255,-382.75 319,-382.75 319,-421.5"/>
<text text-anchor="middle" x="287" y="-404.2" font-family="Times New Roman,serif" font-size="14.00">発注</text>
<text text-anchor="middle" x="287" y="-389.95" font-family="Times New Roman,serif" font-size="14.00">purchase</text>
</a>
</g>
</g>
<!-- com.example.sms.domain.model.procurement.purchase&#45;&gt;com.example.sms.domain.model.master.employee -->
<g id="edge26" class="edge">
<title>com.example.sms.domain.model.procurement.purchase&#45;&gt;com.example.sms.domain.model.master.employee</title>
<path fill="none" stroke="black" d="M273.13,-382.38C246.41,-343.86 194.44,-255.31 242,-206.5 253.95,-194.24 533.35,-202.46 550,-198.5 584.85,-190.21 621.39,-172.51 648.11,-157.65"/>
<polygon fill="black" stroke="black" points="649.56,-160.85 656.53,-152.87 646.1,-154.76 649.56,-160.85"/>
</g>
<!-- com.example.sms.domain.model.sales.order -->
<g id="node5" class="node">
<title>com.example.sms.domain.model.sales.order</title>
<g id="a_node5"><a xlink:href="./domain.html#com.example.sms.domain.model.sales.order" xlink:title="受注\norder">
<polygon fill="#eedd82" stroke="black" points="483,-320 429,-320 429,-281.25 483,-281.25 483,-320"/>
<text text-anchor="middle" x="456" y="-302.7" font-family="Times New Roman,serif" font-size="14.00">受注</text>
<text text-anchor="middle" x="456" y="-288.45" font-family="Times New Roman,serif" font-size="14.00">order</text>
</a>
</g>
</g>
<!-- com.example.sms.domain.model.procurement.purchase&#45;&gt;com.example.sms.domain.model.sales.order -->
<g id="edge2" class="edge">
<title>com.example.sms.domain.model.procurement.purchase&#45;&gt;com.example.sms.domain.model.sales.order</title>
<path fill="none" stroke="black" d="M319.39,-391.6C337.05,-385.71 358.93,-377.27 377,-366.75 395.45,-356.01 413.97,-341.02 428.44,-328.13"/>
<polygon fill="black" stroke="black" points="430.73,-330.77 435.77,-321.45 426.02,-325.6 430.73,-330.77"/>
</g>
<!-- com.example.sms.domain.model.master.partner -->
<g id="node6" class="node">
<title>com.example.sms.domain.model.master.partner</title>
<g id="a_node6"><a xlink:href="./domain.html#com.example.sms.domain.model.master.partner" xlink:title="取引先\npartner">
<polygon fill="#eedd82" stroke="black" points="816.88,-245.25 749.12,-245.25 749.12,-206.5 816.88,-206.5 816.88,-245.25"/>
<text text-anchor="middle" x="783" y="-227.95" font-family="Times New Roman,serif" font-size="14.00">取引先</text>
<text text-anchor="middle" x="783" y="-213.7" font-family="Times New Roman,serif" font-size="14.00">partner</text>
</a>
</g>
</g>
<!-- com.example.sms.domain.model.procurement.purchase&#45;&gt;com.example.sms.domain.model.master.partner -->
<g id="edge45" class="edge">
<title>com.example.sms.domain.model.procurement.purchase&#45;&gt;com.example.sms.domain.model.master.partner</title>
<path fill="none" stroke="black" d="M299.51,-382.25C320.08,-353.02 364.1,-297.63 417,-273.25 544.54,-214.48 597.51,-276.89 737.92,-245.2"/>
<polygon fill="black" stroke="black" points="738.69,-248.61 747.6,-242.88 737.06,-241.81 738.69,-248.61"/>
</g>
<!-- com.example.sms.domain.type.quantity -->
<g id="node10" class="node">
<title>com.example.sms.domain.type.quantity</title>
<g id="a_node10"><a xlink:href="./domain.html#com.example.sms.domain.type.quantity" xlink:title="数量\ntype.quantity">
<polygon fill="#eedd82" stroke="black" points="540.62,-151.75 453.38,-151.75 453.38,-113 540.62,-113 540.62,-151.75"/>
<text text-anchor="middle" x="497" y="-134.45" font-family="Times New Roman,serif" font-size="14.00">数量</text>
<text text-anchor="middle" x="497" y="-120.2" font-family="Times New Roman,serif" font-size="14.00">type.quantity</text>
</a>
</g>
</g>
<!-- com.example.sms.domain.model.procurement.purchase&#45;&gt;com.example.sms.domain.type.quantity -->
<g id="edge40" class="edge">
<title>com.example.sms.domain.model.procurement.purchase&#45;&gt;com.example.sms.domain.type.quantity</title>
<path fill="none" stroke="black" d="M254.66,-396.94C220.69,-391.8 170.59,-381.86 159,-366.75 115.66,-310.23 109.34,-257.55 159,-206.5 170.2,-194.99 433.73,-205.87 448,-198.5 463.23,-190.64 475.01,-175.63 483.21,-162.01"/>
<polygon fill="black" stroke="black" points="486.24,-163.76 488.04,-153.32 480.12,-160.36 486.24,-163.76"/>
</g>
<!-- com.example.sms.domain.model.master.product -->
<g id="node11" class="node">
<title>com.example.sms.domain.model.master.product</title>
<g id="a_node11"><a xlink:href="./domain.html#com.example.sms.domain.model.master.product" xlink:title="商品\nproduct">
<polygon fill="#eedd82" stroke="black" points="710.62,-320 653.38,-320 653.38,-281.25 710.62,-281.25 710.62,-320"/>
<text text-anchor="middle" x="682" y="-302.7" font-family="Times New Roman,serif" font-size="14.00">商品</text>
<text text-anchor="middle" x="682" y="-288.45" font-family="Times New Roman,serif" font-size="14.00">product</text>
</a>
</g>
</g>
<!-- com.example.sms.domain.model.procurement.purchase&#45;&gt;com.example.sms.domain.model.master.product -->
<g id="edge49" class="edge">
<title>com.example.sms.domain.model.procurement.purchase&#45;&gt;com.example.sms.domain.model.master.product</title>
<path fill="none" stroke="black" d="M319.36,-393.13C345.53,-387.02 383.41,-378.94 417,-374.75 453.65,-370.18 547.89,-378.19 583,-366.75 608.43,-358.46 633.57,-341.79 652.15,-327.39"/>
<polygon fill="black" stroke="black" points="654.17,-330.26 659.8,-321.28 649.8,-324.79 654.17,-330.26"/>
</g>
<!-- com.example.sms.domain.model.system.autonumber -->
<g id="node15" class="node">
<title>com.example.sms.domain.model.system.autonumber</title>
<g id="a_node15"><a xlink:href="./domain.html#com.example.sms.domain.model.system.autonumber" xlink:title="自動採番\nautonumber">
<polygon fill="#eedd82" stroke="black" points="101.5,-151.75 16.5,-151.75 16.5,-113 101.5,-113 101.5,-151.75"/>
<text text-anchor="middle" x="59" y="-134.45" font-family="Times New Roman,serif" font-size="14.00">自動採番</text>
<text text-anchor="middle" x="59" y="-120.2" font-family="Times New Roman,serif" font-size="14.00">autonumber</text>
</a>
</g>
</g>
<!-- com.example.sms.domain.model.procurement.purchase&#45;&gt;com.example.sms.domain.model.system.autonumber -->
<g id="edge12" class="edge">
<title>com.example.sms.domain.model.procurement.purchase&#45;&gt;com.example.sms.domain.model.system.autonumber</title>
<path fill="none" stroke="black" d="M254.64,-398.37C211.78,-394.07 139.36,-384.4 120,-366.75 62.1,-313.98 56.25,-213.71 57.29,-163.54"/>
<polygon fill="black" stroke="black" points="60.79,-163.83 57.62,-153.72 53.79,-163.6 60.79,-163.83"/>
</g>
<!-- com.example.sms.domain.type.money -->
<g id="node16" class="node">
<title>com.example.sms.domain.type.money</title>
<g id="a_node16"><a xlink:href="./domain.html#com.example.sms.domain.type.money" xlink:title="通貨\ntype.money">
<polygon fill="#eedd82" stroke="black" points="331.25,-245.25 250.75,-245.25 250.75,-206.5 331.25,-206.5 331.25,-245.25"/>
<text text-anchor="middle" x="291" y="-227.95" font-family="Times New Roman,serif" font-size="14.00">通貨</text>
<text text-anchor="middle" x="291" y="-213.7" font-family="Times New Roman,serif" font-size="14.00">type.money</text>
</a>
</g>
</g>
<!-- com.example.sms.domain.model.procurement.purchase&#45;&gt;com.example.sms.domain.type.money -->
<g id="edge17" class="edge">
<title>com.example.sms.domain.model.procurement.purchase&#45;&gt;com.example.sms.domain.type.money</title>
<path fill="none" stroke="black" d="M287.43,-382.48C288.12,-352.42 289.48,-293.01 290.31,-256.92"/>
<polygon fill="black" stroke="black" points="293.8,-257.24 290.53,-247.17 286.81,-257.08 293.8,-257.24"/>
</g>
<!-- com.example.sms.domain.model.sales.order&#45;&gt;com.example.sms.domain.model.master.employee -->
<g id="edge32" class="edge">
<title>com.example.sms.domain.model.sales.order&#45;&gt;com.example.sms.domain.model.master.employee</title>
<path fill="none" stroke="black" d="M477.89,-281.05C501,-261.72 538.75,-230.91 573,-206.5 596.89,-189.47 624.62,-171.78 646.86,-158.06"/>
<polygon fill="black" stroke="black" points="648.68,-161.06 655.37,-152.85 645.02,-155.09 648.68,-161.06"/>
</g>
<!-- com.example.sms.domain.model.sales.order&#45;&gt;com.example.sms.domain.model.master.partner -->
<g id="edge3" class="edge">
<title>com.example.sms.domain.model.sales.order&#45;&gt;com.example.sms.domain.model.master.partner</title>
<path fill="none" stroke="black" d="M483.49,-296.36C532.9,-290.07 639.95,-274.52 737.99,-245.51"/>
<polygon fill="black" stroke="black" points="738.97,-248.88 747.53,-242.63 736.95,-242.17 738.97,-248.88"/>
</g>
<!-- com.example.sms.domain.model.sales.order&#45;&gt;com.example.sms.domain.type.quantity -->
<g id="edge37" class="edge">
<title>com.example.sms.domain.model.sales.order&#45;&gt;com.example.sms.domain.type.quantity</title>
<path fill="none" stroke="black" d="M439.12,-280.98C423.18,-261.03 404.05,-229.2 421,-206.5 428.49,-196.47 437.72,-205.64 448,-198.5 461.71,-188.98 473.18,-174.41 481.58,-161.46"/>
<polygon fill="black" stroke="black" points="484.35,-163.64 486.59,-153.28 478.38,-159.98 484.35,-163.64"/>
</g>
<!-- com.example.sms.domain.model.sales.order&#45;&gt;com.example.sms.domain.model.master.product -->
<g id="edge47" class="edge">
<title>com.example.sms.domain.model.sales.order&#45;&gt;com.example.sms.domain.model.master.product</title>
<path fill="none" stroke="black" d="M483.37,-300.62C536.13,-300.62 588.89,-300.62 641.65,-300.62"/>
<polygon fill="black" stroke="black" points="641.39,-304.13 651.39,-300.63 641.39,-297.13 641.39,-304.13"/>
</g>
<!-- com.example.sms.domain.model.master.department -->
<g id="node13" class="node">
<title>com.example.sms.domain.model.master.department</title>
<g id="a_node13"><a xlink:href="./domain.html#com.example.sms.domain.model.master.department" xlink:title="部門\ndepartment">
<polygon fill="#eedd82" stroke="black" points="730.75,-245.25 653.25,-245.25 653.25,-206.5 730.75,-206.5 730.75,-245.25"/>
<text text-anchor="middle" x="692" y="-227.95" font-family="Times New Roman,serif" font-size="14.00">部門</text>
<text text-anchor="middle" x="692" y="-213.7" font-family="Times New Roman,serif" font-size="14.00">department</text>
</a>
</g>
</g>
<!-- com.example.sms.domain.model.sales.order&#45;&gt;com.example.sms.domain.model.master.department -->
<g id="edge14" class="edge">
<title>com.example.sms.domain.model.sales.order&#45;&gt;com.example.sms.domain.model.master.department</title>
<path fill="none" stroke="black" d="M483.07,-291.28C521.82,-279.33 593.77,-257.15 642.27,-242.2"/>
<polygon fill="black" stroke="black" points="643.18,-245.59 651.7,-239.3 641.12,-238.9 643.18,-245.59"/>
</g>
<!-- com.example.sms.domain.model.sales.order&#45;&gt;com.example.sms.domain.model.system.autonumber -->
<g id="edge18" class="edge">
<title>com.example.sms.domain.model.sales.order&#45;&gt;com.example.sms.domain.model.system.autonumber</title>
<path fill="none" stroke="black" d="M440.18,-281.12C419.69,-258.69 381.64,-221.97 340,-206.5 316.13,-197.63 133.75,-209.94 111,-198.5 95.19,-190.55 82.62,-175.33 73.8,-161.6"/>
<polygon fill="black" stroke="black" points="76.96,-160.08 68.82,-153.29 70.96,-163.67 76.96,-160.08"/>
</g>
<!-- com.example.sms.domain.model.sales.order&#45;&gt;com.example.sms.domain.type.money -->
<g id="edge16" class="edge">
<title>com.example.sms.domain.model.sales.order&#45;&gt;com.example.sms.domain.type.money</title>
<path fill="none" stroke="black" d="M428.68,-280.92C424.2,-278.18 419.54,-275.53 415,-273.25 401.7,-266.58 370.14,-254.8 342.19,-244.78"/>
<polygon fill="black" stroke="black" points="343.72,-241.61 333.13,-241.55 341.37,-248.2 343.72,-241.61"/>
</g>
<!-- com.example.sms.domain.model.master.partner&#45;&gt;com.example.sms.domain.type.phone -->
<g id="edge42" class="edge">
<title>com.example.sms.domain.model.master.partner&#45;&gt;com.example.sms.domain.type.phone</title>
<path fill="none" stroke="black" d="M800.23,-206.19C801.76,-203.74 803.07,-201.15 804,-198.5 817.71,-159.27 820.43,-143.17 804,-105 800.82,-97.6 795.81,-90.84 790.19,-84.89"/>
<polygon fill="black" stroke="black" points="793,-82.73 783.35,-78.36 788.16,-87.8 793,-82.73"/>
</g>
<!-- com.example.sms.domain.type.mail -->
<g id="node14" class="node">
<title>com.example.sms.domain.type.mail</title>
<g id="a_node14"><a xlink:href="./domain.html#com.example.sms.domain.type.mail" xlink:title="メール\ntype.mail">
<polygon fill="#eedd82" stroke="black" points="918.88,-151.75 851.12,-151.75 851.12,-113 918.88,-113 918.88,-151.75"/>
<text text-anchor="middle" x="885" y="-134.45" font-family="Times New Roman,serif" font-size="14.00">メール</text>
<text text-anchor="middle" x="885" y="-120.2" font-family="Times New Roman,serif" font-size="14.00">type.mail</text>
</a>
</g>
</g>
<!-- com.example.sms.domain.model.master.partner&#45;&gt;com.example.sms.domain.type.mail -->
<g id="edge10" class="edge">
<title>com.example.sms.domain.model.master.partner&#45;&gt;com.example.sms.domain.type.mail</title>
<path fill="none" stroke="black" d="M817.05,-207.13C821.22,-204.45 825.31,-201.55 829,-198.5 842.19,-187.6 854.81,-173.39 864.71,-161.02"/>
<polygon fill="black" stroke="black" points="867.42,-163.25 870.8,-153.2 861.89,-158.95 867.42,-163.25"/>
</g>
<!-- com.example.sms.domain.model.master.partner&#45;&gt;com.example.sms.domain.type.money -->
<g id="edge22" class="edge">
<title>com.example.sms.domain.model.master.partner&#45;&gt;com.example.sms.domain.type.money</title>
<path fill="none" stroke="black" d="M758.51,-245.65C750.26,-251.16 740.68,-256.41 731,-259.25 696.46,-269.38 685.96,-260.92 650,-259.25 540.28,-254.16 412.29,-240.37 342.64,-232.19"/>
<polygon fill="black" stroke="black" points="343.41,-228.76 333.07,-231.06 342.59,-235.71 343.41,-228.76"/>
</g>
<!-- com.example.sms.domain.type.address -->
<g id="node18" class="node">
<title>com.example.sms.domain.type.address</title>
<g id="a_node18"><a xlink:href="./domain.html#com.example.sms.domain.type.address" xlink:title="住所\ntype.address">
<polygon fill="#eedd82" stroke="black" points="1020.75,-151.75 937.25,-151.75 937.25,-113 1020.75,-113 1020.75,-151.75"/>
<text text-anchor="middle" x="979" y="-134.45" font-family="Times New Roman,serif" font-size="14.00">住所</text>
<text text-anchor="middle" x="979" y="-120.2" font-family="Times New Roman,serif" font-size="14.00">type.address</text>
</a>
</g>
</g>
<!-- com.example.sms.domain.model.master.partner&#45;&gt;com.example.sms.domain.type.address -->
<g id="edge21" class="edge">
<title>com.example.sms.domain.model.master.partner&#45;&gt;com.example.sms.domain.type.address</title>
<path fill="none" stroke="black" d="M817.35,-225.36C848.35,-224.31 894.16,-218.93 928,-198.5 942.6,-189.69 954.62,-175.04 963.33,-161.87"/>
<polygon fill="black" stroke="black" points="966.23,-163.83 968.52,-153.49 960.28,-160.14 966.23,-163.83"/>
</g>
<!-- com.example.sms.domain.model.master.region -->
<g id="node19" class="node">
<title>com.example.sms.domain.model.master.region</title>
<g id="a_node19"><a xlink:href="./domain.html#com.example.sms.domain.model.master.region" xlink:title="地域\nregion">
<polygon fill="#eedd82" stroke="black" points="795,-151.75 741,-151.75 741,-113 795,-113 795,-151.75"/>
<text text-anchor="middle" x="768" y="-134.45" font-family="Times New Roman,serif" font-size="14.00">地域</text>
<text text-anchor="middle" x="768" y="-120.2" font-family="Times New Roman,serif" font-size="14.00">region</text>
</a>
</g>
</g>
<!-- com.example.sms.domain.model.master.partner&#45;&gt;com.example.sms.domain.model.master.region -->
<g id="edge34" class="edge">
<title>com.example.sms.domain.model.master.partner&#45;&gt;com.example.sms.domain.model.master.region</title>
<path fill="none" stroke="black" d="M779.96,-206.36C777.94,-194.04 775.25,-177.57 772.92,-163.4"/>
<polygon fill="black" stroke="black" points="776.4,-162.97 771.33,-153.67 769.49,-164.11 776.4,-162.97"/>
</g>
<!-- com.example.sms.domain.model.sales.payment -->
<g id="node7" class="node">
<title>com.example.sms.domain.model.sales.payment</title>
<g id="a_node7"><a xlink:href="./domain.html#com.example.sms.domain.model.sales.payment" xlink:title="入出金\npayment">
<polygon fill="#eedd82" stroke="black" points="570.88,-524.38 503.12,-524.38 503.12,-485.62 570.88,-485.62 570.88,-524.38"/>
<text text-anchor="middle" x="537" y="-507.07" font-family="Times New Roman,serif" font-size="14.00">入出金</text>
<text text-anchor="middle" x="537" y="-492.82" font-family="Times New Roman,serif" font-size="14.00">payment</text>
</a>
</g>
</g>
<!-- com.example.sms.domain.model.sales.payment&#45;&gt;com.example.sms.domain.model.master.partner -->
<g id="edge4" class="edge">
<title>com.example.sms.domain.model.sales.payment&#45;&gt;com.example.sms.domain.model.master.partner</title>
<path fill="none" stroke="black" d="M570.95,-502.73C634.45,-499.83 768.33,-491.14 808,-468.25 888.85,-421.6 936.67,-351.64 886,-273.25 873.17,-253.41 849.6,-241.97 828.24,-235.42"/>
<polygon fill="black" stroke="black" points="829.37,-232.1 818.8,-232.82 827.52,-238.85 829.37,-232.1"/>
</g>
<!-- com.example.sms.domain.model.sales.payment&#45;&gt;com.example.sms.domain.model.master.department -->
<g id="edge9" class="edge">
<title>com.example.sms.domain.model.sales.payment&#45;&gt;com.example.sms.domain.model.master.department</title>
<path fill="none" stroke="black" d="M571.25,-501.96C641.48,-495.66 800.43,-470.11 863,-366.75 884.52,-331.2 888.92,-305.73 863,-273.25 830.15,-232.08 797.81,-257.93 742.19,-245.32"/>
<polygon fill="black" stroke="black" points="743.16,-241.96 732.6,-242.77 741.36,-248.72 743.16,-241.96"/>
</g>
<!-- com.example.sms.domain.model.sales.payment&#45;&gt;com.example.sms.domain.type.money -->
<g id="edge15" class="edge">
<title>com.example.sms.domain.model.sales.payment&#45;&gt;com.example.sms.domain.type.money</title>
<path fill="none" stroke="black" d="M513.14,-485.4C507.19,-481.69 500.62,-478.31 494,-476.25 480.2,-471.95 244.06,-478.62 234,-468.25 176.95,-409.42 236.23,-304.66 270.4,-254.78"/>
<polygon fill="black" stroke="black" points="273.12,-257 275.99,-246.8 267.38,-252.98 273.12,-257"/>
</g>
<!-- com.example.sms.domain.model.master.payment -->
<g id="node17" class="node">
<title>com.example.sms.domain.model.master.payment</title>
<g id="a_node17"><a xlink:href="./domain.html#com.example.sms.domain.model.master.payment" xlink:title="入出金\npayment">
<polygon fill="#eedd82" stroke="black" points="796.88,-320 729.12,-320 729.12,-281.25 796.88,-281.25 796.88,-320"/>
<text text-anchor="middle" x="763" y="-302.7" font-family="Times New Roman,serif" font-size="14.00">入出金</text>
<text text-anchor="middle" x="763" y="-288.45" font-family="Times New Roman,serif" font-size="14.00">payment</text>
</a>
</g>
</g>
<!-- com.example.sms.domain.model.sales.payment&#45;&gt;com.example.sms.domain.model.master.payment -->
<g id="edge23" class="edge">
<title>com.example.sms.domain.model.sales.payment&#45;&gt;com.example.sms.domain.model.master.payment</title>
<path fill="none" stroke="black" d="M568.39,-485.22C607.04,-461.08 673.3,-416.33 720,-366.75 730.38,-355.73 739.89,-341.93 747.31,-329.87"/>
<polygon fill="black" stroke="black" points="750.15,-331.93 752.25,-321.55 744.14,-328.36 750.15,-331.93"/>
</g>
<!-- com.example.sms.domain.model.sales.shipping -->
<g id="node9" class="node">
<title>com.example.sms.domain.model.sales.shipping</title>
<g id="a_node9"><a xlink:href="./domain.html#com.example.sms.domain.model.sales.shipping" xlink:title="出荷\nshipping">
<polygon fill="#eedd82" stroke="black" points="571.25,-421.5 508.75,-421.5 508.75,-382.75 571.25,-382.75 571.25,-421.5"/>
<text text-anchor="middle" x="540" y="-404.2" font-family="Times New Roman,serif" font-size="14.00">出荷</text>
<text text-anchor="middle" x="540" y="-389.95" font-family="Times New Roman,serif" font-size="14.00">shipping</text>
</a>
</g>
</g>
<!-- com.example.sms.domain.model.sales.shipping&#45;&gt;com.example.sms.domain.model.master.employee -->
<g id="edge11" class="edge">
<title>com.example.sms.domain.model.sales.shipping&#45;&gt;com.example.sms.domain.model.master.employee</title>
<path fill="none" stroke="black" d="M571.73,-389.25C582.39,-383.85 593.47,-376.45 601,-366.75 646.21,-308.49 615.15,-274.37 644,-206.5 650.6,-190.96 660.05,-174.77 668.49,-161.58"/>
<polygon fill="black" stroke="black" points="671.3,-163.69 673.86,-153.41 665.45,-159.84 671.3,-163.69"/>
</g>
<!-- com.example.sms.domain.model.sales.shipping&#45;&gt;com.example.sms.domain.model.sales.order -->
<g id="edge13" class="edge">
<title>com.example.sms.domain.model.sales.shipping&#45;&gt;com.example.sms.domain.model.sales.order</title>
<path fill="none" stroke="black" d="M524.2,-382.41C511.41,-367.26 493.23,-345.72 478.85,-328.69"/>
<polygon fill="black" stroke="black" points="481.83,-326.8 472.71,-321.41 476.48,-331.31 481.83,-326.8"/>
</g>
<!-- com.example.sms.domain.model.sales.shipping&#45;&gt;com.example.sms.domain.model.master.partner -->
<g id="edge30" class="edge">
<title>com.example.sms.domain.model.sales.shipping&#45;&gt;com.example.sms.domain.model.master.partner</title>
<path fill="none" stroke="black" d="M571.62,-400.11C649.13,-397.31 843.72,-388.19 863,-366.75 890.79,-335.85 883.75,-309.26 863,-273.25 855.07,-259.48 841.31,-249.43 827.42,-242.27"/>
<polygon fill="black" stroke="black" points="829.27,-239.28 818.73,-238.21 826.3,-245.62 829.27,-239.28"/>
</g>
<!-- com.example.sms.domain.model.sales.shipping&#45;&gt;com.example.sms.domain.type.quantity -->
<g id="edge6" class="edge">
<title>com.example.sms.domain.model.sales.shipping&#45;&gt;com.example.sms.domain.type.quantity</title>
<path fill="none" stroke="black" d="M536.98,-382.3C529.62,-336.5 510.74,-218.96 501.82,-163.37"/>
<polygon fill="black" stroke="black" points="505.3,-162.99 500.26,-153.68 498.39,-164.1 505.3,-162.99"/>
</g>
<!-- com.example.sms.domain.model.sales.shipping&#45;&gt;com.example.sms.domain.model.master.product -->
<g id="edge41" class="edge">
<title>com.example.sms.domain.model.sales.shipping&#45;&gt;com.example.sms.domain.model.master.product</title>
<path fill="none" stroke="black" d="M571.53,-395.66C592.35,-390.82 619.32,-382.05 639,-366.75 651.29,-357.2 661.2,-343.11 668.4,-330.48"/>
<polygon fill="black" stroke="black" points="671.48,-332.15 673.09,-321.68 665.3,-328.86 671.48,-332.15"/>
</g>
<!-- com.example.sms.domain.model.sales.shipping&#45;&gt;com.example.sms.domain.model.master.department -->
<g id="edge19" class="edge">
<title>com.example.sms.domain.model.sales.shipping&#45;&gt;com.example.sms.domain.model.master.department</title>
<path fill="none" stroke="black" d="M571.68,-399.82C644.99,-396.49 821.42,-386.47 839,-366.75 866.66,-335.73 864.07,-306.39 839,-273.25 813.41,-239.42 787.44,-256.66 742.14,-245.4"/>
<polygon fill="black" stroke="black" points="743.22,-242.07 732.64,-242.63 741.26,-248.79 743.22,-242.07"/>
</g>
<!-- com.example.sms.domain.model.sales.shipping&#45;&gt;com.example.sms.domain.type.money -->
<g id="edge27" class="edge">
<title>com.example.sms.domain.model.sales.shipping&#45;&gt;com.example.sms.domain.type.money</title>
<path fill="none" stroke="black" d="M515.59,-382.41C510.65,-379.39 505.33,-376.64 500,-374.75 466.33,-362.79 450.1,-386.01 420,-366.75 379.39,-340.76 398.61,-307.82 365,-273.25 357.15,-265.18 347.63,-257.89 338.07,-251.6"/>
<polygon fill="black" stroke="black" points="340.17,-248.79 329.84,-246.47 336.47,-254.73 340.17,-248.79"/>
</g>
<!-- com.example.sms.domain.model.master.product&#45;&gt;com.example.sms.domain.model.master.partner -->
<g id="edge36" class="edge">
<title>com.example.sms.domain.model.master.product&#45;&gt;com.example.sms.domain.model.master.partner</title>
<path fill="none" stroke="black" d="M708.01,-280.89C720.14,-272.15 734.77,-261.62 747.87,-252.18"/>
<polygon fill="black" stroke="black" points="749.78,-255.12 755.85,-246.43 745.69,-249.44 749.78,-255.12"/>
</g>
<!-- com.example.sms.domain.model.master.product&#45;&gt;com.example.sms.domain.type.quantity -->
<g id="edge7" class="edge">
<title>com.example.sms.domain.model.master.product&#45;&gt;com.example.sms.domain.type.quantity</title>
<path fill="none" stroke="black" d="M661.14,-280.88C628.16,-251.24 563.87,-193.47 526.28,-159.69"/>
<polygon fill="black" stroke="black" points="528.69,-157.15 518.91,-153.07 524.01,-162.35 528.69,-157.15"/>
</g>
<!-- com.example.sms.domain.model.master.product&#45;&gt;com.example.sms.domain.type.money -->
<g id="edge24" class="edge">
<title>com.example.sms.domain.model.master.product&#45;&gt;com.example.sms.domain.type.money</title>
<path fill="none" stroke="black" d="M653.16,-291.1C633.51,-285.5 606.84,-278.3 583,-273.25 499.44,-255.53 401.13,-241.25 342.56,-233.43"/>
<polygon fill="black" stroke="black" points="343.26,-229.99 332.89,-232.15 342.34,-236.93 343.26,-229.99"/>
</g>
<!-- com.example.sms.domain.model.sales.sales -->
<g id="node12" class="node">
<title>com.example.sms.domain.model.sales.sales</title>
<g id="a_node12"><a xlink:href="./domain.html#com.example.sms.domain.model.sales.sales" xlink:title="売上\nsales">
<polygon fill="#eedd82" stroke="black" points="491,-421.5 437,-421.5 437,-382.75 491,-382.75 491,-421.5"/>
<text text-anchor="middle" x="464" y="-404.2" font-family="Times New Roman,serif" font-size="14.00">売上</text>
<text text-anchor="middle" x="464" y="-389.95" font-family="Times New Roman,serif" font-size="14.00">sales</text>
</a>
</g>
</g>
<!-- com.example.sms.domain.model.sales.sales&#45;&gt;com.example.sms.domain.model.master.employee -->
<g id="edge28" class="edge">
<title>com.example.sms.domain.model.sales.sales&#45;&gt;com.example.sms.domain.model.master.employee</title>
<path fill="none" stroke="black" d="M490.08,-382.56C496.23,-377.71 502.56,-372.28 508,-366.75 570.58,-303.13 574.08,-276.85 629,-206.5 640.83,-191.35 654.26,-174.66 665.32,-161.05"/>
<polygon fill="black" stroke="black" points="667.99,-163.32 671.6,-153.35 662.56,-158.9 667.99,-163.32"/>
</g>
<!-- com.example.sms.domain.model.sales.sales&#45;&gt;com.example.sms.domain.model.sales.order -->
<g id="edge8" class="edge">
<title>com.example.sms.domain.model.sales.sales&#45;&gt;com.example.sms.domain.model.sales.order</title>
<path fill="none" stroke="black" d="M462.5,-382.41C461.34,-368.1 459.73,-348.07 458.41,-331.54"/>
<polygon fill="black" stroke="black" points="461.91,-331.45 457.62,-321.76 454.93,-332.01 461.91,-331.45"/>
</g>
<!-- com.example.sms.domain.model.sales.sales&#45;&gt;com.example.sms.domain.model.master.partner -->
<g id="edge43" class="edge">
<title>com.example.sms.domain.model.sales.sales&#45;&gt;com.example.sms.domain.model.master.partner</title>
<path fill="none" stroke="black" d="M485.27,-382.36C489.85,-379.26 494.87,-376.5 500,-374.75 517.36,-368.84 817.19,-379.87 830,-366.75 859.03,-337.01 846.03,-311.59 830,-273.25 826.97,-266 822.19,-259.31 816.82,-253.4"/>
<polygon fill="black" stroke="black" points="819.31,-250.93 809.74,-246.38 814.38,-255.91 819.31,-250.93"/>
</g>
<!-- com.example.sms.domain.model.sales.sales&#45;&gt;com.example.sms.domain.type.quantity -->
<g id="edge51" class="edge">
<title>com.example.sms.domain.model.sales.sales&#45;&gt;com.example.sms.domain.type.quantity</title>
<path fill="none" stroke="black" d="M482.78,-382.55C486.52,-377.78 489.93,-372.38 492,-366.75 495.44,-357.39 496.55,-224.32 496.87,-163.42"/>
<polygon fill="black" stroke="black" points="500.37,-163.45 496.92,-153.44 493.37,-163.42 500.37,-163.45"/>
</g>
<!-- com.example.sms.domain.model.sales.sales&#45;&gt;com.example.sms.domain.model.master.product -->
<g id="edge39" class="edge">
<title>com.example.sms.domain.model.sales.sales&#45;&gt;com.example.sms.domain.model.master.product</title>
<path fill="none" stroke="black" d="M485.74,-382.31C490.21,-379.31 495.06,-376.58 500,-374.75 542.21,-359.07 559.15,-383.37 601,-366.75 622.17,-358.34 642.15,-342.39 656.98,-328.38"/>
<polygon fill="black" stroke="black" points="659.31,-330.99 664,-321.49 654.41,-326 659.31,-330.99"/>
</g>
<!-- com.example.sms.domain.model.sales.sales&#45;&gt;com.example.sms.domain.model.master.department -->
<g id="edge31" class="edge">
<title>com.example.sms.domain.model.sales.sales&#45;&gt;com.example.sms.domain.model.master.department</title>
<path fill="none" stroke="black" d="M485.27,-382.36C489.85,-379.27 494.87,-376.5 500,-374.75 516.09,-369.25 794.13,-378.93 806,-366.75 835,-336.98 829.2,-307.73 806,-273.25 804.97,-271.72 771.83,-258.32 741.54,-246.32"/>
<polygon fill="black" stroke="black" points="743,-243.14 732.42,-242.71 740.43,-249.65 743,-243.14"/>
</g>
<!-- com.example.sms.domain.model.sales.sales&#45;&gt;com.example.sms.domain.model.system.autonumber -->
<g id="edge29" class="edge">
<title>com.example.sms.domain.model.sales.sales&#45;&gt;com.example.sms.domain.model.system.autonumber</title>
<path fill="none" stroke="black" d="M436.88,-393.01C417.1,-387.31 389.56,-379.82 365,-374.75 341.24,-369.84 333.12,-376.71 311,-366.75 206.8,-319.81 117.38,-212.36 79.01,-161.3"/>
<polygon fill="black" stroke="black" points="81.91,-159.33 73.14,-153.38 76.28,-163.5 81.91,-159.33"/>
</g>
<!-- com.example.sms.domain.model.sales.sales&#45;&gt;com.example.sms.domain.type.money -->
<g id="edge33" class="edge">
<title>com.example.sms.domain.model.sales.sales&#45;&gt;com.example.sms.domain.type.money</title>
<path fill="none" stroke="black" d="M436.66,-393.06C420.95,-387.47 401.51,-378.84 387,-366.75 349.75,-335.72 320.72,-286.77 304.73,-255.77"/>
<polygon fill="black" stroke="black" points="307.92,-254.33 300.31,-246.97 301.67,-257.47 307.92,-254.33"/>
</g>
<!-- com.example.sms.domain.model.master.department&#45;&gt;com.example.sms.domain.model.master.employee -->
<g id="edge52" class="edge">
<title>com.example.sms.domain.model.master.department&#45;&gt;com.example.sms.domain.model.master.employee</title>
<path fill="none" stroke="red" stroke-width="2" d="M690.7,-195.18C690.26,-185.02 689.76,-173.65 689.31,-163.46"/>
<polygon fill="red" stroke="red" stroke-width="2" points="687.12,-193.5 691.06,-203.33 694.12,-193.19 687.12,-193.5"/>
<polygon fill="red" stroke="red" stroke-width="2" points="692.89,-165.04 688.95,-155.2 685.89,-165.35 692.89,-165.04"/>
</g>
<!-- com.example.sms.domain.type.money&#45;&gt;com.example.sms.domain.type.quantity -->
<g id="edge25" class="edge">
<title>com.example.sms.domain.type.money&#45;&gt;com.example.sms.domain.type.quantity</title>
<path fill="none" stroke="black" d="M331.64,-216.08C347.6,-212.8 366.12,-209.22 383,-206.5 411.74,-201.87 422.8,-213.07 448,-198.5 462.64,-190.04 474.29,-175.28 482.56,-161.95"/>
<polygon fill="black" stroke="black" points="485.48,-163.88 487.45,-153.47 479.42,-160.38 485.48,-163.88"/>
</g>
<!-- com.example.sms.domain.model.master.payment&#45;&gt;com.example.sms.domain.model.master.department -->
<g id="edge20" class="edge">
<title>com.example.sms.domain.model.master.payment&#45;&gt;com.example.sms.domain.model.master.department</title>
<path fill="none" stroke="black" d="M744.72,-280.89C736.6,-272.57 726.9,-262.63 718.05,-253.56"/>
<polygon fill="black" stroke="black" points="720.77,-251.34 711.28,-246.63 715.76,-256.23 720.77,-251.34"/>
</g>
<!-- com.example.sms.domain.model.system.audit -->
<g id="node20" class="node">
<title>com.example.sms.domain.model.system.audit</title>
<g id="a_node20"><a xlink:href="./domain.html#com.example.sms.domain.model.system.audit" xlink:title="監査\naudit">
<polygon fill="#eedd82" stroke="black" points="174,-151.75 120,-151.75 120,-113 174,-113 174,-151.75"/>
<text text-anchor="middle" x="147" y="-134.45" font-family="Times New Roman,serif" font-size="14.00">監査</text>
<text text-anchor="middle" x="147" y="-120.2" font-family="Times New Roman,serif" font-size="14.00">audit</text>
</a>
</g>
</g>
<!-- com.example.sms.domain.model.system.audit&#45;&gt;com.example.sms.domain.model.system.user -->
<g id="edge35" class="edge">
<title>com.example.sms.domain.model.system.audit&#45;&gt;com.example.sms.domain.model.system.user</title>
<path fill="none" stroke="black" d="M165.54,-112.64C173.77,-104.32 183.61,-94.38 192.59,-85.31"/>
<polygon fill="black" stroke="black" points="194.91,-87.94 199.46,-78.37 189.93,-83.02 194.91,-87.94"/>
</g>
<!-- com.example.sms.domain.model.sales.invoice -->
<g id="node21" class="node">
<title>com.example.sms.domain.model.sales.invoice</title>
<g id="a_node21"><a xlink:href="./domain.html#com.example.sms.domain.model.sales.invoice" xlink:title="請求\ninvoice">
<polygon fill="#eedd82" stroke="black" points="484.88,-524.38 429.12,-524.38 429.12,-485.62 484.88,-485.62 484.88,-524.38"/>
<text text-anchor="middle" x="457" y="-507.07" font-family="Times New Roman,serif" font-size="14.00">請求</text>
<text text-anchor="middle" x="457" y="-492.82" font-family="Times New Roman,serif" font-size="14.00">invoice</text>
</a>
</g>
</g>
<!-- com.example.sms.domain.model.sales.invoice&#45;&gt;com.example.sms.domain.model.master.partner -->
<g id="edge38" class="edge">
<title>com.example.sms.domain.model.sales.invoice&#45;&gt;com.example.sms.domain.model.master.partner</title>
<path fill="none" stroke="black" d="M477.71,-485.39C482.73,-481.78 488.31,-478.45 494,-476.25 529.82,-462.44 542.43,-476.12 580,-468.25 720.24,-438.87 802.13,-482.93 886,-366.75 910.32,-333.06 908.56,-308.15 886,-273.25 873.17,-253.41 849.6,-241.97 828.24,-235.42"/>
<polygon fill="black" stroke="black" points="829.37,-232.1 818.8,-232.82 827.52,-238.85 829.37,-232.1"/>
</g>
<!-- com.example.sms.domain.model.sales.invoice&#45;&gt;com.example.sms.domain.model.sales.sales -->
<g id="edge48" class="edge">
<title>com.example.sms.domain.model.sales.invoice&#45;&gt;com.example.sms.domain.model.sales.sales</title>
<path fill="none" stroke="black" d="M458.28,-485.5C459.3,-470.8 460.75,-449.96 461.93,-432.92"/>
<polygon fill="black" stroke="black" points="465.39,-433.58 462.6,-423.36 458.41,-433.09 465.39,-433.58"/>
</g>
<!-- com.example.sms.domain.model.sales.invoice&#45;&gt;com.example.sms.domain.model.system.autonumber -->
<g id="edge44" class="edge">
<title>com.example.sms.domain.model.sales.invoice&#45;&gt;com.example.sms.domain.model.system.autonumber</title>
<path fill="none" stroke="black" d="M436.39,-485.13C431.36,-481.53 425.76,-478.27 420,-476.25 391.99,-466.44 179.81,-480.98 153,-468.25 99.06,-442.64 88.15,-421.78 65,-366.75 43.99,-316.81 57.22,-299.39 55,-245.25 53.86,-217.43 55.25,-185.71 56.69,-163.17"/>
<polygon fill="black" stroke="black" points="60.16,-163.71 57.36,-153.49 53.18,-163.23 60.16,-163.71"/>
</g>
<!-- com.example.sms.domain.model.sales.invoice&#45;&gt;com.example.sms.domain.type.money -->
<g id="edge46" class="edge">
<title>com.example.sms.domain.model.sales.invoice&#45;&gt;com.example.sms.domain.type.money</title>
<path fill="none" stroke="black" d="M436.38,-485.15C431.35,-481.55 425.75,-478.28 420,-476.25 408.31,-472.12 205.61,-477.17 197,-468.25 136.83,-405.88 151.24,-346.85 197,-273.25 206.71,-257.64 223.39,-247.12 240.04,-240.12"/>
<polygon fill="black" stroke="black" points="240.82,-243.57 248.92,-236.73 238.33,-237.02 240.82,-243.57"/>
</g>
<!-- com.example.sms.domain.model.system.auth -->
<g id="node22" class="node">
<title>com.example.sms.domain.model.system.auth</title>
<g id="a_node22"><a xlink:href="./domain.html#com.example.sms.domain.model.system.auth" xlink:title="認証\nauth">
<polygon fill="#eedd82" stroke="black" points="246,-151.75 192,-151.75 192,-113 246,-113 246,-151.75"/>
<text text-anchor="middle" x="219" y="-134.45" font-family="Times New Roman,serif" font-size="14.00">認証</text>
<text text-anchor="middle" x="219" y="-120.2" font-family="Times New Roman,serif" font-size="14.00">auth</text>
</a>
</g>
</g>
<!-- com.example.sms.domain.model.system.auth&#45;&gt;com.example.sms.domain.model.system.user -->
<g id="edge50" class="edge">
<title>com.example.sms.domain.model.system.auth&#45;&gt;com.example.sms.domain.model.system.user</title>
<path fill="none" stroke="black" d="M219,-112.64C219,-105.34 219,-96.79 219,-88.68"/>
<polygon fill="black" stroke="black" points="222.5,-88.81 219,-78.81 215.5,-88.81 222.5,-88.81"/>
</g>
<!-- com.example.sms.domain.model.system.download -->
<g id="node23" class="node">
<title>com.example.sms.domain.model.system.download</title>
<g id="a_node23"><a xlink:href="./domain.html#com.example.sms.domain.model.system.download" xlink:title="データダウンロード\ndownload">
<polygon fill="#eedd82" stroke="black" points="435.62,-151.75 264.38,-151.75 264.38,-113 435.62,-113 435.62,-151.75"/>
<text text-anchor="middle" x="350" y="-134.45" font-family="Times New Roman,serif" font-size="14.00">データダウンロード</text>
<text text-anchor="middle" x="350" y="-120.2" font-family="Times New Roman,serif" font-size="14.00">download</text>
</a>
</g>
</g>
</g>
</svg>
