<?xml version="1.0" encoding="UTF-8" standalone="no"?>
<!DOCTYPE svg PUBLIC "-//W3C//DTD SVG 1.1//EN"
 "http://www.w3.org/Graphics/SVG/1.1/DTD/svg11.dtd">
<!-- Generated by graphviz version 12.2.0 (20241103.1931)
 -->
<!-- Title: アーキテクチャ図 Pages: 1 -->
<svg width="1492pt" height="298pt"
 viewBox="0.00 0.00 1492.12 298.25" xmlns="http://www.w3.org/2000/svg" xmlns:xlink="http://www.w3.org/1999/xlink">
<g id="graph0" class="graph" transform="scale(1 1) rotate(0) translate(4 294.25)">
<title>アーキテクチャ図</title>
<polygon fill="white" stroke="none" points="-4,4 -4,-294.25 1488.12,-294.25 1488.12,4 -4,4"/>
<text text-anchor="middle" x="742.06" y="-4.95" font-family="Times New Roman,serif" font-size="14.00">アーキテクチャ図</text>
<g id="clust1" class="cluster">
<title>clusterArchitecture</title>
<polygon fill="lightyellow" stroke="#eedd82" points="217.88,-86.25 217.88,-282.25 708.88,-282.25 708.88,-86.25 217.88,-86.25"/>
</g>
<!-- com.example.sms.domain -->
<g id="node1" class="node">
<title>com.example.sms.domain</title>
<polygon fill="#eedd82" stroke="black" points="508.5,-130.25 391.25,-130.25 391.25,-126.25 387.25,-126.25 387.25,-122.25 391.25,-122.25 391.25,-102.25 387.25,-102.25 387.25,-98.25 391.25,-98.25 391.25,-94.25 508.5,-94.25 508.5,-130.25"/>
<polyline fill="none" stroke="black" points="391.25,-126.25 395.25,-126.25 395.25,-122.25 391.25,-122.25"/>
<polyline fill="none" stroke="black" points="391.25,-102.25 395.25,-102.25 395.25,-98.25 391.25,-98.25"/>
<text text-anchor="middle" x="449.88" y="-101.88" font-family="Times New Roman,serif" font-size="20.00">ドメイン層</text>
</g>
<!-- org.springframework -->
<g id="node5" class="node">
<title>org.springframework</title>
<polygon fill="lightgrey" stroke="black" points="872.62,-58.25 741.12,-58.25 741.12,-54.25 737.12,-54.25 737.12,-50.25 741.12,-50.25 741.12,-30.25 737.12,-30.25 737.12,-26.25 741.12,-26.25 741.12,-22.25 872.62,-22.25 872.62,-58.25"/>
<polyline fill="none" stroke="black" points="741.12,-54.25 745.12,-54.25 745.12,-50.25 741.12,-50.25"/>
<polyline fill="none" stroke="black" points="741.12,-30.25 745.12,-30.25 745.12,-26.25 741.12,-26.25"/>
<text text-anchor="middle" x="806.88" y="-35.2" font-family="Times New Roman,serif" font-size="14.00">org.springframework</text>
</g>
<!-- com.example.sms.domain&#45;&gt;org.springframework -->
<g id="edge31" class="edge">
<title>com.example.sms.domain&#45;&gt;org.springframework</title>
<path fill="none" stroke="black" d="M502.92,-94.19C502.92,-82.81 502.92,-70.25 502.92,-70.25 502.92,-70.25 759.94,-70.25 759.94,-70.25 759.94,-70.25 759.94,-69.1 759.94,-69.1"/>
<polygon fill="black" stroke="black" points="763.44,-70.25 759.94,-60.25 756.44,-70.25 763.44,-70.25"/>
</g>
<!-- org.apache -->
<g id="node6" class="node">
<title>org.apache</title>
<polygon fill="lightgrey" stroke="black" points="389.5,-58.25 314.25,-58.25 314.25,-54.25 310.25,-54.25 310.25,-50.25 314.25,-50.25 314.25,-30.25 310.25,-30.25 310.25,-26.25 314.25,-26.25 314.25,-22.25 389.5,-22.25 389.5,-58.25"/>
<polyline fill="none" stroke="black" points="314.25,-54.25 318.25,-54.25 318.25,-50.25 314.25,-50.25"/>
<polyline fill="none" stroke="black" points="314.25,-30.25 318.25,-30.25 318.25,-26.25 314.25,-26.25"/>
<text text-anchor="middle" x="351.88" y="-35.2" font-family="Times New Roman,serif" font-size="14.00">org.apache</text>
</g>
<!-- com.example.sms.domain&#45;&gt;org.apache -->
<g id="edge27" class="edge">
<title>com.example.sms.domain&#45;&gt;org.apache</title>
<path fill="none" stroke="black" d="M399.44,-94.08C399.44,-72.75 399.44,-40.25 399.44,-40.25 399.44,-40.25 398.48,-40.25 398.48,-40.25"/>
<polygon fill="black" stroke="black" points="401.33,-36.75 391.33,-40.25 401.33,-43.75 401.33,-36.75"/>
</g>
<!-- org.thymeleaf -->
<g id="node9" class="node">
<title>org.thymeleaf</title>
<polygon fill="lightgrey" stroke="black" points="500.12,-58.25 407.62,-58.25 407.62,-54.25 403.62,-54.25 403.62,-50.25 407.62,-50.25 407.62,-30.25 403.62,-30.25 403.62,-26.25 407.62,-26.25 407.62,-22.25 500.12,-22.25 500.12,-58.25"/>
<polyline fill="none" stroke="black" points="407.62,-54.25 411.62,-54.25 411.62,-50.25 407.62,-50.25"/>
<polyline fill="none" stroke="black" points="407.62,-30.25 411.62,-30.25 411.62,-26.25 407.62,-26.25"/>
<text text-anchor="middle" x="453.88" y="-35.2" font-family="Times New Roman,serif" font-size="14.00">org.thymeleaf</text>
</g>
<!-- com.example.sms.domain&#45;&gt;org.thymeleaf -->
<g id="edge5" class="edge">
<title>com.example.sms.domain&#45;&gt;org.thymeleaf</title>
<path fill="none" stroke="black" d="M453.88,-94.08C453.88,-94.08 453.88,-70.18 453.88,-70.18"/>
<polygon fill="black" stroke="black" points="457.38,-70.18 453.88,-60.18 450.38,-70.18 457.38,-70.18"/>
</g>
<!-- lombok -->
<g id="node11" class="node">
<title>lombok</title>
<polygon fill="lightgrey" stroke="black" points="603.88,-58.25 545.88,-58.25 545.88,-54.25 541.88,-54.25 541.88,-50.25 545.88,-50.25 545.88,-30.25 541.88,-30.25 541.88,-26.25 545.88,-26.25 545.88,-22.25 603.88,-22.25 603.88,-58.25"/>
<polyline fill="none" stroke="black" points="545.88,-54.25 549.88,-54.25 549.88,-50.25 545.88,-50.25"/>
<polyline fill="none" stroke="black" points="545.88,-30.25 549.88,-30.25 549.88,-26.25 545.88,-26.25"/>
<text text-anchor="middle" x="574.88" y="-35.2" font-family="Times New Roman,serif" font-size="14.00">lombok</text>
</g>
<!-- com.example.sms.domain&#45;&gt;lombok -->
<g id="edge39" class="edge">
<title>com.example.sms.domain&#45;&gt;lombok</title>
<path fill="none" stroke="black" d="M505.71,-93.77C505.71,-70.7 505.71,-34.25 505.71,-34.25 505.71,-34.25 505.71,-22.74 505.71,-22.74"/>
<polygon fill="black" stroke="black" points="533.51,-34.42 544.09,-33.83 535.45,-27.69 533.51,-34.42"/>
</g>
<!-- com.example.sms.infrastructure -->
<g id="node2" class="node">
<title>com.example.sms.infrastructure</title>
<polygon fill="#eedd82" stroke="black" points="464.25,-274.25 225.5,-274.25 225.5,-270.25 221.5,-270.25 221.5,-266.25 225.5,-266.25 225.5,-246.25 221.5,-246.25 221.5,-242.25 225.5,-242.25 225.5,-238.25 464.25,-238.25 464.25,-274.25"/>
<polyline fill="none" stroke="black" points="225.5,-270.25 229.5,-270.25 229.5,-266.25 225.5,-266.25"/>
<polyline fill="none" stroke="black" points="225.5,-246.25 229.5,-246.25 229.5,-242.25 225.5,-242.25"/>
<text text-anchor="middle" x="344.88" y="-245.88" font-family="Times New Roman,serif" font-size="20.00">インフラストラクチャ層</text>
</g>
<!-- com.example.sms.infrastructure&#45;&gt;com.example.sms.domain -->
<g id="edge30" class="edge">
<title>com.example.sms.infrastructure&#45;&gt;com.example.sms.domain</title>
<path fill="none" stroke="black" d="M400.75,-238.01C400.75,-238.01 400.75,-141.85 400.75,-141.85"/>
<polygon fill="black" stroke="black" points="404.25,-141.85 400.75,-131.85 397.25,-141.85 404.25,-141.85"/>
</g>
<!-- com.example.sms.service -->
<g id="node4" class="node">
<title>com.example.sms.service</title>
<polygon fill="#eedd82" stroke="black" points="546.5,-202.25 429.25,-202.25 429.25,-198.25 425.25,-198.25 425.25,-194.25 429.25,-194.25 429.25,-174.25 425.25,-174.25 425.25,-170.25 429.25,-170.25 429.25,-166.25 546.5,-166.25 546.5,-202.25"/>
<polyline fill="none" stroke="black" points="429.25,-198.25 433.25,-198.25 433.25,-194.25 429.25,-194.25"/>
<polyline fill="none" stroke="black" points="429.25,-174.25 433.25,-174.25 433.25,-170.25 429.25,-170.25"/>
<text text-anchor="middle" x="487.88" y="-173.88" font-family="Times New Roman,serif" font-size="20.00">サービス層</text>
</g>
<!-- com.example.sms.infrastructure&#45;&gt;com.example.sms.service -->
<g id="edge19" class="edge">
<title>com.example.sms.infrastructure&#45;&gt;com.example.sms.service</title>
<path fill="none" stroke="black" d="M438,-238.08C438,-238.08 438,-214.18 438,-214.18"/>
<polygon fill="black" stroke="black" points="441.5,-214.18 438,-204.18 434.5,-214.18 441.5,-214.18"/>
</g>
<!-- com.example.sms.infrastructure&#45;&gt;org.springframework -->
<g id="edge1" class="edge">
<title>com.example.sms.infrastructure&#45;&gt;org.springframework</title>
<path fill="none" stroke="black" d="M451.12,-237.83C451.12,-228.97 451.12,-220.25 451.12,-220.25 451.12,-220.25 811,-220.25 811,-220.25 811,-220.25 811,-70.01 811,-70.01"/>
<polygon fill="black" stroke="black" points="814.5,-70.01 811,-60.01 807.5,-70.01 814.5,-70.01"/>
</g>
<!-- com.example.sms.infrastructure&#45;&gt;org.apache -->
<g id="edge2" class="edge">
<title>com.example.sms.infrastructure&#45;&gt;org.apache</title>
<path fill="none" stroke="black" d="M339.33,-237.83C339.33,-237.83 339.33,-70.13 339.33,-70.13"/>
<polygon fill="black" stroke="black" points="342.83,-70.13 339.33,-60.13 335.83,-70.13 342.83,-70.13"/>
</g>
<!-- com.github -->
<g id="node7" class="node">
<title>com.github</title>
<polygon fill="lightgrey" stroke="black" points="913,-130.25 834.75,-130.25 834.75,-126.25 830.75,-126.25 830.75,-122.25 834.75,-122.25 834.75,-102.25 830.75,-102.25 830.75,-98.25 834.75,-98.25 834.75,-94.25 913,-94.25 913,-130.25"/>
<polyline fill="none" stroke="black" points="834.75,-126.25 838.75,-126.25 838.75,-122.25 834.75,-122.25"/>
<polyline fill="none" stroke="black" points="834.75,-102.25 838.75,-102.25 838.75,-98.25 834.75,-98.25"/>
<text text-anchor="middle" x="873.88" y="-107.2" font-family="Times New Roman,serif" font-size="14.00">com.github</text>
</g>
<!-- com.example.sms.infrastructure&#45;&gt;com.github -->
<g id="edge16" class="edge">
<title>com.example.sms.infrastructure&#45;&gt;com.github</title>
<path fill="none" stroke="black" d="M419.75,-237.82C419.75,-206.12 419.75,-144.65 419.75,-144.65 419.75,-144.65 860.83,-144.65 860.83,-144.65 860.83,-144.65 860.83,-142.23 860.83,-142.23"/>
<polygon fill="black" stroke="black" points="864.33,-142.23 860.83,-132.23 857.33,-142.24 864.33,-142.23"/>
</g>
<!-- com.opencsv -->
<g id="node8" class="node">
<title>com.opencsv</title>
<polygon fill="lightgrey" stroke="black" points="804.88,-202.25 716.88,-202.25 716.88,-198.25 712.88,-198.25 712.88,-194.25 716.88,-194.25 716.88,-174.25 712.88,-174.25 712.88,-170.25 716.88,-170.25 716.88,-166.25 804.88,-166.25 804.88,-202.25"/>
<polyline fill="none" stroke="black" points="716.88,-198.25 720.88,-198.25 720.88,-194.25 716.88,-194.25"/>
<polyline fill="none" stroke="black" points="716.88,-174.25 720.88,-174.25 720.88,-170.25 716.88,-170.25"/>
<text text-anchor="middle" x="760.88" y="-179.2" font-family="Times New Roman,serif" font-size="14.00">com.opencsv</text>
</g>
<!-- com.example.sms.infrastructure&#45;&gt;com.opencsv -->
<g id="edge4" class="edge">
<title>com.example.sms.infrastructure&#45;&gt;com.opencsv</title>
<path fill="none" stroke="black" d="M446.75,-238.19C446.75,-226.81 446.75,-214.25 446.75,-214.25 446.75,-214.25 760.88,-214.25 760.88,-214.25 760.88,-214.25 760.88,-213.1 760.88,-213.1"/>
<polygon fill="black" stroke="black" points="764.38,-214.25 760.88,-204.25 757.38,-214.25 764.38,-214.25"/>
</g>
<!-- com.example.sms.infrastructure&#45;&gt;lombok -->
<g id="edge24" class="edge">
<title>com.example.sms.infrastructure&#45;&gt;lombok</title>
<path fill="none" stroke="black" d="M442.38,-237.83C442.38,-224.29 442.38,-208.25 442.38,-208.25 442.38,-208.25 557.98,-208.25 557.98,-208.25 557.98,-208.25 557.98,-70.06 557.98,-70.06"/>
<polygon fill="black" stroke="black" points="561.48,-70.06 557.98,-60.06 554.48,-70.06 561.48,-70.06"/>
</g>
<!-- io.swagger -->
<g id="node12" class="node">
<title>io.swagger</title>
<polygon fill="lightgrey" stroke="black" points="1021.5,-202.25 946.25,-202.25 946.25,-198.25 942.25,-198.25 942.25,-194.25 946.25,-194.25 946.25,-174.25 942.25,-174.25 942.25,-170.25 946.25,-170.25 946.25,-166.25 1021.5,-166.25 1021.5,-202.25"/>
<polyline fill="none" stroke="black" points="946.25,-198.25 950.25,-198.25 950.25,-194.25 946.25,-194.25"/>
<polyline fill="none" stroke="black" points="946.25,-174.25 950.25,-174.25 950.25,-170.25 946.25,-170.25"/>
<text text-anchor="middle" x="983.88" y="-179.2" font-family="Times New Roman,serif" font-size="14.00">io.swagger</text>
</g>
<!-- com.example.sms.infrastructure&#45;&gt;io.swagger -->
<g id="edge9" class="edge">
<title>com.example.sms.infrastructure&#45;&gt;io.swagger</title>
<path fill="none" stroke="black" d="M459.88,-237.82C459.88,-234.59 459.88,-232.25 459.88,-232.25 459.88,-232.25 971.33,-232.25 971.33,-232.25 971.33,-232.25 971.33,-214.18 971.33,-214.18"/>
<polygon fill="black" stroke="black" points="974.83,-214.18 971.33,-204.18 967.83,-214.18 974.83,-214.18"/>
</g>
<!-- org.slf4j -->
<g id="node15" class="node">
<title>org.slf4j</title>
<polygon fill="lightgrey" stroke="black" points="778.75,-130.25 717,-130.25 717,-126.25 713,-126.25 713,-122.25 717,-122.25 717,-102.25 713,-102.25 713,-98.25 717,-98.25 717,-94.25 778.75,-94.25 778.75,-130.25"/>
<polyline fill="none" stroke="black" points="717,-126.25 721,-126.25 721,-122.25 717,-122.25"/>
<polyline fill="none" stroke="black" points="717,-102.25 721,-102.25 721,-98.25 717,-98.25"/>
<text text-anchor="middle" x="747.88" y="-107.2" font-family="Times New Roman,serif" font-size="14.00">org.slf4j</text>
</g>
<!-- com.example.sms.infrastructure&#45;&gt;org.slf4j -->
<g id="edge14" class="edge">
<title>com.example.sms.infrastructure&#45;&gt;org.slf4j</title>
<path fill="none" stroke="black" d="M410.25,-237.95C410.25,-204.62 410.25,-137.45 410.25,-137.45 410.25,-137.45 747.88,-137.45 747.88,-137.45 747.88,-137.45 747.88,-136.76 747.88,-136.76"/>
<polygon fill="black" stroke="black" points="751.38,-142.08 747.88,-132.08 744.38,-142.08 751.38,-142.08"/>
</g>
<!-- io.jsonwebtoken -->
<g id="node18" class="node">
<title>io.jsonwebtoken</title>
<polygon fill="lightgrey" stroke="black" points="928.5,-202.25 823.25,-202.25 823.25,-198.25 819.25,-198.25 819.25,-194.25 823.25,-194.25 823.25,-174.25 819.25,-174.25 819.25,-170.25 823.25,-170.25 823.25,-166.25 928.5,-166.25 928.5,-202.25"/>
<polyline fill="none" stroke="black" points="823.25,-198.25 827.25,-198.25 827.25,-194.25 823.25,-194.25"/>
<polyline fill="none" stroke="black" points="823.25,-174.25 827.25,-174.25 827.25,-170.25 823.25,-170.25"/>
<text text-anchor="middle" x="875.88" y="-179.2" font-family="Times New Roman,serif" font-size="14.00">io.jsonwebtoken</text>
</g>
<!-- com.example.sms.infrastructure&#45;&gt;io.jsonwebtoken -->
<g id="edge29" class="edge">
<title>com.example.sms.infrastructure&#45;&gt;io.jsonwebtoken</title>
<path fill="none" stroke="black" d="M455.5,-237.76C455.5,-231.59 455.5,-226.25 455.5,-226.25 455.5,-226.25 875.88,-226.25 875.88,-226.25 875.88,-226.25 875.88,-213.82 875.88,-213.82"/>
<polygon fill="black" stroke="black" points="879.38,-213.82 875.88,-203.82 872.38,-213.82 879.38,-213.82"/>
</g>
<!-- com.example.sms.presentation -->
<g id="node3" class="node">
<title>com.example.sms.presentation</title>
<polygon fill="#eedd82" stroke="black" points="701.12,-274.25 482.62,-274.25 482.62,-270.25 478.62,-270.25 478.62,-266.25 482.62,-266.25 482.62,-246.25 478.62,-246.25 478.62,-242.25 482.62,-242.25 482.62,-238.25 701.12,-238.25 701.12,-274.25"/>
<polyline fill="none" stroke="black" points="482.62,-270.25 486.62,-270.25 486.62,-266.25 482.62,-266.25"/>
<polyline fill="none" stroke="black" points="482.62,-246.25 486.62,-246.25 486.62,-242.25 482.62,-242.25"/>
<text text-anchor="middle" x="591.88" y="-245.88" font-family="Times New Roman,serif" font-size="20.00">プレゼンテーション層</text>
</g>
<!-- com.example.sms.presentation&#45;&gt;com.example.sms.domain -->
<g id="edge20" class="edge">
<title>com.example.sms.presentation&#45;&gt;com.example.sms.domain</title>
<path fill="none" stroke="black" d="M569.45,-237.79C569.45,-197.1 569.45,-103.25 569.45,-103.25 569.45,-103.25 520.48,-103.25 520.48,-103.25"/>
<polygon fill="black" stroke="black" points="520.48,-99.75 510.48,-103.25 520.48,-106.75 520.48,-99.75"/>
</g>
<!-- com.example.sms.presentation&#45;&gt;com.example.sms.service -->
<g id="edge32" class="edge">
<title>com.example.sms.presentation&#45;&gt;com.example.sms.service</title>
<path fill="none" stroke="black" d="M514.56,-238.08C514.56,-238.08 514.56,-214.18 514.56,-214.18"/>
<polygon fill="black" stroke="black" points="518.06,-214.18 514.56,-204.18 511.06,-214.18 518.06,-214.18"/>
</g>
<!-- com.example.sms.presentation&#45;&gt;org.springframework -->
<g id="edge33" class="edge">
<title>com.example.sms.presentation&#45;&gt;org.springframework</title>
<path fill="none" stroke="black" d="M652.5,-237.98C652.5,-186.89 652.5,-46.25 652.5,-46.25 652.5,-46.25 652.5,-34.74 652.5,-34.74"/>
<polygon fill="black" stroke="black" points="729.09,-48.23 739.46,-46.05 729.99,-41.29 729.09,-48.23"/>
</g>
<!-- com.example.sms.presentation&#45;&gt;com.github -->
<g id="edge8" class="edge">
<title>com.example.sms.presentation&#45;&gt;com.github</title>
<path fill="none" stroke="black" d="M701.53,-243.39C758.82,-243.39 817.12,-243.39 817.12,-243.39 817.12,-243.39 817.12,-112.25 817.12,-112.25 817.12,-112.25 822.95,-112.25 822.95,-112.25"/>
<polygon fill="black" stroke="black" points="822.95,-115.75 832.95,-112.25 822.95,-108.75 822.95,-115.75"/>
</g>
<!-- com.example.sms.presentation&#45;&gt;lombok -->
<g id="edge35" class="edge">
<title>com.example.sms.presentation&#45;&gt;lombok</title>
<path fill="none" stroke="black" d="M580.92,-237.83C580.92,-237.83 580.92,-70.13 580.92,-70.13"/>
<polygon fill="black" stroke="black" points="584.43,-70.13 580.93,-60.13 577.43,-70.13 584.43,-70.13"/>
</g>
<!-- com.example.sms.presentation&#45;&gt;io.swagger -->
<g id="edge26" class="edge">
<title>com.example.sms.presentation&#45;&gt;io.swagger</title>
<path fill="none" stroke="black" d="M701.62,-248.54C821.42,-248.54 996.42,-248.54 996.42,-248.54 996.42,-248.54 996.42,-214.01 996.42,-214.01"/>
<polygon fill="black" stroke="black" points="999.92,-214.01 996.42,-204.01 992.92,-214.01 999.92,-214.01"/>
</g>
<!-- jakarta.validation -->
<g id="node13" class="node">
<title>jakarta.validation</title>
<polygon fill="lightgrey" stroke="black" points="1150.12,-202.25 1039.62,-202.25 1039.62,-198.25 1035.62,-198.25 1035.62,-194.25 1039.62,-194.25 1039.62,-174.25 1035.62,-174.25 1035.62,-170.25 1039.62,-170.25 1039.62,-166.25 1150.12,-166.25 1150.12,-202.25"/>
<polyline fill="none" stroke="black" points="1039.62,-198.25 1043.62,-198.25 1043.62,-194.25 1039.62,-194.25"/>
<polyline fill="none" stroke="black" points="1039.62,-174.25 1043.62,-174.25 1043.62,-170.25 1039.62,-170.25"/>
<text text-anchor="middle" x="1094.88" y="-179.2" font-family="Times New Roman,serif" font-size="14.00">jakarta.validation</text>
</g>
<!-- com.example.sms.presentation&#45;&gt;jakarta.validation -->
<g id="edge10" class="edge">
<title>com.example.sms.presentation&#45;&gt;jakarta.validation</title>
<path fill="none" stroke="black" d="M701.33,-253.68C849.3,-253.68 1094.88,-253.68 1094.88,-253.68 1094.88,-253.68 1094.88,-214.01 1094.88,-214.01"/>
<polygon fill="black" stroke="black" points="1098.38,-214.01 1094.88,-204.01 1091.38,-214.01 1098.38,-214.01"/>
</g>
<!-- com.example -->
<g id="node14" class="node">
<title>com.example</title>
<polygon fill="lightgrey" stroke="black" points="1410,-130.25 1319.75,-130.25 1319.75,-126.25 1315.75,-126.25 1315.75,-122.25 1319.75,-122.25 1319.75,-102.25 1315.75,-102.25 1315.75,-98.25 1319.75,-98.25 1319.75,-94.25 1410,-94.25 1410,-130.25"/>
<polyline fill="none" stroke="black" points="1319.75,-126.25 1323.75,-126.25 1323.75,-122.25 1319.75,-122.25"/>
<polyline fill="none" stroke="black" points="1319.75,-102.25 1323.75,-102.25 1323.75,-98.25 1319.75,-98.25"/>
<text text-anchor="middle" x="1364.88" y="-107.2" font-family="Times New Roman,serif" font-size="14.00">com.example</text>
</g>
<!-- com.example.sms.presentation&#45;&gt;com.example -->
<g id="edge11" class="edge">
<title>com.example.sms.presentation&#45;&gt;com.example</title>
<path fill="none" stroke="black" d="M701.4,-258.82C914.64,-258.82 1364.88,-258.82 1364.88,-258.82 1364.88,-258.82 1364.88,-142.03 1364.88,-142.03"/>
<polygon fill="black" stroke="black" points="1368.38,-142.03 1364.88,-132.03 1361.38,-142.03 1368.38,-142.03"/>
</g>
<!-- com.example.sms.presentation&#45;&gt;org.slf4j -->
<g id="edge17" class="edge">
<title>com.example.sms.presentation&#45;&gt;org.slf4j</title>
<path fill="none" stroke="black" d="M676.81,-237.76C676.81,-200.79 676.81,-121.25 676.81,-121.25 676.81,-121.25 705.4,-121.25 705.4,-121.25"/>
<polygon fill="black" stroke="black" points="705.4,-124.75 715.4,-121.25 705.4,-117.75 705.4,-124.75"/>
</g>
<!-- jakarta.servlet -->
<g id="node17" class="node">
<title>jakarta.servlet</title>
<polygon fill="lightgrey" stroke="black" points="1484.12,-58.25 1391.62,-58.25 1391.62,-54.25 1387.62,-54.25 1387.62,-50.25 1391.62,-50.25 1391.62,-30.25 1387.62,-30.25 1387.62,-26.25 1391.62,-26.25 1391.62,-22.25 1484.12,-22.25 1484.12,-58.25"/>
<polyline fill="none" stroke="black" points="1391.62,-54.25 1395.62,-54.25 1395.62,-50.25 1391.62,-50.25"/>
<polyline fill="none" stroke="black" points="1391.62,-30.25 1395.62,-30.25 1395.62,-26.25 1391.62,-26.25"/>
<text text-anchor="middle" x="1437.88" y="-35.2" font-family="Times New Roman,serif" font-size="14.00">jakarta.servlet</text>
</g>
<!-- com.example.sms.presentation&#45;&gt;jakarta.servlet -->
<g id="edge25" class="edge">
<title>com.example.sms.presentation&#45;&gt;jakarta.servlet</title>
<path fill="none" stroke="black" d="M701.49,-269.11C932.25,-269.11 1447.06,-269.11 1447.06,-269.11 1447.06,-269.11 1447.06,-70.11 1447.06,-70.11"/>
<polygon fill="black" stroke="black" points="1450.56,-70.1 1447.06,-60.11 1443.56,-70.11 1450.56,-70.1"/>
</g>
<!-- com.example.sms.service&#45;&gt;com.example.sms.domain -->
<g id="edge22" class="edge">
<title>com.example.sms.service&#45;&gt;com.example.sms.domain</title>
<path fill="none" stroke="black" d="M468.88,-166.08C468.88,-166.08 468.88,-142.18 468.88,-142.18"/>
<polygon fill="black" stroke="black" points="472.38,-142.18 468.88,-132.18 465.38,-142.18 472.38,-142.18"/>
</g>
<!-- com.example.sms.service&#45;&gt;com.example.sms.infrastructure -->
<g id="edge13" class="edge">
<title>com.example.sms.service&#45;&gt;com.example.sms.infrastructure</title>
<path fill="none" stroke="black" d="M433.62,-202.42C433.62,-202.42 433.62,-226.32 433.62,-226.32"/>
<polygon fill="black" stroke="black" points="430.13,-226.32 433.63,-236.32 437.13,-226.32 430.13,-226.32"/>
</g>
<!-- com.example.sms.service&#45;&gt;org.springframework -->
<g id="edge18" class="edge">
<title>com.example.sms.service&#45;&gt;org.springframework</title>
<path fill="none" stroke="black" d="M546.97,-184.25C585.32,-184.25 628.19,-184.25 628.19,-184.25 628.19,-184.25 628.19,-34.25 628.19,-34.25 628.19,-34.25 729.33,-34.25 729.33,-34.25"/>
<polygon fill="black" stroke="black" points="729.33,-37.75 739.33,-34.25 729.33,-30.75 729.33,-37.75"/>
</g>
<!-- com.example.sms.service&#45;&gt;org.apache -->
<g id="edge28" class="edge">
<title>com.example.sms.service&#45;&gt;org.apache</title>
<path fill="none" stroke="black" d="M429.04,-175.25C397.24,-175.25 364.42,-175.25 364.42,-175.25 364.42,-175.25 364.42,-70.25 364.42,-70.25"/>
<polygon fill="black" stroke="black" points="367.92,-70.25 364.42,-60.25 360.92,-70.25 367.92,-70.25"/>
</g>
<!-- com.example.sms.service&#45;&gt;com.github -->
<g id="edge3" class="edge">
<title>com.example.sms.service&#45;&gt;com.github</title>
<path fill="none" stroke="black" d="M515.98,-165.78C515.98,-158.5 515.98,-151.85 515.98,-151.85 515.98,-151.85 886.92,-151.85 886.92,-151.85 886.92,-151.85 886.92,-142.17 886.92,-142.17"/>
<polygon fill="black" stroke="black" points="890.42,-142.17 886.92,-132.17 883.42,-142.17 890.42,-142.17"/>
</g>
<!-- jakarta.transaction -->
<g id="node10" class="node">
<title>jakarta.transaction</title>
<polygon fill="lightgrey" stroke="black" points="115.75,-130.25 0,-130.25 0,-126.25 -4,-126.25 -4,-122.25 0,-122.25 0,-102.25 -4,-102.25 -4,-98.25 0,-98.25 0,-94.25 115.75,-94.25 115.75,-130.25"/>
<polyline fill="none" stroke="black" points="0,-126.25 4,-126.25 4,-122.25 0,-122.25"/>
<polyline fill="none" stroke="black" points="0,-102.25 4,-102.25 4,-98.25 0,-98.25"/>
<text text-anchor="middle" x="57.88" y="-107.2" font-family="Times New Roman,serif" font-size="14.00">jakarta.transaction</text>
</g>
<!-- com.example.sms.service&#45;&gt;jakarta.transaction -->
<g id="edge6" class="edge">
<title>com.example.sms.service&#45;&gt;jakarta.transaction</title>
<path fill="none" stroke="black" d="M428.99,-193.25C311.22,-193.25 57.88,-193.25 57.88,-193.25 57.88,-193.25 57.88,-142.14 57.88,-142.14"/>
<polygon fill="black" stroke="black" points="61.38,-142.14 57.88,-132.14 54.38,-142.14 61.38,-142.14"/>
</g>
<!-- com.example.sms.service&#45;&gt;lombok -->
<g id="edge7" class="edge">
<title>com.example.sms.service&#45;&gt;lombok</title>
<path fill="none" stroke="black" d="M530.92,-165.92C530.92,-128.39 530.92,-46.25 530.92,-46.25 530.92,-46.25 534.29,-46.25 534.29,-46.25"/>
<polygon fill="black" stroke="black" points="534.29,-49.75 544.29,-46.25 534.29,-42.75 534.29,-49.75"/>
</g>
<!-- com.example.sms.service&#45;&gt;com.example -->
<g id="edge34" class="edge">
<title>com.example.sms.service&#45;&gt;com.example</title>
<path fill="none" stroke="black" d="M523.45,-165.94C523.45,-162.03 523.45,-159.05 523.45,-159.05 523.45,-159.05 1342.31,-159.05 1342.31,-159.05 1342.31,-159.05 1342.31,-142.26 1342.31,-142.26"/>
<polygon fill="black" stroke="black" points="1345.81,-142.26 1342.31,-132.26 1338.81,-142.26 1345.81,-142.26"/>
</g>
<!-- com.example.sms.service&#45;&gt;org.slf4j -->
<g id="edge23" class="edge">
<title>com.example.sms.service&#45;&gt;org.slf4j</title>
<path fill="none" stroke="black" d="M538.4,-166.08C538.4,-144.75 538.4,-112.25 538.4,-112.25 538.4,-112.25 705,-112.25 705,-112.25"/>
<polygon fill="black" stroke="black" points="705,-115.75 715,-112.25 705,-108.75 705,-115.75"/>
</g>
<!-- org.aspectj -->
<g id="node19" class="node">
<title>org.aspectj</title>
<polygon fill="lightgrey" stroke="black" points="209.5,-130.25 134.25,-130.25 134.25,-126.25 130.25,-126.25 130.25,-122.25 134.25,-122.25 134.25,-102.25 130.25,-102.25 130.25,-98.25 134.25,-98.25 134.25,-94.25 209.5,-94.25 209.5,-130.25"/>
<polyline fill="none" stroke="black" points="134.25,-126.25 138.25,-126.25 138.25,-122.25 134.25,-122.25"/>
<polyline fill="none" stroke="black" points="134.25,-102.25 138.25,-102.25 138.25,-98.25 134.25,-98.25"/>
<text text-anchor="middle" x="171.88" y="-107.2" font-family="Times New Roman,serif" font-size="14.00">org.aspectj</text>
</g>
<!-- com.example.sms.service&#45;&gt;org.aspectj -->
<g id="edge37" class="edge">
<title>com.example.sms.service&#45;&gt;org.aspectj</title>
<path fill="none" stroke="black" d="M428.81,-184.25C337.35,-184.25 171.88,-184.25 171.88,-184.25 171.88,-184.25 171.88,-141.93 171.88,-141.93"/>
<polygon fill="black" stroke="black" points="175.38,-141.93 171.88,-131.93 168.38,-141.93 175.38,-141.93"/>
</g>
<!-- com.example&#45;&gt;com.example.sms.presentation -->
<g id="edge12" class="edge">
<title>com.example&#45;&gt;com.example.sms.presentation</title>
<path fill="none" stroke="black" d="M1387.44,-130.55C1387.44,-170.9 1387.44,-263.96 1387.44,-263.96 1387.44,-263.96 712.76,-263.96 712.76,-263.96"/>
<polygon fill="black" stroke="black" points="712.76,-260.46 702.76,-263.96 712.76,-267.46 712.76,-260.46"/>
</g>
<!-- com.example&#45;&gt;org.springframework -->
<g id="edge36" class="edge">
<title>com.example&#45;&gt;org.springframework</title>
<path fill="none" stroke="black" d="M1319.3,-112.25C1218.17,-112.25 983.88,-112.25 983.88,-112.25 983.88,-112.25 983.88,-40.25 983.88,-40.25 983.88,-40.25 884.55,-40.25 884.55,-40.25"/>
<polygon fill="black" stroke="black" points="884.55,-36.75 874.55,-40.25 884.55,-43.75 884.55,-36.75"/>
</g>
<!-- com.example&#45;&gt;lombok -->
<g id="edge38" class="edge">
<title>com.example&#45;&gt;lombok</title>
<path fill="none" stroke="black" d="M1337.67,-93.76C1337.67,-87.59 1337.67,-82.25 1337.67,-82.25 1337.67,-82.25 592.4,-82.25 592.4,-82.25 592.4,-82.25 592.4,-69.82 592.4,-69.82"/>
<polygon fill="black" stroke="black" points="595.9,-69.82 592.4,-59.82 588.9,-69.82 595.9,-69.82"/>
</g>
<!-- org.mybatis -->
<g id="node16" class="node">
<title>org.mybatis</title>
<polygon fill="lightgrey" stroke="black" points="1373.5,-58.25 1292.25,-58.25 1292.25,-54.25 1288.25,-54.25 1288.25,-50.25 1292.25,-50.25 1292.25,-30.25 1288.25,-30.25 1288.25,-26.25 1292.25,-26.25 1292.25,-22.25 1373.5,-22.25 1373.5,-58.25"/>
<polyline fill="none" stroke="black" points="1292.25,-54.25 1296.25,-54.25 1296.25,-50.25 1292.25,-50.25"/>
<polyline fill="none" stroke="black" points="1292.25,-30.25 1296.25,-30.25 1296.25,-26.25 1292.25,-26.25"/>
<text text-anchor="middle" x="1332.88" y="-35.2" font-family="Times New Roman,serif" font-size="14.00">org.mybatis</text>
</g>
<!-- com.example&#45;&gt;org.mybatis -->
<g id="edge15" class="edge">
<title>com.example&#45;&gt;org.mybatis</title>
<path fill="none" stroke="black" d="M1355.58,-94.08C1355.58,-94.08 1355.58,-70.18 1355.58,-70.18"/>
<polygon fill="black" stroke="black" points="1359.08,-70.18 1355.58,-60.18 1352.08,-70.18 1359.08,-70.18"/>
</g>
<!-- com.example&#45;&gt;jakarta.servlet -->
<g id="edge21" class="edge">
<title>com.example&#45;&gt;jakarta.servlet</title>
<path fill="none" stroke="black" d="M1400.81,-94.08C1400.81,-94.08 1400.81,-70.18 1400.81,-70.18"/>
<polygon fill="black" stroke="black" points="1404.31,-70.18 1400.81,-60.18 1397.31,-70.18 1404.31,-70.18"/>
</g>
</g>
</svg>
