<?xml version="1.0" encoding="UTF-8" standalone="no"?>
<!DOCTYPE svg PUBLIC "-//W3C//DTD SVG 1.1//EN"
 "http://www.w3.org/Graphics/SVG/1.1/DTD/svg11.dtd">
<!-- Generated by graphviz version 12.2.0 (20241103.1931)
 -->
<!-- Title: パッケージ関連図 Pages: 1 -->
<svg width="729pt" height="526pt"
 viewBox="0.00 0.00 728.86 525.62" xmlns="http://www.w3.org/2000/svg" xmlns:xlink="http://www.w3.org/1999/xlink">
<g id="graph0" class="graph" transform="scale(1 1) rotate(0) translate(4 521.62)">
<title>パッケージ関連図</title>
<polygon fill="white" stroke="none" points="-4,4 -4,-521.62 724.86,-521.62 724.86,4 -4,4"/>
<text text-anchor="middle" x="360.43" y="-4.95" font-family="Times New Roman,serif" font-size="14.00">パッケージ関連図</text>
<g id="clust1" class="cluster">
<title>cluster_com.example.sms.domain.model.sales_order</title>
<polygon fill="lemonchiffon" stroke="#eedd82" stroke-width="2" points="252.16,-416.12 252.16,-509.62 370.16,-509.62 370.16,-416.12 252.16,-416.12"/>
<text text-anchor="middle" x="311.16" y="-492.32" font-family="Times New Roman,serif" font-size="14.00">受注</text>
<text text-anchor="middle" x="311.16" y="-478.07" font-family="Times New Roman,serif" font-size="14.00">model.sales_order</text>
</g>
<g id="clust2" class="cluster">
<title>cluster_com.example.sms.domain.model.system</title>
<polygon fill="lemonchiffon" stroke="#eedd82" stroke-width="2" points="76.16,-163.75 76.16,-332 408.16,-332 408.16,-163.75 76.16,-163.75"/>
<text text-anchor="middle" x="242.16" y="-314.7" font-family="Times New Roman,serif" font-size="14.00">システム</text>
<text text-anchor="middle" x="242.16" y="-300.45" font-family="Times New Roman,serif" font-size="14.00">model.system</text>
</g>
<g id="clust3" class="cluster">
<title>cluster_com.example.sms.domain.model.master</title>
<polygon fill="lemonchiffon" stroke="#eedd82" stroke-width="2" points="522.16,-89 522.16,-332 702.16,-332 702.16,-89 522.16,-89"/>
<text text-anchor="middle" x="612.16" y="-314.7" font-family="Times New Roman,serif" font-size="14.00">マスタ</text>
<text text-anchor="middle" x="612.16" y="-300.45" font-family="Times New Roman,serif" font-size="14.00">model.master</text>
</g>
<!-- summary -->
<g id="node1" class="node">
<title>summary</title>
<polygon fill="none" stroke="black" points="236.16,-472.25 52.16,-472.25 52.16,-414.75 242.16,-414.75 242.16,-466.25 236.16,-472.25"/>
<polyline fill="none" stroke="black" points="236.16,-472.25 236.16,-466.25"/>
<polyline fill="none" stroke="black" points="242.16,-466.25 236.16,-466.25"/>
<text text-anchor="start" x="60.16" y="-454.95" font-family="Times New Roman,serif" font-size="14.00">root: com.example.sms.domain</text>
<text text-anchor="start" x="60.16" y="-438.45" font-family="Times New Roman,serif" font-size="14.00">パッケージ数: 16</text>
<text text-anchor="start" x="60.16" y="-421.95" font-family="Times New Roman,serif" font-size="14.00">関連数: 23</text>
</g>
<!-- com.example.sms.domain.model.master.partner -->
<g id="node2" class="node">
<title>com.example.sms.domain.model.master.partner</title>
<g id="a_node2"><a xlink:href="./domain.html#com.example.sms.domain.model.master.partner" xlink:title="取引先\npartner">
<polygon fill="#eedd82" stroke="black" points="694.04,-210.5 626.29,-210.5 626.29,-171.75 694.04,-171.75 694.04,-210.5"/>
<text text-anchor="middle" x="660.16" y="-193.2" font-family="Times New Roman,serif" font-size="14.00">取引先</text>
<text text-anchor="middle" x="660.16" y="-178.95" font-family="Times New Roman,serif" font-size="14.00">partner</text>
</a>
</g>
</g>
<!-- com.example.sms.domain.type.mail -->
<g id="node3" class="node">
<title>com.example.sms.domain.type.mail</title>
<g id="a_node3"><a xlink:href="./domain.html#com.example.sms.domain.type.mail" xlink:title="メール\ntype.mail">
<polygon fill="#eedd82" stroke="black" points="412.04,-135.75 344.29,-135.75 344.29,-97 412.04,-97 412.04,-135.75"/>
<text text-anchor="middle" x="378.16" y="-118.45" font-family="Times New Roman,serif" font-size="14.00">メール</text>
<text text-anchor="middle" x="378.16" y="-104.2" font-family="Times New Roman,serif" font-size="14.00">type.mail</text>
</a>
</g>
</g>
<!-- com.example.sms.domain.model.master.partner&#45;&gt;com.example.sms.domain.type.mail -->
<g id="edge1" class="edge">
<title>com.example.sms.domain.model.master.partner&#45;&gt;com.example.sms.domain.type.mail</title>
<path fill="none" stroke="black" d="M633.25,-171.35C628.09,-168.41 622.6,-165.71 617.16,-163.75 537.7,-135.1 508.27,-157.51 423.09,-135.8"/>
<polygon fill="black" stroke="black" points="424.16,-132.46 413.6,-133.24 422.34,-139.22 424.16,-132.46"/>
</g>
<!-- com.example.sms.domain.type.money -->
<g id="node10" class="node">
<title>com.example.sms.domain.type.money</title>
<g id="a_node10"><a xlink:href="./domain.html#com.example.sms.domain.type.money" xlink:title="通貨\ntype.money">
<polygon fill="#eedd82" stroke="black" points="155.41,-135.75 74.91,-135.75 74.91,-97 155.41,-97 155.41,-135.75"/>
<text text-anchor="middle" x="115.16" y="-118.45" font-family="Times New Roman,serif" font-size="14.00">通貨</text>
<text text-anchor="middle" x="115.16" y="-104.2" font-family="Times New Roman,serif" font-size="14.00">type.money</text>
</a>
</g>
</g>
<!-- com.example.sms.domain.model.master.partner&#45;&gt;com.example.sms.domain.type.money -->
<g id="edge9" class="edge">
<title>com.example.sms.domain.model.master.partner&#45;&gt;com.example.sms.domain.type.money</title>
<path fill="none" stroke="black" d="M633.83,-171.27C628.53,-168.26 622.84,-165.56 617.16,-163.75 437.62,-106.61 380.53,-163.41 194.16,-135.75 185.15,-134.41 175.65,-132.58 166.48,-130.58"/>
<polygon fill="black" stroke="black" points="167.52,-127.23 156.99,-128.43 165.97,-134.06 167.52,-127.23"/>
</g>
<!-- com.example.sms.domain.type.address -->
<g id="node11" class="node">
<title>com.example.sms.domain.type.address</title>
<g id="a_node11"><a xlink:href="./domain.html#com.example.sms.domain.type.address" xlink:title="住所\ntype.address">
<polygon fill="#eedd82" stroke="black" points="513.91,-135.75 430.41,-135.75 430.41,-97 513.91,-97 513.91,-135.75"/>
<text text-anchor="middle" x="472.16" y="-118.45" font-family="Times New Roman,serif" font-size="14.00">住所</text>
<text text-anchor="middle" x="472.16" y="-104.2" font-family="Times New Roman,serif" font-size="14.00">type.address</text>
</a>
</g>
</g>
<!-- com.example.sms.domain.model.master.partner&#45;&gt;com.example.sms.domain.type.address -->
<g id="edge8" class="edge">
<title>com.example.sms.domain.model.master.partner&#45;&gt;com.example.sms.domain.type.address</title>
<path fill="none" stroke="black" d="M632.07,-171.4C627.22,-168.6 622.13,-165.93 617.16,-163.75 578.55,-146.83 563.78,-149.82 524.7,-137.78"/>
<polygon fill="black" stroke="black" points="526.24,-134.6 515.65,-134.84 524.08,-141.26 526.24,-134.6"/>
</g>
<!-- com.example.sms.domain.type.phone -->
<g id="node12" class="node">
<title>com.example.sms.domain.type.phone</title>
<g id="a_node12"><a xlink:href="./domain.html#com.example.sms.domain.type.phone" xlink:title="電話番号\ntype.phone">
<polygon fill="#eedd82" stroke="black" points="287.66,-135.75 202.66,-135.75 202.66,-97 287.66,-97 287.66,-135.75"/>
<text text-anchor="middle" x="245.16" y="-118.45" font-family="Times New Roman,serif" font-size="14.00">電話番号</text>
<text text-anchor="middle" x="245.16" y="-104.2" font-family="Times New Roman,serif" font-size="14.00">type.phone</text>
</a>
</g>
</g>
<!-- com.example.sms.domain.model.master.partner&#45;&gt;com.example.sms.domain.type.phone -->
<g id="edge10" class="edge">
<title>com.example.sms.domain.model.master.partner&#45;&gt;com.example.sms.domain.type.phone</title>
<path fill="none" stroke="black" d="M633.78,-171.42C628.48,-168.4 622.81,-165.65 617.16,-163.75 497.79,-123.58 459.69,-154.59 335.16,-135.75 323.45,-133.98 310.96,-131.69 299.13,-129.33"/>
<polygon fill="black" stroke="black" points="300.01,-125.94 289.52,-127.36 298.61,-132.8 300.01,-125.94"/>
</g>
<!-- com.example.sms.domain.model.master.region -->
<g id="node14" class="node">
<title>com.example.sms.domain.model.master.region</title>
<g id="a_node14"><a xlink:href="./domain.html#com.example.sms.domain.model.master.region" xlink:title="地域\nregion">
<polygon fill="#eedd82" stroke="black" points="687.16,-135.75 633.16,-135.75 633.16,-97 687.16,-97 687.16,-135.75"/>
<text text-anchor="middle" x="660.16" y="-118.45" font-family="Times New Roman,serif" font-size="14.00">地域</text>
<text text-anchor="middle" x="660.16" y="-104.2" font-family="Times New Roman,serif" font-size="14.00">region</text>
</a>
</g>
</g>
<!-- com.example.sms.domain.model.master.partner&#45;&gt;com.example.sms.domain.model.master.region -->
<g id="edge19" class="edge">
<title>com.example.sms.domain.model.master.partner&#45;&gt;com.example.sms.domain.model.master.region</title>
<path fill="none" stroke="black" d="M660.16,-171.39C660.16,-164.09 660.16,-155.54 660.16,-147.43"/>
<polygon fill="black" stroke="black" points="663.66,-147.56 660.16,-137.56 656.66,-147.56 663.66,-147.56"/>
</g>
<!-- com.example.sms.domain.model.master.product -->
<g id="node4" class="node">
<title>com.example.sms.domain.model.master.product</title>
<g id="a_node4"><a xlink:href="./domain.html#com.example.sms.domain.model.master.product" xlink:title="商品\nproduct">
<polygon fill="#eedd82" stroke="black" points="674.79,-285.25 617.54,-285.25 617.54,-246.5 674.79,-246.5 674.79,-285.25"/>
<text text-anchor="middle" x="646.16" y="-267.95" font-family="Times New Roman,serif" font-size="14.00">商品</text>
<text text-anchor="middle" x="646.16" y="-253.7" font-family="Times New Roman,serif" font-size="14.00">product</text>
</a>
</g>
</g>
<!-- com.example.sms.domain.model.master.product&#45;&gt;com.example.sms.domain.model.master.partner -->
<g id="edge2" class="edge">
<title>com.example.sms.domain.model.master.product&#45;&gt;com.example.sms.domain.model.master.partner</title>
<path fill="none" stroke="black" d="M649.77,-246.14C651.19,-238.76 652.85,-230.1 654.43,-221.9"/>
<polygon fill="black" stroke="black" points="657.83,-222.76 656.28,-212.28 650.96,-221.44 657.83,-222.76"/>
</g>
<!-- com.example.sms.domain.type.quantity -->
<g id="node9" class="node">
<title>com.example.sms.domain.type.quantity</title>
<g id="a_node9"><a xlink:href="./domain.html#com.example.sms.domain.type.quantity" xlink:title="数量\ntype.quantity">
<polygon fill="#eedd82" stroke="black" points="158.79,-61 71.54,-61 71.54,-22.25 158.79,-22.25 158.79,-61"/>
<text text-anchor="middle" x="115.16" y="-43.7" font-family="Times New Roman,serif" font-size="14.00">数量</text>
<text text-anchor="middle" x="115.16" y="-29.45" font-family="Times New Roman,serif" font-size="14.00">type.quantity</text>
</a>
</g>
</g>
<!-- com.example.sms.domain.model.master.product&#45;&gt;com.example.sms.domain.type.quantity -->
<g id="edge17" class="edge">
<title>com.example.sms.domain.model.master.product&#45;&gt;com.example.sms.domain.type.quantity</title>
<path fill="none" stroke="black" d="M617.17,-250.23C614.48,-248.94 611.78,-247.68 609.16,-246.5 570.66,-229.09 557.55,-231.99 521.16,-210.5 492.65,-193.67 493.02,-178.06 463.16,-163.75 410.65,-138.58 384.75,-166.28 335.16,-135.75 312.36,-121.71 319.72,-103.42 297.16,-89 258.95,-64.57 208.52,-52.99 170.44,-47.52"/>
<polygon fill="black" stroke="black" points="170.92,-44.05 160.55,-46.21 170,-50.99 170.92,-44.05"/>
</g>
<!-- com.example.sms.domain.model.master.product&#45;&gt;com.example.sms.domain.type.money -->
<g id="edge14" class="edge">
<title>com.example.sms.domain.model.master.product&#45;&gt;com.example.sms.domain.type.money</title>
<path fill="none" stroke="black" d="M617.29,-249.95C614.57,-248.72 611.83,-247.55 609.16,-246.5 556.95,-225.95 539.38,-233.4 488.16,-210.5 451.96,-194.32 449.55,-176.96 412.16,-163.75 320.06,-131.21 290.3,-153.06 194.16,-135.75 185.2,-134.14 175.72,-132.16 166.55,-130.12"/>
<polygon fill="black" stroke="black" points="167.6,-126.77 157.07,-127.94 166.03,-133.59 167.6,-126.77"/>
</g>
<!-- com.example.sms.domain.model.sales_order -->
<g id="node5" class="node">
<title>com.example.sms.domain.model.sales_order</title>
<g id="a_node5"><a xlink:href="./domain.html#com.example.sms.domain.model.sales_order" xlink:title="受注\nmodel.sales_order">
<polygon fill="#eedd82" stroke="black" points="623.04,-378.75 507.29,-378.75 507.29,-340 623.04,-340 623.04,-378.75"/>
<text text-anchor="middle" x="565.16" y="-361.45" font-family="Times New Roman,serif" font-size="14.00">受注</text>
<text text-anchor="middle" x="565.16" y="-347.2" font-family="Times New Roman,serif" font-size="14.00">model.sales_order</text>
</a>
</g>
</g>
<!-- com.example.sms.domain.model.sales_order&#45;&gt;com.example.sms.domain.model.master.partner -->
<g id="edge7" class="edge">
<title>com.example.sms.domain.model.sales_order&#45;&gt;com.example.sms.domain.model.master.partner</title>
<path fill="none" stroke="black" d="M623.45,-354.86C657.37,-351.46 695.5,-344.84 706.16,-332 730.44,-302.76 719.23,-282.18 706.16,-246.5 702.48,-236.44 696.01,-226.96 689.08,-218.82"/>
<polygon fill="black" stroke="black" points="691.85,-216.66 682.5,-211.66 686.69,-221.39 691.85,-216.66"/>
</g>
<!-- com.example.sms.domain.model.sales_order&#45;&gt;com.example.sms.domain.model.master.product -->
<g id="edge13" class="edge">
<title>com.example.sms.domain.model.sales_order&#45;&gt;com.example.sms.domain.model.master.product</title>
<path fill="none" stroke="black" d="M600.52,-339.51C603.61,-337.18 606.55,-334.68 609.16,-332 619.28,-321.64 627.6,-307.97 633.77,-295.83"/>
<polygon fill="black" stroke="black" points="636.81,-297.57 637.97,-287.04 630.5,-294.55 636.81,-297.57"/>
</g>
<!-- com.example.sms.domain.model.master.department -->
<g id="node6" class="node">
<title>com.example.sms.domain.model.master.department</title>
<g id="a_node6"><a xlink:href="./domain.html#com.example.sms.domain.model.master.department" xlink:title="部門\ndepartment">
<polygon fill="#eedd82" stroke="black" points="607.91,-210.5 530.41,-210.5 530.41,-171.75 607.91,-171.75 607.91,-210.5"/>
<text text-anchor="middle" x="569.16" y="-193.2" font-family="Times New Roman,serif" font-size="14.00">部門</text>
<text text-anchor="middle" x="569.16" y="-178.95" font-family="Times New Roman,serif" font-size="14.00">department</text>
</a>
</g>
</g>
<!-- com.example.sms.domain.model.sales_order&#45;&gt;com.example.sms.domain.model.master.department -->
<g id="edge3" class="edge">
<title>com.example.sms.domain.model.sales_order&#45;&gt;com.example.sms.domain.model.master.department</title>
<path fill="none" stroke="black" d="M623.5,-352.34C649.57,-348.32 676.21,-341.9 684.16,-332 707.95,-302.37 704.49,-278.6 684.16,-246.5 680.13,-240.14 647.74,-225.12 618.36,-212.47"/>
<polygon fill="black" stroke="black" points="620.11,-209.41 609.54,-208.71 617.36,-215.85 620.11,-209.41"/>
</g>
<!-- com.example.sms.domain.model.master.employee -->
<g id="node7" class="node">
<title>com.example.sms.domain.model.master.employee</title>
<g id="a_node7"><a xlink:href="./domain.html#com.example.sms.domain.model.master.employee" xlink:title="社員\nemployee">
<polygon fill="#eedd82" stroke="black" points="599.79,-285.25 530.54,-285.25 530.54,-246.5 599.79,-246.5 599.79,-285.25"/>
<text text-anchor="middle" x="565.16" y="-267.95" font-family="Times New Roman,serif" font-size="14.00">社員</text>
<text text-anchor="middle" x="565.16" y="-253.7" font-family="Times New Roman,serif" font-size="14.00">employee</text>
</a>
</g>
</g>
<!-- com.example.sms.domain.model.sales_order&#45;&gt;com.example.sms.domain.model.master.employee -->
<g id="edge12" class="edge">
<title>com.example.sms.domain.model.sales_order&#45;&gt;com.example.sms.domain.model.master.employee</title>
<path fill="none" stroke="black" d="M565.16,-339.86C565.16,-327.54 565.16,-311.07 565.16,-296.9"/>
<polygon fill="black" stroke="black" points="568.66,-297.19 565.16,-287.19 561.66,-297.19 568.66,-297.19"/>
</g>
<!-- com.example.sms.domain.model.sales_order&#45;&gt;com.example.sms.domain.type.quantity -->
<g id="edge5" class="edge">
<title>com.example.sms.domain.model.sales_order&#45;&gt;com.example.sms.domain.type.quantity</title>
<path fill="none" stroke="black" d="M507.03,-356.51C371.65,-352.03 46.16,-340.41 38.16,-332 -36.77,-253.23 13.52,-184.12 66.16,-89 70.14,-81.81 75.61,-75.08 81.47,-69.1"/>
<polygon fill="black" stroke="black" points="83.62,-71.89 88.48,-62.47 78.81,-66.8 83.62,-71.89"/>
</g>
<!-- com.example.sms.domain.model.sales_order&#45;&gt;com.example.sms.domain.type.money -->
<g id="edge6" class="edge">
<title>com.example.sms.domain.model.sales_order&#45;&gt;com.example.sms.domain.type.money</title>
<path fill="none" stroke="black" d="M506.83,-357.37C379.51,-354.9 86.9,-347.55 72.16,-332 20.72,-277.73 44.85,-233.36 72.16,-163.75 74.91,-156.75 79.27,-150.17 84.18,-144.29"/>
<polygon fill="black" stroke="black" points="86.4,-147.04 90.61,-137.32 81.26,-142.29 86.4,-147.04"/>
</g>
<!-- com.example.sms.domain.model.master.employee&#45;&gt;com.example.sms.domain.model.master.department -->
<g id="edge22" class="edge">
<title>com.example.sms.domain.model.master.employee&#45;&gt;com.example.sms.domain.model.master.department</title>
<path fill="none" stroke="red" stroke-width="2" d="M566.82,-234.75C567.05,-230.56 567.28,-226.26 567.51,-222.08"/>
<polygon fill="red" stroke="red" stroke-width="2" points="563.41,-232.94 566.36,-243.12 570.4,-233.32 563.41,-232.94"/>
<polygon fill="red" stroke="red" stroke-width="2" points="570.91,-224 567.97,-213.82 563.92,-223.61 570.91,-224"/>
</g>
<!-- com.example.sms.domain.model.system.user -->
<g id="node8" class="node">
<title>com.example.sms.domain.model.system.user</title>
<g id="a_node8"><a xlink:href="./domain.html#com.example.sms.domain.model.system.user" xlink:title="ユーザー\nuser">
<polygon fill="#eedd82" stroke="black" points="225.66,-210.5 140.66,-210.5 140.66,-171.75 225.66,-171.75 225.66,-210.5"/>
<text text-anchor="middle" x="183.16" y="-193.2" font-family="Times New Roman,serif" font-size="14.00">ユーザー</text>
<text text-anchor="middle" x="183.16" y="-178.95" font-family="Times New Roman,serif" font-size="14.00">user</text>
</a>
</g>
</g>
<!-- com.example.sms.domain.model.master.employee&#45;&gt;com.example.sms.domain.model.system.user -->
<g id="edge4" class="edge">
<title>com.example.sms.domain.model.master.employee&#45;&gt;com.example.sms.domain.model.system.user</title>
<path fill="none" stroke="black" d="M530.25,-258.23C463.36,-245.49 316.75,-217.57 237.16,-202.41"/>
<polygon fill="black" stroke="black" points="237.88,-198.98 227.4,-200.55 236.57,-205.86 237.88,-198.98"/>
</g>
<!-- com.example.sms.domain.model.master.employee&#45;&gt;com.example.sms.domain.type.phone -->
<g id="edge11" class="edge">
<title>com.example.sms.domain.model.master.employee&#45;&gt;com.example.sms.domain.type.phone</title>
<path fill="none" stroke="black" d="M539.03,-246.06C502.64,-220.13 438.22,-175.28 412.16,-163.75 366.03,-143.33 350.64,-149.72 302.16,-135.75 301.01,-135.42 299.85,-135.08 298.68,-134.74"/>
<polygon fill="black" stroke="black" points="300.06,-131.5 289.47,-131.95 298.03,-138.2 300.06,-131.5"/>
</g>
<!-- com.example.sms.domain.type.money&#45;&gt;com.example.sms.domain.type.quantity -->
<g id="edge16" class="edge">
<title>com.example.sms.domain.type.money&#45;&gt;com.example.sms.domain.type.quantity</title>
<path fill="none" stroke="black" d="M115.16,-96.64C115.16,-89.34 115.16,-80.79 115.16,-72.68"/>
<polygon fill="black" stroke="black" points="118.66,-72.81 115.16,-62.81 111.66,-72.81 118.66,-72.81"/>
</g>
<!-- com.example.sms.domain.model.sales_order.rule -->
<g id="node13" class="node">
<title>com.example.sms.domain.model.sales_order.rule</title>
<g id="a_node13"><a xlink:href="./domain.html#com.example.sms.domain.model.sales_order.rule" xlink:title="受注ルール\nrule">
<polygon fill="#eedd82" stroke="black" points="362.29,-462.88 260.04,-462.88 260.04,-424.12 362.29,-424.12 362.29,-462.88"/>
<text text-anchor="middle" x="311.16" y="-445.57" font-family="Times New Roman,serif" font-size="14.00">受注ルール</text>
<text text-anchor="middle" x="311.16" y="-431.32" font-family="Times New Roman,serif" font-size="14.00">rule</text>
</a>
</g>
</g>
<!-- com.example.sms.domain.model.sales_order.rule&#45;&gt;com.example.sms.domain.model.sales_order -->
<g id="edge15" class="edge">
<title>com.example.sms.domain.model.sales_order.rule&#45;&gt;com.example.sms.domain.model.sales_order</title>
<path fill="none" stroke="black" d="M362.56,-425.88C401.1,-413.42 454.24,-396.24 496.43,-382.6"/>
<polygon fill="black" stroke="black" points="497.3,-385.99 505.74,-379.59 495.15,-379.33 497.3,-385.99"/>
</g>
<!-- com.example.sms.domain.model.sales_order.rule&#45;&gt;com.example.sms.domain.type.money -->
<g id="edge18" class="edge">
<title>com.example.sms.domain.model.sales_order.rule&#45;&gt;com.example.sms.domain.type.money</title>
<path fill="none" stroke="black" d="M271.3,-423.64C264.61,-420.6 257.71,-417.53 251.16,-414.75 157.69,-375.03 95.52,-415.81 38.16,-332 -4.2,-270.1 11.97,-227.7 51.16,-163.75 56.06,-155.76 62.89,-148.74 70.29,-142.73"/>
<polygon fill="black" stroke="black" points="71.99,-145.82 77.93,-137.05 67.81,-140.2 71.99,-145.82"/>
</g>
<!-- com.example.sms.domain.model.system.audit -->
<g id="node15" class="node">
<title>com.example.sms.domain.model.system.audit</title>
<g id="a_node15"><a xlink:href="./domain.html#com.example.sms.domain.model.system.audit" xlink:title="監査\naudit">
<polygon fill="#eedd82" stroke="black" points="138.16,-285.25 84.16,-285.25 84.16,-246.5 138.16,-246.5 138.16,-285.25"/>
<text text-anchor="middle" x="111.16" y="-267.95" font-family="Times New Roman,serif" font-size="14.00">監査</text>
<text text-anchor="middle" x="111.16" y="-253.7" font-family="Times New Roman,serif" font-size="14.00">audit</text>
</a>
</g>
</g>
<!-- com.example.sms.domain.model.system.audit&#45;&gt;com.example.sms.domain.model.system.user -->
<g id="edge20" class="edge">
<title>com.example.sms.domain.model.system.audit&#45;&gt;com.example.sms.domain.model.system.user</title>
<path fill="none" stroke="black" d="M129.7,-246.14C137.93,-237.82 147.77,-227.88 156.75,-218.81"/>
<polygon fill="black" stroke="black" points="159.07,-221.44 163.62,-211.87 154.1,-216.52 159.07,-221.44"/>
</g>
<!-- com.example.sms.domain.model.system.auth -->
<g id="node16" class="node">
<title>com.example.sms.domain.model.system.auth</title>
<g id="a_node16"><a xlink:href="./domain.html#com.example.sms.domain.model.system.auth" xlink:title="認証\nauth">
<polygon fill="#eedd82" stroke="black" points="210.16,-285.25 156.16,-285.25 156.16,-246.5 210.16,-246.5 210.16,-285.25"/>
<text text-anchor="middle" x="183.16" y="-267.95" font-family="Times New Roman,serif" font-size="14.00">認証</text>
<text text-anchor="middle" x="183.16" y="-253.7" font-family="Times New Roman,serif" font-size="14.00">auth</text>
</a>
</g>
</g>
<!-- com.example.sms.domain.model.system.auth&#45;&gt;com.example.sms.domain.model.system.user -->
<g id="edge21" class="edge">
<title>com.example.sms.domain.model.system.auth&#45;&gt;com.example.sms.domain.model.system.user</title>
<path fill="none" stroke="black" d="M183.16,-246.14C183.16,-238.84 183.16,-230.29 183.16,-222.18"/>
<polygon fill="black" stroke="black" points="186.66,-222.31 183.16,-212.31 179.66,-222.31 186.66,-222.31"/>
</g>
<!-- com.example.sms.domain.model.system.download -->
<g id="node17" class="node">
<title>com.example.sms.domain.model.system.download</title>
<g id="a_node17"><a xlink:href="./domain.html#com.example.sms.domain.model.system.download" xlink:title="データダウンロード\ndownload">
<polygon fill="#eedd82" stroke="black" points="399.79,-285.25 228.54,-285.25 228.54,-246.5 399.79,-246.5 399.79,-285.25"/>
<text text-anchor="middle" x="314.16" y="-267.95" font-family="Times New Roman,serif" font-size="14.00">データダウンロード</text>
<text text-anchor="middle" x="314.16" y="-253.7" font-family="Times New Roman,serif" font-size="14.00">download</text>
</a>
</g>
</g>
</g>
</svg>
