<?xml version="1.0" encoding="UTF-8" standalone="no"?>
<!DOCTYPE svg PUBLIC "-//W3C//DTD SVG 1.1//EN"
 "http://www.w3.org/Graphics/SVG/1.1/DTD/svg11.dtd">
<!-- Generated by graphviz version 12.2.0 (20241103.1931)
 -->
<!-- Title: パッケージ関連図 Pages: 1 -->
<svg width="1166pt" height="555pt"
 viewBox="0.00 0.00 1166.25 555.00" xmlns="http://www.w3.org/2000/svg" xmlns:xlink="http://www.w3.org/1999/xlink">
<g id="graph0" class="graph" transform="scale(1 1) rotate(0) translate(4 551)">
<title>パッケージ関連図</title>
<polygon fill="white" stroke="none" points="-4,4 -4,-551 1162.25,-551 1162.25,4 -4,4"/>
<text text-anchor="middle" x="579.12" y="-4.95" font-family="Times New Roman,serif" font-size="14.00">パッケージ関連図</text>
<g id="clust1" class="cluster">
<title>cluster_com.example.sms.domain.model.master.partner</title>
<polygon fill="lemonchiffon" stroke="#eedd82" stroke-width="2" points="478.62,-238.5 478.62,-332 720.62,-332 720.62,-238.5 478.62,-238.5"/>
<text text-anchor="middle" x="599.62" y="-314.7" font-family="Times New Roman,serif" font-size="14.00">取引先</text>
<text text-anchor="middle" x="599.62" y="-300.45" font-family="Times New Roman,serif" font-size="14.00">model.master.partner</text>
</g>
<!-- summary -->
<g id="node1" class="node">
<title>summary</title>
<polygon fill="none" stroke="black" points="804.62,-547 620.62,-547 620.62,-489.5 810.62,-489.5 810.62,-541 804.62,-547"/>
<polyline fill="none" stroke="black" points="804.62,-547 804.62,-541"/>
<polyline fill="none" stroke="black" points="810.62,-541 804.62,-541"/>
<text text-anchor="start" x="628.62" y="-529.7" font-family="Times New Roman,serif" font-size="14.00">root: com.example.sms.domain</text>
<text text-anchor="start" x="628.62" y="-513.2" font-family="Times New Roman,serif" font-size="14.00">パッケージ数: 19</text>
<text text-anchor="start" x="628.62" y="-496.7" font-family="Times New Roman,serif" font-size="14.00">関連数: 35</text>
</g>
<!-- com.example.sms.domain.model.sales_order -->
<g id="node2" class="node">
<title>com.example.sms.domain.model.sales_order</title>
<g id="a_node2"><a xlink:href="./domain.html#com.example.sms.domain.model.sales_order" xlink:title="受注\nmodel.sales_order">
<polygon fill="#eedd82" stroke="black" points="846.5,-453.5 730.75,-453.5 730.75,-414.75 846.5,-414.75 846.5,-453.5"/>
<text text-anchor="middle" x="788.62" y="-436.2" font-family="Times New Roman,serif" font-size="14.00">受注</text>
<text text-anchor="middle" x="788.62" y="-421.95" font-family="Times New Roman,serif" font-size="14.00">model.sales_order</text>
</a>
</g>
</g>
<!-- com.example.sms.domain.model.master.department -->
<g id="node3" class="node">
<title>com.example.sms.domain.model.master.department</title>
<g id="a_node3"><a xlink:href="./domain.html#com.example.sms.domain.model.master.department" xlink:title="部門\nmodel.master.department">
<polygon fill="#eedd82" stroke="black" points="468.38,-378.75 312.88,-378.75 312.88,-340 468.38,-340 468.38,-378.75"/>
<text text-anchor="middle" x="390.62" y="-361.45" font-family="Times New Roman,serif" font-size="14.00">部門</text>
<text text-anchor="middle" x="390.62" y="-347.2" font-family="Times New Roman,serif" font-size="14.00">model.master.department</text>
</a>
</g>
</g>
<!-- com.example.sms.domain.model.sales_order&#45;&gt;com.example.sms.domain.model.master.department -->
<g id="edge1" class="edge">
<title>com.example.sms.domain.model.sales_order&#45;&gt;com.example.sms.domain.model.master.department</title>
<path fill="none" stroke="black" d="M730.33,-422.47C664.37,-410.41 556.19,-390.64 479.65,-376.65"/>
<polygon fill="black" stroke="black" points="480.56,-373.26 470.09,-374.9 479.3,-380.14 480.56,-373.26"/>
</g>
<!-- com.example.sms.domain.model.master.employee -->
<g id="node4" class="node">
<title>com.example.sms.domain.model.master.employee</title>
<g id="a_node4"><a xlink:href="./domain.html#com.example.sms.domain.model.master.employee" xlink:title="社員\nmodel.master.employee">
<polygon fill="#eedd82" stroke="black" points="439.25,-285.25 292,-285.25 292,-246.5 439.25,-246.5 439.25,-285.25"/>
<text text-anchor="middle" x="365.62" y="-267.95" font-family="Times New Roman,serif" font-size="14.00">社員</text>
<text text-anchor="middle" x="365.62" y="-253.7" font-family="Times New Roman,serif" font-size="14.00">model.master.employee</text>
</a>
</g>
</g>
<!-- com.example.sms.domain.model.sales_order&#45;&gt;com.example.sms.domain.model.master.employee -->
<g id="edge8" class="edge">
<title>com.example.sms.domain.model.sales_order&#45;&gt;com.example.sms.domain.model.master.employee</title>
<path fill="none" stroke="black" d="M730.51,-419.19C666.19,-402.68 560.27,-372.27 474.62,-332 449.94,-320.39 423.65,-304.79 403.07,-291.77"/>
<polygon fill="black" stroke="black" points="405.05,-288.87 394.74,-286.43 401.27,-294.77 405.05,-288.87"/>
</g>
<!-- com.example.sms.domain.type.quantity -->
<g id="node6" class="node">
<title>com.example.sms.domain.type.quantity</title>
<g id="a_node6"><a xlink:href="./domain.html#com.example.sms.domain.type.quantity" xlink:title="数量\ntype.quantity">
<polygon fill="#eedd82" stroke="black" points="946.25,-61 859,-61 859,-22.25 946.25,-22.25 946.25,-61"/>
<text text-anchor="middle" x="902.62" y="-43.7" font-family="Times New Roman,serif" font-size="14.00">数量</text>
<text text-anchor="middle" x="902.62" y="-29.45" font-family="Times New Roman,serif" font-size="14.00">type.quantity</text>
</a>
</g>
</g>
<!-- com.example.sms.domain.model.sales_order&#45;&gt;com.example.sms.domain.type.quantity -->
<g id="edge3" class="edge">
<title>com.example.sms.domain.model.sales_order&#45;&gt;com.example.sms.domain.type.quantity</title>
<path fill="none" stroke="black" d="M846.77,-424.52C877.29,-417.17 913.13,-403.63 936.62,-378.75 972.31,-340.97 970.62,-318.84 970.62,-266.88 970.62,-266.88 970.62,-266.88 970.62,-190.12 970.62,-147.88 970.66,-134.71 951.62,-97 946.66,-87.17 939.45,-77.76 932.07,-69.62"/>
<polygon fill="black" stroke="black" points="934.6,-67.2 925.15,-62.41 929.55,-72.05 934.6,-67.2"/>
</g>
<!-- com.example.sms.domain.model.master.partner.customer -->
<g id="node7" class="node">
<title>com.example.sms.domain.model.master.partner.customer</title>
<g id="a_node7"><a xlink:href="./domain.html#com.example.sms.domain.model.master.partner.customer" xlink:title="顧客\ncustomer">
<polygon fill="#eedd82" stroke="black" points="552.75,-285.25 486.5,-285.25 486.5,-246.5 552.75,-246.5 552.75,-285.25"/>
<text text-anchor="middle" x="519.62" y="-267.95" font-family="Times New Roman,serif" font-size="14.00">顧客</text>
<text text-anchor="middle" x="519.62" y="-253.7" font-family="Times New Roman,serif" font-size="14.00">customer</text>
</a>
</g>
</g>
<!-- com.example.sms.domain.model.sales_order&#45;&gt;com.example.sms.domain.model.master.partner.customer -->
<g id="edge23" class="edge">
<title>com.example.sms.domain.model.sales_order&#45;&gt;com.example.sms.domain.model.master.partner.customer</title>
<path fill="none" stroke="black" d="M758.93,-414.42C723.86,-393.17 663.14,-359.01 606.62,-340 587.37,-333.52 578.54,-343.25 561.62,-332 548.45,-323.24 538.52,-308.79 531.63,-295.72"/>
<polygon fill="black" stroke="black" points="534.93,-294.51 527.42,-287.04 528.64,-297.56 534.93,-294.51"/>
</g>
<!-- com.example.sms.domain.type.money -->
<g id="node9" class="node">
<title>com.example.sms.domain.type.money</title>
<g id="a_node9"><a xlink:href="./domain.html#com.example.sms.domain.type.money" xlink:title="通貨\ntype.money">
<polygon fill="#eedd82" stroke="black" points="942.88,-135.75 862.38,-135.75 862.38,-97 942.88,-97 942.88,-135.75"/>
<text text-anchor="middle" x="902.62" y="-118.45" font-family="Times New Roman,serif" font-size="14.00">通貨</text>
<text text-anchor="middle" x="902.62" y="-104.2" font-family="Times New Roman,serif" font-size="14.00">type.money</text>
</a>
</g>
</g>
<!-- com.example.sms.domain.model.sales_order&#45;&gt;com.example.sms.domain.type.money -->
<g id="edge5" class="edge">
<title>com.example.sms.domain.model.sales_order&#45;&gt;com.example.sms.domain.type.money</title>
<path fill="none" stroke="black" d="M846.71,-422.62C871.73,-414.91 898.64,-401.61 913.62,-378.75 960.73,-306.89 932.2,-198.49 914.11,-146.8"/>
<polygon fill="black" stroke="black" points="917.44,-145.72 910.73,-137.51 910.86,-148.11 917.44,-145.72"/>
</g>
<!-- com.example.sms.domain.model.master.product -->
<g id="node13" class="node">
<title>com.example.sms.domain.model.master.product</title>
<g id="a_node13"><a xlink:href="./domain.html#com.example.sms.domain.model.master.product" xlink:title="商品\nmodel.master.product">
<polygon fill="#eedd82" stroke="black" points="904.25,-378.75 769,-378.75 769,-340 904.25,-340 904.25,-378.75"/>
<text text-anchor="middle" x="836.62" y="-361.45" font-family="Times New Roman,serif" font-size="14.00">商品</text>
<text text-anchor="middle" x="836.62" y="-347.2" font-family="Times New Roman,serif" font-size="14.00">model.master.product</text>
</a>
</g>
</g>
<!-- com.example.sms.domain.model.sales_order&#45;&gt;com.example.sms.domain.model.master.product -->
<g id="edge18" class="edge">
<title>com.example.sms.domain.model.sales_order&#45;&gt;com.example.sms.domain.model.master.product</title>
<path fill="none" stroke="black" d="M800.99,-414.39C806.19,-406.5 812.36,-397.14 818.1,-388.46"/>
<polygon fill="black" stroke="black" points="820.89,-390.58 823.47,-380.31 815.04,-386.73 820.89,-390.58"/>
</g>
<!-- com.example.sms.domain.model.master.partner -->
<g id="node16" class="node">
<title>com.example.sms.domain.model.master.partner</title>
<g id="a_node16"><a xlink:href="./domain.html#com.example.sms.domain.model.master.partner" xlink:title="取引先\nmodel.master.partner">
<polygon fill="#eedd82" stroke="black" points="806.75,-210.5 674.5,-210.5 674.5,-171.75 806.75,-171.75 806.75,-210.5"/>
<text text-anchor="middle" x="740.62" y="-193.2" font-family="Times New Roman,serif" font-size="14.00">取引先</text>
<text text-anchor="middle" x="740.62" y="-178.95" font-family="Times New Roman,serif" font-size="14.00">model.master.partner</text>
</a>
</g>
</g>
<!-- com.example.sms.domain.model.sales_order&#45;&gt;com.example.sms.domain.model.master.partner -->
<g id="edge14" class="edge">
<title>com.example.sms.domain.model.sales_order&#45;&gt;com.example.sms.domain.model.master.partner</title>
<path fill="none" stroke="black" d="M776.23,-414.29C770.19,-404.17 763.43,-391.24 759.62,-378.75 743.31,-325.2 740.34,-259.42 740.15,-221.98"/>
<polygon fill="black" stroke="black" points="743.65,-222.39 740.17,-212.38 736.65,-222.38 743.65,-222.39"/>
</g>
<!-- com.example.sms.domain.model.master.department&#45;&gt;com.example.sms.domain.model.master.employee -->
<g id="edge28" class="edge">
<title>com.example.sms.domain.model.master.department&#45;&gt;com.example.sms.domain.model.master.employee</title>
<path fill="none" stroke="red" stroke-width="2" d="M382.63,-329.1C379.8,-318.76 376.62,-307.13 373.78,-296.74"/>
<polygon fill="red" stroke="red" stroke-width="2" points="378.76,-328.21 384.77,-336.94 385.51,-326.37 378.76,-328.21"/>
<polygon fill="red" stroke="red" stroke-width="2" points="377.57,-297.32 371.56,-288.6 370.82,-299.17 377.57,-297.32"/>
</g>
<!-- com.example.sms.domain.model.system.user -->
<g id="node5" class="node">
<title>com.example.sms.domain.model.system.user</title>
<g id="a_node5"><a xlink:href="./domain.html#com.example.sms.domain.model.system.user" xlink:title="ユーザー\nmodel.system.user">
<polygon fill="#eedd82" stroke="black" points="245,-210.5 126.25,-210.5 126.25,-171.75 245,-171.75 245,-210.5"/>
<text text-anchor="middle" x="185.62" y="-193.2" font-family="Times New Roman,serif" font-size="14.00">ユーザー</text>
<text text-anchor="middle" x="185.62" y="-178.95" font-family="Times New Roman,serif" font-size="14.00">model.system.user</text>
</a>
</g>
</g>
<!-- com.example.sms.domain.model.master.employee&#45;&gt;com.example.sms.domain.model.system.user -->
<g id="edge2" class="edge">
<title>com.example.sms.domain.model.master.employee&#45;&gt;com.example.sms.domain.model.system.user</title>
<path fill="none" stroke="black" d="M319.27,-246.14C295.95,-236.72 267.47,-225.21 242.81,-215.24"/>
<polygon fill="black" stroke="black" points="244.12,-211.99 233.54,-211.49 241.5,-218.48 244.12,-211.99"/>
</g>
<!-- com.example.sms.domain.type.phone -->
<g id="node12" class="node">
<title>com.example.sms.domain.type.phone</title>
<g id="a_node12"><a xlink:href="./domain.html#com.example.sms.domain.type.phone" xlink:title="電話番号\ntype.phone">
<polygon fill="#eedd82" stroke="black" points="348.12,-210.5 263.12,-210.5 263.12,-171.75 348.12,-171.75 348.12,-210.5"/>
<text text-anchor="middle" x="305.62" y="-193.2" font-family="Times New Roman,serif" font-size="14.00">電話番号</text>
<text text-anchor="middle" x="305.62" y="-178.95" font-family="Times New Roman,serif" font-size="14.00">type.phone</text>
</a>
</g>
</g>
<!-- com.example.sms.domain.model.master.employee&#45;&gt;com.example.sms.domain.type.phone -->
<g id="edge7" class="edge">
<title>com.example.sms.domain.model.master.employee&#45;&gt;com.example.sms.domain.type.phone</title>
<path fill="none" stroke="black" d="M350.17,-246.14C343.52,-238.08 335.62,-228.49 328.32,-219.65"/>
<polygon fill="black" stroke="black" points="331.05,-217.45 321.99,-211.96 325.65,-221.91 331.05,-217.45"/>
</g>
<!-- com.example.sms.domain.type.mail -->
<g id="node8" class="node">
<title>com.example.sms.domain.type.mail</title>
<g id="a_node8"><a xlink:href="./domain.html#com.example.sms.domain.type.mail" xlink:title="メール\ntype.mail">
<polygon fill="#eedd82" stroke="black" points="618.5,-210.5 550.75,-210.5 550.75,-171.75 618.5,-171.75 618.5,-210.5"/>
<text text-anchor="middle" x="584.62" y="-193.2" font-family="Times New Roman,serif" font-size="14.00">メール</text>
<text text-anchor="middle" x="584.62" y="-178.95" font-family="Times New Roman,serif" font-size="14.00">type.mail</text>
</a>
</g>
</g>
<!-- com.example.sms.domain.model.master.partner.customer&#45;&gt;com.example.sms.domain.type.mail -->
<g id="edge4" class="edge">
<title>com.example.sms.domain.model.master.partner.customer&#45;&gt;com.example.sms.domain.type.mail</title>
<path fill="none" stroke="black" d="M536.36,-246.14C543.64,-237.99 552.31,-228.29 560.28,-219.37"/>
<polygon fill="black" stroke="black" points="562.88,-221.71 566.93,-211.93 557.66,-217.05 562.88,-221.71"/>
</g>
<!-- com.example.sms.domain.type.address -->
<g id="node11" class="node">
<title>com.example.sms.domain.type.address</title>
<g id="a_node11"><a xlink:href="./domain.html#com.example.sms.domain.type.address" xlink:title="住所\ntype.address">
<polygon fill="#eedd82" stroke="black" points="688.38,-135.75 604.88,-135.75 604.88,-97 688.38,-97 688.38,-135.75"/>
<text text-anchor="middle" x="646.62" y="-118.45" font-family="Times New Roman,serif" font-size="14.00">住所</text>
<text text-anchor="middle" x="646.62" y="-104.2" font-family="Times New Roman,serif" font-size="14.00">type.address</text>
</a>
</g>
</g>
<!-- com.example.sms.domain.model.master.partner.customer&#45;&gt;com.example.sms.domain.type.address -->
<g id="edge15" class="edge">
<title>com.example.sms.domain.model.master.partner.customer&#45;&gt;com.example.sms.domain.type.address</title>
<path fill="none" stroke="black" d="M519.6,-246.13C520.5,-225.8 524.77,-193.36 541.62,-171.75 554.89,-154.75 574.95,-142.54 593.99,-134.06"/>
<polygon fill="black" stroke="black" points="595.13,-137.38 603.02,-130.31 592.44,-130.92 595.13,-137.38"/>
</g>
<!-- com.example.sms.domain.model.master.partner.customer&#45;&gt;com.example.sms.domain.type.phone -->
<g id="edge9" class="edge">
<title>com.example.sms.domain.model.master.partner.customer&#45;&gt;com.example.sms.domain.type.phone</title>
<path fill="none" stroke="black" d="M486.18,-252C474.36,-247.57 460.95,-242.68 448.62,-238.5 411.68,-225.97 399.66,-224.03 359.32,-210.98"/>
<polygon fill="black" stroke="black" points="360.46,-207.66 349.86,-207.88 358.28,-214.32 360.46,-207.66"/>
</g>
<!-- com.example.sms.domain.model.master.region -->
<g id="node15" class="node">
<title>com.example.sms.domain.model.master.region</title>
<g id="a_node15"><a xlink:href="./domain.html#com.example.sms.domain.model.master.region" xlink:title="地域\nmodel.master.region">
<polygon fill="#eedd82" stroke="black" points="494.88,-210.5 366.38,-210.5 366.38,-171.75 494.88,-171.75 494.88,-210.5"/>
<text text-anchor="middle" x="430.62" y="-193.2" font-family="Times New Roman,serif" font-size="14.00">地域</text>
<text text-anchor="middle" x="430.62" y="-178.95" font-family="Times New Roman,serif" font-size="14.00">model.master.region</text>
</a>
</g>
</g>
<!-- com.example.sms.domain.model.master.partner.customer&#45;&gt;com.example.sms.domain.model.master.region -->
<g id="edge13" class="edge">
<title>com.example.sms.domain.model.master.partner.customer&#45;&gt;com.example.sms.domain.model.master.region</title>
<path fill="none" stroke="black" d="M496.71,-246.14C486.22,-237.57 473.63,-227.27 462.26,-217.98"/>
<polygon fill="black" stroke="black" points="464.6,-215.37 454.64,-211.75 460.17,-220.79 464.6,-215.37"/>
</g>
<!-- com.example.sms.domain.model.master.partner.customer&#45;&gt;com.example.sms.domain.model.master.partner -->
<g id="edge27" class="edge">
<title>com.example.sms.domain.model.master.partner.customer&#45;&gt;com.example.sms.domain.model.master.partner</title>
<path fill="none" stroke="red" stroke-width="2" d="M557.01,-240.62C558.55,-239.87 560.09,-239.16 561.62,-238.5 593.8,-224.63 631.07,-214.15 663.25,-206.7"/>
<polygon fill="red" stroke="red" stroke-width="2" points="556.79,-236.77 549.65,-244.6 560.11,-242.93 556.79,-236.77"/>
<polygon fill="red" stroke="red" stroke-width="2" points="662.46,-210.47 671.44,-204.86 660.92,-203.64 662.46,-210.47"/>
</g>
<!-- com.example.sms.domain.type.money&#45;&gt;com.example.sms.domain.type.quantity -->
<g id="edge21" class="edge">
<title>com.example.sms.domain.type.money&#45;&gt;com.example.sms.domain.type.quantity</title>
<path fill="none" stroke="black" d="M902.62,-96.64C902.62,-89.34 902.62,-80.79 902.62,-72.68"/>
<polygon fill="black" stroke="black" points="906.13,-72.81 902.63,-62.81 899.13,-72.81 906.13,-72.81"/>
</g>
<!-- com.example.sms.domain.model.master.partner.vendor -->
<g id="node10" class="node">
<title>com.example.sms.domain.model.master.partner.vendor</title>
<g id="a_node10"><a xlink:href="./domain.html#com.example.sms.domain.model.master.partner.vendor" xlink:title="仕入先\nvendor">
<polygon fill="#eedd82" stroke="black" points="638.5,-285.25 570.75,-285.25 570.75,-246.5 638.5,-246.5 638.5,-285.25"/>
<text text-anchor="middle" x="604.62" y="-267.95" font-family="Times New Roman,serif" font-size="14.00">仕入先</text>
<text text-anchor="middle" x="604.62" y="-253.7" font-family="Times New Roman,serif" font-size="14.00">vendor</text>
</a>
</g>
</g>
<!-- com.example.sms.domain.model.master.partner.vendor&#45;&gt;com.example.sms.domain.type.mail -->
<g id="edge11" class="edge">
<title>com.example.sms.domain.model.master.partner.vendor&#45;&gt;com.example.sms.domain.type.mail</title>
<path fill="none" stroke="black" d="M599.47,-246.14C597.44,-238.76 595.06,-230.1 592.81,-221.9"/>
<polygon fill="black" stroke="black" points="596.18,-220.97 590.16,-212.26 589.44,-222.83 596.18,-220.97"/>
</g>
<!-- com.example.sms.domain.model.master.partner.vendor&#45;&gt;com.example.sms.domain.type.address -->
<g id="edge6" class="edge">
<title>com.example.sms.domain.model.master.partner.vendor&#45;&gt;com.example.sms.domain.type.address</title>
<path fill="none" stroke="black" d="M613.66,-246.1C618.35,-235.78 623.86,-222.64 627.62,-210.5 634.04,-189.81 638.87,-165.86 642.06,-147.43"/>
<polygon fill="black" stroke="black" points="645.49,-148.13 643.67,-137.7 638.58,-146.99 645.49,-148.13"/>
</g>
<!-- com.example.sms.domain.model.master.partner.vendor&#45;&gt;com.example.sms.domain.type.phone -->
<g id="edge24" class="edge">
<title>com.example.sms.domain.model.master.partner.vendor&#45;&gt;com.example.sms.domain.type.phone</title>
<path fill="none" stroke="black" d="M577.72,-246.07C572.56,-243.14 567.07,-240.45 561.62,-238.5 478.81,-208.9 448.91,-230.26 359.73,-210.65"/>
<polygon fill="black" stroke="black" points="360.56,-207.25 350.03,-208.39 358.97,-214.07 360.56,-207.25"/>
</g>
<!-- com.example.sms.domain.model.master.partner.vendor&#45;&gt;com.example.sms.domain.model.master.partner -->
<g id="edge29" class="edge">
<title>com.example.sms.domain.model.master.partner.vendor&#45;&gt;com.example.sms.domain.model.master.partner</title>
<path fill="none" stroke="red" stroke-width="2" d="M644.38,-240.32C645.47,-239.7 646.55,-239.09 647.62,-238.5 661.59,-230.75 677.02,-222.82 691.22,-215.76"/>
<polygon fill="red" stroke="red" stroke-width="2" points="643.99,-236.5 637.11,-244.56 647.51,-242.54 643.99,-236.5"/>
<polygon fill="red" stroke="red" stroke-width="2" points="691.18,-219.68 698.6,-212.12 688.08,-213.4 691.18,-219.68"/>
</g>
<!-- com.example.sms.domain.model.master.product&#45;&gt;com.example.sms.domain.type.quantity -->
<g id="edge10" class="edge">
<title>com.example.sms.domain.model.master.product&#45;&gt;com.example.sms.domain.type.quantity</title>
<path fill="none" stroke="black" d="M833.81,-339.69C827.98,-295.44 817.92,-181.63 853.62,-97 857.83,-87.03 864.67,-77.67 871.91,-69.62"/>
<polygon fill="black" stroke="black" points="874.34,-72.15 878.78,-62.53 869.31,-67.28 874.34,-72.15"/>
</g>
<!-- com.example.sms.domain.model.master.product&#45;&gt;com.example.sms.domain.type.money -->
<g id="edge19" class="edge">
<title>com.example.sms.domain.model.master.product&#45;&gt;com.example.sms.domain.type.money</title>
<path fill="none" stroke="black" d="M845.69,-339.53C846.75,-337.02 847.76,-334.47 848.62,-332 871.2,-267.5 888.48,-189.02 896.91,-147.13"/>
<polygon fill="black" stroke="black" points="900.3,-148.05 898.81,-137.56 893.43,-146.69 900.3,-148.05"/>
</g>
<!-- com.example.sms.domain.model.master.product&#45;&gt;com.example.sms.domain.model.master.partner.vendor -->
<g id="edge22" class="edge">
<title>com.example.sms.domain.model.master.product&#45;&gt;com.example.sms.domain.model.master.partner.vendor</title>
<path fill="none" stroke="black" d="M768.66,-349.55C715.55,-342.55 650.27,-333.67 647.62,-332 634.06,-323.44 623.85,-308.88 616.79,-295.69"/>
<polygon fill="black" stroke="black" points="620.02,-294.33 612.47,-286.9 613.74,-297.42 620.02,-294.33"/>
</g>
<!-- com.example.sms.domain.model.system.audit -->
<g id="node14" class="node">
<title>com.example.sms.domain.model.system.audit</title>
<g id="a_node14"><a xlink:href="./domain.html#com.example.sms.domain.model.system.audit" xlink:title="監査\nmodel.system.audit">
<polygon fill="#eedd82" stroke="black" points="123.25,-285.25 0,-285.25 0,-246.5 123.25,-246.5 123.25,-285.25"/>
<text text-anchor="middle" x="61.62" y="-267.95" font-family="Times New Roman,serif" font-size="14.00">監査</text>
<text text-anchor="middle" x="61.62" y="-253.7" font-family="Times New Roman,serif" font-size="14.00">model.system.audit</text>
</a>
</g>
</g>
<!-- com.example.sms.domain.model.system.audit&#45;&gt;com.example.sms.domain.model.system.user -->
<g id="edge12" class="edge">
<title>com.example.sms.domain.model.system.audit&#45;&gt;com.example.sms.domain.model.system.user</title>
<path fill="none" stroke="black" d="M93.56,-246.14C108.89,-237.15 127.46,-226.25 143.89,-216.61"/>
<polygon fill="black" stroke="black" points="145.64,-219.64 152.49,-211.56 142.1,-213.6 145.64,-219.64"/>
</g>
<!-- com.example.sms.domain.model.master.partner&#45;&gt;com.example.sms.domain.type.money -->
<g id="edge17" class="edge">
<title>com.example.sms.domain.model.master.partner&#45;&gt;com.example.sms.domain.type.money</title>
<path fill="none" stroke="black" d="M782.34,-171.39C803.47,-161.9 829.29,-150.31 851.59,-140.29"/>
<polygon fill="black" stroke="black" points="852.82,-143.58 860.51,-136.29 849.95,-137.19 852.82,-143.58"/>
</g>
<!-- com.example.sms.domain.model.master.partner&#45;&gt;com.example.sms.domain.type.address -->
<g id="edge16" class="edge">
<title>com.example.sms.domain.model.master.partner&#45;&gt;com.example.sms.domain.type.address</title>
<path fill="none" stroke="black" d="M716.42,-171.39C705.23,-162.73 691.78,-152.32 679.68,-142.96"/>
<polygon fill="black" stroke="black" points="682,-140.33 671.95,-136.97 677.71,-145.86 682,-140.33"/>
</g>
<!-- com.example.sms.domain.model.sales_order.rule -->
<g id="node17" class="node">
<title>com.example.sms.domain.model.sales_order.rule</title>
<g id="a_node17"><a xlink:href="./domain.html#com.example.sms.domain.model.sales_order.rule" xlink:title="受注ルール\nmodel.sales_order.rule">
<polygon fill="#eedd82" stroke="black" points="968.5,-537.62 828.75,-537.62 828.75,-498.88 968.5,-498.88 968.5,-537.62"/>
<text text-anchor="middle" x="898.62" y="-520.33" font-family="Times New Roman,serif" font-size="14.00">受注ルール</text>
<text text-anchor="middle" x="898.62" y="-506.07" font-family="Times New Roman,serif" font-size="14.00">model.sales_order.rule</text>
</a>
</g>
</g>
<!-- com.example.sms.domain.model.sales_order.rule&#45;&gt;com.example.sms.domain.model.sales_order -->
<g id="edge20" class="edge">
<title>com.example.sms.domain.model.sales_order.rule&#45;&gt;com.example.sms.domain.model.sales_order</title>
<path fill="none" stroke="black" d="M873.39,-498.41C858.44,-487.25 839.28,-472.95 822.97,-460.77"/>
<polygon fill="black" stroke="black" points="825.06,-457.96 814.96,-454.78 820.88,-463.57 825.06,-457.96"/>
</g>
<!-- com.example.sms.domain.model.sales_order.rule&#45;&gt;com.example.sms.domain.type.money -->
<g id="edge25" class="edge">
<title>com.example.sms.domain.model.sales_order.rule&#45;&gt;com.example.sms.domain.type.money</title>
<path fill="none" stroke="black" d="M923.59,-498.47C956.04,-471.71 1008.62,-419.25 1008.62,-360.38 1008.62,-360.38 1008.62,-360.38 1008.62,-264.88 1008.62,-214.72 967.71,-169.95 936.72,-143.24"/>
<polygon fill="black" stroke="black" points="939.36,-140.89 929.45,-137.16 934.88,-146.26 939.36,-140.89"/>
</g>
<!-- com.example.sms.domain.model.system.auth -->
<g id="node18" class="node">
<title>com.example.sms.domain.model.system.auth</title>
<g id="a_node18"><a xlink:href="./domain.html#com.example.sms.domain.model.system.auth" xlink:title="認証\nmodel.system.auth">
<polygon fill="#eedd82" stroke="black" points="260.38,-285.25 140.88,-285.25 140.88,-246.5 260.38,-246.5 260.38,-285.25"/>
<text text-anchor="middle" x="200.62" y="-267.95" font-family="Times New Roman,serif" font-size="14.00">認証</text>
<text text-anchor="middle" x="200.62" y="-253.7" font-family="Times New Roman,serif" font-size="14.00">model.system.auth</text>
</a>
</g>
</g>
<!-- com.example.sms.domain.model.system.auth&#45;&gt;com.example.sms.domain.model.system.user -->
<g id="edge26" class="edge">
<title>com.example.sms.domain.model.system.auth&#45;&gt;com.example.sms.domain.model.system.user</title>
<path fill="none" stroke="black" d="M196.76,-246.14C195.24,-238.76 193.45,-230.1 191.76,-221.9"/>
<polygon fill="black" stroke="black" points="195.23,-221.37 189.78,-212.28 188.37,-222.78 195.23,-221.37"/>
</g>
<!-- com.example.sms.domain.model.master.partner.invoice -->
<g id="node19" class="node">
<title>com.example.sms.domain.model.master.partner.invoice</title>
<g id="a_node19"><a xlink:href="./domain.html#com.example.sms.domain.model.master.partner.invoice" xlink:title="請求\ninvoice">
<polygon fill="#eedd82" stroke="black" points="712.5,-285.25 656.75,-285.25 656.75,-246.5 712.5,-246.5 712.5,-285.25"/>
<text text-anchor="middle" x="684.62" y="-267.95" font-family="Times New Roman,serif" font-size="14.00">請求</text>
<text text-anchor="middle" x="684.62" y="-253.7" font-family="Times New Roman,serif" font-size="14.00">invoice</text>
</a>
</g>
</g>
<!-- com.example.sms.domain.model.system.download -->
<g id="node20" class="node">
<title>com.example.sms.domain.model.system.download</title>
<g id="a_node20"><a xlink:href="./domain.html#com.example.sms.domain.model.system.download" xlink:title="データダウンロード\nmodel.system.download">
<polygon fill="#eedd82" stroke="black" points="1158.25,-537.62 987,-537.62 987,-498.88 1158.25,-498.88 1158.25,-537.62"/>
<text text-anchor="middle" x="1072.62" y="-520.33" font-family="Times New Roman,serif" font-size="14.00">データダウンロード</text>
<text text-anchor="middle" x="1072.62" y="-506.07" font-family="Times New Roman,serif" font-size="14.00">model.system.download</text>
</a>
</g>
</g>
</g>
</svg>
