<?xml version="1.0" encoding="UTF-8" standalone="no"?>
<!DOCTYPE svg PUBLIC "-//W3C//DTD SVG 1.1//EN"
 "http://www.w3.org/Graphics/SVG/1.1/DTD/svg11.dtd">
<!-- Generated by graphviz version 12.1.2 (20240928.0832)
 -->
<!-- Title: アーキテクチャ図 Pages: 1 -->
<svg width="1222pt" height="355pt"
 viewBox="0.00 0.00 1221.88 355.00" xmlns="http://www.w3.org/2000/svg" xmlns:xlink="http://www.w3.org/1999/xlink">
<g id="graph0" class="graph" transform="scale(1 1) rotate(0) translate(4 351)">
<title>アーキテクチャ図</title>
<polygon fill="white" stroke="none" points="-4,4 -4,-351 1217.88,-351 1217.88,4 -4,4"/>
<text text-anchor="middle" x="606.94" y="-5.7" font-family="Times,serif" font-size="14.00">アーキテクチャ図</text>
<g id="clust1" class="cluster">
<title>clusterArchitecture</title>
<polygon fill="lightyellow" stroke="#eedd82" points="623.62,-87 623.62,-283 1113.62,-283 1113.62,-87 623.62,-87"/>
</g>
<!-- com.example.sms.domain -->
<g id="node1" class="node">
<title>com.example.sms.domain</title>
<polygon fill="#eedd82" stroke="black" points="881.88,-131 765.38,-131 765.38,-127 761.38,-127 761.38,-123 765.38,-123 765.38,-103 761.38,-103 761.38,-99 765.38,-99 765.38,-95 881.88,-95 881.88,-131"/>
<polyline fill="none" stroke="black" points="765.38,-127 769.38,-127 769.38,-123 765.38,-123"/>
<polyline fill="none" stroke="black" points="765.38,-103 769.38,-103 769.38,-99 765.38,-99"/>
<text text-anchor="middle" x="823.62" y="-104.5" font-family="Times,serif" font-size="20.00">ドメイン層</text>
</g>
<!-- org.springframework -->
<g id="node5" class="node">
<title>org.springframework</title>
<polygon fill="lightgrey" stroke="black" points="543.38,-59 411.88,-59 411.88,-55 407.88,-55 407.88,-51 411.88,-51 411.88,-31 407.88,-31 407.88,-27 411.88,-27 411.88,-23 543.38,-23 543.38,-59"/>
<polyline fill="none" stroke="black" points="411.88,-55 415.88,-55 415.88,-51 411.88,-51"/>
<polyline fill="none" stroke="black" points="411.88,-31 415.88,-31 415.88,-27 411.88,-27"/>
<text text-anchor="middle" x="477.62" y="-35.95" font-family="Times,serif" font-size="14.00">org.springframework</text>
</g>
<!-- com.example.sms.domain&#45;&gt;org.springframework -->
<g id="edge13" class="edge">
<title>com.example.sms.domain&#45;&gt;org.springframework</title>
<path fill="none" stroke="black" d="M812,-94.62C812,-70.72 812,-32 812,-32 812,-32 555.2,-32 555.2,-32"/>
<polygon fill="black" stroke="black" points="555.2,-28.5 545.2,-32 555.2,-35.5 555.2,-28.5"/>
</g>
<!-- lombok -->
<g id="node14" class="node">
<title>lombok</title>
<polygon fill="lightgrey" stroke="black" points="916.62,-59 858.62,-59 858.62,-55 854.62,-55 854.62,-51 858.62,-51 858.62,-31 854.62,-31 854.62,-27 858.62,-27 858.62,-23 916.62,-23 916.62,-59"/>
<polyline fill="none" stroke="black" points="858.62,-55 862.62,-55 862.62,-51 858.62,-51"/>
<polyline fill="none" stroke="black" points="858.62,-31 862.62,-31 862.62,-27 858.62,-27"/>
<text text-anchor="middle" x="887.62" y="-35.95" font-family="Times,serif" font-size="14.00">lombok</text>
</g>
<!-- com.example.sms.domain&#45;&gt;lombok -->
<g id="edge24" class="edge">
<title>com.example.sms.domain&#45;&gt;lombok</title>
<path fill="none" stroke="black" d="M870.25,-94.83C870.25,-94.83 870.25,-70.93 870.25,-70.93"/>
<polygon fill="black" stroke="black" points="873.75,-70.93 870.25,-60.93 866.75,-70.93 873.75,-70.93"/>
</g>
<!-- com.example.sms.infrastructure -->
<g id="node2" class="node">
<title>com.example.sms.infrastructure</title>
<polygon fill="#eedd82" stroke="black" points="869.25,-275 632,-275 632,-271 628,-271 628,-267 632,-267 632,-247 628,-247 628,-243 632,-243 632,-239 869.25,-239 869.25,-275"/>
<polyline fill="none" stroke="black" points="632,-271 636,-271 636,-267 632,-267"/>
<polyline fill="none" stroke="black" points="632,-247 636,-247 636,-243 632,-243"/>
<text text-anchor="middle" x="750.62" y="-248.5" font-family="Times,serif" font-size="20.00">インフラストラクチャ層</text>
</g>
<!-- com.example.sms.infrastructure&#45;&gt;com.example.sms.domain -->
<g id="edge15" class="edge">
<title>com.example.sms.infrastructure&#45;&gt;com.example.sms.domain</title>
<path fill="none" stroke="black" d="M836.75,-238.76C836.75,-238.76 836.75,-142.6 836.75,-142.6"/>
<polygon fill="black" stroke="black" points="840.25,-142.6 836.75,-132.6 833.25,-142.6 840.25,-142.6"/>
</g>
<!-- com.example.sms.service -->
<g id="node4" class="node">
<title>com.example.sms.service</title>
<polygon fill="#eedd82" stroke="black" points="804.25,-203 687,-203 687,-199 683,-199 683,-195 687,-195 687,-175 683,-175 683,-171 687,-171 687,-167 804.25,-167 804.25,-203"/>
<polyline fill="none" stroke="black" points="687,-199 691,-199 691,-195 687,-195"/>
<polyline fill="none" stroke="black" points="687,-175 691,-175 691,-171 687,-171"/>
<text text-anchor="middle" x="745.62" y="-176.5" font-family="Times,serif" font-size="20.00">サービス層</text>
</g>
<!-- com.example.sms.infrastructure&#45;&gt;com.example.sms.service -->
<g id="edge3" class="edge">
<title>com.example.sms.infrastructure&#45;&gt;com.example.sms.service</title>
<path fill="none" stroke="black" d="M745.62,-238.83C745.62,-238.83 745.62,-214.93 745.62,-214.93"/>
<polygon fill="black" stroke="black" points="749.13,-214.93 745.63,-204.93 742.13,-214.93 749.13,-214.93"/>
</g>
<!-- com.example.sms.infrastructure&#45;&gt;org.springframework -->
<g id="edge1" class="edge">
<title>com.example.sms.infrastructure&#45;&gt;org.springframework</title>
<path fill="none" stroke="black" d="M668.67,-238.63C668.67,-187.97 668.67,-50 668.67,-50 668.67,-50 555.15,-50 555.15,-50"/>
<polygon fill="black" stroke="black" points="555.15,-46.5 545.15,-50 555.15,-53.5 555.15,-46.5"/>
</g>
<!-- org.apache -->
<g id="node6" class="node">
<title>org.apache</title>
<polygon fill="lightgrey" stroke="black" points="75.25,-203 0,-203 0,-199 -4,-199 -4,-195 0,-195 0,-175 -4,-175 -4,-171 0,-171 0,-167 75.25,-167 75.25,-203"/>
<polyline fill="none" stroke="black" points="0,-199 4,-199 4,-195 0,-195"/>
<polyline fill="none" stroke="black" points="0,-175 4,-175 4,-171 0,-171"/>
<text text-anchor="middle" x="37.62" y="-179.95" font-family="Times,serif" font-size="14.00">org.apache</text>
</g>
<!-- com.example.sms.infrastructure&#45;&gt;org.apache -->
<g id="edge2" class="edge">
<title>com.example.sms.infrastructure&#45;&gt;org.apache</title>
<path fill="none" stroke="black" d="M631.69,-267.8C428.83,-267.8 37.62,-267.8 37.62,-267.8 37.62,-267.8 37.62,-214.89 37.62,-214.89"/>
<polygon fill="black" stroke="black" points="41.13,-214.89 37.63,-204.89 34.13,-214.89 41.13,-214.89"/>
</g>
<!-- com.github -->
<g id="node7" class="node">
<title>com.github</title>
<polygon fill="lightgrey" stroke="black" points="615.75,-131 537.5,-131 537.5,-127 533.5,-127 533.5,-123 537.5,-123 537.5,-103 533.5,-103 533.5,-99 537.5,-99 537.5,-95 615.75,-95 615.75,-131"/>
<polyline fill="none" stroke="black" points="537.5,-127 541.5,-127 541.5,-123 537.5,-123"/>
<polyline fill="none" stroke="black" points="537.5,-103 541.5,-103 541.5,-99 537.5,-99"/>
<text text-anchor="middle" x="576.62" y="-107.95" font-family="Times,serif" font-size="14.00">com.github</text>
</g>
<!-- com.example.sms.infrastructure&#45;&gt;com.github -->
<g id="edge21" class="edge">
<title>com.example.sms.infrastructure&#45;&gt;com.github</title>
<path fill="none" stroke="black" d="M650.33,-238.67C650.33,-201.14 650.33,-119 650.33,-119 650.33,-119 627.58,-119 627.58,-119"/>
<polygon fill="black" stroke="black" points="627.58,-115.5 617.58,-119 627.58,-122.5 627.58,-115.5"/>
</g>
<!-- io.swagger -->
<g id="node10" class="node">
<title>io.swagger</title>
<polygon fill="lightgrey" stroke="black" points="449.25,-203 374,-203 374,-199 370,-199 370,-195 374,-195 374,-175 370,-175 370,-171 374,-171 374,-167 449.25,-167 449.25,-203"/>
<polyline fill="none" stroke="black" points="374,-199 378,-199 378,-195 374,-195"/>
<polyline fill="none" stroke="black" points="374,-175 378,-175 378,-171 374,-171"/>
<text text-anchor="middle" x="411.62" y="-179.95" font-family="Times,serif" font-size="14.00">io.swagger</text>
</g>
<!-- com.example.sms.infrastructure&#45;&gt;io.swagger -->
<g id="edge9" class="edge">
<title>com.example.sms.infrastructure&#45;&gt;io.swagger</title>
<path fill="none" stroke="black" d="M631.61,-246.2C529.62,-246.2 399.08,-246.2 399.08,-246.2 399.08,-246.2 399.08,-214.88 399.08,-214.88"/>
<polygon fill="black" stroke="black" points="402.58,-214.88 399.08,-204.88 395.58,-214.88 402.58,-214.88"/>
</g>
<!-- io.jsonwebtoken -->
<g id="node12" class="node">
<title>io.jsonwebtoken</title>
<polygon fill="lightgrey" stroke="black" points="237.25,-203 132,-203 132,-199 128,-199 128,-195 132,-195 132,-175 128,-175 128,-171 132,-171 132,-167 237.25,-167 237.25,-203"/>
<polyline fill="none" stroke="black" points="132,-199 136,-199 136,-195 132,-195"/>
<polyline fill="none" stroke="black" points="132,-175 136,-175 136,-171 132,-171"/>
<text text-anchor="middle" x="184.62" y="-179.95" font-family="Times,serif" font-size="14.00">io.jsonwebtoken</text>
</g>
<!-- com.example.sms.infrastructure&#45;&gt;io.jsonwebtoken -->
<g id="edge14" class="edge">
<title>com.example.sms.infrastructure&#45;&gt;io.jsonwebtoken</title>
<path fill="none" stroke="black" d="M631.63,-260.6C465.61,-260.6 184.62,-260.6 184.62,-260.6 184.62,-260.6 184.62,-214.81 184.62,-214.81"/>
<polygon fill="black" stroke="black" points="188.13,-214.81 184.63,-204.81 181.13,-214.81 188.13,-214.81"/>
</g>
<!-- org.slf4j -->
<g id="node13" class="node">
<title>org.slf4j</title>
<polygon fill="lightgrey" stroke="black" points="355.5,-203 293.75,-203 293.75,-199 289.75,-199 289.75,-195 293.75,-195 293.75,-175 289.75,-175 289.75,-171 293.75,-171 293.75,-167 355.5,-167 355.5,-203"/>
<polyline fill="none" stroke="black" points="293.75,-199 297.75,-199 297.75,-195 293.75,-195"/>
<polyline fill="none" stroke="black" points="293.75,-175 297.75,-175 297.75,-171 293.75,-171"/>
<text text-anchor="middle" x="324.62" y="-179.95" font-family="Times,serif" font-size="14.00">org.slf4j</text>
</g>
<!-- com.example.sms.infrastructure&#45;&gt;org.slf4j -->
<g id="edge19" class="edge">
<title>com.example.sms.infrastructure&#45;&gt;org.slf4j</title>
<path fill="none" stroke="black" d="M631.69,-253.4C502.51,-253.4 314.33,-253.4 314.33,-253.4 314.33,-253.4 314.33,-214.84 314.33,-214.84"/>
<polygon fill="black" stroke="black" points="317.83,-214.84 314.33,-204.84 310.83,-214.84 317.83,-214.84"/>
</g>
<!-- com.example.sms.presentation -->
<g id="node3" class="node">
<title>com.example.sms.presentation</title>
<polygon fill="#eedd82" stroke="black" points="1105.88,-275 887.38,-275 887.38,-271 883.38,-271 883.38,-267 887.38,-267 887.38,-247 883.38,-247 883.38,-243 887.38,-243 887.38,-239 1105.88,-239 1105.88,-275"/>
<polyline fill="none" stroke="black" points="887.38,-271 891.38,-271 891.38,-267 887.38,-267"/>
<polyline fill="none" stroke="black" points="887.38,-247 891.38,-247 891.38,-243 887.38,-243"/>
<text text-anchor="middle" x="996.62" y="-248.5" font-family="Times,serif" font-size="20.00">プレゼンテーション層</text>
</g>
<!-- com.example.sms.presentation&#45;&gt;com.example.sms.domain -->
<g id="edge4" class="edge">
<title>com.example.sms.presentation&#45;&gt;com.example.sms.domain</title>
<path fill="none" stroke="black" d="M887.17,-257C880,-257 875.56,-257 875.56,-257 875.56,-257 875.56,-142.75 875.56,-142.75"/>
<polygon fill="black" stroke="black" points="879.06,-142.75 875.56,-132.75 872.06,-142.75 879.06,-142.75"/>
</g>
<!-- com.example.sms.presentation&#45;&gt;com.example.sms.service -->
<g id="edge17" class="edge">
<title>com.example.sms.presentation&#45;&gt;com.example.sms.service</title>
<path fill="none" stroke="black" d="M902,-238.83C902,-217.5 902,-185 902,-185 902,-185 816.26,-185 816.26,-185"/>
<polygon fill="black" stroke="black" points="816.26,-181.5 806.26,-185 816.26,-188.5 816.26,-181.5"/>
</g>
<!-- com.example.sms.presentation&#45;&gt;org.springframework -->
<g id="edge18" class="edge">
<title>com.example.sms.presentation&#45;&gt;org.springframework</title>
<path fill="none" stroke="black" d="M905.66,-238.76C905.66,-209.43 905.66,-155 905.66,-155 905.66,-155 521.44,-155 521.44,-155 521.44,-155 521.44,-70.83 521.44,-70.83"/>
<polygon fill="black" stroke="black" points="524.94,-70.83 521.44,-60.83 517.94,-70.83 524.94,-70.83"/>
</g>
<!-- com.example.sms.presentation&#45;&gt;com.github -->
<g id="edge8" class="edge">
<title>com.example.sms.presentation&#45;&gt;com.github</title>
<path fill="none" stroke="black" d="M909.31,-238.68C909.31,-206.46 909.31,-143 909.31,-143 909.31,-143 576.62,-143 576.62,-143 576.62,-143 576.62,-141.85 576.62,-141.85"/>
<polygon fill="black" stroke="black" points="580.13,-143 576.63,-133 573.13,-143 580.13,-143"/>
</g>
<!-- jakarta.servlet -->
<g id="node9" class="node">
<title>jakarta.servlet</title>
<polygon fill="lightgrey" stroke="black" points="1213.88,-203 1121.38,-203 1121.38,-199 1117.38,-199 1117.38,-195 1121.38,-195 1121.38,-175 1117.38,-175 1117.38,-171 1121.38,-171 1121.38,-167 1213.88,-167 1213.88,-203"/>
<polyline fill="none" stroke="black" points="1121.38,-199 1125.38,-199 1125.38,-195 1121.38,-195"/>
<polyline fill="none" stroke="black" points="1121.38,-175 1125.38,-175 1125.38,-171 1121.38,-171"/>
<text text-anchor="middle" x="1167.62" y="-179.95" font-family="Times,serif" font-size="14.00">jakarta.servlet</text>
</g>
<!-- com.example.sms.presentation&#45;&gt;jakarta.servlet -->
<g id="edge11" class="edge">
<title>com.example.sms.presentation&#45;&gt;jakarta.servlet</title>
<path fill="none" stroke="black" d="M1106.37,-257C1132.11,-257 1152.21,-257 1152.21,-257 1152.21,-257 1152.21,-214.68 1152.21,-214.68"/>
<polygon fill="black" stroke="black" points="1155.71,-214.68 1152.21,-204.68 1148.71,-214.68 1155.71,-214.68"/>
</g>
<!-- com.example.sms.presentation&#45;&gt;io.swagger -->
<g id="edge12" class="edge">
<title>com.example.sms.presentation&#45;&gt;io.swagger</title>
<path fill="none" stroke="black" d="M894.69,-238.58C894.69,-229.72 894.69,-221 894.69,-221 894.69,-221 424.17,-221 424.17,-221 424.17,-221 424.17,-214.94 424.17,-214.94"/>
<polygon fill="black" stroke="black" points="427.67,-214.94 424.17,-204.94 420.67,-214.94 427.67,-214.94"/>
</g>
<!-- jakarta.validation -->
<g id="node11" class="node">
<title>jakarta.validation</title>
<polygon fill="lightgrey" stroke="black" points="615.88,-203 505.38,-203 505.38,-199 501.38,-199 501.38,-195 505.38,-195 505.38,-175 501.38,-175 501.38,-171 505.38,-171 505.38,-167 615.88,-167 615.88,-203"/>
<polyline fill="none" stroke="black" points="505.38,-199 509.38,-199 509.38,-195 505.38,-195"/>
<polyline fill="none" stroke="black" points="505.38,-175 509.38,-175 509.38,-171 505.38,-171"/>
<text text-anchor="middle" x="560.62" y="-179.95" font-family="Times,serif" font-size="14.00">jakarta.validation</text>
</g>
<!-- com.example.sms.presentation&#45;&gt;jakarta.validation -->
<g id="edge10" class="edge">
<title>com.example.sms.presentation&#45;&gt;jakarta.validation</title>
<path fill="none" stroke="black" d="M898.34,-238.7C898.34,-226.24 898.34,-212 898.34,-212 898.34,-212 560.62,-212 560.62,-212 560.62,-212 560.62,-211.15 560.62,-211.15"/>
<polygon fill="black" stroke="black" points="564.13,-214.97 560.63,-204.97 557.13,-214.97 564.13,-214.97"/>
</g>
<!-- com.example.sms.presentation&#45;&gt;org.slf4j -->
<g id="edge23" class="edge">
<title>com.example.sms.presentation&#45;&gt;org.slf4j</title>
<path fill="none" stroke="black" d="M891.03,-238.54C891.03,-233.8 891.03,-230 891.03,-230 891.03,-230 334.92,-230 334.92,-230 334.92,-230 334.92,-214.82 334.92,-214.82"/>
<polygon fill="black" stroke="black" points="338.42,-214.82 334.92,-204.82 331.42,-214.82 338.42,-214.82"/>
</g>
<!-- com.example.sms.presentation&#45;&gt;lombok -->
<g id="edge20" class="edge">
<title>com.example.sms.presentation&#45;&gt;lombok</title>
<path fill="none" stroke="black" d="M912.97,-238.58C912.97,-238.58 912.97,-70.88 912.97,-70.88"/>
<polygon fill="black" stroke="black" points="916.47,-70.88 912.97,-60.88 909.47,-70.88 916.47,-70.88"/>
</g>
<!-- com.example.sms.service&#45;&gt;com.example.sms.domain -->
<g id="edge7" class="edge">
<title>com.example.sms.service&#45;&gt;com.example.sms.domain</title>
<path fill="none" stroke="black" d="M784.81,-166.83C784.81,-166.83 784.81,-142.93 784.81,-142.93"/>
<polygon fill="black" stroke="black" points="788.31,-142.93 784.81,-132.93 781.31,-142.93 788.31,-142.93"/>
</g>
<!-- com.example.sms.service&#45;&gt;org.springframework -->
<g id="edge25" class="edge">
<title>com.example.sms.service&#45;&gt;org.springframework</title>
<path fill="none" stroke="black" d="M739.25,-166.76C739.25,-128.01 739.25,-41 739.25,-41 739.25,-41 555.16,-41 555.16,-41"/>
<polygon fill="black" stroke="black" points="555.16,-37.5 545.16,-41 555.16,-44.5 555.16,-37.5"/>
</g>
<!-- com.example.sms.service&#45;&gt;com.github -->
<g id="edge5" class="edge">
<title>com.example.sms.service&#45;&gt;com.github</title>
<path fill="none" stroke="black" d="M713.12,-166.52C713.12,-143.45 713.12,-107 713.12,-107 713.12,-107 627.62,-107 627.62,-107"/>
<polygon fill="black" stroke="black" points="627.62,-103.5 617.62,-107 627.62,-110.5 627.62,-103.5"/>
</g>
<!-- com.example -->
<g id="node8" class="node">
<title>com.example</title>
<polygon fill="lightgrey" stroke="black" points="1041.75,-347 951.5,-347 951.5,-343 947.5,-343 947.5,-339 951.5,-339 951.5,-319 947.5,-319 947.5,-315 951.5,-315 951.5,-311 1041.75,-311 1041.75,-347"/>
<polyline fill="none" stroke="black" points="951.5,-343 955.5,-343 955.5,-339 951.5,-339"/>
<polyline fill="none" stroke="black" points="951.5,-319 955.5,-319 955.5,-315 951.5,-315"/>
<text text-anchor="middle" x="996.62" y="-323.95" font-family="Times,serif" font-size="14.00">com.example</text>
</g>
<!-- com.example&#45;&gt;com.example.sms.presentation -->
<g id="edge16" class="edge">
<title>com.example&#45;&gt;com.example.sms.presentation</title>
<path fill="none" stroke="black" d="M996.62,-310.83C996.62,-310.83 996.62,-286.93 996.62,-286.93"/>
<polygon fill="black" stroke="black" points="1000.13,-286.93 996.63,-276.93 993.13,-286.93 1000.13,-286.93"/>
</g>
<!-- com.example&#45;&gt;org.springframework -->
<g id="edge22" class="edge">
<title>com.example&#45;&gt;org.springframework</title>
<path fill="none" stroke="black" d="M951.45,-329C825.1,-329 477.31,-329 477.31,-329 477.31,-329 477.31,-70.97 477.31,-70.97"/>
<polygon fill="black" stroke="black" points="480.81,-70.97 477.31,-60.97 473.81,-70.97 480.81,-70.97"/>
</g>
<!-- com.example&#45;&gt;jakarta.servlet -->
<g id="edge6" class="edge">
<title>com.example&#45;&gt;jakarta.servlet</title>
<path fill="none" stroke="black" d="M1042.23,-329C1097.42,-329 1183.04,-329 1183.04,-329 1183.04,-329 1183.04,-214.75 1183.04,-214.75"/>
<polygon fill="black" stroke="black" points="1186.54,-214.75 1183.04,-204.75 1179.54,-214.75 1186.54,-214.75"/>
</g>
</g>
</svg>
