<?xml version="1.0" encoding="UTF-8" standalone="no"?>
<!DOCTYPE svg PUBLIC "-//W3C//DTD SVG 1.1//EN"
 "http://www.w3.org/Graphics/SVG/1.1/DTD/svg11.dtd">
<!-- Generated by graphviz version 12.1.2 (20240928.0832)
 -->
<!-- Title: 集中ビジネスルールツリー図 Pages: 1 -->
<svg width="487pt" height="288pt"
 viewBox="0.00 0.00 487.25 287.50" xmlns="http://www.w3.org/2000/svg" xmlns:xlink="http://www.w3.org/1999/xlink">
<g id="graph0" class="graph" transform="scale(1 1) rotate(0) translate(4 283.5)">
<title>集中ビジネスルールツリー図</title>
<polygon fill="white" stroke="none" points="-4,4 -4,-283.5 483.25,-283.5 483.25,4 -4,4"/>
<text text-anchor="middle" x="239.62" y="-5.7" font-family="Times,serif" font-size="14.00">集中ビジネスルールツリー図</text>
<!-- com.example.sms.domain.model.system.auth.AuthUserDetails -->
<g id="node1" class="node">
<title>com.example.sms.domain.model.system.auth.AuthUserDetails</title>
<g id="a_node1"><a xlink:href="./domain.html#com.example.sms.domain.model.system.auth.AuthUserDetails" xlink:title="認証ユーザー\nAuthUserDetails">
<polygon fill="lemonchiffon" stroke="black" points="106.75,-133 0,-133 0,-93.5 106.75,-93.5 106.75,-133"/>
<text text-anchor="middle" x="53.38" y="-115.7" font-family="Times,serif" font-size="14.00">認証ユーザー</text>
<text text-anchor="middle" x="53.38" y="-100.7" font-family="Times,serif" font-size="14.00">AuthUserDetails</text>
</a>
</g>
</g>
<!-- com.example.sms.domain.model.system.user.Password -->
<g id="node2" class="node">
<title>com.example.sms.domain.model.system.user.Password</title>
<g id="a_node2"><a xlink:href="./domain.html#com.example.sms.domain.model.system.user.Password" xlink:title="パスワード\nPassword">
<polygon fill="#eedd82" stroke="black" points="478.5,-279.5 314,-279.5 314,-207 478.5,-207 478.5,-279.5"/>
<text text-anchor="middle" x="396.25" y="-247" font-family="Times,serif" font-size="30.00">パスワード</text>
<text text-anchor="middle" x="396.25" y="-216.25" font-family="Times,serif" font-size="30.00">Password</text>
</a>
</g>
</g>
<!-- com.example.sms.domain.model.system.auth.AuthUserDetails&#45;&gt;com.example.sms.domain.model.system.user.Password -->
<g id="edge3" class="edge">
<title>com.example.sms.domain.model.system.auth.AuthUserDetails&#45;&gt;com.example.sms.domain.model.system.user.Password</title>
<path fill="none" stroke="black" d="M93.25,-133.43C98.14,-136.96 102.81,-140.91 106.75,-145.25 131.35,-172.32 112.7,-198.41 142.75,-219.25 188.58,-251.04 250.88,-257.24 302.13,-255.4"/>
<polygon fill="black" stroke="black" points="302.22,-258.9 312.04,-254.93 301.88,-251.91 302.22,-258.9"/>
</g>
<!-- com.example.sms.domain.model.system.user.RoleName -->
<g id="node3" class="node">
<title>com.example.sms.domain.model.system.user.RoleName</title>
<g id="a_node3"><a xlink:href="./domain.html#com.example.sms.domain.model.system.user.RoleName" xlink:title="役割\nRoleName">
<polygon fill="#eedd82" stroke="black" points="468.75,-95.5 323.75,-95.5 323.75,-23 468.75,-23 468.75,-95.5"/>
<text text-anchor="middle" x="396.25" y="-63" font-family="Times,serif" font-size="30.00">役割</text>
<text text-anchor="middle" x="396.25" y="-32.25" font-family="Times,serif" font-size="30.00">RoleName</text>
</a>
</g>
</g>
<!-- com.example.sms.domain.model.system.auth.AuthUserDetails&#45;&gt;com.example.sms.domain.model.system.user.RoleName -->
<g id="edge1" class="edge">
<title>com.example.sms.domain.model.system.auth.AuthUserDetails&#45;&gt;com.example.sms.domain.model.system.user.RoleName</title>
<path fill="none" stroke="black" d="M106.89,-104.93C161.59,-96.27 248.08,-82.56 312.09,-72.42"/>
<polygon fill="black" stroke="black" points="312.54,-75.9 321.87,-70.88 311.44,-68.98 312.54,-75.9"/>
</g>
<!-- com.example.sms.domain.model.system.user.User -->
<g id="node4" class="node">
<title>com.example.sms.domain.model.system.user.User</title>
<g id="a_node4"><a xlink:href="./domain.html#com.example.sms.domain.model.system.user.User" xlink:title="ユーザー\nUser">
<polygon fill="#eedd82" stroke="black" points="277.25,-210.5 142.75,-210.5 142.75,-138 277.25,-138 277.25,-210.5"/>
<text text-anchor="middle" x="210" y="-178" font-family="Times,serif" font-size="30.00">ユーザー</text>
<text text-anchor="middle" x="210" y="-147.25" font-family="Times,serif" font-size="30.00">User</text>
</a>
</g>
</g>
<!-- com.example.sms.domain.model.system.auth.AuthUserDetails&#45;&gt;com.example.sms.domain.model.system.user.User -->
<g id="edge7" class="edge">
<title>com.example.sms.domain.model.system.auth.AuthUserDetails&#45;&gt;com.example.sms.domain.model.system.user.User</title>
<path fill="none" stroke="black" d="M105.43,-133.39C113.91,-136.74 122.86,-140.27 131.8,-143.8"/>
<polygon fill="black" stroke="black" points="130.28,-146.96 140.87,-147.37 132.85,-140.45 130.28,-146.96"/>
</g>
<!-- com.example.sms.domain.model.system.user.UserId -->
<g id="node5" class="node">
<title>com.example.sms.domain.model.system.user.UserId</title>
<g id="a_node5"><a xlink:href="./domain.html#com.example.sms.domain.model.system.user.UserId" xlink:title="ユーザーID\nUserId">
<polygon fill="#eedd82" stroke="black" points="479.25,-189 313.25,-189 313.25,-113.5 479.25,-113.5 479.25,-189"/>
<text text-anchor="middle" x="396.25" y="-156.5" font-family="Times,serif" font-size="30.00">ユーザーID</text>
<text text-anchor="middle" x="396.25" y="-122.75" font-family="Times,serif" font-size="30.00">UserId</text>
</a>
</g>
</g>
<!-- com.example.sms.domain.model.system.auth.AuthUserDetails&#45;&gt;com.example.sms.domain.model.system.user.UserId -->
<g id="edge5" class="edge">
<title>com.example.sms.domain.model.system.auth.AuthUserDetails&#45;&gt;com.example.sms.domain.model.system.user.UserId</title>
<path fill="none" stroke="black" d="M107.23,-115.37C152.49,-117.58 219.34,-121.8 277.25,-129.25 285.21,-130.27 293.44,-131.49 301.69,-132.81"/>
<polygon fill="black" stroke="black" points="300.98,-136.24 311.42,-134.43 302.13,-129.34 300.98,-136.24"/>
</g>
<!-- com.example.sms.domain.model.system.user.User&#45;&gt;com.example.sms.domain.model.system.user.Password -->
<g id="edge4" class="edge">
<title>com.example.sms.domain.model.system.user.User&#45;&gt;com.example.sms.domain.model.system.user.Password</title>
<path fill="none" stroke="black" d="M277.52,-199.16C285.87,-202.29 294.53,-205.53 303.19,-208.77"/>
<polygon fill="black" stroke="black" points="301.72,-211.96 312.31,-212.19 304.18,-205.41 301.72,-211.96"/>
</g>
<!-- com.example.sms.domain.model.system.user.User&#45;&gt;com.example.sms.domain.model.system.user.RoleName -->
<g id="edge2" class="edge">
<title>com.example.sms.domain.model.system.user.User&#45;&gt;com.example.sms.domain.model.system.user.RoleName</title>
<path fill="none" stroke="black" d="M262.36,-137.63C278.44,-126.57 296.39,-114.61 313.25,-104.25 314.68,-103.37 316.12,-102.49 317.58,-101.61"/>
<polygon fill="black" stroke="black" points="319.26,-104.69 326.08,-96.58 315.69,-98.67 319.26,-104.69"/>
</g>
<!-- com.example.sms.domain.model.system.user.User&#45;&gt;com.example.sms.domain.model.system.user.UserId -->
<g id="edge6" class="edge">
<title>com.example.sms.domain.model.system.user.User&#45;&gt;com.example.sms.domain.model.system.user.UserId</title>
<path fill="none" stroke="black" d="M277.52,-165.95C285.3,-164.98 293.34,-163.97 301.4,-162.97"/>
<polygon fill="black" stroke="black" points="301.78,-166.44 311.27,-161.73 300.92,-159.5 301.78,-166.44"/>
</g>
<!-- com.example.sms.domain.model.system.user.UserList -->
<g id="node6" class="node">
<title>com.example.sms.domain.model.system.user.UserList</title>
<g id="a_node6"><a xlink:href="./domain.html#com.example.sms.domain.model.system.user.UserList" xlink:title="ユーザー一覧\nUserList">
<polygon fill="lemonchiffon" stroke="black" points="103.38,-194 3.38,-194 3.38,-154.5 103.38,-154.5 103.38,-194"/>
<text text-anchor="middle" x="53.38" y="-176.7" font-family="Times,serif" font-size="14.00">ユーザー一覧</text>
<text text-anchor="middle" x="53.38" y="-161.7" font-family="Times,serif" font-size="14.00">UserList</text>
</a>
</g>
</g>
<!-- com.example.sms.domain.model.system.user.UserList&#45;&gt;com.example.sms.domain.model.system.user.User -->
<g id="edge8" class="edge">
<title>com.example.sms.domain.model.system.user.UserList&#45;&gt;com.example.sms.domain.model.system.user.User</title>
<path fill="none" stroke="black" d="M103.72,-174.25C112.46,-174.25 121.74,-174.25 131.04,-174.25"/>
<polygon fill="black" stroke="black" points="130.84,-177.75 140.84,-174.25 130.84,-170.75 130.84,-177.75"/>
</g>
</g>
</svg>
