<?xml version="1.0" encoding="UTF-8" standalone="no"?>
<!DOCTYPE svg PUBLIC "-//W3C//DTD SVG 1.1//EN"
 "http://www.w3.org/Graphics/SVG/1.1/DTD/svg11.dtd">
<!-- Generated by graphviz version 12.1.2 (20240928.0832)
 -->
<!-- Title: ビジネスルール関連図 Pages: 1 -->
<svg width="789pt" height="357pt"
 viewBox="0.00 0.00 789.00 356.50" xmlns="http://www.w3.org/2000/svg" xmlns:xlink="http://www.w3.org/1999/xlink">
<g id="graph0" class="graph" transform="scale(1 1) rotate(0) translate(4 352.5)">
<title>ビジネスルール関連図</title>
<polygon fill="white" stroke="none" points="-4,4 -4,-352.5 785,-352.5 785,4 -4,4"/>
<text text-anchor="middle" x="390.5" y="-5.7" font-family="Times,serif" font-size="14.00">ビジネスルール関連図</text>
<g id="clust1" class="cluster">
<title>cluster_com.example.sms.domain.model.system.auth</title>
<polygon fill="lemonchiffon" stroke="#eedd82" stroke-width="2" points="8,-260.5 8,-340.5 276,-340.5 276,-260.5 8,-260.5"/>
<text text-anchor="middle" x="142" y="-323.2" font-family="Times,serif" font-size="14.00">com.example.sms.domain.model.system.auth</text>
</g>
<g id="clust2" class="cluster">
<title>cluster_com.example.sms.domain.model.system.user</title>
<polygon fill="lemonchiffon" stroke="#eedd82" stroke-width="2" points="284,-31 284,-340.5 773,-340.5 773,-31 284,-31"/>
<text text-anchor="middle" x="528.5" y="-323.2" font-family="Times,serif" font-size="14.00">com.example.sms.domain.model.system.user</text>
</g>
<!-- com.example.sms.domain.model.system.auth.AuthUserDetails -->
<g id="node1" class="node">
<title>com.example.sms.domain.model.system.auth.AuthUserDetails</title>
<g id="a_node1"><a xlink:href="./domain.html#com.example.sms.domain.model.system.auth.AuthUserDetails" xlink:title="認証ユーザー\nAuthUserDetails">
<polygon fill="#eedd82" stroke="black" points="268.38,-308 161.62,-308 161.62,-268.5 268.38,-268.5 268.38,-308"/>
<text text-anchor="middle" x="215" y="-290.7" font-family="Times,serif" font-size="14.00">認証ユーザー</text>
<text text-anchor="middle" x="215" y="-275.7" font-family="Times,serif" font-size="14.00">AuthUserDetails</text>
</a>
</g>
</g>
<!-- com.example.sms.domain.model.system.user.Password -->
<g id="node3" class="node">
<title>com.example.sms.domain.model.system.user.Password</title>
<g id="a_node3"><a xlink:href="./domain.html#com.example.sms.domain.model.system.user.Password" xlink:title="パスワード\nPassword">
<polygon fill="#eedd82" stroke="black" points="482.25,-156.25 395.75,-156.25 395.75,-116.75 482.25,-116.75 482.25,-156.25"/>
<text text-anchor="middle" x="439" y="-138.95" font-family="Times,serif" font-size="14.00">パスワード</text>
<text text-anchor="middle" x="439" y="-123.95" font-family="Times,serif" font-size="14.00">Password</text>
</a>
</g>
</g>
<!-- com.example.sms.domain.model.system.auth.AuthUserDetails&#45;&gt;com.example.sms.domain.model.system.user.Password -->
<g id="edge1" class="edge">
<title>com.example.sms.domain.model.system.auth.AuthUserDetails&#45;&gt;com.example.sms.domain.model.system.user.Password</title>
<path fill="none" stroke="black" d="M241.61,-268.06C268.64,-248.72 311.83,-218.2 350,-193 365.46,-182.79 382.68,-171.94 397.83,-162.56"/>
<polygon fill="black" stroke="black" points="399.48,-165.65 406.16,-157.42 395.81,-159.69 399.48,-165.65"/>
</g>
<!-- com.example.sms.domain.model.system.user.RoleName -->
<g id="node5" class="node">
<title>com.example.sms.domain.model.system.user.RoleName</title>
<g id="a_node5"><a xlink:href="./domain.html#com.example.sms.domain.model.system.user.RoleName" xlink:title="役割\nRoleName">
<polygon fill="#eedd82" stroke="black" points="575.25,-156.25 500.75,-156.25 500.75,-116.75 575.25,-116.75 575.25,-156.25"/>
<text text-anchor="middle" x="538" y="-138.95" font-family="Times,serif" font-size="14.00">役割</text>
<text text-anchor="middle" x="538" y="-123.95" font-family="Times,serif" font-size="14.00">RoleName</text>
</a>
</g>
</g>
<!-- com.example.sms.domain.model.system.auth.AuthUserDetails&#45;&gt;com.example.sms.domain.model.system.user.RoleName -->
<g id="edge2" class="edge">
<title>com.example.sms.domain.model.system.auth.AuthUserDetails&#45;&gt;com.example.sms.domain.model.system.user.RoleName</title>
<path fill="none" stroke="black" d="M257.91,-268.02C281.07,-257.59 310.14,-244.43 336,-232.5 388.93,-208.08 449.39,-179.56 490.26,-160.19"/>
<polygon fill="black" stroke="black" points="491.57,-163.45 499.11,-156 488.57,-157.12 491.57,-163.45"/>
</g>
<!-- com.example.sms.domain.model.system.user.User -->
<g id="node6" class="node">
<title>com.example.sms.domain.model.system.user.User</title>
<g id="a_node6"><a xlink:href="./domain.html#com.example.sms.domain.model.system.user.User" xlink:title="ユーザー\nUser">
<polygon fill="#eedd82" stroke="black" points="523.75,-232.5 452.25,-232.5 452.25,-193 523.75,-193 523.75,-232.5"/>
<text text-anchor="middle" x="488" y="-215.2" font-family="Times,serif" font-size="14.00">ユーザー</text>
<text text-anchor="middle" x="488" y="-200.2" font-family="Times,serif" font-size="14.00">User</text>
</a>
</g>
</g>
<!-- com.example.sms.domain.model.system.auth.AuthUserDetails&#45;&gt;com.example.sms.domain.model.system.user.User -->
<g id="edge3" class="edge">
<title>com.example.sms.domain.model.system.auth.AuthUserDetails&#45;&gt;com.example.sms.domain.model.system.user.User</title>
<path fill="none" stroke="black" d="M258.68,-268.1C265.74,-265.34 273.02,-262.7 280,-260.5 334.15,-243.41 398.11,-230.01 440.67,-222.02"/>
<polygon fill="black" stroke="black" points="441.12,-225.49 450.32,-220.23 439.85,-218.61 441.12,-225.49"/>
</g>
<!-- com.example.sms.domain.model.system.user.UserId -->
<g id="node8" class="node">
<title>com.example.sms.domain.model.system.user.UserId</title>
<g id="a_node8"><a xlink:href="./domain.html#com.example.sms.domain.model.system.user.UserId" xlink:title="ユーザーID\nUserId">
<polygon fill="#eedd82" stroke="black" points="377.88,-157 292.12,-157 292.12,-116 377.88,-116 377.88,-157"/>
<text text-anchor="middle" x="335" y="-139.7" font-family="Times,serif" font-size="14.00">ユーザーID</text>
<text text-anchor="middle" x="335" y="-123.2" font-family="Times,serif" font-size="14.00">UserId</text>
</a>
</g>
</g>
<!-- com.example.sms.domain.model.system.auth.AuthUserDetails&#45;&gt;com.example.sms.domain.model.system.user.UserId -->
<g id="edge4" class="edge">
<title>com.example.sms.domain.model.system.auth.AuthUserDetails&#45;&gt;com.example.sms.domain.model.system.user.UserId</title>
<path fill="none" stroke="black" d="M230.2,-268.28C250.89,-242.46 288.09,-196.04 312.15,-166.01"/>
<polygon fill="black" stroke="black" points="314.7,-168.44 318.22,-158.44 309.23,-164.06 314.7,-168.44"/>
</g>
<!-- com.example.sms.domain.model.system.user.Name -->
<g id="node2" class="node">
<title>com.example.sms.domain.model.system.user.Name</title>
<g id="a_node2"><a xlink:href="./domain.html#com.example.sms.domain.model.system.user.Name" xlink:title="名前\nName">
<polygon fill="#eedd82" stroke="black" points="765,-156.25 711,-156.25 711,-116.75 765,-116.75 765,-156.25"/>
<text text-anchor="middle" x="738" y="-138.95" font-family="Times,serif" font-size="14.00">名前</text>
<text text-anchor="middle" x="738" y="-123.95" font-family="Times,serif" font-size="14.00">Name</text>
</a>
</g>
</g>
<!-- com.example.sms.domain.model.system.user.PasswordException -->
<g id="node4" class="node">
<title>com.example.sms.domain.model.system.user.PasswordException</title>
<g id="a_node4"><a xlink:href="./domain.html#com.example.sms.domain.model.system.user.PasswordException" xlink:title="パスワード例外\nPasswordException">
<polygon fill="#eedd82" stroke="black" points="546.25,-79.25 423.75,-79.25 423.75,-39.75 546.25,-39.75 546.25,-79.25"/>
<text text-anchor="middle" x="485" y="-61.95" font-family="Times,serif" font-size="14.00">パスワード例外</text>
<text text-anchor="middle" x="485" y="-46.95" font-family="Times,serif" font-size="14.00">PasswordException</text>
</a>
</g>
</g>
<!-- com.example.sms.domain.model.system.user.Password&#45;&gt;com.example.sms.domain.model.system.user.PasswordException -->
<g id="edge10" class="edge">
<title>com.example.sms.domain.model.system.user.Password&#45;&gt;com.example.sms.domain.model.system.user.PasswordException</title>
<path fill="none" stroke="black" d="M450.61,-116.57C455.69,-108.29 461.76,-98.38 467.38,-89.22"/>
<polygon fill="black" stroke="black" points="470.2,-91.32 472.44,-80.97 464.23,-87.67 470.2,-91.32"/>
</g>
<!-- com.example.sms.domain.model.system.user.User&#45;&gt;com.example.sms.domain.model.system.user.Name -->
<g id="edge5" class="edge">
<title>com.example.sms.domain.model.system.user.User&#45;&gt;com.example.sms.domain.model.system.user.Name</title>
<path fill="none" stroke="black" d="M524.06,-205.34C565.09,-197.45 634.02,-182.35 700.22,-157.24"/>
<polygon fill="black" stroke="black" points="701.35,-160.55 709.41,-153.67 698.82,-154.03 701.35,-160.55"/>
</g>
<!-- com.example.sms.domain.model.system.user.User&#45;&gt;com.example.sms.domain.model.system.user.Password -->
<g id="edge6" class="edge">
<title>com.example.sms.domain.model.system.user.User&#45;&gt;com.example.sms.domain.model.system.user.Password</title>
<path fill="none" stroke="black" d="M475.38,-192.63C470.07,-184.57 463.77,-175.03 457.91,-166.16"/>
<polygon fill="black" stroke="black" points="460.84,-164.24 452.41,-157.82 455,-168.09 460.84,-164.24"/>
</g>
<!-- com.example.sms.domain.model.system.user.User&#45;&gt;com.example.sms.domain.model.system.user.RoleName -->
<g id="edge7" class="edge">
<title>com.example.sms.domain.model.system.user.User&#45;&gt;com.example.sms.domain.model.system.user.RoleName</title>
<path fill="none" stroke="black" d="M500.88,-192.63C506.36,-184.49 512.87,-174.82 518.89,-165.88"/>
<polygon fill="black" stroke="black" points="521.64,-168.06 524.32,-157.81 515.83,-164.15 521.64,-168.06"/>
</g>
<!-- com.example.sms.domain.model.system.user.UserException -->
<g id="node7" class="node">
<title>com.example.sms.domain.model.system.user.UserException</title>
<g id="a_node7"><a xlink:href="./domain.html#com.example.sms.domain.model.system.user.UserException" xlink:title="ユーザー例外\nUserException">
<polygon fill="#eedd82" stroke="black" points="693,-156.25 593,-156.25 593,-116.75 693,-116.75 693,-156.25"/>
<text text-anchor="middle" x="643" y="-138.95" font-family="Times,serif" font-size="14.00">ユーザー例外</text>
<text text-anchor="middle" x="643" y="-123.95" font-family="Times,serif" font-size="14.00">UserException</text>
</a>
</g>
</g>
<!-- com.example.sms.domain.model.system.user.User&#45;&gt;com.example.sms.domain.model.system.user.UserException -->
<g id="edge8" class="edge">
<title>com.example.sms.domain.model.system.user.User&#45;&gt;com.example.sms.domain.model.system.user.UserException</title>
<path fill="none" stroke="black" d="M523.95,-194.53C544.33,-184.77 570.16,-172.39 592.54,-161.67"/>
<polygon fill="black" stroke="black" points="594.01,-164.85 601.52,-157.37 590.99,-158.54 594.01,-164.85"/>
</g>
<!-- com.example.sms.domain.model.system.user.User&#45;&gt;com.example.sms.domain.model.system.user.UserId -->
<g id="edge9" class="edge">
<title>com.example.sms.domain.model.system.user.User&#45;&gt;com.example.sms.domain.model.system.user.UserId</title>
<path fill="none" stroke="black" d="M452.13,-194.34C432.55,-184.84 407.96,-172.91 386.37,-162.43"/>
<polygon fill="black" stroke="black" points="387.94,-159.3 377.41,-158.08 384.88,-165.6 387.94,-159.3"/>
</g>
<!-- com.example.sms.domain.model.system.user.UserIdException -->
<g id="node9" class="node">
<title>com.example.sms.domain.model.system.user.UserIdException</title>
<g id="a_node9"><a xlink:href="./domain.html#com.example.sms.domain.model.system.user.UserIdException" xlink:title="ユーザーID例外\nUserIdException">
<polygon fill="#eedd82" stroke="black" points="406.12,-80 291.88,-80 291.88,-39 406.12,-39 406.12,-80"/>
<text text-anchor="middle" x="349" y="-62.7" font-family="Times,serif" font-size="14.00">ユーザーID例外</text>
<text text-anchor="middle" x="349" y="-46.2" font-family="Times,serif" font-size="14.00">UserIdException</text>
</a>
</g>
</g>
<!-- com.example.sms.domain.model.system.user.UserId&#45;&gt;com.example.sms.domain.model.system.user.UserIdException -->
<g id="edge11" class="edge">
<title>com.example.sms.domain.model.system.user.UserId&#45;&gt;com.example.sms.domain.model.system.user.UserIdException</title>
<path fill="none" stroke="black" d="M338.68,-115.79C340.07,-108.36 341.68,-99.71 343.21,-91.49"/>
<polygon fill="black" stroke="black" points="346.63,-92.29 345.02,-81.82 339.74,-91.01 346.63,-92.29"/>
</g>
<!-- com.example.sms.domain.model.system.user.UserList -->
<g id="node10" class="node">
<title>com.example.sms.domain.model.system.user.UserList</title>
<g id="a_node10"><a xlink:href="./domain.html#com.example.sms.domain.model.system.user.UserList" xlink:title="ユーザー一覧\nUserList">
<polygon fill="#eedd82" stroke="black" points="538,-308 438,-308 438,-268.5 538,-268.5 538,-308"/>
<text text-anchor="middle" x="488" y="-290.7" font-family="Times,serif" font-size="14.00">ユーザー一覧</text>
<text text-anchor="middle" x="488" y="-275.7" font-family="Times,serif" font-size="14.00">UserList</text>
</a>
</g>
</g>
<!-- com.example.sms.domain.model.system.user.UserList&#45;&gt;com.example.sms.domain.model.system.user.User -->
<g id="edge12" class="edge">
<title>com.example.sms.domain.model.system.user.UserList&#45;&gt;com.example.sms.domain.model.system.user.User</title>
<path fill="none" stroke="black" d="M488,-268.32C488,-261.01 488,-252.45 488,-244.31"/>
<polygon fill="black" stroke="black" points="491.5,-244.38 488,-234.38 484.5,-244.38 491.5,-244.38"/>
</g>
</g>
</svg>
