<?xml version="1.0" encoding="UTF-8" standalone="no"?>
<!DOCTYPE svg PUBLIC "-//W3C//DTD SVG 1.1//EN"
 "http://www.w3.org/Graphics/SVG/1.1/DTD/svg11.dtd">
<!-- Generated by graphviz version 12.1.2 (20240928.0832)
 -->
<!-- Title: 区分使用図 Pages: 1 -->
<svg width="587pt" height="359pt"
 viewBox="0.00 0.00 586.54 359.00" xmlns="http://www.w3.org/2000/svg" xmlns:xlink="http://www.w3.org/1999/xlink">
<g id="graph0" class="graph" transform="scale(1 1) rotate(0) translate(4 355)">
<title>区分使用図</title>
<polygon fill="white" stroke="none" points="-4,4 -4,-355 582.54,-355 582.54,4 -4,4"/>
<text text-anchor="middle" x="289.27" y="-5.7" font-family="Times,serif" font-size="14.00">区分使用図</text>
<!-- com.example.sms.domain.model.system.user.RoleName -->
<g id="node1" class="node">
<title>com.example.sms.domain.model.system.user.RoleName</title>
<polygon fill="lemonchiffon" stroke="black" points="578.54,-126.75 508.04,-126.75 504.04,-122.75 504.04,-87.25 574.54,-87.25 578.54,-91.25 578.54,-126.75"/>
<polyline fill="none" stroke="black" points="574.54,-122.75 504.04,-122.75"/>
<polyline fill="none" stroke="black" points="574.54,-122.75 574.54,-87.25"/>
<polyline fill="none" stroke="black" points="574.54,-122.75 578.54,-126.75"/>
<text text-anchor="middle" x="541.29" y="-109.45" font-family="Times,serif" font-size="14.00">役割</text>
<text text-anchor="middle" x="541.29" y="-94.45" font-family="Times,serif" font-size="14.00">RoleName</text>
</g>
<!-- com.example.sms.service.system.auth.AuthService#loadUserByUsername(java.lang.String) -->
<g id="node2" class="node">
<title>com.example.sms.service.system.auth.AuthService#loadUserByUsername(java.lang.String)</title>
<g id="a_node2"><a xlink:href="./application.html#com.example.sms.service.system.auth.AuthService" xlink:title="AuthService.loadUserByUsername(String)">
<ellipse fill="lemonchiffon" stroke="black" cx="108.89" cy="-41" rx="64.99" ry="18"/>
<text text-anchor="middle" x="108.89" y="-35.2" font-family="Times,serif" font-size="14.00">ユーザー認証</text>
</a>
</g>
</g>
<!-- com.example.sms.domain.model.system.auth.AuthUserDetails -->
<g id="node8" class="node">
<title>com.example.sms.domain.model.system.auth.AuthUserDetails</title>
<g id="a_node8"><a xlink:href="./domain.html#com.example.sms.domain.model.system.auth.AuthUserDetails" xlink:title="認証ユーザー\nAuthUserDetails">
<polygon fill="white" stroke="black" points="360.54,-73.75 253.79,-73.75 253.79,-34.25 360.54,-34.25 360.54,-73.75"/>
<text text-anchor="middle" x="307.16" y="-56.45" font-family="Times,serif" font-size="14.00">認証ユーザー</text>
<text text-anchor="middle" x="307.16" y="-41.45" font-family="Times,serif" font-size="14.00">AuthUserDetails</text>
</a>
</g>
</g>
<!-- com.example.sms.service.system.auth.AuthService#loadUserByUsername(java.lang.String)&#45;&gt;com.example.sms.domain.model.system.auth.AuthUserDetails -->
<g id="edge5" class="edge">
<title>com.example.sms.service.system.auth.AuthService#loadUserByUsername(java.lang.String)&#45;&gt;com.example.sms.domain.model.system.auth.AuthUserDetails</title>
<path fill="none" stroke="black" d="M172.53,-45.15C194.7,-46.62 219.65,-48.27 241.95,-49.75"/>
<polygon fill="black" stroke="black" points="241.61,-53.23 251.82,-50.4 242.08,-46.25 241.61,-53.23"/>
</g>
<!-- com.example.sms.service.system.user.UserManagementService#find(com.example.sms.domain.model.system.user.UserId) -->
<g id="node3" class="node">
<title>com.example.sms.service.system.user.UserManagementService#find(com.example.sms.domain.model.system.user.UserId)</title>
<g id="a_node3"><a xlink:href="./application.html#com.example.sms.service.system.user.UserManagementService" xlink:title="UserManagementService.find(UserId)">
<ellipse fill="lemonchiffon" stroke="black" cx="108.89" cy="-333" rx="64.99" ry="18"/>
<text text-anchor="middle" x="108.89" y="-327.2" font-family="Times,serif" font-size="14.00">ユーザー検索</text>
</a>
</g>
</g>
<!-- com.example.sms.domain.model.system.user.User -->
<g id="node9" class="node">
<title>com.example.sms.domain.model.system.user.User</title>
<g id="a_node9"><a xlink:href="./domain.html#com.example.sms.domain.model.system.user.User" xlink:title="ユーザー\nUser">
<polygon fill="white" stroke="black" points="468.04,-179.75 396.54,-179.75 396.54,-140.25 468.04,-140.25 468.04,-179.75"/>
<text text-anchor="middle" x="432.29" y="-162.45" font-family="Times,serif" font-size="14.00">ユーザー</text>
<text text-anchor="middle" x="432.29" y="-147.45" font-family="Times,serif" font-size="14.00">User</text>
</a>
</g>
</g>
<!-- com.example.sms.service.system.user.UserManagementService#find(com.example.sms.domain.model.system.user.UserId)&#45;&gt;com.example.sms.domain.model.system.user.User -->
<g id="edge6" class="edge">
<title>com.example.sms.service.system.user.UserManagementService#find(com.example.sms.domain.model.system.user.UserId)&#45;&gt;com.example.sms.domain.model.system.user.User</title>
<path fill="none" stroke="black" d="M162.19,-322.38C180.09,-318.1 200.05,-312.6 217.79,-306 284.39,-281.22 303.44,-276.29 360.54,-234 378.21,-220.91 395.32,-203.19 408.29,-188.37"/>
<polygon fill="black" stroke="black" points="410.6,-191.06 414.44,-181.19 405.28,-186.51 410.6,-191.06"/>
</g>
<!-- com.example.sms.service.system.user.UserManagementService#register(com.example.sms.domain.model.system.user.User) -->
<g id="node4" class="node">
<title>com.example.sms.service.system.user.UserManagementService#register(com.example.sms.domain.model.system.user.User)</title>
<g id="a_node4"><a xlink:href="./application.html#com.example.sms.service.system.user.UserManagementService" xlink:title="UserManagementService.register(User)">
<ellipse fill="lemonchiffon" stroke="black" cx="108.89" cy="-279" rx="83.52" ry="18"/>
<text text-anchor="middle" x="108.89" y="-273.2" font-family="Times,serif" font-size="14.00">ユーザー新規登録</text>
</a>
</g>
</g>
<!-- com.example.sms.service.system.user.UserManagementService#register(com.example.sms.domain.model.system.user.User)&#45;&gt;com.example.sms.domain.model.system.user.User -->
<g id="edge7" class="edge">
<title>com.example.sms.service.system.user.UserManagementService#register(com.example.sms.domain.model.system.user.User)&#45;&gt;com.example.sms.domain.model.system.user.User</title>
<path fill="none" stroke="black" d="M167.62,-265.8C183.94,-261.73 201.65,-257 217.79,-252 282.44,-231.98 299.01,-227.19 360.54,-199 369.34,-194.97 378.53,-190.28 387.27,-185.57"/>
<polygon fill="black" stroke="black" points="388.86,-188.7 395.94,-180.82 385.49,-182.56 388.86,-188.7"/>
</g>
<!-- com.example.sms.service.system.user.UserManagementService#save(com.example.sms.domain.model.system.user.User) -->
<g id="node5" class="node">
<title>com.example.sms.service.system.user.UserManagementService#save(com.example.sms.domain.model.system.user.User)</title>
<g id="a_node5"><a xlink:href="./application.html#com.example.sms.service.system.user.UserManagementService" xlink:title="UserManagementService.save(User)">
<ellipse fill="lemonchiffon" stroke="black" cx="108.89" cy="-225" rx="83.52" ry="18"/>
<text text-anchor="middle" x="108.89" y="-219.2" font-family="Times,serif" font-size="14.00">ユーザー情報編集</text>
</a>
</g>
</g>
<!-- com.example.sms.service.system.user.UserManagementService#save(com.example.sms.domain.model.system.user.User)&#45;&gt;com.example.sms.domain.model.system.user.User -->
<g id="edge8" class="edge">
<title>com.example.sms.service.system.user.UserManagementService#save(com.example.sms.domain.model.system.user.User)&#45;&gt;com.example.sms.domain.model.system.user.User</title>
<path fill="none" stroke="black" d="M171.1,-212.62C233.47,-200.01 328.78,-180.73 385.09,-169.34"/>
<polygon fill="black" stroke="black" points="385.55,-172.82 394.66,-167.41 384.17,-165.96 385.55,-172.82"/>
</g>
<!-- com.example.sms.service.system.user.UserManagementService#selectAll() -->
<g id="node6" class="node">
<title>com.example.sms.service.system.user.UserManagementService#selectAll()</title>
<g id="a_node6"><a xlink:href="./application.html#com.example.sms.service.system.user.UserManagementService" xlink:title="UserManagementService.selectAll()">
<ellipse fill="lemonchiffon" stroke="black" cx="108.89" cy="-95" rx="64.99" ry="18"/>
<text text-anchor="middle" x="108.89" y="-89.2" font-family="Times,serif" font-size="14.00">ユーザー一覧</text>
</a>
</g>
</g>
<!-- com.example.sms.domain.model.system.user.UserList -->
<g id="node10" class="node">
<title>com.example.sms.domain.model.system.user.UserList</title>
<g id="a_node10"><a xlink:href="./domain.html#com.example.sms.domain.model.system.user.UserList" xlink:title="ユーザー一覧\nUserList">
<polygon fill="white" stroke="black" points="357.16,-131.75 257.16,-131.75 257.16,-92.25 357.16,-92.25 357.16,-131.75"/>
<text text-anchor="middle" x="307.16" y="-114.45" font-family="Times,serif" font-size="14.00">ユーザー一覧</text>
<text text-anchor="middle" x="307.16" y="-99.45" font-family="Times,serif" font-size="14.00">UserList</text>
</a>
</g>
</g>
<!-- com.example.sms.service.system.user.UserManagementService#selectAll()&#45;&gt;com.example.sms.domain.model.system.user.UserList -->
<g id="edge9" class="edge">
<title>com.example.sms.service.system.user.UserManagementService#selectAll()&#45;&gt;com.example.sms.domain.model.system.user.UserList</title>
<path fill="none" stroke="black" d="M171.46,-100.33C195.13,-102.38 222.11,-104.72 245.68,-106.76"/>
<polygon fill="black" stroke="black" points="245.17,-110.23 255.43,-107.61 245.77,-103.26 245.17,-110.23"/>
</g>
<!-- com.example.sms.service.system.user.UserManagementService#selectAllWithPageInfo() -->
<g id="node7" class="node">
<title>com.example.sms.service.system.user.UserManagementService#selectAllWithPageInfo()</title>
<g id="a_node7"><a xlink:href="./application.html#com.example.sms.service.system.user.UserManagementService" xlink:title="UserManagementService.selectAllWithPageInfo()">
<ellipse fill="lemonchiffon" stroke="black" cx="108.89" cy="-160" rx="108.89" ry="28.99"/>
<text text-anchor="middle" x="108.89" y="-163.2" font-family="Times,serif" font-size="14.00">UserManagementService</text>
<text text-anchor="middle" x="108.89" y="-146.7" font-family="Times,serif" font-size="14.00">selectAllWithPageInfo</text>
</a>
</g>
</g>
<!-- com.example.sms.service.system.user.UserManagementService#selectAllWithPageInfo()&#45;&gt;com.example.sms.domain.model.system.user.User -->
<g id="edge10" class="edge">
<title>com.example.sms.service.system.user.UserManagementService#selectAllWithPageInfo()&#45;&gt;com.example.sms.domain.model.system.user.User</title>
<path fill="none" stroke="black" d="M218.26,-160C275.01,-160 341.55,-160 384.96,-160"/>
<polygon fill="black" stroke="black" points="384.78,-163.5 394.78,-160 384.78,-156.5 384.78,-163.5"/>
</g>
<!-- com.example.sms.domain.model.system.auth.AuthUserDetails&#45;&gt;com.example.sms.domain.model.system.user.RoleName -->
<g id="edge1" class="edge">
<title>com.example.sms.domain.model.system.auth.AuthUserDetails&#45;&gt;com.example.sms.domain.model.system.user.RoleName</title>
<path fill="none" stroke="black" d="M360.84,-66.03C400.53,-75.09 454.48,-87.41 492.84,-96.17"/>
<polygon fill="black" stroke="black" points="491.71,-99.5 502.24,-98.31 493.27,-92.67 491.71,-99.5"/>
</g>
<!-- com.example.sms.domain.model.system.auth.AuthUserDetails&#45;&gt;com.example.sms.domain.model.system.user.User -->
<g id="edge2" class="edge">
<title>com.example.sms.domain.model.system.auth.AuthUserDetails&#45;&gt;com.example.sms.domain.model.system.user.User</title>
<path fill="none" stroke="black" d="M347.94,-74.21C352.33,-76.97 356.62,-79.91 360.54,-83 378.43,-97.08 395.77,-115.84 408.8,-131.32"/>
<polygon fill="black" stroke="black" points="405.93,-133.33 414.99,-138.82 411.33,-128.88 405.93,-133.33"/>
</g>
<!-- com.example.sms.domain.model.system.user.User&#45;&gt;com.example.sms.domain.model.system.user.RoleName -->
<g id="edge4" class="edge">
<title>com.example.sms.domain.model.system.user.User&#45;&gt;com.example.sms.domain.model.system.user.RoleName</title>
<path fill="none" stroke="black" d="M468.32,-142.65C476.38,-138.65 485.08,-134.35 493.55,-130.15"/>
<polygon fill="black" stroke="black" points="494.94,-133.37 502.35,-125.79 491.83,-127.1 494.94,-133.37"/>
</g>
<!-- com.example.sms.domain.model.system.user.UserList&#45;&gt;com.example.sms.domain.model.system.user.User -->
<g id="edge3" class="edge">
<title>com.example.sms.domain.model.system.user.UserList&#45;&gt;com.example.sms.domain.model.system.user.User</title>
<path fill="none" stroke="black" d="M357.53,-131.25C366.86,-134.88 376.58,-138.67 385.78,-142.26"/>
<polygon fill="black" stroke="black" points="384.3,-145.44 394.89,-145.81 386.84,-138.92 384.3,-145.44"/>
</g>
</g>
</svg>
