<?xml version="1.0" encoding="UTF-8" standalone="no"?>
<!DOCTYPE svg PUBLIC "-//W3C//DTD SVG 1.1//EN"
 "http://www.w3.org/Graphics/SVG/1.1/DTD/svg11.dtd">
<!-- Generated by graphviz version 12.1.2 (20240928.0832)
 -->
<!-- Title: 区分使用図 Pages: 1 -->
<svg width="627pt" height="337pt"
 viewBox="0.00 0.00 627.43 337.00" xmlns="http://www.w3.org/2000/svg" xmlns:xlink="http://www.w3.org/1999/xlink">
<g id="graph0" class="graph" transform="scale(1 1) rotate(0) translate(4 333)">
<title>区分使用図</title>
<polygon fill="white" stroke="none" points="-4,4 -4,-333 623.43,-333 623.43,4 -4,4"/>
<text text-anchor="middle" x="309.71" y="-5.7" font-family="Times,serif" font-size="14.00">区分使用図</text>
<!-- com.example.sms.domain.model.system.user.RoleName -->
<g id="node1" class="node">
<title>com.example.sms.domain.model.system.user.RoleName</title>
<polygon fill="lemonchiffon" stroke="black" points="619.43,-115.75 548.93,-115.75 544.93,-111.75 544.93,-76.25 615.43,-76.25 619.43,-80.25 619.43,-115.75"/>
<polyline fill="none" stroke="black" points="615.43,-111.75 544.93,-111.75"/>
<polyline fill="none" stroke="black" points="615.43,-111.75 615.43,-76.25"/>
<polyline fill="none" stroke="black" points="615.43,-111.75 619.43,-115.75"/>
<text text-anchor="middle" x="582.18" y="-98.45" font-family="Times,serif" font-size="14.00">役割</text>
<text text-anchor="middle" x="582.18" y="-83.45" font-family="Times,serif" font-size="14.00">RoleName</text>
</g>
<!-- com.example.sms.service.system.auth.AuthService#loadUserByUsername(java.lang.String) -->
<g id="node2" class="node">
<title>com.example.sms.service.system.auth.AuthService#loadUserByUsername(java.lang.String)</title>
<g id="a_node2"><a xlink:href="./application.html#com.example.sms.service.system.auth.AuthService" xlink:title="AuthService.loadUserByUsername(String)">
<ellipse fill="lemonchiffon" stroke="black" cx="129.34" cy="-41" rx="64.99" ry="18"/>
<text text-anchor="middle" x="129.34" y="-35.2" font-family="Times,serif" font-size="14.00">ユーザー認証</text>
</a>
</g>
</g>
<!-- com.example.sms.domain.model.system.auth.AuthUserDetails -->
<g id="node8" class="node">
<title>com.example.sms.domain.model.system.auth.AuthUserDetails</title>
<g id="a_node8"><a xlink:href="./domain.html#com.example.sms.domain.model.system.auth.AuthUserDetails" xlink:title="認証ユーザー\nAuthUserDetails">
<polygon fill="white" stroke="black" points="401.43,-62.75 294.68,-62.75 294.68,-23.25 401.43,-23.25 401.43,-62.75"/>
<text text-anchor="middle" x="348.05" y="-45.45" font-family="Times,serif" font-size="14.00">認証ユーザー</text>
<text text-anchor="middle" x="348.05" y="-30.45" font-family="Times,serif" font-size="14.00">AuthUserDetails</text>
</a>
</g>
</g>
<!-- com.example.sms.service.system.auth.AuthService#loadUserByUsername(java.lang.String)&#45;&gt;com.example.sms.domain.model.system.auth.AuthUserDetails -->
<g id="edge5" class="edge">
<title>com.example.sms.service.system.auth.AuthService#loadUserByUsername(java.lang.String)&#45;&gt;com.example.sms.domain.model.system.auth.AuthUserDetails</title>
<path fill="none" stroke="black" d="M194.77,-41.59C222.74,-41.85 255.4,-42.15 283.28,-42.41"/>
<polygon fill="black" stroke="black" points="282.97,-45.91 293,-42.5 283.03,-38.91 282.97,-45.91"/>
</g>
<!-- com.example.sms.service.system.user.UserManagementService#selectAll() -->
<g id="node3" class="node">
<title>com.example.sms.service.system.user.UserManagementService#selectAll()</title>
<g id="a_node3"><a xlink:href="./application.html#com.example.sms.service.system.user.UserManagementService" xlink:title="UserManagementService.selectAll()">
<ellipse fill="lemonchiffon" stroke="black" cx="129.34" cy="-95" rx="64.99" ry="18"/>
<text text-anchor="middle" x="129.34" y="-89.2" font-family="Times,serif" font-size="14.00">ユーザー一覧</text>
</a>
</g>
</g>
<!-- com.example.sms.domain.model.system.user.UserList -->
<g id="node10" class="node">
<title>com.example.sms.domain.model.system.user.UserList</title>
<g id="a_node10"><a xlink:href="./domain.html#com.example.sms.domain.model.system.user.UserList" xlink:title="ユーザー一覧\nUserList">
<polygon fill="white" stroke="black" points="398.05,-120.75 298.05,-120.75 298.05,-81.25 398.05,-81.25 398.05,-120.75"/>
<text text-anchor="middle" x="348.05" y="-103.45" font-family="Times,serif" font-size="14.00">ユーザー一覧</text>
<text text-anchor="middle" x="348.05" y="-88.45" font-family="Times,serif" font-size="14.00">UserList</text>
</a>
</g>
</g>
<!-- com.example.sms.service.system.user.UserManagementService#selectAll()&#45;&gt;com.example.sms.domain.model.system.user.UserList -->
<g id="edge6" class="edge">
<title>com.example.sms.service.system.user.UserManagementService#selectAll()&#45;&gt;com.example.sms.domain.model.system.user.UserList</title>
<path fill="none" stroke="black" d="M194.48,-96.78C223.55,-97.58 257.74,-98.53 286.39,-99.32"/>
<polygon fill="black" stroke="black" points="286.27,-102.82 296.37,-99.6 286.47,-95.82 286.27,-102.82"/>
</g>
<!-- com.example.sms.service.system.user.UserManagementService#selectAllWithPageInfo() -->
<g id="node4" class="node">
<title>com.example.sms.service.system.user.UserManagementService#selectAllWithPageInfo()</title>
<g id="a_node4"><a xlink:href="./application.html#com.example.sms.service.system.user.UserManagementService" xlink:title="UserManagementService.selectAllWithPageInfo()">
<ellipse fill="lemonchiffon" stroke="black" cx="129.34" cy="-311" rx="129.34" ry="18"/>
<text text-anchor="middle" x="129.34" y="-305.2" font-family="Times,serif" font-size="14.00">ユーザー一覧（ページング）</text>
</a>
</g>
</g>
<!-- com.example.sms.domain.model.system.user.User -->
<g id="node9" class="node">
<title>com.example.sms.domain.model.system.user.User</title>
<g id="a_node9"><a xlink:href="./domain.html#com.example.sms.domain.model.system.user.User" xlink:title="ユーザー\nUser">
<polygon fill="white" stroke="black" points="508.93,-168.75 437.43,-168.75 437.43,-129.25 508.93,-129.25 508.93,-168.75"/>
<text text-anchor="middle" x="473.18" y="-151.45" font-family="Times,serif" font-size="14.00">ユーザー</text>
<text text-anchor="middle" x="473.18" y="-136.45" font-family="Times,serif" font-size="14.00">User</text>
</a>
</g>
</g>
<!-- com.example.sms.service.system.user.UserManagementService#selectAllWithPageInfo()&#45;&gt;com.example.sms.domain.model.system.user.User -->
<g id="edge7" class="edge">
<title>com.example.sms.service.system.user.UserManagementService#selectAllWithPageInfo()&#45;&gt;com.example.sms.domain.model.system.user.User</title>
<path fill="none" stroke="black" d="M212.25,-296.8C227.84,-293.25 243.9,-288.99 258.68,-284 325.25,-261.5 343.48,-255.76 401.43,-216 417.56,-204.93 433.56,-190.19 446.25,-177.35"/>
<polygon fill="black" stroke="black" points="448.6,-179.96 453.03,-170.33 443.56,-175.09 448.6,-179.96"/>
</g>
<!-- com.example.sms.service.system.user.UserManagementService#register(com.example.sms.domain.model.system.user.User) -->
<g id="node5" class="node">
<title>com.example.sms.service.system.user.UserManagementService#register(com.example.sms.domain.model.system.user.User)</title>
<g id="a_node5"><a xlink:href="./application.html#com.example.sms.service.system.user.UserManagementService" xlink:title="UserManagementService.register(User)">
<ellipse fill="lemonchiffon" stroke="black" cx="129.34" cy="-257" rx="83.52" ry="18"/>
<text text-anchor="middle" x="129.34" y="-251.2" font-family="Times,serif" font-size="14.00">ユーザー新規登録</text>
</a>
</g>
</g>
<!-- com.example.sms.service.system.user.UserManagementService#register(com.example.sms.domain.model.system.user.User)&#45;&gt;com.example.sms.domain.model.system.user.User -->
<g id="edge8" class="edge">
<title>com.example.sms.service.system.user.UserManagementService#register(com.example.sms.domain.model.system.user.User)&#45;&gt;com.example.sms.domain.model.system.user.User</title>
<path fill="none" stroke="black" d="M193.19,-245.1C249.1,-233.4 332.46,-213.19 401.43,-185 409.86,-181.55 418.66,-177.48 427.07,-173.35"/>
<polygon fill="black" stroke="black" points="428.38,-176.61 435.73,-168.98 425.23,-170.35 428.38,-176.61"/>
</g>
<!-- com.example.sms.service.system.user.UserManagementService#save(com.example.sms.domain.model.system.user.User) -->
<g id="node6" class="node">
<title>com.example.sms.service.system.user.UserManagementService#save(com.example.sms.domain.model.system.user.User)</title>
<g id="a_node6"><a xlink:href="./application.html#com.example.sms.service.system.user.UserManagementService" xlink:title="UserManagementService.save(User)">
<ellipse fill="lemonchiffon" stroke="black" cx="129.34" cy="-203" rx="83.52" ry="18"/>
<text text-anchor="middle" x="129.34" y="-197.2" font-family="Times,serif" font-size="14.00">ユーザー情報編集</text>
</a>
</g>
</g>
<!-- com.example.sms.service.system.user.UserManagementService#save(com.example.sms.domain.model.system.user.User)&#45;&gt;com.example.sms.domain.model.system.user.User -->
<g id="edge9" class="edge">
<title>com.example.sms.service.system.user.UserManagementService#save(com.example.sms.domain.model.system.user.User)&#45;&gt;com.example.sms.domain.model.system.user.User</title>
<path fill="none" stroke="black" d="M201.27,-193.5C256.05,-185.93 333.69,-174.69 401.43,-163 409.31,-161.64 417.67,-160.09 425.77,-158.52"/>
<polygon fill="black" stroke="black" points="426.35,-161.97 435.49,-156.61 425,-155.1 426.35,-161.97"/>
</g>
<!-- com.example.sms.service.system.user.UserManagementService#find(com.example.sms.domain.model.system.user.UserId) -->
<g id="node7" class="node">
<title>com.example.sms.service.system.user.UserManagementService#find(com.example.sms.domain.model.system.user.UserId)</title>
<g id="a_node7"><a xlink:href="./application.html#com.example.sms.service.system.user.UserManagementService" xlink:title="UserManagementService.find(UserId)">
<ellipse fill="lemonchiffon" stroke="black" cx="129.34" cy="-149" rx="64.99" ry="18"/>
<text text-anchor="middle" x="129.34" y="-143.2" font-family="Times,serif" font-size="14.00">ユーザー検索</text>
</a>
</g>
</g>
<!-- com.example.sms.service.system.user.UserManagementService#find(com.example.sms.domain.model.system.user.UserId)&#45;&gt;com.example.sms.domain.model.system.user.User -->
<g id="edge10" class="edge">
<title>com.example.sms.service.system.user.UserManagementService#find(com.example.sms.domain.model.system.user.UserId)&#45;&gt;com.example.sms.domain.model.system.user.User</title>
<path fill="none" stroke="black" d="M194.64,-149C261.9,-149 365.86,-149 425.61,-149"/>
<polygon fill="black" stroke="black" points="425.44,-152.5 435.44,-149 425.44,-145.5 425.44,-152.5"/>
</g>
<!-- com.example.sms.domain.model.system.auth.AuthUserDetails&#45;&gt;com.example.sms.domain.model.system.user.RoleName -->
<g id="edge1" class="edge">
<title>com.example.sms.domain.model.system.auth.AuthUserDetails&#45;&gt;com.example.sms.domain.model.system.user.RoleName</title>
<path fill="none" stroke="black" d="M401.72,-55.03C441.41,-64.09 495.37,-76.41 533.73,-85.17"/>
<polygon fill="black" stroke="black" points="532.6,-88.5 543.12,-87.31 534.15,-81.67 532.6,-88.5"/>
</g>
<!-- com.example.sms.domain.model.system.auth.AuthUserDetails&#45;&gt;com.example.sms.domain.model.system.user.User -->
<g id="edge2" class="edge">
<title>com.example.sms.domain.model.system.auth.AuthUserDetails&#45;&gt;com.example.sms.domain.model.system.user.User</title>
<path fill="none" stroke="black" d="M388.83,-63.21C393.21,-65.97 397.51,-68.91 401.43,-72 419.32,-86.08 436.66,-104.84 449.69,-120.32"/>
<polygon fill="black" stroke="black" points="446.82,-122.33 455.88,-127.82 452.22,-117.88 446.82,-122.33"/>
</g>
<!-- com.example.sms.domain.model.system.user.User&#45;&gt;com.example.sms.domain.model.system.user.RoleName -->
<g id="edge4" class="edge">
<title>com.example.sms.domain.model.system.user.User&#45;&gt;com.example.sms.domain.model.system.user.RoleName</title>
<path fill="none" stroke="black" d="M509.21,-131.65C517.27,-127.65 525.97,-123.35 534.44,-119.15"/>
<polygon fill="black" stroke="black" points="535.83,-122.37 543.24,-114.79 532.72,-116.1 535.83,-122.37"/>
</g>
<!-- com.example.sms.domain.model.system.user.UserList&#45;&gt;com.example.sms.domain.model.system.user.User -->
<g id="edge3" class="edge">
<title>com.example.sms.domain.model.system.user.UserList&#45;&gt;com.example.sms.domain.model.system.user.User</title>
<path fill="none" stroke="black" d="M398.42,-120.25C407.75,-123.88 417.47,-127.67 426.67,-131.26"/>
<polygon fill="black" stroke="black" points="425.19,-134.44 435.77,-134.81 427.73,-127.92 425.19,-134.44"/>
</g>
</g>
</svg>
