<?xml version="1.0" encoding="UTF-8" standalone="no"?>
<!DOCTYPE svg PUBLIC "-//W3C//DTD SVG 1.1//EN"
 "http://www.w3.org/Graphics/SVG/1.1/DTD/svg11.dtd">
<!-- Generated by graphviz version 12.1.2 (20240928.0832)
 -->
<!-- Title: パッケージ関連図 Pages: 1 -->
<svg width="359pt" height="164pt"
 viewBox="0.00 0.00 358.88 164.00" xmlns="http://www.w3.org/2000/svg" xmlns:xlink="http://www.w3.org/1999/xlink">
<g id="graph0" class="graph" transform="scale(1 1) rotate(0) translate(4 160)">
<title>パッケージ関連図</title>
<polygon fill="white" stroke="none" points="-4,4 -4,-160 354.88,-160 354.88,4 -4,4"/>
<text text-anchor="middle" x="175.44" y="-5.7" font-family="Times,serif" font-size="14.00">パッケージ関連図</text>
<!-- summary -->
<g id="node1" class="node">
<title>summary</title>
<polygon fill="none" stroke="black" points="264.25,-156 0,-156 0,-98.5 270.25,-98.5 270.25,-150 264.25,-156"/>
<polyline fill="none" stroke="black" points="264.25,-156 264.25,-150"/>
<polyline fill="none" stroke="black" points="270.25,-150 264.25,-150"/>
<text text-anchor="start" x="8" y="-138.7" font-family="Times,serif" font-size="14.00">root: com.example.sms.domain.model.system</text>
<text text-anchor="start" x="8" y="-122.2" font-family="Times,serif" font-size="14.00">パッケージ数: 2</text>
<text text-anchor="start" x="8" y="-105.7" font-family="Times,serif" font-size="14.00">関連数: 1</text>
</g>
<!-- com.example.sms.domain.model.system.auth -->
<g id="node2" class="node">
<title>com.example.sms.domain.model.system.auth</title>
<g id="a_node2"><a xlink:href="./domain.html#com.example.sms.domain.model.system.auth" xlink:title="認証\nauth">
<polygon fill="#eedd82" stroke="black" points="342.12,-147 288.12,-147 288.12,-107.5 342.12,-107.5 342.12,-147"/>
<text text-anchor="middle" x="315.12" y="-129.7" font-family="Times,serif" font-size="14.00">認証</text>
<text text-anchor="middle" x="315.12" y="-114.7" font-family="Times,serif" font-size="14.00">auth</text>
</a>
</g>
</g>
<!-- com.example.sms.domain.model.system.user -->
<g id="node3" class="node">
<title>com.example.sms.domain.model.system.user</title>
<g id="a_node3"><a xlink:href="./domain.html#com.example.sms.domain.model.system.user" xlink:title="ユーザー\nuser">
<polygon fill="#eedd82" stroke="black" points="350.88,-62.5 279.38,-62.5 279.38,-23 350.88,-23 350.88,-62.5"/>
<text text-anchor="middle" x="315.12" y="-45.2" font-family="Times,serif" font-size="14.00">ユーザー</text>
<text text-anchor="middle" x="315.12" y="-30.2" font-family="Times,serif" font-size="14.00">user</text>
</a>
</g>
</g>
<!-- com.example.sms.domain.model.system.auth&#45;&gt;com.example.sms.domain.model.system.user -->
<g id="edge1" class="edge">
<title>com.example.sms.domain.model.system.auth&#45;&gt;com.example.sms.domain.model.system.user</title>
<path fill="none" stroke="black" d="M315.12,-107.12C315.12,-97.33 315.12,-85.18 315.12,-74.15"/>
<polygon fill="black" stroke="black" points="318.63,-74.29 315.13,-64.29 311.63,-74.29 318.63,-74.29"/>
</g>
</g>
</svg>
