<?xml version="1.0" encoding="UTF-8" standalone="no"?>
<!DOCTYPE svg PUBLIC "-//W3C//DTD SVG 1.1//EN"
 "http://www.w3.org/Graphics/SVG/1.1/DTD/svg11.dtd">
<!-- Generated by graphviz version 3.0.0 (20220226.1711)
 -->
<!-- Title: ERD Pages: 1 -->
<svg width="870pt" height="1233pt"
 viewBox="0.00 0.00 870.00 1233.00" xmlns="http://www.w3.org/2000/svg" xmlns:xlink="http://www.w3.org/1999/xlink">
<g id="graph0" class="graph" transform="scale(1 1) rotate(0) translate(4 1229)">
<title>ERD</title>
<polygon fill="white" stroke="transparent" points="-4,4 -4,-1229 866,-1229 866,4 -4,4"/>
<g id="clust1" class="cluster">
<title>cluster_PUBLIC</title>
<polygon fill="lightyellow" stroke="black" points="8,-8 8,-1217 854,-1217 854,-8 8,-8"/>
<text text-anchor="middle" x="431" y="-1201.8" font-family="Times New Roman,serif" font-size="14.00">PUBLIC</text>
</g>
<!-- PUBLIC.取引先グループマスタ -->
<g id="node1" class="node">
<title>PUBLIC.取引先グループマスタ</title>
<polygon fill="#eedd82" stroke="black" points="846,-1186 657,-1186 657,-1150 846,-1150 846,-1186"/>
<text text-anchor="middle" x="751.5" y="-1164.3" font-family="Times New Roman,serif" font-size="14.00">取引先グループマスタ</text>
</g>
<!-- PUBLIC.与信残高データ -->
<g id="node2" class="node">
<title>PUBLIC.与信残高データ</title>
<polygon fill="#eedd82" stroke="black" points="820,-1132 683,-1132 683,-1096 820,-1096 820,-1132"/>
<text text-anchor="middle" x="751.5" y="-1110.3" font-family="Times New Roman,serif" font-size="14.00">与信残高データ</text>
</g>
<!-- PUBLIC.取引先マスタ -->
<g id="node3" class="node">
<title>PUBLIC.取引先マスタ</title>
<polygon fill="#eedd82" stroke="black" points="378.5,-970 258.5,-970 258.5,-934 378.5,-934 378.5,-970"/>
<text text-anchor="middle" x="318.5" y="-948.3" font-family="Times New Roman,serif" font-size="14.00">取引先マスタ</text>
</g>
<!-- PUBLIC.仕入先マスタ -->
<g id="node4" class="node">
<title>PUBLIC.仕入先マスタ</title>
<polygon fill="#eedd82" stroke="black" points="586.5,-970 466.5,-970 466.5,-934 586.5,-934 586.5,-970"/>
<text text-anchor="middle" x="526.5" y="-948.3" font-family="Times New Roman,serif" font-size="14.00">仕入先マスタ</text>
</g>
<!-- PUBLIC.仕入先マスタ&#45;&gt;PUBLIC.取引先マスタ -->
<g id="edge2" class="edge">
<title>PUBLIC.仕入先マスタ&#45;&gt;PUBLIC.取引先マスタ</title>
<path fill="none" stroke="black" stroke-dasharray="5,2" d="M466.47,-952C442.23,-952 413.98,-952 388.77,-952"/>
<polygon fill="black" stroke="black" points="378.54,-952 388.54,-947.5 383.54,-952 388.54,-952 388.54,-952 388.54,-952 383.54,-952 388.54,-956.5 378.54,-952 378.54,-952"/>
</g>
<!-- PUBLIC.商品マスタ -->
<g id="node5" class="node">
<title>PUBLIC.商品マスタ</title>
<polygon fill="#eedd82" stroke="black" points="578,-862 475,-862 475,-826 578,-826 578,-862"/>
<text text-anchor="middle" x="526.5" y="-840.3" font-family="Times New Roman,serif" font-size="14.00">商品マスタ</text>
</g>
<!-- PUBLIC.部品表 -->
<g id="node6" class="node">
<title>PUBLIC.部品表</title>
<polygon fill="#eedd82" stroke="black" points="785.5,-1024 717.5,-1024 717.5,-988 785.5,-988 785.5,-1024"/>
<text text-anchor="middle" x="751.5" y="-1002.3" font-family="Times New Roman,serif" font-size="14.00">部品表</text>
</g>
<!-- PUBLIC.部品表&#45;&gt;PUBLIC.商品マスタ -->
<g id="edge17" class="edge">
<title>PUBLIC.部品表&#45;&gt;PUBLIC.商品マスタ</title>
<path fill="none" stroke="black" stroke-dasharray="5,2" d="M717.28,-1002.16C698.19,-998.63 674.59,-991.88 657,-979 633.73,-961.96 640.07,-946.64 621,-925 602.57,-904.09 578.79,-883.56 559.83,-868.4"/>
<polygon fill="black" stroke="black" points="551.76,-862.04 562.4,-864.7 555.69,-865.14 559.61,-868.23 559.61,-868.23 559.61,-868.23 555.69,-865.14 556.83,-871.77 551.76,-862.04 551.76,-862.04"/>
</g>
<!-- PUBLIC.顧客別販売単価 -->
<g id="node7" class="node">
<title>PUBLIC.顧客別販売単価</title>
<polygon fill="#eedd82" stroke="black" points="820,-862 683,-862 683,-826 820,-826 820,-862"/>
<text text-anchor="middle" x="751.5" y="-840.3" font-family="Times New Roman,serif" font-size="14.00">顧客別販売単価</text>
</g>
<!-- PUBLIC.顧客別販売単価&#45;&gt;PUBLIC.商品マスタ -->
<g id="edge19" class="edge">
<title>PUBLIC.顧客別販売単価&#45;&gt;PUBLIC.商品マスタ</title>
<path fill="none" stroke="black" stroke-dasharray="5,2" d="M682.99,-844C652.83,-844 617.56,-844 588.24,-844"/>
<polygon fill="black" stroke="black" points="578.13,-844 588.13,-839.5 583.13,-844 588.13,-844 588.13,-844 588.13,-844 583.13,-844 588.13,-848.5 578.13,-844 578.13,-844"/>
</g>
<!-- PUBLIC.取引先分類マスタ -->
<g id="node8" class="node">
<title>PUBLIC.取引先分類マスタ</title>
<polygon fill="#eedd82" stroke="black" points="396,-538 241,-538 241,-502 396,-502 396,-538"/>
<text text-anchor="middle" x="318.5" y="-516.3" font-family="Times New Roman,serif" font-size="14.00">取引先分類マスタ</text>
</g>
<!-- PUBLIC.取引先分類種別マスタ -->
<g id="node16" class="node">
<title>PUBLIC.取引先分類種別マスタ</title>
<polygon fill="#eedd82" stroke="black" points="205,-538 16,-538 16,-502 205,-502 205,-538"/>
<text text-anchor="middle" x="110.5" y="-516.3" font-family="Times New Roman,serif" font-size="14.00">取引先分類種別マスタ</text>
</g>
<!-- PUBLIC.取引先分類マスタ&#45;&gt;PUBLIC.取引先分類種別マスタ -->
<g id="edge7" class="edge">
<title>PUBLIC.取引先分類マスタ&#45;&gt;PUBLIC.取引先分類種別マスタ</title>
<path fill="none" stroke="black" stroke-dasharray="5,2" d="M240.79,-520C232.49,-520 223.94,-520 215.38,-520"/>
<polygon fill="black" stroke="black" points="205.35,-520 215.35,-515.5 210.35,-520 215.35,-520 215.35,-520 215.35,-520 210.35,-520 215.35,-524.5 205.35,-520 205.35,-520"/>
</g>
<!-- PUBLIC.取引先分類所属マスタ -->
<g id="node9" class="node">
<title>PUBLIC.取引先分類所属マスタ</title>
<polygon fill="#eedd82" stroke="black" points="621,-538 432,-538 432,-502 621,-502 621,-538"/>
<text text-anchor="middle" x="526.5" y="-516.3" font-family="Times New Roman,serif" font-size="14.00">取引先分類所属マスタ</text>
</g>
<!-- PUBLIC.取引先分類所属マスタ&#45;&gt;PUBLIC.取引先マスタ -->
<g id="edge8" class="edge">
<title>PUBLIC.取引先分類所属マスタ&#45;&gt;PUBLIC.取引先マスタ</title>
<path fill="none" stroke="black" stroke-dasharray="5,2" d="M443.03,-538.1C439.05,-540.69 435.33,-543.64 432,-547 326.52,-653.55 317.89,-849.93 318.59,-923.33"/>
<polygon fill="black" stroke="black" points="318.76,-933.63 314.1,-923.71 318.68,-928.63 318.59,-923.63 318.59,-923.63 318.59,-923.63 318.68,-928.63 323.09,-923.56 318.76,-933.63 318.76,-933.63"/>
</g>
<!-- PUBLIC.取引先分類所属マスタ&#45;&gt;PUBLIC.取引先分類マスタ -->
<g id="edge9" class="edge">
<title>PUBLIC.取引先分類所属マスタ&#45;&gt;PUBLIC.取引先分類マスタ</title>
<path fill="none" stroke="black" stroke-dasharray="5,2" d="M431.84,-520C423.38,-520 414.83,-520 406.43,-520"/>
<polygon fill="black" stroke="black" points="396.27,-520 406.27,-515.5 401.27,-520 406.27,-520 406.27,-520 406.27,-520 401.27,-520 406.27,-524.5 396.27,-520 396.27,-520"/>
</g>
<!-- PUBLIC.支払データ -->
<g id="node10" class="node">
<title>PUBLIC.支払データ</title>
<polygon fill="#eedd82" stroke="black" points="803,-970 700,-970 700,-934 803,-934 803,-970"/>
<text text-anchor="middle" x="751.5" y="-948.3" font-family="Times New Roman,serif" font-size="14.00">支払データ</text>
</g>
<!-- PUBLIC.自動採番マスタ -->
<g id="node11" class="node">
<title>PUBLIC.自動採番マスタ</title>
<polygon fill="#eedd82" stroke="black" points="820,-916 683,-916 683,-880 820,-880 820,-916"/>
<text text-anchor="middle" x="751.5" y="-894.3" font-family="Times New Roman,serif" font-size="14.00">自動採番マスタ</text>
</g>
<!-- PUBLIC.受注データ -->
<g id="node12" class="node">
<title>PUBLIC.受注データ</title>
<polygon fill="#eedd82" stroke="black" points="578,-268 475,-268 475,-232 578,-232 578,-268"/>
<text text-anchor="middle" x="526.5" y="-246.3" font-family="Times New Roman,serif" font-size="14.00">受注データ</text>
</g>
<!-- PUBLIC.発注データ明細 -->
<g id="node13" class="node">
<title>PUBLIC.発注データ明細</title>
<polygon fill="#eedd82" stroke="black" points="820,-754 683,-754 683,-718 820,-718 820,-754"/>
<text text-anchor="middle" x="751.5" y="-732.3" font-family="Times New Roman,serif" font-size="14.00">発注データ明細</text>
</g>
<!-- PUBLIC.発注データ -->
<g id="node19" class="node">
<title>PUBLIC.発注データ</title>
<polygon fill="#eedd82" stroke="black" points="578,-754 475,-754 475,-718 578,-718 578,-754"/>
<text text-anchor="middle" x="526.5" y="-732.3" font-family="Times New Roman,serif" font-size="14.00">発注データ</text>
</g>
<!-- PUBLIC.発注データ明細&#45;&gt;PUBLIC.発注データ -->
<g id="edge14" class="edge">
<title>PUBLIC.発注データ明細&#45;&gt;PUBLIC.発注データ</title>
<path fill="none" stroke="black" stroke-dasharray="5,2" d="M682.99,-736C652.83,-736 617.56,-736 588.24,-736"/>
<polygon fill="black" stroke="black" points="578.13,-736 588.13,-731.5 583.13,-736 588.13,-736 588.13,-736 588.13,-736 583.13,-736 588.13,-740.5 578.13,-736 578.13,-736"/>
</g>
<!-- PUBLIC.顧客マスタ -->
<g id="node14" class="node">
<title>PUBLIC.顧客マスタ</title>
<polygon fill="#eedd82" stroke="black" points="578,-1051 475,-1051 475,-1015 578,-1015 578,-1051"/>
<text text-anchor="middle" x="526.5" y="-1029.3" font-family="Times New Roman,serif" font-size="14.00">顧客マスタ</text>
</g>
<!-- PUBLIC.顧客マスタ&#45;&gt;PUBLIC.取引先マスタ -->
<g id="edge18" class="edge">
<title>PUBLIC.顧客マスタ&#45;&gt;PUBLIC.取引先マスタ</title>
<path fill="none" stroke="black" stroke-dasharray="5,2" d="M479.53,-1014.92C448.55,-1002.74 407.53,-986.61 374.77,-973.73"/>
<polygon fill="black" stroke="black" points="365.33,-970.02 376.29,-969.49 369.99,-971.85 374.64,-973.68 374.64,-973.68 374.64,-973.68 369.99,-971.85 372.99,-977.87 365.33,-970.02 365.33,-970.02"/>
</g>
<!-- PUBLIC.倉庫部門マスタ -->
<g id="node15" class="node">
<title>PUBLIC.倉庫部門マスタ</title>
<polygon fill="#eedd82" stroke="black" points="820,-700 683,-700 683,-664 820,-664 820,-700"/>
<text text-anchor="middle" x="751.5" y="-678.3" font-family="Times New Roman,serif" font-size="14.00">倉庫部門マスタ</text>
</g>
<!-- PUBLIC.部門マスタ -->
<g id="node24" class="node">
<title>PUBLIC.部門マスタ</title>
<polygon fill="#eedd82" stroke="black" points="578,-700 475,-700 475,-664 578,-664 578,-700"/>
<text text-anchor="middle" x="526.5" y="-678.3" font-family="Times New Roman,serif" font-size="14.00">部門マスタ</text>
</g>
<!-- PUBLIC.倉庫部門マスタ&#45;&gt;PUBLIC.部門マスタ -->
<g id="edge5" class="edge">
<title>PUBLIC.倉庫部門マスタ&#45;&gt;PUBLIC.部門マスタ</title>
<path fill="none" stroke="black" stroke-dasharray="5,2" d="M682.99,-682C652.83,-682 617.56,-682 588.24,-682"/>
<polygon fill="black" stroke="black" points="578.13,-682 588.13,-677.5 583.13,-682 588.13,-682 588.13,-682 588.13,-682 583.13,-682 588.13,-686.5 578.13,-682 578.13,-682"/>
</g>
<!-- PUBLIC.倉庫マスタ -->
<g id="node28" class="node">
<title>PUBLIC.倉庫マスタ</title>
<polygon fill="#eedd82" stroke="black" points="578,-592 475,-592 475,-556 578,-556 578,-592"/>
<text text-anchor="middle" x="526.5" y="-570.3" font-family="Times New Roman,serif" font-size="14.00">倉庫マスタ</text>
</g>
<!-- PUBLIC.倉庫部門マスタ&#45;&gt;PUBLIC.倉庫マスタ -->
<g id="edge4" class="edge">
<title>PUBLIC.倉庫部門マスタ&#45;&gt;PUBLIC.倉庫マスタ</title>
<path fill="none" stroke="black" stroke-dasharray="5,2" d="M682.79,-664.88C673.97,-661.95 665.18,-658.65 657,-655 622.34,-639.52 585.96,-616.03 560.61,-598.33"/>
<polygon fill="black" stroke="black" points="552.13,-592.33 562.89,-594.43 556.21,-595.22 560.3,-598.1 560.3,-598.1 560.3,-598.1 556.21,-595.22 557.7,-601.78 552.13,-592.33 552.13,-592.33"/>
</g>
<!-- PUBLIC.在庫データ -->
<g id="node17" class="node">
<title>PUBLIC.在庫データ</title>
<polygon fill="#eedd82" stroke="black" points="803,-538 700,-538 700,-502 803,-502 803,-538"/>
<text text-anchor="middle" x="751.5" y="-516.3" font-family="Times New Roman,serif" font-size="14.00">在庫データ</text>
</g>
<!-- PUBLIC.在庫データ&#45;&gt;PUBLIC.倉庫マスタ -->
<g id="edge11" class="edge">
<title>PUBLIC.在庫データ&#45;&gt;PUBLIC.倉庫マスタ</title>
<path fill="none" stroke="black" stroke-dasharray="5,2" d="M699.9,-532.25C666.8,-540.27 623.37,-550.78 588.38,-559.26"/>
<polygon fill="black" stroke="black" points="578.29,-561.7 586.95,-554.97 583.15,-560.52 588.01,-559.35 588.01,-559.35 588.01,-559.35 583.15,-560.52 589.07,-563.72 578.29,-561.7 578.29,-561.7"/>
</g>
<!-- PUBLIC.出荷先マスタ -->
<g id="node18" class="node">
<title>PUBLIC.出荷先マスタ</title>
<polygon fill="#eedd82" stroke="black" points="811.5,-1078 691.5,-1078 691.5,-1042 811.5,-1042 811.5,-1078"/>
<text text-anchor="middle" x="751.5" y="-1056.3" font-family="Times New Roman,serif" font-size="14.00">出荷先マスタ</text>
</g>
<!-- PUBLIC.出荷先マスタ&#45;&gt;PUBLIC.顧客マスタ -->
<g id="edge6" class="edge">
<title>PUBLIC.出荷先マスタ&#45;&gt;PUBLIC.顧客マスタ</title>
<path fill="none" stroke="black" stroke-dasharray="5,2" d="M691.33,-1052.84C659.54,-1048.99 620.42,-1044.25 588.37,-1040.37"/>
<polygon fill="black" stroke="black" points="578.24,-1039.14 588.71,-1035.88 583.2,-1039.74 588.17,-1040.35 588.17,-1040.35 588.17,-1040.35 583.2,-1039.74 587.62,-1044.81 578.24,-1039.14 578.24,-1039.14"/>
</g>
<!-- PUBLIC.請求データ -->
<g id="node20" class="node">
<title>PUBLIC.請求データ</title>
<polygon fill="#eedd82" stroke="black" points="578,-376 475,-376 475,-340 578,-340 578,-376"/>
<text text-anchor="middle" x="526.5" y="-354.3" font-family="Times New Roman,serif" font-size="14.00">請求データ</text>
</g>
<!-- PUBLIC.社員マスタ -->
<g id="node21" class="node">
<title>PUBLIC.社員マスタ</title>
<polygon fill="#eedd82" stroke="black" points="803,-646 700,-646 700,-610 803,-610 803,-646"/>
<text text-anchor="middle" x="751.5" y="-624.3" font-family="Times New Roman,serif" font-size="14.00">社員マスタ</text>
</g>
<!-- PUBLIC.入金口座マスタ -->
<g id="node22" class="node">
<title>PUBLIC.入金口座マスタ</title>
<polygon fill="#eedd82" stroke="black" points="820,-592 683,-592 683,-556 820,-556 820,-592"/>
<text text-anchor="middle" x="751.5" y="-570.3" font-family="Times New Roman,serif" font-size="14.00">入金口座マスタ</text>
</g>
<!-- PUBLIC.仕入データ明細 -->
<g id="node23" class="node">
<title>PUBLIC.仕入データ明細</title>
<polygon fill="#eedd82" stroke="black" points="820,-430 683,-430 683,-394 820,-394 820,-430"/>
<text text-anchor="middle" x="751.5" y="-408.3" font-family="Times New Roman,serif" font-size="14.00">仕入データ明細</text>
</g>
<!-- PUBLIC.仕入データ -->
<g id="node36" class="node">
<title>PUBLIC.仕入データ</title>
<polygon fill="#eedd82" stroke="black" points="578,-430 475,-430 475,-394 578,-394 578,-430"/>
<text text-anchor="middle" x="526.5" y="-408.3" font-family="Times New Roman,serif" font-size="14.00">仕入データ</text>
</g>
<!-- PUBLIC.仕入データ明細&#45;&gt;PUBLIC.仕入データ -->
<g id="edge1" class="edge">
<title>PUBLIC.仕入データ明細&#45;&gt;PUBLIC.仕入データ</title>
<path fill="none" stroke="black" stroke-dasharray="5,2" d="M682.99,-412C652.83,-412 617.56,-412 588.24,-412"/>
<polygon fill="black" stroke="black" points="578.13,-412 588.13,-407.5 583.13,-412 588.13,-412 588.13,-412 588.13,-412 583.13,-412 588.13,-416.5 578.13,-412 578.13,-412"/>
</g>
<!-- PUBLIC.請求データ明細 -->
<g id="node25" class="node">
<title>PUBLIC.請求データ明細</title>
<polygon fill="#eedd82" stroke="black" points="820,-376 683,-376 683,-340 820,-340 820,-376"/>
<text text-anchor="middle" x="751.5" y="-354.3" font-family="Times New Roman,serif" font-size="14.00">請求データ明細</text>
</g>
<!-- PUBLIC.請求データ明細&#45;&gt;PUBLIC.請求データ -->
<g id="edge16" class="edge">
<title>PUBLIC.請求データ明細&#45;&gt;PUBLIC.請求データ</title>
<path fill="none" stroke="black" stroke-dasharray="5,2" d="M682.99,-358C652.83,-358 617.56,-358 588.24,-358"/>
<polygon fill="black" stroke="black" points="578.13,-358 588.13,-353.5 583.13,-358 588.13,-358 588.13,-358 588.13,-358 583.13,-358 588.13,-362.5 578.13,-358 578.13,-358"/>
</g>
<!-- PUBLIC.売上データ明細 -->
<g id="node29" class="node">
<title>PUBLIC.売上データ明細</title>
<polygon fill="#eedd82" stroke="black" points="595,-322 458,-322 458,-286 595,-286 595,-322"/>
<text text-anchor="middle" x="526.5" y="-300.3" font-family="Times New Roman,serif" font-size="14.00">売上データ明細</text>
</g>
<!-- PUBLIC.請求データ明細&#45;&gt;PUBLIC.売上データ明細 -->
<g id="edge15" class="edge">
<title>PUBLIC.請求データ明細&#45;&gt;PUBLIC.売上データ明細</title>
<path fill="none" stroke="black" stroke-dasharray="5,2" d="M682.99,-341.65C658.43,-335.7 630.48,-328.94 605.12,-322.8"/>
<polygon fill="black" stroke="black" points="595.17,-320.39 605.95,-318.37 600.03,-321.56 604.89,-322.74 604.89,-322.74 604.89,-322.74 600.03,-321.56 603.83,-327.11 595.17,-320.39 595.17,-320.39"/>
</g>
<!-- PUBLIC.棚番マスタ -->
<g id="node26" class="node">
<title>PUBLIC.棚番マスタ</title>
<polygon fill="#eedd82" stroke="black" points="803,-484 700,-484 700,-448 803,-448 803,-484"/>
<text text-anchor="middle" x="751.5" y="-462.3" font-family="Times New Roman,serif" font-size="14.00">棚番マスタ</text>
</g>
<!-- PUBLIC.棚番マスタ&#45;&gt;PUBLIC.倉庫マスタ -->
<g id="edge13" class="edge">
<title>PUBLIC.棚番マスタ&#45;&gt;PUBLIC.倉庫マスタ</title>
<path fill="none" stroke="black" stroke-dasharray="5,2" d="M699.99,-473.74C685.15,-477.75 669.54,-483.82 657,-493 633.73,-510.04 644.27,-529.96 621,-547 611.2,-554.17 599.53,-559.45 587.82,-563.32"/>
<polygon fill="black" stroke="black" points="578.01,-566.26 586.3,-559.08 582.8,-564.83 587.59,-563.39 587.59,-563.39 587.59,-563.39 582.8,-564.83 588.88,-567.7 578.01,-566.26 578.01,-566.26"/>
</g>
<!-- PUBLIC.代替商品 -->
<g id="node27" class="node">
<title>PUBLIC.代替商品</title>
<polygon fill="#eedd82" stroke="black" points="794.5,-808 708.5,-808 708.5,-772 794.5,-772 794.5,-808"/>
<text text-anchor="middle" x="751.5" y="-786.3" font-family="Times New Roman,serif" font-size="14.00">代替商品</text>
</g>
<!-- PUBLIC.代替商品&#45;&gt;PUBLIC.商品マスタ -->
<g id="edge3" class="edge">
<title>PUBLIC.代替商品&#45;&gt;PUBLIC.商品マスタ</title>
<path fill="none" stroke="black" stroke-dasharray="5,2" d="M708.29,-800.22C674.33,-808.44 626.16,-820.11 588.08,-829.33"/>
<polygon fill="black" stroke="black" points="578.13,-831.74 586.79,-825.01 582.99,-830.56 587.85,-829.39 587.85,-829.39 587.85,-829.39 582.99,-830.56 588.91,-833.76 578.13,-831.74 578.13,-831.74"/>
</g>
<!-- PUBLIC.売上データ -->
<g id="node32" class="node">
<title>PUBLIC.売上データ</title>
<polygon fill="#eedd82" stroke="black" points="370,-322 267,-322 267,-286 370,-286 370,-322"/>
<text text-anchor="middle" x="318.5" y="-300.3" font-family="Times New Roman,serif" font-size="14.00">売上データ</text>
</g>
<!-- PUBLIC.売上データ明細&#45;&gt;PUBLIC.売上データ -->
<g id="edge12" class="edge">
<title>PUBLIC.売上データ明細&#45;&gt;PUBLIC.売上データ</title>
<path fill="none" stroke="black" stroke-dasharray="5,2" d="M457.76,-304C432.83,-304 404.76,-304 380.46,-304"/>
<polygon fill="black" stroke="black" points="370.29,-304 380.29,-299.5 375.29,-304 380.29,-304 380.29,-304 380.29,-304 375.29,-304 380.29,-308.5 370.29,-304 370.29,-304"/>
</g>
<!-- PUBLIC.地域マスタ -->
<g id="node30" class="node">
<title>PUBLIC.地域マスタ</title>
<polygon fill="#eedd82" stroke="black" points="803,-322 700,-322 700,-286 803,-286 803,-322"/>
<text text-anchor="middle" x="751.5" y="-300.3" font-family="Times New Roman,serif" font-size="14.00">地域マスタ</text>
</g>
<!-- PUBLIC.受注データ明細 -->
<g id="node31" class="node">
<title>PUBLIC.受注データ明細</title>
<polygon fill="#eedd82" stroke="black" points="820,-268 683,-268 683,-232 820,-232 820,-268"/>
<text text-anchor="middle" x="751.5" y="-246.3" font-family="Times New Roman,serif" font-size="14.00">受注データ明細</text>
</g>
<!-- PUBLIC.受注データ明細&#45;&gt;PUBLIC.受注データ -->
<g id="edge10" class="edge">
<title>PUBLIC.受注データ明細&#45;&gt;PUBLIC.受注データ</title>
<path fill="none" stroke="black" stroke-dasharray="5,2" d="M682.99,-250C652.83,-250 617.56,-250 588.24,-250"/>
<polygon fill="black" stroke="black" points="578.13,-250 588.13,-245.5 583.13,-250 588.13,-250 588.13,-250 588.13,-250 583.13,-250 588.13,-254.5 578.13,-250 578.13,-250"/>
</g>
<!-- PUBLIC.個人客マスタ -->
<g id="node33" class="node">
<title>PUBLIC.個人客マスタ</title>
<polygon fill="#eedd82" stroke="black" points="811.5,-214 691.5,-214 691.5,-178 811.5,-178 811.5,-214"/>
<text text-anchor="middle" x="751.5" y="-192.3" font-family="Times New Roman,serif" font-size="14.00">個人客マスタ</text>
</g>
<!-- PUBLIC.flyway_schema_history -->
<g id="node34" class="node">
<title>PUBLIC.flyway_schema_history</title>
<polygon fill="#eedd82" stroke="black" points="826,-160 677,-160 677,-124 826,-124 826,-160"/>
<text text-anchor="middle" x="751.5" y="-138.3" font-family="Times New Roman,serif" font-size="14.00">flyway_schema_history</text>
</g>
<!-- PUBLIC.商品分類マスタ -->
<g id="node35" class="node">
<title>PUBLIC.商品分類マスタ</title>
<polygon fill="#eedd82" stroke="black" points="820,-106 683,-106 683,-70 820,-70 820,-106"/>
<text text-anchor="middle" x="751.5" y="-84.3" font-family="Times New Roman,serif" font-size="14.00">商品分類マスタ</text>
</g>
<!-- PUBLIC.入金データ -->
<g id="node37" class="node">
<title>PUBLIC.入金データ</title>
<polygon fill="#eedd82" stroke="black" points="803,-52 700,-52 700,-16 803,-16 803,-52"/>
<text text-anchor="middle" x="751.5" y="-30.3" font-family="Times New Roman,serif" font-size="14.00">入金データ</text>
</g>
</g>
</svg>
