<?xml version="1.0" encoding="UTF-8" standalone="no"?>
<!DOCTYPE svg PUBLIC "-//W3C//DTD SVG 1.1//EN"
 "http://www.w3.org/Graphics/SVG/1.1/DTD/svg11.dtd">
<!-- Generated by graphviz version 12.2.0 (20241103.1931)
 -->
<!-- Title: ERD Pages: 1 -->
<svg width="902pt" height="1320pt"
 viewBox="0.00 0.00 902.00 1320.00" xmlns="http://www.w3.org/2000/svg" xmlns:xlink="http://www.w3.org/1999/xlink">
<g id="graph0" class="graph" transform="scale(1 1) rotate(0) translate(4 1316)">
<title>ERD</title>
<polygon fill="white" stroke="none" points="-4,4 -4,-1316 898,-1316 898,4 -4,4"/>
<g id="clust1" class="cluster">
<title>cluster_SYSTEM</title>
<polygon fill="lightyellow" stroke="black" points="474.25,-8 474.25,-85 886,-85 886,-8 474.25,-8"/>
<text text-anchor="middle" x="680.12" y="-67.7" font-family="Times New Roman,serif" font-size="14.00">SYSTEM</text>
</g>
<g id="clust2" class="cluster">
<title>cluster_PUBLIC</title>
<polygon fill="lightyellow" stroke="black" points="8,-93 8,-1304 868.75,-1304 868.75,-93 8,-93"/>
<text text-anchor="middle" x="438.38" y="-1286.7" font-family="Times New Roman,serif" font-size="14.00">PUBLIC</text>
</g>
<!-- SYSTEM.USR -->
<g id="node1" class="node">
<title>SYSTEM.USR</title>
<polygon fill="#eedd82" stroke="black" points="567.25,-52 482.25,-52 482.25,-16 567.25,-16 567.25,-52"/>
<text text-anchor="middle" x="524.75" y="-27.82" font-family="Times New Roman,serif" font-size="14.00">ユーザー</text>
</g>
<!-- SYSTEM.APPLICATION_EXECUTION_HISTORY -->
<g id="node2" class="node">
<title>SYSTEM.APPLICATION_EXECUTION_HISTORY</title>
<polygon fill="#eedd82" stroke="black" points="878,-52 655,-52 655,-16 878,-16 878,-52"/>
<text text-anchor="middle" x="766.5" y="-27.82" font-family="Times New Roman,serif" font-size="14.00">アプリケーション実行履歴</text>
</g>
<!-- SYSTEM.APPLICATION_EXECUTION_HISTORY&#45;&gt;SYSTEM.USR -->
<g id="edge20" class="edge">
<title>SYSTEM.APPLICATION_EXECUTION_HISTORY&#45;&gt;SYSTEM.USR</title>
<path fill="none" stroke="black" stroke-dasharray="5,2" d="M654.75,-34C628.19,-34 601.04,-34 578.53,-34"/>
<polygon fill="black" stroke="black" points="568.77,-34 578.77,-29.5 572.55,-34 578.77,-34 578.77,-34 578.77,-34 572.55,-34 578.77,-38.5 568.77,-34"/>
</g>
<!-- PUBLIC.取引先グループマスタ -->
<g id="node3" class="node">
<title>PUBLIC.取引先グループマスタ</title>
<polygon fill="#eedd82" stroke="black" points="860.75,-137 672.25,-137 672.25,-101 860.75,-101 860.75,-137"/>
<text text-anchor="middle" x="766.5" y="-112.83" font-family="Times New Roman,serif" font-size="14.00">取引先グループマスタ</text>
</g>
<!-- PUBLIC.与信残高データ -->
<g id="node4" class="node">
<title>PUBLIC.与信残高データ</title>
<polygon fill="#eedd82" stroke="black" points="834.88,-191 698.12,-191 698.12,-155 834.88,-155 834.88,-191"/>
<text text-anchor="middle" x="766.5" y="-166.82" font-family="Times New Roman,serif" font-size="14.00">与信残高データ</text>
</g>
<!-- PUBLIC.取引先マスタ -->
<g id="node5" class="node">
<title>PUBLIC.取引先マスタ</title>
<polygon fill="#eedd82" stroke="black" points="377.25,-515 257.75,-515 257.75,-479 377.25,-479 377.25,-515"/>
<text text-anchor="middle" x="317.5" y="-490.82" font-family="Times New Roman,serif" font-size="14.00">取引先マスタ</text>
</g>
<!-- PUBLIC.仕入先マスタ -->
<g id="node6" class="node">
<title>PUBLIC.仕入先マスタ</title>
<polygon fill="#eedd82" stroke="black" points="584.5,-758 465,-758 465,-722 584.5,-722 584.5,-758"/>
<text text-anchor="middle" x="524.75" y="-733.83" font-family="Times New Roman,serif" font-size="14.00">仕入先マスタ</text>
</g>
<!-- PUBLIC.仕入先マスタ&#45;&gt;PUBLIC.取引先マスタ -->
<g id="edge2" class="edge">
<title>PUBLIC.仕入先マスタ&#45;&gt;PUBLIC.取引先マスタ</title>
<path fill="none" stroke="black" stroke-dasharray="5,2" d="M464.96,-730.78C452.64,-726.81 440.4,-721.13 430.5,-713 370.14,-663.47 338.56,-572.86 325.66,-526.31"/>
<polygon fill="black" stroke="black" points="323.09,-516.66 330.01,-525.16 324.06,-520.31 325.66,-526.32 325.66,-526.32 325.66,-526.32 324.06,-520.31 321.31,-527.48 323.09,-516.66"/>
</g>
<!-- PUBLIC.商品マスタ -->
<g id="node7" class="node">
<title>PUBLIC.商品マスタ</title>
<polygon fill="#eedd82" stroke="black" points="575.88,-380 473.62,-380 473.62,-344 575.88,-344 575.88,-380"/>
<text text-anchor="middle" x="524.75" y="-355.82" font-family="Times New Roman,serif" font-size="14.00">商品マスタ</text>
</g>
<!-- PUBLIC.部品表 -->
<g id="node8" class="node">
<title>PUBLIC.部品表</title>
<polygon fill="#eedd82" stroke="black" points="800.38,-461 732.62,-461 732.62,-425 800.38,-425 800.38,-461"/>
<text text-anchor="middle" x="766.5" y="-436.82" font-family="Times New Roman,serif" font-size="14.00">部品表</text>
</g>
<!-- PUBLIC.部品表&#45;&gt;PUBLIC.商品マスタ -->
<g id="edge17" class="edge">
<title>PUBLIC.部品表&#45;&gt;PUBLIC.商品マスタ</title>
<path fill="none" stroke="black" stroke-dasharray="5,2" d="M732.24,-436.29C710.11,-431.49 680.51,-424.39 655,-416 628.24,-407.2 599.22,-395.3 575.48,-384.92"/>
<polygon fill="black" stroke="black" points="566.43,-380.91 577.39,-380.84 569.88,-382.44 575.57,-384.96 575.57,-384.96 575.57,-384.96 569.88,-382.44 573.75,-389.07 566.43,-380.91"/>
</g>
<!-- PUBLIC.顧客別販売単価 -->
<g id="node9" class="node">
<title>PUBLIC.顧客別販売単価</title>
<polygon fill="#eedd82" stroke="black" points="834.88,-299 698.12,-299 698.12,-263 834.88,-263 834.88,-299"/>
<text text-anchor="middle" x="766.5" y="-274.82" font-family="Times New Roman,serif" font-size="14.00">顧客別販売単価</text>
</g>
<!-- PUBLIC.顧客別販売単価&#45;&gt;PUBLIC.商品マスタ -->
<g id="edge19" class="edge">
<title>PUBLIC.顧客別販売単価&#45;&gt;PUBLIC.商品マスタ</title>
<path fill="none" stroke="black" stroke-dasharray="5,2" d="M697.69,-292.99C683.22,-296.8 668.3,-301.71 655,-308 636.92,-316.55 636.9,-326.07 619,-335 608.94,-340.02 597.8,-344.25 586.81,-347.77"/>
<polygon fill="black" stroke="black" points="577.54,-350.58 585.81,-343.38 581.16,-349.48 587.11,-347.68 587.11,-347.68 587.11,-347.68 581.16,-349.48 588.41,-351.99 577.54,-350.58"/>
</g>
<!-- PUBLIC.取引先分類マスタ -->
<g id="node10" class="node">
<title>PUBLIC.取引先分類マスタ</title>
<polygon fill="#eedd82" stroke="black" points="394.5,-326 240.5,-326 240.5,-290 394.5,-290 394.5,-326"/>
<text text-anchor="middle" x="317.5" y="-301.82" font-family="Times New Roman,serif" font-size="14.00">取引先分類マスタ</text>
</g>
<!-- PUBLIC.取引先分類種別マスタ -->
<g id="node18" class="node">
<title>PUBLIC.取引先分類種別マスタ</title>
<polygon fill="#eedd82" stroke="black" points="204.5,-326 16,-326 16,-290 204.5,-290 204.5,-326"/>
<text text-anchor="middle" x="110.25" y="-301.82" font-family="Times New Roman,serif" font-size="14.00">取引先分類種別マスタ</text>
</g>
<!-- PUBLIC.取引先分類マスタ&#45;&gt;PUBLIC.取引先分類種別マスタ -->
<g id="edge7" class="edge">
<title>PUBLIC.取引先分類マスタ&#45;&gt;PUBLIC.取引先分類種別マスタ</title>
<path fill="none" stroke="black" stroke-dasharray="5,2" d="M240.07,-308C232.16,-308 224.02,-308 215.87,-308"/>
<polygon fill="black" stroke="black" points="205.98,-308 215.98,-303.5 209.76,-308 215.98,-308 215.98,-308 215.98,-308 209.76,-308 215.98,-312.5 205.98,-308"/>
</g>
<!-- PUBLIC.取引先分類所属マスタ -->
<g id="node11" class="node">
<title>PUBLIC.取引先分類所属マスタ</title>
<polygon fill="#eedd82" stroke="black" points="619,-326 430.5,-326 430.5,-290 619,-290 619,-326"/>
<text text-anchor="middle" x="524.75" y="-301.82" font-family="Times New Roman,serif" font-size="14.00">取引先分類所属マスタ</text>
</g>
<!-- PUBLIC.取引先分類所属マスタ&#45;&gt;PUBLIC.取引先マスタ -->
<g id="edge8" class="edge">
<title>PUBLIC.取引先分類所属マスタ&#45;&gt;PUBLIC.取引先マスタ</title>
<path fill="none" stroke="black" stroke-dasharray="5,2" d="M445.03,-326.37C439.91,-328.89 435.01,-331.75 430.5,-335 382.13,-369.81 347.71,-432.32 330.66,-468.67"/>
<polygon fill="black" stroke="black" points="326.63,-477.51 326.69,-466.54 328.2,-474.07 330.78,-468.41 330.78,-468.41 330.78,-468.41 328.2,-474.07 334.88,-470.28 326.63,-477.51"/>
</g>
<!-- PUBLIC.取引先分類所属マスタ&#45;&gt;PUBLIC.取引先分類マスタ -->
<g id="edge9" class="edge">
<title>PUBLIC.取引先分類所属マスタ&#45;&gt;PUBLIC.取引先分類マスタ</title>
<path fill="none" stroke="black" stroke-dasharray="5,2" d="M430.13,-308C422.09,-308 413.96,-308 405.97,-308"/>
<polygon fill="black" stroke="black" points="395.98,-308 405.98,-303.5 399.76,-308 405.98,-308 405.98,-308 405.98,-308 399.76,-308 405.98,-312.5 395.98,-308"/>
</g>
<!-- PUBLIC.支払データ -->
<g id="node12" class="node">
<title>PUBLIC.支払データ</title>
<polygon fill="#eedd82" stroke="black" points="817.62,-353 715.38,-353 715.38,-317 817.62,-317 817.62,-353"/>
<text text-anchor="middle" x="766.5" y="-328.82" font-family="Times New Roman,serif" font-size="14.00">支払データ</text>
</g>
<!-- PUBLIC.自動採番マスタ -->
<g id="node13" class="node">
<title>PUBLIC.自動採番マスタ</title>
<polygon fill="#eedd82" stroke="black" points="834.88,-407 698.12,-407 698.12,-371 834.88,-371 834.88,-407"/>
<text text-anchor="middle" x="766.5" y="-382.82" font-family="Times New Roman,serif" font-size="14.00">自動採番マスタ</text>
</g>
<!-- PUBLIC.受注データ -->
<g id="node14" class="node">
<title>PUBLIC.受注データ</title>
<polygon fill="#eedd82" stroke="black" points="575.88,-1055 473.62,-1055 473.62,-1019 575.88,-1019 575.88,-1055"/>
<text text-anchor="middle" x="524.75" y="-1030.83" font-family="Times New Roman,serif" font-size="14.00">受注データ</text>
</g>
<!-- PUBLIC.発注データ明細 -->
<g id="node15" class="node">
<title>PUBLIC.発注データ明細</title>
<polygon fill="#eedd82" stroke="black" points="834.88,-569 698.12,-569 698.12,-533 834.88,-533 834.88,-569"/>
<text text-anchor="middle" x="766.5" y="-544.83" font-family="Times New Roman,serif" font-size="14.00">発注データ明細</text>
</g>
<!-- PUBLIC.発注データ -->
<g id="node21" class="node">
<title>PUBLIC.発注データ</title>
<polygon fill="#eedd82" stroke="black" points="575.88,-569 473.62,-569 473.62,-533 575.88,-533 575.88,-569"/>
<text text-anchor="middle" x="524.75" y="-544.83" font-family="Times New Roman,serif" font-size="14.00">発注データ</text>
</g>
<!-- PUBLIC.発注データ明細&#45;&gt;PUBLIC.発注データ -->
<g id="edge14" class="edge">
<title>PUBLIC.発注データ明細&#45;&gt;PUBLIC.発注データ</title>
<path fill="none" stroke="black" stroke-dasharray="5,2" d="M697.76,-551C663.05,-551 621.1,-551 587.31,-551"/>
<polygon fill="black" stroke="black" points="577.41,-551 587.41,-546.5 581.19,-551 587.41,-551 587.41,-551 587.41,-551 581.19,-551 587.41,-555.5 577.41,-551"/>
</g>
<!-- PUBLIC.顧客マスタ -->
<g id="node16" class="node">
<title>PUBLIC.顧客マスタ</title>
<polygon fill="#eedd82" stroke="black" points="575.88,-515 473.62,-515 473.62,-479 575.88,-479 575.88,-515"/>
<text text-anchor="middle" x="524.75" y="-490.82" font-family="Times New Roman,serif" font-size="14.00">顧客マスタ</text>
</g>
<!-- PUBLIC.顧客マスタ&#45;&gt;PUBLIC.取引先マスタ -->
<g id="edge18" class="edge">
<title>PUBLIC.顧客マスタ&#45;&gt;PUBLIC.取引先マスタ</title>
<path fill="none" stroke="black" stroke-dasharray="5,2" d="M473.28,-497C447.71,-497 416.26,-497 388.4,-497"/>
<polygon fill="black" stroke="black" points="378.74,-497 388.74,-492.5 382.52,-497 388.74,-497 388.74,-497 388.74,-497 382.52,-497 388.74,-501.5 378.74,-497"/>
</g>
<!-- PUBLIC.倉庫部門マスタ -->
<g id="node17" class="node">
<title>PUBLIC.倉庫部門マスタ</title>
<polygon fill="#eedd82" stroke="black" points="834.88,-623 698.12,-623 698.12,-587 834.88,-587 834.88,-623"/>
<text text-anchor="middle" x="766.5" y="-598.83" font-family="Times New Roman,serif" font-size="14.00">倉庫部門マスタ</text>
</g>
<!-- PUBLIC.部門マスタ -->
<g id="node26" class="node">
<title>PUBLIC.部門マスタ</title>
<polygon fill="#eedd82" stroke="black" points="575.88,-623 473.62,-623 473.62,-587 575.88,-587 575.88,-623"/>
<text text-anchor="middle" x="524.75" y="-598.83" font-family="Times New Roman,serif" font-size="14.00">部門マスタ</text>
</g>
<!-- PUBLIC.倉庫部門マスタ&#45;&gt;PUBLIC.部門マスタ -->
<g id="edge5" class="edge">
<title>PUBLIC.倉庫部門マスタ&#45;&gt;PUBLIC.部門マスタ</title>
<path fill="none" stroke="black" stroke-dasharray="5,2" d="M697.76,-605C663.05,-605 621.1,-605 587.31,-605"/>
<polygon fill="black" stroke="black" points="577.41,-605 587.41,-600.5 581.19,-605 587.41,-605 587.41,-605 587.41,-605 581.19,-605 587.41,-609.5 577.41,-605"/>
</g>
<!-- PUBLIC.倉庫マスタ -->
<g id="node30" class="node">
<title>PUBLIC.倉庫マスタ</title>
<polygon fill="#eedd82" stroke="black" points="575.88,-704 473.62,-704 473.62,-668 575.88,-668 575.88,-704"/>
<text text-anchor="middle" x="524.75" y="-679.83" font-family="Times New Roman,serif" font-size="14.00">倉庫マスタ</text>
</g>
<!-- PUBLIC.倉庫部門マスタ&#45;&gt;PUBLIC.倉庫マスタ -->
<g id="edge4" class="edge">
<title>PUBLIC.倉庫部門マスタ&#45;&gt;PUBLIC.倉庫マスタ</title>
<path fill="none" stroke="black" stroke-dasharray="5,2" d="M697.83,-619.76C683.56,-623.37 668.69,-627.5 655,-632 628.24,-640.8 599.22,-652.7 575.48,-663.08"/>
<polygon fill="black" stroke="black" points="566.43,-667.09 573.75,-658.93 569.88,-665.56 575.57,-663.04 575.57,-663.04 575.57,-663.04 569.88,-665.56 577.39,-667.16 566.43,-667.09"/>
</g>
<!-- PUBLIC.在庫データ -->
<g id="node19" class="node">
<title>PUBLIC.在庫データ</title>
<polygon fill="#eedd82" stroke="black" points="817.62,-839 715.38,-839 715.38,-803 817.62,-803 817.62,-839"/>
<text text-anchor="middle" x="766.5" y="-814.83" font-family="Times New Roman,serif" font-size="14.00">在庫データ</text>
</g>
<!-- PUBLIC.在庫データ&#45;&gt;PUBLIC.倉庫マスタ -->
<g id="edge11" class="edge">
<title>PUBLIC.在庫データ&#45;&gt;PUBLIC.倉庫マスタ</title>
<path fill="none" stroke="black" stroke-dasharray="5,2" d="M714.94,-818.26C694.42,-814.87 671.67,-807.93 655,-794 624.77,-768.74 648.69,-738.89 619,-713 609.86,-705.03 598.49,-699.4 586.86,-695.44"/>
<polygon fill="black" stroke="black" points="577.34,-692.59 588.21,-691.14 580.96,-693.67 586.92,-695.46 586.92,-695.46 586.92,-695.46 580.96,-693.67 585.63,-699.77 577.34,-692.59"/>
</g>
<!-- PUBLIC.出荷先マスタ -->
<g id="node20" class="node">
<title>PUBLIC.出荷先マスタ</title>
<polygon fill="#eedd82" stroke="black" points="826.25,-515 706.75,-515 706.75,-479 826.25,-479 826.25,-515"/>
<text text-anchor="middle" x="766.5" y="-490.82" font-family="Times New Roman,serif" font-size="14.00">出荷先マスタ</text>
</g>
<!-- PUBLIC.出荷先マスタ&#45;&gt;PUBLIC.顧客マスタ -->
<g id="edge6" class="edge">
<title>PUBLIC.出荷先マスタ&#45;&gt;PUBLIC.顧客マスタ</title>
<path fill="none" stroke="black" stroke-dasharray="5,2" d="M706.54,-497C670.36,-497 624.08,-497 587.41,-497"/>
<polygon fill="black" stroke="black" points="577.58,-497 587.58,-492.5 581.36,-497 587.58,-497 587.58,-497 587.58,-497 581.36,-497 587.58,-501.5 577.58,-497"/>
</g>
<!-- PUBLIC.請求データ -->
<g id="node22" class="node">
<title>PUBLIC.請求データ</title>
<polygon fill="#eedd82" stroke="black" points="575.88,-1001 473.62,-1001 473.62,-965 575.88,-965 575.88,-1001"/>
<text text-anchor="middle" x="524.75" y="-976.83" font-family="Times New Roman,serif" font-size="14.00">請求データ</text>
</g>
<!-- PUBLIC.入金口座マスタ -->
<g id="node23" class="node">
<title>PUBLIC.入金口座マスタ</title>
<polygon fill="#eedd82" stroke="black" points="834.88,-677 698.12,-677 698.12,-641 834.88,-641 834.88,-677"/>
<text text-anchor="middle" x="766.5" y="-652.83" font-family="Times New Roman,serif" font-size="14.00">入金口座マスタ</text>
</g>
<!-- PUBLIC.仕入データ明細 -->
<g id="node24" class="node">
<title>PUBLIC.仕入データ明細</title>
<polygon fill="#eedd82" stroke="black" points="834.88,-893 698.12,-893 698.12,-857 834.88,-857 834.88,-893"/>
<text text-anchor="middle" x="766.5" y="-868.83" font-family="Times New Roman,serif" font-size="14.00">仕入データ明細</text>
</g>
<!-- PUBLIC.仕入データ -->
<g id="node38" class="node">
<title>PUBLIC.仕入データ</title>
<polygon fill="#eedd82" stroke="black" points="575.88,-893 473.62,-893 473.62,-857 575.88,-857 575.88,-893"/>
<text text-anchor="middle" x="524.75" y="-868.83" font-family="Times New Roman,serif" font-size="14.00">仕入データ</text>
</g>
<!-- PUBLIC.仕入データ明細&#45;&gt;PUBLIC.仕入データ -->
<g id="edge1" class="edge">
<title>PUBLIC.仕入データ明細&#45;&gt;PUBLIC.仕入データ</title>
<path fill="none" stroke="black" stroke-dasharray="5,2" d="M697.76,-875C663.05,-875 621.1,-875 587.31,-875"/>
<polygon fill="black" stroke="black" points="577.41,-875 587.41,-870.5 581.19,-875 587.41,-875 587.41,-875 587.41,-875 581.19,-875 587.41,-879.5 577.41,-875"/>
</g>
<!-- PUBLIC.社員マスタ -->
<g id="node25" class="node">
<title>PUBLIC.社員マスタ</title>
<polygon fill="#eedd82" stroke="black" points="817.62,-785 715.38,-785 715.38,-749 817.62,-749 817.62,-785"/>
<text text-anchor="middle" x="766.5" y="-760.83" font-family="Times New Roman,serif" font-size="14.00">社員マスタ</text>
</g>
<!-- PUBLIC.請求データ明細 -->
<g id="node27" class="node">
<title>PUBLIC.請求データ明細</title>
<polygon fill="#eedd82" stroke="black" points="834.88,-947 698.12,-947 698.12,-911 834.88,-911 834.88,-947"/>
<text text-anchor="middle" x="766.5" y="-922.83" font-family="Times New Roman,serif" font-size="14.00">請求データ明細</text>
</g>
<!-- PUBLIC.請求データ明細&#45;&gt;PUBLIC.請求データ -->
<g id="edge16" class="edge">
<title>PUBLIC.請求データ明細&#45;&gt;PUBLIC.請求データ</title>
<path fill="none" stroke="black" stroke-dasharray="5,2" d="M697.76,-944.26C662.9,-952.11 620.73,-961.61 586.87,-969.23"/>
<polygon fill="black" stroke="black" points="577.38,-971.37 586.15,-964.78 581.07,-970.54 587.14,-969.17 587.14,-969.17 587.14,-969.17 581.07,-970.54 588.13,-973.56 577.38,-971.37"/>
</g>
<!-- PUBLIC.売上データ明細 -->
<g id="node31" class="node">
<title>PUBLIC.売上データ明細</title>
<polygon fill="#eedd82" stroke="black" points="593.12,-947 456.38,-947 456.38,-911 593.12,-911 593.12,-947"/>
<text text-anchor="middle" x="524.75" y="-922.83" font-family="Times New Roman,serif" font-size="14.00">売上データ明細</text>
</g>
<!-- PUBLIC.請求データ明細&#45;&gt;PUBLIC.売上データ明細 -->
<g id="edge15" class="edge">
<title>PUBLIC.請求データ明細&#45;&gt;PUBLIC.売上データ明細</title>
<path fill="none" stroke="black" stroke-dasharray="5,2" d="M697.76,-929C668.65,-929 634.46,-929 604.25,-929"/>
<polygon fill="black" stroke="black" points="594.54,-929 604.54,-924.5 598.32,-929 604.54,-929 604.54,-929 604.54,-929 598.32,-929 604.54,-933.5 594.54,-929"/>
</g>
<!-- PUBLIC.棚番マスタ -->
<g id="node28" class="node">
<title>PUBLIC.棚番マスタ</title>
<polygon fill="#eedd82" stroke="black" points="817.62,-731 715.38,-731 715.38,-695 817.62,-695 817.62,-731"/>
<text text-anchor="middle" x="766.5" y="-706.83" font-family="Times New Roman,serif" font-size="14.00">棚番マスタ</text>
</g>
<!-- PUBLIC.棚番マスタ&#45;&gt;PUBLIC.倉庫マスタ -->
<g id="edge13" class="edge">
<title>PUBLIC.棚番マスタ&#45;&gt;PUBLIC.倉庫マスタ</title>
<path fill="none" stroke="black" stroke-dasharray="5,2" d="M714.95,-707.31C677.73,-703.12 626.93,-697.39 587.34,-692.94"/>
<polygon fill="black" stroke="black" points="577.44,-691.82 587.88,-688.47 581.2,-692.24 587.38,-692.94 587.38,-692.94 587.38,-692.94 581.2,-692.24 586.88,-697.41 577.44,-691.82"/>
</g>
<!-- PUBLIC.代替商品 -->
<g id="node29" class="node">
<title>PUBLIC.代替商品</title>
<polygon fill="#eedd82" stroke="black" points="809,-245 724,-245 724,-209 809,-209 809,-245"/>
<text text-anchor="middle" x="766.5" y="-220.82" font-family="Times New Roman,serif" font-size="14.00">代替商品</text>
</g>
<!-- PUBLIC.代替商品&#45;&gt;PUBLIC.商品マスタ -->
<g id="edge3" class="edge">
<title>PUBLIC.代替商品&#45;&gt;PUBLIC.商品マスタ</title>
<path fill="none" stroke="black" stroke-dasharray="5,2" d="M723.73,-228.47C701.16,-231.25 674.09,-238.04 655,-254 624.77,-279.26 648.69,-309.11 619,-335 609.86,-342.97 598.49,-348.6 586.86,-352.56"/>
<polygon fill="black" stroke="black" points="577.34,-355.41 585.63,-348.23 580.96,-354.33 586.92,-352.54 586.92,-352.54 586.92,-352.54 580.96,-354.33 588.21,-356.86 577.34,-355.41"/>
</g>
<!-- PUBLIC.売上データ -->
<g id="node34" class="node">
<title>PUBLIC.売上データ</title>
<polygon fill="#eedd82" stroke="black" points="368.62,-947 266.38,-947 266.38,-911 368.62,-911 368.62,-947"/>
<text text-anchor="middle" x="317.5" y="-922.83" font-family="Times New Roman,serif" font-size="14.00">売上データ</text>
</g>
<!-- PUBLIC.売上データ明細&#45;&gt;PUBLIC.売上データ -->
<g id="edge12" class="edge">
<title>PUBLIC.売上データ明細&#45;&gt;PUBLIC.売上データ</title>
<path fill="none" stroke="black" stroke-dasharray="5,2" d="M455.97,-929C431.48,-929 403.98,-929 380.05,-929"/>
<polygon fill="black" stroke="black" points="370.19,-929 380.19,-924.5 373.97,-929 380.19,-929 380.19,-929 380.19,-929 373.97,-929 380.19,-933.5 370.19,-929"/>
</g>
<!-- PUBLIC.地域マスタ -->
<g id="node32" class="node">
<title>PUBLIC.地域マスタ</title>
<polygon fill="#eedd82" stroke="black" points="817.62,-1001 715.38,-1001 715.38,-965 817.62,-965 817.62,-1001"/>
<text text-anchor="middle" x="766.5" y="-976.83" font-family="Times New Roman,serif" font-size="14.00">地域マスタ</text>
</g>
<!-- PUBLIC.受注データ明細 -->
<g id="node33" class="node">
<title>PUBLIC.受注データ明細</title>
<polygon fill="#eedd82" stroke="black" points="834.88,-1055 698.12,-1055 698.12,-1019 834.88,-1019 834.88,-1055"/>
<text text-anchor="middle" x="766.5" y="-1030.83" font-family="Times New Roman,serif" font-size="14.00">受注データ明細</text>
</g>
<!-- PUBLIC.受注データ明細&#45;&gt;PUBLIC.受注データ -->
<g id="edge10" class="edge">
<title>PUBLIC.受注データ明細&#45;&gt;PUBLIC.受注データ</title>
<path fill="none" stroke="black" stroke-dasharray="5,2" d="M697.76,-1037C663.05,-1037 621.1,-1037 587.31,-1037"/>
<polygon fill="black" stroke="black" points="577.41,-1037 587.41,-1032.5 581.19,-1037 587.41,-1037 587.41,-1037 587.41,-1037 581.19,-1037 587.41,-1041.5 577.41,-1037"/>
</g>
<!-- PUBLIC.個人客マスタ -->
<g id="node35" class="node">
<title>PUBLIC.個人客マスタ</title>
<polygon fill="#eedd82" stroke="black" points="826.25,-1109 706.75,-1109 706.75,-1073 826.25,-1073 826.25,-1109"/>
<text text-anchor="middle" x="766.5" y="-1084.83" font-family="Times New Roman,serif" font-size="14.00">個人客マスタ</text>
</g>
<!-- PUBLIC.flyway_schema_history -->
<g id="node36" class="node">
<title>PUBLIC.flyway_schema_history</title>
<polygon fill="#eedd82" stroke="black" points="839.38,-1163 693.62,-1163 693.62,-1127 839.38,-1127 839.38,-1163"/>
<text text-anchor="middle" x="766.5" y="-1139.95" font-family="Times New Roman,serif" font-size="14.00">flyway_schema_history</text>
</g>
<!-- PUBLIC.商品分類マスタ -->
<g id="node37" class="node">
<title>PUBLIC.商品分類マスタ</title>
<polygon fill="#eedd82" stroke="black" points="834.88,-1217 698.12,-1217 698.12,-1181 834.88,-1181 834.88,-1217"/>
<text text-anchor="middle" x="766.5" y="-1192.83" font-family="Times New Roman,serif" font-size="14.00">商品分類マスタ</text>
</g>
<!-- PUBLIC.入金データ -->
<g id="node39" class="node">
<title>PUBLIC.入金データ</title>
<polygon fill="#eedd82" stroke="black" points="817.62,-1271 715.38,-1271 715.38,-1235 817.62,-1235 817.62,-1271"/>
<text text-anchor="middle" x="766.5" y="-1246.83" font-family="Times New Roman,serif" font-size="14.00">入金データ</text>
</g>
</g>
</svg>
