<?xml version="1.0" encoding="UTF-8" standalone="no"?>
<!DOCTYPE svg PUBLIC "-//W3C//DTD SVG 1.1//EN"
 "http://www.w3.org/Graphics/SVG/1.1/DTD/svg11.dtd">
<!-- Generated by graphviz version 3.0.0 (20220226.1711)
 -->
<!-- Title: ERD Pages: 1 -->
<svg width="870pt" height="1316pt"
     viewBox="0.00 0.00 870.00 1316.00" xmlns="http://www.w3.org/2000/svg">
    <g id="graph0" class="graph" transform="scale(1 1) rotate(0) translate(4 1312)">
<title>ERD</title>
        <polygon fill="white" stroke="transparent" points="-4,4 -4,-1312 866,-1312 866,4 -4,4"/>
<g id="clust1" class="cluster">
    <title>cluster_SYSTEM</title>
    <polygon fill="lightyellow" stroke="black" points="715.5,-8 715.5,-83 787.5,-83 787.5,-8 715.5,-8"/>
    <text text-anchor="middle" x="751.5" y="-67.8" font-family="Times New Roman,serif" font-size="14.00">SYSTEM</text>
</g>
        <g id="clust2" class="cluster">
<title>cluster_PUBLIC</title>
            <polygon fill="lightyellow" stroke="black" points="8,-91 8,-1300 854,-1300 854,-91 8,-91"/>
            <text text-anchor="middle" x="431" y="-1284.8" font-family="Times New Roman,serif" font-size="14.00">
                PUBLIC
            </text>
        </g>
        <!-- SYSTEM.USR -->
        <g id="node1" class="node">
            <title>SYSTEM.USR</title>
            <polygon fill="#eedd82" stroke="black" points="778.5,-52 724.5,-52 724.5,-16 778.5,-16 778.5,-52"/>
            <text text-anchor="middle" x="751.5" y="-30.3" font-family="Times New Roman,serif" font-size="14.00">USR
            </text>
</g>
<!-- PUBLIC.取引先グループマスタ -->
        <g id="node2" class="node">
<title>PUBLIC.取引先グループマスタ</title>
            <polygon fill="#eedd82" stroke="black" points="846,-1269 657,-1269 657,-1233 846,-1233 846,-1269"/>
            <text text-anchor="middle" x="751.5" y="-1247.3" font-family="Times New Roman,serif" font-size="14.00">
                取引先グループマスタ
            </text>
</g>
<!-- PUBLIC.与信残高データ -->
        <g id="node3" class="node">
<title>PUBLIC.与信残高データ</title>
            <polygon fill="#eedd82" stroke="black" points="820,-1215 683,-1215 683,-1179 820,-1179 820,-1215"/>
            <text text-anchor="middle" x="751.5" y="-1193.3" font-family="Times New Roman,serif" font-size="14.00">
                与信残高データ
            </text>
</g>
<!-- PUBLIC.取引先マスタ -->
        <g id="node4" class="node">
<title>PUBLIC.取引先マスタ</title>
            <polygon fill="#eedd82" stroke="black"
                     points="378.5,-1053 258.5,-1053 258.5,-1017 378.5,-1017 378.5,-1053"/>
            <text text-anchor="middle" x="318.5" y="-1031.3" font-family="Times New Roman,serif" font-size="14.00">
                取引先マスタ
            </text>
</g>
<!-- PUBLIC.仕入先マスタ -->
        <g id="node5" class="node">
<title>PUBLIC.仕入先マスタ</title>
            <polygon fill="#eedd82" stroke="black"
                     points="586.5,-1053 466.5,-1053 466.5,-1017 586.5,-1017 586.5,-1053"/>
            <text text-anchor="middle" x="526.5" y="-1031.3" font-family="Times New Roman,serif" font-size="14.00">
                仕入先マスタ
            </text>
</g>
<!-- PUBLIC.仕入先マスタ&#45;&gt;PUBLIC.取引先マスタ -->
<g id="edge2" class="edge">
<title>PUBLIC.仕入先マスタ&#45;&gt;PUBLIC.取引先マスタ</title>
    <path fill="none" stroke="black" stroke-dasharray="5,2" d="M466.47,-1035C442.23,-1035 413.98,-1035 388.77,-1035"/>
    <polygon fill="black" stroke="black"
             points="378.54,-1035 388.54,-1030.5 383.54,-1035 388.54,-1035 388.54,-1035 388.54,-1035 383.54,-1035 388.54,-1039.5 378.54,-1035 378.54,-1035"/>
</g>
<!-- PUBLIC.商品マスタ -->
        <g id="node6" class="node">
<title>PUBLIC.商品マスタ</title>
            <polygon fill="#eedd82" stroke="black" points="578,-945 475,-945 475,-909 578,-909 578,-945"/>
            <text text-anchor="middle" x="526.5" y="-923.3" font-family="Times New Roman,serif" font-size="14.00">
                商品マスタ
            </text>
</g>
<!-- PUBLIC.部品表 -->
        <g id="node7" class="node">
<title>PUBLIC.部品表</title>
            <polygon fill="#eedd82" stroke="black"
                     points="785.5,-1107 717.5,-1107 717.5,-1071 785.5,-1071 785.5,-1107"/>
            <text text-anchor="middle" x="751.5" y="-1085.3" font-family="Times New Roman,serif" font-size="14.00">
                部品表
            </text>
</g>
<!-- PUBLIC.部品表&#45;&gt;PUBLIC.商品マスタ -->
<g id="edge17" class="edge">
<title>PUBLIC.部品表&#45;&gt;PUBLIC.商品マスタ</title>
    <path fill="none" stroke="black" stroke-dasharray="5,2"
          d="M717.28,-1085.16C698.19,-1081.63 674.59,-1074.88 657,-1062 633.73,-1044.96 640.07,-1029.64 621,-1008 602.57,-987.09 578.79,-966.56 559.83,-951.4"/>
    <polygon fill="black" stroke="black"
             points="551.76,-945.04 562.4,-947.7 555.69,-948.14 559.61,-951.23 559.61,-951.23 559.61,-951.23 555.69,-948.14 556.83,-954.77 551.76,-945.04 551.76,-945.04"/>
</g>
<!-- PUBLIC.顧客別販売単価 -->
        <g id="node8" class="node">
<title>PUBLIC.顧客別販売単価</title>
            <polygon fill="#eedd82" stroke="black" points="820,-945 683,-945 683,-909 820,-909 820,-945"/>
            <text text-anchor="middle" x="751.5" y="-923.3" font-family="Times New Roman,serif" font-size="14.00">
                顧客別販売単価
            </text>
</g>
<!-- PUBLIC.顧客別販売単価&#45;&gt;PUBLIC.商品マスタ -->
<g id="edge19" class="edge">
<title>PUBLIC.顧客別販売単価&#45;&gt;PUBLIC.商品マスタ</title>
    <path fill="none" stroke="black" stroke-dasharray="5,2" d="M682.99,-927C652.83,-927 617.56,-927 588.24,-927"/>
    <polygon fill="black" stroke="black"
             points="578.13,-927 588.13,-922.5 583.13,-927 588.13,-927 588.13,-927 588.13,-927 583.13,-927 588.13,-931.5 578.13,-927 578.13,-927"/>
</g>
<!-- PUBLIC.取引先分類マスタ -->
        <g id="node9" class="node">
<title>PUBLIC.取引先分類マスタ</title>
            <polygon fill="#eedd82" stroke="black" points="396,-621 241,-621 241,-585 396,-585 396,-621"/>
            <text text-anchor="middle" x="318.5" y="-599.3" font-family="Times New Roman,serif" font-size="14.00">
                取引先分類マスタ
            </text>
</g>
<!-- PUBLIC.取引先分類種別マスタ -->
        <g id="node17" class="node">
<title>PUBLIC.取引先分類種別マスタ</title>
            <polygon fill="#eedd82" stroke="black" points="205,-621 16,-621 16,-585 205,-585 205,-621"/>
            <text text-anchor="middle" x="110.5" y="-599.3" font-family="Times New Roman,serif" font-size="14.00">
                取引先分類種別マスタ
            </text>
</g>
<!-- PUBLIC.取引先分類マスタ&#45;&gt;PUBLIC.取引先分類種別マスタ -->
<g id="edge7" class="edge">
<title>PUBLIC.取引先分類マスタ&#45;&gt;PUBLIC.取引先分類種別マスタ</title>
    <path fill="none" stroke="black" stroke-dasharray="5,2" d="M240.79,-603C232.49,-603 223.94,-603 215.38,-603"/>
    <polygon fill="black" stroke="black"
             points="205.35,-603 215.35,-598.5 210.35,-603 215.35,-603 215.35,-603 215.35,-603 210.35,-603 215.35,-607.5 205.35,-603 205.35,-603"/>
</g>
<!-- PUBLIC.取引先分類所属マスタ -->
        <g id="node10" class="node">
<title>PUBLIC.取引先分類所属マスタ</title>
            <polygon fill="#eedd82" stroke="black" points="621,-621 432,-621 432,-585 621,-585 621,-621"/>
            <text text-anchor="middle" x="526.5" y="-599.3" font-family="Times New Roman,serif" font-size="14.00">
                取引先分類所属マスタ
            </text>
</g>
<!-- PUBLIC.取引先分類所属マスタ&#45;&gt;PUBLIC.取引先マスタ -->
<g id="edge8" class="edge">
<title>PUBLIC.取引先分類所属マスタ&#45;&gt;PUBLIC.取引先マスタ</title>
    <path fill="none" stroke="black" stroke-dasharray="5,2"
          d="M443.03,-621.1C439.05,-623.69 435.33,-626.64 432,-630 326.52,-736.55 317.89,-932.93 318.59,-1006.33"/>
    <polygon fill="black" stroke="black"
             points="318.76,-1016.63 314.1,-1006.71 318.68,-1011.63 318.59,-1006.63 318.59,-1006.63 318.59,-1006.63 318.68,-1011.63 323.09,-1006.56 318.76,-1016.63 318.76,-1016.63"/>
</g>
<!-- PUBLIC.取引先分類所属マスタ&#45;&gt;PUBLIC.取引先分類マスタ -->
<g id="edge9" class="edge">
<title>PUBLIC.取引先分類所属マスタ&#45;&gt;PUBLIC.取引先分類マスタ</title>
    <path fill="none" stroke="black" stroke-dasharray="5,2" d="M431.84,-603C423.38,-603 414.83,-603 406.43,-603"/>
    <polygon fill="black" stroke="black"
             points="396.27,-603 406.27,-598.5 401.27,-603 406.27,-603 406.27,-603 406.27,-603 401.27,-603 406.27,-607.5 396.27,-603 396.27,-603"/>
</g>
<!-- PUBLIC.支払データ -->
        <g id="node11" class="node">
<title>PUBLIC.支払データ</title>
            <polygon fill="#eedd82" stroke="black" points="803,-1053 700,-1053 700,-1017 803,-1017 803,-1053"/>
            <text text-anchor="middle" x="751.5" y="-1031.3" font-family="Times New Roman,serif" font-size="14.00">
                支払データ
            </text>
</g>
<!-- PUBLIC.自動採番マスタ -->
        <g id="node12" class="node">
<title>PUBLIC.自動採番マスタ</title>
            <polygon fill="#eedd82" stroke="black" points="820,-999 683,-999 683,-963 820,-963 820,-999"/>
            <text text-anchor="middle" x="751.5" y="-977.3" font-family="Times New Roman,serif" font-size="14.00">
                自動採番マスタ
            </text>
</g>
<!-- PUBLIC.受注データ -->
        <g id="node13" class="node">
<title>PUBLIC.受注データ</title>
            <polygon fill="#eedd82" stroke="black" points="578,-351 475,-351 475,-315 578,-315 578,-351"/>
            <text text-anchor="middle" x="526.5" y="-329.3" font-family="Times New Roman,serif" font-size="14.00">
                受注データ
            </text>
</g>
<!-- PUBLIC.発注データ明細 -->
        <g id="node14" class="node">
<title>PUBLIC.発注データ明細</title>
            <polygon fill="#eedd82" stroke="black" points="820,-837 683,-837 683,-801 820,-801 820,-837"/>
            <text text-anchor="middle" x="751.5" y="-815.3" font-family="Times New Roman,serif" font-size="14.00">
                発注データ明細
            </text>
</g>
<!-- PUBLIC.発注データ -->
        <g id="node20" class="node">
<title>PUBLIC.発注データ</title>
            <polygon fill="#eedd82" stroke="black" points="578,-837 475,-837 475,-801 578,-801 578,-837"/>
            <text text-anchor="middle" x="526.5" y="-815.3" font-family="Times New Roman,serif" font-size="14.00">
                発注データ
            </text>
</g>
<!-- PUBLIC.発注データ明細&#45;&gt;PUBLIC.発注データ -->
<g id="edge14" class="edge">
<title>PUBLIC.発注データ明細&#45;&gt;PUBLIC.発注データ</title>
    <path fill="none" stroke="black" stroke-dasharray="5,2" d="M682.99,-819C652.83,-819 617.56,-819 588.24,-819"/>
    <polygon fill="black" stroke="black"
             points="578.13,-819 588.13,-814.5 583.13,-819 588.13,-819 588.13,-819 588.13,-819 583.13,-819 588.13,-823.5 578.13,-819 578.13,-819"/>
</g>
<!-- PUBLIC.顧客マスタ -->
        <g id="node15" class="node">
<title>PUBLIC.顧客マスタ</title>
            <polygon fill="#eedd82" stroke="black" points="578,-1134 475,-1134 475,-1098 578,-1098 578,-1134"/>
            <text text-anchor="middle" x="526.5" y="-1112.3" font-family="Times New Roman,serif" font-size="14.00">
                顧客マスタ
            </text>
</g>
<!-- PUBLIC.顧客マスタ&#45;&gt;PUBLIC.取引先マスタ -->
<g id="edge18" class="edge">
<title>PUBLIC.顧客マスタ&#45;&gt;PUBLIC.取引先マスタ</title>
    <path fill="none" stroke="black" stroke-dasharray="5,2"
          d="M479.53,-1097.92C448.55,-1085.74 407.53,-1069.61 374.77,-1056.73"/>
    <polygon fill="black" stroke="black"
             points="365.33,-1053.02 376.29,-1052.49 369.99,-1054.85 374.64,-1056.68 374.64,-1056.68 374.64,-1056.68 369.99,-1054.85 372.99,-1060.87 365.33,-1053.02 365.33,-1053.02"/>
</g>
<!-- PUBLIC.倉庫部門マスタ -->
        <g id="node16" class="node">
<title>PUBLIC.倉庫部門マスタ</title>
            <polygon fill="#eedd82" stroke="black" points="820,-783 683,-783 683,-747 820,-747 820,-783"/>
            <text text-anchor="middle" x="751.5" y="-761.3" font-family="Times New Roman,serif" font-size="14.00">
                倉庫部門マスタ
            </text>
</g>
<!-- PUBLIC.部門マスタ -->
        <g id="node25" class="node">
<title>PUBLIC.部門マスタ</title>
            <polygon fill="#eedd82" stroke="black" points="578,-783 475,-783 475,-747 578,-747 578,-783"/>
            <text text-anchor="middle" x="526.5" y="-761.3" font-family="Times New Roman,serif" font-size="14.00">
                部門マスタ
            </text>
</g>
<!-- PUBLIC.倉庫部門マスタ&#45;&gt;PUBLIC.部門マスタ -->
<g id="edge5" class="edge">
<title>PUBLIC.倉庫部門マスタ&#45;&gt;PUBLIC.部門マスタ</title>
    <path fill="none" stroke="black" stroke-dasharray="5,2" d="M682.99,-765C652.83,-765 617.56,-765 588.24,-765"/>
    <polygon fill="black" stroke="black"
             points="578.13,-765 588.13,-760.5 583.13,-765 588.13,-765 588.13,-765 588.13,-765 583.13,-765 588.13,-769.5 578.13,-765 578.13,-765"/>
</g>
<!-- PUBLIC.倉庫マスタ -->
        <g id="node29" class="node">
<title>PUBLIC.倉庫マスタ</title>
            <polygon fill="#eedd82" stroke="black" points="578,-675 475,-675 475,-639 578,-639 578,-675"/>
            <text text-anchor="middle" x="526.5" y="-653.3" font-family="Times New Roman,serif" font-size="14.00">
                倉庫マスタ
            </text>
</g>
<!-- PUBLIC.倉庫部門マスタ&#45;&gt;PUBLIC.倉庫マスタ -->
<g id="edge4" class="edge">
<title>PUBLIC.倉庫部門マスタ&#45;&gt;PUBLIC.倉庫マスタ</title>
    <path fill="none" stroke="black" stroke-dasharray="5,2"
          d="M682.79,-747.88C673.97,-744.95 665.18,-741.65 657,-738 622.34,-722.52 585.96,-699.03 560.61,-681.33"/>
    <polygon fill="black" stroke="black"
             points="552.13,-675.33 562.89,-677.43 556.21,-678.22 560.3,-681.1 560.3,-681.1 560.3,-681.1 556.21,-678.22 557.7,-684.78 552.13,-675.33 552.13,-675.33"/>
</g>
<!-- PUBLIC.在庫データ -->
        <g id="node18" class="node">
<title>PUBLIC.在庫データ</title>
            <polygon fill="#eedd82" stroke="black" points="803,-621 700,-621 700,-585 803,-585 803,-621"/>
            <text text-anchor="middle" x="751.5" y="-599.3" font-family="Times New Roman,serif" font-size="14.00">
                在庫データ
            </text>
</g>
<!-- PUBLIC.在庫データ&#45;&gt;PUBLIC.倉庫マスタ -->
<g id="edge11" class="edge">
<title>PUBLIC.在庫データ&#45;&gt;PUBLIC.倉庫マスタ</title>
    <path fill="none" stroke="black" stroke-dasharray="5,2"
          d="M699.9,-615.25C666.8,-623.27 623.37,-633.78 588.38,-642.26"/>
    <polygon fill="black" stroke="black"
             points="578.29,-644.7 586.95,-637.97 583.15,-643.52 588.01,-642.35 588.01,-642.35 588.01,-642.35 583.15,-643.52 589.07,-646.72 578.29,-644.7 578.29,-644.7"/>
</g>
<!-- PUBLIC.出荷先マスタ -->
        <g id="node19" class="node">
<title>PUBLIC.出荷先マスタ</title>
            <polygon fill="#eedd82" stroke="black"
                     points="811.5,-1161 691.5,-1161 691.5,-1125 811.5,-1125 811.5,-1161"/>
            <text text-anchor="middle" x="751.5" y="-1139.3" font-family="Times New Roman,serif" font-size="14.00">
                出荷先マスタ
            </text>
</g>
<!-- PUBLIC.出荷先マスタ&#45;&gt;PUBLIC.顧客マスタ -->
<g id="edge6" class="edge">
<title>PUBLIC.出荷先マスタ&#45;&gt;PUBLIC.顧客マスタ</title>
    <path fill="none" stroke="black" stroke-dasharray="5,2"
          d="M691.33,-1135.84C659.54,-1131.99 620.42,-1127.25 588.37,-1123.37"/>
    <polygon fill="black" stroke="black"
             points="578.24,-1122.14 588.71,-1118.88 583.2,-1122.74 588.17,-1123.35 588.17,-1123.35 588.17,-1123.35 583.2,-1122.74 587.62,-1127.81 578.24,-1122.14 578.24,-1122.14"/>
</g>
<!-- PUBLIC.請求データ -->
        <g id="node21" class="node">
<title>PUBLIC.請求データ</title>
            <polygon fill="#eedd82" stroke="black" points="578,-459 475,-459 475,-423 578,-423 578,-459"/>
            <text text-anchor="middle" x="526.5" y="-437.3" font-family="Times New Roman,serif" font-size="14.00">
                請求データ
            </text>
</g>
<!-- PUBLIC.社員マスタ -->
        <g id="node22" class="node">
<title>PUBLIC.社員マスタ</title>
            <polygon fill="#eedd82" stroke="black" points="803,-729 700,-729 700,-693 803,-693 803,-729"/>
            <text text-anchor="middle" x="751.5" y="-707.3" font-family="Times New Roman,serif" font-size="14.00">
                社員マスタ
            </text>
</g>
<!-- PUBLIC.入金口座マスタ -->
        <g id="node23" class="node">
<title>PUBLIC.入金口座マスタ</title>
            <polygon fill="#eedd82" stroke="black" points="820,-675 683,-675 683,-639 820,-639 820,-675"/>
            <text text-anchor="middle" x="751.5" y="-653.3" font-family="Times New Roman,serif" font-size="14.00">
                入金口座マスタ
            </text>
</g>
<!-- PUBLIC.仕入データ明細 -->
        <g id="node24" class="node">
<title>PUBLIC.仕入データ明細</title>
            <polygon fill="#eedd82" stroke="black" points="820,-513 683,-513 683,-477 820,-477 820,-513"/>
            <text text-anchor="middle" x="751.5" y="-491.3" font-family="Times New Roman,serif" font-size="14.00">
                仕入データ明細
            </text>
</g>
<!-- PUBLIC.仕入データ -->
        <g id="node37" class="node">
<title>PUBLIC.仕入データ</title>
            <polygon fill="#eedd82" stroke="black" points="578,-513 475,-513 475,-477 578,-477 578,-513"/>
            <text text-anchor="middle" x="526.5" y="-491.3" font-family="Times New Roman,serif" font-size="14.00">
                仕入データ
            </text>
</g>
<!-- PUBLIC.仕入データ明細&#45;&gt;PUBLIC.仕入データ -->
<g id="edge1" class="edge">
<title>PUBLIC.仕入データ明細&#45;&gt;PUBLIC.仕入データ</title>
    <path fill="none" stroke="black" stroke-dasharray="5,2" d="M682.99,-495C652.83,-495 617.56,-495 588.24,-495"/>
    <polygon fill="black" stroke="black"
             points="578.13,-495 588.13,-490.5 583.13,-495 588.13,-495 588.13,-495 588.13,-495 583.13,-495 588.13,-499.5 578.13,-495 578.13,-495"/>
</g>
<!-- PUBLIC.請求データ明細 -->
        <g id="node26" class="node">
<title>PUBLIC.請求データ明細</title>
            <polygon fill="#eedd82" stroke="black" points="820,-459 683,-459 683,-423 820,-423 820,-459"/>
            <text text-anchor="middle" x="751.5" y="-437.3" font-family="Times New Roman,serif" font-size="14.00">
                請求データ明細
            </text>
</g>
<!-- PUBLIC.請求データ明細&#45;&gt;PUBLIC.請求データ -->
<g id="edge16" class="edge">
<title>PUBLIC.請求データ明細&#45;&gt;PUBLIC.請求データ</title>
    <path fill="none" stroke="black" stroke-dasharray="5,2" d="M682.99,-441C652.83,-441 617.56,-441 588.24,-441"/>
    <polygon fill="black" stroke="black"
             points="578.13,-441 588.13,-436.5 583.13,-441 588.13,-441 588.13,-441 588.13,-441 583.13,-441 588.13,-445.5 578.13,-441 578.13,-441"/>
</g>
<!-- PUBLIC.売上データ明細 -->
        <g id="node30" class="node">
<title>PUBLIC.売上データ明細</title>
            <polygon fill="#eedd82" stroke="black" points="595,-405 458,-405 458,-369 595,-369 595,-405"/>
            <text text-anchor="middle" x="526.5" y="-383.3" font-family="Times New Roman,serif" font-size="14.00">
                売上データ明細
            </text>
</g>
<!-- PUBLIC.請求データ明細&#45;&gt;PUBLIC.売上データ明細 -->
<g id="edge15" class="edge">
<title>PUBLIC.請求データ明細&#45;&gt;PUBLIC.売上データ明細</title>
    <path fill="none" stroke="black" stroke-dasharray="5,2"
          d="M682.99,-424.65C658.43,-418.7 630.48,-411.94 605.12,-405.8"/>
    <polygon fill="black" stroke="black"
             points="595.17,-403.39 605.95,-401.37 600.03,-404.56 604.89,-405.74 604.89,-405.74 604.89,-405.74 600.03,-404.56 603.83,-410.11 595.17,-403.39 595.17,-403.39"/>
</g>
<!-- PUBLIC.棚番マスタ -->
        <g id="node27" class="node">
<title>PUBLIC.棚番マスタ</title>
            <polygon fill="#eedd82" stroke="black" points="803,-567 700,-567 700,-531 803,-531 803,-567"/>
            <text text-anchor="middle" x="751.5" y="-545.3" font-family="Times New Roman,serif" font-size="14.00">
                棚番マスタ
            </text>
</g>
<!-- PUBLIC.棚番マスタ&#45;&gt;PUBLIC.倉庫マスタ -->
<g id="edge13" class="edge">
<title>PUBLIC.棚番マスタ&#45;&gt;PUBLIC.倉庫マスタ</title>
    <path fill="none" stroke="black" stroke-dasharray="5,2"
          d="M699.99,-556.74C685.15,-560.75 669.54,-566.82 657,-576 633.73,-593.04 644.27,-612.96 621,-630 611.2,-637.17 599.53,-642.45 587.82,-646.32"/>
    <polygon fill="black" stroke="black"
             points="578.01,-649.26 586.3,-642.08 582.8,-647.83 587.59,-646.39 587.59,-646.39 587.59,-646.39 582.8,-647.83 588.88,-650.7 578.01,-649.26 578.01,-649.26"/>
</g>
<!-- PUBLIC.代替商品 -->
        <g id="node28" class="node">
<title>PUBLIC.代替商品</title>
            <polygon fill="#eedd82" stroke="black" points="794.5,-891 708.5,-891 708.5,-855 794.5,-855 794.5,-891"/>
            <text text-anchor="middle" x="751.5" y="-869.3" font-family="Times New Roman,serif" font-size="14.00">
                代替商品
            </text>
</g>
<!-- PUBLIC.代替商品&#45;&gt;PUBLIC.商品マスタ -->
<g id="edge3" class="edge">
<title>PUBLIC.代替商品&#45;&gt;PUBLIC.商品マスタ</title>
    <path fill="none" stroke="black" stroke-dasharray="5,2"
          d="M708.29,-883.22C674.33,-891.44 626.16,-903.11 588.08,-912.33"/>
    <polygon fill="black" stroke="black"
             points="578.13,-914.74 586.79,-908.01 582.99,-913.56 587.85,-912.39 587.85,-912.39 587.85,-912.39 582.99,-913.56 588.91,-916.76 578.13,-914.74 578.13,-914.74"/>
</g>
<!-- PUBLIC.売上データ -->
        <g id="node33" class="node">
<title>PUBLIC.売上データ</title>
            <polygon fill="#eedd82" stroke="black" points="370,-405 267,-405 267,-369 370,-369 370,-405"/>
            <text text-anchor="middle" x="318.5" y="-383.3" font-family="Times New Roman,serif" font-size="14.00">
                売上データ
            </text>
</g>
<!-- PUBLIC.売上データ明細&#45;&gt;PUBLIC.売上データ -->
<g id="edge12" class="edge">
<title>PUBLIC.売上データ明細&#45;&gt;PUBLIC.売上データ</title>
    <path fill="none" stroke="black" stroke-dasharray="5,2" d="M457.76,-387C432.83,-387 404.76,-387 380.46,-387"/>
    <polygon fill="black" stroke="black"
             points="370.29,-387 380.29,-382.5 375.29,-387 380.29,-387 380.29,-387 380.29,-387 375.29,-387 380.29,-391.5 370.29,-387 370.29,-387"/>
</g>
<!-- PUBLIC.地域マスタ -->
        <g id="node31" class="node">
<title>PUBLIC.地域マスタ</title>
            <polygon fill="#eedd82" stroke="black" points="803,-405 700,-405 700,-369 803,-369 803,-405"/>
            <text text-anchor="middle" x="751.5" y="-383.3" font-family="Times New Roman,serif" font-size="14.00">
                地域マスタ
            </text>
</g>
<!-- PUBLIC.受注データ明細 -->
        <g id="node32" class="node">
<title>PUBLIC.受注データ明細</title>
            <polygon fill="#eedd82" stroke="black" points="820,-351 683,-351 683,-315 820,-315 820,-351"/>
            <text text-anchor="middle" x="751.5" y="-329.3" font-family="Times New Roman,serif" font-size="14.00">
                受注データ明細
            </text>
</g>
<!-- PUBLIC.受注データ明細&#45;&gt;PUBLIC.受注データ -->
<g id="edge10" class="edge">
<title>PUBLIC.受注データ明細&#45;&gt;PUBLIC.受注データ</title>
    <path fill="none" stroke="black" stroke-dasharray="5,2" d="M682.99,-333C652.83,-333 617.56,-333 588.24,-333"/>
    <polygon fill="black" stroke="black"
             points="578.13,-333 588.13,-328.5 583.13,-333 588.13,-333 588.13,-333 588.13,-333 583.13,-333 588.13,-337.5 578.13,-333 578.13,-333"/>
</g>
<!-- PUBLIC.個人客マスタ -->
        <g id="node34" class="node">
<title>PUBLIC.個人客マスタ</title>
            <polygon fill="#eedd82" stroke="black" points="811.5,-297 691.5,-297 691.5,-261 811.5,-261 811.5,-297"/>
            <text text-anchor="middle" x="751.5" y="-275.3" font-family="Times New Roman,serif" font-size="14.00">
                個人客マスタ
            </text>
</g>
<!-- PUBLIC.flyway_schema_history -->
        <g id="node35" class="node">
<title>PUBLIC.flyway_schema_history</title>
            <polygon fill="#eedd82" stroke="black" points="826,-243 677,-243 677,-207 826,-207 826,-243"/>
            <text text-anchor="middle" x="751.5" y="-221.3" font-family="Times New Roman,serif" font-size="14.00">
                flyway_schema_history
            </text>
</g>
<!-- PUBLIC.商品分類マスタ -->
        <g id="node36" class="node">
<title>PUBLIC.商品分類マスタ</title>
            <polygon fill="#eedd82" stroke="black" points="820,-189 683,-189 683,-153 820,-153 820,-189"/>
            <text text-anchor="middle" x="751.5" y="-167.3" font-family="Times New Roman,serif" font-size="14.00">
                商品分類マスタ
            </text>
</g>
<!-- PUBLIC.入金データ -->
        <g id="node38" class="node">
<title>PUBLIC.入金データ</title>
            <polygon fill="#eedd82" stroke="black" points="803,-135 700,-135 700,-99 803,-99 803,-135"/>
            <text text-anchor="middle" x="751.5" y="-113.3" font-family="Times New Roman,serif" font-size="14.00">
                入金データ
            </text>
</g>
</g>
</svg>
